<?xml version="1.0" encoding="UTF-8" standalone="no"?>
<!-- Generator: Adobe Illustrator 14.0.0, SVG Export Plug-In . SVG Version: 6.00 Build 43363)  -->

<svg
   xmlns:dc="http://purl.org/dc/elements/1.1/"
   xmlns:cc="http://creativecommons.org/ns#"
   xmlns:rdf="http://www.w3.org/1999/02/22-rdf-syntax-ns#"
   xmlns:svg="http://www.w3.org/2000/svg"
   xmlns="http://www.w3.org/2000/svg"
   xmlns:sodipodi="http://sodipodi.sourceforge.net/DTD/sodipodi-0.dtd"
   xmlns:inkscape="http://www.inkscape.org/namespaces/inkscape"
   version="1.1"
   id="Layer_1"
   x="0px"
   y="0px"
   width="197.29562"
   height="235.72603"
   viewBox="0 0 197.29562 235.72603"
   enable-background="new 0 0 1440 1440"
   xml:space="preserve"
   inkscape:version="0.91 r13725"
   sodipodi:docname="camello.svg"><metadata
     id="metadata771"><rdf:RDF><cc:Work
         rdf:about=""><dc:format>image/svg+xml</dc:format><dc:type
           rdf:resource="http://purl.org/dc/dcmitype/StillImage" /><dc:title></dc:title></cc:Work></rdf:RDF></metadata><defs
     id="defs769" /><sodipodi:namedview
     pagecolor="#ffffff"
     bordercolor="#666666"
     borderopacity="1"
     objecttolerance="10"
     gridtolerance="10"
     guidetolerance="10"
     inkscape:pageopacity="0"
     inkscape:pageshadow="2"
     inkscape:window-width="1920"
     inkscape:window-height="1018"
     id="namedview767"
     showgrid="false"
     fit-margin-top="0"
     fit-margin-left="0"
     fit-margin-right="0"
     fit-margin-bottom="0"
     inkscape:zoom="0.64641035"
     inkscape:cx="141.68327"
     inkscape:cy="-391.15637"
     inkscape:window-x="-8"
     inkscape:window-y="-8"
     inkscape:window-maximized="1"
     inkscape:current-layer="Layer_1" /><g
     id="g217"
     transform="translate(-556.24352,-54.275076)"><path
       d="M 726.281,91.529 C 722.143,72.419 709.479,62.82 695.779,62.82 c -11.669,0 -23.968,3.429 -28.453,19.964 -29.938,6.543 -15.472,33.384 -31.043,38.335 -1.015,0.324 -1.854,0.5 -2.542,0.542 -3.95,-4.804 -7.134,-11.425 -8.188,-19.602 -2.598,-20.121 -12.979,-37.287 -14.277,-38.024 -1.298,-0.739 9.41,-1.847 4.544,-5.168 -4.869,-3.323 -7.482,3.52 -7.482,3.52 l 0.182,0.173 c -0.182,-0.173 -0.378,-0.333 -0.589,-0.479 -3.379,-2.347 -10.28,-1.368 -10.28,-1.368 0,-4.059 -4.866,-7.198 -8.109,-6.276 -3.245,0.921 1.967,6.5 1.967,6.5 0,0 -28.409,-1.705 -35.058,18.599 0,0 -1.624,7.018 4.215,7.387 0,0 -2.701,9.596 8.139,8.435 7.301,-0.782 3.522,-4.328 14.64,-5.787 4.217,-0.553 4.937,6.252 17.275,5.991 0,0 -2.033,68.878 35.632,80.819 -0.401,4.569 0.775,18.561 6.074,29.848 l 0.047,13.747 c 0,0 -3.39,7.954 1.013,17.871 0,0 -0.719,35.465 -8.035,35.465 -1.608,0 -2.882,0.679 -3.897,1.731 0.002,-0.005 0.004,-0.009 0.004,-0.009 -3.181,3.288 -3.797,10.271 -4.007,11.784 0,0 -0.077,0.312 0.08,0.327 0,0 2.604,-0.487 4.957,-5.33 0,0 -0.614,4.997 1.33,5.815 l 0.307,0.036 c 6.994,0.327 17.255,0.049 19.614,-4.193 0,0 0.036,-5.195 -1.365,-8.366 0,10e-4 0,10e-4 0,0.002 -0.539,-1.219 -1.289,-2.14 -2.337,-2.351 0,0 2.402,-27.729 5.898,-35.96 4.042,-9.519 1.406,-15.226 1.406,-15.226 0,0 -1.145,-7.592 0.177,-16.97 1.458,-10.354 1.438,-7.289 2.494,-20.504 1.055,-13.214 5.786,-6.929 5.786,-6.929 0,0 4.3,12.786 6.926,19.908 3.08,8.355 0.033,23.038 0.033,23.038 0,0 -4.048,11.979 2.886,22.558 6.931,10.58 -3.648,32.831 -3.648,32.831 0,0 -3.648,1.825 -3.648,10.213 0,0.667 0.161,1.24 0.458,1.73 0,0 1.989,0.154 5.768,-3.653 0,0 0.401,5.394 1.594,6.189 l 0.13,0.01 c 5.533,0.123 12.647,-1.173 15.737,-2.518 1.727,-0.751 1.715,-3.731 1.715,-3.731 -0.188,-1.543 -0.626,-3.66 -1.603,-7.448 l -0.002,0.001 c -0.412,-1.603 -0.92,-3.238 -1.548,-4.807 -2.918,-7.295 -2.553,-24.075 -2.553,-24.075 0,0 4.614,-19.412 1.825,-26.627 -3.26,-8.43 0.896,-18.128 4.012,-24.804 2.841,-6.097 3.424,-19.289 3.424,-19.289 0,0 11.327,-1.333 11.251,-0.722 -0.729,5.886 0.936,17.875 6.313,25.855 l -0.553,17.456 c 0,0 -2.161,3.691 -2.012,6.234 0.122,2.104 2.288,5.68 2.288,5.68 l -0.554,15.238 c 0,0 -1.947,6.758 -4.841,6.816 -0.918,0.019 -1.805,0.078 -2.639,0.207 l 0.025,0.017 c -2.912,0.512 -5.577,2.04 -6.14,5.977 -0.07,0.495 -0.032,0.966 0.1,1.411 0,0 0.765,0.557 3.834,-2.172 0,0 -0.659,1.125 -1.029,5.227 l 0.011,0.014 c 3.25,1.863 8.235,2.379 9.852,0.993 0,0 2.279,8.1 14.428,7.641 l 0.129,-0.008 c 1.396,-0.82 1.029,-7.455 1.029,-7.455 2.796,7.639 7.323,6.13 7.323,6.13 l 0.072,-0.109 c 0,0 0.505,-7.068 -4.575,-13.854 0,0 0.008,0.016 0.013,0.025 -1.03,-1.379 -2.284,-2.748 -3.827,-4.043 l 1.657,-21.408 0.028,-0.256 c 0,0 1.064,-1.007 2.15,-5.195 0.661,-2.55 -1.174,-7.501 -1.174,-7.501 l 1.086,-14.006 c 0,0 8.144,-6.472 7.934,-16.497 -0.069,-3.363 0.548,-5.107 0.548,-5.107 25.486,-57.653 11.137,-81.975 -13.85,-91.754 z"
       id="path219"
       inkscape:connector-curvature="0"
       style="fill:#dac49e" /><path
       d="m 590.289,63.152 c -0.922,0.311 -1.387,1.645 -1.035,2.978 0.351,1.332 1.385,2.163 2.307,1.853 0.921,-0.313 1.384,-1.647 1.032,-2.979 -0.351,-1.336 -1.383,-2.163 -2.304,-1.852 z M 577.22,81.707 c -5.308,11.626 -15.768,5.173 -15.768,5.173 0,0 -0.289,-0.205 -0.417,-0.009 -0.125,0.197 -0.144,0.394 0.179,0.511 0,0 10.663,6.995 16.42,-4.867 0,0 0.301,-0.374 0.078,-0.649 -0.277,-0.345 -0.492,-0.159 -0.492,-0.159 z m 20.569,-18.701 c -0.949,0.04 -1.67,1.21 -1.612,2.611 0.058,1.401 0.874,2.508 1.822,2.466 0.946,-0.042 1.67,-1.21 1.612,-2.613 -0.058,-1.399 -0.874,-2.504 -1.822,-2.464 z m -31.204,15.002 c 0.497,0.128 1.061,-0.337 1.26,-1.04 0.199,-0.703 -0.044,-1.377 -0.541,-1.506 -0.497,-0.128 -1.061,0.338 -1.26,1.04 -0.197,0.702 0.043,1.377 0.541,1.506 z m -3.933,0.52 c 0.488,-0.239 0.578,-1.064 0.198,-1.84 -0.377,-0.777 -1.082,-1.213 -1.571,-0.973 -0.489,0.241 -0.581,1.064 -0.2,1.841 0.378,0.777 1.084,1.214 1.573,0.972 z M 614.204,59.53 c -1.51,-0.357 -4.274,3.63 -4.274,3.63 7.053,-1.975 6.503,-3.101 4.274,-3.63 z m 63.422,219.648 c -5.366,-0.166 -5.533,-3.674 -5.533,-3.674 0,0 -3.648,1.825 -3.648,10.213 0,0.667 0.161,1.24 0.458,1.73 0,0 1.989,0.154 5.768,-3.653 0,0 0.401,5.394 1.594,6.189 l 0.13,0.01 c 5.533,0.123 12.647,-1.173 15.737,-2.518 1.727,-0.751 1.715,-3.731 1.715,-3.731 -0.188,-1.543 -0.626,-3.66 -1.603,-7.448 10e-4,-10e-4 -2.794,3.245 -14.618,2.882 z m -30.919,-1.729 c -17.098,2.001 -15.149,-2.415 -15.149,-2.415 -3.181,3.288 -3.797,10.271 -4.007,11.784 0,0 -0.077,0.312 0.08,0.327 0,0 2.604,-0.487 4.957,-5.33 0,0 -0.614,4.997 1.33,5.815 l 0.307,0.036 c 6.994,0.327 17.255,0.049 19.614,-4.193 0,0 0.036,-5.195 -1.365,-8.366 -0.04,1.601 -5.767,2.342 -5.767,2.342 z m 85.01,-20.178 c 0,0 1.612,2.808 -4.936,4.082 -6.478,1.26 -10.746,-3.025 -12.041,-4.563 0.405,-1.161 1.101,-2.528 2.302,-3.758 2.796,-2.865 3.273,-22.235 3.273,-22.235 -3.001,-5.934 0.341,-12.482 0.341,-12.482 0.955,-8.39 -0.136,-14.255 -0.136,-14.255 -5.389,-13.642 -1.91,-28.579 -1.91,-28.579 0,0 0.066,-0.294 -0.215,-0.341 -0.281,-0.047 -0.385,0.341 -0.385,0.341 0,0 -3.479,14.937 1.909,28.579 0,0 1.092,5.866 0.137,14.255 0,0 -3.342,6.548 -0.341,12.482 0,0 -0.478,19.371 -3.274,22.235 -1.028,1.053 -1.685,2.206 -2.107,3.245 -0.007,-0.01 -0.012,-0.017 -0.012,-0.017 -0.465,0.919 -0.757,1.934 -0.936,2.937 -1.85,0.229 -3.827,-0.64 -3.827,-0.64 -4.468,-2.694 -2.876,-5.08 -2.876,-5.08 -2.912,0.512 -5.577,2.04 -6.14,5.977 -0.07,0.495 -0.032,0.966 0.1,1.411 0,0 0.765,0.557 3.834,-2.172 0,0 -0.659,1.125 -1.029,5.227 l 0.011,0.014 c 3.25,1.863 8.235,2.379 9.852,0.993 0,0 2.279,8.1 14.428,7.641 l 0.129,-0.008 c 1.396,-0.82 1.029,-7.455 1.029,-7.455 2.796,7.639 7.323,6.13 7.323,6.13 l 0.072,-0.109 c 0,-10e-4 0.505,-7.068 -4.575,-13.855 z"
       id="path221"
       inkscape:connector-curvature="0"
       style="fill:#3c2415" /></g></svg>
