<?xml version="1.0" encoding="UTF-8" standalone="no"?>
<!-- Generator: Adobe Illustrator 14.0.0, SVG Export Plug-In . SVG Version: 6.00 Build 43363)  -->

<svg
   xmlns:dc="http://purl.org/dc/elements/1.1/"
   xmlns:cc="http://creativecommons.org/ns#"
   xmlns:rdf="http://www.w3.org/1999/02/22-rdf-syntax-ns#"
   xmlns:svg="http://www.w3.org/2000/svg"
   xmlns="http://www.w3.org/2000/svg"
   xmlns:sodipodi="http://sodipodi.sourceforge.net/DTD/sodipodi-0.dtd"
   xmlns:inkscape="http://www.inkscape.org/namespaces/inkscape"
   version="1.1"
   id="Layer_1"
   x="0px"
   y="0px"
   width="303.06717"
   height="207.00233"
   viewBox="0 0 303.06717 207.00233"
   enable-background="new 0 0 1440 1440"
   xml:space="preserve"
   inkscape:version="0.91 r13725"
   sodipodi:docname="elefante.svg"><metadata
     id="metadata771"><rdf:RDF><cc:Work
         rdf:about=""><dc:format>image/svg+xml</dc:format><dc:type
           rdf:resource="http://purl.org/dc/dcmitype/StillImage" /><dc:title></dc:title></cc:Work></rdf:RDF></metadata><defs
     id="defs769" /><sodipodi:namedview
     pagecolor="#ffffff"
     bordercolor="#666666"
     borderopacity="1"
     objecttolerance="10"
     gridtolerance="10"
     guidetolerance="10"
     inkscape:pageopacity="0"
     inkscape:pageshadow="2"
     inkscape:window-width="1920"
     inkscape:window-height="1018"
     id="namedview767"
     showgrid="false"
     fit-margin-top="0"
     fit-margin-left="0"
     fit-margin-right="0"
     fit-margin-bottom="0"
     inkscape:zoom="0.64641035"
     inkscape:cx="-92.526036"
     inkscape:cy="-419.15572"
     inkscape:window-x="-8"
     inkscape:window-y="-8"
     inkscape:window-maximized="1"
     inkscape:current-layer="Layer_1" /><g
     id="g223"
     transform="translate(-790.45282,-54.999424)"><path
       d="m 1093.511,209.612 -4.68,-2.821 2.519,0.878 0.656,-1.487 -5.914,-3.101 c -0.041,-0.101 -0.095,-0.217 -0.135,-0.352 -2.199,-7.283 -6.746,-48.057 -17.354,-70.646 -3.657,-7.787 -7.22,-8.648 -9.005,-8.481 0,0.004 -0.022,0.003 -0.04,0.002 -9.971,-13.128 -26.275,-22.44 -48.542,-25.088 3.339,-24.858 -3.041,-40.386 -33.589,-43.312 -26.344,-2.523 -44.922,18.984 -50.46,26.342 -8.294,-6.864 -18.558,-10.93 -29.672,-10.93 -9.513,0 -18.402,2.973 -25.967,8.132 -8.177,-9.191 -24.672,-23.58 -46.479,-21.49 -38.628,3.7 -38.626,27.533 -29.176,64.927 0,0 4.109,8.629 -1.233,21.368 -5.023,11.98 -7.131,29.77 21.68,33.558 0.557,13.484 1.94,40.859 36.384,44.111 21.432,2.023 34.78,-6.653 43.089,-18.595 -1.627,15.433 -1.887,33.759 2.409,49.918 0,0 9.724,11.666 35.65,0 l -7.132,-58.34 c 3.445,3.477 7.385,6.688 11.753,9.585 -0.073,16.28 0.698,38.39 4.599,54.567 0,0 17.368,8.451 37.218,-0.384 0,0 -0.189,-18.497 -4.273,-39.526 6.965,1.274 14.269,1.954 21.794,1.954 4.754,0 9.279,-0.281 13.592,-0.802 0.195,8.917 1.112,17.964 3.194,26.418 0,0 9.009,11.665 33.031,0 l -4.179,-36.897 c 1.717,-1.041 3.358,-2.141 4.92,-3.306 0.428,15.743 1.602,32.684 4.328,45.505 0,0 17.113,9.44 36.67,-0.428 0,0 -1.54,-16.245 -4.621,-37.341 0.01,0.051 0.016,0.104 0.022,0.153 l 0.548,-0.041 -0.07,-3.466 2.56,4.107 1.268,-0.388 1.566,-0.996 -2.269,-4.025 2.936,4.032 2.404,-3.314 z m -238.13,-5.649 c -22.16,-2.557 -23.989,-17.779 -23.008,-26.933 8.946,-1.668 15.782,-6.144 20.896,-11.369 2.903,4.837 7.238,8.801 13.705,11.632 -0.654,5.457 -3.365,12.49 -12.167,16.992 0,0 -8.099,1.912 -3.049,4.52 3.919,2.024 16.129,0.368 23.488,-7.929 -3.053,8.396 -8.961,14.345 -19.865,13.087 z"
       id="path225"
       inkscape:connector-curvature="0"
       style="fill:#b19aca" /><g
       id="g227"><g
         id="g229"><path
           d="m 1093.52,209.615 -4.679,-2.82 2.518,0.878 0.656,-1.487 -5.913,-3.101 c -0.041,-0.099 -0.094,-0.216 -0.135,-0.351 -2.199,-7.283 -6.746,-48.058 -17.354,-70.647 -3.656,-7.787 -7.219,-8.648 -9.005,-8.48 1.744,2.298 3.296,4.712 4.647,7.23 l 0.016,-0.028 c 0.135,0.263 0.268,0.542 0.4,0.812 1.128,2.186 2.117,4.44 2.951,6.766 7.738,19.8 13.387,50.853 16.957,75.323 l 0.546,-0.042 -0.068,-3.465 2.558,4.105 1.269,-0.388 1.565,-0.994 -2.268,-4.026 2.936,4.032 2.403,-3.317 z"
           id="path231"
           inkscape:connector-curvature="0"
           style="fill:#662f90" /><path
           d="m 1066.439,252.809 c 0,0 -1.1,-8.275 3.189,-8.386 4.29,-0.114 4.178,8.255 4.178,8.255 0,0 -3.53,1.876 -7.367,0.131 z"
           id="path233"
           inkscape:connector-curvature="0"
           style="fill:#662f90" /><path
           d="m 1077.757,251.075 c 0,0 -1.615,-6.795 1.562,-7.409 0,0 4.293,-0.399 4.247,6.528 -10e-4,0 -1.742,2.218 -5.809,0.881 z"
           id="path235"
           inkscape:connector-curvature="0"
           style="fill:#662f90" /><path
           d="m 1062.911,251.634 c 0,0 0.698,-7.58 -2.533,-7.731 0,0 -4.171,0.026 -3.393,6.553 0,0 1.568,1.962 5.926,1.178 z"
           id="path237"
           inkscape:connector-curvature="0"
           style="fill:#662f90" /><path
           d="m 999.724,120.341 c 7.79,-32.142 7.792,-52.625 -24.052,-55.804 -22.744,-2.271 -38.474,18.115 -42.182,23.455 8.511,10.004 13.743,23.521 13.743,38.413 0,8.636 0.309,16.812 -0.431,24.109 5.344,8.723 15.008,18.5 31.239,17.505 28.795,-1.766 27.102,-18.366 22.696,-29.314 -4.401,-10.948 -1.013,-18.364 -1.013,-18.364 z"
           id="path239"
           inkscape:connector-curvature="0"
           style="fill:#662f90" /><path
           d="m 851.769,198.81 c 3.92,2.024 16.13,0.368 23.487,-7.929 1.158,-3.188 1.908,-6.726 2.359,-10.358 -4.071,-0.805 -7.581,-1.895 -10.63,-3.229 -0.653,5.458 -3.364,12.494 -12.168,16.997 0,-0.001 -8.097,1.91 -3.048,4.519 z"
           id="path241"
           inkscape:connector-curvature="0"
           style="fill:#662f90" /><path
           d="m 922.308,201.706 c -8.089,-6.943 -8.606,-15.091 -7.67,-20.616 -2.936,0.423 -6.13,0.729 -9.613,0.908 -0.838,2.922 -1.848,5.874 -3.049,8.782 4.307,11.751 17.56,17.181 22.236,16.036 5.52,-1.352 -1.904,-5.11 -1.904,-5.11 z"
           id="path243"
           inkscape:connector-curvature="0"
           style="fill:#662f90" /><path
           d="m 885.701,109.982 c -2.61,-0.403 -5.206,2.387 -5.813,6.231 -0.598,3.852 1.029,7.298 3.631,7.71 2.606,0.409 5.21,-2.386 5.812,-6.231 0.601,-3.847 -1.023,-7.3 -3.63,-7.71 z"
           id="path245"
           inkscape:connector-curvature="0"
           style="fill:#662f90" /><path
           d="m 908.406,111.789 c -2.606,-0.915 -5.799,1.39 -7.124,5.165 -1.325,3.763 -0.278,7.56 2.333,8.48 2.612,0.915 5.805,-1.396 7.127,-5.162 1.325,-3.769 0.279,-7.56 -2.336,-8.483 z"
           id="path247"
           inkscape:connector-curvature="0"
           style="fill:#662f90" /><path
           d="m 957.955,260.208 c 0,0 -1.1,-8.279 3.188,-8.389 4.291,-0.111 4.178,8.258 4.178,8.258 0,0 -3.53,1.874 -7.366,0.131 z"
           id="path249"
           inkscape:connector-curvature="0"
           style="fill:#662f90" /><path
           d="m 969.272,258.475 c 0,0 -1.616,-6.798 1.561,-7.409 0,0 4.292,-0.403 4.247,6.527 0,0 -1.741,2.218 -5.808,0.882 z"
           id="path251"
           inkscape:connector-curvature="0"
           style="fill:#662f90" /><path
           d="m 954.426,259.033 c 0,0 0.698,-7.583 -2.532,-7.733 0,0 -4.172,0.026 -3.394,6.555 0,0 1.567,1.959 5.926,1.178 z"
           id="path253"
           inkscape:connector-curvature="0"
           style="fill:#662f90" /><path
           d="m 880.88,154.409 c 0,0 10.344,-7.681 24.893,-1.005 -10e-4,0 -13.005,-11.297 -24.893,1.005 z"
           id="path255"
           inkscape:connector-curvature="0"
           style="fill:#662f90" /><path
           d="m 905.351,164.5 c 0,0 -12.404,-10.592 -23.732,0.931 -10e-4,0 9.857,-7.194 23.732,-0.931"
           id="path257"
           inkscape:connector-curvature="0"
           style="fill:#662f90" /><path
           d="m 904.224,177.075 c 0,0 -12.218,-10.586 -23.385,0.94 0,0 9.716,-7.197 23.385,-0.94"
           id="path259"
           inkscape:connector-curvature="0"
           style="fill:#662f90" /><path
           d="m 897.485,188.377 c 0,0 -9.487,-6.926 -18.085,0.528 0,0 7.492,-4.643 18.085,-0.528"
           id="path261"
           inkscape:connector-curvature="0"
           style="fill:#662f90" /></g><path
         d="m 813.597,158.703 c 5.366,-3.185 9.272,1.049 9.272,1.049 15.924,-2.688 13.026,4.91 11.079,8.26 6.586,-1.436 11.756,-4.708 15.764,-8.56 -0.051,-0.148 -0.097,-0.302 -0.147,-0.451 -0.092,-0.267 -0.18,-0.535 -0.266,-0.806 -0.105,-0.332 -0.209,-0.667 -0.307,-1.007 -0.082,-0.281 -0.161,-0.566 -0.237,-0.854 -0.091,-0.334 -0.177,-0.671 -0.258,-1.01 -0.074,-0.3 -0.145,-0.6 -0.211,-0.901 -0.076,-0.336 -0.147,-0.673 -0.217,-1.013 -0.063,-0.313 -0.124,-0.626 -0.183,-0.943 -0.063,-0.338 -0.12,-0.679 -0.178,-1.023 -0.054,-0.325 -0.107,-0.651 -0.156,-0.981 -0.051,-0.34 -0.099,-0.684 -0.145,-1.03 -0.045,-0.338 -0.091,-0.675 -0.132,-1.017 -0.041,-0.344 -0.079,-0.691 -0.115,-1.039 -0.037,-0.349 -0.075,-0.697 -0.108,-1.05 -0.032,-0.35 -0.061,-0.704 -0.089,-1.058 -0.031,-0.354 -0.062,-0.71 -0.086,-1.069 -0.025,-0.354 -0.048,-0.713 -0.069,-1.072 -0.024,-0.365 -0.047,-0.73 -0.065,-1.098 -0.019,-0.358 -0.034,-0.719 -0.05,-1.079 -0.018,-0.377 -0.035,-0.752 -0.051,-1.132 -0.013,-0.361 -0.023,-0.725 -0.033,-1.089 -0.013,-0.382 -0.024,-0.761 -0.035,-1.146 -0.01,-0.378 -0.015,-0.761 -0.022,-1.142 -0.007,-0.376 -0.015,-0.75 -0.021,-1.13 -0.004,-0.387 -0.009,-0.78 -0.013,-1.172 -0.003,-0.379 -0.01,-0.756 -0.012,-1.138 -0.003,-0.417 -0.004,-0.838 -0.004,-1.258 -0.004,-0.354 -0.007,-0.707 -0.007,-1.062 -10e-4,-0.539 -0.003,-1.084 -0.003,-1.627 0,-0.248 0,-0.493 0,-0.741 0,-0.782 0,-1.567 0,-2.357 0,-1.014 0.029,-2.021 0.077,-3.021 0.016,-0.322 0.044,-0.639 0.063,-0.958 0.044,-0.678 0.089,-1.356 0.153,-2.027 0.037,-0.371 0.084,-0.735 0.126,-1.103 0.071,-0.618 0.143,-1.236 0.232,-1.849 0.053,-0.374 0.118,-0.744 0.177,-1.113 0.1,-0.604 0.203,-1.207 0.319,-1.804 0.071,-0.359 0.146,-0.716 0.223,-1.072 0.129,-0.607 0.268,-1.211 0.413,-1.811 0.083,-0.332 0.167,-0.664 0.253,-0.994 0.166,-0.628 0.344,-1.25 0.528,-1.868 0.087,-0.291 0.171,-0.582 0.263,-0.872 0.213,-0.674 0.439,-1.339 0.675,-2.001 0.079,-0.222 0.153,-0.446 0.235,-0.666 0.288,-0.781 0.592,-1.551 0.909,-2.313 0.04,-0.095 0.076,-0.192 0.117,-0.288 1.889,-4.461 4.297,-8.593 7.129,-12.307 0.023,-0.029 0.045,-0.057 0.067,-0.086 0.545,-0.711 1.105,-1.407 1.683,-2.085 0.029,-0.037 0.06,-0.072 0.091,-0.109 0.579,-0.679 1.17,-1.34 1.78,-1.985 0.022,-0.024 0.044,-0.048 0.065,-0.071 0.629,-0.666 1.271,-1.313 1.931,-1.94 -7.336,-7.655 -20.44,-17.81 -37.354,-16.188 -32.497,3.11 -32.496,23.162 -24.544,54.622 0,0 3.457,7.259 -1.037,17.981 -3.756,8.948 -5.563,21.75 11.054,26.739 -1.981,-2.934 -2.079,-5.955 1.477,-8.065 z"
         id="path263"
         inkscape:connector-curvature="0"
         style="fill:#662f90" /></g></g></svg>
