<svg xmlns="http://www.w3.org/2000/svg" viewBox="0 0 140 190" version="1">
  <path fill-opacity=".5" d="M21 5h103c8.86 0 16 7.14 16 16v153c0 8.86-7.14 16-16 16H21c-8.86 0-16-7.14-16-16V21c0-8.86 7.14-16 16-16z"/>
  <path fill="#e7e7e7" d="M17 1h103c8.86 0 16 7.14 16 16v153c0 8.86-7.14 16-16 16H17c-8.86 0-16-7.14-16-16V17C1 8.14 8.14 1 17 1z"/>
  <path fill="#c7891f" d="M19 3h103c8.86 0 16 7.14 16 16v153c0 8.86-7.14 16-16 16H19c-8.86 0-16-7.14-16-16V19c0-8.86 7.14-16 16-16z"/>
  <path fill="#fff" d="M18 2h103c8.86 0 16 7.14 16 16v153c0 8.86-7.14 16-16 16H18c-8.86 0-16-7.14-16-16V18C2 9.14 9.14 2 18 2z"/>
  <path fill="#0c0c0c" d="M12.1 41.84V36.3c1 .57 2 1 2.92 1.3.93.28 1.85.42 2.76.42 1.9 0 3.38-.64 4.45-1.9 1.06-1.3 1.7-3.2 1.88-5.7-.7.66-1.5 1.16-2.4 1.5-.8.33-1.7.5-2.7.5-2.5 0-4.6-.9-6.1-2.68-1.5-1.8-2.3-4.15-2.3-7.07 0-3.23.9-5.8 2.6-7.76C14.8 13 17.1 12 20 12c3.24 0 5.75 1.34 7.5 3.98 1.8 2.64 2.68 6.37 2.68 11.2 0 4.95-1.05 8.84-3.12 11.68-2.07 2.83-4.9 4.24-8.52 4.24-1.17 0-2.28-.1-3.34-.33-1.1-.2-2.1-.5-3.18-.92M20 27.4c1.1 0 1.95-.44 2.5-1.3.58-.9.86-2.22.86-3.97 0-1.74-.28-3.06-.85-3.94s-1.4-1.4-2.5-1.4-1.9.4-2.5 1.3-.8 2.2-.8 3.9c0 1.7.3 3 .9 3.9.6.8 1.4 1.3 2.6 1.3m106.4 120.3v5.5c-1-.6-2-1-2.9-1.3-.9-.3-1.8-.5-2.7-.5-1.9 0-3.4.7-4.42 2s-1.7 3.2-1.9 5.7c.74-.66 1.54-1.16 2.4-1.5.85-.3 1.8-.5 2.8-.5 2.5 0 4.55.9 6.1 2.7 1.57 1.8 2.34 4.14 2.34 7.1 0 3.2-.9 5.8-2.6 7.73-1.8 1.93-4.1 2.9-7 2.9-3.3 0-5.8-1.3-7.5-3.96s-2.7-6.36-2.7-11.2c0-4.94 1-8.84 3.1-11.7s4.9-4.23 8.5-4.23c1.13 0 2.3.1 3.3.3 1.05.2 2.1.5 3.1.9m-8 14.52c-1.1 0-1.94.4-2.5 1.3-.6.9-.85 2.2-.85 3.93s.3 3.04.85 3.92c.5.9 1.4 1.33 2.5 1.33s1.9-.45 2.5-1.34c.5-.86.8-2.2.8-3.92 0-1.77-.3-3.1-.9-3.98-.56-.87-1.4-1.3-2.5-1.3"/>
  <path fill-rule="evenodd" d="M20.53 48.66c-2.67 0-4.83 3.27-4.83 7.3 0 3.42 4.4 9.18 4.22 11.92-1.4.78-5.77-6.44-8.02-6.44-2.67 0-4.83 3.27-4.83 7.3 0 4 2.16 7.27 4.83 7.27 2.3 0 6.28-7.2 8.02-6.5L17 82.3l7-.04S20.95 69.8 20.94 69.5H21v.02c1.7-.64 5.8 6.63 8.1 6.63 2.66 0 4.82-3.26 4.82-7.28 0-4.03-2.16-7.3-4.83-7.3-2.3 0-6.4 7.1-8.1 6.38 0-2.8 4.3-8.58 4.3-12 0-4.02-2.2-7.3-4.9-7.3zm97.37 91.3c2.68 0 4.84-3.26 4.84-7.28 0-3.43-4.4-9.2-4.22-11.93 1.4-.8 5.77 6.43 8.02 6.43 2.67 0 4.83-3.26 4.83-7.28s-2.16-7.3-4.83-7.3c-2.3 0-6.28 7.23-8.02 6.58l2.93-12.88-7.02.04s3.07 12.5 3.08 12.78c-1.7.63-5.8-6.65-8.1-6.65-2.6 0-4.8 3.27-4.8 7.3s2.2 7.28 4.9 7.28c2.3 0 6.3-7.1 8.1-6.37 0 2.8-4.3 8.57-4.3 12 0 4.02 2.2 7.28 4.9 7.28zM49.2 36c-1.55 0-2.82 1.92-2.82 4.28 0 2 2.56 5.4 2.46 7-.82.47-3.36-3.77-4.67-3.77-1.55 0-2.8 2-2.8 4.3s1.25 4.3 2.8 4.3c1.35 0 3.66-4.2 4.67-3.8l-1.7 7.6h4.1s-1.8-7.3-1.8-7.5h.03c1-.3 3.38 3.9 4.72 3.9 1.5 0 2.8-1.9 2.8-4.2 0-2.3-1.3-4.3-2.8-4.3-1.4 0-3.7 4.2-4.8 3.8 0-1.7 2.6-5.1 2.6-7.1 0-2.3-1.3-4.3-2.8-4.3zm20 49c-1.55 0-2.82 1.92-2.82 4.28 0 2.02 2.56 5.4 2.46 7-.82.47-3.36-3.77-4.67-3.77-1.55 0-2.8 2-2.8 4.3s1.25 4.3 2.8 4.3c1.35 0 3.66-4.2 4.67-3.8l-1.7 7.6h4.1s-1.8-7.3-1.8-7.5h.03c1-.3 3.38 3.9 4.72 3.9 1.5 0 2.8-1.9 2.8-4.3 0-2.3-1.3-4.2-2.8-4.2-1.4 0-3.7 4.2-4.8 3.8 0-1.6 2.5-5 2.5-7 0-2.4-1.3-4.3-2.8-4.3zm21-48.78c-1.55 0-2.82 1.92-2.82 4.28 0 2 2.56 5.4 2.46 7-.82.47-3.36-3.77-4.67-3.77-1.55 0-2.8 1.92-2.8 4.28s1.25 4.3 2.8 4.3c1.35 0 3.66-4.2 4.67-3.8l-1.7 7.5h4.1s-1.8-7.3-1.8-7.5h.03c1-.3 3.38 3.9 4.72 3.9 1.5 0 2.8-1.9 2.8-4.3s-1.3-4.3-2.8-4.3c-1.4 0-3.7 4.2-4.8 3.7 0-1.6 2.5-5 2.5-7 0-2.3-1.3-4.3-2.8-4.3zm-41.36 35c-1.55 0-2.82 1.92-2.82 4.28 0 2.02 2.56 5.4 2.46 7-.82.47-3.35-3.77-4.67-3.77-1.5 0-2.8 1.92-2.8 4.28s1.3 4.3 2.8 4.3c1.4 0 3.7-4.2 4.7-3.8L46.8 91l4.1-.02s-1.8-7.34-1.8-7.5h.03c1-.38 3.4 3.9 4.75 3.9 1.55 0 2.8-1.92 2.8-4.3 0-2.35-1.25-4.27-2.8-4.27-1.3 0-3.68 4.2-4.72 3.8.03-1.6 2.55-5 2.55-7 0-2.3-1.2-4.2-2.8-4.2zM88.2 70c-1.55 0-2.82 1.92-2.82 4.28 0 2.02 2.56 5.4 2.46 7-.82.47-3.36-3.77-4.67-3.77-1.55 0-2.8 2-2.8 4.3s1.25 4.3 2.8 4.3c1.35 0 3.66-4.2 4.67-3.8l-1.7 7.6h4.1s-1.8-7.3-1.8-7.5h.03c1-.3 3.38 3.9 4.72 3.9 1.5 0 2.8-1.9 2.8-4.3 0-2.3-1.3-4.2-2.8-4.2-1.4 0-3.7 4.2-4.8 3.8 0-1.6 2.5-5 2.5-7 0-2.4-1.3-4.3-2.8-4.3zm-40.04 49c1.55 0 2.82-1.92 2.82-4.28 0-2-2.56-5.4-2.46-7 .82-.47 3.35 3.77 4.67 3.77 1.5 0 2.8-2 2.8-4.3s-1.3-4.3-2.8-4.3c-1.4 0-3.7 4.2-4.7 3.8l1.7-7.6h-4.1s1.8 7.3 1.8 7.5h-.1c-1 .3-3.4-3.9-4.8-3.9-1.6 0-2.8 1.9-2.8 4.2 0 2.3 1.2 4.3 2.8 4.3 1.3 0 3.7-4.2 4.7-3.8-.1 1.6-2.6 5-2.6 7 0 2.36 1.2 4.3 2.8 4.3zm41.64.78c1.55 0 2.82-1.92 2.82-4.28 0-2-2.56-5.4-2.46-7 .82-.47 3.36 3.77 4.67 3.77 1.55 0 2.8-1.92 2.8-4.28s-1.25-4.3-2.8-4.3c-1.35 0-3.66 4.2-4.67 3.8l1.7-7.6h-4.1s1.8 7.3 1.8 7.5h-.03c-1 .4-3.38-3.9-4.72-3.9-1.5 0-2.8 1.9-2.8 4.3 0 2.3 1.3 4.3 2.8 4.3 1.4 0 3.7-4.2 4.8-3.8 0 1.6-2.5 5-2.5 7 0 2.3 1.3 4.3 2.8 4.3zm.36 30c1.55 0 2.82-1.92 2.82-4.28 0-2-2.56-5.4-2.46-7 .82-.47 3.35 3.77 4.67 3.77 1.5 0 2.8-1.92 2.8-4.28s-1.3-4.3-2.8-4.3c-1.4 0-3.7 4.2-4.7 3.8l1.7-7.6h-4.1s1.8 7.3 1.8 7.5h-.1c-1 .4-3.4-3.9-4.8-3.9-1.6 0-2.8 1.9-2.8 4.3 0 2.3 1.2 4.3 2.8 4.3 1.3 0 3.7-4.2 4.7-3.8-.1 1.6-2.6 5-2.6 7 0 2.3 1.2 4.3 2.8 4.3zm-41 0c1.55 0 2.82-1.92 2.82-4.28 0-2-2.56-5.4-2.46-7 .82-.47 3.35 3.77 4.67 3.77 1.5 0 2.8-1.92 2.8-4.28s-1.3-4.3-2.8-4.3c-1.4 0-3.7 4.2-4.7 3.8l1.7-7.6h-4.1s1.8 7.3 1.8 7.5h-.1c-1 .4-3.4-3.9-4.8-3.9-1.6 0-2.8 1.9-2.8 4.3 0 2.3 1.2 4.3 2.8 4.3 1.3 0 3.7-4.2 4.7-3.8-.1 1.6-2.6 5-2.6 7 0 2.3 1.2 4.3 2.8 4.3z"/>
</svg>
