<svg xmlns="http://www.w3.org/2000/svg" version="1" viewBox="0 0 140 190"><path fill-opacity=".5" d="M21 5h103c8.86 0 16 7.14 16 16v153c0 8.86-7.14 16-16 16H21c-8.86 0-16-7.14-16-16V21c0-8.86 7.14-16 16-16z"/><path fill="#e7e7e7" d="M17 1h103c8.86 0 16 7.14 16 16v153c0 8.86-7.14 16-16 16H17c-8.86 0-16-7.14-16-16V17C1 8.14 8.14 1 17 1z"/><path fill="#c7891f" d="M19 3h103c8.86 0 16 7.14 16 16v153c0 8.86-7.14 16-16 16H19c-8.86 0-16-7.14-16-16V19c0-8.86 7.14-16 16-16z"/><path fill="#fff" d="M18 2h103c8.86 0 16 7.14 16 16v153c0 8.86-7.14 16-16 16H18c-8.86 0-16-7.14-16-16V18C2 9.14 9.14 2 18 2z"/><path fill="red" fill-rule="evenodd" d="M13.55 48.84c-.8 0-1.68.2-2.66.65-10.7 8.1 3.7 21.4 9.7 32.7h.1c6.7-12.4 19.4-26.1 9.7-32.8-7.7-3.5-9.7 8-9.8 8.4-.1-.4-1.6-9.2-7.2-9.1zM125.3 140c.8 0 1.7-.2 2.67-.65 10.65-8.2-3.7-21.42-9.76-32.78l-.1-.05c-6.6 12.4-19.3 26.06-9.6 32.83 7.7 3.46 9.8-8.06 9.8-8.47.1.36 1.7 9.15 7.2 9.12z"/><g style="font-size:40px;line-height:1.25;font-family:Arial;-inkscape-font-specification:Arial;letter-spacing:0;word-spacing:0;fill:red;fill-opacity:1"><path d="M30.33 37.74q2.12 1.53 4.62 2.43l-2.12 4.08q-1.31-.4-2.56-1.08-.28-.13-3.85-2.53-2.81 1.23-6.23 1.23-6.6 0-10.35-3.9Q6.1 34.1 6.1 27.08q0-7.02 3.75-10.9 3.75-3.91 10.17-3.91 6.37 0 10.1 3.9 3.73 3.89 3.73 10.9 0 3.71-1.03 6.52-.79 2.15-2.5 4.16zm-4.65-3.26q1.11-1.3 1.66-3.16.56-1.86.56-4.26 0-4.96-2.18-7.4-2.2-2.46-5.73-2.46-3.53 0-5.74 2.46-2.19 2.46-2.19 7.4 0 5.02 2.2 7.52 2.2 2.48 5.56 2.48 1.25 0 2.36-.4-1.76-1.16-3.57-1.8l1.62-3.3q2.85.97 5.45 2.92z" aria-label="Q" style="font-weight:700;-inkscape-font-specification:'Arial Bold';fill:red;fill-opacity:1" transform="translate(.85)"/></g><g style="font-size:40px;line-height:1.25;font-family:Arial;-inkscape-font-specification:Arial;letter-spacing:0;word-spacing:0;fill:red;fill-opacity:1;stroke-width:.641059"><path d="M30.33 37.74q2.12 1.53 4.62 2.43l-2.12 4.08q-1.31-.4-2.56-1.08-.28-.13-3.85-2.53-2.81 1.23-6.23 1.23-6.6 0-10.35-3.9Q6.1 34.1 6.1 27.08q0-7.02 3.75-10.9 3.75-3.91 10.17-3.91 6.37 0 10.1 3.9 3.73 3.89 3.73 10.9 0 3.71-1.03 6.52-.79 2.15-2.5 4.16zm-4.65-3.26q1.11-1.3 1.66-3.16.56-1.86.56-4.26 0-4.96-2.18-7.4-2.2-2.46-5.73-2.46-3.53 0-5.74 2.46-2.19 2.46-2.19 7.4 0 5.02 2.2 7.52 2.2 2.48 5.56 2.48 1.25 0 2.36-.4-1.76-1.16-3.57-1.8l1.62-3.3q2.85.97 5.45 2.92z" aria-label="Q" style="font-weight:700;-inkscape-font-specification:'Arial Bold';fill:red;fill-opacity:1;stroke-width:.641059" transform="translate(27.6 25.74) scale(1.55992)"/></g><g style="font-size:40px;line-height:1.25;font-family:Arial;-inkscape-font-specification:Arial;letter-spacing:0;word-spacing:0;fill:red;fill-opacity:1;stroke-width:.641059"><path d="M30.33 37.74q2.12 1.53 4.62 2.43l-2.12 4.08q-1.31-.4-2.56-1.08-.28-.13-3.85-2.53-2.81 1.23-6.23 1.23-6.6 0-10.35-3.9Q6.1 34.1 6.1 27.08q0-7.02 3.75-10.9 3.75-3.91 10.17-3.91 6.37 0 10.1 3.9 3.73 3.89 3.73 10.9 0 3.71-1.03 6.52-.79 2.15-2.5 4.16zm-4.65-3.26q1.11-1.3 1.66-3.16.56-1.86.56-4.26 0-4.96-2.18-7.4-2.2-2.46-5.73-2.46-3.53 0-5.74 2.46-2.19 2.46-2.19 7.4 0 5.02 2.2 7.52 2.2 2.48 5.56 2.48 1.25 0 2.36-.4-1.76-1.16-3.57-1.8l1.62-3.3q2.85.97 5.45 2.92z" aria-label="Q" style="font-weight:700;-inkscape-font-specification:'Arial Bold';fill:red;fill-opacity:1;stroke-width:.641059" transform="rotate(179.93 56.06 82.13) scale(1.55992)"/></g><g style="font-size:40px;line-height:1.25;font-family:Arial;-inkscape-font-specification:Arial;letter-spacing:0;word-spacing:0;fill:red;fill-opacity:1"><path d="M30.33 37.74q2.12 1.53 4.62 2.43l-2.12 4.08q-1.31-.4-2.56-1.08-.28-.13-3.85-2.53-2.81 1.23-6.23 1.23-6.6 0-10.35-3.9Q6.1 34.1 6.1 27.08q0-7.02 3.75-10.9 3.75-3.91 10.17-3.91 6.37 0 10.1 3.9 3.73 3.89 3.73 10.9 0 3.71-1.03 6.52-.79 2.15-2.5 4.16zm-4.65-3.26q1.11-1.3 1.66-3.16.56-1.86.56-4.26 0-4.96-2.18-7.4-2.2-2.46-5.73-2.46-3.53 0-5.74 2.46-2.19 2.46-2.19 7.4 0 5.02 2.2 7.52 2.2 2.48 5.56 2.48 1.25 0 2.36-.4-1.76-1.16-3.57-1.8l1.62-3.3q2.85.97 5.45 2.92z" aria-label="Q" style="font-weight:700;-inkscape-font-specification:'Arial Bold';fill:red;fill-opacity:1" transform="rotate(180 69.46 95)"/></g></svg>