<svg xmlns="http://www.w3.org/2000/svg" version="1" viewBox="0 0 140 190"><path fill-opacity=".5" d="M21 5h103c8.86 0 16 7.14 16 16v153c0 8.86-7.14 16-16 16H21c-8.86 0-16-7.14-16-16V21c0-8.86 7.14-16 16-16z"/><path fill="#e7e7e7" d="M17 1h103c8.86 0 16 7.14 16 16v153c0 8.86-7.14 16-16 16H17c-8.86 0-16-7.14-16-16V17C1 8.14 8.14 1 17 1z"/><path fill="#c7891f" d="M19 3h103c8.86 0 16 7.14 16 16v153c0 8.86-7.14 16-16 16H19c-8.86 0-16-7.14-16-16V19c0-8.86 7.14-16 16-16z"/><path fill="#fff" d="M18 2h103c8.86 0 16 7.14 16 16v153c0 8.86-7.14 16-16 16H18c-8.86 0-16-7.14-16-16V18C2 9.14 9.14 2 18 2z"/><path fill="red" fill-rule="evenodd" d="M20.4 48.66c-4.12 8.25-7.12 12.5-13.33 17.05 5.87 4.5 10 9.2 13.46 16.7 3.07-7.1 6.85-12.4 13.4-16.8-6.6-3.35-10.4-8.65-13.52-16.82zm97.93 57.64c-4.12 8.25-7.12 12.5-13.33 17.04 5.87 4.5 10 9.13 13.46 16.62 3.08-7.12 6.85-12.43 13.4-16.84-6.6-3.35-10.4-8.65-13.52-16.82z"/><g style="font-size:40px;line-height:1.25;font-family:Arial;-inkscape-font-specification:Arial;letter-spacing:0;word-spacing:0;fill:red;fill-opacity:1"><path d="M7.62 41.38V12.74h5.78v12.72l11.68-12.72h7.78L22.07 23.9l11.37 17.48h-7.48L18.1 27.94l-4.69 4.78v8.66z" aria-label="K" style="font-weight:700;-inkscape-font-specification:'Arial Bold';fill:red;fill-opacity:1" transform="translate(-.02 -.1)"/></g><g style="font-size:40px;line-height:1.25;font-family:Arial;-inkscape-font-specification:Arial;letter-spacing:0;word-spacing:0;fill:red;fill-opacity:1;stroke-width:.636285"><path d="M7.62 41.38V12.74h5.78v12.72l11.68-12.72h7.78L22.07 23.9l11.37 17.48h-7.48L18.1 27.94l-4.69 4.78v8.66z" aria-label="K" style="font-weight:700;-inkscape-font-specification:'Arial Bold';fill:red;fill-opacity:1;stroke-width:.636285" transform="translate(27.98 26.07) scale(1.57162)"/></g><g style="font-size:40px;line-height:1.25;font-family:Arial;-inkscape-font-specification:Arial;letter-spacing:0;word-spacing:0;fill:red;fill-opacity:1;stroke-width:.636285"><path d="M7.62 41.38V12.74h5.78v12.72l11.68-12.72h7.78L22.07 23.9l11.37 17.48h-7.48L18.1 27.94l-4.69 4.78v8.66z" aria-label="K" style="font-weight:700;-inkscape-font-specification:'Arial Bold';fill:red;fill-opacity:1;stroke-width:.636285" transform="rotate(180 55.44 81.28) scale(1.57162)"/></g><g style="font-size:40px;line-height:1.25;font-family:Arial;-inkscape-font-specification:Arial;letter-spacing:0;word-spacing:0;fill:red;fill-opacity:1"><path d="M7.62 41.38V12.74h5.78v12.72l11.68-12.72h7.78L22.07 23.9l11.37 17.48h-7.48L18.1 27.94l-4.69 4.78v8.66z" aria-label="K" style="font-weight:700;-inkscape-font-specification:'Arial Bold';fill:red;fill-opacity:1" transform="rotate(180 69.48 94.36)"/></g></svg>