<svg xmlns="http://www.w3.org/2000/svg" viewBox="0 0 140 190" version="1">
  <path fill-opacity=".5" d="M21 5h103c8.86 0 16 7.14 16 16v153c0 8.86-7.14 16-16 16H21c-8.86 0-16-7.14-16-16V21c0-8.86 7.14-16 16-16z"/>
  <path fill="#e7e7e7" d="M17 1h103c8.86 0 16 7.14 16 16v153c0 8.86-7.14 16-16 16H17c-8.86 0-16-7.14-16-16V17C1 8.14 8.14 1 17 1z"/>
  <path fill="#c7891f" d="M19 3h103c8.86 0 16 7.14 16 16v153c0 8.86-7.14 16-16 16H19c-8.86 0-16-7.14-16-16V19c0-8.86 7.14-16 16-16z"/>
  <path fill="#fff" d="M18 2h103c8.86 0 16 7.14 16 16v153c0 8.86-7.14 16-16 16H18c-8.86 0-16-7.14-16-16V18C2 9.14 9.14 2 18 2z"/>
  <path fill="red" d="M12.36 12.23h15.9v5.7h-10.8v4.64c.5-.17.98-.3 1.47-.37.5-.1 1-.14 1.54-.14 3.02 0 5.38.9 7.06 2.75 1.7 1.9 2.53 4.4 2.53 7.7s-.92 5.8-2.76 7.6c-1.83 1.9-4.37 2.8-7.63 2.8-1.4 0-2.8-.1-4.18-.5-1.4-.3-2.8-.8-4.1-1.5v-6.1c1.3 1 2.6 1.7 3.8 2.1 1.2.5 2.3.7 3.4.7 1.5 0 2.7-.4 3.6-1.4.9-.9 1.3-2.1 1.3-3.7s-.47-2.8-1.36-3.7-2.1-1.3-3.64-1.3c-.92 0-1.9.1-2.94.4-1.05.3-2.17.7-3.37 1.3v-17m114 164.8h-15.9v-5.7h10.8v-4.63c-.5.16-1 .28-1.48.36-.5.1-1 .14-1.55.14-3 0-5.3-.9-7-2.75-1.7-1.8-2.5-4.3-2.5-7.6 0-3.2.9-5.8 2.72-7.6 1.82-1.8 4.4-2.7 7.62-2.7 1.4 0 2.8.18 4.2.5 1.36.34 2.72.84 4.1 1.5v6.1c-1.36-1-2.64-1.7-3.85-2.18-1.22-.46-2.37-.7-3.44-.7-1.55 0-2.76.46-3.66 1.37-.9.9-1.34 2.16-1.34 3.7 0 1.6.42 2.84 1.32 3.75.9.9 2.1 1.37 3.63 1.37.95 0 1.9-.16 2.97-.45 1.03-.3 2.15-.75 3.35-1.35V177"/>
  <path fill="red" fill-rule="evenodd" d="M20.4 48.66c-4.12 8.25-7.12 12.5-13.33 17.05 5.87 4.5 10 9.2 13.46 16.7 3.07-7.1 6.85-12.4 13.4-16.8-6.6-3.3-10.4-8.6-13.52-16.8zM51.13 45c-2.4 4.84-4.16 7.34-7.77 10 3.42 2.65 5.83 5.37 7.84 9.78 1.8-4.18 4-7.3 7.8-9.9-3.83-1.97-6.05-5.08-7.87-9.88zm36 0c-2.4 4.84-4.16 7.34-7.77 10 3.42 2.65 5.83 5.37 7.84 9.78 1.8-4.18 4-7.3 7.8-9.9-3.83-1.97-6.05-5.08-7.87-9.88zm-34 77.22c-2.4 4.85-4.16 7.34-7.77 10 3.42 2.65 5.83 5.38 7.84 9.78 1.8-4.18 4-7.3 7.8-9.9-3.83-1.97-6.05-5.08-7.87-9.88zm35-.22c-2.4 4.85-4.16 7.34-7.77 10 3.42 2.65 5.83 5.38 7.84 9.78 1.8-4.18 4-7.3 7.8-9.9-3.83-1.97-6.05-5.08-7.87-9.88zm30.2-15.66c-4.12 8.25-7.12 12.5-13.33 17.04 5.87 4.5 10 9.12 13.46 16.62 3.08-7.12 6.85-12.43 13.4-16.84-6.6-3.35-10.4-8.66-13.52-16.82zM69.78 82.22c-2.4 4.84-4.16 7.34-7.77 10 3.5 2.65 5.9 5.38 7.9 9.78 1.8-4.18 4-7.3 7.8-9.9-3.8-1.97-6-5.08-7.8-9.88z"/>
</svg>
