<svg xmlns="http://www.w3.org/2000/svg" xmlns:xlink="http://www.w3.org/1999/xlink" version="1" viewBox="0 0 140 190"><defs><pattern xlink:href="#a" id="b"/><pattern id="a" width="30.07" height="5.18" patternUnits="userSpaceOnUse"><path d="M7.6.06C5.08-.19 2.66.3-.01 1.8v1.27a11.9 11.9 0 0 1 7.48-1.78c2.3.23 4.5 1.08 6.78 1.94 4.57 1.71 9.55 3.46 15.82-.16V1.8c-6.45 3.7-10.82 1.98-15.38.27-2.28-.85-4.57-1.75-7.1-2z" style="fill:#fff;stroke:none"/></pattern></defs><path fill-opacity=".5" d="M21 5h103c8.86 0 16 7.14 16 16v153c0 8.86-7.14 16-16 16H21c-8.86 0-16-7.14-16-16V21c0-8.86 7.14-16 16-16z"/><path fill="#e7e7e7" d="M17 1h103c8.86 0 16 7.14 16 16v153c0 8.86-7.14 16-16 16H17c-8.86 0-16-7.14-16-16V17C1 8.14 8.14 1 17 1z"/><path fill="#c7891f" d="M19 3h103c8.86 0 16 7.14 16 16v153c0 8.86-7.14 16-16 16H19c-8.86 0-16-7.14-16-16V19c0-8.86 7.14-16 16-16z" style="fill:#ff4c4c;fill-opacity:1"/><path fill="#fff" d="M18 2h103c8.86 0 16 7.14 16 16v153c0 8.86-7.14 16-16 16H18c-8.86 0-16-7.14-16-16V18C2 9.14 9.14 2 18 2Z" style="fill:url(#b);fill-opacity:1;stroke:#fff"/></svg>