<svg xmlns="http://www.w3.org/2000/svg" viewBox="0 0 140 190" version="1">
  <path fill-opacity=".5" d="M21 5h103c8.86 0 16 7.14 16 16v153c0 8.86-7.14 16-16 16H21c-8.86 0-16-7.14-16-16V21c0-8.86 7.14-16 16-16z"/>
  <path fill="#e7e7e7" d="M17 1h103c8.86 0 16 7.14 16 16v153c0 8.86-7.14 16-16 16H17c-8.86 0-16-7.14-16-16V17C1 8.14 8.14 1 17 1z"/>
  <path fill="#c7891f" d="M19 3h103c8.86 0 16 7.14 16 16v153c0 8.86-7.14 16-16 16H19c-8.86 0-16-7.14-16-16V19c0-8.86 7.14-16 16-16z"/>
  <path fill="#fff" d="M18 2h103c8.86 0 16 7.14 16 16v153c0 8.86-7.14 16-16 16H18c-8.86 0-16-7.14-16-16V18C2 9.14 9.14 2 18 2z"/>
  <path fill-rule="evenodd" d="M20.53 48.67c-2.67 0-4.83 3.26-4.83 7.3 0 3.4 4.4 9.18 4.22 11.92-1.4.7-5.77-6.5-8.02-6.5-2.67 0-4.83 3.2-4.83 7.3 0 4 2.16 7.3 4.83 7.3 2.3 0 6.28-7.2 8.02-6.6L17 82.3l7-.03s-3.06-12.5-3.07-12.8H21c1.7-.68 5.8 6.6 8.1 6.6 2.66 0 4.82-3.27 4.82-7.3 0-4-2.16-7.28-4.83-7.28-2.3 0-6.4 7.1-8.1 6.3 0-2.8 4.3-8.6 4.3-12 0-4.1-2.2-7.3-4.9-7.3z"/>
  <path d="M11.68 42.37v-23.6l-5.24-.06.25-3.6 4.9-3.1h5.5v30.4m13.4-15.2c0-3.7-.3-6.4-.8-7.9S28.3 17 27 17s-2.13.8-2.66 2.3c-.53 1.56-.8 4.2-.8 7.9 0 3.8.27 6.5.8 8 .53 1.6 1.42 2.38 2.66 2.38s2.1-.77 2.65-2.33c.53-1.53.8-4.2.8-8m5.77.07c0 4.98-.8 8.8-2.4 11.5-1.6 2.7-3.9 4.05-6.8 4.05-2.98 0-5.26-1.34-6.86-4.03-1.6-2.7-2.4-6.55-2.4-11.5 0-5 .8-8.84 2.4-11.54 1.6-2.7 3.87-4.06 6.83-4.06s5.2 1.34 6.8 4.04c1.6 2.7 2.4 6.52 2.4 11.5"/>
  <path fill-rule="evenodd" d="M117.42 139.96c2.66 0 4.83-3.26 4.83-7.3 0-3.4-4.4-9.18-4.22-11.92 1.4-.78 5.76 6.44 8.02 6.44 2.66 0 4.83-3.26 4.83-7.28 0-4.03-2.17-7.3-4.83-7.3-2.32 0-6.28 7.22-8.02 6.57l2.93-12.87-7.03.04s3.08 12.48 3.08 12.78v-.02c-1.7.64-5.8-6.63-8.1-6.63-2.6 0-4.8 3.27-4.8 7.3s2.2 7.27 4.9 7.27c2.3 0 6.3-7.1 8.1-6.36 0 2.8-4.3 8.57-4.3 12 0 4.02 2.2 7.28 4.9 7.28z"/>
  <path d="M126.27 146.27v23.6l5.24.05-.2 3.63-4.9 3.1h-5.5v-30.38m-13.5 15.23c0 3.73.3 6.37.8 7.9.6 1.54 1.4 2.3 2.7 2.3s2.2-.76 2.7-2.3c.6-1.53.8-4.17.8-7.9 0-3.8-.2-6.5-.8-8.04-.5-1.55-1.4-2.33-2.6-2.33-1.2 0-2.1.78-2.6 2.33s-.8 4.23-.8 8.02m-5.7-.07c0-4.9.8-8.8 2.4-11.5 1.6-2.7 3.9-4 6.8-4 3 0 5.3 1.4 6.9 4.1 1.6 2.8 2.4 6.6 2.4 11.6s-.8 8.8-2.4 11.5c-1.6 2.7-3.85 4.1-6.8 4.1-2.9 0-5.2-1.3-6.8-4-1.6-2.7-2.4-6.5-2.4-11.5"/>
  <path fill-rule="evenodd" d="M49.2 36c-1.55 0-2.82 1.92-2.82 4.28 0 2 2.56 5.4 2.46 7-.82.47-3.36-3.77-4.67-3.77-1.55 0-2.8 2-2.8 4.3s1.25 4.3 2.8 4.3c1.35 0 3.66-4.2 4.67-3.8l-1.7 7.6h4.1s-1.8-7.3-1.8-7.5h.03c1-.3 3.38 3.9 4.72 3.9 1.5 0 2.8-1.9 2.8-4.2 0-2.3-1.3-4.3-2.8-4.3-1.4 0-3.7 4.2-4.8 3.8 0-1.7 2.6-5.1 2.6-7.1 0-2.3-1.3-4.3-2.8-4.3zm19.64 14.22c-1.55 0-2.82 1.92-2.82 4.28 0 2 2.56 5.4 2.46 7-.82.47-3.35-3.77-4.67-3.77-1.5 0-2.8 1.92-2.8 4.28s1.3 4.3 2.8 4.3c1.4 0 3.7-4.2 4.7-3.8L66.8 70l4.1-.03s-1.8-7.33-1.8-7.5h.03c1-.37 3.4 3.9 4.75 3.9 1.55 0 2.8-1.9 2.8-4.28 0-2.4-1.25-4.3-2.8-4.3-1.3 0-3.68 4.1-4.72 3.7.03-1.7 2.55-5.1 2.55-7.1 0-2.4-1.2-4.3-2.8-4.3zm21.36-14c-1.55 0-2.82 1.92-2.82 4.28 0 2 2.56 5.4 2.46 7-.82.47-3.36-3.77-4.67-3.77-1.55 0-2.8 1.92-2.8 4.28s1.25 4.3 2.8 4.3c1.35 0 3.66-4.2 4.67-3.8l-1.7 7.5h4.1s-1.8-7.3-1.8-7.5h.03c1-.3 3.38 3.9 4.72 3.9 1.5 0 2.8-1.9 2.8-4.3s-1.3-4.3-2.8-4.3c-1.4 0-3.7 4.2-4.8 3.7 0-1.6 2.5-5 2.5-7 0-2.3-1.3-4.3-2.8-4.3zm-41.36 35c-1.55 0-2.82 1.92-2.82 4.28 0 2.02 2.56 5.4 2.46 7-.82.47-3.35-3.77-4.67-3.77-1.5 0-2.8 1.92-2.8 4.28s1.3 4.3 2.8 4.3c1.4 0 3.7-4.2 4.7-3.8L46.8 91l4.1-.02s-1.8-7.34-1.8-7.5h.03c1-.38 3.4 3.9 4.75 3.9 1.55 0 2.8-1.92 2.8-4.3 0-2.35-1.25-4.27-2.8-4.27-1.3 0-3.68 4.2-4.72 3.8.03-1.6 2.55-5 2.55-7 0-2.3-1.2-4.2-2.8-4.2zM88.2 70c-1.55 0-2.82 1.92-2.82 4.28 0 2.02 2.56 5.4 2.46 7-.82.47-3.36-3.77-4.67-3.77-1.55 0-2.8 2-2.8 4.3s1.25 4.3 2.8 4.3c1.35 0 3.66-4.2 4.67-3.8l-1.7 7.6h4.1s-1.8-7.3-1.8-7.5h.03c1-.3 3.38 3.9 4.72 3.9 1.5 0 2.8-1.9 2.8-4.3 0-2.3-1.3-4.2-2.8-4.2-1.4 0-3.7 4.2-4.8 3.8 0-1.6 2.5-5 2.5-7 0-2.4-1.3-4.3-2.8-4.3zm-40.04 49c1.55 0 2.82-1.92 2.82-4.28 0-2-2.56-5.4-2.46-7 .82-.47 3.35 3.77 4.67 3.77 1.5 0 2.8-2 2.8-4.3s-1.3-4.3-2.8-4.3c-1.4 0-3.7 4.2-4.7 3.8l1.7-7.6h-4.1s1.8 7.3 1.8 7.5h-.1c-1 .3-3.4-3.9-4.8-3.9-1.6 0-2.8 1.9-2.8 4.2 0 2.3 1.2 4.3 2.8 4.3 1.3 0 3.7-4.2 4.7-3.8-.1 1.6-2.6 5-2.6 7 0 2.35 1.2 4.3 2.8 4.3zm41.64.78c1.55 0 2.82-1.92 2.82-4.28 0-2-2.56-5.4-2.46-7 .82-.47 3.36 3.77 4.67 3.77 1.55 0 2.8-1.92 2.8-4.28s-1.25-4.3-2.8-4.3c-1.35 0-3.66 4.2-4.67 3.8l1.7-7.6h-4.1s1.8 7.3 1.8 7.5h-.03c-1 .4-3.38-3.9-4.72-3.9-1.5 0-2.8 1.9-2.8 4.3 0 2.3 1.3 4.3 2.8 4.3 1.4 0 3.7-4.2 4.8-3.8 0 1.6-2.5 5-2.5 7 0 2.3 1.3 4.3 2.8 4.3zM68.8 137c1.55 0 2.82-1.92 2.82-4.28 0-2-2.56-5.4-2.46-7 .82-.47 3.36 3.77 4.67 3.77 1.55 0 2.8-2 2.8-4.3s-1.25-4.3-2.8-4.3c-1.35 0-3.66 4.2-4.67 3.8l1.7-7.6h-4.1s1.8 7.3 1.8 7.5h-.03c-1 .4-3.38-3.9-4.72-3.9-1.5 0-2.8 1.9-2.8 4.3 0 2.3 1.3 4.3 2.8 4.3 1.4 0 3.7-4.2 4.8-3.8 0 1.6-2.5 5-2.5 7 0 2.3 1.3 4.3 2.8 4.3zm21.36 12.78c1.55 0 2.82-1.92 2.82-4.28 0-2-2.56-5.4-2.46-7 .82-.47 3.35 3.77 4.67 3.77 1.5 0 2.8-1.92 2.8-4.28s-1.3-4.3-2.8-4.3c-1.4 0-3.7 4.2-4.7 3.8l1.7-7.6h-4.1s1.8 7.3 1.8 7.5h-.1c-1 .4-3.4-3.9-4.8-3.9-1.6 0-2.8 1.9-2.8 4.3 0 2.3 1.2 4.3 2.8 4.3 1.3 0 3.7-4.2 4.7-3.8-.1 1.6-2.6 5-2.6 7 0 2.3 1.2 4.3 2.8 4.3zm-41 0c1.55 0 2.82-1.92 2.82-4.28 0-2-2.56-5.4-2.46-7 .82-.47 3.35 3.77 4.67 3.77 1.5 0 2.8-1.92 2.8-4.28s-1.3-4.3-2.8-4.3c-1.4 0-3.7 4.2-4.7 3.8l1.7-7.6h-4.1s1.8 7.3 1.8 7.5h-.1c-1 .4-3.4-3.9-4.8-3.9-1.6 0-2.8 1.9-2.8 4.3 0 2.3 1.2 4.3 2.8 4.3 1.3 0 3.7-4.2 4.7-3.8-.1 1.6-2.6 5-2.6 7 0 2.3 1.2 4.3 2.8 4.3z"/>
</svg>
