<svg xmlns="http://www.w3.org/2000/svg" width="440" height="440" xmlns:xlink="http://www.w3.org/1999/xlink">
  <defs>
    <linearGradient id="a">
      <stop offset="0" stop-color="#fff" stop-opacity=".52"/>
      <stop offset="1" stop-color="#fff" stop-opacity="0"/>
    </linearGradient>
    <radialGradient id="c" cx="364.47" cy="260.59" r="66.63" fx="364.47" fy="260.59" xlink:href="#a" gradientUnits="userSpaceOnUse" gradientTransform="scale(.81967 1.22)"/>
    <radialGradient id="b" cx="99.42" cy="346.23" r="46.18" fx="99.42" fy="346.23" xlink:href="#a" gradientUnits="userSpaceOnUse" gradientTransform="scale(1.05608 .9469)"/>
  </defs>
  <g>
    <path fill="#ca0000" fill-rule="evenodd" stroke="#000" stroke-width="10" d="M303.34 222.54c-16.04-13.7-112.55-12-91.4 104.94 23.75 102.08 152.34 79.86 179.2 37.42 49.96-80.4-22.06-166.7-87.8-142.36z" stroke-linejoin="round"/>
    <path fill="#ca0000" fill-rule="evenodd" stroke="#000" stroke-width="10" d="M153.26 247.16c-16.04-13.7-139.8-12-118.66 104.94 23.75 102.1 141.74 91.78 176.38 54.76 70.8-77.38-1.6-171.87-57.72-159.7z" stroke-linejoin="round"/>
    <path fill="none" stroke="#000" stroke-width="10" d="M276.08 234.7c-3.2 18.25 38.48 28.9 70.55 7.6M126 263.9c-3.2 18.24 19.24 50.18 51.3 28.9" stroke-linejoin="round"/>
    <path fill="url(#b)" fill-rule="evenodd" d="M130.7 293.8c-59.34-41.06-101.03 60.84-54.53 73 60.93 21.3 107.43-33.45 54.52-73z" transform="translate(-18.442 -18.023)"/>
    <path fill="url(#c)" fill-rule="evenodd" d="M325 246.64c-83.4-54.75-102.63 132.32-56.13 144.5 86.58 44.1 109.03-104.95 56.12-144.5z" transform="translate(-18.442 -18.023)"/>
    <path fill="#552400" fill-rule="evenodd" stroke="#000" stroke-width="10" d="M356.56 6.98c-5.36 1.34-21.34 21.97-29.04 35.27C229.16 92.53 194 150.72 169.22 201.32c-13.06 26.65-19.3 53.46-22.38 69.13-1.54 7.83-2.28 13.83-2.7 17.43 1.04 10.87 15.58 8.65 14.95 2.38 4.1-8.48 1.02-10.4 2.5-17.88 2.93-14.97 8.92-37.2 21.52-62.93 22.03-44.98 59.45-100.72 141.32-147.8L327.3 65c-30.17 42.4-47.16 104.77-27.02 182.37 4.05 2.47 18.52 1.63 19.7-2.5C299.52 157.52 323 90.35 356.75 55.2c7.46-4.64 22.42-17.67 26-18.2 4.07-7.3-12.17-26.64-26.24-30z" stroke-linejoin="round"/>
  </g>
</svg>
