<svg xmlns="http://www.w3.org/2000/svg" xmlns:xlink="http://www.w3.org/1999/xlink" viewBox="0 0 495 495">
  <defs>
    <linearGradient id="a">
      <stop offset="0" stop-color="#dd7d0c"/>
      <stop offset="1" stop-color="#d5a224"/>
    </linearGradient>
    <radialGradient id="W" cx="184.54" cy="656.95" r="21.3" xlink:href="#a" gradientUnits="userSpaceOnUse" gradientTransform="scale(1.4126 .70794)"/>
    <linearGradient id="X" x1="8.49" x2="348.7" y1="164.6" y2="170.11" gradientUnits="userSpaceOnUse" gradientTransform="scale(.7114 1.4057)">
      <stop offset="0" stop-color="#fff" stop-opacity=".34"/>
      <stop offset="1" stop-color="#fff" stop-opacity="0"/>
    </linearGradient>
    <radialGradient id="b" cx="252.94" cy="308.01" r="156.67" xlink:href="#a" gradientUnits="userSpaceOnUse" gradientTransform="scale(.97002 1.0309)"/>
    <radialGradient id="c" cx="166.63" cy="223.03" r="22.33" xlink:href="#a" gradientUnits="userSpaceOnUse" gradientTransform="scale(1.2402 .80635)"/>
    <radialGradient id="d" cx="213.34" cy="223.62" r="23.58" xlink:href="#a" gradientUnits="userSpaceOnUse" gradientTransform="scale(1.231 .81237)"/>
    <radialGradient id="e" cx="345.61" cy="206.02" r="28.42" xlink:href="#a" gradientUnits="userSpaceOnUse" gradientTransform="scale(.98603 1.0142)"/>
    <radialGradient id="f" cx="320.07" cy="189.93" r="27.96" xlink:href="#a" gradientUnits="userSpaceOnUse" gradientTransform="scale(.934 1.0706)"/>
    <radialGradient id="g" cx="167.37" cy="202.63" r="19.31" xlink:href="#a" gradientUnits="userSpaceOnUse" gradientTransform="scale(1.0025 .99755)"/>
    <radialGradient id="h" cx="231.74" cy="204.01" r="25.66" xlink:href="#a" gradientUnits="userSpaceOnUse" gradientTransform="scale(1.0178 .98252)"/>
    <radialGradient id="i" cx="190.67" cy="226" r="25.01" xlink:href="#a" gradientUnits="userSpaceOnUse" gradientTransform="scale(1.0441 .95776)"/>
    <radialGradient id="j" cx="260.6" cy="234.88" r="26.8" xlink:href="#a" gradientUnits="userSpaceOnUse" gradientTransform="scale(1.0469 .95516)"/>
    <radialGradient id="k" cx="314.72" cy="241.47" r="25.14" xlink:href="#a" gradientUnits="userSpaceOnUse" gradientTransform="scale(1.0525 .9501)"/>
    <radialGradient id="l" cx="417.38" cy="217.85" r="20.16" xlink:href="#a" gradientUnits="userSpaceOnUse" gradientTransform="scale(.8718 1.147)"/>
    <radialGradient id="m" cx="298.84" cy="261.16" r="25.69" xlink:href="#a" gradientUnits="userSpaceOnUse" gradientTransform="scale(1.0165 .98378)"/>
    <radialGradient id="n" cx="209.39" cy="264.28" r="28.3" xlink:href="#a" gradientUnits="userSpaceOnUse" gradientTransform="scale(1.084 .92254)"/>
    <radialGradient id="o" cx="144.7" cy="216.76" r="20.87" xlink:href="#a" gradientUnits="userSpaceOnUse" gradientTransform="scale(.9463 1.0568)"/>
    <radialGradient id="p" cx="163.62" cy="243.96" r="25.58" xlink:href="#a" gradientUnits="userSpaceOnUse" gradientTransform="scale(1.0207 .97968)"/>
    <radialGradient id="q" cx="133.58" cy="269.03" r="25.57" xlink:href="#a" gradientUnits="userSpaceOnUse" gradientTransform="scale(1.0215 .97894)"/>
    <radialGradient id="r" cx="174.09" cy="301.27" r="29.1" xlink:href="#a" gradientUnits="userSpaceOnUse" gradientTransform="scale(1.116 .89604)"/>
    <radialGradient id="s" cx="255.1" cy="283.21" r="28.07" xlink:href="#a" gradientUnits="userSpaceOnUse" gradientTransform="scale(1.0464 .95566)"/>
    <radialGradient id="t" cx="339.74" cy="279.14" r="25.66" xlink:href="#a" gradientUnits="userSpaceOnUse" gradientTransform="scale(1.018 .98235)"/>
    <radialGradient id="u" cx="444.44" cy="252.83" r="23.61" xlink:href="#a" gradientUnits="userSpaceOnUse" gradientTransform="scale(.84034 1.19)"/>
    <radialGradient id="v" cx="271.99" cy="340.23" r="27.43" xlink:href="#a" gradientUnits="userSpaceOnUse" gradientTransform="scale(1.1301 .88486)"/>
    <radialGradient id="w" cx="213.5" cy="327.85" r="29.4" xlink:href="#a" gradientUnits="userSpaceOnUse" gradientTransform="scale(1.1035 .90617)"/>
    <radialGradient id="x" cx="149.9" cy="322.19" r="28.05" xlink:href="#a" gradientUnits="userSpaceOnUse" gradientTransform="scale(1.0829 .92343)"/>
    <radialGradient id="y" cx="141.41" cy="230.2" r="21.51" xlink:href="#a" gradientUnits="userSpaceOnUse" gradientTransform="scale(.78847 1.2683)"/>
    <radialGradient id="z" cx="132.64" cy="310.2" r="26.63" xlink:href="#a" gradientUnits="userSpaceOnUse" gradientTransform="scale(.98055 1.0198)"/>
    <radialGradient id="A" cx="186.01" cy="340.97" r="27.88" xlink:href="#a" gradientUnits="userSpaceOnUse" gradientTransform="scale(1.0575 .94565)"/>
    <radialGradient id="B" cx="261.48" cy="344.05" r="28.94" xlink:href="#a" gradientUnits="userSpaceOnUse" gradientTransform="scale(1.0604 .94307)"/>
    <radialGradient id="C" cx="328.56" cy="337.19" r="27.55" xlink:href="#a" gradientUnits="userSpaceOnUse" gradientTransform="scale(1.0331 .96795)"/>
    <radialGradient id="D" cx="442.16" cy="293.46" r="19.05" xlink:href="#a" gradientUnits="userSpaceOnUse" gradientTransform="scale(.84836 1.1787)"/>
    <radialGradient id="E" cx="284.58" cy="389.85" r="28.26" xlink:href="#a" gradientUnits="userSpaceOnUse" gradientTransform="scale(1.0968 .91176)"/>
    <radialGradient id="F" cx="229.95" cy="360.24" r="29.84" xlink:href="#a" gradientUnits="userSpaceOnUse" gradientTransform="scale(1.0289 .97192)"/>
    <radialGradient id="G" cx="151.29" cy="378.24" r="29.7" xlink:href="#a" gradientUnits="userSpaceOnUse" gradientTransform="scale(1.0897 .91766)"/>
    <radialGradient id="H" cx="120.67" cy="320.17" r="22.94" xlink:href="#a" gradientUnits="userSpaceOnUse" gradientTransform="scale(.94247 1.061)"/>
    <radialGradient id="I" cx="141.54" cy="281.31" r="17.58" xlink:href="#a" gradientUnits="userSpaceOnUse" gradientTransform="scale(.74342 1.3451)"/>
    <radialGradient id="J" cx="130.83" cy="398.17" r="29.6" xlink:href="#a" gradientUnits="userSpaceOnUse" gradientTransform="scale(1.0474 .95477)"/>
    <radialGradient id="K" cx="185.03" cy="407.12" r="28.6" xlink:href="#a" gradientUnits="userSpaceOnUse" gradientTransform="scale(1.0846 .92196)"/>
    <radialGradient id="L" cx="260.94" cy="405.41" r="30.56" xlink:href="#a" gradientUnits="userSpaceOnUse" gradientTransform="scale(1.0649 .93906)"/>
    <radialGradient id="M" cx="380.27" cy="350.56" r="26.53" xlink:href="#a" gradientUnits="userSpaceOnUse" gradientTransform="scale(.92272 1.0837)"/>
    <radialGradient id="N" cx="298.4" cy="429.69" r="28.07" xlink:href="#a" gradientUnits="userSpaceOnUse" gradientTransform="scale(1.0598 .9436)"/>
    <radialGradient id="O" cx="230.74" cy="430.74" r="31.17" xlink:href="#a" gradientUnits="userSpaceOnUse" gradientTransform="scale(1.0517 .95086)"/>
    <radialGradient id="P" cx="125.21" cy="440.74" r="25.1" xlink:href="#a" gradientUnits="userSpaceOnUse" gradientTransform="scale(1.0638 .94)"/>
    <radialGradient id="Q" cx="207.47" cy="496.9" r="27.88" xlink:href="#a" gradientUnits="userSpaceOnUse" gradientTransform="scale(1.1088 .9019)"/>
    <radialGradient id="R" cx="274.1" cy="458.44" r="27.82" xlink:href="#a" gradientUnits="userSpaceOnUse" gradientTransform="scale(1.0556 .94732)"/>
    <radialGradient id="S" cx="354.3" cy="411.61" r="23.18" xlink:href="#a" gradientUnits="userSpaceOnUse" gradientTransform="scale(.95476 1.0474)"/>
    <radialGradient id="T" cx="249.46" cy="564.03" r="19.53" xlink:href="#a" gradientUnits="userSpaceOnUse" gradientTransform="scale(1.2347 .80994)"/>
    <radialGradient id="U" cx="164.53" cy="446.26" r="30.45" xlink:href="#a" gradientUnits="userSpaceOnUse" gradientTransform="scale(1.0738 .93128)"/>
    <radialGradient id="V" cx="148.46" cy="555.45" r="23.46" xlink:href="#a" gradientUnits="userSpaceOnUse" gradientTransform="scale(1.2308 .8125)"/>
  </defs>
  <g fill-rule="evenodd">
    <path fill="url(#b)" stroke="#000" stroke-width="10" d="M225.35 162.88s-66.94 34.62-69.25 39.24c-2.3 4.62-27.7 22.3-34.62 37.7-6.16 13.85-18.47 52.33-23.1 80.03.78 5.38 0 70.8 9.24 80.02 9.24 9.24 86.18 66.18 111.58 68.48 25.4 7.7 60.78 6.93 77.7 1.54 27.7-11.6 46.95-27.7 56.95-38.5 10-30 38.48-109.3 38.48-134.7-5.4-18.5-13.85-48.5-29.24-78.5-19.3-43.1-137.8-63.9-137.8-55.4z" stroke-linejoin="round" transform="rotate(22.042 189.378 152.084)"/>
    <path fill="#007300" stroke="#000" stroke-width="10" d="M214.2 151.62c7.67-34.22-35.9-39.85-68.5-62.16 61.34 15.83 110.16 47.87 110.16 47.87-14.9-33.98 23.7-59.96 16.4-92.17 36.7 54.78-8.06 78.93 13.06 96.62 5.9-28.88 60.78-1.62 129.42-18.65-31.67 37.3-83.8 31.97-98.48 48.4-2.6 10.23 12.4 10.77 3.17 19.1 5.1 17.14 65.02-1 94.03 8.13-14.08 22.83-86.04 5.15-87.28 32.77-22.4-31.93-53.22-54.63-111.97-79.9z" stroke-linejoin="round"/>
    <path fill="#0c0" fill-opacity=".5" d="M391.95 133.2c-29.05 15.43-59.1 7.2-100.1 31.1 17.56-25.2 44.3-25 100.1-31.1zM275.3 64.25c6.55 27.3-29.23 31.5-8.22 75.28 8.2-42.13 2.1-27.23 8.22-75.28z"/>
    <path fill="#007300" stroke="#000" stroke-width="10" d="M214.1 151.14c7.67-34.23-35.9-39.86-68.5-62.17 61.34 15.83 94.2 43.77 94.2 43.77C224.9 98.76 196.28 39.17 189 6.96c36.7 54.78 67.22 115.8 88.34 133.5 5.9-28.88 62.1 2.56 111.3-50.52 9 26.77-71.93 56.26-86.6 72.7-2.6 10.22 41.25-20.03 139.2.24-52.64 8.5-112.7 18.93-121.9 27.26 5.1 17.14 103.37 37.47 132.4 46.6-14.1 22.83-124.43-33.3-125.66-5.7-22.42-31.92-53.23-54.63-111.98-79.9z" stroke-linejoin="round"/>
    <path fill="#0c0" fill-opacity=".5" d="M398.17 163.55c-30.95.26-59.72 6.83-108.76 15.73 25.9-13.64 49.7-20.64 108.8-15.73zm48.46 76.08c-30.88-7.8-44.6-2.3-49.9-14.44 18.06 5.5-1.17.1 49.9 14.4zM366 110.93c-53.13 45.76-37.04 20.27-72.35 30.03 13.74-24.4 36.08 2.73 72.35-30.03zM157.23 92.8c66.78 23.52 47.03 18.37 60.15 34.47-11.26-11.36 7.82-6.43-60.15-34.47zm35.33-77.38c27.23 60.33 54.3 69.5 74.5 125.96 8.27 4.17-53.44-72.3-74.5-125.96z"/>
    <path fill="#007300" stroke="#000" stroke-width="10" d="M207.26 172.28c7.66-34.23-41.28-34.67-81.7-32.53 63.32-28.77 107.4 14.13 107.4 14.13-14.9-33.98-11-77.16-71.08-110.65 83.24 18.47 87.5 100.67 108.6 118.37 5.92-28.9 1.17-37.74 50.35-90.82 9 26.76-10.97 96.56-25.65 112.98-2.6 10.24 90.45-39.87 180.42 35-43.92-27.1-153.9-15.8-163.12-7.48 5.1 17.14 98.67-12.15 96.52 56.64-21.35-27.37-88.53-43.36-89.76-15.74-22.42-31.93-53.23-54.63-111.98-79.9z" stroke-linejoin="round"/>
    <path fill="#0c0" fill-opacity=".5" d="M149.54 137.8c74.02-2.9 60.97.14 87.7 40.72-25-14.4-1.3 7.05-20.77-12.86-5.6-30.58-28.5-27.1-66.93-27.86z"/>
    <path fill="url(#c)" stroke="#000" stroke-width="10" d="M231.92 162.16c13.15 11.1-8.03 19.5-18.8 27.58-4.2 6.53-24.32 7.78-31.7-1.8-8.52-9.87 28.88-27.58 50.5-25.78z" stroke-linejoin="round" transform="rotate(22.042 189.378 152.084)"/>
    <path fill="url(#d)" stroke="#000" stroke-width="10" d="M234.63 172.24c12.18-20.45 56.33-4 59.08 4.35-4.1 6.5-14.5 22.3-26.6 21.3-7.8-3.2-25-16.2-32.4-25.7z" stroke-linejoin="round" transform="rotate(22.042 189.378 152.084)"/>
    <path fill="url(#e)" stroke="#000" stroke-width="10" d="M325.3 204.53c-4.54-11-17.7-22.1-7.72-27.1 21.9 4.5 50.1 32.48 53.05 58.6-7.82-3.16-37.97-21.93-45.34-31.5z" stroke-linejoin="round" transform="rotate(22.042 189.378 152.084)"/>
    <path fill="url(#f)" stroke="#000" stroke-width="10" d="M274.28 198.74c2.95-11.22 12.93-23.92 25.2-28.32 17.36 4.56 24.2 23.87 26.95 32.23-4.2 6.53-10.36 30-22.47 28.98-7.82-3.15-22.3-23.3-29.68-32.9z" stroke-linejoin="round" transform="rotate(22.042 189.378 152.084)"/>
    <path fill="url(#g)" stroke="#000" stroke-width="10" d="M178.22 182.74c11.3 4.07 12.1 15.18-1.2 28.04-4.18 6.53-8 2.26-24.3 7.8-8.53-9.9 13.22-31.44 25.5-35.84z" stroke-linejoin="round" transform="rotate(22.042 189.378 152.084)"/>
    <path fill="url(#h)" stroke="#000" stroke-width="10" d="M211.2 194.14c2.94-11.22 12.9-16.23 25.2-20.63 17.35 4.6 24.2 16.2 26.94 24.6-4.2 6.6-15.6 26.5-27.7 25.5-7.84-3.1-17.08-19.7-24.45-29.3z" stroke-linejoin="round" transform="rotate(22.042 189.378 152.084)"/>
    <path fill="url(#i)" stroke="#000" stroke-width="10" d="M174.4 211.73c2.96-11.22 12.94-16.23 25.22-20.63 17.35 4.56 24.2 16.18 26.94 24.53-4.2 6.53-14.35 16.95-30.65 22.48-7.8-3.1-14.1-16.8-21.5-26.3z" stroke-linejoin="round" transform="rotate(22.042 189.378 152.084)"/>
    <path fill="url(#j)" stroke="#000" stroke-width="10" d="M245.95 221.82c2.95-11.2 9.1-20.5 21.4-24.9 17.34 4.56 32.63 21.67 35.37 30.02-4.2 6.54-20.58 21.85-32.68 20.85-7.83-3.2-16.7-16.4-24.1-26z" stroke-linejoin="round" transform="rotate(22.042 189.378 152.084)"/>
    <path fill="url(#k)" stroke="#000" stroke-width="10" d="M306.2 227.86c2.95-11.22 13.72-19.3 26-23.7 17.36 4.57 24.2 16.18 26.95 24.54-4.2 6.53-11.07 23.26-23.17 22.26-7.83-3.15-22.4-13.53-29.8-23.1z" stroke-linejoin="round" transform="rotate(22.042 189.378 152.084)"/>
    <path fill="url(#l)" stroke="#000" stroke-width="10" d="M348.9 251.1c4.2-6.54-3.27-20.5 6.7-25.5 20.9 9.85 34.13 39.5 17.84 45.03-7.83-3.15-17.16-9.97-24.54-19.54z" stroke-linejoin="round" transform="rotate(22.042 189.378 152.084)"/>
    <path fill="url(#m)" stroke="#000" stroke-width="10" d="M279.1 250.53c2.94-11.22 12.92-16.23 25.2-20.63 17.35 4.56 24.2 16.17 26.94 24.53-4.2 6.53-6.53 20.1-22.82 25.62-7.83-3.15-21.96-19.95-29.33-29.52z" stroke-linejoin="round" transform="rotate(22.042 189.378 152.084)"/>
    <path fill="url(#n)" stroke="#000" stroke-width="10" d="M197.1 240.6c2.96-11.22 17.3-28.16 36.1-24.3 12.17 5.37 26.5 16.77 26.92 24.52-4.2 6.53-9.37 21.53-25.66 27.05-16.73-2.22-29.97-17.7-37.35-27.27z" stroke-linejoin="round" transform="rotate(22.042 189.378 152.084)"/>
    <path fill="url(#o)" stroke="#000" stroke-width="10" d="M151.05 206.13c12.45 4.37-.02 14.17-2.7 24.37-4.2 6.53-10.9 12.58-27.18 18.1-8.53-9.87 17.6-38.07 29.88-42.47z" stroke-linejoin="round" transform="rotate(22.042 189.378 152.084)"/>
    <path fill="url(#p)" stroke="#000" stroke-width="10" d="M142.34 234.92c2.95-11.22 13.46-18.27 25.75-22.67 9.5 1.4 23.6 18.22 26.4 26.57-4.2 6.53-12.1 17.56-28.4 23.08-7.9-3.15-16.5-17.4-23.8-26.98z" stroke-linejoin="round" transform="rotate(22.042 189.378 152.084)"/>
    <path fill="url(#q)" stroke="#000" stroke-width="10" d="M111.78 261.78c2.95-11.22 16.58-20.72 28.87-25.12 17.35 4.56 20.53 20.66 23.28 29.02-4.2 6.53-17.55 15-33.85 20.54-7.82-3.15-10.92-14.87-18.3-24.44z" stroke-linejoin="round" transform="rotate(22.042 189.378 152.084)"/>
    <path fill="url(#r)" stroke="#000" stroke-width="10" d="M162.4 271.08c2.94-11.22 17.2-32.54 35.98-28.7 13.43 10.08 25.08 17.5 31.3 26.77-4.2 6.53-11.24 14.5-30.03 24.82-16.73-2.22-29.9-13.3-37.26-22.9z" stroke-linejoin="round" transform="rotate(22.042 189.378 152.084)"/>
    <path fill="url(#s)" stroke="#000" stroke-width="10" d="M238.57 268.22c2.96-11.22 17.4-23.78 31.72-26.55 13.4 10.07 21.6 20.97 28.1 29.22-4.2 6.5-6.3 19-22.6 24.6-16-5.3-30-17.7-37.4-27.3z" stroke-linejoin="round" transform="rotate(22.042 189.378 152.084)"/>
    <path fill="url(#t)" stroke="#000" stroke-width="10" d="M321.17 274.33c2.96-11.22 11.8-30.7 27.98-26.45 20.55 6.5 21.42 22 24.17 30.35-1.8 11.52-11.68 20.92-28.4 18.7-7.84-3.15-16.37-13.03-23.75-22.6z" stroke-linejoin="round" transform="rotate(22.042 189.378 152.084)"/>
    <path fill="url(#u)" stroke="#000" stroke-width="10" d="M355.94 302c2.95-11.2 12.14-27.33 24.42-31.73 14.05 12.42 17.13 38.3 6.25 56.17-19.7 4.6-23.3-14.85-30.6-24.43z" stroke-linejoin="round" transform="rotate(22.042 189.378 152.084)"/>
    <path fill="url(#v)" stroke="#000" stroke-width="10" d="M277.16 300.18c2.95-11.22 17.3-28.16 36.07-24.3 17.35 4.55 31.13 18 26.94 24.52-4.2 6.53-9.46 17.14-25.75 22.67-16.73-2.22-29.9-13.3-37.26-22.9z" stroke-linejoin="round" transform="rotate(22.042 189.378 152.084)"/>
    <path fill="url(#w)" stroke="#000" stroke-width="10" d="M203.74 297.23c2.95-11.22 17.12-22.76 31.1-28.9 15.1 8.34 39.84 22.48 35.65 29-4.2 6.54-11.2 18.9-27.5 24.4-16.7-2.2-32-14.93-39.3-24.5z" stroke-linejoin="round" transform="rotate(22.042 189.378 152.084)"/>
    <path fill="url(#x)" stroke="#000" stroke-width="10" d="M132.82 289.48c7.58-10 12.84-20.62 28.68-19.72 17.35 4.56 26.23 17.8 33.6 27.38-4.18 6.53-16.04 18.68-32.33 24.2-16.73-2.2-22.58-22.3-29.95-31.86z" stroke-linejoin="round" transform="rotate(22.042 189.378 152.084)"/>
    <path fill="url(#y)" stroke="#000" stroke-width="10" d="M114.1 262.4c17.34 4.55 10.74 20.26 13.5 28.62-4.2 6.53-10.9 20.77-27.18 26.3-8.53-9.88 1.4-50.53 13.68-54.93z" stroke-linejoin="round" transform="rotate(22.042 189.378 152.084)"/>
    <path fill="url(#z)" stroke="#000" stroke-width="10" d="M105.4 318.98c2.94-11.22 10.97-27.64 23.26-32.04 17.35 4.56 26.13 27.6 28.88 35.95-4.2 6.5-12.12 13.1-28.42 18.6-7.82-3.2-16.36-13-23.73-22.6z" stroke-linejoin="round" transform="rotate(22.042 189.378 152.084)"/>
    <path fill="url(#A)" stroke="#000" stroke-width="10" d="M168.2 319.5c2.95-11.2 15-28.77 33.76-24.92 11.65 7.43 25.97 18.83 26.4 26.57-4.2 6.53-6.52 20.1-22.82 25.63-16.72-2.22-29.96-17.7-37.34-27.28z" stroke-linejoin="round" transform="rotate(22.042 189.378 152.084)"/>
    <path fill="url(#B)" stroke="#000" stroke-width="10" d="M247.4 323.98c2.95-11.22 12.76-25 26.2-29.1 17.35 4.57 37.53 21.87 36.8 29.32-4.18 6.53-18.88 20.1-35.18 25.64-16.72-2.22-20.44-16.3-27.82-25.86z" stroke-linejoin="round" transform="rotate(22.042 189.378 152.084)"/>
    <path fill="url(#C)" stroke="#000" stroke-width="10" d="M312.1 322.46c2.96-11.22 17.3-28.16 36.08-24.3 17.35 4.55 24.7 28.3 20.5 34.83-4.18 6.5-2.05 12.5-18.34 18-16.73-2.2-30.86-19-38.24-28.6z" stroke-linejoin="round" transform="rotate(22.042 189.378 152.084)"/>
    <path fill="url(#D)" stroke="#000" stroke-width="10" d="M361.75 350.43c4.02-15.3 5.55-25.8 22.2-27.96 10.92 14.87 7.33 37.9-8.96 43.44-7.9-3.1-5.9-5.9-13.3-15.4z" stroke-linejoin="round" transform="rotate(22.042 189.378 152.084)"/>
    <path fill="url(#E)" stroke="#000" stroke-width="10" d="M281.9 352.68c2.95-11.22 17.3-28.16 36.07-24.3 17.35 4.55 31.13 18 26.93 24.52-4.2 6.53-4.2 20.7-20.5 26.23-16.73-2.22-35.13-16.87-42.5-26.45z" stroke-linejoin="round" transform="rotate(22.042 189.378 152.084)"/>
    <path fill="url(#F)" stroke="#000" stroke-width="10" d="M206.7 347.08c7.58-10 12.14-27.34 36-28.7 12.18 5.4 30.66 24.43 26.47 30.96-4.2 6.53-9.64 22.54-25.93 28.07-16.73-2.2-29.16-20.7-36.54-30.3z" stroke-linejoin="round" transform="rotate(22.042 189.378 152.084)"/>
    <path fill="url(#G)" stroke="#000" stroke-width="10" d="M133.1 349.53c2.95-11.22 13.2-31.42 31.9-31.96 16 9.67 33.52 23 35.1 31.05-4.18 6.53-13.45 18.27-29.74 23.8-16.73-2.22-29.9-13.32-37.26-22.9z" stroke-linejoin="round" transform="rotate(22.042 189.378 152.084)"/>
    <path fill="url(#H)" stroke="#000" stroke-width="10" d="M106.73 313.88c17.35 4.57 26.13 27.6 28.88 35.95-4.1 6.54-12.8 6.45-29.1 11.97-20.3-11.9-12-43.5.3-47.92z" stroke-linejoin="round" transform="rotate(22.042 189.378 152.084)"/>
    <path fill="url(#I)" stroke="#000" stroke-width="10" d="M97.46 353.43c17.35 4.56 14.67 14.76 17.42 23.12-4.2 6.53 9.77 17.64-6.53 23.17-8.53-9.87-17.02-38.04-10.9-46.3z" stroke-linejoin="round" transform="rotate(22.042 189.378 152.084)"/>
    <path fill="url(#J)" stroke="#000" stroke-width="10" d="M106.8 374.24c2.96-11.22 17.3-28.16 36.1-24.32 17.34 4.57 31.1 18 26.92 24.54 4 13.04-10.7 26.62-27 32.15-16.73-2.2-28.63-22.8-36-32.3z" stroke-linejoin="round" transform="rotate(22.042 189.378 152.084)"/>
    <path fill="url(#K)" stroke="#000" stroke-width="10" d="M170.44 376.8c2.95-11.22 18.64-33.26 37.42-29.42 17.35 4.57 29.78 23.1 25.6 29.64-4.2 6.53-9.47 17.14-25.76 22.67-16.73-2.3-29.88-13.4-37.26-22.9z" stroke-linejoin="round" transform="rotate(22.042 189.378 152.084)"/>
    <path fill="url(#L)" stroke="#000" stroke-width="10" d="M245.9 381.38c2.96-11.2 17.5-33.56 31.9-31.95 11.3 4.06 39.3 24.5 35.12 31.04-4.2 6.54-13.1 21.64-29.4 27.17-16.73-2.22-30.24-16.68-37.62-26.26z" stroke-linejoin="round" transform="rotate(22.042 189.378 152.084)"/>
    <path fill="url(#M)" stroke="#000" stroke-width="10" d="M328.07 379.74c2.95-11.22 18.2-26.84 30.48-31.24 28.64 8.63 20.2 64.2-7.82 57.92-7.83-3.15-15.3-17.1-22.66-26.68z" stroke-linejoin="round" transform="rotate(22.042 189.378 152.084)"/>
    <path fill="url(#N)" stroke="#000" stroke-width="10" d="M287.45 407.23C290.4 396 309.1 381.3 321.4 376.9c17.35 4.56 24.08 25.96 26.83 34.32-4.2 6.53-12.12 13.17-28.4 18.7-7.84-3.15-25-13.12-32.38-22.7z" stroke-linejoin="round" transform="rotate(22.042 189.378 152.084)"/>
    <path fill="url(#O)" stroke="#000" stroke-width="10" d="M210.8 411.4c-3.1-11.7 13.67-37.84 32.44-34 17.35 4.58 38.85 30.95 34.66 37.48-4.2 6.53-9.46 17.15-25.75 22.67-16.73-2.22-33.97-16.57-41.35-26.14z" stroke-linejoin="round" transform="rotate(22.042 189.378 152.084)"/>
    <path fill="url(#P)" stroke="#000" stroke-width="10" d="M107.86 403.6c2.95-11.22.1-9.78 12.4-14.2 17.34 4.58 38.4 37.38 41.14 45.74-22.08 4-46.16-21.96-53.54-31.54z" stroke-linejoin="round" transform="rotate(22.042 189.378 152.084)"/>
    <path fill="url(#Q)" stroke="#000" stroke-width="10" d="M199.92 448.54c1.54-24.68 15.52-30.8 27.7-25.43 17.35 4.6 39.68 13.8 35.3 25.7-4.2 6.6-18.62 19.1-39.27 22.4-7.83-3.1-16.36-13-23.73-22.6z" stroke-linejoin="round" transform="rotate(22.042 189.378 152.084)"/>
    <path fill="url(#R)" stroke="#000" stroke-width="10" d="M260.98 437.34c2.95-11.22 13.3-27.04 25.58-31.44 17.35 4.56 31.56 25.75 34.3 34.1-4.18 6.54-20.74 13.1-37.03 18.62-16.73-2.22-22.33-9.15-22.85-21.28z" stroke-linejoin="round" transform="rotate(22.042 189.378 152.084)"/>
    <path fill="url(#S)" stroke="#000" stroke-width="10" d="M318.12 431.65c2.96-11.22 28.06-21.9 40.35-26.3 8.26 10.9-6.72 39.5-24.98 47.8-7.9-3.16-8-11.92-15.4-21.5z" stroke-linejoin="round" transform="rotate(22.042 189.378 152.084)"/>
    <path fill="url(#T)" stroke="#000" stroke-width="10" d="M286.95 465.53c-6.03-14.67 9.28-13.44 21.2-21.2 9.1.32 17.65-8.93 24.83 6.04-9 10.72-40.34 26.47-46.03 15.16z" stroke-linejoin="round" transform="rotate(22.042 189.378 152.084)"/>
    <path fill="url(#U)" stroke="#000" stroke-width="10" d="M144.52 409.98c2.95-11.22 25.93-28.08 33.76-24.93 17.35 4.56 34.6 18.92 34.04 35.13-4.9 13.97-16.3 19.7-36.7 21.97-7.82-3.15-23.73-22.6-31.1-32.17z" stroke-linejoin="round" transform="rotate(22.042 189.378 152.084)"/>
    <path fill="url(#V)" stroke="#000" stroke-width="10" d="M154.92 436.25c15.05-10.22 29.1 2.2 38.27.25 7.5 4.17 13.2 15.48 20.4 30.46-16.1 4.5-53-19.4-58.7-30.7z" stroke-linejoin="round" transform="rotate(22.042 189.378 152.084)"/>
    <path fill="url(#W)" stroke="#000" stroke-width="10" d="M231.5 469.48c15.06-10.22 24.14-16.55 33.3-18.5 7.57 4.17 14.78 4.98 28.3 19.43-10.52 7.1-55.9 10.4-61.6-.9z" stroke-linejoin="round" transform="rotate(22.042 189.378 152.084)"/>
    <path fill="#0c0" fill-opacity=".5" d="M316.17 85.72s-35.08 28.4-40.7 83c8.27 4.16 14.36-38.98 40.7-83zm113.9 112.68c-39.72-4.27-77.73-7.74-126.4 6 25.83-13.63 32.14-29.78 126.4-6zm-30.1 52.65c-35.3-23.9-28.66-9.83-76.82-20.53 45.16 2.4 58.1-2.5 76.82 20.53zM205.87 71.5c37.9 40.07 31.66 17.67 34.86 80.85-11.43-10.84-3.4-42-34.86-80.84z"/>
    <path fill="url(#X)" d="M228.75 167.5C198.75 145 15 321.25 141.25 425c63.75-17.5-7.5-210 87.5-257.5z" transform="rotate(22.042 189.378 152.084)"/>
  </g>
</svg>
