<svg xmlns="http://www.w3.org/2000/svg" viewBox="0 0 395 395">
  <defs>
    <linearGradient id="a" x1="62.83" x2="312.91" y1="339.77" y2="191.32" gradientUnits="userSpaceOnUse" gradientTransform="scale(1.533 .65232)">
      <stop offset="0" stop-color="#fff" stop-opacity=".52"/>
      <stop offset="1" stop-color="#fff" stop-opacity="0"/>
    </linearGradient>
    <linearGradient id="b" x1="109.53" x2="370.9" y1="332.17" y2="332.17" gradientUnits="userSpaceOnUse" gradientTransform="scale(1.2211 .81893)">
      <stop offset="0" stop-color="#fff" stop-opacity="0"/>
      <stop offset="1" stop-color="#5f0e00" stop-opacity=".42"/>
    </linearGradient>
  </defs>
  <g fill-rule="evenodd">
    <path fill="#ffe200" stroke="#000" stroke-width="10" d="M284.64 41.14C261.26 30.6 304.6 2.7 312.52 6.6c11.07 1.52-5.48 11.1-1.48 18.98 4 7.88 17.68 52.08 27.95 51.23 10.22-.8 24.9 3.48 28.9 15.3 54.5 63.36 6.8 303.95-301.97 296.55-5.94-1.94-42.03-22.7-49.17-28.18-5.2-7.5-15.57-26.4-3.78-38.33C124.05 248.8 286.2 263.74 301.5 98.8c2.2-28.48-16.92-57.63-16.92-57.63z" stroke-linejoin="round"/>
    <path fill="url(#a)" d="M43.75 290l2.5-12.5c92.5-35 263.75 38.75 346.25-120C351.25 270 278.75 338.75 43.75 290z" transform="rotate(-18.748 177.348 382.773)"/>
    <path fill="#442400" d="M280.7 37.6c-2.9-17.6 21.75-26.46 28.4-29.64 11.85-2.37-7.77 25.3-28.43 29.66zM15.25 355.8c-6.8-17.1-9.62-22.53-1.52-31.67 6.6 5.07 12.67 25.66 1.52 31.68z"/>
    <path fill="url(#b)" d="M133.75 366.25c218.75 55 293-83.12 306.25-116.25 22.5-40 8.75-85 8.75-85-1.25 135-142.5 243.75-315 201.25z" transform="rotate(-18.748 177.348 382.773)"/>
  </g>
</svg>
