<svg xmlns="http://www.w3.org/2000/svg" viewBox="0 0 475 475">
  <defs>
    <radialGradient id="a" cx="323.23" cy="382.89" r="297.41" gradientUnits="userSpaceOnUse" gradientTransform="scale(1.008 .9921)">
      <stop offset="0" stop-color="#dd6204"/>
      <stop offset="1" stop-color="#e48e17"/>
    </radialGradient>
    <radialGradient id="b" cx="161.81" cy="240.19" r="100.14" fx="160.59" fy="243.68" gradientUnits="userSpaceOnUse" gradientTransform="scale(.88068 1.1355)">
      <stop offset="0" stop-color="#fff" stop-opacity=".5"/>
      <stop offset="1" stop-color="#fff" stop-opacity="0"/>
    </radialGradient>
  </defs>
  <g fill-rule="evenodd">
    <path fill="url(#a)" stroke="#000" stroke-width="10" d="M222.68 36.45c-273.04 66.58-212.86 365.3-111.04 410.9C401.07 571 477.52 363.65 486.62 304.67 508.68 123.25 351.92 2.2 222.68 36.45z" stroke-linejoin="round" transform="translate(-19.82 -20.826)"/>
    <path fill="#fff" fill-opacity=".1" d="M48.14 116.44C157.34 72.7 184.66 61.28 233.8 67c25.5 17.1 118.32 13.3 189.3 131.25C363.05 86.02 341.2 74.6 295.7 68.9c-45.5 0 43.68-15.23 105.57 11.4-58.25-38.03-141.97-19-101.93-57.05-29.13 3.8-30.95 13.3-50.97 28.53-43.7-13.32-27.3-32.34-103.76-15.22 56.48-3.8 45.56 1.9 72.86 11.42-109.2 15.2-143.8 51.36-169.28 68.48z"/>
    <path fill="#090" stroke="#000" stroke-width="10" d="M243.86 62.8c2.03 11.15 3.56 48.7 7.16 48.7 7.8-3.14 17.73-40.26 21.94-44.03C277.16 63.7 315 96 318 94.74c3.02-1.26-26.34-53.64-25.14-57.4-8.4-.63-19.72 8.06-23.32 1.78-3.6-6.27-10.7-2.9-20.32-11.05-15.74 17.24-42.33 24.97-49.54 35.64 7.2 5.07 36.06 1.16 44.18-.9z" stroke-linejoin="round"/>
    <path fill="#090" stroke="#000" stroke-width="10" d="M253.33 47.28c3 8.16 10.2 6.28 13.8 2.5 7.2-1.87 2.37-11.17 4.4-25.86-6.6-3.77-6.98-2.9-14.18-1.02-1.2 3.77-6.42 20.62-4.02 24.38z" stroke-linejoin="round"/>
    <path fill="#00eb00" d="M260.76 32.76s-9.23 14.52-.83 16.4c6.6-2.5 8.64-16.4.83-16.4z"/>
    <path fill="#00ea00" d="M249.36 49.44c-1.02 0-34.86 8-31.86 11.15 9.6 0 25.25-2.4 31.86-11.2zm.54 3.8c3 9.42-2.9 36.83.1 39.96 9.6 0 10.1-34.94-.1-39.96z"/>
    <path fill="url(#b)" d="M177.17 162C80.7 139.17 17 283.75 111.64 371.25c131.06 70.4 180.2-112.23 65.53-209.25z" transform="translate(-19.82 -20.826)"/>
    <path fill="#db6422" fill-opacity=".83" stroke="#d55f00" stroke-opacity=".74" stroke-width="1.25" d="M397.34 385.76a4.95 5.36 0 1 1-9.9 0 4.95 5.36 0 1 1 9.9 0zm-67 51.78a4.95 5.36 0 1 1-9.9 0 4.95 5.36 0 1 1 9.9 0zm-84.28 14.22a4.95 5.36 0 1 1-9.9 0 4.95 5.36 0 1 1 9.9 0zm188.7-138.44a4.95 5.36 0 1 1-9.9 0 4.95 5.36 0 1 1 9.9 0zm25.54-84.92a4.95 5.36 0 1 1-9.9 0 4.95 5.36 0 1 1 9.9 0zm-26.4 33.5a4.95 5.36 0 1 1-9.9 0 4.95 5.36 0 1 1 9.9 0zM399.37 336a4.95 5.36 0 1 1-9.9 0 4.95 5.36 0 1 1 9.9 0zm-46.87 48.4a4.95 5.36 0 1 1-9.88 0 4.95 5.36 0 1 1 9.9 0zm-65.83 39.94a4.95 5.36 0 1 1-9.9 0 4.95 5.36 0 1 1 9.9 0zm143.17-237.58a4.95 5.36 0 1 1-9.9 0 4.95 5.36 0 1 1 9.9 0zm-34.54 92.4a4.95 5.36 0 1 1-9.88 0 4.95 5.36 0 1 1 9.9 0zm-56 60.56a4.95 5.36 0 1 1-9.88 0 4.95 5.36 0 1 1 9.9 0zm-7.95 26.75a4.95 5.36 0 1 1-9.9 0 4.95 5.36 0 1 1 9.9 0zM308 389.82a4.95 5.36 0 1 1-9.9 0 4.95 5.36 0 1 1 9.9 0zm-79.2 34.52a4.95 5.36 0 1 1-9.9 0 4.95 5.36 0 1 1 9.9 0zM421.7 128.9a4.95 5.36 0 1 1-9.88 0 4.95 5.36 0 1 1 9.9 0zm-24.36 83.25a4.95 5.36 0 1 1-9.9 0 4.95 5.36 0 1 1 9.9 0zm-26.4 34.52a4.95 5.36 0 1 1-9.9 0 4.95 5.36 0 1 1 9.9 0zm-18.27 44.67a4.95 5.36 0 1 1-9.9 0 4.95 5.36 0 1 1 9.9 0zm-48.74 47.72a4.95 5.36 0 1 1-9.9 0 4.95 5.36 0 1 1 9.9 0zm-41.63 24.36a4.95 5.36 0 1 1-9.88 0 4.95 5.36 0 1 1 9.9 0zm-48.73 22.34a4.95 5.36 0 1 1-9.9 0 4.95 5.36 0 1 1 9.9 0zm-48.73 41.64a4.95 5.36 0 1 1-9.9 0 4.95 5.36 0 1 1 9.9 0z"/>
  </g>
</svg>
