<?xml version="1.0" encoding="UTF-8" standalone="no"?>
<!-- Generator: Adobe Illustrator 14.0.0, SVG Export Plug-In . SVG Version: 6.00 Build 43363)  -->

<svg
   xmlns:dc="http://purl.org/dc/elements/1.1/"
   xmlns:cc="http://creativecommons.org/ns#"
   xmlns:rdf="http://www.w3.org/1999/02/22-rdf-syntax-ns#"
   xmlns:svg="http://www.w3.org/2000/svg"
   xmlns="http://www.w3.org/2000/svg"
   xmlns:sodipodi="http://sodipodi.sourceforge.net/DTD/sodipodi-0.dtd"
   xmlns:inkscape="http://www.inkscape.org/namespaces/inkscape"
   version="1.1"
   id="Layer_1"
   x="0px"
   y="0px"
   width="270.71399"
   height="223.48839"
   viewBox="0 0 270.71399 223.48839"
   enable-background="new 0 0 1440 1440"
   xml:space="preserve"
   inkscape:version="0.91 r13725"
   sodipodi:docname="hipopotamo.svg"><metadata
     id="metadata771"><rdf:RDF><cc:Work
         rdf:about=""><dc:format>image/svg+xml</dc:format><dc:type
           rdf:resource="http://purl.org/dc/dcmitype/StillImage" /><dc:title></dc:title></cc:Work></rdf:RDF></metadata><defs
     id="defs769" /><sodipodi:namedview
     pagecolor="#ffffff"
     bordercolor="#666666"
     borderopacity="1"
     objecttolerance="10"
     gridtolerance="10"
     guidetolerance="10"
     inkscape:pageopacity="0"
     inkscape:pageshadow="2"
     inkscape:window-width="1920"
     inkscape:window-height="1018"
     id="namedview767"
     showgrid="false"
     fit-margin-top="0"
     fit-margin-left="0"
     fit-margin-right="0"
     fit-margin-bottom="0"
     inkscape:zoom="0.64641035"
     inkscape:cx="446.31779"
     inkscape:cy="-105.89801"
     inkscape:window-x="-8"
     inkscape:window-y="-8"
     inkscape:window-maximized="1"
     inkscape:current-layer="Layer_1" /><g
     id="g315"
     transform="translate(-251.609,-351.77109)"><path
       d="m 499.033,431.729 c -0.803,-1.928 -1.696,-3.777 -2.673,-5.548 14.917,-9.253 5.929,-28.248 1.075,-31.209 -5.957,-3.635 -4.857,1.556 -4.857,1.556 1.51,4.328 0.096,9.169 0.096,9.169 -1.428,4.684 -3.716,6.872 -6.045,7.768 -17.343,-16.893 -45.847,-22.997 -77.628,-22.997 -26.722,0 -51.417,2.883 -68.968,13.609 -0.507,-0.565 -1.034,-1.117 -1.579,-1.658 -1.222,-12.069 -5.437,-24.726 -12.313,-34.185 13.3,-0.798 13.48,-9.539 13.48,-12.485 0,-3.181 -1.192,-3.976 -1.192,-3.976 -8.562,-0.15 -13.376,8.55 -15.218,12.812 -6.153,-6.912 -14.023,-11.386 -23.439,-11.396 -8.521,-0.009 -15.997,4.137 -22.092,10.596 -1.482,-3.452 -5.296,-8.924 -14.948,-11.615 0,0 -2.945,-0.215 -1.585,4.106 1.121,3.561 4.247,14.448 11.909,13.21 -6.797,9.689 -11.167,22.371 -12.387,34.282 -5.692,6.197 -9.059,13.778 -9.059,21.979 0,20.911 21.761,37.862 48.604,37.862 0.137,0 0.271,-0.007 0.408,-0.007 -3.625,22.092 -8.588,64.173 -1.304,98.861 0,0 10.396,15.788 38.12,0 l -5.799,-60.04 c 2.198,2.366 4.565,4.629 7.107,6.772 0.265,19.942 1.414,43.223 4.757,61.132 0,0 18.194,11.437 38.987,-0.52 0,0 -0.142,-17.774 -2.744,-40.393 9.181,2.252 18.997,3.485 29.257,3.485 5.352,0 10.59,-0.337 15.686,-0.973 0.583,7.385 1.554,14.693 3.026,21.699 0,0 10.396,15.788 38.12,0 l -3.208,-33.222 c 2.487,-1.29 4.889,-2.665 7.196,-4.121 0.765,16.791 2.303,34.046 5.187,48.267 0,0 22.08,12.776 47.313,-0.582 -0.003,0.002 -2.88,-87.3 -23.29,-132.238 z"
       id="path317"
       inkscape:connector-curvature="0"
       style="fill:#2190be" /><g
       id="g319"><path
         d="m 300.286,371.844 c 0.417,2.672 2.227,4.615 4.04,4.331 1.808,-0.285 2.939,-2.682 2.523,-5.357 -0.421,-2.673 -2.226,-4.612 -4.039,-4.332 -1.812,0.284 -2.942,2.683 -2.524,5.358 z"
         id="path321"
         inkscape:connector-curvature="0"
         style="fill:#293b8f" /><path
         d="m 285.404,373.637 c 0.919,2.618 3.138,4.223 4.954,3.588 1.815,-0.64 2.542,-3.28 1.621,-5.895 -0.921,-2.622 -3.14,-4.226 -4.952,-3.59 -1.816,0.641 -2.545,3.277 -1.623,5.897 z"
         id="path323"
         inkscape:connector-curvature="0"
         style="fill:#293b8f" /><path
         d="m 326.096,393.709 c 0.604,-0.705 1.016,-1.533 1.154,-2.456 0.491,-3.265 -2.525,-6.425 -6.736,-7.058 -4.21,-0.634 -8.022,1.499 -8.513,4.765 -0.003,0.018 -0.002,0.036 -0.004,0.054 -3.773,-0.732 -7.719,-1.127 -11.784,-1.127 -6.678,0 -13.041,1.051 -18.834,2.95 -0.958,-2.831 -4.536,-4.542 -8.415,-3.884 -4.199,0.713 -7.154,3.93 -6.601,7.185 0.21,1.234 0.894,2.295 1.891,3.099 -10.195,6.94 -16.645,17.137 -16.645,28.511 0,20.911 21.761,37.862 48.604,37.862 26.843,0 48.604,-16.951 48.604,-37.862 -0.001,-13.496 -9.074,-25.335 -22.721,-32.039 z m -10.446,-4.128 c 0.336,-1.741 2.621,-2.765 5.102,-2.286 2.48,0.479 4.219,2.278 3.883,4.02 -0.336,1.741 -2.621,2.766 -5.101,2.288 -2.481,-0.48 -4.22,-2.281 -3.884,-4.022 z m -41.951,7.37 c -2.288,0 -4.142,-1.438 -4.142,-3.21 0,-1.774 1.854,-3.212 4.142,-3.212 2.289,0 4.143,1.438 4.143,3.212 0,1.772 -1.854,3.21 -4.143,3.21 z m 58.87,32.165 c 0,0 -1.38,3.428 -4.563,7.605 0.518,0.542 1.457,1.46 3.038,2.802 2.704,2.295 -4.387,7.91 -6.024,9.206 -1.612,1.278 -4.756,-4.058 -4.849,-4.215 -5.962,4.437 -14.335,7.862 -25.657,6.917 -0.169,0.742 -0.416,2.01 -0.665,4.001 -0.44,3.52 -9.021,0.66 -11.001,0 -1.716,-0.572 0.201,-4.939 0.743,-6.096 -1.81,-0.531 -3.678,-1.163 -5.606,-1.908 0,0 -0.843,-0.461 -0.567,-1.095 0.229,-0.525 0.626,-0.291 0.626,-0.291 40.887,15.77 53.364,-17.448 53.364,-17.448 0,0 0.093,-0.396 0.51,-0.325 0.959,0.165 0.651,0.847 0.651,0.847 z"
         id="path325"
         inkscape:connector-curvature="0"
         style="fill:#293b8f" /><path
         d="m 358.57,573.331 c 0,0 -1.286,-9.653 3.717,-9.783 5.004,-0.13 4.872,9.631 4.872,9.631 0,0 -4.116,2.186 -8.589,0.152 z"
         id="path327"
         inkscape:connector-curvature="0"
         style="fill:#293b8f" /><path
         d="m 371.769,571.308 c 0,0 -1.884,-7.928 1.819,-8.642 0,0 5.006,-0.467 4.956,7.614 0,0 -2.031,2.588 -6.775,1.028 z"
         id="path329"
         inkscape:connector-curvature="0"
         style="fill:#293b8f" /><path
         d="m 354.453,571.96 c 0,0 0.812,-8.843 -2.956,-9.02 0,0 -4.864,0.03 -3.957,7.647 10e-4,0 1.83,2.287 6.913,1.373 z"
         id="path331"
         inkscape:connector-curvature="0"
         style="fill:#293b8f" /><path
         d="m 494.291,568.184 c 0,0 -1.492,-11.2 4.313,-11.351 5.806,-0.151 5.652,11.175 5.652,11.175 0,0 -4.775,2.537 -9.965,0.176 z"
         id="path333"
         inkscape:connector-curvature="0"
         style="fill:#293b8f" /><path
         d="m 509.604,565.838 c 0,0 -2.186,-9.197 2.112,-10.027 0,0 5.81,-0.542 5.75,8.835 0,0 -2.358,3.001 -7.862,1.192 z"
         id="path335"
         inkscape:connector-curvature="0"
         style="fill:#293b8f" /><path
         d="m 489.513,566.594 c 0,0 0.943,-10.261 -3.428,-10.465 0,0 -5.644,0.035 -4.592,8.873 0,-10e-4 2.122,2.652 8.02,1.592 z"
         id="path337"
         inkscape:connector-curvature="0"
         style="fill:#293b8f" /><path
         d="m 326.146,365.658 c 0,0 6.354,-11.131 10.405,-9.964 0,-0.001 2.394,8.707 -10.405,9.964 z"
         id="path339"
         inkscape:connector-curvature="0"
         style="fill:#293b8f" /><path
         d="m 263.258,357.167 c 0,0 10.559,3.278 9.915,9.584 0,0 -5.648,3.837 -9.915,-9.584 z"
         id="path341"
         inkscape:connector-curvature="0"
         style="fill:#293b8f" /></g></g></svg>
