<?xml version="1.0" encoding="UTF-8" standalone="no"?>
<!-- Generator: Adobe Illustrator 14.0.0, SVG Export Plug-In . SVG Version: 6.00 Build 43363)  -->

<svg
   xmlns:dc="http://purl.org/dc/elements/1.1/"
   xmlns:cc="http://creativecommons.org/ns#"
   xmlns:rdf="http://www.w3.org/1999/02/22-rdf-syntax-ns#"
   xmlns:svg="http://www.w3.org/2000/svg"
   xmlns="http://www.w3.org/2000/svg"
   xmlns:sodipodi="http://sodipodi.sourceforge.net/DTD/sodipodi-0.dtd"
   xmlns:inkscape="http://www.inkscape.org/namespaces/inkscape"
   version="1.1"
   id="Layer_1"
   x="0px"
   y="0px"
   width="184.10513"
   height="195.42296"
   viewBox="0 0 184.10513 195.42296"
   enable-background="new 0 0 1440 1440"
   xml:space="preserve"
   inkscape:version="0.91 r13725"
   sodipodi:docname="tortuga-marina.svg"><metadata
     id="metadata771"><rdf:RDF><cc:Work
         rdf:about=""><dc:format>image/svg+xml</dc:format><dc:type
           rdf:resource="http://purl.org/dc/dcmitype/StillImage" /><dc:title></dc:title></cc:Work></rdf:RDF></metadata><defs
     id="defs769" /><sodipodi:namedview
     pagecolor="#ffffff"
     bordercolor="#666666"
     borderopacity="1"
     objecttolerance="10"
     gridtolerance="10"
     guidetolerance="10"
     inkscape:pageopacity="0"
     inkscape:pageshadow="2"
     inkscape:window-width="1920"
     inkscape:window-height="1018"
     id="namedview767"
     showgrid="false"
     fit-margin-top="0"
     fit-margin-left="0"
     fit-margin-right="0"
     fit-margin-bottom="0"
     inkscape:zoom="0.64641035"
     inkscape:cx="-299.1524"
     inkscape:cy="184.90848"
     inkscape:window-x="-8"
     inkscape:window-y="-8"
     inkscape:window-maximized="1"
     inkscape:current-layer="Layer_1" /><g
     id="g547"
     transform="translate(-997.07919,-670.643)"><path
       d="m 1176.638,791.408 c -2.764,-0.706 -16.268,-5.153 -34.177,-4.435 -5.234,0.21 -10.851,0.863 -16.68,2.18 5.792,-13.312 6.753,-27.328 3.548,-39.396 11.442,-8.989 34.737,-30.669 27.342,-53.085 0,0 -4.956,-4.866 -10.931,7.214 -5.975,12.082 -7.537,0.907 -12.954,8.551 -3.954,5.579 -2.918,16.84 -9.189,24.055 -3.99,-6.296 -9.497,-11.427 -16.36,-14.742 -4.636,-2.242 -9.536,-3.483 -14.513,-3.811 3.395,-7.87 11.948,-12.841 14.219,-18.677 3.396,-8.731 -6.79,-3.881 0,-15.522 6.792,-11.642 0,-13.097 0,-13.097 -21.239,5.76 -27.25,33.425 -28.938,48.897 -14.645,4.102 -28.362,15.479 -36.32,31.945 -0.123,0.256 -0.242,0.512 -0.36,0.767 -7.277,-15.89 -20.01,-32.688 -41.912,-36.836 0,0 -3.18,-1.482 -2.116,5.401 0.438,2.844 1.567,17.192 9.798,33.115 5.568,10.771 14.39,22.26 28.444,31.394 1.188,10.925 5.526,20.838 12.597,28.081 -0.983,3.421 -3.591,6.814 -9.572,8.584 -10.65,-0.493 -20.337,5.451 -23.185,15.076 -3.418,11.559 4.322,24.037 17.289,27.87 12.969,3.837 26.25,-2.423 29.669,-13.981 1.464,-4.95 0.875,-10.066 -1.288,-14.602 0.191,-3.845 1.443,-8.959 6.196,-12.162 13.608,3.161 28.442,-1.081 40.452,-10.89 17.734,3.125 53.762,5.845 72.96,-18.164 0,0 2.676,-2.02 -4.019,-3.73 z"
       id="path549"
       inkscape:connector-curvature="0"
       style="fill:#bbda8a" /><g
       id="g551"><path
         d="m 1107.236,721.75 c -22.915,-11.076 -52.264,2.237 -65.553,29.735 -13.289,27.497 -5.486,58.766 17.428,69.84 22.914,11.075 52.264,-2.238 65.554,-29.735 13.288,-27.498 5.485,-58.769 -17.429,-69.84 z m -24.121,2.43 c 9.451,-0.693 20.087,0.147 13.148,14.485 0,0 -5.525,9.901 -11.417,8.14 -5.891,-1.761 -11.186,-21.93 -1.731,-22.625 z m -30.828,17.919 c 5.488,-7.728 12.915,-15.387 19.542,-0.902 0,0 4.107,10.566 -1.004,13.985 -5.111,3.419 -24.026,-5.357 -18.538,-13.083 z m -12.856,36.075 c -0.819,-9.441 -0.117,-20.087 14.311,-13.337 0,0 9.974,5.396 8.289,11.31 -1.683,5.914 -21.782,11.471 -22.6,2.027 z m 23.689,34.637 c -8.801,-3.518 -17.99,-8.935 -5.471,-18.781 0,0 9.308,-6.478 13.831,-2.312 4.523,4.165 0.443,24.612 -8.36,21.093 z m 7.36,-33.073 c -6.117,-12.659 8.656,-31.49 17.224,-25.569 8.567,5.923 16.933,14.405 -0.185,25.574 10e-4,0 -11.279,11.918 -17.039,-0.005 z m 30.499,28.752 c -7.496,5.8 -16.826,10.972 -18.961,-4.813 0,0 -0.861,-11.306 5.021,-13.09 5.885,-1.786 21.438,12.103 13.94,17.903 z m 20.295,-27.109 c -3.323,8.875 -8.54,18.182 -18.658,5.88 0,0 -6.68,-9.161 -2.615,-13.775 4.064,-4.614 24.598,-0.983 21.273,7.895 z m -7.947,-21.068 c 0,0 -11.29,-1.06 -12.056,-7.16 -0.767,-6.101 15.55,-19.083 20.001,-10.716 4.452,8.369 7.972,18.438 -7.945,17.876 z"
         id="path553"
         inkscape:connector-curvature="0"
         style="fill:#01604a" /><path
         d="m 1037.699,847.358 c -1.533,2.552 -1.369,5.498 0.371,6.576 1.734,1.071 4.386,-0.121 5.921,-2.671 1.531,-2.556 1.368,-5.497 -0.371,-6.576 -1.735,-1.078 -4.388,0.122 -5.921,2.671 z"
         id="path555"
         inkscape:connector-curvature="0"
         style="fill:#01604a" /><path
         d="m 1027.2,842.453 c -0.845,2.747 0.017,5.459 1.924,6.048 1.91,0.585 4.144,-1.171 4.988,-3.921 0.849,-2.757 -0.016,-5.464 -1.921,-6.05 -1.91,-0.586 -4.144,1.166 -4.991,3.923 z"
         id="path557"
         inkscape:connector-curvature="0"
         style="fill:#01604a" /><path
         d="m 1030.396,858.41 c -0.824,0.434 -1.237,1.25 -0.919,1.823 0.318,0.572 1.244,0.685 2.069,0.252 0.825,-0.436 1.235,-1.252 0.918,-1.826 -0.318,-0.571 -1.245,-0.681 -2.068,-0.249 z"
         id="path559"
         inkscape:connector-curvature="0"
         style="fill:#01604a" /><path
         d="m 1025.647,855.939 c -0.386,1.033 -0.168,2.068 0.483,2.308 0.653,0.242 1.495,-0.401 1.879,-1.435 0.387,-1.032 0.17,-2.066 -0.483,-2.308 -0.653,-0.238 -1.494,0.401 -1.879,1.435 z"
         id="path561"
         inkscape:connector-curvature="0"
         style="fill:#01604a" /></g></g></svg>
