<?xml version="1.0" encoding="UTF-8" standalone="no"?>
<!-- Generator: Adobe Illustrator 14.0.0, SVG Export Plug-In . SVG Version: 6.00 Build 43363)  -->

<svg
   xmlns:dc="http://purl.org/dc/elements/1.1/"
   xmlns:cc="http://creativecommons.org/ns#"
   xmlns:rdf="http://www.w3.org/1999/02/22-rdf-syntax-ns#"
   xmlns:svg="http://www.w3.org/2000/svg"
   xmlns="http://www.w3.org/2000/svg"
   xmlns:sodipodi="http://sodipodi.sourceforge.net/DTD/sodipodi-0.dtd"
   xmlns:inkscape="http://www.inkscape.org/namespaces/inkscape"
   version="1.1"
   id="Layer_1"
   x="0px"
   y="0px"
   width="158.68663"
   height="225.47388"
   viewBox="0 0 158.68663 225.47388"
   enable-background="new 0 0 1440 1440"
   xml:space="preserve"
   inkscape:version="0.91 r13725"
   sodipodi:docname="serpiente.svg"><metadata
     id="metadata771"><rdf:RDF><cc:Work
         rdf:about=""><dc:format>image/svg+xml</dc:format><dc:type
           rdf:resource="http://purl.org/dc/dcmitype/StillImage" /><dc:title></dc:title></cc:Work></rdf:RDF></metadata><defs
     id="defs769" /><sodipodi:namedview
     pagecolor="#ffffff"
     bordercolor="#666666"
     borderopacity="1"
     objecttolerance="10"
     gridtolerance="10"
     guidetolerance="10"
     inkscape:pageopacity="0"
     inkscape:pageshadow="2"
     inkscape:window-width="1920"
     inkscape:window-height="1018"
     id="namedview767"
     showgrid="false"
     inkscape:zoom="0.64641035"
     inkscape:cx="-810.48067"
     inkscape:cy="189.2534"
     inkscape:window-x="-8"
     inkscape:window-y="-8"
     inkscape:window-maximized="1"
     inkscape:current-layer="Layer_1"
     fit-margin-top="0"
     fit-margin-left="0"
     fit-margin-right="0"
     fit-margin-bottom="0" /><g
     id="g581"
     transform="translate(-1203.6475,-644.937)"><path
       d="m 1336.924,780.756 c -0.153,-20.479 -13.071,-44.847 -24.1,-61.948 3.082,-0.267 6.066,-0.781 8.937,-1.505 3.3,9.857 10.243,22.226 21.026,18.458 0,0 -4.82,-0.187 -8.035,-4.757 0,0 6.258,4.302 9.203,1.793 0,0 -9.471,-0.929 -17.483,-16.915 16.315,-5.743 27.71,-18.756 27.71,-33.9 0,-20.459 -20.787,-37.045 -46.43,-37.045 -21.836,0 -40.146,12.027 -45.102,28.232 l -0.203,-0.141 c -0.302,1.253 -0.529,2.555 -0.691,3.901 -0.283,1.653 -0.434,3.339 -0.434,5.053 0,1.229 0.078,2.444 0.225,3.643 1.83,31.577 28.404,77.03 28.404,77.03 -11.174,-2.509 -26.284,0.287 -39.472,6.035 -0.374,-31.39 -23.704,-41.578 -27.505,-39.36 -3.885,2.264 -0.324,6.47 -0.324,6.47 12.969,20.516 11.158,36.903 9.222,44.285 -3.759,3.275 -6.718,6.817 -8.511,10.481 -13.03,2.382 -16.93,14.891 -16.93,14.891 -16.308,48.533 44.367,60.738 44.367,60.738 84.773,16.826 103.857,-21.048 109.566,-37.533 9.732,-28.098 -19.553,-47.125 -23.44,-47.906 z m -45.74,7.642 c 0,0 -1.467,1.89 -5.139,3.344 -2.912,1.387 -6.619,2.053 -11.344,1.576 -0.597,-0.051 -1.18,-0.125 -1.741,-0.224 -1.471,-0.225 -3.029,-0.55 -4.688,-0.995 0,0 -4.616,-2.771 -1.961,-4.915 1.369,-1.48 5.315,-2.626 13.043,-2.566 0,0 2.113,0.172 4.68,0.522 0.996,0.119 1.905,0.266 2.719,0.422 2.168,0.384 4.264,0.887 5.41,1.512 l -0.979,1.324 z"
       id="path583"
       inkscape:connector-curvature="0"
       style="fill:#92cd8b" /><g
       id="g585"><path
         d="m 1314.15,659.037 c 0.196,4.709 2.967,8.429 6.184,8.292 3.203,-0.14 5.649,-4.065 5.455,-8.778 -0.205,-4.71 -2.965,-8.423 -6.183,-8.29 -3.21,0.133 -5.651,4.067 -5.456,8.776 z"
         id="path587"
         inkscape:connector-curvature="0"
         style="fill:#293b8f" /><path
         d="m 1295.709,666.384 c 1.396,4.623 5.154,7.599 8.387,6.64 3.231,-0.97 4.716,-5.504 3.316,-10.129 -1.403,-4.638 -5.158,-7.604 -8.386,-6.644 -3.231,0.968 -4.721,5.499 -3.317,10.133 z"
         id="path589"
         inkscape:connector-curvature="0"
         style="fill:#293b8f" /><path
         d="m 1334.752,731.004 c 0,0 6.258,4.302 9.203,1.793 0,0 -12.399,-1.209 -20.826,-24.809 5.471,-2.054 9.013,-5.723 9.013,-5.723 0.638,-0.378 0.409,-1.491 0.042,-1.947 -0.37,-0.456 -1.555,-0.361 -1.555,-0.361 0,0 -17.818,19.937 -34.929,-7.652 0,0 -1.353,-0.368 -1.786,0.564 -0.346,0.748 0.486,1.598 0.486,1.598 8.918,13.759 18.164,15.898 25.272,14.507 1.182,8.146 8.736,31.81 23.114,26.787 10e-4,0 -4.819,-0.187 -8.034,-4.757 z"
         id="path591"
         inkscape:connector-curvature="0"
         style="fill:#293b8f" /><path
         d="m 1233.65,815.72 c -5.764,-3.649 -9.272,-7.542 -10.969,-11.502 -0.414,0.126 -0.827,0.279 -1.232,0.476 0,0 -7.406,11.537 -3.988,23.076 0,0 8.905,-11.488 18.127,-10.416 0.313,0.038 0.596,0.05 0.859,0.042 -0.934,-0.529 -1.867,-1.088 -2.797,-1.676 z"
         id="path593"
         inkscape:connector-curvature="0"
         style="fill:#293b8f" /><path
         d="m 1244.602,821.299 c -2.738,3.354 -6.777,10.553 -4.102,21.921 0,0 9.828,-12.999 19.467,-17.931 -5.064,-0.685 -10.221,-1.957 -15.365,-3.99 z"
         id="path595"
         inkscape:connector-curvature="0"
         style="fill:#293b8f" /><path
         d="m 1280.825,825.17 c 5.941,5.529 14.74,16.136 12.788,29.155 0,0 13.508,-16.141 5.452,-33.528 -5.278,1.799 -11.479,3.449 -18.24,4.373 z"
         id="path597"
         inkscape:connector-curvature="0"
         style="fill:#293b8f" /><path
         d="m 1319.525,811.422 c 4.313,3.213 11.311,10.578 10.299,24.072 0,0 10.579,-20.379 2.082,-35.363 -2.771,4.383 -6.806,8.216 -12.381,11.291 z"
         id="path599"
         inkscape:connector-curvature="0"
         style="fill:#293b8f" /><path
         d="m 1336.918,780.756 c 0.025,3.291 -0.275,6.481 -0.97,9.523 3.392,0.527 10.872,2.676 15.605,11.416 0,0 0.896,-5.377 -1.204,-11.122 -5.785,-6.005 -11.821,-9.501 -13.431,-9.817 z"
         id="path601"
         inkscape:connector-curvature="0"
         style="fill:#293b8f" /><path
         d="M 1290.138,762.809"
         id="path603"
         inkscape:connector-curvature="0"
         style="fill:#293b8f" /><path
         d="m 1292.23,787.112 c -0.023,-0.013 -0.045,-0.026 -0.068,-0.038"
         id="path605"
         inkscape:connector-curvature="0"
         style="fill:#293b8f" /><path
         d="m 1285.841,755.193 c 5.218,-5.287 18.944,-11.941 18.944,-11.941 -10.13,-1.762 -19.051,0.844 -23.68,2.668 1.75,3.562 3.372,6.704 4.736,9.273 z"
         id="path607"
         inkscape:connector-curvature="0"
         style="fill:#293b8f" /><path
         d="m 1298.024,727.479 c -11.267,-12.233 -29.292,-12.233 -29.292,-12.233 0,0 -0.108,0.307 -0.258,0.902 1.427,4.092 2.984,8.13 4.589,12.014 8.253,-2.611 24.961,-0.683 24.961,-0.683 z"
         id="path609"
         inkscape:connector-curvature="0"
         style="fill:#293b8f" /><path
         d="m 1253.709,767.502 c 0,0 12.876,3.434 11.374,16.848 0,0 6.471,-12.161 1.884,-21.014 -4.46,0.967 -8.965,2.343 -13.319,4.045 0.021,0.042 0.04,0.08 0.061,0.121 z"
         id="path611"
         inkscape:connector-curvature="0"
         style="fill:#293b8f" /><path
         d="m 1265.883,787.608 c -21.45,-1.899 -22.69,17.021 -22.69,17.021 3.082,-9.882 18.803,-12.946 23.605,-13.659 -0.952,-0.895 -1.853,-2.185 -0.915,-3.362 z"
         id="path613"
         inkscape:connector-curvature="0"
         style="fill:#293b8f" /><path
         d="m 1269.141,792.321 c -4.67,17.206 5.921,25.292 5.921,25.292 0.174,-15.786 4.133,-22.387 5.646,-24.338 -3.183,0.42 -6.996,0.184 -11.567,-0.954 z"
         id="path615"
         inkscape:connector-curvature="0"
         style="fill:#293b8f" /><path
         d="m 1286.945,762.119 c -3.824,-0.519 -8.008,-0.5 -12.35,-0.032 2.007,2.911 4.845,8.559 5.188,17.541 0,0 7.992,-8.071 7.162,-17.509 z"
         id="path617"
         inkscape:connector-curvature="0"
         style="fill:#293b8f" /><path
         d="m 1233.184,771.133 c 8.339,-2.732 9.473,-11.786 9.473,-11.786 -2.551,2.232 -6.443,3.517 -9.724,4.245 0.297,2.748 0.35,5.272 0.251,7.541 z"
         id="path619"
         inkscape:connector-curvature="0"
         style="fill:#293b8f" /><path
         d="m 1239.759,742.607 c -2.806,3.039 -8.834,3.023 -11.926,2.785 1.198,2.66 2.156,5.225 2.91,7.68 10.052,-2.933 9.016,-10.465 9.016,-10.465 z"
         id="path621"
         inkscape:connector-curvature="0"
         style="fill:#293b8f" /><path
         d="m 1294.715,779.639 c 7.529,-5.489 23.111,-8.012 23.111,-8.012 -9,-7.361 -19.738,-3.195 -24.17,-0.912 0.8,2.671 1.34,5.777 1.059,8.924 z m -3.531,8.759 c 0,0 0,0.008 -0.012,0.017 0,0.003 0,0.003 -0.01,0.009 -0.01,0.014 -0.025,0.031 -0.047,0.057 0,0.003 -0.01,0.006 -0.01,0.011 -0.02,0.024 -0.046,0.05 -0.074,0.081 0,0.007 -0.01,0.01 -0.012,0.015 -0.032,0.034 -0.07,0.073 -0.109,0.116 -0.01,0.01 -0.02,0.02 -0.029,0.029 -0.045,0.045 -0.093,0.094 -0.148,0.147 0,0.003 -0.01,0.007 -0.01,0.011 -0.053,0.051 -0.111,0.104 -0.174,0.16 -0.013,0.012 -0.025,0.024 -0.039,0.037 -0.066,0.059 -0.137,0.121 -0.213,0.186 -0.017,0.014 -0.033,0.027 -0.05,0.041 -0.071,0.061 -0.149,0.124 -0.229,0.188 -0.013,0.01 -0.025,0.02 -0.037,0.028 -0.087,0.07 -0.182,0.141 -0.279,0.216 -0.029,0.02 -0.055,0.039 -0.082,0.06 -0.102,0.074 -0.206,0.148 -0.316,0.225 -0.023,0.016 -0.047,0.032 -0.072,0.049 -0.096,0.066 -0.197,0.131 -0.302,0.197 -0.034,0.023 -0.065,0.045 -0.102,0.066 -0.121,0.076 -0.247,0.153 -0.378,0.229 -0.043,0.024 -0.087,0.05 -0.131,0.075 -0.117,0.068 -0.24,0.136 -0.367,0.205 -0.043,0.023 -0.087,0.047 -0.131,0.071 -0.132,0.068 -0.266,0.136 -0.404,0.206 -0.059,0.028 -0.117,0.058 -0.178,0.086 -0.153,0.074 -0.311,0.147 -0.475,0.221 -0.062,0.026 -0.124,0.053 -0.186,0.08 -0.129,0.055 -0.26,0.11 -0.395,0.165 -0.047,0.02 -0.092,0.039 -0.141,0.06 -0.861,0.408 -1.793,0.754 -2.798,1.027 10.235,4.089 19.605,18.404 19.605,18.404 2.658,-13.121 -5.423,-23.078 -9.214,-26.912 -0.563,1.426 -1.364,2.817 -2.453,4.137 z"
         id="path623"
         inkscape:connector-curvature="0"
         style="fill:#293b8f" /></g></g></svg>
