<?xml version="1.0" encoding="UTF-8" standalone="no"?>
<!-- Generator: Adobe Illustrator 14.0.0, SVG Export Plug-In . SVG Version: 6.00 Build 43363)  -->

<svg
   xmlns:dc="http://purl.org/dc/elements/1.1/"
   xmlns:cc="http://creativecommons.org/ns#"
   xmlns:rdf="http://www.w3.org/1999/02/22-rdf-syntax-ns#"
   xmlns:svg="http://www.w3.org/2000/svg"
   xmlns="http://www.w3.org/2000/svg"
   xmlns:sodipodi="http://sodipodi.sourceforge.net/DTD/sodipodi-0.dtd"
   xmlns:inkscape="http://www.inkscape.org/namespaces/inkscape"
   version="1.1"
   id="Layer_1"
   x="0px"
   y="0px"
   width="160.12953"
   height="225.47804"
   viewBox="0 0 160.12953 225.47804"
   enable-background="new 0 0 1440 1440"
   xml:space="preserve"
   inkscape:version="0.91 r13725"
   sodipodi:docname="tigre.svg"><metadata
     id="metadata771"><rdf:RDF><cc:Work
         rdf:about=""><dc:format>image/svg+xml</dc:format><dc:type
           rdf:resource="http://purl.org/dc/dcmitype/StillImage" /><dc:title></dc:title></cc:Work></rdf:RDF></metadata><defs
     id="defs769" /><sodipodi:namedview
     pagecolor="#ffffff"
     bordercolor="#666666"
     borderopacity="1"
     objecttolerance="10"
     gridtolerance="10"
     guidetolerance="10"
     inkscape:pageopacity="0"
     inkscape:pageshadow="2"
     inkscape:window-width="1920"
     inkscape:window-height="1018"
     id="namedview767"
     showgrid="false"
     fit-margin-top="0"
     fit-margin-left="0"
     fit-margin-right="0"
     fit-margin-bottom="0"
     inkscape:zoom="0.64641035"
     inkscape:cx="-500.37269"
     inkscape:cy="-82.015844"
     inkscape:window-x="-8"
     inkscape:window-y="-8"
     inkscape:window-maximized="1"
     inkscape:current-layer="Layer_1" /><g
     id="g625"
     transform="translate(-1198.2995,-373.66359)"><path
       d="m 1351.214,571.15 c 0.046,-0.42 0.083,-0.828 0.128,-1.246 10e-4,0 0,0 0,0.002 0.069,-0.656 0.129,-1.295 0.192,-1.944 0.066,-0.653 0.134,-1.312 0.195,-1.959 0.083,-0.884 0.158,-1.753 0.231,-2.624 0.054,-0.609 0.109,-1.224 0.159,-1.825 0.01,-0.093 0.017,-0.188 0.023,-0.28 0,0 0,0 0,0.002 0.175,-2.21 0.321,-4.366 0.447,-6.485 0,0 0,10e-4 0.01,0.002 0.021,-0.352 0.036,-0.695 0.058,-1.044 0.021,-0.404 0.044,-0.81 0.064,-1.212 0.063,-1.209 0.12,-2.407 0.165,-3.588 0,-0.037 0.01,-0.076 0.01,-0.115 0.048,-1.229 0.084,-2.438 0.114,-3.634 0.01,-0.344 0.015,-0.686 0.023,-1.027 0.01,-0.368 0.018,-0.743 0.023,-1.11 0,0 0,0.002 -0.01,0.004 0.047,-2.734 0.049,-5.385 0.01,-7.954 0,10e-4 0,10e-4 0.01,10e-4 0,-0.245 -0.015,-0.478 -0.02,-0.723 -0.017,-0.969 -0.042,-1.924 -0.07,-2.871 -0.015,-0.438 -0.027,-0.878 -0.043,-1.31 -0.044,-1.149 -0.097,-2.278 -0.156,-3.393 -0.01,-0.155 -0.013,-0.318 -0.021,-0.471 -10e-4,0 -10e-4,0 0,0 -0.111,-1.961 -0.25,-3.861 -0.41,-5.717 0,0 0,10e-4 0.01,10e-4 -0.025,-0.287 -0.053,-0.564 -0.079,-0.847 -0.022,-0.254 -0.046,-0.507 -0.069,-0.759 -0.09,-0.927 -0.182,-1.844 -0.282,-2.745 -0.015,-0.14 -0.031,-0.276 -0.048,-0.416 -0.092,-0.815 -0.19,-1.62 -0.293,-2.413 -0.025,-0.203 -0.051,-0.406 -0.077,-0.606 -0.024,-0.178 -0.046,-0.358 -0.07,-0.535 0,10e-4 0,0.002 -0.01,0.003 -0.317,-2.329 -0.675,-4.563 -1.067,-6.71 0,0 0,0 0.01,0 -0.036,-0.207 -0.077,-0.406 -0.115,-0.61 -0.063,-0.333 -0.126,-0.664 -0.19,-0.992 -0.104,-0.533 -0.21,-1.06 -0.318,-1.581 -0.058,-0.279 -0.114,-0.562 -0.174,-0.838 -0.164,-0.762 -0.33,-1.514 -0.503,-2.251 -0.049,-0.209 -0.1,-0.411 -0.148,-0.617 -0.102,-0.423 -0.202,-0.85 -0.306,-1.265 0,0.001 0,0.003 0,0.005 -0.723,-2.882 -1.511,-5.574 -2.351,-8.083 10e-4,0 0,0 0,0 -0.177,-0.527 -0.355,-1.045 -0.536,-1.556 -0.041,-0.116 -0.082,-0.228 -0.122,-0.344 -0.19,-0.528 -0.382,-1.049 -0.576,-1.561 -0.083,-0.22 -0.167,-0.435 -0.251,-0.651 -0.15,-0.391 -0.303,-0.777 -0.457,-1.158 -0.086,-0.211 -0.171,-0.423 -0.256,-0.631 -0.044,-0.106 -0.087,-0.216 -0.13,-0.319 0,0 0,0.002 0,0.002 -1.361,-3.262 -2.804,-6.151 -4.279,-8.708 0,0 0,-0.001 0.01,-0.001 -0.084,-0.147 -0.171,-0.288 -0.256,-0.434 -0.094,-0.16 -0.188,-0.321 -0.282,-0.479 -0.193,-0.323 -0.387,-0.639 -0.581,-0.951 -0.067,-0.107 -0.134,-0.218 -0.201,-0.325 -0.257,-0.407 -0.514,-0.806 -0.771,-1.195 -0.078,-0.117 -0.156,-0.229 -0.232,-0.344 -0.186,-0.276 -0.371,-0.548 -0.557,-0.814 -0.1,-0.143 -0.198,-0.284 -0.299,-0.424 -0.167,-0.234 -0.333,-0.466 -0.499,-0.692 -0.102,-0.138 -0.201,-0.274 -0.301,-0.409 -0.186,-0.248 -0.372,-0.49 -0.557,-0.73 -0.075,-0.098 -0.151,-0.2 -0.228,-0.296 -0.233,-0.298 -0.467,-0.589 -0.699,-0.874 l -10e-4,10e-4 c -3.644,-4.451 -7.1,-7.176 -9.611,-8.778 7.333,-4.196 12.133,-10.629 12.495,-17.756 0.01,-0.113 0,-0.225 0,-0.339 0,0 0.01,0 0.01,0 0.01,-0.298 0.01,-0.596 0,-0.893 -10e-4,-0.031 0,-0.063 0,-0.095 -0.01,-0.337 -0.03,-0.673 -0.06,-1.007 -0.01,-0.109 -0.02,-0.219 -0.032,-0.329 -0.03,-0.29 -0.068,-0.579 -0.114,-0.868 -0.013,-0.079 -0.021,-0.158 -0.036,-0.236 -0.06,-0.354 -0.134,-0.706 -0.216,-1.057 -0.021,-0.092 -0.048,-0.185 -0.071,-0.277 -0.068,-0.277 -0.146,-0.552 -0.229,-0.827 -0.029,-0.096 -0.058,-0.191 -0.088,-0.287 -0.108,-0.336 -0.223,-0.672 -0.352,-1.003 l 0,0 c -0.308,-0.797 -0.67,-1.581 -1.087,-2.348 0.264,-1.627 0.441,-3.292 0.527,-4.987 0.045,-0.869 0.056,-1.729 0.05,-2.585 0,0 0.01,-0.002 0.01,-0.002 -10e-4,-0.238 -0.013,-0.473 -0.018,-0.709 -0.01,-0.291 -0.011,-0.583 -0.021,-0.873 -0.014,-0.336 -0.036,-0.67 -0.056,-1.004 -0.019,-0.287 -0.033,-0.573 -0.056,-0.858 -0.029,-0.346 -0.066,-0.687 -0.102,-1.029 -0.029,-0.268 -0.053,-0.537 -0.085,-0.802 -0.049,-0.397 -0.108,-0.791 -0.167,-1.184 -0.032,-0.207 -0.056,-0.414 -0.09,-0.619 0,-0.006 0,-0.013 0,-0.02 0,0 0,0 0,0.001 -0.552,-3.346 -1.483,-6.53 -2.729,-9.499 2.373,-1.83 5.007,-7.88 6.234,-13.101 l 10e-4,0.006 c 0.063,-0.262 0.121,-0.522 0.175,-0.779 0,-0.005 0,-0.013 0,-0.019 0.065,-0.306 0.123,-0.605 0.177,-0.902 0.015,-0.085 0.028,-0.169 0.043,-0.253 0.04,-0.234 0.075,-0.465 0.109,-0.691 0.01,-0.073 0.021,-0.145 0.03,-0.217 0.038,-0.289 0.072,-0.572 0.098,-0.847 0,-0.037 0.01,-0.071 0.01,-0.107 0.02,-0.235 0.034,-0.464 0.045,-0.688 0,-0.072 0,-0.142 0.01,-0.213 0.01,-0.203 0.01,-0.4 0,-0.591 -10e-4,-0.048 -10e-4,-0.099 0,-0.146 -0.01,-0.23 -0.023,-0.449 -0.048,-0.657 -0.01,-0.045 -0.013,-0.086 -0.019,-0.131 -0.021,-0.162 -0.049,-0.314 -0.082,-0.46 -0.012,-0.054 -0.023,-0.106 -0.037,-0.158 -0.04,-0.15 -0.085,-0.292 -0.138,-0.422 -0.01,-0.022 -0.016,-0.048 -0.025,-0.069 -0.063,-0.146 -0.136,-0.275 -0.217,-0.392 -0.022,-0.031 -0.047,-0.059 -0.069,-0.087 -0.066,-0.083 -0.137,-0.157 -0.215,-0.221 -0.029,-0.024 -0.058,-0.049 -0.089,-0.07 -0.107,-0.074 -0.221,-0.138 -0.348,-0.177 -0.419,-0.129 -0.835,-0.241 -1.246,-0.343 -0.127,-0.032 -0.252,-0.057 -0.378,-0.085 -0.283,-0.066 -0.566,-0.128 -0.847,-0.182 -0.146,-0.027 -0.289,-0.05 -0.433,-0.075 -0.26,-0.044 -0.517,-0.084 -0.771,-0.119 -0.146,-0.019 -0.289,-0.037 -0.434,-0.053 -0.254,-0.029 -0.507,-0.052 -0.758,-0.072 -0.134,-0.009 -0.269,-0.021 -0.401,-0.029 -0.268,-0.017 -0.53,-0.025 -0.792,-0.031 -0.11,-0.003 -0.222,-0.007 -0.332,-0.008 -0.335,-0.002 -0.664,0.003 -0.99,0.017 -0.032,0.001 -0.065,0.001 -0.099,0.001 -0.364,0.018 -0.725,0.043 -1.076,0.077 -0.079,0.007 -0.152,0.018 -0.229,0.027 -0.267,0.027 -0.532,0.058 -0.792,0.097 -0.033,0.004 -0.067,0.007 -0.1,0.012 0,0 0.011,0.001 0.015,0.002 -5.764,0.852 -9.782,3.818 -11.005,4.828 -3.652,-2.001 -7.695,-3.215 -11.988,-3.433 -2.993,-0.154 -5.912,0.197 -8.709,0.965 -0.85,-1.585 -2.854,-5.097 -5.364,-8.035 l 0,0 c -0.651,-0.761 -1.337,-1.484 -2.046,-2.125 -0.013,-0.012 -0.025,-0.024 -0.039,-0.036 -0.091,-0.082 -0.182,-0.161 -0.273,-0.24 -0.031,-0.026 -0.061,-0.052 -0.09,-0.078 -0.084,-0.07 -0.167,-0.138 -0.251,-0.207 -0.038,-0.032 -0.077,-0.064 -0.116,-0.095 -0.078,-0.062 -0.155,-0.122 -0.232,-0.18 -0.047,-0.036 -0.093,-0.072 -0.139,-0.107 -0.074,-0.055 -0.146,-0.106 -0.221,-0.158 -0.051,-0.036 -0.104,-0.073 -0.154,-0.108 -0.07,-0.05 -0.141,-0.095 -0.213,-0.142 -0.054,-0.035 -0.109,-0.071 -0.162,-0.105 -0.068,-0.044 -0.139,-0.084 -0.209,-0.125 -0.056,-0.036 -0.113,-0.069 -0.17,-0.102 -0.068,-0.038 -0.135,-0.074 -0.203,-0.11 -0.059,-0.032 -0.118,-0.064 -0.178,-0.093 -0.066,-0.034 -0.133,-0.066 -0.199,-0.097 -0.061,-0.029 -0.121,-0.058 -0.183,-0.084 -0.065,-0.029 -0.132,-0.056 -0.197,-0.083 -0.062,-0.025 -0.124,-0.05 -0.186,-0.073 -0.064,-0.025 -0.13,-0.047 -0.194,-0.068 -0.063,-0.022 -0.127,-0.042 -0.189,-0.062 -0.065,-0.019 -0.129,-0.037 -0.191,-0.054 -0.064,-0.017 -0.13,-0.033 -0.195,-0.049 -0.062,-0.014 -0.126,-0.027 -0.188,-0.039 -0.065,-0.013 -0.13,-0.024 -0.196,-0.034 -0.063,-0.009 -0.123,-0.018 -0.187,-0.025 -0.065,-0.007 -0.132,-0.014 -0.198,-0.018 -0.062,-0.005 -0.123,-0.008 -0.184,-0.01 -0.067,-0.002 -0.135,-0.004 -0.201,-0.002 -0.061,0 -0.122,0.001 -0.182,0.004 -0.067,0.003 -0.136,0.009 -0.202,0.016 -0.06,0.005 -0.12,0.012 -0.181,0.02 -0.067,0.009 -0.135,0.022 -0.201,0.036 -0.06,0.01 -0.12,0.021 -0.18,0.035 -0.068,0.015 -0.136,0.034 -0.203,0.054 -0.059,0.016 -0.117,0.033 -0.176,0.052 -0.068,0.022 -0.137,0.049 -0.205,0.074 -0.058,0.022 -0.115,0.043 -0.173,0.068 -0.068,0.029 -0.137,0.063 -0.206,0.097 -0.057,0.027 -0.113,0.053 -0.168,0.083 -0.07,0.038 -0.14,0.079 -0.209,0.12 -0.055,0.033 -0.109,0.064 -0.165,0.099 -0.069,0.046 -0.139,0.095 -0.208,0.146 -0.055,0.038 -0.107,0.075 -0.162,0.116 -0.071,0.054 -0.142,0.114 -0.213,0.172 -0.051,0.043 -0.102,0.083 -0.153,0.129 -0.073,0.064 -0.146,0.137 -0.218,0.207 -0.049,0.046 -0.098,0.09 -0.146,0.139 -0.074,0.077 -0.15,0.161 -0.225,0.245 -0.045,0.048 -0.09,0.094 -0.134,0.145 -0.082,0.095 -0.164,0.198 -0.245,0.3 -0.036,0.046 -0.074,0.089 -0.111,0.137 -0.117,0.153 -0.234,0.313 -0.35,0.483 -0.09,0.128 -0.177,0.27 -0.264,0.42 -0.029,0.048 -0.057,0.103 -0.083,0.154 -0.06,0.106 -0.118,0.213 -0.176,0.33 -0.032,0.067 -0.066,0.138 -0.099,0.207 -0.052,0.109 -0.104,0.219 -0.154,0.333 -0.034,0.081 -0.07,0.165 -0.105,0.249 -0.046,0.112 -0.092,0.226 -0.139,0.343 -0.035,0.093 -0.071,0.188 -0.107,0.286 -0.043,0.116 -0.086,0.234 -0.127,0.354 -0.037,0.104 -0.072,0.208 -0.107,0.316 -0.041,0.122 -0.08,0.246 -0.119,0.372 -0.035,0.111 -0.07,0.222 -0.104,0.336 -0.039,0.133 -0.077,0.268 -0.115,0.402 -0.031,0.113 -0.063,0.223 -0.094,0.337 -0.01,0.033 -0.018,0.065 -0.026,0.099 l 0,-0.007 c -1.572,5.982 -1.9,14.989 1.974,17.422 -3.007,4.019 -5.341,8.775 -6.758,14.029 l 0,0 c -0.156,0.579 -0.3,1.163 -0.433,1.753 -0.045,0.197 -0.082,0.398 -0.124,0.597 -0.085,0.398 -0.169,0.796 -0.242,1.199 -0.046,0.25 -0.084,0.501 -0.126,0.751 -0.061,0.36 -0.12,0.719 -0.172,1.083 -0.037,0.265 -0.068,0.534 -0.102,0.799 -0.03,0.256 -0.068,0.507 -0.095,0.764 0,0 0,0 0.01,0 -0.09,0.845 -0.165,1.694 -0.209,2.556 -0.054,1.039 -0.069,2.068 -0.054,3.089 -2.195,2.582 -3.684,5.499 -4.315,8.636 -0.01,-0.001 -0.01,-0.003 -0.015,-0.005 -0.041,0.21 -0.069,0.424 -0.104,0.637 -0.025,0.155 -0.056,0.309 -0.076,0.465 -0.063,0.463 -0.111,0.93 -0.135,1.402 -0.033,0.65 -0.037,1.291 -0.025,1.925 0,0.101 0,0.203 0.01,0.306 0.018,0.611 0.06,1.214 0.121,1.811 0.01,0.045 0.01,0.092 0.01,0.137 0,0 0,0 0.01,0 0.798,7.199 4.892,13.198 13.739,17.198 -4.137,1.705 -9.001,4.814 -13.205,10.485 0,0 0,-0.002 0,-0.003 -0.284,0.384 -0.565,0.786 -0.844,1.194 -0.079,0.115 -0.155,0.232 -0.233,0.35 -0.262,0.393 -0.521,0.797 -0.775,1.211 -0.061,0.101 -0.124,0.198 -0.185,0.299 -0.296,0.49 -0.585,1 -0.869,1.521 -0.075,0.138 -0.147,0.278 -0.222,0.416 -0.243,0.459 -0.482,0.929 -0.717,1.413 -0.053,0.107 -0.105,0.21 -0.157,0.318 -0.269,0.565 -0.528,1.15 -0.784,1.748 -0.068,0.161 -0.137,0.324 -0.202,0.485 -0.083,0.199 -0.167,0.391 -0.248,0.594 0.01,0.002 0.01,0.003 0.012,0.004 -0.17,0.428 -0.345,0.847 -0.509,1.29 -0.011,0 -0.021,-0.003 -0.035,-0.004 0,0 -0.014,0.077 -0.043,0.221 -0.985,2.718 -1.825,5.765 -2.494,9.144 0,-0.001 -0.01,-0.003 -0.011,-0.003 -0.058,0.295 -0.115,0.59 -0.171,0.89 -0.16,0.49 -0.33,0.992 -0.506,1.501 -0.022,0.066 -0.045,0.129 -0.066,0.196 -0.175,0.498 -0.356,1.007 -0.545,1.52 -0.026,0.069 -0.052,0.139 -0.078,0.206 -0.196,0.531 -0.4,1.069 -0.613,1.611 -0.012,0.029 -0.023,0.056 -0.035,0.084 -0.225,0.57 -0.457,1.145 -0.701,1.724 l 0,0 c -1.775,4.22 -4.063,8.65 -6.951,12.574 -0.338,0.459 -0.685,0.91 -1.039,1.353 -0.051,0.063 -0.101,0.128 -0.15,0.191 -0.36,0.446 -0.729,0.882 -1.105,1.31 -0.06,0.066 -0.119,0.132 -0.179,0.199 -0.365,0.409 -0.737,0.809 -1.119,1.197 -0.028,0.029 -0.055,0.059 -0.083,0.087 -0.393,0.396 -0.795,0.779 -1.205,1.154 -1.916,1.754 -4.021,3.25 -6.334,4.368 -0.762,0.369 -1.507,0.783 -2.238,1.229 0,-0.001 0,-0.004 0,-0.006 -0.04,0.025 -0.079,0.054 -0.121,0.079 -0.278,0.172 -0.555,0.355 -0.829,0.539 -0.148,0.1 -0.299,0.193 -0.445,0.295 -0.318,0.221 -0.631,0.454 -0.942,0.691 -0.099,0.073 -0.198,0.142 -0.296,0.217 -0.286,0.223 -0.567,0.458 -0.848,0.692 0.039,-0.034 0.076,-0.07 0.116,-0.103 -3.771,-0.069 -6.679,4.168 -6.679,4.168 0,0 -4.307,4.984 -9.482,12.342 l 0,-10e-4 c -0.014,0.021 -0.029,0.043 -0.044,0.065 -0.424,0.603 -0.853,1.22 -1.285,1.853 -0.013,0.018 -0.024,0.035 -0.036,0.054 -1.29,1.884 -2.611,3.895 -3.918,5.996 l 0,0 c -0.012,0.017 -0.022,0.035 -0.033,0.053 -0.206,0.331 -0.411,0.665 -0.615,0.999 -0.018,0.028 -0.034,0.056 -0.051,0.083 0,0 0,0 0,10e-4 -1.216,1.992 -2.408,4.058 -3.541,6.166 -0.01,0.013 -0.016,0.025 -0.021,0.038 0,0 0,0 0,10e-4 -0.742,1.384 -1.46,2.787 -2.138,4.198 -10e-4,0 -10e-4,0 -10e-4,0 -0.01,0.014 -0.013,0.029 -0.02,0.043 -0.435,0.904 -0.853,1.812 -1.252,2.723 -0.01,0.02 -0.016,0.037 -0.025,0.056 -0.399,0.914 -0.781,1.829 -1.142,2.744 0,0.006 0,0.015 -0.01,0.021 l 10e-4,0 c -0.64,1.627 -1.208,3.251 -1.69,4.86 0,0 -10e-4,-10e-4 0,-10e-4 -0.011,0.036 -0.02,0.073 -0.031,0.109 -0.141,0.475 -0.273,0.947 -0.398,1.417 -0.02,0.068 -0.037,0.136 -0.055,0.205 -0.127,0.487 -0.247,0.973 -0.355,1.455 -0.01,0.04 -0.02,0.08 -0.027,0.12 -0.229,1.021 -0.416,2.031 -0.559,3.027 0,0.02 -0.01,0.04 -0.01,0.058 0,0 0,0 0,-10e-4 -0.094,0.662 -0.166,1.317 -0.217,1.966 l 0,0 c 0,0.013 0,0.026 0,0.039 -0.041,0.53 -0.068,1.056 -0.08,1.576 0,0.016 0,0.032 0,0.05 -0.011,0.521 -0.01,1.039 0.015,1.549 0,0.004 0,0.008 0,0.012 l 0,0 c 0.099,2.34 0.539,4.553 1.389,6.585 0,0 0,10e-4 0,10e-4 0.01,0.012 0.012,0.022 0.018,0.033 0.211,0.503 0.446,0.996 0.709,1.475 0,0.001 0,0.002 0,0.002 0.267,0.485 0.561,0.957 0.882,1.415 0,0.007 0.01,0.013 0.011,0.019 0,0 0,0 0,-0.002 0.445,0.637 0.948,1.249 1.506,1.833 0,0 0,0 0,0.002 0.013,0.013 0.029,0.026 0.042,0.04 0.343,0.357 0.706,0.702 1.091,1.038 0.013,0.01 0.025,0.021 0.038,0.03 1.202,1.036 2.616,1.967 4.263,2.777 0.012,0.005 0.023,0.013 0.035,0.019 l 0,-10e-4 c 0.953,0.468 1.986,0.895 3.102,1.279 l 0,10e-4 c 0.026,0.009 0.057,0.016 0.082,0.025 0.605,0.207 1.232,0.403 1.887,0.584 0,0 0.01,0.002 0.01,0.002 1.916,0.53 4.049,0.945 6.406,1.237 0,0 0,0 0,0.002 0.038,0.004 0.079,0.007 0.117,0.012 0.676,0.083 1.365,0.155 2.079,0.218 0.021,10e-4 0.042,0.003 0.063,0.005 0.706,0.061 1.437,0.107 2.181,0.147 0.061,0.003 0.116,0.009 0.178,0.012 0,-10e-4 0,-0.003 0,-0.003 1.098,0.055 2.235,0.088 3.416,0.097 0,0 0,10e-4 0,0.002 0.043,0 0.088,0 0.133,0 0.553,0.004 1.115,0 1.688,-0.005 0.061,-10e-4 0.119,-10e-4 0.181,-0.002 0.644,-0.009 1.299,-0.025 1.967,-0.048 0.017,0 0.032,0 0.05,-0.001 0,0 0,0 -10e-4,0 0.942,-0.033 1.911,-0.081 2.901,-0.141 0,10e-4 0,10e-4 0,10e-4 0.043,-0.002 0.087,-0.006 0.13,-0.009 1.768,-0.108 3.613,-0.262 5.538,-0.462 0,0.001 0,0.002 0,0.003 0.068,-0.007 0.139,-0.017 0.207,-0.023 0.672,-0.07 1.354,-0.147 2.045,-0.228 0.091,-0.011 0.178,-0.02 0.269,-0.031 l 0,0 c 0.088,-0.011 0.173,-0.02 0.261,-0.031 0,0 0.988,-0.091 2.572,-0.36 l 0,0 c 0.029,-0.005 0.063,-0.011 0.093,-0.016 0.136,-0.024 0.275,-0.048 0.419,-0.074 0.074,-0.013 0.148,-0.027 0.224,-0.041 0.171,-0.032 0.346,-0.064 0.525,-0.1 0.049,-0.009 0.097,-0.019 0.146,-0.029 0.204,-0.041 0.415,-0.083 0.628,-0.129 0.056,-0.011 0.111,-0.024 0.166,-0.035 0.217,-0.046 0.437,-0.096 0.662,-0.146 0.014,-0.004 0.027,-0.007 0.041,-0.009 l 0,0 c 1.205,-0.277 2.538,-0.627 3.932,-1.069 l 0,0.002 c 0.022,-0.007 0.045,-0.016 0.067,-0.022 0.405,-0.129 0.813,-0.266 1.226,-0.411 0.061,-0.02 0.121,-0.042 0.182,-0.063 0.409,-0.147 0.821,-0.301 1.234,-0.462 0.031,-0.012 0.061,-0.022 0.09,-0.033 0,-0.001 -10e-4,-0.001 -10e-4,-0.001 1.31,-0.519 2.628,-1.121 3.901,-1.82 l 0,10e-4 c 0.013,-0.007 0.023,-0.014 0.036,-0.021 0.4,-0.221 0.796,-0.454 1.187,-0.694 0.051,-0.031 0.102,-0.062 0.151,-0.094 0.382,-0.239 0.758,-0.49 1.126,-0.75 0.027,-0.02 0.057,-0.037 0.086,-0.057 0,0 0,0 0,0 0.081,-0.058 0.163,-0.115 0.242,-0.174 3.542,2.477 9.997,2.382 17.374,2.382 11.188,0 20.256,0.221 20.256,-8.646 0,-1.999 -0.465,-3.911 -1.306,-5.676 5.36,0.784 12.651,1.222 20.12,-0.24 -0.428,1.297 -0.657,2.659 -0.657,4.063 0,8.868 9.069,8.646 20.257,8.646 11.188,0 20.258,0.223 20.258,-8.646 -0.01,-4.936 -2.809,-9.343 -7.215,-12.289 z m -122.408,-45.881 c -0.021,0.022 -0.043,0.045 -0.063,0.067 0.064,-0.07 0.127,-0.14 0.191,-0.21 -0.043,0.047 -0.086,0.095 -0.128,0.143 z m -13.993,33.005 c -0.458,2.99 -0.79,6.067 -0.978,9.212 -1.364,0.399 -2.654,0.918 -3.863,1.529 1.265,-3.409 2.948,-7.063 4.841,-10.741 z m 27.221,33.26 c -0.028,0.003 -0.056,0.005 -0.083,0.008 -5.091,0.482 -10.527,0.311 -15.533,-0.369 8.398,-0.167 14.568,-1.265 14.684,-8.419 5.794,0.54 12.043,0.854 18.27,0.698 -0.083,0.576 -0.128,1.161 -0.132,1.753 -3.599,3.662 -10.054,5.641 -17.206,6.329 z"
       id="path627"
       inkscape:connector-curvature="0"
       style="fill:#f79320" /><g
       id="g629"><path
         d="m 1328.021,384.051 c 2.841,-0.421 6.109,-0.329 9.677,0.768 1.657,0.511 1.573,4.135 0.592,8.297 l -0.497,-2.112 -0.873,1.056 0.215,-2.508 -0.896,1.373 -0.029,-2.296 -1.6,1.072 0.857,-1.93 -2.723,0.857 1.32,-1.864 c 0,0 -3.294,0.271 -3.267,0.165 0.026,-0.107 1.699,-1.518 1.699,-1.518 l -2.821,0.149 c 0,0 2.094,-1.254 2.013,-1.254 -0.079,0.001 -3.667,-0.255 -3.667,-0.255 z"
         id="path631"
         inkscape:connector-curvature="0"
         style="fill:#010101" /><path
         d="m 1329.106,404.884 c 0,0 -4.751,-8.97 -8.642,-11.113 0,0 5.763,-5.296 13.944,-2.781 3.001,0.92 -2.49,16.847 -5.302,13.894 z"
         id="path633"
         inkscape:connector-curvature="0"
         style="fill:#010101" /><path
         d="m 1277.151,381.178 c 0.51,-1.942 1.148,-3.564 1.819,-4.538 3.773,-5.496 8.406,-2.467 12.001,1.739 l -1.828,-0.688 0.164,1.682 -2.343,-1.671 0.462,2.034 -2.409,-2.013 0.133,1.815 -2.408,-2.541 -0.199,2.772 -1.055,-2.079 -1.188,3.299 -0.56,-1.748 -1.518,3.464 -0.101,-3.267 -0.97,1.74 z"
         id="path635"
         inkscape:connector-curvature="0"
         style="fill:#010101" /><path
         d="m 1281.652,397.409 c 0,0 6.299,-6.36 10.806,-7.603 0,0 -7.097,-16.002 -12.136,-7.199 -2.042,3.565 -3.433,13.738 1.33,14.802 z"
         id="path637"
         inkscape:connector-curvature="0"
         style="fill:#010101" /><path
         d="M 1273.892,578.366"
         id="path639"
         inkscape:connector-curvature="0"
         style="fill:#010101" /><path
         d="m 1306.88,404.042 c 0.116,2.759 1.727,4.936 3.597,4.857 1.865,-0.083 3.289,-2.381 3.176,-5.141 -0.119,-2.761 -1.725,-4.934 -3.598,-4.856 -1.869,0.077 -3.29,2.382 -3.175,5.14 z"
         id="path641"
         inkscape:connector-curvature="0"
         style="fill:#010101" /><path
         d="m 1291.645,404.38 c 0.814,2.706 3.002,4.449 4.882,3.888 1.88,-0.567 2.745,-3.224 1.931,-5.933 -0.816,-2.716 -3.004,-4.455 -4.881,-3.891 -1.881,0.567 -2.747,3.22 -1.932,5.936 z"
         id="path643"
         inkscape:connector-curvature="0"
         style="fill:#010101" /><path
         d="m 1262.206,577.18 c -0.161,-2.368 -1.025,-5.065 -2.747,-8.116 0,0 -1.502,-2.248 1.019,-3.855 2.519,-1.607 4.406,0.896 4.406,0.896 2.422,4.259 3.643,7.96 3.966,11.173 l -1.459,-0.31 -0.668,-1.902 -0.052,1.851 -0.976,0.103 -0.721,-2.262 0,2.21 -1.079,0.206 -0.667,-2.93 -0.154,3.032 -0.868,-0.096"
         id="path645"
         inkscape:connector-curvature="0"
         style="fill:#010101" /><path
         d="m 1310.311,425.386 c 0,0 0.565,-7.402 -0.771,-11.257 0,0 0.874,12.13 -0.154,12.337"
         id="path647"
         inkscape:connector-curvature="0"
         style="fill:#010101" /><path
         d="m 1351.584,578.298 c 4.633,5.557 3.663,10.834 4.348,9.729 1.049,-5.553 -3.09,-9.82 -4.348,-9.729 z"
         id="path649"
         inkscape:connector-curvature="0"
         style="fill:#010101" /><path
         d="m 1330.027,590.774 c 0.935,0.9 -2.413,-5.764 1.812,-10.508 -1.239,0.225 -5.672,5.267 -1.812,10.508 z"
         id="path651"
         inkscape:connector-curvature="0"
         style="fill:#010101" /><path
         d="m 1343.224,580.403 c 0,0 2.525,4.698 1.244,10.589 0,0 1.789,1.045 1.405,-4.791 -0.401,-6.06 -3.367,-7.611 -2.649,-5.798 z"
         id="path653"
         inkscape:connector-curvature="0"
         style="fill:#010101" /><path
         d="m 1292.396,580.832 c 4.168,5.915 2.777,11.096 3.547,10.05 1.373,-5.45 -2.287,-10.037 -3.547,-10.05 z"
         id="path655"
         inkscape:connector-curvature="0"
         style="fill:#010101" /><path
         d="m 1272.255,591.898 c 0.958,0.968 -2.694,-5.903 3.042,-10.348 -1.408,0.131 -6.846,4.832 -3.042,10.348 z"
         id="path657"
         inkscape:connector-curvature="0"
         style="fill:#010101" /><path
         d="m 1284.171,581.976 c 0,0 2.14,4.888 0.388,10.654 0,0 1.524,1.046 1.611,-4.803 0.091,-6.073 -2.567,-7.718 -1.999,-5.851 z"
         id="path659"
         inkscape:connector-curvature="0"
         style="fill:#010101" /><path
         d="m 1234.434,578.194 c 4.633,5.559 3.664,10.834 4.35,9.73 0.927,-5.543 -3.093,-9.819 -4.35,-9.73 z"
         id="path661"
         inkscape:connector-curvature="0"
         style="fill:#010101" /><path
         d="m 1219.345,590.031 c 0.935,0.9 -2.907,-5.701 1.812,-10.508 -1.241,0.226 -5.673,5.267 -1.812,10.508 z"
         id="path663"
         inkscape:connector-curvature="0"
         style="fill:#010101" /><path
         d="m 1227.954,579.719 c 0,0 2.526,4.698 1.244,10.589 0,0 1.518,0.999 1.133,-4.838 -0.4,-6.061 -3.095,-7.566 -2.377,-5.751 z"
         id="path665"
         inkscape:connector-curvature="0"
         style="fill:#010101" /><path
         d="m 1320.919,445.503 c -0.14,1.306 -1.354,3.134 -3.938,3.759 -2.706,0.652 -12.337,0.886 -14.82,-4.458 0,0 -1.125,-7.268 -0.653,-10.588 1.415,-0.408 6.448,-2.609 8.139,-6.33 1.884,-4.144 0.377,-4.331 -9.224,-5.459 -9.603,-1.13 -1.695,9.977 -1.695,9.977 0,0 1.372,1.371 2.125,1.772 -0.097,1.188 -0.239,4.651 0.606,10.628 0,0 -1.552,5.766 -6.413,5.807 -12.195,0.103 -11.966,-6.831 -12.104,-7.67 -0.142,-0.84 -0.835,-0.019 -0.835,-0.019 0,0 -1.812,8.726 13.17,8.615 5.128,-0.04 6.604,-5.056 6.604,-5.056 0,0 2.789,3.326 7.352,3.822 14.507,1.573 12.568,-5.397 12.568,-5.397 0,0 -0.743,-0.709 -0.882,0.597 z"
         id="path667"
         inkscape:connector-curvature="0"
         style="fill:#010101" /><path
         d="m 1295.714,424.614 c 0,0 0.308,-5.859 2.003,-10.075 0,0 -1.9,8.79 -1.079,9.51"
         id="path669"
         inkscape:connector-curvature="0"
         style="fill:#010101" /><path
         d="m 1337.084,439.606 c 0.072,-2.365 -0.349,-4.675 -1.199,-6.878 -4.981,1.555 -12.057,3.247 -18.358,2.84 -10e-4,0 10.981,4.444 19.557,4.038 z"
         id="path671"
         inkscape:connector-curvature="0"
         style="fill:#010101" /><path
         d="m 1243.83,514.333 c 9.885,3.479 22.331,3.479 22.331,3.479 -8.041,-2.449 -13.632,-5.942 -17.285,-9.139 -1.513,2.059 -3.19,3.982 -5.046,5.66 z"
         id="path673"
         inkscape:connector-curvature="0"
         style="fill:#010101" /><path
         d="m 1285.427,476.774 c -9.643,0.742 -15.424,-4.075 -18.6,-8.568 -1.931,2.605 -3.722,5.752 -5.236,9.55 15.259,6.296 23.836,-0.982 23.836,-0.982 z"
         id="path675"
         inkscape:connector-curvature="0"
         style="fill:#010101" /><path
         d="m 1258.511,488.408 c -0.058,0.295 -0.115,0.59 -0.171,0.89 -0.694,2.125 -1.538,4.449 -2.545,6.842 11.985,-0.046 24.881,-5.511 24.881,-5.511 -5.817,1.502 -14.569,-0.11 -22.165,-2.221 z"
         id="path677"
         inkscape:connector-curvature="0"
         style="fill:#010101" /><path
         d="m 1235.388,519.795 c -3.574,2.179 -6.769,5.264 -9.535,9.065 16.12,14.838 29.305,8.559 29.305,8.559 -11.044,-1.779 -17.039,-11.494 -19.77,-17.624 z"
         id="path679"
         inkscape:connector-curvature="0"
         style="fill:#010101" /><path
         d="m 1217.968,544.834 c -1.369,4.188 -2.43,8.696 -3.157,13.43 14.346,2.301 31.637,-3.159 31.637,-3.159 -10.899,1.6 -21.316,-4.481 -28.48,-10.271 z"
         id="path681"
         inkscape:connector-curvature="0"
         style="fill:#010101" /><path
         d="m 1271.077,419.567 c 6.923,0.4 13.58,-0.305 13.58,-0.305 -5.394,-2.377 -9.364,-4.62 -12.287,-6.641 -0.602,2.234 -1.038,4.555 -1.293,6.946 z"
         id="path683"
         inkscape:connector-curvature="0"
         style="fill:#010101" /><path
         d="m 1280.28,435.209 c -5.522,1.104 -10.128,0.235 -13.788,-1.365 -0.165,0.819 -0.271,1.654 -0.314,2.504 -0.073,1.432 -0.039,2.826 0.111,4.179 10.078,-0.754 13.991,-5.318 13.991,-5.318 z"
         id="path685"
         inkscape:connector-curvature="0"
         style="fill:#010101" /><path
         d="m 1318.045,424.189 c 0,0 9.672,0.461 17.337,-1.384 -0.013,-2.424 -0.217,-4.798 -0.598,-7.098 -4.984,3.279 -12.504,7.831 -16.739,8.482 z"
         id="path687"
         inkscape:connector-curvature="0"
         style="fill:#010101" /><path
         d="m 1281.889,541.542 c -4.77,-0.14 -10.133,-0.87 -14.005,-4.232 l 0.197,6.267 c 9.098,2.281 13.808,-2.035 13.808,-2.035 z"
         id="path689"
         inkscape:connector-curvature="0"
         style="fill:#010101" /><path
         d="m 1284.668,507.93 c -8.349,-0.534 -17.959,-7.88 -17.959,-7.88 l 0.381,7.86 0.086,2.198 c 6.687,0.237 17.492,-2.178 17.492,-2.178 z"
         id="path691"
         inkscape:connector-curvature="0"
         style="fill:#010101" /><path
         d="m 1267.353,522.27 0.163,7.197 c 12.834,0.897 16.584,-3.68 16.584,-3.68 -7.552,1.125 -12.73,-0.458 -16.747,-3.517 z"
         id="path693"
         inkscape:connector-curvature="0"
         style="fill:#010101" /><path
         d="m 1268.016,554.918 0.563,8.03 c 8.786,2.105 13.706,-0.688 13.706,-0.688 -5.849,-0.647 -10.144,-4.278 -14.269,-7.342 z"
         id="path695"
         inkscape:connector-curvature="0"
         style="fill:#010101" /><path
         d="m 1334.345,506.136 c -0.093,0.003 -0.186,0.006 -0.279,0.006 -10e-4,10e-4 0.096,-0.002 0.279,-0.006 z m 1.7,11.485 c 0,0 7.387,2.138 16.303,3.01 -0.251,-2.897 -0.559,-5.669 -0.919,-8.32 -5.091,2.929 -10.881,5.484 -15.384,5.31 z m 12.562,-20.17 c -4.121,4.383 -9.306,8.534 -14.263,8.685 1.521,-0.025 8.988,-0.168 16.018,-0.532 -0.524,-2.876 -1.113,-5.59 -1.755,-8.153 z m -11.375,66.486 c 0,0 7.044,3.952 14.114,5.97 0.313,-2.953 0.578,-5.829 0.802,-8.633 -5.622,2.097 -11.756,3.777 -14.916,2.663 z m -1.584,-32.856 c 0,0 8.791,2.532 17.415,4.033 -0.046,-3.034 -0.152,-5.956 -0.311,-8.767 -6.026,2.63 -13.007,5.124 -17.104,4.734 z m -0.395,15.834 c 0,0 8.668,5.214 17.348,7.878 0.242,-4.07 0.39,-7.978 0.454,-11.73 -6.43,2.836 -13.572,5.142 -17.802,3.852 z m 11.004,-57.542 c -0.739,-2.21 -1.521,-4.282 -2.328,-6.22 -2.707,2.575 -7.23,4.598 -14.614,5.174 -10e-4,10e-4 7.563,1.945 16.942,1.046 z"
         id="path697"
         inkscape:connector-curvature="0"
         style="fill:#010101" /><path
         d="m 1339.651,474.446 c -1.805,-3.129 -3.657,-5.76 -5.463,-7.967 -3.464,2.991 -9.614,7.495 -15.765,8.02 10e-4,-0.001 12.546,1.882 21.228,-0.053 z"
         id="path699"
         inkscape:connector-curvature="0"
         style="fill:#010101" /><path
         d="m 1215.18,588.908 c -2.141,2.964 -3.23,5.701 -3.775,7.885 1.262,0.435 2.626,0.814 4.104,1.133 -0.882,-4.191 -0.329,-9.018 -0.329,-9.018 z m 12.64,10.227 c 1.289,0.01 2.627,-0.009 4.018,-0.057 -0.947,-3.292 -1.48,-6.473 -1.48,-6.473 -1.762,2.405 -2.39,4.628 -2.538,6.53 z m 19.096,-8.3 c -1.242,1.497 -1.363,4.376 -1.156,6.961 0.824,-0.139 1.811,-0.328 2.904,-0.58 -0.666,-2.574 -0.942,-5.435 -1.029,-6.529 -0.237,0.051 -0.477,0.099 -0.719,0.148 z m -33.768,-48.148 c 1.869,1.81 3.153,3.395 3.153,3.395 0.388,-2.614 0.091,-5.171 -0.44,-7.366 -0.883,1.257 -1.795,2.586 -2.713,3.971 z m -2.57,3.995 c -0.234,0.377 -0.467,0.754 -0.699,1.135 1.632,1.799 2.793,3.214 2.793,3.214 0.09,-0.54 -0.834,-2.283 -2.094,-4.349 z m 31.161,44.881 c -1.372,2.33 -1.563,4.75 -1.333,6.905 0.826,-0.084 1.666,-0.179 2.521,-0.282 -0.655,-2.627 -0.831,-5.556 -0.874,-6.655 -0.106,0.011 -0.209,0.022 -0.314,0.032 z m 17.556,1.773 c 0.891,-0.488 1.759,-1.026 2.586,-1.616 -2.842,-1.627 -5.457,-3.538 -5.457,-3.538 0.338,1.977 1.572,3.76 2.871,5.154 z m -7.82,-3.108 c 0.239,2.568 0.647,4.486 1.121,5.921 0.915,-0.29 1.854,-0.618 2.799,-0.992 -2.309,-2.139 -3.92,-4.929 -3.92,-4.929 z m -16.326,1.585 c -0.427,2.242 -0.494,4.801 -0.411,7.125 0.805,-0.048 1.626,-0.106 2.464,-0.173 -1.052,-3.111 -1.831,-6.272 -1.995,-6.952 -0.019,0 -0.038,0 -0.058,0 z m -32.313,-0.201 c 1.43,1.495 3.236,2.809 5.469,3.902 0.041,-4.528 3.576,-8.189 3.576,-8.189 -4.515,-0.219 -7.382,2.133 -9.045,4.287 z m 16.951,7.033 c 1.452,0.181 2.989,0.313 4.617,0.395 -0.656,-3.602 -0.909,-7.36 -0.909,-7.36 -2.12,1.746 -3.179,4.521 -3.708,6.965 z m -21.399,-21.622 c -0.087,1.098 -0.111,2.174 -0.067,3.226 3.514,-2.193 8.016,-2.725 8.016,-2.725 -2.163,-1.08 -5.59,-0.849 -7.949,-0.501 z m 62.258,9.311 c 1.734,1.305 3.219,2.091 4.475,2.533 0.708,-0.786 1.344,-1.636 1.883,-2.557 -3.515,0.053 -6.358,0.024 -6.358,0.024 z m -60.607,-17.667 c -0.65,2.17 -1.143,4.31 -1.436,6.392 3.315,-2.149 7.205,-2.913 7.205,-2.913 -2.066,-1.726 -4.146,-2.812 -5.769,-3.479 z m 11.775,-9.255 c -0.252,-2.21 -1.885,-5.302 -3.859,-8.34 -0.558,0.971 -1.105,1.955 -1.639,2.95 2.83,2.617 5.498,5.39 5.498,5.39 z m -4.421,9.336 c -0.41,-2.989 -1.783,-6.965 -3.215,-10.527 -0.89,1.854 -1.715,3.721 -2.447,5.588 3.013,2.164 5.662,4.939 5.662,4.939 z m -0.661,13.957 c -3.877,-0.172 -6.011,2.355 -7.025,4.131 0.432,1.031 0.969,2.013 1.621,2.943 1.725,-3.628 5.404,-7.074 5.404,-7.074 z"
         id="path701"
         inkscape:connector-curvature="0"
         style="fill:#010101" /></g></g></svg>
