<svg xmlns="http://www.w3.org/2000/svg" viewBox="0 0 140 190" version="1">
  <path fill-opacity=".5" d="M21 5h103c8.86 0 16 7.14 16 16v153c0 8.86-7.14 16-16 16H21c-8.86 0-16-7.14-16-16V21c0-8.86 7.14-16 16-16z"/>
  <path fill="#e7e7e7" d="M17 1h103c8.86 0 16 7.14 16 16v153c0 8.86-7.14 16-16 16H17c-8.86 0-16-7.14-16-16V17C1 8.14 8.14 1 17 1z"/>
  <path fill="#c7891f" d="M19 3h103c8.86 0 16 7.14 16 16v153c0 8.86-7.14 16-16 16H19c-8.86 0-16-7.14-16-16V19c0-8.86 7.14-16 16-16z"/>
  <path fill="#fff" d="M18 2h103c8.86 0 16 7.14 16 16v153c0 8.86-7.14 16-16 16H18c-8.86 0-16-7.14-16-16V18C2 9.14 9.14 2 18 2z"/>
  <path fill="red" d="M18.8 36.3h10.92V42H11.7v-5.7l9.04-9.65c.8-.9 1.4-1.75 1.8-2.6.4-.85.58-1.73.58-2.63 0-1.4-.4-2.54-1.18-3.4s-1.8-1.28-3.1-1.28c-1 0-2.1.26-3.28.78-1.18.5-2.45 1.27-3.8 2.28v-6.58c1.44-.57 2.86-1 4.26-1.3 1.4-.32 2.8-.47 4.14-.47 2.98 0 5.28.8 6.9 2.37 1.67 1.6 2.5 3.8 2.5 6.6 0 1.65-.36 3.18-1.06 4.6-.7 1.4-2.16 3.3-4.4 5.66l-5.3 5.62m101.32 116.14h-10.9v-5.68h18v5.68l-9.05 9.67c-.8.9-1.4 1.78-1.8 2.6-.38.86-.57 1.74-.57 2.65 0 1.4.4 2.54 1.18 3.4.78.86 1.8 1.3 3.1 1.3 1 0 2.1-.28 3.28-.8 1.2-.5 2.45-1.27 3.8-2.3v6.6c-1.44.58-2.86 1-4.27 1.3-1.4.32-2.8.47-4.16.47-2.97 0-5.27-.8-6.92-2.36-1.64-1.58-2.47-3.8-2.47-6.6 0-1.65.35-3.17 1.05-4.6.7-1.4 2.17-3.3 4.4-5.66l5.3-5.63"/>
  <path fill="red" fill-rule="evenodd" d="M20.4 48.66c-4.12 8.25-7.12 12.5-13.33 17.05 5.87 4.5 10 9.15 13.46 16.64 3.08-7.12 6.85-12.42 13.4-16.84-6.6-3.36-10.4-8.66-13.52-16.83zm48.37 1.56c-2.4 4.84-4.16 7.34-7.77 10 3.42 2.65 5.83 5.37 7.84 9.78 1.8-4.18 4-7.3 7.8-9.9-3.83-1.97-6.05-5.08-7.87-9.88zM68.13 117c-2.4 4.85-4.16 7.34-7.77 10 3.42 2.65 5.83 5.38 7.84 9.78 1.8-4.18 4-7.3 7.8-9.9-3.83-1.97-6.05-5.08-7.87-9.88zm50.2-10.66c-4.12 8.25-7.12 12.5-13.33 17.04 5.87 4.5 10 9.12 13.46 16.62 3.08-7.12 6.85-12.43 13.4-16.84-6.6-3.35-10.4-8.66-13.52-16.82z"/>
</svg>
