<?xml version="1.0" encoding="UTF-8" standalone="no"?>
<!-- Generator: Adobe Illustrator 14.0.0, SVG Export Plug-In . SVG Version: 6.00 Build 43363)  -->

<svg
   xmlns:dc="http://purl.org/dc/elements/1.1/"
   xmlns:cc="http://creativecommons.org/ns#"
   xmlns:rdf="http://www.w3.org/1999/02/22-rdf-syntax-ns#"
   xmlns:svg="http://www.w3.org/2000/svg"
   xmlns="http://www.w3.org/2000/svg"
   xmlns:sodipodi="http://sodipodi.sourceforge.net/DTD/sodipodi-0.dtd"
   xmlns:inkscape="http://www.inkscape.org/namespaces/inkscape"
   version="1.1"
   id="Layer_1"
   x="0px"
   y="0px"
   width="203.20215"
   height="323.78745"
   viewBox="0 0 203.20215 323.78745"
   enable-background="new 0 0 1440 1440"
   xml:space="preserve"
   inkscape:version="0.91 r13725"
   sodipodi:docname="jirafa.svg"><metadata
     id="metadata771"><rdf:RDF><cc:Work
         rdf:about=""><dc:format>image/svg+xml</dc:format><dc:type
           rdf:resource="http://purl.org/dc/dcmitype/StillImage" /><dc:title></dc:title></cc:Work></rdf:RDF></metadata><defs
     id="defs769" /><sodipodi:namedview
     pagecolor="#ffffff"
     bordercolor="#666666"
     borderopacity="1"
     objecttolerance="10"
     gridtolerance="10"
     guidetolerance="10"
     inkscape:pageopacity="0"
     inkscape:pageshadow="2"
     inkscape:window-width="1920"
     inkscape:window-height="1018"
     id="namedview767"
     showgrid="false"
     fit-margin-top="0"
     fit-margin-left="0"
     fit-margin-right="0"
     fit-margin-bottom="0"
     inkscape:zoom="0.64641035"
     inkscape:cx="671.37479"
     inkscape:cy="-58.359477"
     inkscape:window-x="-8"
     inkscape:window-y="-8"
     inkscape:window-maximized="1"
     inkscape:current-layer="Layer_1" /><g
     id="g265"
     transform="translate(-26.552,-299.01056)"><path
       d="m 214.829,326.863 c -2.01,-1.344 -4.076,-2.474 -6.151,-3.395 9.16,-3.958 7.126,-15.004 7.126,-15.004 -8.324,-2.214 -13.541,6.881 -15.878,12.379 -0.5,-0.079 -0.995,-0.142 -1.488,-0.195 l 2.282,-15.063 c 0,0 0.829,-0.147 1.692,-3.087 0.954,-3.257 -4.317,-4.715 -7.397,-2.249 -3.082,2.466 1.486,5.654 1.486,5.654 l -0.808,14.585 c -2.082,-0.012 -4.057,0.234 -5.872,0.729 l -1.97,-14.541 c 0,0 0.754,-0.383 0.754,-3.451 0,-3.398 -5.461,-3.261 -7.721,0 -2.259,3.26 3.013,4.986 3.013,4.986 l 3.266,13.967 c -0.154,0.071 -0.308,0.144 -0.457,0.219 -2.552,-4.776 -7.947,-12.108 -16.397,-10.254 0,0 -1.315,5.907 2.792,10.091 l -0.663,3.051 4.181,2.572 -4.824,-0.643 0.322,4.824 4.502,0 -4.502,1.93 -0.322,5.467 4.824,-0.965 -4.502,2.895 0,5.145 2.733,-0.804 -3.055,3.055 -0.321,5.146 2.894,0.321 -2.573,1.286 -0.321,5.146 2.572,-0.322 -2.572,1.93 -0.805,5.789 2.09,0.643 -1.929,0.805 -0.321,8.04 2.412,-0.482 -2.573,2.251 0,6.432 1.286,0.482 -0.804,0.804 -0.966,7.396 1.93,0.644 -1.607,0.482 c 0,0 -0.797,15.926 -1.718,27.773 -3.186,17.893 -7.019,34.415 -11.447,44.815 l -58.552,2.987 c -0.604,-0.095 -1.199,-0.163 -1.79,-0.218 -0.18,-0.017 -0.357,-0.027 -0.536,-0.041 -0.423,-0.03 -0.843,-0.052 -1.258,-0.063 -0.184,-0.005 -0.368,-0.01 -0.55,-0.011 -0.473,-0.003 -0.941,0.007 -1.404,0.03 -0.098,0.005 -0.197,0.005 -0.293,0.011 -0.56,0.035 -1.112,0.09 -1.656,0.162 -0.128,0.018 -0.253,0.041 -0.381,0.06 -0.421,0.063 -0.837,0.137 -1.249,0.222 -0.154,0.032 -0.306,0.065 -0.457,0.1 -0.419,0.096 -0.833,0.204 -1.24,0.323 -0.104,0.03 -0.209,0.058 -0.312,0.089 -0.52,0.159 -1.03,0.336 -1.53,0.534 -0.033,0.013 -0.063,0.029 -0.096,0.041 -0.459,0.184 -0.909,0.384 -1.352,0.599 -0.104,0.05 -0.208,0.103 -0.312,0.156 -0.393,0.198 -0.778,0.408 -1.156,0.629 -0.081,0.047 -0.162,0.093 -0.243,0.141 -0.922,0.558 -1.8,1.186 -2.631,1.88 -0.052,0.043 -0.102,0.088 -0.153,0.132 -0.368,0.313 -0.726,0.639 -1.075,0.979 -0.054,0.053 -0.109,0.105 -0.163,0.159 -0.792,0.787 -1.536,1.639 -2.224,2.557 -0.004,0.004 -0.007,0.009 -0.011,0.014 -0.332,0.443 -0.648,0.903 -0.955,1.375 -0.037,0.058 -0.074,0.115 -0.11,0.173 -0.302,0.474 -0.593,0.959 -0.869,1.461 -0.003,0.006 -0.007,0.01 -0.009,0.016 -10.622,16.404 -20.113,33.939 -39.479,41.6 l -0.169,-0.385 -7.213,-1.955 -0.2,3.138 2.488,0.484 -3.33,1.195 0.082,0.968 0.47,1.272 3.228,-1.001 -3.336,1.477 2.702,2.835 2.78,-3.156 -1.277,2.029 2.855,1.729 2.23,-4.598 c 0.104,-0.037 0.203,-0.065 0.311,-0.118 16.232,-6.653 24.303,-16.079 33.437,-29.83 0.22,0.023 0.446,0.065 0.455,1.428 0,10.861 5.037,20.54 12.895,26.847 -1.131,28.096 -3.801,87.286 -3.888,89.202 l -0.003,0 -0.161,3.215 14.312,-0.053 -0.644,-3.16 -0.015,0 c -4.134,-11.585 -2.6,-59.394 -1.472,-84.339 2.333,0.986 4.799,1.712 7.361,2.165 1.691,28.121 2.552,81.674 2.58,83.461 l 0,0 0,0.002 c 0,0.03 0,0.046 0,0.046 l 0.003,0 0.226,2.9 11.899,-0.858 c 0,0 -0.429,-3.271 -0.644,-3.377 l -0.02,0.002 c -4.853,-10.539 -6.278,-55.904 -6.696,-81.639 l 57.852,0 c 1.783,0 3.472,-0.136 5.069,-0.398 -1.054,28.13 -3.383,84.058 -3.459,85.895 l -0.003,0 -0.562,3.135 13.427,-0.371 -0.644,-2.764 -0.014,0 c -4.06,-12.33 -2.078,-66.507 -1.081,-88.442 1.608,-0.857 3.08,-1.882 4.411,-3.064 1.622,25.882 2.448,86.989 2.474,88.934 l 0,0 -0.242,3.295 10.855,-0.161 -0.965,-4.422 -0.017,0.002 c -5.092,-13.163 -5.69,-80.659 -5.762,-96.367 2.607,-5.579 3.85,-12.362 3.85,-19.684 -0.002,-0.014 -0.004,-0.028 -0.006,-0.043 l 0.006,0.003 c -0.009,-0.042 -0.017,-0.086 -0.025,-0.13 -0.353,-2.401 -0.729,-4.653 -1.139,-6.762 -5.378,-39.046 2.673,-111.27 5.531,-134.443 12.361,7.568 26.352,7.292 31.795,-0.851 5.65,-8.452 -0.055,-22.181 -12.744,-30.664 z"
       id="path267"
       inkscape:connector-curvature="0"
       style="fill:#ffd54f" /><g
       id="g269"><g
         id="g271"><path
           d="m 170.186,395.557 c 0,0 -0.797,15.926 -1.718,27.773 6.877,-38.621 10.739,-83.64 11.051,-87.352 -0.323,-3.357 0.333,-6.52 2.102,-9.166 0.165,-0.245 0.337,-0.482 0.517,-0.714 -4.425,-0.534 -7.245,-2.035 -9.039,-3.862 l -0.663,3.051 4.181,2.572 -4.824,-0.643 0.322,4.825 4.502,0 -4.502,1.929 -0.322,5.467 4.824,-0.965 -4.502,2.895 0,5.145 2.733,-0.804 -3.055,3.055 -0.321,5.146 2.894,0.321 -2.573,1.286 -0.321,5.146 2.572,-0.322 -2.572,1.93 -0.805,5.789 2.09,0.643 -1.929,0.804 -0.321,8.04 2.412,-0.482 -2.573,2.251 0,6.432 1.286,0.482 -0.804,0.804 -0.966,7.396 1.93,0.644 -1.606,0.484 z"
           id="path273"
           inkscape:connector-curvature="0"
           style="fill:#3c2517" /></g><g
         id="g275"><path
           d="m 143.139,487.73 c -6.557,7.383 -7.801,16.981 -2.78,21.44 5.021,4.459 14.407,2.087 20.962,-5.295 6.558,-7.383 7.802,-16.983 2.781,-21.442 -5.021,-4.457 -14.406,-2.088 -20.963,5.297 z"
           id="path277"
           inkscape:connector-curvature="0"
           style="fill:#3c2517" /></g><g
         id="g279"><path
           d="m 187.57,521.211 c -0.003,-0.646 -0.006,-1.242 -0.009,-1.773 2.607,-5.579 3.85,-12.362 3.85,-19.684 -0.002,-0.014 -0.004,-0.028 -0.006,-0.043 l 0.006,0.003 c -0.009,-0.042 -0.017,-0.086 -0.025,-0.13 -0.353,-2.401 -0.729,-4.653 -1.139,-6.762 -0.075,-0.546 -0.146,-1.101 -0.217,-1.659 -0.535,-0.045 -1.076,-0.057 -1.621,0.004 -6.178,0.69 -10.418,8.119 -9.469,16.592 0.722,6.462 4.255,11.652 8.63,13.452 z"
           id="path281"
           inkscape:connector-curvature="0"
           style="fill:#3c2517" /></g><g
         id="g283"><path
           d="m 188.619,447.092 c 0.167,-6.265 0.441,-12.623 0.79,-18.932 -0.605,-0.141 -1.227,-0.193 -1.857,-0.122 -3.932,0.44 -6.643,5.062 -6.054,10.323 0.536,4.782 3.612,8.433 7.121,8.731 z"
           id="path285"
           inkscape:connector-curvature="0"
           style="fill:#3c2517" /></g><g
         id="g287"><path
           d="m 169.843,458.672 c 5.348,-6.022 6.237,-13.964 1.986,-17.74 -1.701,-1.51 -3.97,-2.11 -6.418,-1.919 -2.123,9.885 -4.468,18.778 -7.027,25.686 3.797,-0.129 8.106,-2.252 11.459,-6.027 z"
           id="path289"
           inkscape:connector-curvature="0"
           style="fill:#3c2517" /></g><g
         id="g291"><path
           d="m 116.157,483.997 c 8.703,0 15.758,-4.032 15.758,-9.004 0,-2.031 -1.19,-3.897 -3.174,-5.404 l -26.65,1.36 c -1.074,1.217 -1.693,2.587 -1.693,4.044 0,4.972 7.055,9.004 15.759,9.004 z"
           id="path293"
           inkscape:connector-curvature="0"
           style="fill:#3c2517" /></g><g
         id="g295"><path
           d="m 129.157,516.456 c -6.106,-5.95 -14.573,-7.164 -18.911,-2.71 -4.339,4.452 -2.905,12.884 3.201,18.834 0.594,0.578 1.215,1.098 1.848,1.586 l 17.966,0 c 3.17,-4.643 1.524,-12.227 -4.104,-17.71 z"
           id="path297"
           inkscape:connector-curvature="0"
           style="fill:#3c2517" /></g><g
         id="g299"><path
           d="m 82.815,526.117 c 5.285,-1.686 8.73,-8.517 7.866,-16.232 -0.948,-8.472 -6.725,-14.779 -12.903,-14.088 -3.003,0.335 -5.54,2.272 -7.254,5.136 0.342,10.112 5.045,19.108 12.291,25.184 z"
           id="path301"
           inkscape:connector-curvature="0"
           style="fill:#3c2517" /></g><g
         id="g303"><path
           d="m 174.936,379.441 c -0.807,6.534 -1.714,13.435 -2.722,20.436 1.122,1.115 2.394,1.701 3.678,1.557 3.383,-0.379 5.569,-5.649 4.883,-11.771 -0.58,-5.191 -3.042,-9.316 -5.839,-10.222 z"
           id="path305"
           inkscape:connector-curvature="0"
           style="fill:#3c2517" /></g><g
         id="g307"><path
           d="m 210.851,361.938 c -0.316,-0.004 -2.951,-0.057 -5.78,-1.411 l 0,0 c -2.917,-1.383 -6.041,-4.262 -6.75,-9.749 l 0,0 c -0.047,-0.352 0.2,-0.675 0.552,-0.721 l 0,0 c 0.352,-0.046 0.675,0.202 0.722,0.553 l 0,0 c 0.681,5.054 3.399,7.475 6.033,8.757 l 0,0 c 2.633,1.269 5.184,1.287 5.246,1.284 l 0,0 c 0.039,10e-4 0.064,0.003 0.084,0.006 l 0,0 0,0 c 0.352,0.044 0.603,0.366 0.558,0.718 l 0,0 c -0.041,0.325 -0.318,0.563 -0.637,0.563 l 0,0 c -0.009,0 -0.02,0 -0.028,0 l 0,0 z"
           id="path309"
           inkscape:connector-curvature="0"
           style="fill:#3c2517" /></g><g
         id="g311"><path
           d="m 26.553,526.719 3.33,-1.196 -2.488,-0.483 0.2,-3.139 7.213,1.954 1.728,3.907 -2.479,5.11 -2.855,-1.729 1.277,-2.028 -2.78,3.156 -2.702,-2.835 3.336,-1.478 -3.228,1.001 -0.47,-1.272 -0.082,-0.968 z m 178.506,-197.45 c 0.325,1.562 1.448,2.652 2.506,2.431 1.058,-0.222 1.652,-1.667 1.328,-3.23 -0.326,-1.563 -1.447,-2.651 -2.507,-2.431 -1.059,0.221 -1.653,1.668 -1.327,3.23 z m -8.656,1.624 c 0.72,1.47 2.13,2.257 3.149,1.759 1.019,-0.5 1.262,-2.096 0.542,-3.564 -0.721,-1.472 -2.13,-2.258 -3.148,-1.761 -1.019,0.501 -1.263,2.095 -0.543,3.566 z m 29.583,18.43 c 0.2,0.962 0.922,1.625 1.611,1.482 0.69,-0.144 1.087,-1.04 0.888,-2.001 -0.201,-0.962 -0.922,-1.625 -1.613,-1.482 -0.689,0.144 -1.086,1.04 -0.886,2.001 z m -5.541,1.246 c 0.438,0.894 1.25,1.396 1.813,1.121 0.564,-0.276 0.666,-1.225 0.229,-2.119 -0.438,-0.895 -1.25,-1.396 -1.813,-1.122 -0.563,0.278 -0.666,1.225 -0.229,2.12 z m -36.753,266.521 -0.242,3.296 10.855,-0.161 -0.965,-4.422 -9.648,1.287 z m -18.01,2.573 -0.563,3.135 13.427,-0.371 -0.644,-2.764 -12.22,0 0,0 z m -64.228,-2.573 0.23,2.949 11.899,-0.858 c 0,0 -0.429,-3.27 -0.643,-3.377 l -11.486,1.286 z m -8.453,-1.287 -13.507,0 -0.161,3.214 14.312,-0.052 -0.644,-3.162 z"
           id="path313"
           inkscape:connector-curvature="0"
           style="fill:#3c2517" /></g></g></g></svg>
