<?xml version="1.0" encoding="UTF-8" standalone="no"?>
<svg version="1.1" xmlns="http://www.w3.org/2000/svg"
  width="140" height="140" viewBox="-10 -10 140 140">
    <rect x="0" y="0" width="120" height="120" rx="10" ry="10"
    fill="#E0E0E0"  stroke="black" stroke-width="5" />
    <path d="m 105,108 q -5.9,1.7 -11.0,1.7 -13.9,0 -24.6,-13.1 -5.0,1.1 -10.4,1.1 -12.5,0 -22.6,-5.5 -10.0,-5.6 -15.7,-15.4 -5.6,-9.7 -5.6,-21.8 0,-12.1 5.6,-21.8 5.8,-9.8 15.8,-15.4 10.1,-5.6 22.4,-5.6 12.2,0 22.2,5.6 10.1,5.5 15.7,15.4 5.8,9.8 5.8,21.8 0,11.5 -5.3,21.1 -5.3,9.5 -14.5,15 5.8,5.8 13.3,5.8 4.3,0 7.0,-0.7 z M 60,25 q -10.9,0 -18.2,6.7 -7.2,6.6 -9,17.3 h 5.6 q 11.4,0 19.1,4.7 7.8,4.6 13.7,16.7 l 3.84,7.7 1.2,2.4 q 5.4,-4.1 8.4,-10.6 3,-6.6 3,-14.5 0,-8.6 -3.5,-15.5 -3.4,-7.0 -9.6,-10.9 -6.2,-4.0 -14.5,-4.0 z m 0,60.6 q 2.3,0 3.4,-0.12 l -1.2,-2.4 -3.6,-7.9 q -4.0,-8.0 -8.2,-11.3 -4.2,-3.4 -12,-3.4 h -5.8 q 1.4,11.2 8.8,18.1 7.4,7.0 18.6,7.0 z" />
</svg>
