<svg xmlns="http://www.w3.org/2000/svg" viewBox="0 0 140 190" version="1">
  <path fill-opacity=".5" d="M21 5h103c8.86 0 16 7.14 16 16v153c0 8.86-7.14 16-16 16H21c-8.86 0-16-7.14-16-16V21c0-8.86 7.14-16 16-16z"/>
  <path fill="#e7e7e7" d="M17 1h103c8.86 0 16 7.14 16 16v153c0 8.86-7.14 16-16 16H17c-8.86 0-16-7.14-16-16V17C1 8.14 8.14 1 17 1z"/>
  <path fill="#c7891f" d="M19 3h103c8.86 0 16 7.14 16 16v153c0 8.86-7.14 16-16 16H19c-8.86 0-16-7.14-16-16V19c0-8.86 7.14-16 16-16z"/>
  <path fill="#fff" d="M18 2h103c8.86 0 16 7.14 16 16v153c0 8.86-7.14 16-16 16H18c-8.86 0-16-7.14-16-16V18C2 9.14 9.14 2 18 2z"/>
  <path fill="red" d="M12.4 41.34V35.8c1.02.57 2 1 2.93 1.3.93.28 1.85.42 2.76.42 1.9 0 3.3-.64 4.4-1.9 1-1.3 1.7-3.2 1.9-5.72-.8.67-1.6 1.17-2.4 1.5-.9.34-1.8.5-2.8.5-2.5 0-4.6-.88-6.2-2.66-1.6-1.8-2.4-4.15-2.4-7.07 0-3.23.82-5.82 2.6-7.76 1.7-1.9 4.02-2.9 6.93-2.9 3.24 0 5.75 1.3 7.5 4s2.7 6.4 2.7 11.2c0 5-1.06 8.9-3.1 11.7-2.1 2.8-4.94 4.3-8.55 4.3-1.18 0-2.3-.1-3.35-.3-1.05-.2-2.1-.5-3.1-.9m8-14.5c1.1 0 1.92-.4 2.5-1.3.55-.9.83-2.2.83-3.93 0-1.74-.3-3.05-.9-3.94-.55-.9-1.4-1.33-2.5-1.33s-1.97.42-2.54 1.3c-.57.9-.86 2.2-.86 3.93 0 1.7.3 3 .9 3.9.57.86 1.4 1.3 2.53 1.3"/>
  <path fill="red" fill-rule="evenodd" d="M13.55 48.84c-.8 0-1.68.2-2.66.65-10.7 8.1 3.7 21.4 9.7 32.7h.1c6.7-12.4 19.4-26.1 9.7-32.8-7.7-3.5-9.7 8-9.8 8.4-.1-.38-1.6-9.17-7.2-9.1z"/>
  <path fill="red" d="M126.46 147.67v5.54c-1.02-.5-2-1-2.92-1.3-.93-.2-1.85-.4-2.76-.4-1.9 0-3.4.7-4.45 1.9-1.07 1.3-1.7 3.2-1.88 5.7.75-.6 1.56-1.1 2.4-1.5.86-.3 1.8-.5 2.78-.5 2.54 0 4.6.9 6.15 2.7 1.55 1.8 2.33 4.2 2.33 7.1 0 3.3-.8 5.8-2.6 7.8s-4 2.9-6.9 2.9c-3.2 0-5.7-1.3-7.5-3.9-1.8-2.6-2.6-6.32-2.6-11.2 0-4.9 1.1-8.8 3.1-11.7 2.1-2.8 4.9-4.2 8.6-4.2 1.17 0 2.28.1 3.35.3 1.07.2 2.1.5 3.13.96m-7.9 14.46c-1.1 0-1.96.44-2.53 1.3-.58.9-.86 2.2-.86 3.97 0 1.73.3 3.04.82 3.93.57.9 1.4 1.3 2.53 1.3s1.97-.42 2.54-1.3c.57-.9.85-2.2.85-3.94 0-1.8-.3-3.1-.86-4-.54-.9-1.4-1.3-2.5-1.3"/>
  <path fill="red" fill-rule="evenodd" d="M125.3 140c.8 0 1.7-.2 2.67-.65 10.64-8.2-3.7-21.42-9.76-32.77l-.1-.06c-6.6 12.4-19.3 26.06-9.6 32.83 7.7 3.46 9.8-8.06 9.8-8.47.1.36 1.7 9.15 7.2 9.1zM64.12 85.22c-.46 0-.98.12-1.54.38-6.2 4.84 2.15 12.65 5.67 19.36l.1.04c3.87-7.34 11.23-15.4 5.6-19.4-4.45-2.05-5.64 4.76-5.68 5-.04-.2-.95-5.4-4.15-5.38zm-20-45c-.46 0-.98.12-1.54.38-6.2 4.84 2.15 12.65 5.67 19.36l.1.04c3.87-7.34 11.23-15.4 5.6-19.4-4.45-2.05-5.64 4.76-5.68 5-.04-.2-.95-5.4-4.15-5.38zm39-.22c-.46 0-.98.12-1.54.38-6.2 4.84 2.15 12.65 5.67 19.36l.1.04c3.87-7.34 11.23-15.4 5.6-19.4-4.45-2.05-5.64 4.76-5.68 5-.04-.2-.95-5.4-4.15-5.38zM44.76 71.22c-.46 0-.98.12-1.54.38-6.2 4.84 2.15 12.65 5.67 19.36l.1.04c3.8-7.34 11.2-15.4 5.6-19.4-4.5-2.05-5.7 4.76-5.7 5-.1-.2-1-5.4-4.2-5.38zm39.36-1c-.46 0-.98.12-1.54.38-6.2 4.84 2.15 12.65 5.67 19.36l.1.04c3.87-7.34 11.23-15.4 5.6-19.4-4.45-2.05-5.64 4.76-5.68 5-.04-.2-.95-5.4-4.15-5.38zm-30.88 49.56c.46 0 .98-.12 1.54-.38 6.2-4.84-2.15-12.66-5.67-19.36L49 100c-3.86 7.33-11.22 15.4-5.6 19.4 4.46 2.04 5.65-4.76 5.7-5 .03.2.94 5.4 4.14 5.38zm.64 27c.46 0 .98-.12 1.54-.38 6.2-4.84-2.15-12.66-5.67-19.36l-.1-.04c-3.87 7.33-11.23 15.4-5.6 19.4 4.45 2.04 5.64-4.76 5.68-5 .04.2.95 5.4 4.15 5.38zm37.36 0c.46 0 .98-.12 1.54-.38 6.2-4.84-2.15-12.66-5.67-19.36L87 127c-3.86 7.33-11.22 15.4-5.6 19.4 4.46 2.04 5.65-4.76 5.7-5 .03.2.94 5.4 4.14 5.38zM92.88 119c.46 0 .98-.12 1.54-.38 6.2-4.84-2.15-12.66-5.67-19.36l-.1-.04c-3.87 7.33-11.23 15.4-5.6 19.4 4.45 2.04 5.64-4.76 5.68-5 .04.2.95 5.4 4.15 5.38z"/>
</svg>
