<svg xmlns="http://www.w3.org/2000/svg" viewBox="0 0 140 190" version="1">
  <path fill-opacity=".5" d="M21 5h103c8.86 0 16 7.14 16 16v153c0 8.86-7.14 16-16 16H21c-8.86 0-16-7.14-16-16V21c0-8.86 7.14-16 16-16z"/>
  <path fill="#e7e7e7" d="M17 1h103c8.86 0 16 7.14 16 16v153c0 8.86-7.14 16-16 16H17c-8.86 0-16-7.14-16-16V17C1 8.14 8.14 1 17 1z"/>
  <path fill="#c7891f" d="M19 3h103c8.86 0 16 7.14 16 16v153c0 8.86-7.14 16-16 16H19c-8.86 0-16-7.14-16-16V19c0-8.86 7.14-16 16-16z"/>
  <path fill="#fff" d="M18 2h103c8.86 0 16 7.14 16 16v153c0 8.86-7.14 16-16 16H18c-8.86 0-16-7.14-16-16V18C2 9.14 9.14 2 18 2z"/>
  <path fill="red" d="M24.6 26.06c1.68.53 2.95 1.44 3.8 2.74.9 1.28 1.32 2.92 1.32 4.92 0 2.97-.94 5.24-2.82 6.8-1.88 1.53-4.63 2.3-8.24 2.3-1.27 0-2.55-.13-3.84-.38-1.27-.24-2.53-.6-3.8-1.1v-5.97c1.2.72 2.4 1.27 3.57 1.64 1.1.4 2.3.6 3.4.6 1.7 0 3-.3 3.9-1 .9-.7 1.3-1.7 1.3-3 0-1.34-.5-2.4-1.4-3.1-.9-.7-2.3-1.03-4.1-1.03h-2.5v-5h2.63c1.6 0 2.8-.3 3.6-.9.77-.62 1.17-1.55 1.17-2.8 0-1.14-.4-2.04-1.14-2.66-.78-.62-1.86-.94-3.26-.94-1 0-2.04.12-3.1.4-1.04.3-2.1.7-3.13 1.25V13c1.26-.44 2.5-.76 3.75-.97s2.45-.32 3.65-.32c3.28 0 5.7.7 7.28 2 1.6 1.3 2.4 3.2 2.4 5.8 0 1.8-.35 3.2-1.1 4.3-.76 1.1-1.9 1.9-3.4 2.4M114.1 163c-1.67-.54-2.94-1.45-3.8-2.75-.87-1.26-1.3-2.9-1.3-4.9 0-2.97.93-5.23 2.8-6.8s4.64-2.3 8.25-2.3c1.27 0 2.55.13 3.83.38 1.3.25 2.54.63 3.8 1.1v5.98c-1.2-.7-2.4-1.2-3.56-1.6-1.2-.4-2.35-.5-3.5-.5-1.7 0-3 .36-3.9 1.08-.9.73-1.34 1.75-1.34 3.08 0 1.37.46 2.4 1.4 3.1.92.7 2.27 1.06 4.08 1.06h2.56v5h-2.7c-1.6 0-2.8.26-3.6.9-.8.6-1.2 1.5-1.2 2.76 0 1.16.4 2.05 1.17 2.67s1.8.94 3.2.94c1 0 2.1-.1 3.1-.4 1.02-.3 2.1-.7 3.1-1.26v5.6c-1.26.45-2.5.77-3.75.98-1.24.25-2.46.36-3.66.36-3.2 0-5.64-.63-7.24-1.92-1.6-1.23-2.4-3.2-2.4-5.72 0-1.7.4-3.2 1.18-4.3.73-1.1 1.86-1.9 3.35-2.33"/>
  <path fill="red" fill-rule="evenodd" d="M20.4 48.66c-4.12 8.25-7.12 12.5-13.33 17.05 5.87 4.5 10 9.2 13.46 16.7 3.07-7.1 6.85-12.4 13.4-16.8-6.6-3.3-10.4-8.6-13.52-16.8zm49.37-3.44c-2.4 4.84-4.16 7.34-7.77 10 3.42 2.65 5.83 5.37 7.84 9.78 1.8-4.18 4-7.3 7.8-9.9-3.83-1.97-6.05-5.08-7.87-9.88zm.36 41c-2.4 4.84-4.16 7.34-7.77 10 3.42 2.65 5.83 5.38 7.84 9.78 1.8-4.18 4-7.3 7.8-9.9-3.83-1.97-6.05-5.08-7.87-9.88zm-1 37c-2.4 4.85-4.16 7.34-7.77 10 3.42 2.65 5.83 5.38 7.84 9.78 1.8-4.18 4-7.3 7.8-9.9-3.83-1.97-6.05-5.08-7.87-9.88zm49.2-16.88c-4.12 8.25-7.12 12.5-13.33 17.04 5.87 4.5 10 9.12 13.46 16.62 3.08-7.12 6.85-12.43 13.4-16.84-6.6-3.35-10.4-8.66-13.52-16.82z"/>
</svg>
