<svg xmlns="http://www.w3.org/2000/svg" viewBox="0 0 140 190" version="1">
  <path fill-opacity=".5" d="M21 5h103c8.86 0 16 7.14 16 16v153c0 8.86-7.14 16-16 16H21c-8.86 0-16-7.14-16-16V21c0-8.86 7.14-16 16-16z"/>
  <path fill="#e7e7e7" d="M17 1h103c8.86 0 16 7.14 16 16v153c0 8.86-7.14 16-16 16H17c-8.86 0-16-7.14-16-16V17C1 8.14 8.14 1 17 1z"/>
  <path fill="#c7891f" d="M19 3h103c8.86 0 16 7.14 16 16v153c0 8.86-7.14 16-16 16H19c-8.86 0-16-7.14-16-16V19c0-8.86 7.14-16 16-16z"/>
  <path fill="#fff" d="M18 2h103c8.86 0 16 7.14 16 16v153c0 8.86-7.14 16-16 16H18c-8.86 0-16-7.14-16-16V18C2 9.14 9.14 2 18 2z"/>
  <path fill-rule="evenodd" stroke-width=".76" d="M51.27 45c-2.87 4.6-11.67 12.43-6.1 14.84 3.4 1.12 5-1.16 5.68-2.67H51l-2.26 7.6 5.2-.02s-2.23-7.3-2.24-7.6h.05c.56 1.25 2.65 3.8 4.95 2.83 6.73-2.73-3.18-10.48-5.43-14.98zm1.83 96.77c2.86-4.6 11.66-12.42 6.08-14.84-3.38-1.1-5 1.17-5.67 2.68h-.1l2.3-7.6-5.2.1s2.25 7.3 2.26 7.6h-.05c-.55-1.22-2.64-3.8-4.94-2.8-6.73 2.73 3.18 10.48 5.43 14.98zM87.27 45c-2.87 4.6-11.67 12.43-6.1 14.84 3.4 1.12 5-1.16 5.68-2.67H87l-2.26 7.6 5.2-.02s-2.24-7.3-2.24-7.6h.05c.55 1.25 2.65 3.8 4.95 2.83 6.72-2.73-3.18-10.48-5.43-14.98zm.83 96.77c2.86-4.6 11.66-12.42 6.08-14.84-3.38-1.1-5 1.17-5.67 2.68h-.1l2.3-7.6-5.2.1s2.25 7.3 2.26 7.6h-.05c-.55-1.22-2.64-3.8-4.94-2.8-6.73 2.73 3.18 10.48 5.43 14.98z" stroke-linejoin="round"/>
  <path fill-rule="evenodd" d="M20.64 48.67C15.7 56.5.6 69.8 10.18 73.93c5.8 1.9 8.57-2 9.74-4.55h.24L16.3 82.33l8.94-.04s-3.84-12.5-3.86-13h.1c.94 2.1 4.53 6.4 8.48 4.74 11.54-4.6-5.46-17.8-9.32-25.45z"/>
  <path d="M21.3 18.6l-7.04 12.57h7.02V18.6m-1.08-6.36h7.1v18.93h3.55v5.6H27.3v5.47h-6v-5.47h-11v-6.63l9.92-17.9"/>
  <path fill-rule="evenodd" d="M118.04 140c4.93-7.82 20.04-21.14 10.46-25.26-5.8-1.9-8.57 1.98-9.74 4.55h-.24l3.86-13h-8.94s3.85 12.43 3.86 12.9h-.1c-.94-2.1-4.53-6.45-8.48-4.8-11.54 4.64 5.46 17.83 9.32 25.5z"/>
  <path d="M117.4 170.53l7-12.56h-7v12.56m1.06 6.37h-7.1v-18.93h-3.55v-5.6h3.6v-5.47h6.1v5.47h11V159l-9.93 17.9"/>
</svg>
