<svg xmlns="http://www.w3.org/2000/svg" viewBox="0 0 140 190" version="1">
  <path fill-opacity=".5" d="M21 5h103c8.86 0 16 7.14 16 16v153c0 8.86-7.14 16-16 16H21c-8.86 0-16-7.14-16-16V21c0-8.86 7.14-16 16-16z"/>
  <path fill="#e7e7e7" d="M17 1h103c8.86 0 16 7.14 16 16v153c0 8.86-7.14 16-16 16H17c-8.86 0-16-7.14-16-16V17C1 8.14 8.14 1 17 1z"/>
  <path fill="#c7891f" d="M19 3h103c8.86 0 16 7.14 16 16v153c0 8.86-7.14 16-16 16H19c-8.86 0-16-7.14-16-16V19c0-8.86 7.14-16 16-16z"/>
  <path fill="#fff" d="M18 2h103c8.86 0 16 7.14 16 16v153c0 8.86-7.14 16-16 16H18c-8.86 0-16-7.14-16-16V18C2 9.14 9.14 2 18 2z"/>
  <path fill-rule="evenodd" stroke-width=".76" d="M68.9 85c-2.86 4.6-11.66 12.43-6.1 14.84 3.4 1.12 5-1.16 5.7-2.67h.13l-2.25 7.6 5.2-.02s-2.24-7.3-2.24-7.6h.05c.5 1.25 2.6 3.8 4.9 2.83C81 97.25 71.1 89.5 68.9 85zm-20-48.77c-2.86 4.6-11.66 12.42-6.08 14.84 3.38 1.1 5-1.17 5.67-2.67h.1L46.4 56l5.2-.02s-2.23-7.3-2.24-7.6h.05c.6 1.24 2.7 3.8 5 2.82 6.8-2.72-3.2-10.47-5.4-14.97zm41.15-.1c-2.87 4.6-11.67 12.44-6.1 14.86 3.4 1.1 5-1.2 5.68-2.7h.14l-2.25 7.6h5.2s-2.23-7.3-2.24-7.6h.05c.56 1.2 2.65 3.8 4.95 2.8 6.73-2.8-3.18-10.5-5.43-15zM48.4 71.4c-2.9 4.6-11.7 12.43-6.1 14.85 3.38 1.1 5-1.17 5.67-2.68h.14l-2.2 7.6h5.2s-2.2-7.32-2.2-7.6h.1c.6 1.23 2.7 3.78 5 2.8 6.8-2.72-3.2-10.46-5.4-14.97zm39.95-1.17c-2.87 4.6-11.67 12.42-6.1 14.84 3.4 1.1 5-1.16 5.68-2.67h.14L85.82 90l5.2-.02s-2.24-7.3-2.24-7.6h.05c.55 1.24 2.65 3.8 4.95 2.82 6.72-2.72-3.18-10.47-5.43-14.97zM48.2 119.38c2.88-4.6 11.68-12.42 6.1-14.84-3.38-1.1-5 1.17-5.67 2.68h-.14l2.2-7.6h-5.2s2.2 7.32 2.2 7.6h-.1c-.6-1.23-2.7-3.78-5-2.8-6.8 2.7 3.2 10.46 5.4 14.96zm41.68.08c2.87-4.6 11.67-12.42 6.1-14.84-3.4-1.1-5 1.17-5.68 2.68h-.14l2.25-7.6h-5.2s2.3 7.32 2.3 7.6c-.5-1.23-2.6-3.78-4.9-2.8-6.7 2.7 3.2 10.46 5.5 14.96zm.64 30.56c2.87-4.6 11.67-12.42 6.1-14.84-3.4-1.1-5 1.17-5.68 2.68h-.14l2.25-7.6h-5.2s2.23 7.32 2.24 7.6H90c-.56-1.23-2.65-3.78-4.95-2.8-6.74 2.7 3.17 10.46 5.42 14.96zm-41.12 0c2.86-4.6 11.66-12.42 6.08-14.84-3.38-1.1-5 1.17-5.67 2.68h-.1l2.3-7.6h-5.2s2.3 7.32 2.3 7.6H49c-.56-1.23-2.65-3.78-4.95-2.8-6.73 2.7 3.18 10.46 5.43 14.96z" stroke-linejoin="round"/>
  <path fill-rule="evenodd" d="M20.64 48.66C15.72 56.5.6 69.8 10.18 73.94c5.8 1.9 8.58-2 9.75-4.55h.23L16.3 82.3l8.94-.03S21.4 69.8 21.38 69.33h.1c.94 2.1 4.53 6.43 8.48 4.78 11.55-4.6-5.45-17.8-9.32-25.5z"/>
  <path fill="#0c0c0c" d="M12.16 41.58v-5.55c1.02.58 2 1 2.93 1.3.9.3 1.8.43 2.7.43 1.9 0 3.4-.64 4.4-1.9 1-1.3 1.7-3.2 1.8-5.72-.8.67-1.6 1.17-2.4 1.5-.9.34-1.8.5-2.8.5-2.5 0-4.6-.88-6.2-2.66-1.6-1.8-2.4-4.15-2.4-7.07 0-3.2.86-5.8 2.6-7.7 1.73-1.9 4.06-2.9 6.97-2.9 3.22 0 5.73 1.3 7.5 4C29.1 18.5 30 22.2 30 27c0 5-1 8.9-3.1 11.7-2.05 2.8-4.9 4.3-8.5 4.3-1.16 0-2.27-.1-3.33-.3-1.1-.2-2.13-.5-3.15-.9m7.9-14.5c1.1 0 1.95-.4 2.5-1.3.58-.9.86-2.2.86-3.9 0-1.7-.3-3.02-.88-3.9s-1.33-1.4-2.45-1.4-1.9.47-2.5 1.36-.83 2.2-.83 3.9c0 1.8.3 3.1.8 4 .58.9 1.4 1.3 2.54 1.3"/>
  <path fill-rule="evenodd" d="M118.04 140c4.92-7.82 20.03-21.15 10.46-25.26-5.8-1.9-8.58 1.98-9.75 4.55h-.23l3.86-13h-8.94s3.85 12.4 3.86 12.9h-.1c-.94-2.1-4.53-6.5-8.48-4.8-11.55 4.6 5.45 17.8 9.32 25.5z"/>
  <path fill="#0c0c0c" d="M126.52 147.6v5.54c-1.02-.58-2-1-2.93-1.3-1-.3-1.9-.43-2.8-.43-1.9 0-3.4.7-4.5 2s-1.7 3.2-1.9 5.7c.7-.6 1.5-1.1 2.4-1.5.8-.3 1.8-.5 2.8-.5 2.5 0 4.5.9 6.1 2.7 1.5 1.8 2.3 4.2 2.3 7.1 0 3.3-.9 5.8-2.6 7.8-1.8 2-4.1 2.9-7 2.9-3.3 0-5.8-1.3-7.6-3.9s-2.7-6.3-2.7-11.2c0-4.9 1-8.8 3.1-11.6s4.9-4.24 8.5-4.24c1.15 0 2.3.1 3.32.35 1.07.2 2.1.5 3.13.9m-7.9 14.44c-1.1 0-1.96.44-2.5 1.3-.58.9-.86 2.2-.86 3.97s.3 3.1.85 3.98c.53.9 1.4 1.34 2.5 1.34s1.95-.4 2.5-1.3c.57-.85.86-2.2.86-3.9s-.3-3.05-.86-3.94c-.57-.83-1.4-1.3-2.54-1.3"/>
</svg>
