<svg xmlns="http://www.w3.org/2000/svg" version="1" viewBox="0 0 140 190"><path fill-opacity=".5" d="M21 5h103c8.86 0 16 7.14 16 16v153c0 8.86-7.14 16-16 16H21c-8.86 0-16-7.14-16-16V21c0-8.86 7.14-16 16-16z"/><path fill="#e7e7e7" d="M17 1h103c8.86 0 16 7.14 16 16v153c0 8.86-7.14 16-16 16H17c-8.86 0-16-7.14-16-16V17C1 8.14 8.14 1 17 1z"/><path fill="#c7891f" d="M19 3h103c8.86 0 16 7.14 16 16v153c0 8.86-7.14 16-16 16H19c-8.86 0-16-7.14-16-16V19c0-8.86 7.14-16 16-16z"/><path fill="#fff" d="M18 2h103c8.86 0 16 7.14 16 16v153c0 8.86-7.14 16-16 16H18c-8.86 0-16-7.14-16-16V18C2 9.14 9.14 2 18 2z"/><g style="font-size:40px;line-height:1.25;font-family:Arial;-inkscape-font-specification:Arial;letter-spacing:0;word-spacing:0"><path d="M23.93 12.74h5.76v18.13q0 3.55-.62 5.47-.84 2.5-3.05 4.02-2.2 1.5-5.82 1.5-4.24 0-6.52-2.36-2.29-2.38-2.3-6.97l5.44-.63q.1 2.47.72 3.48.94 1.54 2.85 1.54 1.94 0 2.74-1.09.8-1.11.8-4.59z" aria-label="J" style="font-weight:700;-inkscape-font-specification:'Arial Bold'" transform="translate(-.47 -.3)"/></g><g style="font-size:40px;line-height:1.25;font-family:Arial;-inkscape-font-specification:Arial;letter-spacing:0;word-spacing:0;stroke-width:.529475"><path d="M23.93 12.74h5.76v18.13q0 3.55-.62 5.47-.84 2.5-3.05 4.02-2.2 1.5-5.82 1.5-4.24 0-6.52-2.36-2.29-2.38-2.3-6.97l5.44-.63q.1 2.47.72 3.48.94 1.54 2.85 1.54 1.94 0 2.74-1.09.8-1.11.8-4.59z" aria-label="J" style="font-weight:700;-inkscape-font-specification:'Arial Bold';stroke-width:.529475" transform="translate(11.3 21.73) scale(1.88867)"/></g><g style="font-size:40px;line-height:1.25;font-family:Arial;-inkscape-font-specification:Arial;letter-spacing:0;word-spacing:0;stroke-width:.529475"><path d="M23.93 12.74h5.76v18.13q0 3.55-.62 5.47-.84 2.5-3.05 4.02-2.2 1.5-5.82 1.5-4.24 0-6.52-2.36-2.29-2.38-2.3-6.97l5.44-.63q.1 2.47.72 3.48.94 1.54 2.85 1.54 1.94 0 2.74-1.09.8-1.11.8-4.59z" aria-label="J" style="font-weight:700;-inkscape-font-specification:'Arial Bold';stroke-width:.529475" transform="rotate(180 63.63 83.36) scale(1.88867)"/></g><path d="M114.5 176.01h-5.77V157.9q0-3.56.63-5.47.84-2.5 3.05-4.02 2.2-1.5 5.82-1.5 4.23 0 6.52 2.36 2.28 2.38 2.3 6.97l-5.45.62q-.1-2.46-.72-3.47-.94-1.55-2.85-1.55-1.93 0-2.73 1.1-.8 1.11-.8 4.59z" style="font-weight:700;font-size:40px;line-height:1.25;font-family:Arial;-inkscape-font-specification:'Arial Bold';letter-spacing:0;word-spacing:0"/><path fill-rule="evenodd" d="M20.53 48.67c-2.67 0-4.83 3.26-4.83 7.3 0 3.4 4.4 9.18 4.22 11.92-1.4.7-5.77-6.5-8.02-6.5-2.67 0-4.83 3.2-4.83 7.3 0 4 2.16 7.3 4.83 7.3 2.3 0 6.28-7.2 8.02-6.6L17 82.3l7-.03s-3.06-12.5-3.07-12.8H21c1.7-.68 5.8 6.6 8.1 6.6 2.66 0 4.82-3.27 4.82-7.3 0-4-2.16-7.28-4.83-7.28-2.3 0-6.4 7.1-8.1 6.3 0-2.8 4.3-8.6 4.3-12 0-4.1-2.2-7.3-4.9-7.3zm96.89 91.29c2.66 0 4.83-3.26 4.83-7.3 0-3.4-4.4-9.18-4.22-11.92 1.4-.78 5.76 6.44 8.02 6.44 2.66 0 4.83-3.26 4.83-7.28 0-4.03-2.17-7.3-4.83-7.3-2.32 0-6.28 7.22-8.02 6.57l2.93-12.87-7.03.04s3.08 12.48 3.08 12.78v-.02c-1.7.64-5.8-6.63-8.1-6.63-2.6 0-4.8 3.27-4.8 7.3 0 4.03 2.2 7.27 4.9 7.27 2.3 0 6.3-7.1 8.1-6.36 0 2.8-4.3 8.57-4.3 12 0 4.02 2.2 7.28 4.9 7.28z"/></svg>