<svg xmlns="http://www.w3.org/2000/svg" version="1" viewBox="0 0 140 190"><path fill-opacity=".5" d="M21 5h103c8.86 0 16 7.14 16 16v153c0 8.86-7.14 16-16 16H21c-8.86 0-16-7.14-16-16V21c0-8.86 7.14-16 16-16z"/><path fill="#e7e7e7" d="M17 1h103c8.86 0 16 7.14 16 16v153c0 8.86-7.14 16-16 16H17c-8.86 0-16-7.14-16-16V17C1 8.14 8.14 1 17 1z"/><path fill="#c7891f" d="M19 3h103c8.86 0 16 7.14 16 16v153c0 8.86-7.14 16-16 16H19c-8.86 0-16-7.14-16-16V19c0-8.86 7.14-16 16-16z"/><path fill="#fff" d="M18 2h103c8.86 0 16 7.14 16 16v153c0 8.86-7.14 16-16 16H18c-8.86 0-16-7.14-16-16V18C2 9.14 9.14 2 18 2z"/><path fill-rule="evenodd" d="M20.53 48.67c-2.67 0-4.83 3.26-4.83 7.3 0 3.4 4.4 9.18 4.22 11.92-1.4.7-5.77-6.5-8.02-6.5-2.67 0-4.83 3.2-4.83 7.3 0 4 2.16 7.3 4.83 7.3 2.3 0 6.28-7.2 8.02-6.6L17 82.3l7-.03s-3.06-12.5-3.07-12.8H21c1.7-.68 5.8 6.6 8.1 6.6 2.66 0 4.82-3.27 4.82-7.3 0-4-2.16-7.28-4.83-7.28-2.3 0-6.4 7.1-8.1 6.3 0-2.8 4.3-8.6 4.3-12 0-4.1-2.2-7.3-4.9-7.3zm96.89 91.29c2.66 0 4.83-3.26 4.83-7.3 0-3.4-4.4-9.18-4.22-11.92 1.4-.78 5.76 6.44 8.02 6.44 2.66 0 4.83-3.26 4.83-7.28 0-4.03-2.17-7.3-4.83-7.3-2.32 0-6.28 7.22-8.02 6.57l2.93-12.87-7.03.04s3.08 12.48 3.08 12.78v-.02c-1.7.64-5.8-6.63-8.1-6.63-2.6 0-4.8 3.27-4.8 7.3 0 4.03 2.2 7.27 4.9 7.27 2.3 0 6.3-7.1 8.1-6.36 0 2.8-4.3 8.57-4.3 12 0 4.02 2.2 7.28 4.9 7.28z"/><g style="font-size:40px;line-height:1.25;font-family:Arial;-inkscape-font-specification:Arial;letter-spacing:0;word-spacing:0"><path d="M30.33 37.74q2.12 1.53 4.62 2.43l-2.12 4.08q-1.31-.4-2.56-1.08-.28-.13-3.85-2.53-2.81 1.23-6.23 1.23-6.6 0-10.35-3.9Q6.1 34.1 6.1 27.08q0-7.02 3.75-10.9 3.75-3.91 10.17-3.91 6.37 0 10.1 3.9 3.73 3.89 3.73 10.9 0 3.71-1.03 6.52-.79 2.15-2.5 4.16zm-4.65-3.26q1.11-1.3 1.66-3.16.56-1.86.56-4.26 0-4.96-2.18-7.4-2.2-2.46-5.73-2.46-3.53 0-5.74 2.46-2.19 2.46-2.19 7.4 0 5.02 2.2 7.52 2.2 2.48 5.56 2.48 1.25 0 2.36-.4-1.76-1.16-3.57-1.8l1.62-3.3q2.85.97 5.45 2.92z" aria-label="Q" style="font-weight:700;-inkscape-font-specification:'Arial Bold'" transform="translate(-.04 -.78)"/></g><g style="font-size:40px;line-height:1.25;font-family:Arial;-inkscape-font-specification:Arial;letter-spacing:0;word-spacing:0;stroke-width:.641059"><path d="M30.33 37.74q2.12 1.53 4.62 2.43l-2.12 4.08q-1.31-.4-2.56-1.08-.28-.13-3.85-2.53-2.81 1.23-6.23 1.23-6.6 0-10.35-3.9Q6.1 34.1 6.1 27.08q0-7.02 3.75-10.9 3.75-3.91 10.17-3.91 6.37 0 10.1 3.9 3.73 3.89 3.73 10.9 0 3.71-1.03 6.52-.79 2.15-2.5 4.16zm-4.65-3.26q1.11-1.3 1.66-3.16.56-1.86.56-4.26 0-4.96-2.18-7.4-2.2-2.46-5.73-2.46-3.53 0-5.74 2.46-2.19 2.46-2.19 7.4 0 5.02 2.2 7.52 2.2 2.48 5.56 2.48 1.25 0 2.36-.4-1.76-1.16-3.57-1.8l1.62-3.3q2.85.97 5.45 2.92z" aria-label="Q" style="font-weight:700;-inkscape-font-specification:'Arial Bold';stroke-width:.641059" transform="translate(26.71 24.97) scale(1.55992)"/></g><g style="font-size:40px;line-height:1.25;font-family:Arial;-inkscape-font-specification:Arial;letter-spacing:0;word-spacing:0;stroke-width:.641059"><path d="M30.33 37.74q2.12 1.53 4.62 2.43l-2.12 4.08q-1.31-.4-2.56-1.08-.28-.13-3.85-2.53-2.81 1.23-6.23 1.23-6.6 0-10.35-3.9Q6.1 34.1 6.1 27.08q0-7.02 3.75-10.9 3.75-3.91 10.17-3.91 6.37 0 10.1 3.9 3.73 3.89 3.73 10.9 0 3.71-1.03 6.52-.79 2.15-2.5 4.16zm-4.65-3.26q1.11-1.3 1.66-3.16.56-1.86.56-4.26 0-4.96-2.18-7.4-2.2-2.46-5.73-2.46-3.53 0-5.74 2.46-2.19 2.46-2.19 7.4 0 5.02 2.2 7.52 2.2 2.48 5.56 2.48 1.25 0 2.36-.4-1.76-1.16-3.57-1.8l1.62-3.3q2.85.97 5.45 2.92z" aria-label="Q" style="font-weight:700;-inkscape-font-specification:'Arial Bold';stroke-width:.641059" transform="rotate(179.93 55.62 81.74) scale(1.55992)"/></g><g style="font-size:40px;line-height:1.25;font-family:Arial;-inkscape-font-specification:Arial;letter-spacing:0;word-spacing:0"><path d="M30.33 37.74q2.12 1.53 4.62 2.43l-2.12 4.08q-1.31-.4-2.56-1.08-.28-.13-3.85-2.53-2.81 1.23-6.23 1.23-6.6 0-10.35-3.9Q6.1 34.1 6.1 27.08q0-7.02 3.75-10.9 3.75-3.91 10.17-3.91 6.37 0 10.1 3.9 3.73 3.89 3.73 10.9 0 3.71-1.03 6.52-.79 2.15-2.5 4.16zm-4.65-3.26q1.11-1.3 1.66-3.16.56-1.86.56-4.26 0-4.96-2.18-7.4-2.2-2.46-5.73-2.46-3.53 0-5.74 2.46-2.19 2.46-2.19 7.4 0 5.02 2.2 7.52 2.2 2.48 5.56 2.48 1.25 0 2.36-.4-1.76-1.16-3.57-1.8l1.62-3.3q2.85.97 5.45 2.92z" aria-label="Q" style="font-weight:700;-inkscape-font-specification:'Arial Bold'" transform="rotate(180 69.01 94.62)"/></g></svg>