<svg xmlns="http://www.w3.org/2000/svg" viewBox="0 0 140 190" version="1">
  <path fill-opacity=".5" d="M21 5h103c8.86 0 16 7.14 16 16v153c0 8.86-7.14 16-16 16H21c-8.86 0-16-7.14-16-16V21c0-8.86 7.14-16 16-16z"/>
  <path fill="#e7e7e7" d="M17 1h103c8.86 0 16 7.14 16 16v153c0 8.86-7.14 16-16 16H17c-8.86 0-16-7.14-16-16V17C1 8.14 8.14 1 17 1z"/>
  <path fill="#c7891f" d="M19 3h103c8.86 0 16 7.14 16 16v153c0 8.86-7.14 16-16 16H19c-8.86 0-16-7.14-16-16V19c0-8.86 7.14-16 16-16z"/>
  <path fill="#fff" d="M18 2h103c8.86 0 16 7.14 16 16v153c0 8.86-7.14 16-16 16H18c-8.86 0-16-7.14-16-16V18C2 9.14 9.14 2 18 2z"/>
  <path fill-rule="evenodd" d="M69.84 45c-1.55 0-2.82 1.92-2.82 4.28 0 2 2.56 5.4 2.46 7-.82.47-3.35-3.77-4.67-3.77-1.5 0-2.8 2-2.8 4.3s1.3 4.3 2.8 4.3c1.4 0 3.7-4.2 4.7-3.8l-1.7 7.6h4.1s-1.8-7.3-1.8-7.5h.1c1-.3 3.4 3.9 4.8 3.9 1.6 0 2.8-1.9 2.8-4.2 0-2.3-1.2-4.3-2.8-4.3-1.3 0-3.7 4.2-4.7 3.8.1-1.6 2.6-5 2.6-7 0-2.3-1.2-4.3-2.8-4.3zm.36 41.22c-1.55 0-2.82 1.92-2.82 4.28 0 2.02 2.56 5.4 2.46 7-.82.47-3.36-3.77-4.67-3.77-1.55 0-2.8 1.92-2.8 4.28 0 2.4 1.25 4.3 2.8 4.3 1.35 0 3.66-4.2 4.67-3.8l-1.7 7.6h4.1s-1.8-7.3-1.8-7.5h.03c1-.4 3.38 3.9 4.72 3.9 1.5 0 2.8-1.9 2.8-4.3 0-2.3-1.3-4.3-2.8-4.3-1.4 0-3.7 4.2-4.8 3.8 0-1.7 2.5-5.1 2.5-7.1 0-2.3-1.3-4.2-2.8-4.2zM69.16 143c1.55 0 2.82-1.92 2.82-4.28 0-2-2.56-5.4-2.46-7 .82-.47 3.35 3.77 4.67 3.77 1.5 0 2.8-2 2.8-4.3s-1.3-4.3-2.8-4.3c-1.4 0-3.7 4.2-4.7 3.8l1.7-7.6h-4.1s1.8 7.3 1.8 7.5h-.1c-1 .4-3.4-3.9-4.8-3.9-1.6 0-2.8 1.9-2.8 4.3 0 2.3 1.2 4.3 2.8 4.3 1.3 0 3.7-4.2 4.7-3.8-.1 1.6-2.6 5-2.6 7 0 2.3 1.2 4.3 2.8 4.3zM20.53 48.66c-2.67 0-4.83 3.27-4.83 7.3 0 3.42 4.4 9.18 4.22 11.92-1.4.78-5.77-6.44-8.02-6.44-2.67 0-4.83 3.27-4.83 7.3 0 4 2.16 7.27 4.83 7.27 2.3 0 6.28-7.2 8.02-6.5L17 82.3l7-.04S20.95 69.8 20.94 69.5H21v.02c1.7-.64 5.8 6.63 8.1 6.63 2.66 0 4.82-3.26 4.82-7.28 0-4.03-2.16-7.3-4.83-7.3-2.3 0-6.4 7.1-8.1 6.38 0-2.8 4.3-8.58 4.3-12 0-4.02-2.2-7.3-4.9-7.3zm96.9 91.3c2.65 0 4.82-3.26 4.82-7.28 0-3.43-4.4-9.2-4.22-11.93 1.4-.8 5.76 6.43 8.02 6.43 2.66 0 4.83-3.26 4.83-7.28s-2.17-7.3-4.83-7.3c-2.32 0-6.28 7.23-8.02 6.58l2.93-12.88-7.03.04s3.08 12.5 3.08 12.78c-1.7.63-5.8-6.65-8.1-6.65-2.6 0-4.8 3.27-4.8 7.3s2.2 7.28 4.9 7.28c2.3 0 6.3-7.1 8.1-6.37 0 2.8-4.3 8.57-4.3 12 0 4.02 2.2 7.28 4.9 7.28z"/>
  <path d="M24.6 26.06c1.68.53 2.95 1.44 3.8 2.74.9 1.28 1.32 2.92 1.32 4.92 0 2.97-.94 5.24-2.82 6.8-1.88 1.53-4.63 2.3-8.24 2.3-1.27 0-2.55-.13-3.84-.38-1.27-.24-2.53-.6-3.8-1.1v-5.97c1.2.72 2.4 1.27 3.57 1.64 1.1.4 2.3.6 3.4.6 1.7 0 3-.3 3.9-1 .9-.7 1.3-1.7 1.3-3s-.5-2.4-1.4-3.1c-.9-.7-2.3-1-4.1-1h-2.5v-5h2.6c1.6 0 2.8-.3 3.6-.9.7-.6 1.1-1.5 1.1-2.8 0-1.1-.4-2-1.2-2.6-.8-.6-1.9-.9-3.3-.9-1 0-2.05.1-3.1.4-1.05.3-2.1.7-3.14 1.3v-6c1.3-.43 2.5-.75 3.77-.96 1.24-.22 2.46-.32 3.66-.32 3.3 0 5.7.7 7.3 2 1.6 1.3 2.4 3.2 2.4 5.8 0 1.8-.34 3.2-1.1 4.3-.75 1.1-1.9 1.9-3.4 2.4M114.1 163c-1.67-.52-2.94-1.43-3.8-2.73-.9-1.3-1.3-2.92-1.3-4.9 0-3 .93-5.25 2.8-6.8 1.9-1.54 4.64-2.3 8.25-2.3 1.27 0 2.55.1 3.84.37 1.2.26 2.5.6 3.8 1.1v6c-1.2-.73-2.4-1.28-3.6-1.66-1.2-.37-2.4-.55-3.5-.55-1.7 0-3 .35-3.9 1.06s-1.4 1.7-1.4 3c0 1.4.4 2.4 1.4 3.1.9.7 2.2 1 4 1h2.5v4.9h-2.7c-1.6 0-2.8.3-3.6.9-.8.6-1.2 1.5-1.2 2.8 0 1.1.4 2 1.1 2.6s1.86.92 3.26.92c1.05 0 2.1-.17 3.14-.45s2.1-.7 3.1-1.3v5.6c-1.24.45-2.5.77-3.73 1-1.2.2-2.4.3-3.6.3-3.2 0-5.6-.63-7.2-1.9-1.6-1.3-2.4-3.2-2.4-5.8 0-1.78.35-3.2 1.1-4.35.7-1.1 1.9-1.9 3.4-2.35"/>
</svg>
