<svg xmlns="http://www.w3.org/2000/svg" width="202.74" height="200">
  <defs>
    <linearGradient id="a" x1="215.51" x2="622.89" y1="1047.3" y2="1047.3" gradientUnits="userSpaceOnUse" gradientTransform="matrix(.953 0 0 .95 -200.362 -799.21)">
      <stop stop-color="#eabd61" offset="0"/>
      <stop stop-color="#eecd73" stop-opacity=".78" offset="1"/>
    </linearGradient>
    <linearGradient id="b" x1="-224.48" x2="1012.4" y1="129.08" y2="129.08" gradientUnits="userSpaceOnUse" gradientTransform="matrix(.293 0 0 .48 83.85 134.39)">
      <stop stop-color="#d0c27b" offset="0"/>
      <stop stop-color="#d0c27b" stop-opacity=".78" offset="1"/>
    </linearGradient>
    <linearGradient id="c" x1="-224.48" x2="1012.4" y1="129.08" y2="129.08" gradientUnits="userSpaceOnUse" gradientTransform="matrix(.123 0 0 .187 148.3 257.89)">
      <stop stop-color="#e6e6e6" offset="0"/>
      <stop stop-color="#ccc" stop-opacity=".75" offset="1"/>
    </linearGradient>
  </defs>
  <g stroke-width="1.92">
    <path fill="url(#a)" stroke="#000" stroke-width="1.73" d="M220 8.95s-3.38-3.2-7.7-3.48c-4.35-.28-6.9 2.36-6.9 2.36s-2.95 3.8-7.3 3.85c-4.33.06-7.43-3.7-7.43-3.7-4.93-4.15-8.57.8-8.57.8s-1 2.96-5.32 3.45c-4.32.48-6.84-2.3-6.84-2.3s-4.03-2.14-8.3-1.34c-4.27.8-6.08 4-6.08 4s-2.67 3.4-6.86 4.5c-4.2 1.1-7.26-.7-7.26-.7s-4.3-1.5-8.4-.1c-4.1 1.4-5.4 4.9-5.4 4.9s-2.1 3.7-6.05 5.5c-4 1.9-7.4.5-7.4.5s-4.6-.9-8.4 1.2c-3.8 2.1-4.6 5.7-4.6 5.7s-1.5 4-5.2 6.4c-3.6 2.4-7.1 1.5-7.1 1.5s-4.6-.1-8.1 2.5-3.7 6.3-3.7 6.3-.9 4.3-4.2 7.1c-3.3 2.9-6.9 2.6-6.9 2.6s-4.7.6-7.6 3.7C55.6 67.4 56 71 56 71s-.2 4.3-3 7.7c-2.8 3.4-6.4 3.6-6.4 3.6s-4.5 1.3-7 4.8c-2.5 3.6-1.6 7.1-1.6 7.1s.4 4.3-1.8 8.1-5.7 4.6-5.7 4.6-4.2 1.9-6.1 5.8c-2 3.9-.5 7.3-.5 7.3s1.1 4.1-.5 8.2-4.9 5.4-4.9 5.4-3.9 2.6-5.2 6.7c-1.3 4.2.7 7.2.7 7.2s1.7 3.9.8 8.2c-.9 4.2-4 6.1-4 6.1s-3.4 3.1-4 7.4c-.6 4.3 1.8 7 1.8 7s2.3 3.6 2.1 8c-.3 4.3-3.1 6.6-3.1 6.6s-2.9 3.6-2.8 8c0 4.3 2.9 6.7 2.9 6.7s2.9 3.2 3.3 7.6c.4 4.3-2 7-2 7s-2.2 4-1.5 8.2c.8 4.3 4 6.2 4 6.2s3.4 2.7 4.4 6.9c1.1 4.2-.8 7.2-.8 7.2s-1.6 4.3-.2 8.4c1.3 4.1 4.8 5.4 4.8 5.4s3.7 2.1 5.5 6.1c1.8 4 .3 7.3.3 7.3s-.9 4.5 1.1 8.4c2 3.8 5.6 4.6 5.6 4.6s4 1.6 6.4 5.2c2.4 3.6 1.4 7.2 1.4 7.2s-.2 4.5 2.4 8 6.3 3.7 6.3 3.7 4.3.9 7.1 4.2c2.8 3.3 2.5 6.8 2.5 6.8s.5 4.6 3.6 7.6 6.8 2.7 6.8 2.7 4.3.2 7.6 3 3.6 6.4 3.6 6.4 1.2 4.4 4.8 6.9c3.5 2.5 7.1 1.6 7.1 1.6s4.3-.4 8 1.9 4.5 5.8 4.5 5.8 1.9 4.2 5.7 6.2c3.9 2 7.3.5 7.3.5s4.1-1 8.1.6 5.3 5 5.3 5 2.5 3.9 6.6 5.2c4.1 1.3 7.2-.6 7.2-.6s4-1.7 8.2-.6c4.24 1 6.04 4.2 6.04 4.2s3.1 3.5 7.38 4.2c4.3.7 7.1-1.7 7.1-1.7s3.7-2.28 8-1.9c4.3.4 6.6 3.2 6.6 3.2s3.53 2.92 7.9 3c4.3.03 6.73-2.7 6.73-2.7s3.3-2.8 7.6-3.1c4.4-.27 7 2.2 7 2.2s3.9 2.4 8.2 1.8c4.3-.6 6.3-3.7 6.3-3.7s2.9-3.28 7.1-4.2c4.3-.9 7.3 1.1 7.3 1.1s4.2 1.8 8.4.52 5.7-4.6 5.7-4.6 2.3-3.7 6.4-5.2c4.02-1.5 7.3 0 7.3 0s4.4 1.1 8.32-.7c3.9-1.8 4.9-5.5 4.9-5.5s1.7-3.9 5.5-6.1c3.7-2.2 7.2-1.1 7.2-1.1s4.6.4 8.2-2c3.5-2.47 3.9-6.1 3.9-6.1s1.1-4.2 4.5-6.9 7-2.25 7-2.25 4.6-.3 7.8-3.2c3.2-2.9 3-6.64 3-6.64s.4-4.3 3.4-7.5c3-3.1 6.5-3.2 6.5-3.2s4.6-1 7.2-4.4c2.7-3.4 2-7 2-7s-.2-4.3 2.2-7.9c2.4-3.6 5.9-4.2 5.9-4.2s4.3-1.7 6.4-5.5c2.1-3.7.8-7.2.8-7.2s-.9-4.2 1-8.1c1.8-3.9 5.2-5.1 5.2-5.1s3.9-2.3 5.5-6.36c1.52-4.1-.3-7.3-.3-7.3s-1.5-4-.3-8.2c1.1-4.2 4.3-5.82 4.3-5.82s3.6-2.93 4.4-7.2c.8-4.3-1.46-7.14-1.46-7.14s-2.1-3.7-1.6-8 3.4-6.5 3.4-6.5 3.1-3.5 3.2-7.8c.2-4.3-2.5-6.8-2.5-6.8s-2.7-3.4-2.8-7.7c-.2-4.4 2.3-6.9 2.3-6.9s2.5-3.9 2-8.2c-.5-4.3-3.5-6.3-3.5-6.3s-3.2-2.9-4-7.2c-.8-4.3 1.3-7.2 1.3-7.2s1.8-4.2.6-8.4c-1.2-4.2-4.5-5.7-4.5-5.7s-3.6-2.4-5.1-6.5c-1.4-4.1.1-7.3.1-7.3s1.2-4.5-.6-8.4c-1.8-3.9-5.3-4.9-5.3-4.9s-3.9-1.7-6-5.5-1-7.2-1-7.2.5-4.6-1.9-8.2c-2.4-3.6-6-4-6-4s-4.2-1.2-6.9-4.6c-2.7-3.4-2.2-7-2.2-7s-.3-4.5-3.2-7.7c-2.9-3.2-6.6-3.1-6.6-3.1s-4.2-.5-7.4-3.4-3.2-6.6-3.2-6.6-1-4.5-4.4-7.2c-3.4-2.7-7-2-7-2s-4.3.2-7.9-2.3c-3.6-2.4-4.2-6-4.2-6s-1.6-4.3-5.4-6.4c-3.7-2.1-7.2-.9-7.2-.9s-4.3.9-8.2-1c-3.9-1.9-5-5.2-5-5.2s-2.3-4-6.3-5.6c-4.1-1.5-7.3.2-7.3.2s-4 1.5-8.2.2c-4.2-1.2-5.8-4.4-5.8-4.4s-2.9-3.6-7.1-4.5c-4.3-.9-7.2 1.3-7.2 1.3s-3.8 2.1-8.1 1.5c-4.3-.6-6.4-3.6-6.4-3.6" transform="matrix(.522 0 0 .522 -2.12 -2.392)"/>
    <path fill="url(#b)" stroke="#000" stroke-width="1.73" d="M380.42 196.35c0 98.54-81.1 178.43-181.13 178.43-100.1 0-181.2-79.88-181.2-178.43C18.1 97.8 99.2 17.9 199.2 17.9c100.06 0 181.16 79.9 181.16 178.5z" transform="matrix(.522 0 0 .522 -2.12 -2.392)"/>
    <path fill-opacity=".31" stroke="#000" stroke-width=".9" d="M134.56 54.55l-3 4.47c-1.05 1.83-2.52 2-4.08 1.86l-24.42-.93-13.8 39.9 1.3 1.12c10.08-3.97 27.48-7.7 27.6 13.62.02 6.2-8.6 20.2-16.6 19.9-3.25-.2-7.6-2.9-8-6-.6-4.6-.66-11.5-9.72-9.7-3.8.7-7.1 5.4-4.1 11.7 1.35 2.8 7.07 5.4 11.2 6.9 3.13 1.1 6.56 1.6 9.87 1.3 6.2-.7 13.8-3.2 17.6-6 2.2-1.6 9.9-8.5 11.6-17.2l1.5-.2c.2 7.8.5 21.8 15.7 23.1 2.8.2 15.3-5.4 19.6-10.5 6.5-7.6 11.7-16 14.4-25.7 2.7-9.5 5.1-16.6 2.4-30.2-.7-3.8-4-11.4-9.5-12.7-8-2.1-15.8 1.4-19 4.3-2.7 2.3-14.2 11.8-18.5 24.6-2.3 6.9-3.8 11.9-4.4 17.1h-1.5c.9-6.2-4.1-10.6-8.8-13.8-6.3-4.4-14.4-4.9-22.9-3l7-18.1 27.1.4 5.9-14.6zm30.8 8.25c.32 0 .6.04.9.14 10.08 3.4 5.36 25.8 2.4 38.22-2.9 12.2-12.06 34.16-19 32.43-9.98-2.5-5.57-26.6-2.43-39.4 2.8-11.3 12.04-31.4 18.14-31.5z"/>
    <path fill="url(#c)" d="M272.34 285.65c-.64 1.2-1.05 2.54-1.18 4-.08 1.34.04 2.56.3 3.67.44-2.6.74-5.1.88-7.7z" transform="matrix(.522 0 0 .522 -2.12 -2.392)"/>
    <path fill-opacity=".31" stroke="#000" stroke-width=".9" d="M146.03 143.7c-2.83 0-5.06 2.1-5.3 5.1-.15 3.56 1.77 5.58 3.93 5.62 2.36-.03 4.2-1.32 5.06-5-.16-.1.68-4.86-3.7-5.73zm-.63.6c.16-.05.34 0 .5 0 2.76 1.3 2.34 2.45 2.3 4.86-.4 2.08-1.24 4.8-3.6 4.43 0 0-3.14-.2-2.4-5.2.6-2.7 1.66-4.3 3.28-4.3z"/>
    <path fill-opacity=".13" stroke="#000" stroke-width=".9" d="M110.43 144.54l-.74.04h-.1c-.2.1.7-.04.8 0z"/>
    <path fill-opacity=".31" stroke="#000" stroke-width=".9" d="M116.67 145.98v-1.26l.04-.92c0-.16-7.3-.07-7.3-.07s-.2.15-.2.3c0 .17.1.32.2.43.2.1.5.1.5.1l.9-.05s-.1 5.6-1.2 8.1c0 .2-.1.3-.3.5-.1.1-.2.2-.4.3-.2.2-.9.1-.8.4.1.4.9.1 1.3.1l1.7.1h1.6l1.8.1 1.3-.1.9-.5.3-.7c.1-.2.2-.4.2-.7 0-.1 0-.3-.2-.4h-.2c-.3.2 0 .8-.3 1.1-.1.2-.6.4-.6.4l-.5.3-1.3.2h-2l-.3-.1-.34-.4.2-1 .56-2.7.4-.2h2.27l.2.1v1.1l.3.3.35-.3-.1-1.6.6-1.2-.2-.36h-.3l-.4.65-.3.34-.4.13-1.2.1h-.6l-.4-.1.7-3.9 1.2-.14h1.4l.88.1.27.5.1 1.1c.2.16.4.06.62-.05zm2.48-2.06l1.65.06 1.4-.02h.74l.1.17-.05.2h-.6l-.6.1-.3.17-.1.1-.1.55-1 5.63-.1.82v.68l.2.5.9.5 1.2.12 1-.2.6-.48.5-.57.3-.94.3-1.5.3-2.1.2-1v-1.3l-.1-.3-.1-.2h-1v-.3h.3l1 .1 1.1.1h.6v.3l-.07.2h-.5c-.36.1-.36.4-.47.6l-.5 2-.9 4.6-.74 1.6c-.48.58-1 .8-1.6.9-.6.2-1.3.3-2 .2-.67-.03-1.24-.3-1.77-.6-.37-.3-.6-.75-.84-1.2.1-1.2.1-2.3.3-3.4l.7-3.9c.1-.34 0-.55-.2-.6l-.9-.05-.02-.2zm12.4-.02c-.17.1-.27.25-.2.47l.97.25-1.32 8.3c0 .1 0 .16-.04.26 0 .06-.05.06-.15.1l-.8.48c0 .05.1.26.2.26 1.7.3 3.8.05 3.8.1l.1-.3-1.2-.22c-.1-.05-.3-.26-.2-.42.4-1.35.7-4.07 1-4.12l.6.2c.3.17.4.27.4.27s1 3.55 2.6 4.5c.6.36 1.4.4 2.1.2.2 0 .4-.1.4-.26s-.3-.1-.4-.16l-1-.4-2.2-4.1c3-1.4 3.2-3.7.8-4.9l-4.7-.1zm2.3 10.12l-.02.05h.06zm.88-9.55c.2 0 .38.05.5.05.34 0 .7 0 .96.2.3.22.4.53.5.9.1.36 0 .73-.1 1.1-.1.46-.2.93-.5 1.3-.3.3-.6.52-1 .68-.4.1-.7.15-1.1.1-.3 0-.7.1-.7-.16.1-1.56.6-3.44.6-3.86-.1-.16.3-.2.6-.2zm-34.3 12.47c.23 1.3 1.42 1.1 1.5 0l1.5-5.32c1.12-2.66-.64-2.45-1.4-1.3-11-1.15-15.14.4-16.7 1.5-5.1 3.66-6.3 7.47-6.2 11.4.2 7.87 6.63 9.75 9.6 10.32 2.04.47 5.54.42 8.3-.15 1.1-.3 1.83-.8 2.56-1.6 1.4-1.7 2.5-6.2 2.5-6.2-.4-.9-1-.7-1.6-.3-1.4 3-3.4 6.2-6.2 6.2 0 0-8.6.6-9.6-7.9-.9-7 4.7-11.8 9.9-12.2 5.9-.6 5.9 3.1 5.9 3.1zm15.9 3.76v-1.88l.02-1.35c0-.2-11.56-.1-11.56-.1s-.4.3-.5.5c-.1.22 0 .48.2.64.2.3.8.3.8.3h1.2s-.3 8.3-2 12.1c-.1.3-.3.6-.5.8-.2.2-.5.3-.7.5-.5.3-1.5.2-1.4.6.1.7 1.4.1 2.1.2.8.1 2.5.1 2.5.1h2.5l2.8.2 2-.1 1.3-.8.3-1c.1-.3.3-.7.3-1-.1-.2-.2-.5-.4-.6h-.5c-.5.3-.1 1.2-.5 1.6-.2.3-.9.6-.9.6l-1 .4-2.1.3h-2.9l-.6-.2-.6-.6.3-1.4.7-4 .72-.3h3.5l.33.3v1.7l.52.45.43-.4-.1-2.4.97-1.77-.37-.5h-.3l-.7.9-.5.6-.7.3-1.9.2h-1.04l-.5-.13 1.1-5.7 1.9-.25h2.1l1.3.04.4.8.2 1.7c.35.25.67.1 1-.06zm.43 10.86l1.4-.1c.4-.06.8.52 1.2-.94l2.98-9.2c.47-2.08-1.15-2.24-3.18-2.24v-1.52h5.7l5.68 11.28 1.56-7.73c.58-2-.2-1.5-.73-1.9h-2.1v-1.3l7.84-.1-.1 1.4c-.7.2-1.6-.5-2.2 1.1l-2.5 10.7 1 1.4c.6.7.9 1.3-.1 1.2l-3.4.1-6.1-11.2-2.1 7.7c-.9 2 .4 1.6 1.3 1.5l2.5.1v1.5l-8.6.2zm21.9 1.4v-1.2l2.43-.5c.5.2.8-.64 1.2-1.42l2.9-9.66c1-2.3-1.2-1.57-2.3-1.57-1.4.8-2.8 1.8-3.3 3.7-1.7.6-1.5 0-1.4-.6l1.1-3.1c.4-.4.3-1.1 1.7-1.2l12.2.1c1 0 1.1.9.9 1.8l-.5 2.5c-1 1.5-1.4.6-1.8-.1l.2-1.5c-.1-1.5-3.3-1.9-4-.2l-2.9 10.6c-.6 1.3.8 1 1.6 1.1 1.1.7 1.4 1.4 1.5 2.1z"/>
  </g>
</svg>
