<svg xmlns="http://www.w3.org/2000/svg" width="202.69" height="200">
  <defs>
    <linearGradient id="a" x1="215.51" x2="622.89" y1="1047.3" y2="1047.3" gradientUnits="userSpaceOnUse" gradientTransform="matrix(.5 0 0 .5 -106.6 -419.1)">
      <stop stop-color="#eabd61" offset="0"/>
      <stop stop-color="#eecd73" stop-opacity=".78" offset="1"/>
    </linearGradient>
    <linearGradient id="b" x1="-224.48" x2="1012.4" y1="129.08" y2="129.08" gradientUnits="userSpaceOnUse" gradientTransform="matrix(.2 0 0 .3 41.6 67.7)">
      <stop stop-color="#d0c27b" offset="0"/>
      <stop stop-color="#d0c27b" stop-opacity=".78" offset="1"/>
    </linearGradient>
    <linearGradient id="c" x1="-224.48" x2="1012.4" y1="129.08" y2="129.08" gradientUnits="userSpaceOnUse" gradientTransform="matrix(.1 0 0 .1 75.2 132.1)">
      <stop stop-color="#e6e6e6" offset="0"/>
      <stop stop-color="#ccc" stop-opacity=".75" offset="1"/>
    </linearGradient>
  </defs>
  <path fill="url(#a)" stroke="#000" stroke-width=".9" d="M112.6 2.28S110.83.6 108.57.46c-2.26-.14-3.6 1.24-3.6 1.24s-1.53 1.98-3.8 2c-2.26.03-3.87-1.93-3.87-1.93-2.56-2.16-4.46.42-4.46.42s-.52 1.5-2.78 1.8c-2.25.2-3.56-1.2-3.56-1.2s-2.1-1.2-4.33-.7C79.94 2.5 79 4.2 79 4.2S77.6 6 75.42 6.58c-2.2.58-3.8-.37-3.8-.37s-2.23-.7-4.37 0c-2.13.8-2.8 2.6-2.8 2.6s-1.1 2-3.17 2.9c-2.05 1-3.8.3-3.8.3s-2.4-.4-4.37.7c-1.9 1.1-2.3 3-2.3 3s-.8 2.1-2.7 3.3c-1.9 1.3-3.7.8-3.7.8s-2.4 0-4.2 1.3c-1.8 1.4-1.9 3.3-1.9 3.3s-.4 2.3-2.1 3.7c-1.7 1.5-3.6 1.4-3.6 1.4s-2.4.3-3.9 2-1.3 3.5-1.3 3.5-.1 2.3-1.5 4-3.3 1.9-3.3 1.9-2.4.7-3.7 2.5C17.5 45.2 18 47 18 47s.2 2.22-.92 4.2c-1.13 1.95-3 2.35-3 2.35s-2.2 1-3.15 3c-1.05 2.04-.27 3.8-.27 3.8s.56 2.15-.27 4.3-2.6 2.8-2.6 2.8S5.7 68.8 5 70.9c-.64 2.2.4 3.8.4 3.8s.9 2.06.4 4.3c-.5 2.24-2.1 3.2-2.1 3.2S1.9 83.77 1.6 86c-.32 2.23.93 3.64.93 3.64s1.2 1.9 1.1 4.18c-.2 2.2-1.7 3.4-1.7 3.4S.4 99.06.48 101.3c0 2.3 1.5 3.5 1.5 3.5s1.52 1.67 1.72 3.92c.2 2.24-1.1 3.65-1.1 3.65s-1.2 2.08-.8 4.32c.4 2.1 2.1 3.1 2.1 3.1s1.7 1.4 2.3 3.6c.5 2.2-.4 3.7-.4 3.7s-.9 2.2-.1 4.4c.7 2.1 2.5 2.8 2.5 2.8s1.9 1.1 2.8 3.2c.92 2 .14 3.8.14 3.8s-.46 2.3.6 4.3c1 1.9 2.9 2.4 2.9 2.4s2.1.8 3.33 2.7c1.25 1.8.73 3.7.73 3.7s-.1 2.4 1.27 4.2c1.34 1.8 3.27 1.9 3.27 1.9s2.27.4 3.7 2.2c1.5 1.7 1.3 3.5 1.3 3.5s.3 2.4 1.9 3.9c1.6 1.6 3.55 1.4 3.55 1.4s2.2.2 3.9 1.6c1.7 1.4 1.8 3.3 1.8 3.3s.6 2.35 2.5 3.7c1.8 1.3 3.7.8 3.7.8s2.2-.2 4.1 1 2.3 3 2.3 3 1 2.1 3 3.2c2 1.05 3.8.3 3.8.3s2.1-.56 4.2.3c2 .8 2.7 2.6 2.7 2.6s1.3 2 3.5 2.7c2.1.7 3.8-.3 3.8-.3s2.1-.88 4.3-.3c2.2.5 3.1 2.14 3.1 2.14s1.6 1.85 3.8 2.2c2.2.4 3.7-.9 3.7-.9s1.9-1.2 4.2-1c2.3.2 3.5 1.7 3.5 1.7s1.8 1.5 4.1 1.5c2.2 0 3.5-1.4 3.5-1.4s1.7-1.45 3.9-1.6c2.3-.16 3.6 1.1 3.6 1.1s2 1.24 4.24.93c2.3-.3 3.3-1.9 3.3-1.9s1.5-1.7 3.7-2.2c2.26-.5 3.8.6 3.8.6s2.2.9 4.4.24c2.2-.6 3-2.4 3-2.4s1.2-1.85 3.4-2.7c2.1-.8 3.8 0 3.8 0s2.3.6 4.3-.35c2.1-.98 2.6-2.86 2.6-2.86s.9-2.06 2.86-3.2c1.9-1.16 3.75-.6 3.75-.6s2.4.2 4.26-1.05c1.8-1.3 2-3.2 2-3.2s.56-2.1 2.3-3.55c1.77-1.4 3.65-1.1 3.65-1.1s2.4-.13 4.1-1.65c1.63-1.5 1.52-3.44 1.52-3.44s.2-2.2 1.8-3.9c1.5-1.7 3.4-1.7 3.4-1.7s2.4-.53 3.7-2.3c1.4-1.8 1-3.65 1-3.65s-.1-2.25 1.1-4.1 3.1-2.2 3.1-2.2 2.24-.9 3.36-2.8c1.1-2 .4-3.8.4-3.8s-.46-2.2.5-4.26c1-2.06 2.7-2.68 2.7-2.68s2.1-1.2 2.9-3.4c.8-2.1-.15-3.8-.15-3.8s-.8-2.1-.13-4.2c.6-2.2 2.2-3.1 2.2-3.1s1.9-1.58 2.3-3.77c.4-2.2-.75-3.7-.75-3.7s-1.1-1.9-.8-4.2c.23-2.2 1.8-3.4 1.8-3.4s1.6-1.7 1.7-4c.1-2.27-1.3-3.57-1.3-3.57s-1.4-1.7-1.5-4c-.1-2.25 1.2-3.6 1.2-3.6s1.3-2.03 1-4.27c-.3-2.3-1.88-3.3-1.88-3.3s-1.7-1.5-2.1-3.7c-.4-2.2.7-3.8.7-3.8s.9-2.2.3-4.4c-.6-2.2-2.33-3-2.33-3s-1.9-1.27-2.7-3.37c-.78-2.14.02-3.8.02-3.8s.64-2.36-.3-4.4c-.95-2-2.8-2.54-2.8-2.54s-2.05-.9-3.2-2.85c-1.1-1.95-.53-3.73-.53-3.73s.3-2.4-1-4.3c-1.2-1.9-3.14-2.1-3.14-2.1s-2.2-.56-3.6-2.4c-1.4-1.76-1.16-3.64-1.16-3.64s-.2-2.38-1.7-4.07c-1.5-1.66-3.42-1.56-3.42-1.56s-2.2-.2-3.82-1.8c-1.65-1.5-1.7-3.4-1.7-3.4s-.5-2.3-2.3-3.7c-1.75-1.4-3.63-1.08-3.63-1.08s-2.2.1-4.1-1.2c-1.9-1.27-2.2-3.14-2.2-3.14s-.8-2.2-2.8-3.3c-1.93-1.1-3.75-.5-3.75-.5s-2.27.5-4.3-.6c-2.05-1-2.6-2.7-2.6-2.7S140.1 8 138 7.2c-2.15-.8-3.8.1-3.8.1s-2.1.77-4.3.1c-2.2-.6-3-2.3-3-2.3s-1.3-1.8-3.5-2.3c-2.25-.44-3.77.7-3.77.7s-1.96 1.1-4.2.8c-2.24-.3-3.34-1.9-3.34-1.9"/>
  <path fill="url(#b)" stroke="#000" stroke-width=".9" d="M196.25 100c0 51.38-42.28 93.04-94.45 93.04-52.16 0-94.45-41.65-94.45-93.04 0-51.4 42.28-93.05 94.45-93.05 52.16 0 94.45 41.66 94.45 93.05z"/>
  <path fill-opacity=".31" stroke="#000" stroke-width=".9" d="M129.4 114.86c-.72 7.84 1.52 24.23 17.5 23.5 4.33-.22 13.64-4.58 18.24-10.57 6.05-8 11.62-16 14.34-25.8 2.66-9.5 5.16-16.6 2.45-30.2-.73-3.8-3.08-12-13.1-13.3-8.13-1.1-14.23 4.1-17.77 6.5-3.34 2.2-12.4 10.4-16.64 23.1-2.3 6.9-3.5 11.2-3.75 14.1zm34.48-52.38c.3 0 .6.04.9.13 10.05 3.4 5.34 25.8 2.4 38.2-2.9 12.2-12.05 34.1-19 32.4-9.96-2.5-5.57-26.5-2.42-39.3 2.8-11.3 12.02-31.3 18.12-31.4z"/>
  <path fill="url(#c)" d="M139.9 146.57c-.34.62-.55 1.32-.62 2.08-.04.7.02 1.33.15 1.9.23-1.3.4-2.63.46-4z"/>
  <path fill-opacity=".31" stroke="#000" stroke-width=".9" d="M145.88 143.54c-2.83 0-5.06 2.1-5.3 5.1-.14 3.56 1.77 5.58 3.92 5.6 2.36 0 4.2-1.3 5.06-5-.16-.07.68-4.83-3.68-5.7zm-.64.6c.17 0 .34 0 .5.04 2.76 1.33 2.34 2.46 2.3 4.87-.4 2.12-1.23 4.84-3.6 4.44 0 0-3.13-.2-2.4-5.1.62-2.6 1.66-4.2 3.28-4.3z"/>
  <path fill-opacity=".13" stroke="#000" stroke-width=".9" d="M110.32 144.4l-.75.03h-.05c-.23.08.73-.04.8 0z"/>
  <path fill-opacity=".31" stroke="#000" stroke-width=".9" d="M116.55 145.82v-1.25l.04-.92c0-.16-7.4-.08-7.4-.08s-.3.2-.3.34c0 .2 0 .4.1.5.1.1.5.2.5.2h.8s-.2 5.5-1.2 8.1c-.1.2-.2.4-.3.5-.1.1-.3.2-.4.3-.3.2-1 .2-.9.5.1.4.9.1 1.3.1.5.1 1.6.1 1.6.1h1.6l1.8.1h1.2l.8-.5.2-.7c.1-.2.3-.5.2-.7 0-.1-.1-.3-.2-.4-.1-.1-.2-.1-.3 0-.3.2-.1.8-.3 1-.1.2-.6.4-.6.4l-.6.3-1.3.2H111l-.34-.13-.37-.42.2-1 .5-2.7.5-.14h2.3l.2.2v1.16l.3.3.3-.26-.1-1.6.6-1.2-.2-.38h-.2l-.4.6-.38.4-.4.14-1.2.17h-.7l-.3-.04.7-3.8 1.2-.17h1.4l.8.06.2.5.2 1.1c.2.2.4.1.6 0zm2.47-2.05l1.65.05 1.4-.02h.73l.1.18-.04.18h-.52l-.52.06-.3.15-.04.1-.1.53-.93 5.63-.06.78v.7l.2.5.9.5 1.2.1 1-.2.6-.5.5-.6.3-.9.3-1.5.3-2.1.2-1v-1.7l-.1-.2-.2-.1h-.8l-.1-.2v-.2l.3-.1h2.7v.3l-.1.1c-.2-.04-.4 0-.6 0-.4.07-.4.4-.5.6l-.48 1.9-.9 4.56-.8 1.6c-.45.5-1.03.7-1.6.9-.6.1-1.3.2-2 .1s-1.24-.4-1.76-.65c-.4-.3-.65-.7-.86-1.3.1-1.1.1-2.3.3-3.4l.6-3.8c.1-.4 0-.6-.2-.63h-.8l-.05-.2zm12.4-.02c-.18.1-.28.25-.2.47l.96.25-1.32 8.3c0 .06 0 .15-.04.2 0 .06-.05.04-.15.1l-.9.44c-.04.1.06.3.17.3 1.67.3 3.75 0 3.8.1l.1-.3-1.2-.2c-.15 0-.3-.2-.25-.3.3-1.3.6-4 .9-4.1l.5.3c.3.2.3.3.4.3 0 0 1 3.6 2.5 4.5.5.4 1.4.4 2.1.2.1 0 .3-.1.3-.2-.1-.2-.3-.1-.5-.2l-1.1-.4-2.2-4.1c3-1.4 3.1-3.7.8-4.9l-4.8-.1zm2.28 10.1v.02h.05zm.9-9.57l.5.02c.33 0 .67 0 .95.2.3.2.47.5.54.86 0 .3 0 .73-.1 1.04-.1.42-.2.9-.5 1.26-.3.26-.6.52-1 .62-.4.1-.7.1-1.1.1-.3 0-.8.06-.7-.15.1-1.62.6-3.5.6-3.86-.1-.2.2-.2.5-.2zm-34.27 12.45c.22 1.3 1.4 1.1 1.5 0l1.48-5.3c1.2-2.67-.6-2.48-1.3-1.32-11-1.1-15.1.5-16.6 1.5-5.1 3.7-6.3 7.5-6.2 11.4.2 7.9 6.6 9.7 9.6 10.4 2 .4 5.5.4 8.3-.2 1.1-.2 1.9-.7 2.6-1.6 1.4-1.6 2.5-6.2 2.5-6.2-.3-.8-.9-.7-1.5-.3-1.3 3-3.4 6.2-6.1 6.3 0 0-8.5.6-9.6-7.8-.8-6.9 4.8-11.7 10-12.2 6-.5 5.9 3.2 5.9 3.2zm15.9 3.8l-.03-1.88.03-1.36c0-.3-11.55-.1-11.55-.1s-.4.2-.44.5c-.04.2.04.4.22.6.2.2.8.2.8.2l1.2-.1s-.3 8.2-1.93 12c-.1.2-.3.5-.52.7-.2.2-.4.2-.6.4-.4.2-1.5.2-1.4.6.2.6 1.4.1 2.1.1h5.1l2.8.1 2-.1 1.3-.8s.3-.7.4-1.1c.1-.3.3-.7.3-1 0-.3-.1-.5-.3-.6-.1-.1-.3-.1-.5 0-.4.3 0 1.1-.4 1.5-.2.2-.9.5-.9.5l-.9.36-2 .3h-3l-.6-.27-.5-.6.3-1.43.8-4 .8-.2h3.5l.3.3v1.7l.6.5.47-.4-.17-2.4.92-1.8-.4-.5h-.3l-.7.98-.5.6-.7.3-1.84.2h-1.1l-.5-.2 1.1-5.65 1.88-.26h2.17l1.3.1.4.8.2 1.6c.3.3.6.1.94 0zm.4 10.82l1.4-.1c.4-.03.8.53 1.2-.92l2.98-9.22c.5-2-1.1-2.2-3.1-2.2v-1.5h5.7l5.7 11.3 1.6-7.7c.6-2-.2-1.5-.7-1.9h-2.1v-1.4l7.8-.1-.1 1.4c-.8.2-1.7-.5-2.2 1l-2.5 10.6 1 1.4c.5.7.9 1.3-.1 1.2l-3.4.1-6.2-11.3-2.1 7.7c-.9 2 .4 1.5 1.3 1.5l2.5.1v1.5l-8.6.2zm21.9 1.4v-1.2l2.4-.58c.58.2.88-.65 1.22-1.4l2.88-9.68c1-2.3-1.18-1.6-2.24-1.6-1.5.7-2.9 1.7-3.3 3.6-1.6.6-1.5-.1-1.4-.7l1.1-3.1c.3-.5.3-1.2 1.6-1.2l12.2.1c1-.1 1.1.8.9 1.7l-.5 2.5c-1 1.4-1.4.5-1.8-.1l.2-1.6c-.1-1.6-3.4-2-4.1-.3l-3 10.5c-.6 1.2.8.9 1.7 1 1.1.7 1.4 1.3 1.5 2z"/>
  <path fill-opacity=".31" stroke="#000" d="M105.1 68.2c-4.2-.37-4.62-1.36-.08-2.84l26.07-8.42c.8 0 2.9-1.4 2 .62l-16.5 63.24c-1.2 4.7-3 10.28 5.6 12.5l6.1 1.6c1.6.2 2.3 3.07.2 3.3l-40.7-.3c-3.8.27-3.7-3.6 0-3.9l4.8-.05c2.9.1 8-3.53 9.7-10l12.8-50.53c.9-3.2-.1-4.12-1.9-4.27z"/>
</svg>
