<svg xmlns="http://www.w3.org/2000/svg" width="199.99" height="200">
  <defs>
    <linearGradient id="a" x1="50.54" x2="1018" y1="532.89" y2="532.89" gradientUnits="userSpaceOnUse" gradientTransform="matrix(.2 0 0 .2 -9 -8.7)">
      <stop stop-color="#d47440" offset="0"/>
      <stop stop-color="#d27341" offset=".02"/>
      <stop stop-color="#dd7d48" offset=".03"/>
      <stop stop-color="#f27733" offset=".06"/>
      <stop stop-color="#df6e2f" offset=".13"/>
      <stop stop-color="#e8996e" offset=".25"/>
      <stop stop-color="#dd5c10" offset=".5"/>
      <stop stop-color="#db6c2a" offset=".75"/>
      <stop stop-color="#de9260" offset="1"/>
    </linearGradient>
    <linearGradient id="b" x1="115.04" x2="971.33" y1="289.7" y2="713.62" gradientUnits="userSpaceOnUse" gradientTransform="matrix(.2 0 0 .2 -.5 -.2)">
      <stop stop-color="#ff8c4e" offset="0"/>
      <stop stop-color="#ff8c4e" offset=".02"/>
      <stop stop-color="#ff8643" offset=".03"/>
      <stop stop-color="#ff8e50" offset=".06"/>
      <stop stop-color="#ff7325" offset=".13"/>
      <stop stop-color="#ffac7e" offset=".25"/>
      <stop stop-color="#ff6f1b" offset=".5"/>
      <stop stop-color="#ff8e4a" offset=".75"/>
      <stop stop-color="#ffae7a" offset="1"/>
    </linearGradient>
  </defs>
  <path fill="url(#a)" stroke="#000" stroke-width="2" d="M198.5 100c0 54.4-44.1 98.5-98.5 98.5S1.5 154.4 1.5 100 45.6 1.5 100 1.5s98.5 44.1 98.5 98.5z"/>
  <path fill="url(#b)" stroke="#000" d="M190.82 99.7c0 50-40.66 90.54-90.82 90.54S9.18 149.7 9.18 99.7 49.84 9.18 100 9.18c50.15 0 90.82 40.54 90.82 90.54z"/>
  <path fill="none" stroke="#000" d="M119.66 28.6l-.43 2h-1c-.1-.4-.18-.67-.26-.82-.08-.14-.2-.25-.34-.33-.14-.1-.4-.13-.78-.13h-1.62l-.64 3h.9c.2 0 .4-.04.5-.07.1-.06.2-.16.3-.27.1-.13.2-.32.3-.57h.8L117 34h-.84c0-.2-.07-.4-.13-.5-.08-.1-.15-.2-.27-.22-.1-.06-.26-.1-.5-.1h-1l-.7 3.35h2.03l.3-.1.3-.2.3-.26c.1-.1.1-.2.2-.36.1-.1.2-.3.4-.6h1l-.6 2.3h-7.3v-.4c.2 0 .3-.1.4-.1s.2-.1.3-.2c.1-.1.1-.2.2-.3l.1-.5 1.1-5.4.1-.5c0-.1 0-.2-.1-.3 0-.1-.1-.1-.2-.2-.1 0-.2-.1-.4-.1l.1-.4zm7.65 1.57c.1-.3.1-.53.1-.66 0-.1 0-.2-.1-.2-.1-.1-.2-.1-.5-.2l.1-.4h3.3l-.1.4c-.2.1-.3.1-.4.2-.1.1-.2.1-.3.2 0 .1-.1.2-.1.3l-.1.5-.8 3.9c-.1.5-.2 1-.4 1.3-.2.4-.4.7-.6.9-.3.3-.6.5-.9.6-.3.2-.7.3-1.1.3-.4.1-.8.1-1.3.1-.7 0-1.3-.1-1.7-.2-.5-.1-.8-.3-1.1-.5-.2-.2-.4-.5-.4-.9-.1-.3 0-.8.1-1.3l.9-4 .1-.5v-.3c0-.1-.1-.1-.12-.2-.1-.1-.3-.1-.4-.1l.1-.4h3.9l-.1.4c-.2.1-.4.1-.5.2-.1.1-.2.2-.3.2l-.14.3c0 .1-.1.3-.1.6l-.8 4.1c-.03.3-.1.7-.1.9 0 .3.1.5.16.7.1.2.16.4.4.5.24.1.5.2.9.2.5 0 .9 0 1.16-.2.3-.1.5-.4.7-.7.2-.3.36-.8.5-1.4zm6.2 6.98h-3.9l.1-.4.5-.14c.2 0 .3-.1.3-.2.1 0 .2-.2.2-.3l.1-.5 1.3-5.9c.1-.1 0-.2 0-.3 0-.1-.1-.1-.1-.2-.1 0-.2-.1-.4-.1l.1-.4h4.3c.6 0 1.1 0 1.5.1.4.1.7.2 1 .3.3.1.4.3.6.5.2.2.3.4.3.7.1.3.1.5 0 .8 0 .4-.2.8-.4 1.1-.3.3-.5.6-.9.8-.3.2-.7.4-1.3.6v.1c.3.2.6.3.8.6.2.2.4.5.5.9l.3.9c.2.4.3.7.5.88.2.2.4.3.7.4l-.1.4h-2.83c-.2-.3-.4-.8-.65-1.44l-.4-1.05c-.1-.3-.2-.53-.3-.66-.1-.14-.2-.24-.4-.3-.12 0-.32-.05-.6-.05h-.42l-.44 2c-.1.33-.1.55-.1.7 0 .1.03.2.1.3.1.1.3.14.5.2zm.9-7.8l-.7 3.48h.8c.4 0 .8-.05 1-.14.3-.1.5-.3.7-.4.2-.2.4-.4.5-.6.1-.2.2-.5.3-.7.2-.6.1-1-.2-1.3-.2-.3-.7-.5-1.3-.5h-.8zm9.8 7.9c-1.4 0-2.5-.36-3-1.07-.5-.73-.7-1.8-.4-3.23.2-.94.6-1.75 1.1-2.4.5-.68 1.1-1.2 1.9-1.53.8-.35 1.6-.52 2.6-.52 1.5 0 2.5.35 3.1 1.07.6.72.8 1.78.5 3.2-.1.8-.4 1.46-.7 2.03-.3.57-.7 1.03-1.2 1.4-.5.36-1.1.63-1.7.8-.6.17-1.2.25-1.9.25zm-1.1-4.47c-.2 1.26-.3 2.2 0 2.82.3.6.7.92 1.5.92.4 0 .8-.08 1.1-.26.3-.17.6-.4.8-.72.3-.3.5-.7.6-1.1.2-.42.3-.9.4-1.4.2-.83.3-1.53.3-2.1 0-.55-.2-1-.4-1.28s-.6-.4-1.1-.4c-.7 0-1.3.27-1.8.86-.5.6-.8 1.48-1.1 2.68zm-21.6 7.35l-.5 3.6h-1.7c-.1-.73-.3-1.2-.4-1.46-.1-.25-.3-.45-.6-.6-.2-.14-.6-.22-1.3-.22h-3l-.8 5.42h1.7c.3 0 .6-.05.8-.15.2-.1.4-.25.6-.46.1-.22.3-.56.5-1h1.4l-.7 4.57H116c-.06-.44-.1-.77-.23-1-.12-.23-.25-.4-.43-.5-.18-.1-.48-.14-.87-.14h-1.65l-.95 6h2.74c.3 0 .6 0 .8-.1.2-.1.4-.1.6-.2.2-.1.4-.2.5-.4.2-.2.4-.3.5-.5.2-.2.3-.4.5-.7s.4-.7.6-1.1h1.7l-.9 4.1h-12.2l.2-.8c.3-.1.6-.2.8-.3.2-.1.4-.2.5-.4l.3-.6.2-.9 1.6-9.7c.1-.4.1-.7.1-.9v-.6c0-.2-.2-.3-.3-.4-.1-.1-.4-.2-.7-.3l.1-.8zm17.6 0l-.1.75c-.3.1-.9.07-1.3.25-.1.07-.3.15-.4.27-.1.12-.2.3-.3.5-.1.25-.1.6-.2 1.07l-2 12.56h-3.2l-4.2-8.78c-.6-1.2-1-2.12-1.2-2.8h-.1c-.2 1.62-.4 3.33-.7 5.12l-.6 3.64c-.1.6-.1 1-.1 1.2 0 .3.1.4.3.6s.5.3.9.4l-.1.8H121l.1-.7c.3-.1.57-.1.77-.2.2 0 .36-.2.48-.3.1-.1.2-.3.3-.5l.2-.8 1.4-10c.1-.6.14-.9.1-1.2 0-.2-.1-.4-.24-.5s-1.5-.22-2-.4v-.7h6.3l3.3 6.96c.2.4.5 1 .8 1.76l.9 2.1h.2c.2-1.8.5-3.8.8-5.9l.3-2.15c.1-.5.1-.87.1-1.1 0-.22 0-.4-.1-.5 0-.1-.2-.22-.3-.3-.6-.3-1.8-.15-2.1-.23v-.76zm-30-7.27l-2.5 7.8H105c-.07-1.28-.64-5.08-1.27-5.7-.63-.6-1.6-.9-2.84-.9-2.4 0-5.4.87-7.3 2.5-1.9 1.55-3.2 3.93-3.7 6.3-.7 3-.6 6.55 1 9.13.6.9 1.7 1.4 2.8 1.6 1.7.4 3.5.3 5.2-.2 1.1-.4 2.1-1.2 2.9-2 1-1 1.7-2.5 2.3-3.5l1.4.8-2 6.3c-1.8.3-3.3.5-4.7.6-1.4.1-3.9.5-5.8.1-1.6-.4-3.2-1-4.4-2-1.4-1.1-2.5-2.6-3.1-4.2-.9-2.4-1.2-5-.7-7.5.2-1.6 1.1-3.1 2.1-4.4 1.5-1.8 3.6-3.3 5.8-4.2 2.5-1.1 5-1.5 8-1.5 1.5 0 2.8.1 4 .2 1.1.1 2.4.3 3.7.6z"/>
  <path fill-opacity=".31" stroke="#000" d="M62.45 107.5c-.42 2.4-.68 4.7-.23 6.97.3 1.55.93 3.12 1.96 4.32 1.3 1.5 3.14 2.5 5 3.3 2.6 1 6.57 1.8 8.22 1.9l-.12 2h-47.1l-.14-3.3c3.97-.2 6.94-.6 10.1-2 1.5-.7 2.86-1.7 4-2.9.98-1 1.6-2 2.36-3.4.77-1.4 1.6-3.6 2.38-6.7l11.57-46.8c.2-.8.58-2.5.9-4.3.4-2.3.7-4.1.56-5.1-.1-1-.9-1.5-1.9-2-.8-.4-2.8-.9-5.7-.8-2.3-.1-4.5.5-5.7-.8l-.2-2.9c9-1.6 17.8-3.1 29.7-10.6l4 .2c-1.3 4.2-3 10-4.9 17.5z"/>
  <path fill="none" stroke="#000" d="M140.16 55.53l.13-.75c.3-.05.5-.12.7-.2.2-.1.3-.2.5-.37.1-.1.2-.3.3-.6l.2-.9 2-11.2h-1c-.5 0-.8.1-1.1.2-.3.1-.5.3-.7.5-.2.2-.4.5-.6.9-.2.4-.4.8-.5 1.1h-1.6l.7-3.9h13.3l-.7 4h-1.6l-.1-1.1c0-.2-.1-.4-.2-.6-.1-.1-.2-.3-.3-.4-.1-.1-.2-.2-.3-.2s-.3-.1-.5-.1h-1.6l-2 11.2c-.1.5-.1.7-.1 1v.5c0 .1.1.2.2.3.1.1.2.2.3.2.1.1.3.2.6.2l-.1.8z"/>
  <path fill-opacity=".31" d="M104.9 40.6l1.62-.05 2.2-7.7c-3.67-.5-7.1-1-10-.65-8.7 1.06-13.58 6.02-13.8 11.04-.1 2.42.17 5.68 1.8 8.3 1.58 2.53 4.45 4.45 8.26 4.4 2.96.1 5.76-.46 8.58-.9l2.07-6.2-1.34-.74c-1.6 3.28-4.4 5.7-8.9 5.93-6.6-.6-6-6.1-6.1-8.9-.1-3.18 1.6-7.65 5.8-9.74 1.5-.6 2.2-1.3 6-1.4 1.5.3 2.6.7 2.7 2.2.4 1.4.6 3.1.8 4.3zm7.28-11.58l.08-.43h7.4l-.37 1.9h-1.1c-.2-1-.7-1.3-1.2-1.2h-1.8l-.6 2.9h1.1c.7 0 .8-.5 1.1-.9l.8-.1-.6 2.5h-.9c0-.5-.1-.8-.6-1h-1.3l-.8 3.3 2.1-.1c1-.4 1.1-1 1.4-1.5h1.1l-.7 2.3h-7.4l.02-.5c.5-.1.74-.3.9-.7l1.34-6.4c.05-.4-.2-.6-.66-.7zm8.63 0l.2-.45 3.9.05-.1.35c-.6.18-.8.5-.9.93l-1.1 5.13c-.1.83.3 1.37 1.2 1.5 1.2.16 2.2-.46 2.4-1.27l1.2-5.6c0-.46-.3-.5-.6-.6l.1-.42 3.3.02-.1.4c-.5.1-1 .22-1 .88l-1.2 5.32c-.5.9-1.2 1.5-2 1.8-.6.1-.9.25-1.9.3-2.3.03-2.7-.54-3-.8-.6-.93-.4-1.24-.4-1.7l1.1-5.27c0-.4-.4-.4-.6-.5zm10.6-.46v.46c.3.1.6.16.7.56l-1.3 6.44c-.1.42-.4.65-1 .7v.42l4 .02.1-.47c-.7-.2-.6-.5-.6-.7l.5-2.5h.8c.3 0 .6.1.9.7.2 1 .7 1.9 1 2.8h2.8l.2-.5c-.2-.1-.6-.2-.8-.4-.2-.3-.3-.8-.5-1.3-.1-.9-.6-1.3-1.2-1.8.7-.1 2.5-1 2.6-2.4.1-1 0-1.7-2-2.2l-5.6-.1zm4.3.78c.8.17 1.3.63 1.1 1.76-.6 1.84-1.8 1.7-2.3 1.78l-.8-.04.7-3.46 1.4-.02zm10.4-.9c-3.4.23-4.6 2-5.3 4.13-1.1 4.74 2.5 4.74 3.6 4.7 1.9-.2 4.4-.5 5.3-4.4.6-2.95-.4-4.17-3.6-4.4zm.1.8c2 .27 1.4 2.5 1.3 3.9-1.1 3.7-2.3 3.28-3 3.36-1.4-.12-1.7-1.57-1.1-4.12.6-1.53 1.1-3.1 3-3.12zM109 40.9l.1-.75 12.3.04-.5 3.5h-1.7c-.37-1.8-1.1-2.4-1.9-2.3H114l-.87 5.4 1.92-.1c1.1.1 1.4-.8 1.74-1.6h1.3l-.7 4.5h-1.5c0-.8-.4-1.3-1-1.7h-2.1l-1.1 6.1h3.7c1.5-.7 1.8-1.9 2.4-2.9l1.6.1-.9 4.1h-12.2l.1-.8c.9-.1 1.4-.7 1.5-1.26l1.8-11.4c.1-.76-.2-1-.8-1.18zm12.83-.8v.7l1.8.43c.2.22.5.18.4.97l-1.9 11.6c-.26.35-.12.72-1.4 1.03l-.1.72 4.7.07.03-.77c-1.2-.3-.93-.7-1.1-1.08l1.5-9.67 5.6 11.5 3.25.06 2.2-13.48c.4-1.35 1.3-1.04 2.1-1.2l.1-.75-6.9.04v.75l1.5.1c.7.04 1.2.17 1 1.3l-1.2 8.6-.1.02c-1.3-3.3-3.2-7.13-5-10.85zm16.9 3.98l.7-3.95 13.24.08-.6 3.9h-1.6c-.06-2.2-.8-2.5-1.7-2.6h-1.24l-2.1 12.1c-.17 1.3.6 1.2 1.14 1.4l-.1.8-6.3-.1.08-.7c1.4-.2 1.45-.8 1.63-1.3L144 41.5l-1.15-.03c-1.48.1-2.02 1.47-2.7 2.65z"/>
</svg>
