<svg xmlns="http://www.w3.org/2000/svg" width="201.52" height="200" xmlns:xlink="http://www.w3.org/1999/xlink">
  <defs>
    <linearGradient id="a">
      <stop stop-color="#e6e6e6" offset="0"/>
      <stop stop-color="#ccc" stop-opacity=".75" offset="1"/>
    </linearGradient>
    <linearGradient id="b" x1="-225.11" x2="980.7" y1="472.53" y2="472.53" xlink:href="#a" gradientUnits="userSpaceOnUse" gradientTransform="matrix(.2 0 0 .2 329.5 727.8)"/>
    <linearGradient id="c" x1="-177.48" x2="946.05" y1="459.51" y2="459.51" xlink:href="#a" gradientUnits="userSpaceOnUse" gradientTransform="matrix(.2 0 0 6 327.9 -1960.7)"/>
    <linearGradient id="d" x1="-224.48" x2="1012.4" y1="129.08" y2="129.08" gradientUnits="userSpaceOnUse" gradientTransform="matrix(.1 0 0 .2 346.9 782.6)">
      <stop stop-color="#d0c27b" offset="0"/>
      <stop stop-color="#d0c27b" stop-opacity=".78" offset="1"/>
    </linearGradient>
    <linearGradient id="e" x1="-224.48" x2="1012.4" y1="129.08" y2="129.08" xlink:href="#a" gradientUnits="userSpaceOnUse" gradientTransform="matrix(.1 0 0 .2 346.9 782.6)"/>
  </defs>
  <path fill="url(#b)" stroke="#000" stroke-width="2" d="M492.2 807.4c0 54.74-44.7 99.1-99.85 99.1-55.16 0-99.87-44.36-99.87-99.1 0-54.7 44.7-99.08 99.87-99.08 55.15 0 99.86 44.37 99.86 99.1z" transform="translate(-291.6 -707.4)"/>
  <path fill="url(#c)" stroke="#000" d="M488.32 806.85c0 52.4-42.63 94.68-95.23 94.68s-95.3-42.34-95.3-94.56c0-52.4 42.6-94.68 95.2-94.68s95.2 42.3 95.2 94.5z" transform="translate(-291.6 -707.4)"/>
  <path fill="url(#d)" stroke="#000" stroke-width=".6" d="M465.65 807.48c0 39.64-32.48 71.78-72.55 71.78-40.06 0-72.55-32.13-72.55-71.78 0-39.64 32.48-71.78 72.55-71.78s72.55 32.14 72.55 71.78z" transform="translate(-291.6 -707.4)"/>
  <path fill="url(#e)" d="M464.87 811.2c-.6 1.24-1 2.63-1.12 4.13-.08 1.4.03 2.65.26 3.8.5-2.6.8-5.25.9-7.93z" transform="translate(-291.6 -707.4)"/>
  <path fill-opacity=".31" stroke="#000" stroke-width=".6" d="M183.2 97.82c-5.9 0-10.56 4.16-11.06 10.12-.34 7 3.68 11 8.16 11.07 4.95 0 8.82-2.6 10.6-9.9-.32-.1 1.42-9.5-7.7-11.2zm-1.33 1.2c.35 0 .7 0 1.07.06 5.75 2.65 4.86 4.88 4.82 9.66-.9 4.18-2.62 9.56-7.58 8.76 0 0-6.55-.27-5.1-10.08 1.3-5.25 3.47-8.3 6.8-8.4zm-51.2 3.3v-2.5l.03-1.8c0-.3-13.46-.14-13.46-.14s-.46.4-.52.67c-.05.27.06.6.26.8.23.22.94.22.94.22l1.44-.1s-.32 10.92-2.2 16c-.14.3-.35.63-.6.9-.22.2-.5.37-.77.48-.6.27-1.8.2-1.7.8.1.8 1.6.1 2.4.16.9.1 2.9.1 2.9.1h2.83l3.3.2 2.3-.1 1.5-1 .43-1.44c.1-.47.4-.95.33-1.43-.06-.3-.16-.7-.43-.85-.14-.1-.35-.1-.5 0-.6.45-.1 1.5-.54 2.1-.27.3-1.13.75-1.13.75l-1.1.46-2.4.33h-3.3l-.7-.4-.65-.84.32-1.9.95-5.4.88-.37h4.06l.32.3v2.3l.6.56.56-.58-.13-3.2 1.1-2.4-.42-.77h-.25l-.8 1.2-.6.73-.8.32-2.12.2h-1.3l-.6-.2 1.3-7.55 2.2-.33h2.4l1.56.05.43 1 .2 2.2c.37.3.75.1 1.14-.1zm4.5-4.04l3 .1 2.58-.05h1.35l.2.36-.04.3h-.97l-.9.2-.6.3-.1.2-.2 1.1-1.6 11.2-.14 1.6.06 1.32.53 1 1.67 1 2.33.17 1.9-.4 1.12-.94.9-1.17.7-1.8.6-3.07.7-4.2.4-2.06c.03-1 0-1.06.03-1.6l.1-1-.02-.64-.05-.57-.4-.16h-1.1l-.47-.15-.07-.4.06-.3.4-.1 1.8.06 2.13.05h1l.04.54-.17.27c-.3 0-.62 0-.94.07-.62.15-.62.8-.9 1.27l-.9 3.8-1.6 8.94-1.4 3.2c-.9 1-1.85 1.5-2.9 1.77-1.25.27-2.4.4-3.65.27-1.28-.15-2.3-.7-3.26-1.27-.65-.6-1.13-1.47-1.55-2.4.04-2.3.2-4.56.52-6.75l1.16-7.63c.16-.74.06-1.1-.3-1.22l-1.5-.03V99zm20.2-.04c-.3.2-.47.48-.33.92l1.74.5-2.4 16.4c-.02.15.03.33-.05.44-.1.1-.16.06-.38.16-.44.2-1.2.58-1.6.9-.12.1.1.5.27.54 3 .56 6.8 0 6.93.14l.13-.7-2.2-.48c-.3-.05-.6-.53-.52-.8.64-2.72 1.16-8.1 1.74-8.2l.98.36c.53.27.65.48.76.43 0 0 1.8 6.93 4.6 8.8 1 .7 2.55.8 3.77.43.3-.1.7-.32.6-.6 0-.3-.6-.26-.8-.36l-2-.86-4-8.16c5.6-2.77 5.8-7.47 1.5-9.76l-8.7-.37zm4.2 20zm1.63-18.95h.9c.64 0 1.28 0 1.76.4.6.4.86 1 1.02 1.7.16.7 0 1.4-.1 2.1-.17.8-.28 1.7-.8 2.5-.44.6-1.08 1-1.77 1.3-.5.2-1.2.2-1.9.2-.4-.1-1.3.1-1.3-.3.4-3.2 1.3-6.9 1.2-7.6 0-.4.6-.5 1.1-.5z"/>
  <path fill-opacity=".31" stroke="#000" d="M23.72 130.07c16.8-12.06 30.47-25.3 44.02-38.94 4.05-4.07 10.14-10.1 11.46-22.67.64-6.13-1.87-14.8-10.83-15.5-12.7-.98-18.94 9.2-23.15 11.98-1.6.63-3.74.2-4-2.3-1.4.68 9.28-14.9 17.12-19.05 6.08-3.3 15.68-4 20.54-2.7 8.74 2.3 16.48 8.8 16 22.1-.6 15.2-6.72 21.1-13.7 29.3-9.35 10.9-33.94 29.7-33.94 29.7h29.34s2.88.2 7.2-2.7c2.35-1.6 4.96-6.9 4.96-6.9l3.8 1.54-8.8 21.32-57.94.35z"/>
</svg>
