<?xml version="1.0" encoding="UTF-8" standalone="no"?>
<!-- Generator: Adobe Illustrator 12.0.1, SVG Export Plug-In . SVG Version: 6.00 Build 51448)  -->

<svg
   xmlns:dc="http://purl.org/dc/elements/1.1/"
   xmlns:cc="http://creativecommons.org/ns#"
   xmlns:rdf="http://www.w3.org/1999/02/22-rdf-syntax-ns#"
   xmlns:svg="http://www.w3.org/2000/svg"
   xmlns="http://www.w3.org/2000/svg"
   xmlns:xlink="http://www.w3.org/1999/xlink"
   xmlns:sodipodi="http://sodipodi.sourceforge.net/DTD/sodipodi-0.dtd"
   xmlns:inkscape="http://www.inkscape.org/namespaces/inkscape"
   id="Layer_1"
   sodipodi:docname="chinos_1.svg"
   xml:space="preserve"
   overflow="visible"
   viewBox="0 0 317.695 254.327"
   version="1.1"
   enable-background="new 0 0 317.695 254.327"
   inkscape:version="0.92.1 r15371"><defs
     id="defs16"><pattern
       y="0"
       x="0"
       height="6"
       width="6"
       patternUnits="userSpaceOnUse"
       id="EMFhbasepattern" /><pattern
       y="0"
       x="0"
       height="6"
       width="6"
       patternUnits="userSpaceOnUse"
       id="EMFhbasepattern-4" /><pattern
       y="0"
       x="0"
       height="6"
       width="6"
       patternUnits="userSpaceOnUse"
       id="EMFhbasepattern-3" /><pattern
       y="0"
       x="0"
       height="6"
       width="6"
       patternUnits="userSpaceOnUse"
       id="EMFhbasepattern-1" /><filter
       style="color-interpolation-filters:sRGB"
       id="filter16769-2-3"
       width="1.2571"
       y="-0.52481002"
       x="-0.12853"
       height="2.0495999"
       inkscape:collect="always"><feGaussianBlur
         id="feGaussianBlur16771-4-6"
         stdDeviation="1.464063"
         inkscape:collect="always" /></filter><linearGradient
       inkscape:collect="always"
       xlink:href="#linearGradient16757-8"
       id="linearGradient2501"
       gradientUnits="userSpaceOnUse"
       gradientTransform="matrix(4.3476,0,1.2146,4.3476,-782.98997,670.0952)"
       x1="112.82"
       y1="92.767998"
       x2="129.48"
       y2="117.64" /><linearGradient
       id="linearGradient16757-8"
       y2="117.64"
       gradientUnits="userSpaceOnUse"
       x2="129.48"
       gradientTransform="matrix(4.3476,0,1.2146,4.3476,-528.65,543.24)"
       y1="92.767998"
       x1="112.82"
       inkscape:collect="always"><stop
         id="stop4659-9-5-47-90-9-8-1-1-7-8-52"
         style="stop-color:#ffffff"
         offset="0" /><stop
         id="stop4661-3-5-8-51-9-2-5-0-0-3-3"
         style="stop-color:#ffffff;stop-opacity:0"
         offset="1" /></linearGradient><radialGradient
       inkscape:collect="always"
       xlink:href="#radialGradient16675-6-6-9"
       id="radialGradient1041-5"
       gradientUnits="userSpaceOnUse"
       cx="285.23001"
       cy="4005.5"
       r="3.2639999" /><radialGradient
       id="radialGradient16675-6-6-9"
       gradientUnits="userSpaceOnUse"
       cy="4005.5"
       cx="285.23001"
       r="3.2639999"
       inkscape:collect="always"><stop
         id="stop4659-9-5-47-90-9-8-1-1-7-3-6-8-3"
         style="stop-color:#ffffff"
         offset="0" /><stop
         id="stop4661-3-5-8-51-9-2-5-0-0-8-89-3-3"
         style="stop-color:#ffffff;stop-opacity:0"
         offset="1" /></radialGradient><linearGradient
       inkscape:collect="always"
       xlink:href="#linearGradient16677-8-3"
       id="linearGradient1043-2-8"
       gradientUnits="userSpaceOnUse"
       x1="282.19"
       y1="3999.8"
       x2="288.51001"
       y2="4009.8" /><linearGradient
       id="linearGradient16677-8-3"
       y2="4009.8"
       gradientUnits="userSpaceOnUse"
       x2="288.51001"
       y1="3999.8"
       x1="282.19"
       inkscape:collect="always"><stop
         id="stop4659-9-5-47-90-0-6-8-0-4-3-7-0-8-5-0"
         style="stop-color:#ffffff"
         offset="0" /><stop
         id="stop4661-3-5-8-51-5-3-8-9-5-0-94-5-6-5-7"
         style="stop-color:#ffffff;stop-opacity:0"
         offset="1" /></linearGradient><filter
       style="color-interpolation-filters:sRGB"
       id="filter16769-0-9-6"
       width="1.2571"
       y="-0.52481002"
       x="-0.12853"
       height="2.0495999"
       inkscape:collect="always"><feGaussianBlur
         id="feGaussianBlur16771-5-5-0"
         stdDeviation="1.464063"
         inkscape:collect="always" /></filter><radialGradient
       inkscape:collect="always"
       xlink:href="#radialGradient16675-6-6-9"
       id="radialGradient1045-2"
       gradientUnits="userSpaceOnUse"
       cx="285.23001"
       cy="4005.5"
       r="3.2639999"
       gradientTransform="matrix(22.041,0,0,14.228491,-6415.8696,-55894.073)" /><linearGradient
       inkscape:collect="always"
       xlink:href="#linearGradient16677-8-3"
       id="linearGradient2503"
       gradientUnits="userSpaceOnUse"
       gradientTransform="matrix(15.592,0,0,10.065347,-4569.2985,-39212.498)"
       x1="282.19"
       y1="3999.8"
       x2="288.51001"
       y2="4009.8" /></defs><sodipodi:namedview
     id="namedview3141"
     bordercolor="#666666"
     inkscape:pageshadow="2"
     guidetolerance="10"
     pagecolor="#ffffff"
     gridtolerance="10"
     inkscape:window-maximized="1"
     inkscape:zoom="3.2281685"
     objecttolerance="10"
     borderopacity="1"
     inkscape:current-layer="Layer_1"
     inkscape:cx="158.84792"
     inkscape:cy="127.16251"
     inkscape:window-y="-8"
     inkscape:window-x="-8"
     inkscape:window-width="1920"
     showgrid="false"
     inkscape:pageopacity="0"
     inkscape:window-height="1018" /><g
     id="g5068"><path
       fill-rule="evenodd"
       d="m271 133.14c4.592 1.838 10.184-0.277 16-2-0.024 5.31-4.236 6.431-3 13 2.817-4.516 3.734-10.932 6-16-0.229-4.104-3.132-5.535-5-8 0.714-14.453 24.907-31.327 31-11-4.174 0.827-9.287 4.917-14 2-1.554 3.78-1.951 8.716-2 14 1.117 4.55 7.08 4.254 13 4 1.478 23.035-6.252 41.439-29 37-1.383-5.144 0.844-13.279 0-21-1.055 4.612-9.562 1.771-12 5-6.61-2.18-3.38-12.56-1-17z"
       clip-rule="evenodd"
       fill="#F5E0CD"
       id="path3105" /><path
       fill-rule="evenodd"
       d="m313 125.14c-5.024-1.167-8.718 2.553-12 0 0.007-4.327 2.321-6.346 2-11 6.192 1.825 10.324-3.63 13-2-0.2 5.14-2.64 8.03-3 13z"
       clip-rule="evenodd"
       fill="#F5E0CD"
       id="path3109" /><path
       fill-rule="evenodd"
       d="m268 149.14c2.403 3.597 8.918 3.082 15 3-0.492 21.528-7.853 61.67-40 46 0.744-16.256 5.623-28.377 12-39-16.502-18.84 15.388-53.628 33-32-2.079 3.941-12.264 5.042-17 3-3.34 3.53-5.19 13.21-3 19z"
       clip-rule="evenodd"
       fill="#F5E0CD"
       id="path3111" /><path
       fill-rule="evenodd"
       d="m228 182.14c1.562 4.486 12.311 3.861 14 0 2.589 11.636-4.719 21.291-9 30-6.998 14.236-14.289 26.938-38 21 1.168-12.554 8.496-27.464 19-34-2.082-6.584-4.56-12.774-10-16-0.416-23.783 35.293-51.764 48-23-5.42 3.247-12.535 4.799-20 6 0.27 6.94-4.03 9.31-4 16z"
       clip-rule="evenodd"
       fill="#F5E0CD"
       id="path3117" /><path
       fill-rule="evenodd"
       d="m241 182.14c-4.276 0.091-7.324 2.004-11 0 0.758-5.909 2.188-11.146 4-16 4.696 1.723 12.146 0.17 15-3 2.35 3.53-5.41 13.8-8 19z"
       clip-rule="evenodd"
       fill="#F5E0CD"
       id="path3119" /><path
       fill-rule="evenodd"
       d="m180 212.14c0.385-3.282 2.924-4.409 4-7 5.74 2.432 13.053 2.149 20 1-2.88 7.19-16.04 12.93-24 6z"
       clip-rule="evenodd"
       fill="#F5E0CD"
       id="path3121" /><path
       fill-rule="evenodd"
       d="m210 40.143c36.762 13.238 43.709 56.292 72 78 5.777-2.977 7.732-16.783 17-20 4-1.389 7.428-0.303 13 0 10.343 6.078 3.548 14.573 3 28-0.195 4.777 1.244 9.318 1 13-1.073 16.164-11.542 29.482-19 34h-10c-6.322 17.735-17.99 39.472-44 31-9.621 16.428-19.951 42.651-50 32-11.928 8.096-24.301 19.789-39 18-23.636-2.876-28.142-45.829-39-66-4.59-8.526-10.595-15.543-14-22-6.166-11.693-6.056-21.342-20-11-15.843 11.751-24.442 41.505-59 35-7.082-1.333-22.01-9.016-22-19 0.012-12.379 30.214-23.41 35-30 2.743-3.777 3.854-9.537 7-14 2.464-3.496 7.59-6.041 10-10 3.83-6.293 3.166-15.789 7-22 2.591-4.197 7.75-7.416 12-13 7.9-10.38 11.488-22.684 25-27 3.112-6.239-0.192-10.285 1-17 7.48-42.113 112.96-59.686 113 2.003zm-25-2c7.992 0.008 16.368-0.368 23 1-4.239-58.268-119.31-42.928-109 15 11.893 0.22 15.396-13.262 25-12-2.661 4.006-10.421 2.912-12 8 2.932 0.275 3.714-4.006 5 0-10.791 5.566-21.709 5.517-30 12-11.457 8.959-14.714 25.053-27 33-2.056 16.277-8.773 27.893-19 36-1.963 6.111-3.977 11.015-8 15-6.627 6.565-30.136 15.4-31 23-0.945 8.312 13.286 15.702 21 17 22.465 3.781 45.802-11.62 46-33 2.168-0.168 0.453 3.547 1 5 7.986-4.014 11.273-12.727 21-15 0.637 2.182-2.834 3.182 1 3 4.051 1.707 5.79 3.996 8 8 13.697 24.815 27.148 55.435 36 83 5.212 3.787 8.952 9.048 14 13 24.377-1.958 46.174-11.825 46-35-11.795 8.502-23.371-6.81-11-13 8.224 6.919 19.414 1.321 27-3-1.973-7.693-6.827-12.506-12-17-31.046-4.711-35.648 22.351-47 34 1.762-1.948 5.387-7.222 3-10-4.166 1.523-9.605 7.031-12 7 2.6-5.066 7.393-7.94 15-8 5.207-9.529 16.791-21.521-2-26 3.405-1.733 5.865 0.769 11 0 1.258 2.742 2.26 5.739 5 7 7.192-5.211 21.129-10.163 31-4 1.646-7.313-2.324-9.01-5-12-7.381-0.714-12.069 1.264-17 3 3.906-6.133 19.471-6.98 23 0 5.18-15.962 22.953-35.627 43-24 2.234-18.1 12.107-28.56 28-33-28.14-28.196-35.12-77.543-91-77.997zm19 168c-6.947 1.149-14.26 1.432-20-1-1.076 2.591-3.615 3.718-4 7 7.96 6.93 21.12 1.19 24-6zm28-40c7.465-1.201 14.58-2.753 20-6-12.707-28.764-48.416-0.783-48 23 5.44 3.226 7.918 9.416 10 16-10.504 6.536-17.832 21.446-19 34 23.711 5.938 31.002-6.764 38-21 4.281-8.709 11.589-18.364 9-30-1.689 3.861-12.438 4.486-14 0-0.03-6.69 4.27-9.06 4-16zm17-3c-2.854 3.17-10.304 4.723-15 3-1.812 4.854-3.242 10.091-4 16 3.676 2.004 6.724 0.091 11 0 2.59-5.2 10.35-15.47 8-19zm22-33c4.736 2.042 14.921 0.941 17-3-17.612-21.628-49.502 13.16-33 32-6.377 10.623-11.256 22.744-12 39 32.147 15.67 39.508-24.472 40-46-6.082 0.082-12.597 0.597-15-3-2.19-5.79-0.34-15.47 3-19zm1 20c2.438-3.229 10.945-0.388 12-5 0.844 7.721-1.383 15.856 0 21 22.748 4.439 30.478-13.965 29-37-5.92 0.254-11.883 0.55-13-4 0.049-5.284 0.446-10.22 2-14 4.713 2.917 9.826-1.173 14-2-6.093-20.327-30.286-3.453-31 11 1.868 2.465 4.771 3.896 5 8-2.266 5.068-3.183 11.484-6 16-1.236-6.569 2.976-7.69 3-13-5.816 1.723-11.408 3.838-16 2-2.38 4.44-5.61 14.82 1 17zm44-38c-2.676-1.63-6.808 3.825-13 2 0.321 4.654-1.993 6.673-2 11 3.282 2.553 6.976-1.167 12 0 0.36-4.97 2.8-7.86 3-13z"
       clip-rule="evenodd"
       id="path3123" /><path
       fill-rule="evenodd"
       d="m144 119.14c-6.497 6.17-14.221 11.113-24 14 7.88-4.79 16.07-9.26 24-14z"
       clip-rule="evenodd"
       id="path3129" /><path
       clip-rule="evenodd"
       inkscape:connector-curvature="0"
       sodipodi:nodetypes="cccccccccccccccccccccccccsccccccccccccccccc"
       d="m276 116.14c-15.893 4.44-25.766 14.9-28 33-20.047-11.627-37.82 8.038-43 24-3.529-6.98-19.094-6.133-23 0 4.931-1.736 9.619-3.714 17-3 2.676 2.99 6.646 4.687 5 12-9.871-6.163-23.808-1.211-31 4-2.74-1.261-3.742-4.258-5-7-5.135 0.769-7.595-1.733-11 0 18.791 4.479 7.207 16.471 2 26-7.607 0.06-12.4 2.934-15 8 2.395 0.031 7.834-5.477 12-7 2.387 2.778-1.238 8.052-3 10 11.352-11.649 15.954-38.711 47-34 5.173 4.494 10.027 9.307 12 17-7.586 4.321-18.776 9.919-27 3-12.371 6.19-0.795 21.502 11 13 0.174 23.175-21.623 33.042-46 35-5.048-3.952-8.788-9.213-14-13-8.852-27.565-22.303-58.185-36-83-2.21-4.004-3.949-6.293-8-8-3.834 0.182-0.363-0.818-1-3-9.727 2.273-13.014 10.986-21 15-0.547-1.453 1.168-5.168-1-5-0.198 21.38-23.535 36.781-46 33-7.714-1.298-21.945-8.688-21-17 0.864-7.6 24.373-16.435 31-23 4.023-3.985 6.037-8.889 8-15 10.227-8.107 16.944-19.723 19-36 12.286-7.947 15.543-24.041 27-33 8.291-6.483 19.209-6.434 30-12-1.286-4.006-2.068 0.275-5 0 1.579-5.088 9.339-3.994 12-8-9.604-1.262-13.107 12.22-25 12-10.31-57.928 104.76-73.268 109-15-6.632-1.368-15.008-0.992-23-1 55.879 0.454 62.865 49.801 91 78zm-156 17c9.779-2.887 17.503-7.83 24-14-7.929 4.738-16.123 9.211-24 14zm-12 1c5.53 8.531 21.141-0.351 26-5-7.526 2.576-17.068 10.02-26 5z"
       style="fill-rule:evenodd;fill:#f5e0cd"
       id="path3131" /><path
       fill-rule="evenodd"
       d="m134 129.14c-4.859 4.649-20.47 13.531-26 5 8.93 5.02 18.47-2.42 26-5z"
       clip-rule="evenodd"
       id="path3133" /></g><metadata
     id="metadata13"><rdf:RDF><cc:Work><dc:format>image/svg+xml</dc:format><dc:type
           rdf:resource="http://purl.org/dc/dcmitype/StillImage" /><cc:license
           rdf:resource="http://creativecommons.org/publicdomain/zero/1.0/" /><dc:publisher><cc:Agent
             rdf:about="http://openclipart.org/"><dc:title>Openclipart</dc:title></cc:Agent></dc:publisher><dc:title></dc:title></cc:Work><cc:License
         rdf:about="http://creativecommons.org/publicdomain/zero/1.0/"><cc:permits
           rdf:resource="http://creativecommons.org/ns#Reproduction" /><cc:permits
           rdf:resource="http://creativecommons.org/ns#Distribution" /><cc:permits
           rdf:resource="http://creativecommons.org/ns#DerivativeWorks" /></cc:License></rdf:RDF></metadata><g
     transform="matrix(0.63174799,-0.16165981,0.14129346,0.57971066,71.898711,-558.85351)"
     id="g2579"
     style="stroke-width:1.60318899"><path
       d="m 4.0138,15.485 c 5.7634,9.8733 23.203,8.632 32.577,-2.1466"
       transform="matrix(4.3476,0,1.2146,4.3476,-196.06097,1067.8952)"
       style="fill:none;stroke:#000000;stroke-width:1.60318899px;filter:url(#filter16769-2-3)"
       sodipodi:nodetypes="cc"
       id="path16759-6-0"
       inkscape:connector-curvature="0" /><path
       d="m -167.30197,1118.2052 c 21.215,79.759 164.99,55.862 142.18,-9.3324 z"
       style="fill:#f29519;stroke-width:1.60318899"
       sodipodi:nodetypes="ccc"
       id="path16679-6-5"
       inkscape:connector-curvature="0" /><path
       d="m -167.30197,1118.2052 c 21.215,79.759 164.99,55.862 142.18,-9.3324 z"
       style="fill:url(#linearGradient2501);stroke-width:1.60318899"
       sodipodi:nodetypes="ccc"
       id="path16679-9-6-3"
       inkscape:connector-curvature="0" /><g
       transform="matrix(4.0524,0,0.021725,2.6159,-627.74997,865.6752)"
       id="g16667-2-1"
       style="stroke-width:1.60318899"><circle
         transform="matrix(5.4391,0,0,5.4391,-1426.5,-21697)"
         style="fill:#fdca01;fill-rule:evenodd;stroke:#f2a638;stroke-width:0.33375189"
         id="path54105-9-80-2-22-9-2-9-8"
         cx="286.31195"
         cy="4006.6089"
         r="3.1598835" /><circle
         transform="matrix(3.8475,0,0,3.8475,-970.86,-15320)"
         style="fill:#b7b7bb;fill-rule:evenodd;stroke-width:1.60318899"
         id="path54105-8-07-20-2-30-2-6-0-63"
         cx="286.31195"
         cy="4006.6089"
         r="3.1598835" /><circle
         transform="matrix(5.4391,0,0,5.4391,-1426.5,-21697)"
         style="fill:url(#radialGradient1041-5);fill-rule:evenodd;stroke:#f2a638;stroke-width:0.33375189"
         id="path54105-9-80-2-22-9-8-2-4-9"
         cx="286.31195"
         cy="4006.6089"
         r="3.1598835" /><circle
         transform="matrix(3.8475,0,0,3.8475,-970.86,-15320)"
         style="fill:url(#linearGradient1043-2-8);fill-rule:evenodd;stroke-width:1.60318899"
         id="path54105-8-0-8-8-1-8-0-7-9-3"
         cx="286.31195"
         cy="4006.6089"
         r="3.1598835" /><text
         xml:space="preserve"
         x="114.66118"
         y="111.43676"
         transform="matrix(1.098,0,-0.032781,0.91071,0,0)"
         style="line-height:0%;font-family:'Tw Cen MT';fill:#000000;stroke-width:1.60318899"
         id="text54253-1-9-6-7-7-5-31-72"><tspan
           style="font-size:24.61199951px;line-height:1.25;stroke-width:1.60318899"
           sodipodi:role="line"
           x="114.66118"
           y="111.43676"
           id="tspan54255-5-28-5-2-0-7-1-3">€</tspan></text>
</g><path
       d="m 4.0138,15.485 c 5.7634,9.8733 23.203,8.632 32.577,-2.1466"
       transform="matrix(4.3476,0,1.2146,4.3476,-196.06097,1067.8952)"
       style="fill:none;stroke:#000000;stroke-width:1.60318899px;filter:url(#filter16769-0-9-6)"
       sodipodi:nodetypes="cc"
       id="path16759-4-9-58"
       inkscape:connector-curvature="0" /><path
       d="m -167.30197,1118.2052 c 21.212,79.75 164.99,55.85 142.18,-9.33 l -142.18,9.3324 z"
       style="fill:#f29519;stroke-width:1.60318899"
       sodipodi:nodetypes="ccc"
       id="path16679-7-9-4"
       inkscape:connector-curvature="0" /><ellipse
       ry="44.960373"
       rx="69.646996"
       transform="matrix(1,0,0.00830446,0.99996552,0,0)"
       style="fill:#fdca01;fill-rule:evenodd;stroke:#f2a638;stroke-width:5.91042566"
       id="path54105-9-80-2-22-9-2-4-5-5"
       cx="-105.26791"
       cy="1113.9248" /><ellipse
       ry="31.805325"
       rx="49.268902"
       transform="matrix(1,0,0.00830453,0.99996552,0,0)"
       style="fill:#b7b7bb;fill-rule:evenodd;stroke-width:20.0839901"
       id="path54105-8-07-20-2-30-2-6-9-5-8"
       cx="-105.12259"
       cy="1115.4121" /><ellipse
       ry="44.960373"
       rx="69.646996"
       transform="matrix(1,0,0.00830446,0.99996552,0,0)"
       style="fill:url(#radialGradient1045-2);fill-rule:evenodd;stroke:#f2a638;stroke-width:5.91042566"
       id="path54105-9-80-2-22-9-8-2-9-6-61"
       cx="-105.26791"
       cy="1113.9248" /><ellipse
       ry="31.805325"
       rx="49.268902"
       transform="matrix(1,0,0.00830453,0.99996552,0,0)"
       style="fill:url(#linearGradient2503);fill-rule:evenodd;stroke-width:20.0839901"
       id="path54105-8-0-8-8-1-8-0-7-0-0-70"
       cx="-105.12259"
       cy="1115.4121" /><g
       transform="matrix(1.3667,0,-0.034723,0.7317,-254.33997,126.8552)"
       style="fill:#000000;stroke-width:1.60318899"
       id="text54253-1-9-6-7-7-5-3-5-3"><path
         d="m 164.3,1370.6 c -3.5476,2.3999 -7.3952,3.5998 -11.543,3.5998 -5.5823,0 -10.258,-1.7412 -14.027,-5.2236 -3.7694,-3.4824 -6.2279,-8.3669 -7.3756,-14.654 h -4.1476 l 1.4477,-4.6562 h 2.2303 c -0.0783,-1.3826 -0.0783,-2.7651 0,-4.1476 h -3.365 l 1.0565,-4.6563 h 2.8564 c 1.226,-6.2344 3.6976,-11.106 7.4148,-14.614 3.7172,-3.5085 8.2495,-5.2627 13.597,-5.2628 3.678,10e-5 7.63,1.1218 11.856,3.3651 v 7.7082 c -4.2259,-2.6868 -8.0996,-4.0302 -11.621,-4.0302 -7.4865,0 -12.182,4.278 -14.086,12.834 h 22.186 l -1.1347,4.6563 h -21.716 c -0.0522,0.4434 -0.0783,1.1869 -0.0782,2.2303 l 0.0782,1.9173 h 20.464 l -1.1347,4.6562 h -18.742 c 1.7477,8.4517 6.6518,12.678 14.712,12.678 3.4954,0 7.1865,-1.3956 11.073,-4.1867 z"
         id="path3424-1"
         inkscape:connector-curvature="0"
         style="stroke-width:1.60318899" /></g></g></svg>