<svg xmlns="http://www.w3.org/2000/svg" viewBox="0 0 140 190" version="1">
  <path fill-opacity=".5" d="M21 5h103c8.86 0 16 7.14 16 16v153c0 8.86-7.14 16-16 16H21c-8.86 0-16-7.14-16-16V21c0-8.86 7.14-16 16-16z"/>
  <path fill="#e7e7e7" d="M17 1h103c8.86 0 16 7.14 16 16v153c0 8.86-7.14 16-16 16H17c-8.86 0-16-7.14-16-16V17C1 8.14 8.14 1 17 1z"/>
  <path fill="#c7891f" d="M19 3h103c8.86 0 16 7.14 16 16v153c0 8.86-7.14 16-16 16H19c-8.86 0-16-7.14-16-16V19c0-8.86 7.14-16 16-16z"/>
  <path fill="#fff" d="M18 2h103c8.86 0 16 7.14 16 16v153c0 8.86-7.14 16-16 16H18c-8.86 0-16-7.14-16-16V18C2 9.14 9.14 2 18 2z"/>
  <path fill="red" d="M12.6 12h15.9v5.68H17.7v4.65c.5-.16.98-.28 1.47-.36.5-.1 1-.15 1.54-.15 3.1 0 5.4.92 7.1 2.76 1.7 1.82 2.6 4.36 2.6 7.63 0 3.3-.9 5.8-2.7 7.7-1.8 1.9-4.3 2.8-7.6 2.8-1.4 0-2.8-.1-4.1-.5-1.4-.3-2.74-.8-4.1-1.5v-6.1c1.3 1 2.6 1.7 3.8 2.1 1.26.5 2.4.8 3.48.8 1.55 0 2.77-.4 3.65-1.3.9-.92 1.36-2.16 1.36-3.73 0-1.55-.47-2.8-1.36-3.7-.9-.92-2.1-1.37-3.65-1.37-.98 0-1.9.16-3 .45-1.04.28-2.16.7-3.36 1.33V12"/>
  <path fill="red" fill-rule="evenodd" d="M13.55 48.84c-.8 0-1.68.2-2.66.65-10.7 8.1 3.7 21.4 9.7 32.7h.1c6.7-12.4 19.4-26.1 9.7-32.8-7.7-3.5-9.7 8-9.8 8.4-.1-.4-1.6-9.2-7.2-9.1z"/>
  <path fill="red" d="M126.26 177h-15.9v-5.68h10.8v-4.65c-.5.16-.97.3-1.46.37-.5.1-1 .14-1.55.14-3.02 0-5.37-.92-7.06-2.76-1.7-1.82-2.6-4.36-2.6-7.63 0-3.3.9-5.8 2.7-7.7 1.8-1.9 4.3-2.8 7.6-2.8 1.4 0 2.8.1 4.2.5 1.3.3 2.7.8 4.1 1.5v6.1c-1.4-1-2.7-1.7-3.9-2.1s-2.4-.8-3.5-.8c-1.57 0-2.78.4-3.67 1.3-.9.9-1.34 2.15-1.34 3.72 0 1.57.46 2.8 1.36 3.73.9.9 2.1 1.4 3.64 1.4.9 0 1.9-.17 2.95-.46 1.08-.26 2.2-.7 3.4-1.3v17"/>
  <path fill="red" fill-rule="evenodd" d="M125.3 140c.8 0 1.7-.2 2.67-.65 10.64-8.2-3.7-21.42-9.76-32.77l-.1-.06c-6.6 12.4-19.3 26.06-9.6 32.83 7.7 3.46 9.8-8.06 9.8-8.47.1.36 1.7 9.15 7.2 9.1zM47.13 45.22c-.47 0-.98.12-1.55.38-6.18 4.84 2.15 12.66 5.67 19.36l.1.04c3.87-7.33 11.23-15.4 5.6-19.4-4.45-2.04-5.64 4.76-5.68 5-.04-.2-.95-5.4-4.14-5.38zm36 0c-.47 0-.98.12-1.55.38-6.18 4.84 2.15 12.66 5.67 19.36l.1.04c3.87-7.33 11.23-15.4 5.6-19.4-4.45-2.04-5.64 4.76-5.68 5-.04-.2-.95-5.4-4.14-5.38zm-17.36 37c-.47 0-.98.12-1.55.38-6.18 4.84 2.15 12.66 5.67 19.36l.1.04c3.8-7.33 11.2-15.4 5.6-19.4-4.5-2.04-5.7 4.76-5.7 5-.1-.2-1-5.4-4.2-5.38zm-8.54 59.56c.47 0 .98-.12 1.55-.38 6.18-4.84-2.15-12.65-5.67-19.36L53 122c-3.86 7.34-11.22 15.4-5.6 19.4 4.46 2.05 5.65-4.76 5.7-5 .03.2.94 5.4 4.13 5.38zm35 0c.47 0 1-.12 1.55-.38 6.2-4.84-2.15-12.65-5.67-19.36L88 122c-3.86 7.34-11.22 15.4-5.6 19.4 4.46 2.05 5.65-4.76 5.7-5 .03.2.94 5.4 4.14 5.38z"/>
</svg>
