<svg xmlns="http://www.w3.org/2000/svg" width="199" height="199">
  <defs>
    <linearGradient id="a" x1="50.54" x2="1018" y1="532.89" y2="532.89" gradientUnits="userSpaceOnUse" gradientTransform="matrix(.2 0 0 .2 -9.5 -9.2)">
      <stop stop-color="#d47440" offset="0"/>
      <stop stop-color="#d27341" offset=".02"/>
      <stop stop-color="#dd7d48" offset=".03"/>
      <stop stop-color="#f27733" offset=".06"/>
      <stop stop-color="#df6e2f" offset=".13"/>
      <stop stop-color="#e8996e" offset=".25"/>
      <stop stop-color="#dd5c10" offset=".5"/>
      <stop stop-color="#db6c2a" offset=".75"/>
      <stop stop-color="#de9260" offset="1"/>
    </linearGradient>
    <linearGradient id="b" x1="115.04" x2="971.33" y1="289.7" y2="713.62" gradientUnits="userSpaceOnUse" gradientTransform="matrix(.2 0 0 .2 -1 -.7)">
      <stop stop-color="#ff8c4e" offset="0"/>
      <stop stop-color="#ff8c4e" offset=".02"/>
      <stop stop-color="#ff8643" offset=".03"/>
      <stop stop-color="#ff8e50" offset=".06"/>
      <stop stop-color="#ff7325" offset=".13"/>
      <stop stop-color="#ffac7e" offset=".25"/>
      <stop stop-color="#ff6f1b" offset=".5"/>
      <stop stop-color="#ff8e4a" offset=".75"/>
      <stop stop-color="#ffae7a" offset="1"/>
    </linearGradient>
  </defs>
  <path fill="url(#a)" stroke="#000" stroke-width="2" d="M198 99.5c0 54.4-44.1 98.5-98.5 98.5S1 153.9 1 99.5 45.1 1 99.5 1 198 45.1 198 99.5z"/>
  <path fill="url(#b)" stroke="#000" d="M190.32 99.22c0 50-40.66 90.52-90.82 90.52S8.68 149.2 8.68 99.2 49.34 8.7 99.5 8.7s90.82 40.53 90.82 90.53z"/>
  <path fill="none" stroke="#000" d="M119.16 28.1l-.42 2h-1.02c-.08-.4-.16-.67-.25-.8-.08-.15-.2-.26-.33-.35-.15-.1-.4-.13-.8-.13h-1.6l-.65 3h.9c.2 0 .4-.03.5-.07.1-.06.2-.15.3-.27.1-.13.2-.32.3-.57h.8l-.6 2.6h-.9c0-.2-.1-.4-.1-.5-.1-.1-.2-.2-.3-.2-.1 0-.3-.1-.5-.1h-1l-.7 3.4h2.1l.3-.1.3-.2.3-.2c.1-.1.2-.2.3-.4l.4-.6h1l-.6 2.3h-7.3l.1-.4c.2 0 .3-.1.5-.1.1 0 .2-.1.3-.2.1 0 .1-.2.2-.3l.1-.5L112 30l.1-.5V29c0-.1-.1-.2-.2-.2-.1-.08-.2-.1-.4-.18l.1-.4zm7.65 1.57c.1-.3.1-.53.1-.65 0-.13 0-.23-.1-.3-.1-.08-.2-.15-.5-.2l.1-.42h3.3l-.1.4c-.1.04-.3.07-.4.13-.1.04-.2.12-.3.2 0 .07-.1.18-.1.3 0 .15-.1.32-.1.5l-.8 3.92c-.1.52-.2.95-.4 1.3-.2.34-.4.64-.6.87-.2.25-.5.44-.9.6-.3.14-.7.24-1.1.3-.4.05-.8.1-1.3.1-.7 0-1.3-.1-1.7-.2-.5-.13-.8-.32-1.1-.57-.2-.25-.4-.55-.5-.9 0-.37 0-.83.1-1.38l.9-4c.1-.2.1-.35.1-.5.1-.12 0-.23 0-.33s-.1-.15-.1-.2c-.1-.07-.2-.12-.4-.16l.1-.42h3.9l-.1.4c-.2.04-.4.1-.5.15l-.2.2c-.1.1-.1.2-.2.3 0 .1-.1.3-.1.6l-.83 4.1c-.1.4-.1.7-.1.9 0 .3 0 .5.1.7.05.2.1.4.35.5.2.1.5.2.8.2.5 0 .9-.1 1.2-.2.3-.1.55-.4.7-.7.2-.3.35-.7.48-1.4zm6.2 6.98h-3.9l.1-.4.5-.14c.1 0 .2-.1.3-.2.1 0 .1-.2.2-.3l.2-.5 1.3-5.9c.1-.1 0-.2 0-.3 0-.1-.1-.1-.2-.2-.1 0-.2-.1-.4-.1l.1-.4h4.3c.6 0 1.1 0 1.5.1.4.1.8.2 1 .3.3.1.4.3.6.5.2.2.3.4.3.6.1.3.1.5 0 .8-.1.4-.2.8-.4 1.1-.2.3-.5.6-.8.8-.3.2-.7.4-1.3.6.4.1.6.3.8.5.2.2.4.5.5.9l.3.9c.1.4.3.7.5.9.17.2.4.3.67.4l-.1.4h-3c-.2-.3-.42-.8-.64-1.5l-.4-1-.34-.7c-.1-.1-.2-.2-.3-.2-.1-.1-.3-.1-.6-.1h-.5l-.4 2c-.1.3-.1.56-.1.67 0 .1.1.2.2.3l.5.2zm.9-7.8l-.7 3.48h.8c.4 0 .8-.04 1-.13.3-.1.5-.22.7-.38.2-.16.4-.35.4-.57.2-.22.2-.45.3-.7.2-.58.1-1-.2-1.3-.2-.28-.6-.43-1.3-.43h-.9zm9.8 7.9c-1.4 0-2.5-.35-3-1.07-.5-.72-.7-1.8-.4-3.23.2-.94.6-1.75 1.1-2.4.5-.68 1.1-1.2 1.9-1.53.8-.35 1.6-.52 2.6-.52 1.5 0 2.5.36 3.1 1.07.6.72.8 1.8.5 3.2-.1.8-.4 1.47-.7 2.03-.3.57-.7 1.03-1.2 1.4-.5.36-1.1.63-1.7.8-.6.17-1.2.26-1.9.26zm-1-4.47c-.2 1.26-.3 2.2 0 2.82.3.62.7.92 1.5.92.4 0 .7-.08 1.1-.26.3-.17.6-.4.8-.72.3-.3.5-.68.6-1.1.2-.42.3-.9.4-1.4.2-.83.3-1.53.2-2.1 0-.55-.1-1-.4-1.27-.2-.3-.6-.42-1.1-.42-.7 0-1.3.28-1.7.87-.5.6-.8 1.5-1.1 2.68zM121 39.64l-.57 3.58h-1.7c-.16-.7-.32-1.2-.46-1.45s-.35-.45-.6-.6c-.23-.14-.67-.2-1.32-.2h-2.7l-.85 5.4h1.62c.35 0 .67-.05.88-.14.2-.1.4-.25.58-.47.18-.22.37-.55.57-1h1.4l-.7 4.57h-1.4c-.06-.44-.12-.77-.24-1-.1-.23-.2-.4-.4-.5-.1-.1-.4-.14-.8-.14h-1.6l-.9 6h2.7c.3 0 .6 0 .8-.1.2-.1.4-.1.6-.2.2-.1.4-.2.5-.4.2-.2.4-.3.5-.5s.3-.4.5-.7l.6-1.1h1.7l-.8 4.1h-12.2l.2-.8c.3-.1.6-.2.8-.3.2-.1.4-.2.5-.3l.3-.6.2-.9 1.5-9.7c.1-.4.1-.7.1-.9v-.6c-.1-.2-.2-.3-.33-.4-.2-.1-.4-.2-.7-.3l.1-.8zm17.55 0l-.12.74c-.33.1-.9.07-1.34.25-.2.08-.3.16-.4.27-.1.12-.2.3-.3.5-.1.25-.2.6-.3 1.07l-2 12.57h-3.2l-4.3-8.8c-.6-1.18-1-2.1-1.3-2.78h-.1c-.2 1.6-.4 3.32-.7 5.12l-.6 3.63c-.1.6-.1 1-.1 1.2 0 .3.1.4.2.6s.4.3.8.4l-.1.8H120l.1-.7c.35-.1.6-.1.8-.2.2-.1.35-.2.46-.3.1-.1.2-.3.23-.5l.1-.9 1.6-9.7c.1-.5.1-.9.1-1.1 0-.2-.1-.4-.3-.5-.2-.1-1.6-.2-2-.4V40h6.3l3.3 6.96c.2.4.5 1 .8 1.7.3.76.6 1.46.8 2.13h.2c.2-1.8.5-3.8.8-5.9l.3-2.1c.1-.5.1-.9.1-1.1 0-.2-.05-.4-.1-.5l-.3-.3c-.7-.3-1.9-.2-2.2-.3v-.8zm-30.02-7.28l-2.5 7.8h-1.5c-.05-1.28-.6-5.07-1.25-5.7-.6-.6-1.6-.9-2.82-.9-2.38 0-5.34.88-7.3 2.52-1.9 1.53-3.17 3.9-3.66 6.28-.65 3-.6 6.55 1.07 9.13.6.9 1.77 1.4 2.8 1.6 1.7.4 3.55.3 5.2-.2 1.13-.4 2.15-1.2 3-2 .95-1 1.73-2.5 2.3-3.5l1.42.8-2 6.3c-1.8.3-3.3.5-4.7.6-1.4.1-3.9.5-5.8.1-1.6-.4-3.2-1-4.4-2-1.4-1.1-2.5-2.6-3.1-4.2-.9-2.3-1.2-5-.7-7.5.3-1.6 1.1-3.1 2.1-4.4 1.5-1.9 3.6-3.3 5.8-4.3 2.5-1.1 5-1.5 8-1.5 1.5 0 2.8 0 4 .2 1.2.1 2.4.3 3.7.6zm31.28 22.67l.2-.74c.3-.1.6-.2.8-.3.2-.1.4-.2.5-.4.2-.2.2-.4.3-.6l.2-.9 2.1-11.3h-.9c-.4 0-.8 0-1 .1s-.5.3-.7.5c-.2.2-.4.5-.6.9-.2.4-.4.7-.5 1.1h-1.5l.7-4h13.4l-.7 4h-2l-.1-1.2c-.02-.2-.1-.5-.14-.6 0-.2-.1-.3-.2-.4l-.3-.3c-.1-.1-.2-.1-.4-.2h-1.5l-2 11.2c0 .4-.1.7-.1.9 0 .2 0 .3.1.5 0 .1.1.2.2.3.1.1.2.1.3.2l.6.2-.1.7z"/>
  <path fill-opacity=".31" d="M104.4 40.1l1.62-.05 2.22-7.7c-3.7-.5-7.1-1-10-.65-8.72 1.06-13.6 6.02-13.82 11.04-.1 2.4.18 5.68 1.8 8.3 1.58 2.5 4.45 4.44 8.27 4.4 2.9.08 5.7-.46 8.5-.9l2-6.2-1.4-.75c-1.6 3.2-4.4 5.6-8.9 5.9-6.6-.6-6-6.1-6.1-8.9-.1-3.2 1.6-7.7 5.8-9.8 1.5-.6 2.2-1.3 6.1-1.4 1.6.3 2.6.6 2.8 2.2.4 1.4.6 3.1.8 4.3zm7.28-11.58l.08-.43h7.37l-.37 1.9h-1.08c-.2-1-.66-1.3-1.18-1.2h-1.78l-.64 2.9h1.1c.68 0 .85-.5 1.1-.9l.78-.1-.5 2.6h-.86c.02-.5-.13-.8-.54-1h-1.24l-.75 3.3 2.17-.1c.98-.4 1.06-1 1.45-1.5h1l-.6 2.3h-7.4V36c.5-.06.7-.35.9-.7L112 29c.04-.4-.25-.6-.66-.7zm8.63 0l.2-.45 3.9.04-.1.4c-.6.2-.8.5-.9 1l-1.1 5.2c-.1.8.3 1.4 1.2 1.5 1.2.2 2.2-.4 2.4-1.2l1.2-5.6c.1-.5-.3-.5-.6-.6l.1-.4h3.3l-.1.4c-.4.1-.9.2-1 .9l-1.1 5.3c-.5.9-1.2 1.5-2 1.8-.6.1-.9.2-1.9.3-2.4 0-2.7-.5-3.1-.8-.5-.9-.3-1.2-.4-1.7l1.1-5.3c0-.3-.4-.3-.6-.4zm10.6-.46v.46c.3.1.6.17.7.54l-1.3 6.44c0 .4-.4.64-1 .7v.42l4 .02.1-.48c-.7-.14-.6-.4-.6-.64L133 33l.76.05c.3 0 .56.1.85.77.2 1.02.7 1.9 1.1 2.84l2.9-.06.2-.44c-.2-.06-.6-.17-.8-.4-.2-.3-.3-.78-.5-1.32-.1-.87-.7-1.32-1.2-1.8.7-.04 2.5-1 2.6-2.42.1-1.02 0-1.7-2-2.16l-5.6-.08zm4.3.8c.8.15 1.3.6 1.1 1.75-.6 1.9-1.8 1.7-2.3 1.8h-.9l.7-3.5h1.4zm10.4-.92c-3.4.23-4.6 2-5.3 4.13-1.1 4.74 2.5 4.73 3.7 4.7 1.9-.2 4.4-.52 5.3-4.4.7-2.98-.4-4.2-3.6-4.43zm.1.8c2 .26 1.4 2.5 1.3 3.9-1.1 3.67-2.3 3.27-3 3.33-1.4-.14-1.7-1.57-1.1-4.12.6-1.55 1.1-3.12 3-3.12zM108.5 40.4l.1-.77 12.3.03-.5 3.55h-1.7c-.3-1.7-1.06-2.3-1.9-2.2h-3.2l-.88 5.5 1.93-.1c1.1.1 1.4-.8 1.7-1.5h1.4l-.7 4.6-1.48.1c.07-.8-.3-1.3-1-1.7h-2.1l-1 6.1h3.67c1.58-.6 1.8-1.9 2.4-2.8l1.6.1-.88 4.1-12.15.1.1-.7c.9-.1 1.5-.7 1.5-1.22l1.8-11.5c.2-.74-.1-1-.8-1.2zm12.83-.8v.7l1.8.4c.2.23.5.2.4.96l-1.86 11.6c-.28.34-.15.7-1.43 1l-.1.73h4.64l.06-.8c-1.25-.3-.98-.7-1.1-1.1l1.45-9.7 5.5 11.6h3.2l2.2-13.5c.3-1.4 1.2-1.1 2-1.2l.1-.8h-6.9v.7l1.5.1c.6 0 1.2.1 1 1.3l-1.3 8.6h-.1c-1.4-3.3-3.3-7.1-5.1-10.8zm16.9 3.97l.7-3.96 13.26.1-.6 3.9H150c-.08-2.2-.8-2.5-1.7-2.6H147l-2.12 12.1c-.12 1.3.6 1.2 1.18 1.3l-.1.8h-6.3l.08-.7c1.43-.2 1.45-.8 1.64-1.3l2.13-12h-1.1c-1.4.1-2 1.5-2.7 2.7z"/>
  <path fill-opacity=".31" stroke="#000" d="M39.15 38.9c.7-2.06 1.4-3.15 4.74-2.97L66 37.1c7.17.2 9.48-2.6 12.28-5.1l4.3 2.65-7.47 17.6-30.4-.9-7.8 18.85c2.2-2.77 9.3-2.4 10.4-2.37C52.2 67.9 73 74 73 93.5c.02 8.96-4.37 18.45-10.94 24.55-6.95 6.45-17.3 9.54-26.77 9.6-6.1.06-12.6-2.1-17.3-5.9-2.6-2.06-5.1-5.66-5.3-8.36-.3-3.5.3-7.8 4.1-9.2 4.4-1.6 6.3-.6 9.1 2 2.2 2 2.4 5.5 3.4 9.2.8 3 3.5 5.5 6.6 5.5 8.4-.1 15.5-6.9 18.8-16.7 2.1-6.5 1.4-15-4.9-20-4.4-3.4-10.9-3.7-16.3-2.8-2.6.4-7 3.5-7 3.5l-3-1.6z"/>
</svg>
