<svg xmlns="http://www.w3.org/2000/svg" width="202.6" height="200">
  <defs>
    <linearGradient id="a" x1="975.08" x2="1363.1" y1="-65.97" y2="-65.97" gradientUnits="userSpaceOnUse" gradientTransform="matrix(1 -.3 .3 1 -819.2 901.8)">
      <stop stop-color="#bd9542" offset="0"/>
      <stop stop-color="#d0ae52" stop-opacity=".78" offset="1"/>
    </linearGradient>
    <linearGradient id="b" x1="141.41" x2="527.13" y1="540.39" y2="540.39" gradientUnits="userSpaceOnUse">
      <stop stop-color="#d0c27b" offset="0"/>
      <stop stop-color="#d0c27b" stop-opacity=".78" offset="1"/>
    </linearGradient>
    <linearGradient id="c" x1="-224.48" x2="1012.4" y1="129.08" y2="129.08" gradientUnits="userSpaceOnUse" gradientTransform="matrix(.1 0 0 .1 77.3 129.2)">
      <stop stop-color="#e6e6e6" offset="0"/>
      <stop stop-color="#ccc" stop-opacity=".75" offset="1"/>
    </linearGradient>
  </defs>
  <g stroke="#000" stroke-width="1.99">
    <path fill="url(#a)" d="M180.68 657.54s-24.22-5.56-41-67.72c-16.48-61.08 4.14-82.4 4.14-82.4 3.07-1.8 3.03-1 4.1-7.24.37-4.65.42-2.3-.98-7.5 0 0-11.38-23.07 27.65-74.28 38.3-50.33 67-47.94 67-47.94 3.3 1.35 2.5 1.72 8.1-1.24 3.9-2.53 2.2-1.1 5.3-5.48 0 0 11-24.3 75.4-24.55 63.3-.3 79.2 22.7 79.2 22.7 1 3.4.2 3.1 6.1 5.6 4.4 1.4 2.1.9 7.5.7 0 0 25.1-5.9 66.1 43.8 40.2 48.8 31.4 76.1 31.4 76.1-2.1 2.9-2.3 2.3-1 6.7 1.1 2.7.2.7 3.7 4.7 0 0 20.6 15.7 8 78.9-12.3 62-38.9 72.6-38.9 72.6-3.6.2-3.1-.4-6.8 4.7-2.4 4-1.6 2-2.4 7.3 0 0 .1 25-56.7 55.3-55.8 29.8-81.2 14.7-81.2 14.7-2.5-2.6-1.5-2.6-7.8-2.4-4.7.5-2.5.1-7.3 2.6 0 0-20 16.5-78.6-10.1-57.7-26.1-61.9-54.4-61.9-54.4.5-3.6 1.1-2.9-3.1-7.7-3.4-3.3-1.6-2-6.6-4z" transform="matrix(.5 0 0 .5 -66.3 -168.7)"/>
    <path fill="url(#b)" d="M187.2 653.72S164.03 648.4 148 589c-15.74-58.36 3.97-78.75 3.97-78.75 2.93-1.72 2.9-.94 3.9-6.9.37-4.45.42-2.22-.93-7.16 0 0-10.86-22.1 26.43-71 36.65-48.1 64.06-45.9 64.06-45.9 3.15 1.3 2.46 1.6 7.8-1.2 3.77-2.4 2.17-1.1 5.14-5.3 0 0 10.56-23.3 72.1-23.5 60.46-.3 75.66 21.7 75.66 21.7 1 3.2.25 3 5.83 5.3 4.25 1.4 2.06.9 7.2.7 0 0 23.98-5.6 63.14 41.8 38.47 46.6 30.04 72.8 30.04 72.8-1.95 2.7-2.2 2.2-.9 6.4 1.08 2.6.22.7 3.6 4.5 0 0 19.7 15 7.73 75.4-11.77 59.3-37.2 69.4-37.2 69.4-3.38.2-2.93-.4-6.46 4.5-2.2 3.8-1.4 1.9-2.2 7 0 0 .2 23.8-54.1 52.8-53.3 28.5-77.6 14.1-77.6 14.1-2.3-2.5-1.4-2.5-7.4-2.3-4.4.5-2.4.1-6.9 2.5 0 0-19.1 15.8-75.2-9.6-55-25-59.1-52-59.1-52 .6-3.4 1.1-2.8-2.9-7.3-3.2-3.1-1.5-1.9-6.2-3.8z" transform="matrix(.5 0 0 .5 -66.3 -168.7)"/>
  </g>
  <path fill-opacity=".31" stroke="#000" stroke-width=".9" d="M148.3 132.56c4.14-.2 13.05-4.36 17.44-10.1 5.78-7.48 11.12-15.18 13.73-24.48 2.54-9.05 4.9-15.82 2.3-28.84-.7-3.56-2.96-11.47-12.55-12.66-7.8-.93-13.65 4.03-17.04 6.3-3.2 2.18-11.87 9.98-15.95 22.12-2.22 6.62-3.36 10.8-3.62 13.54l-1.1 11.8c-.1.86-.1 1.85-.2 3.24l-3.9 6.62c-1.3 1.75-1.5 3.2-9.5 3.25-7.8-.15-15.4-.3-23.7-.52-1.1-.3.7-1.13 1.1-1.6 0 0 16.5-10.7 22.7-17.57 7.7-8.58 17.9-18.2 17.1-28.68-.6-8.06-5.7-17.57-17-18.14-13.5-.67-24.3 15.3-24.3 15.3-.5.77-1 3 1.8 1.45 0 0 11.3-8 18.7-7.4 7.8.6 9.3 9.5 9.3 12.1-.2 10.3-8.9 21.7-16.5 28.6-8.4 7.6-24.9 20.6-24.9 20.6-.9.7-2.2 2.4-.5 3.1l43.8-.3c2.2.2 3.3-.8 3.7-2.5l3-8.9c1.6 7.1 6 14.2 16.4 13.7zm16.24-72.46c.3 0 .57.05.85.15 9.6 3.26 5.1 24.65 2.3 36.5-2.8 11.62-11.5 32.6-18.2 30.94-9.5-2.4-5.3-25.4-2.3-37.6 2.7-10.8 11.5-29.9 17.3-30z"/>
  <path fill="url(#c)" d="M141.43 143.57c-.33.62-.54 1.32-.6 2.07-.05.7 0 1.32.14 1.9.23-1.3.4-2.6.46-3.93z"/>
  <path fill-opacity=".31" stroke="#000" stroke-width=".9" d="M147.36 140.58c-2.8 0-5.02 2.07-5.24 5.06-.16 3.5 1.74 5.5 3.87 5.55 2.3-.1 4.1-1.3 5-5-.2-.1.6-4.8-3.7-5.7zm-.63.6c.16 0 .33 0 .5.03 2.73 1.4 2.3 2.5 2.28 4.9-.4 2.1-1.2 4.8-3.5 4.4 0 0-3.1-.1-2.4-5 .6-2.6 1.7-4.1 3.2-4.2z"/>
  <path fill-opacity=".13" stroke="#000" stroke-width=".9" d="M112.1 141.42l-.73.04h-.05c-.26.08.67-.04.78 0v-.04z"/>
  <path fill-opacity=".31" stroke="#000" stroke-width=".9" d="M118.3 142.83l-.02-1.24.02-1c0-.2-7.34-.1-7.34-.1s-.26.2-.3.3c-.06.1 0 .3.1.4.1.1.5.1.5.1h.78s-.15 5.4-1.18 8c-.1.2-.2.3-.37.4-.1.1-.3.2-.5.2-.3.1-1 .1-.9.4.1.4.8 0 1.3.1h3.1l1.8.1 1.2-.1.8-.5.2-.7c0-.2.2-.5.1-.7-.1-.2-.1-.3-.3-.4-.1-.1-.2-.1-.3 0-.3.2-.1.8-.3 1.1l-.6.3-.7.2-1.3.1h-1.6l-.4-.2-.4-.4.2-1 .5-2.7.5-.15h2.2l.1.2v1.2l.3.3.3-.3-.1-1.6.6-1.17-.2-.37h-.1l-.4.6-.3.4-.4.2-1.2.1h-.7l-.4-.1.6-3.8 1.2-.1h2.2l.2.5.1 1.1c.2.14.4.04.6-.1zm2.43-2.03l1.64.05 1.4-.02h.72l.1.18-.1.2h-.5l-.5.1-.3.2-.1.1-.1.6-1 5.7-.1.9v.7l.3.5.8.5 1.2.1 1-.2.6-.4.5-.5.3-.9.3-1.5.4-2.1.2-1v-1.7l-.1-.2-.3-.1h-.4l-.3-.1-.1-.2v-.1h2.5l.5.1v.3l-.1.1c-.2 0-.4 0-.5.1-.4.1-.4.4-.6.6l-.5 1.9-.9 4.5-.7 1.6c-.5.5-1.06.8-1.6.9-.7.1-1.3.2-2 .1-.66 0-1.2-.3-1.75-.6-.4-.3-.7-.7-.9-1.2 0-1.1.1-2.3.2-3.3l.67-3.8c.1-.4 0-.6-.2-.6l-.8-.1-.1-.2zm12.3-.02c-.18.1-.28.25-.2.47l.98.25-1.2 8.2v.23c0 .05 0 .03-.2.08-.2.2-.6.3-.9.5 0 .1.1.3.2.3 1.7.3 3.7 0 3.8.1l.1-.3-1.1-.2c-.1 0-.3-.2-.2-.4.4-1.3.7-4 1-4.1l.5.2c.4.2.4.3.5.3 0 0 1 3.5 2.5 4.4.6.3 1.4.4 2.1.2.2 0 .4-.1.3-.3 0-.1-.3-.1-.5-.2l-1-.4-2.1-4c3-1.4 3.1-3.7.8-4.9l-4.7-.2zm2.26 10.02h-.1zm.8-9.5c.2 0 .3.02.5.03.3 0 .6 0 .9.2.3.2.4.5.5.85s0 .72-.1 1.07c-.1.47-.2.93-.5 1.3-.2.3-.6.5-1 .67-.3.15-.7.15-1.1.1-.2 0-.8.1-.7-.1.1-1.55.6-3.4.6-3.77 0-.16.3-.2.6-.2zm-34 12.34c.2 1.3 1.4 1.1 1.5 0l1.4-5.26c1.1-2.64-.7-2.44-1.4-1.3-10.9-1.15-15 .42-16.6 1.5-5.1 3.6-6.3 7.38-6.2 11.26.2 7.8 6.5 9.66 9.5 10.28 2 .4 5.4.4 8.2-.16 1.1-.2 1.7-.72 2.4-1.55 1.4-1.6 2.5-6.1 2.5-6.1-.4-.8-1-.6-1.6-.2-1.4 3-3.4 6.2-6.1 6.2 0 0-8.5.7-9.5-7.7-.9-6.9 4.6-11.6 9.9-12.1 5.8-.5 5.7 3.2 5.7 3.2zm15.7 3.76v-3.2c0-.2-11.5-.1-11.5-.1s-.4.3-.4.5c-.1.2 0 .5.2.7.2.2.8.2.8.2l1.2-.1s-.3 8.2-1.9 12c-.1.3-.3.5-.5.7-.2.2-.4.3-.6.4-.4.2-1.5.2-1.4.6.1.6 1.4.1 2.1.17l2.5.08h2.5l2.8.16 1.9-.1 1.3-.8.3-1.1c.1-.3.3-.7.3-1.1 0-.2-.1-.5-.4-.6-.1-.1-.3-.1-.4 0-.5.3-.1 1.1-.4 1.6-.2.3-1 .6-1 .6l-.9.4-2.1.3h-3l-.6-.3-.6-.6.3-1.4.8-4 .7-.2h3.5l.3.2v1.7l.5.4.6-.4-.1-2.4.9-1.7-.4-.5h-.3l-.66.9-.5.6-.65.3-1.83.2h-1.1l-.5-.1 1.1-5.66 1.8-.3h2.1l1.3.07.3.8.1 1.6c.3.24.6.1.9-.07zm.4 10.74l1.4-.1c.4-.05.8.47 1.2-.93l2.9-9.1c.4-2-1.1-2.2-3.1-2.2v-1.4h5.6l5.6 11.1 1.5-7.6c.6-2-.2-1.5-.7-1.9h-2v-1.3l7.7-.1-.1 1.4c-.8.2-1.7-.4-2.3 1.1l-2.5 10.5.9 1.4c.5.7.8 1.3-.1 1.2l-3.4.1-6.1-11.1-2.1 7.7c-.9 1.9.3 1.5 1.3 1.5l2.5.1v1.5l-8.6.2zm21.7 1.38v-1.2l2.4-.55c.5.2.9-.65 1.2-1.4l2.8-9.58c1-2.3-1.2-1.5-2.2-1.6-1.4.7-2.8 1.7-3.3 3.6-1.6.6-1.5-.1-1.4-.6l1-3.1c.4-.5.3-1.2 1.6-1.2l12.2.1c.9 0 1.1.8.8 1.7l-.5 2.5c-1 1.5-1.3.5-1.8-.1l.2-1.6c-.1-1.6-3.3-1.9-4-.3l-2.9 10.4c-.6 1.2.8.9 1.6 1 1.1.7 1.4 1.3 1.5 2z"/>
</svg>
