<svg xmlns="http://www.w3.org/2000/svg" width="199.99" height="200">
  <defs>
    <linearGradient id="a" x1="50.54" x2="1018" y1="532.89" y2="532.89" gradientUnits="userSpaceOnUse" gradientTransform="matrix(.2 0 0 .2 -9 -8.7)">
      <stop stop-color="#d47440" offset="0"/>
      <stop stop-color="#d27341" offset=".02"/>
      <stop stop-color="#dd7d48" offset=".03"/>
      <stop stop-color="#f27733" offset=".06"/>
      <stop stop-color="#df6e2f" offset=".13"/>
      <stop stop-color="#e8996e" offset=".25"/>
      <stop stop-color="#dd5c10" offset=".5"/>
      <stop stop-color="#db6c2a" offset=".75"/>
      <stop stop-color="#de9260" offset="1"/>
    </linearGradient>
    <linearGradient id="b" x1="115.04" x2="971.33" y1="289.7" y2="713.62" gradientUnits="userSpaceOnUse" gradientTransform="matrix(.2 0 0 .2 -.5 -.2)">
      <stop stop-color="#ff8c4e" offset="0"/>
      <stop stop-color="#ff8c4e" offset=".02"/>
      <stop stop-color="#ff8643" offset=".03"/>
      <stop stop-color="#ff8e50" offset=".06"/>
      <stop stop-color="#ff7325" offset=".13"/>
      <stop stop-color="#ffac7e" offset=".25"/>
      <stop stop-color="#ff6f1b" offset=".5"/>
      <stop stop-color="#ff8e4a" offset=".75"/>
      <stop stop-color="#ffae7a" offset="1"/>
    </linearGradient>
  </defs>
  <path fill="url(#a)" stroke="#000" stroke-width="2" d="M198.5 100c0 54.4-44.1 98.5-98.5 98.5S1.5 154.4 1.5 100 45.6 1.5 100 1.5s98.5 44.1 98.5 98.5z"/>
  <path fill="url(#b)" stroke="#000" d="M190.82 99.7c0 50-40.66 90.54-90.82 90.54S9.18 149.7 9.18 99.7 49.84 9.18 100 9.18c50.15 0 90.82 40.54 90.82 90.54z"/>
  <path fill="none" stroke="#000" d="M119.66 28.6l-.43 2h-1c-.1-.4-.18-.67-.26-.82-.08-.14-.2-.25-.34-.33-.14-.1-.4-.13-.78-.13h-1.62l-.64 3h.9c.2 0 .4-.04.5-.07.1-.06.2-.16.3-.27.1-.13.2-.32.3-.57h.8L117 34h-.84c0-.2-.07-.4-.13-.5-.08-.1-.15-.2-.27-.22-.1-.06-.26-.1-.5-.1h-1l-.7 3.35h2.03l.3-.1.3-.2.3-.26c.1-.1.1-.2.2-.36.1-.1.2-.3.4-.6h1l-.6 2.3h-7.3v-.4c.2 0 .3-.1.4-.1s.2-.1.3-.2c.1-.1.1-.2.2-.3l.1-.5 1.1-5.4.1-.5c0-.1 0-.2-.1-.3l-.2-.2c-.1 0-.2-.1-.4-.1l.1-.4zm7.65 1.57c.1-.3.1-.53.1-.66 0-.1 0-.2-.1-.2-.1-.1-.2-.1-.5-.2l.1-.4h3.3l-.1.4c-.2.1-.3.1-.4.2-.1.1-.2.1-.3.2 0 .1-.1.2-.1.3l-.1.5-.8 3.9c-.1.5-.2 1-.4 1.3-.2.4-.4.7-.6.9-.3.3-.6.5-.9.6-.3.2-.7.3-1.1.3-.4.1-.8.1-1.3.1-.7 0-1.3-.1-1.7-.2-.5-.1-.8-.3-1.1-.5-.2-.2-.4-.5-.4-.9-.1-.3 0-.8.1-1.3l.9-4 .1-.5v-.3c0-.1-.1-.1-.12-.2-.1-.1-.3-.1-.4-.1l.1-.4h3.9l-.1.4c-.2.1-.4.1-.5.2-.1.1-.2.2-.3.2l-.14.3c0 .1-.1.3-.1.6l-.8 4.1c-.03.3-.1.7-.1.9 0 .3.1.5.16.7.1.2.16.4.4.5.24.1.5.2.9.2.5 0 .9 0 1.16-.2.3-.1.5-.4.7-.7.2-.3.36-.8.5-1.4zm6.2 6.98h-3.9l.1-.4.5-.14c.2 0 .3-.1.3-.2.1 0 .2-.2.2-.3l.1-.5 1.3-5.9c.1-.1 0-.2 0-.3 0-.1-.1-.1-.1-.2-.1 0-.2-.1-.4-.1l.1-.4h4.3c.6 0 1.1 0 1.5.1.4.1.7.2 1 .3.3.1.4.3.6.5.2.2.3.4.3.7.1.3.1.5 0 .8 0 .4-.2.8-.4 1.1-.3.3-.5.6-.9.8-.3.2-.7.4-1.3.6v.1c.3.2.6.3.8.6.2.2.4.5.5.9l.3.9c.2.4.3.7.5.88.2.2.4.3.7.4l-.1.4h-2.83c-.2-.3-.4-.8-.65-1.44l-.4-1.05c-.1-.3-.2-.53-.3-.66-.1-.14-.2-.24-.4-.3-.12 0-.32-.05-.6-.05h-.42l-.44 2c-.1.33-.1.55-.1.7 0 .1.03.2.1.3.1.1.3.14.5.2zm.9-7.8l-.7 3.48h.8c.4 0 .8-.05 1-.14.3-.1.5-.3.7-.4.2-.2.4-.4.5-.6.1-.2.2-.5.3-.7.2-.6.1-1-.2-1.3-.2-.3-.7-.5-1.3-.5h-.8zm9.8 7.9c-1.4 0-2.5-.36-3-1.07-.5-.73-.7-1.8-.4-3.23.2-.94.6-1.75 1.1-2.4.5-.68 1.1-1.2 1.9-1.53.8-.35 1.6-.52 2.6-.52 1.5 0 2.5.35 3.1 1.07.6.72.8 1.78.5 3.2-.1.8-.4 1.46-.7 2.03-.3.57-.7 1.03-1.2 1.4-.5.36-1.1.63-1.7.8-.6.17-1.2.25-1.9.25zm-1.1-4.47c-.2 1.26-.3 2.2 0 2.82.3.6.7.92 1.5.92.4 0 .8-.08 1.1-.26.3-.17.6-.4.8-.72.3-.3.5-.7.6-1.1.2-.42.3-.9.4-1.4.2-.83.3-1.53.3-2.1 0-.55-.2-1-.4-1.28s-.6-.4-1.1-.4c-.7 0-1.3.27-1.8.86-.5.6-.8 1.48-1.1 2.68zm-21.6 7.35l-.5 3.6h-1.7c-.1-.73-.3-1.2-.4-1.46-.1-.25-.3-.45-.6-.6-.2-.14-.6-.22-1.3-.22h-3l-.8 5.42h1.7c.3 0 .6-.05.8-.15.2-.1.4-.25.6-.46.1-.22.3-.56.5-1h1.4l-.7 4.57H116c-.06-.44-.1-.77-.23-1-.12-.23-.25-.4-.43-.5-.18-.1-.48-.14-.87-.14h-1.65l-.95 6h2.74c.3 0 .6 0 .8-.1.2-.1.4-.1.6-.2.2-.1.4-.2.5-.4.2-.2.4-.3.5-.5.2-.2.3-.4.5-.7s.4-.7.6-1.1h1.7l-.9 4.1h-12.2l.2-.8c.3-.1.6-.2.8-.3.2-.1.4-.2.5-.4l.3-.6.2-.9 1.6-9.7c.1-.4.1-.7.1-.9v-.6c0-.2-.2-.3-.3-.4-.1-.1-.4-.2-.7-.3l.1-.8zm17.6 0l-.1.75c-.3.1-.9.07-1.3.25-.1.07-.3.15-.4.27-.1.12-.2.3-.3.5-.1.25-.1.6-.2 1.07l-2 12.56h-3.2l-4.2-8.78c-.6-1.2-1-2.12-1.2-2.8h-.1c-.2 1.62-.4 3.33-.7 5.12l-.6 3.64c-.1.6-.1 1-.1 1.2 0 .3.1.4.3.6s.5.3.9.4l-.1.8H121l.1-.7c.3-.1.57-.1.77-.2.2 0 .36-.2.48-.3.1-.1.2-.3.3-.5l.2-.8 1.4-10c.1-.6.14-.9.1-1.2 0-.2-.1-.4-.24-.5s-1.5-.22-2-.4v-.7h6.3l3.3 6.96c.2.4.5 1 .8 1.76l.9 2.1h.2c.2-1.8.5-3.8.8-5.9l.3-2.15c.1-.5.1-.87.1-1.1 0-.22 0-.4-.1-.5 0-.1-.2-.22-.3-.3-.6-.3-1.8-.15-2.1-.23v-.76zm-30-7.27l-2.5 7.8H105c-.07-1.28-.64-5.08-1.27-5.7-.63-.6-1.6-.9-2.84-.9-2.4 0-5.4.87-7.3 2.5-1.9 1.55-3.2 3.93-3.7 6.3-.7 3-.6 6.55 1 9.13.6.9 1.7 1.4 2.8 1.6 1.7.4 3.5.3 5.2-.2 1.1-.4 2.1-1.2 2.9-2 1-1 1.7-2.5 2.3-3.5l1.4.8-2 6.3c-1.8.3-3.3.5-4.7.6-1.4.1-3.9.5-5.8.1-1.6-.4-3.2-1-4.4-2-1.4-1.1-2.5-2.6-3.1-4.2-.9-2.3-1.2-5-.7-7.5.2-1.6 1.1-3.1 2.1-4.4 1.5-1.9 3.6-3.3 5.8-4.2 2.5-1.1 5-1.5 8-1.5 1.5 0 2.8.1 4 .2 1.1.1 2.4.3 3.7.6zm31.3 22.67l.2-.75c.3-.05.6-.12.8-.2.2-.1.4-.2.5-.37.2-.1.2-.3.3-.6.1-.2.2-.5.2-.9l2.1-11.2h-.9c-.5 0-.8.1-1.1.2-.2.1-.5.3-.7.5-.2.2-.4.5-.6.9-.2.4-.3.8-.5 1.1H139l.7-3.9H153l-.7 4h-1.57l-.16-1.1c-.03-.2-.1-.4-.15-.6-.07-.1-.15-.3-.24-.4-.08-.1-.2-.2-.3-.2s-.3-.1-.47-.1h-1.5l-2 11.2c0 .5-.1.7-.1 1v.5c.1.1.1.2.2.3.1.1.2.2.3.2l.6.2-.1.8z"/>
  <path fill-opacity=".31" d="M104.9 40.6l1.62-.05 2.2-7.7c-3.67-.5-7.1-1-10-.65-8.7 1.06-13.58 6-13.8 11.04-.1 2.42.17 5.68 1.8 8.3 1.58 2.5 4.45 4.44 8.26 4.38 2.96.08 5.76-.46 8.58-.9l2.07-6.2-1.33-.75c-1.57 3.27-4.35 5.7-8.84 5.92-6.58-.6-6-6.2-6.04-8.9-.05-3.3 1.68-7.7 5.86-9.8 1.52-.6 2.2-1.3 6.06-1.4 1.6.3 2.6.7 2.78 2.2.45 1.4.63 3.1.8 4.3zm7.27-11.58l.1-.43h7.36l-.37 1.9h-1.08c-.2-1-.66-1.3-1.18-1.2h-1.78l-.64 2.9h1.1c.68 0 .85-.5 1.1-.9h.78l-.52 2.5h-.85c0-.4-.2-.8-.6-.9h-1.3l-.8 3.3 2.1-.1c1-.4 1-1 1.4-1.5h1l-.6 2.3H110l.05-.5c.54-.1.74-.4.9-.7l1.36-6.4c.1-.48-.2-.6-.6-.7zm8.64 0l.2-.45 3.9.04-.1.4c-.6.2-.8.5-.9.9l-1.1 5.2c-.1.8.3 1.4 1.2 1.5 1.2.2 2.2-.4 2.4-1.2l1.2-5.6c.1-.5-.3-.5-.6-.6l.1-.4h3.3l-.1.4c-.5.1-.9.3-1 .9l-1.2 5.3c-.5.9-1.2 1.5-2 1.8-.6.1-.9.3-1.9.3-2.4.1-2.7-.5-3.1-.8-.5-.9-.4-1.2-.4-1.7l1.1-5.2c0-.3-.4-.3-.6-.4zm10.6-.46v.46c.3.1.6.16.7.55l-1.3 6.45c0 .42-.4.66-1 .73v.43l4 .02.1-.46c-.7-.15-.6-.4-.6-.65l.5-2.6h.8c.3 0 .6 0 .9.7.2 1 .7 1.9 1.1 2.8l2.9-.1.2-.5c-.23-.1-.6-.2-.8-.4-.2-.3-.3-.8-.53-1.3-.1-.9-.7-1.4-1.2-1.9.6-.1 2.4-1 2.5-2.5 0-1-.1-1.7-2.1-2.2l-5.66-.1zm4.3.78c.8.17 1.3.63 1.1 1.76-.6 1.84-1.8 1.7-2.3 1.78l-.8-.05.7-3.46 1.4-.03zm10.4-.9c-3.4.23-4.6 2-5.3 4.13-1.1 4.73 2.5 4.73 3.6 4.7 1.9-.2 4.4-.52 5.3-4.4.7-3-.4-4.2-3.6-4.43zm.1.8c2 .26 1.4 2.5 1.3 3.9-1.1 3.68-2.3 3.27-3 3.34-1.4-.13-1.8-1.57-1.1-4.12.6-1.54 1.1-3.12 3-3.12zM109 40.9l.1-.78 12.3.05-.5 3.56-1.7.02c-.3-1.78-1.06-2.38-1.9-2.24H114l-.86 5.5 1.93-.1c1.1.1 1.37-.8 1.73-1.5h1.36l-.7 4.6-1.48.1c.04-.7-.33-1.3-1-1.7h-2.1l-1.06 6.1h3.68c1.58-.6 1.8-1.8 2.42-2.8l1.6.1-.87 4.2-12.16.1v-.7c.9-.1 1.4-.7 1.5-1.2l1.8-11.4c.1-.8-.2-1-.8-1.2zm12.83-.8v.7l1.8.4c.2.25.5.2.4.97l-1.9 11.6c-.26.35-.12.72-1.4 1l-.1.74 4.66.1v-.7c-1.2-.3-1-.7-1.1-1l1.5-9.6 5.5 11.5 3.2.1 2.2-13.5c.3-1.3 1.3-1 2.1-1.2l.1-.7-6.9.1v.7l1.5.1c.6.1 1.2.2 1 1.3l-1.3 8.7h-.1c-1.4-3.3-3.3-7.1-5.1-10.8zm16.9 3.97l.7-3.96 13.24.1-.6 3.9-1.6.1c-.06-2.2-.8-2.5-1.7-2.6h-1.24l-2.1 12.1c-.17 1.3.6 1.2 1.14 1.3l-.1.8h-6.3l.08-.7c1.43-.3 1.45-.8 1.63-1.3L144 41.4l-1.15-.02c-1.47.1-2 1.47-2.7 2.65z"/>
  <path fill-opacity=".31" stroke="#000" d="M29.3 56.72l4.74 2.66c2.55-3 8.86-10.84 17.9-11.03 5.07-.1 12.5 4.06 11.6 11.38-2.28 18.3-18.85 37.3-23.63 41.4l-25.1 21.55c-1.2 1.33-1.5 4.23 2.1 4.43l54.4.9 9.8-23.6-5.3-2.6s-2.5 4.5-4.1 6.4c-1.7 2.2-2 3.5-4.5 4.7-4.6 2.1-28.5 1.1-28.5 1.1S54 101.7 60.9 94.8c5-5.12 10.4-10.12 14.1-16.3 3.1-5.26 6-11.06 6.47-17.16.5-6.3.06-13.62-3.85-18.6-4.2-5.36-11.2-8.77-18.4-8.75-11.8 0-16.5 5-22.1 10.7-4.3 4.4-7.7 12.1-7.7 12.1z"/>
</svg>
