<svg xmlns="http://www.w3.org/2000/svg" width="196.5" height="200" xmlns:xlink="http://www.w3.org/1999/xlink" version="1">
  <defs>
    <linearGradient id="a">
      <stop offset="0" stop-color="#f5e0a1"/>
      <stop offset="1" stop-color="#21150f"/>
    </linearGradient>
    <linearGradient id="c" x1="21.76" x2="33.31" y1="12.9" y2="45.95" xlink:href="#a" gradientUnits="userSpaceOnUse" gradientTransform="matrix(5.4 0 0 5.3 -41 -180.5)"/>
    <linearGradient id="e" x1="21.49" x2="-28" y1="17.48" y2="-21.54" xlink:href="#a" spreadMethod="reflect" gradientUnits="userSpaceOnUse" gradientTransform="matrix(5.1 0 0 5 -34.7 -175)"/>
    <linearGradient id="f" x1="30.29" x2="18.56" y1="25.26" y2="8.67" gradientUnits="userSpaceOnUse" gradientTransform="matrix(5.1 0 0 5 -34.7 -175)">
      <stop offset="0" stop-color="#f5e0a1"/>
      <stop offset="1" stop-color="#21150f"/>
    </linearGradient>
    <linearGradient id="d" x1="37.23" x2="5.7" y1="38.12" y2="8.42" gradientUnits="userSpaceOnUse" gradientTransform="matrix(5.4 0 0 5.3 -41 -180.5)">
      <stop offset="0"/>
      <stop offset="1" stop-opacity="0"/>
    </linearGradient>
    <linearGradient id="h" x1="45.22" x2=".69" y1="34.84" y2="-4.82" xlink:href="#a" gradientUnits="userSpaceOnUse" gradientTransform="matrix(3.8 0 0 3.7 .9 -143.9)"/>
    <linearGradient id="g" x1="26.67" x2="35.95" y1="20.67" y2="29.17" gradientUnits="userSpaceOnUse" gradientTransform="matrix(3.8 0 0 3.7 .9 -143.9)">
      <stop offset="0" stop-color="#f1f2f3"/>
      <stop offset="1" stop-color="#aab7d2"/>
    </linearGradient>
    <linearGradient id="i" x1="-224.48" x2="1012.4" y1="129.08" y2="129.08" xlink:href="#b" gradientUnits="userSpaceOnUse" gradientTransform="matrix(.1 0 0 .2 52 -77.6)"/>
    <linearGradient id="b">
      <stop stop-color="#e6e6e6" offset="0"/>
      <stop stop-color="#ccc" stop-opacity=".75" offset="1"/>
    </linearGradient>
  </defs>
  <g transform="translate(-3.5 155.8)">
    <ellipse cx="101.71" cy="-55.83" fill="url(#c)" stroke="url(#d)" stroke-width=".5" ry="99.75" rx="98"/>
    <ellipse cx="100.37" cy="-58.06" fill="url(#e)" stroke="url(#f)" stroke-width=".47" ry="93.61" rx="92.75"/>
    <ellipse cx="101.37" cy="-58.05" fill="url(#g)" stroke="url(#h)" stroke-width=".16" ry="68.66" rx="69"/>
    <path fill-opacity=".31" stroke="#000" d="M66.65-34.93c-.42 2.38-.68 4.68-.23 6.96.3 1.55.94 3.12 1.96 4.32 1.3 1.52 3.14 2.58 5 3.3 2.6 1 6.57 1.82 8.22 1.9l-.12 2h-47.1l-.14-3.25c3.98-.22 6.95-.63 10.1-2 1.5-.64 2.86-1.7 4.02-2.88.96-.97 1.58-2 2.35-3.37.8-1.36 1.6-3.58 2.4-6.67L64.7-81.5c.2-.78.57-2.5.9-4.22.4-2.27.7-4.02.55-5.06-.12-1.04-.9-1.55-1.9-2.04-.83-.4-2.85-.83-5.7-.78-2.3-.12-4.53.48-5.7-.77l-.2-2.93c8.97-1.67 17.8-3.1 29.64-10.6l3.9.15c-1.3 4.2-3 10.08-5 17.54z"/>
    <path fill="url(#i)" d="M170.04-48.97c-.6 1.23-1 2.62-1.12 4.13-.08 1.38.03 2.64.27 3.78.4-2.6.7-5.23.8-7.9z"/>
    <path fill-opacity=".31" stroke="#000" stroke-width=".6" d="M179.97-54.95c-5.9 0-10.56 4.16-11.06 10.1-.3 7 3.7 11.02 8.2 11.1 5-.06 8.8-2.6 10.6-9.92-.3-.14 1.4-9.57-7.7-11.28zm-1.33 1.2c.35-.02.7 0 1.08.06 5.74 2.7 4.85 4.9 4.8 9.7-.88 4.2-2.6 9.6-7.57 8.8 0 0-6.55-.3-5.1-10.1 1.3-5.2 3.47-8.3 6.8-8.4zm-51.2 3.3v-2.5l.03-1.8c0-.3-13.46-.14-13.46-.14s-.4.4-.5.7c0 .3.1.6.3.8.3.2 1 .2 1 .2l1.5-.1s-.3 11-2.2 16c-.1.4-.3.7-.6.9-.2.3-.5.4-.7.5-.5.3-1.7.2-1.6.8.2.8 1.7.1 2.5.2 1 .1 3 .1 3 .1h2.9l3.3.2 2.3-.1 1.5-1 .4-1.4c.1-.5.4-1 .3-1.4 0-.3-.1-.7-.4-.82-.13-.1-.4-.1-.5 0-.6.4-.1 1.5-.53 2.04-.3.3-1.1.73-1.1.73l-1.16.5-2.4.3H118l-.7-.37-.7-.9.33-1.9.98-5.4.87-.35h4l.3.3v2.3l.57.6.6-.6-.2-3.2 1.15-2.36-.43-.72h-.3l-.8 1.2-.6.8-.8.3-2.2.27h-1.3l-.6-.2 1.3-7.6 2.2-.3h2.4l1.55.06.48 1 .2 2.2c.4.3.74.1 1.13-.1zm4.5-4.05l3 .1 2.58-.04h1.35l.2.36-.04.36-.37.02h-.6l-.9.18-.53.38-.05.2-.16 1.08-1.66 11.14-.1 1.6.05 1.34.6 1 1.7 1.02 2.4.17 1.9-.4 1.2-.9 1-1.2.7-1.8.6-3 .7-4.2.5-2.1v-1.6l.1-1-.02-.6-.1-.5-.43-.1h-1.1l-.5-.1v-.4l.07-.3h2.2l2.18.08h1l.07.54-.15.27c-.3 0-.65 0-.97.03-.7.1-.7.8-.97 1.23l-.9 3.8-1.6 8.96-1.4 3.2c-.9 1-1.9 1.5-2.94 1.8-1.2.27-2.4.43-3.6.27-1.27-.16-2.3-.7-3.24-1.3-.68-.57-1.16-1.43-1.6-2.4.1-2.3.2-4.5.57-6.7l1.2-7.63c.12-.72 0-1.1-.36-1.2L132-53v-.4zm20.2-.04c-.3.22-.47.48-.33.93l1.8.5-2.4 16.4c0 .1.1.3 0 .4-.1.1-.1 0-.3.1-.4.2-1.2.6-1.6.9-.1.1.1.5.3.5 3 .5 6.8 0 6.9.1l.2-.7-2.2-.5c-.3-.1-.6-.6-.5-.8.7-2.8 1.2-8.1 1.8-8.3l1 .4c.5.2.7.5.8.4 0 0 1.87 6.9 4.6 8.8 1 .7 2.6.8 3.8.4.2-.1.67-.4.6-.6-.03-.3-.6-.3-.83-.4l-2-.9-4.05-8.2c5.56-2.8 5.77-7.5 1.45-9.8l-8.7-.4zm4.2 20zm1.63-18.94c.37 0 .7.03.9.04.64.02 1.28.02 1.76.37.6.4.86 1.05 1.02 1.73.16.7 0 1.4-.1 2.13-.17.8-.28 1.7-.8 2.5-.44.6-1.08 1-1.77 1.2-.6.2-1.28.2-1.92.2-.43-.1-1.28.1-1.28-.3.32-3.2 1.23-6.9 1.17-7.7 0-.4.54-.5 1.12-.5z"/>
  </g>
</svg>
