<?xml version="1.0" encoding="UTF-8" standalone="no"?>
<!-- Generator: Adobe Illustrator 14.0.0, SVG Export Plug-In . SVG Version: 6.00 Build 43363)  -->

<svg
   xmlns:dc="http://purl.org/dc/elements/1.1/"
   xmlns:cc="http://creativecommons.org/ns#"
   xmlns:rdf="http://www.w3.org/1999/02/22-rdf-syntax-ns#"
   xmlns:svg="http://www.w3.org/2000/svg"
   xmlns="http://www.w3.org/2000/svg"
   xmlns:sodipodi="http://sodipodi.sourceforge.net/DTD/sodipodi-0.dtd"
   xmlns:inkscape="http://www.inkscape.org/namespaces/inkscape"
   version="1.1"
   id="Layer_1"
   x="0px"
   y="0px"
   width="237.6976"
   height="261.47345"
   viewBox="0 0 237.6976 261.47345"
   enable-background="new 0 0 1440 1440"
   xml:space="preserve"
   inkscape:version="0.91 r13725"
   sodipodi:docname="ballena.svg"><metadata
     id="metadata771"><rdf:RDF><cc:Work
         rdf:about=""><dc:format>image/svg+xml</dc:format><dc:type
           rdf:resource="http://purl.org/dc/dcmitype/StillImage" /><dc:title></dc:title></cc:Work></rdf:RDF></metadata><defs
     id="defs769" /><sodipodi:namedview
     pagecolor="#ffffff"
     bordercolor="#666666"
     borderopacity="1"
     objecttolerance="10"
     gridtolerance="10"
     guidetolerance="10"
     inkscape:pageopacity="0"
     inkscape:pageshadow="2"
     inkscape:window-width="1920"
     inkscape:window-height="1018"
     id="namedview767"
     showgrid="false"
     inkscape:zoom="0.57013889"
     inkscape:cx="-25.367708"
     inkscape:cy="433.35813"
     inkscape:window-x="-8"
     inkscape:window-y="-8"
     inkscape:window-maximized="1"
     inkscape:current-layer="Layer_1"
     fit-margin-top="0"
     fit-margin-left="0"
     fit-margin-right="0"
     fit-margin-bottom="0" /><g
     id="g745"
     transform="translate(-745.36771,-891.88468)"><g
       id="g747"><path
         d="m 907.703,1027.922 c -58.021,-4.657 -59.191,61.134 -93.771,61.134 -29.624,0 -26.346,-31.83 -24.799,-40.949 3.43,-0.256 7.995,-1.502 13.605,-5.017 14.992,-9.396 5.92,-27.687 5.92,-27.687 -0.293,6.403 -8.792,6.986 -8.792,6.986 -15.887,0.74 -17.685,13.179 -18.218,19.795 -2.085,-4.93 -7.074,-13.951 -15.354,-13.188 -11.187,1.03 -8.881,5.498 -20.875,-0.688 0,0 -1.853,17.853 16.716,22.388 4.826,1.179 8.627,1.13 11.583,0.496 -1.112,95.401 90.494,117.183 146.881,93.175 64.948,-27.651 45.125,-111.788 -12.896,-116.445 z"
         id="path749"
         inkscape:connector-curvature="0"
         style="fill:#64c3a3" /><path
         d="m 908.832,1017.083 c 1.821,-3.817 14.714,-30.219 38.31,-24.13 52.133,13.455 42.911,-55.072 1.815,-44.486 -32.197,8.295 -41.885,66.374 -42.672,71.593 0,0 -0.09,0.702 0.191,0.85 1.109,0.577 2.356,-3.827 2.356,-3.827 z"
         id="path751"
         inkscape:connector-curvature="0"
         style="fill:#64c3a3" /><path
         d="m 907.052,983.125 c 2.271,-9.561 -9.364,-87.786 35.637,-76.068 22.763,5.927 16.831,41.38 -6.412,42.183 -21.827,0.753 -23.605,24.483 -27.054,33.667 0,0 -0.441,1.52 -1.306,1.44 0,0 -1.137,-0.081 -0.865,-1.222 z"
         id="path753"
         inkscape:connector-curvature="0"
         style="fill:#64c3a3" /><path
         d="m 904.842,1020.094 c 0,0 7.238,-157.094 -74.927,-123.498 0,0 -37.965,17.592 -14.178,56.79 9.32,15.356 30.746,15.331 46.659,12.479 0,0 13.611,-2.96 22.751,7.942 9.142,10.902 16.022,43.638 17.266,46.062 1.4,2.736 2.429,0.225 2.429,0.225 z"
         id="path755"
         inkscape:connector-curvature="0"
         style="fill:#64c3a3" /></g><g
       id="g757"><path
         d="m 905.375,1078.219 c 2.642,3.638 6.607,4.63 8.854,2.213 2.244,-2.428 1.918,-7.346 -0.726,-10.987 -2.649,-3.649 -6.613,-4.636 -8.855,-2.215 -2.242,2.424 -1.922,7.34 0.727,10.989 z"
         id="path759"
         inkscape:connector-curvature="0"
         style="fill:#085877" /><path
         d="m 946.813,1121.693 c 0,0 -31.152,11.089 -39.329,-19.896 0,0 -0.565,-1.036 0.158,-1.575 0.904,-0.672 2.274,0.119 2.274,0.119 7.162,30.196 36.205,18.796 36.205,18.796 0,0 1.387,0.326 1.602,0.856 0.215,0.529 -0.019,1.588 -0.91,1.7 z"
         id="path761"
         inkscape:connector-curvature="0"
         style="fill:#085877" /><path
         d="m 908.832,1017.083 c 1.821,-3.817 14.714,-30.219 38.31,-24.13 52.133,13.455 42.911,-55.072 1.815,-44.486 -32.197,8.295 -41.885,66.374 -42.672,71.593 0,0 -0.09,0.702 0.191,0.85 1.109,0.577 2.356,-3.827 2.356,-3.827 z"
         id="path763"
         inkscape:connector-curvature="0"
         style="fill:#085877" /><path
         d="m 904.842,1020.094 c 0,0 7.238,-157.094 -74.927,-123.498 0,0 -37.965,17.592 -14.178,56.79 9.32,15.356 30.746,15.331 46.659,12.479 0,0 13.611,-2.96 22.751,7.942 9.142,10.902 16.022,43.638 17.266,46.062 1.4,2.736 2.429,0.225 2.429,0.225 z"
         id="path765"
         inkscape:connector-curvature="0"
         style="fill:#085877" /></g></g></svg>
