<?xml version="1.0" encoding="UTF-8" standalone="no"?>
<!-- Generator: Adobe Illustrator 14.0.0, SVG Export Plug-In . SVG Version: 6.00 Build 43363)  -->

<svg
   xmlns:dc="http://purl.org/dc/elements/1.1/"
   xmlns:cc="http://creativecommons.org/ns#"
   xmlns:rdf="http://www.w3.org/1999/02/22-rdf-syntax-ns#"
   xmlns:svg="http://www.w3.org/2000/svg"
   xmlns="http://www.w3.org/2000/svg"
   xmlns:sodipodi="http://sodipodi.sourceforge.net/DTD/sodipodi-0.dtd"
   xmlns:inkscape="http://www.inkscape.org/namespaces/inkscape"
   version="1.1"
   id="Layer_1"
   x="0px"
   y="0px"
   width="195.36432"
   height="279.38361"
   viewBox="0 0 195.36432 279.38361"
   enable-background="new 0 0 1440 1440"
   xml:space="preserve"
   inkscape:version="0.91 r13725"
   sodipodi:docname="leon.svg"><metadata
     id="metadata771"><rdf:RDF><cc:Work
         rdf:about=""><dc:format>image/svg+xml</dc:format><dc:type
           rdf:resource="http://purl.org/dc/dcmitype/StillImage" /><dc:title></dc:title></cc:Work></rdf:RDF></metadata><defs
     id="defs769" /><sodipodi:namedview
     pagecolor="#ffffff"
     bordercolor="#666666"
     borderopacity="1"
     objecttolerance="10"
     gridtolerance="10"
     guidetolerance="10"
     inkscape:pageopacity="0"
     inkscape:pageshadow="2"
     inkscape:window-width="1920"
     inkscape:window-height="1018"
     id="namedview767"
     showgrid="false"
     fit-margin-top="0"
     fit-margin-left="0"
     fit-margin-right="0"
     fit-margin-bottom="0"
     inkscape:zoom="0.64641035"
     inkscape:cx="-255.70221"
     inkscape:cy="-70.202863"
     inkscape:window-x="-8"
     inkscape:window-y="-8"
     inkscape:window-maximized="1"
     inkscape:current-layer="Layer_1" /><g
     id="g459"
     transform="translate(-953.629,-331.571)"><path
       d="m 1115.793,519.273 c 0,0 -3.565,-5.197 -8.187,-5.111 -2.153,-1.782 -4.442,-3.275 -6.861,-4.443 -3.865,-1.869 -7.261,-4.597 -10.231,-7.816 -3.785,-21.399 -10.349,-35.635 -16.299,-44.751 l 6.095,-4.986 -4.532,-6.799 6.798,4.533 7.254,-9.973 -2.722,-11.785 6.348,5.439 5.438,-15.412 -4.079,-14.504 7.705,3.626 0,-19.944 -7.885,-9.121 7.254,0 -7.254,-24.481 -17.228,-0.906 6.679,-8.542 -21.186,-10.499 -12.693,9.067 5.173,-11.271 -26.29,1.813 -1.549,18.525 -9.243,-19.1 -17.527,0.402 2.016,6.65 -11.081,-5.44 -11.281,4.835 2.819,5.642 -10.274,-1.21 -11.282,13.699 6.447,1.814 -10.678,7.05 -3.425,16.319 7.454,1.813 -7.857,4.03 1.612,22.16 6.647,-3.425 -4.028,9.268 4.028,12.491 7.254,-2.217 -4.03,7.455 9.067,15.312 4.229,-4.432 -1.209,7.051 7.372,7.076 c -7.813,11.641 -13.267,31.074 -9.958,63.527 3.639,35.697 7.155,55.788 9.008,65.63 -3.264,3.328 -5.213,7.504 -5.213,12.044 0,10.848 11.095,10.578 24.78,10.578 13.685,0 24.78,0.271 24.78,-10.578 0,-2.385 -0.537,-4.669 -1.52,-6.784 6.718,0.879 15.574,1.26 24.585,-0.597 -0.554,1.631 -0.854,3.344 -0.854,5.115 0,10.848 11.096,10.576 24.78,10.576 7.299,0 13.858,0.077 18.393,-1.497 0.369,0.045 0.571,0.062 0.571,0.062 109.396,13.299 21.87,-87.978 21.87,-87.978 z m -16.107,80.043 c 0.033,-0.387 0.055,-0.785 0.055,-1.205 0,-0.675 -0.043,-1.341 -0.126,-1.999 3.603,2.068 9.217,2.394 15.749,2.443 -5.027,0.723 -10.435,1.009 -15.678,0.761 z m 30.187,-29.396 c -0.226,-3.965 -0.63,-7.848 -1.208,-11.614 2.46,4.768 4.628,9.505 6.209,13.891 -1.54,-0.906 -3.218,-1.672 -5.001,-2.277 z"
       id="path461"
       inkscape:connector-curvature="0"
       style="fill:#ffcb09" /><path
       d="m 1015.057,593.29 c 4.96,8.391 2.818,15.377 3.883,14.003 2.134,-7.356 -2.263,-13.896 -3.883,-14.003 z m -27.278,13.656 c 1.04,1.392 -2.732,-8.27 4.116,-13.936 -1.622,0.079 -8.144,6.116 -4.116,13.936 z m 14.794,-13.452 c 0,0 2.419,6.838 -0.228,14.603 0,0 1.766,1.632 2.276,-6.361 0.529,-8.302 -2.653,-10.836 -2.048,-8.242 z m 21.279,-205.941 c 2.041,-0.616 2.979,-3.498 2.093,-6.438 -0.885,-2.947 -3.257,-4.832 -5.294,-4.221 -2.041,0.614 -2.981,3.494 -2.096,6.44 0.883,2.937 3.257,4.828 5.297,4.219 z m 15.135,0.684 c 2.023,-0.089 3.567,-2.582 3.444,-5.577 -0.127,-2.995 -1.871,-5.355 -3.902,-5.27 -2.027,0.083 -3.569,2.585 -3.444,5.577 0.125,2.994 1.873,5.358 3.902,5.27 z m 76.857,131.023 c 0,0 -3.565,-5.198 -8.187,-5.112 10.758,8.9 18.127,25.031 21.059,44.143 7.136,13.837 11.846,27.414 6.722,32.866 0,-0.63 -0.018,-1.321 -0.058,-2.132 -0.415,-8.332 -4.323,-10.302 -3.03,-7.869 0,0 2.187,5.114 2.144,10.861 -2.262,1.812 -5.716,3.368 -9.867,4.577 -0.054,-0.877 -4.596,-6.79 -1.638,-16.017 -1.942,0.914 -4.04,9.05 1.293,16.056 0.035,0.016 0.063,0.025 0.093,0.037 -8.689,2.483 -20.337,3.457 -30.474,2.113 -0.216,-5.5 -3.292,-9.367 -4.583,-9.431 2.269,3.393 3.148,6.713 3.503,9.28 -5.618,-0.846 -10.703,-2.433 -14.479,-4.897 0.146,-1.445 0.299,-2.354 0.299,-2.354 0.393,-1.682 -0.668,-1.176 -1.32,1.641 -5.938,-4.429 -7.945,-11.389 -2.242,-21.571 l 16.925,-10.688 -2.857,-3.456 -6.78,4.222 4.929,-9.46 -2.361,-1.826 -3.94,-1.641 -5.133,8.842 4.309,-10.051 -9.592,-0.405 0.28,11.758 -1.42,-5.572 -3.77,0.577 1.325,14.902 c -5.754,10.459 -5.513,18.122 -2.396,23.727 -1.687,2.166 -3.523,7.041 -2.321,12.799 0.963,1.245 -0.067,-5.132 2.856,-11.902 2.792,4.393 7.385,7.439 12.099,9.537 0.627,4.321 1.637,3.169 1.637,3.169 -0.206,-0.879 -0.361,-1.775 -0.478,-2.673 7.824,3.224 15.586,3.932 15.586,3.932 109.393,13.294 21.867,-87.982 21.867,-87.982 z m -49.091,-66.665 3.626,7.705 9.973,-8.159 -4.533,-6.798 6.799,4.532 7.252,-9.972 -2.72,-11.784 6.346,5.439 5.439,-15.412 -4.079,-14.504 7.705,3.626 0,-19.944 -7.885,-9.121 7.254,0 -7.254,-24.481 -17.228,-0.906 6.68,-8.542 -21.186,-10.499 -12.693,9.067 5.172,-11.271 -26.29,1.813 -1.55,18.525 -9.241,-19.099 -17.527,0.402 2.014,6.648 -11.079,-5.439 -11.282,4.835 2.82,5.642 -10.274,-1.209 -11.282,13.699 6.447,1.814 -10.679,7.05 -3.425,16.319 7.455,1.813 -7.857,4.029 1.611,22.161 6.649,-3.425 -4.029,9.268 4.029,12.491 7.252,-2.216 -4.029,7.455 9.065,15.311 4.23,-4.432 -1.208,7.052 10.073,9.669 2.216,-5.641 4.433,10.073 9.469,4.433 3.425,-4.028 -1.813,5.438 9.065,4.634 3.627,-7.454 -0.807,9.468 4.433,2.015 2.619,-11.282 1.61,11.282 7.656,1.007 0,-14.303 3.425,11.483 8.261,-2.62 1.41,-11.08 1.61,8.462 4.747,-3.814 0.856,-8.16 2.72,7.252 10.929,-6.346 -0.452,-9.971 z m 1.771,-90.483 c 9.047,8.413 0.81,16.677 -6.766,15.932 0,0 -0.454,-0.761 -1.273,-1.91 4.461,-0.436 8.447,-5.318 3.106,-10.284 -5.329,-4.956 -9.474,0.072 -10.884,2.213 -0.598,-0.425 -1.21,-0.829 -1.846,-1.183 10e-4,0 7.421,-14.292 17.663,-4.768 z m -63.721,-8.878 c 12.489,-6.296 15.639,9.497 15.639,9.497 -0.979,0.225 -1.943,0.54 -2.884,0.906 -0.661,-2.273 -3.192,-8.767 -9.905,-5.382 -6.791,3.423 -3.814,9.581 0.665,10.931 -0.912,0.737 -1.45,1.235 -1.45,1.235 -7.484,-1.394 -13.097,-11.625 -2.065,-17.187 z m 58.572,71.256 c -2.193,14.207 -20.44,23.179 -40.754,20.041 -20.314,-3.138 -35.005,-17.198 -32.81,-31.404 0.668,-4.325 2.825,-8.163 6.073,-11.323 0.096,-1.086 0.227,-2.177 0.396,-3.275 3.451,-22.345 21.22,-38.146 39.688,-35.293 18.468,2.852 30.64,23.279 27.189,45.623 -0.276,1.79 -0.646,3.538 -1.1,5.237 1.367,3.344 1.864,6.865 1.318,10.394 z m -19.982,3.858 c -0.15,1.411 -1.438,3.204 -4.23,3.878 -2.921,0.706 -6.95,0.856 -9.368,-4.634 0,0 -1.213,-7.848 -0.704,-11.434 1.527,-0.441 6.963,-2.818 8.79,-6.837 2.033,-4.474 0.406,-4.676 -9.962,-5.896 -10.37,-1.22 -1.831,10.775 -1.831,10.775 0,0 1.482,1.481 2.296,1.914 -0.105,1.282 -0.26,5.023 0.655,11.478 0,0 -0.453,5.49 -5.691,5.843 -6.239,0.419 -7.907,-3.525 -8.059,-4.433 -0.15,-0.907 -0.491,-0.113 -0.491,-0.113 0,0 -0.136,5.748 8.45,5.503 4.713,-0.136 6.245,-4.988 6.245,-4.988 0,0 2.48,4.407 7.43,4.107 7.599,-0.46 7.151,-5.906 7.151,-5.906 0,0 -0.53,-0.668 -0.681,0.743 z"
       id="path463"
       inkscape:connector-curvature="0"
       style="fill:#a26327" /></g></svg>
