<?xml version="1.0" encoding="UTF-8" standalone="no"?>
<!-- Generator: Adobe Illustrator 14.0.0, SVG Export Plug-In . SVG Version: 6.00 Build 43363)  -->

<svg
   xmlns:dc="http://purl.org/dc/elements/1.1/"
   xmlns:cc="http://creativecommons.org/ns#"
   xmlns:rdf="http://www.w3.org/1999/02/22-rdf-syntax-ns#"
   xmlns:svg="http://www.w3.org/2000/svg"
   xmlns="http://www.w3.org/2000/svg"
   xmlns:sodipodi="http://sodipodi.sourceforge.net/DTD/sodipodi-0.dtd"
   xmlns:inkscape="http://www.inkscape.org/namespaces/inkscape"
   version="1.1"
   id="Layer_1"
   x="0px"
   y="0px"
   width="303.34683"
   height="483.12183"
   viewBox="0 0 303.34683 483.12183"
   enable-background="new 0 0 1440 1440"
   xml:space="preserve"
   inkscape:version="0.91 r13725"
   sodipodi:docname="mono.svg"><metadata
     id="metadata771"><rdf:RDF><cc:Work
         rdf:about=""><dc:format>image/svg+xml</dc:format><dc:type
           rdf:resource="http://purl.org/dc/dcmitype/StillImage" /><dc:title></dc:title></cc:Work></rdf:RDF></metadata><defs
     id="defs769" /><sodipodi:namedview
     pagecolor="#ffffff"
     bordercolor="#666666"
     borderopacity="1"
     objecttolerance="10"
     gridtolerance="10"
     guidetolerance="10"
     inkscape:pageopacity="0"
     inkscape:pageshadow="2"
     inkscape:window-width="1920"
     inkscape:window-height="1018"
     id="namedview767"
     showgrid="false"
     fit-margin-top="0"
     fit-margin-left="0"
     fit-margin-right="0"
     fit-margin-bottom="0"
     inkscape:zoom="0.16388889"
     inkscape:cx="-195.14708"
     inkscape:cy="419.57694"
     inkscape:window-x="-8"
     inkscape:window-y="-8"
     inkscape:window-maximized="1"
     inkscape:current-layer="Layer_1" /><g
     id="g465"
     transform="translate(-63.960638,-656.45511)"><path
       d="m 364.476,800.032 c -13.108,-11.984 -24.829,16.476 -32.117,25.64 -2.374,2.979 -6.556,6.004 -10.025,9.135 -53.337,-13.84 -89.606,-7.537 -114.81,21.602 -4.019,4.644 -7.18,11.761 -10.846,17.414 -3.884,-5.64 -7.854,-8.707 -13.596,-11.457 1.069,-5.957 1.223,-11.256 2.183,-15.336 3.803,-16.121 7.026,-33.956 5.591,-57.023 -1.22,-19.662 -7.634,-34.635 -14.535,-49.193 -6.979,-14.732 -17.319,-31.422 -16.771,-45.843 0.915,-24.029 30.943,-33.832 50.471,-22.284 0,0 9.597,4.146 11.649,13.505 3.551,16.202 8.905,16.821 8.905,16.821 0.157,0 0.303,-0.021 0.391,-0.056 5.242,-1.824 5.975,-6.5 4.246,-11.583 -9.916,-29.175 -35.41,-33.302 -35.41,-33.302 -9.089,-2.588 -13.26,-1.676 -20.126,0 -13.322,4.833 -29.516,16.114 -30.19,35.779 -0.979,28.636 19.534,43.748 27.952,73.794 7.829,27.928 3.096,54.743 -2.235,77.147 -0.95,3.993 -2.052,9.02 -3.686,14.419 -4.567,-0.394 -7.494,-0.166 -11.809,1.322 -0.097,-6.884 -2.571,-15.003 -3.361,-21.387 -3.401,-27.523 -9.175,-50.907 -19.083,-73.324 -3.166,-7.168 -6.968,-22.527 -11.974,-30.13 1.355,-2.78 2.603,-6.567 3.789,-12.142 12.281,-57.687 -14.1,-45.917 -14.635,-34.395 -0.537,11.524 11.134,16.9 -3.892,40.169 -11.841,18.333 -2.116,18.47 2.547,17.701 14.327,25.319 24.624,57.123 29.195,91.51 1.194,8.988 5.194,24.747 3.971,30.246 -11.171,8.002 -17.782,19.52 -20.28,36.579 -0.135,0.912 -0.275,1.742 -0.419,2.519 -0.417,0.07 -0.832,0.133 -1.246,0.225 -8.003,1.755 -14.479,7.149 -18.711,14.625 -3.186,-2.248 -7.1,-3.577 -11.339,-3.541 -10.538,0.093 -19.007,8.472 -18.919,18.719 0.088,10.249 8.701,18.478 19.238,18.392 2.328,-0.025 4.548,-0.468 6.607,-1.229 0.064,0.336 0.124,0.664 0.198,1.005 1.115,5.078 2.907,9.783 5.208,13.982 -14.834,21.66 -29.332,48.641 -41.632,72.5 -1.171,2.259 -1.51,5.188 0,7.827 7.82,19.109 15.684,38.169 25.15,55.634 -0.628,2.407 -0.91,5.668 -0.541,10.092 1.465,17.564 3.498,20.072 7.317,22.686 4.635,3.172 10.245,-4.392 10.979,-3.658 2.858,2.857 8.78,-2.438 10.244,-5.856 0.324,-0.751 0.319,-2.241 1.1,-2.14 5.244,0.677 6.959,-7.803 4.023,-11.031 -5.368,-5.907 -12.12,-12.421 -18.761,-15.325 -5.95,-19.269 -21.829,-35.151 -25.736,-56.632 5.211,-11.097 16.607,-27.459 28.395,-43.306 7.365,9.495 23.156,14.035 39.795,10.389 7.496,-1.645 14.135,-4.729 19.424,-8.689 4.679,32.113 11.57,72.191 17.671,89.179 -2.542,2.23 -5.435,6.029 -6.379,12.148 -2.689,17.417 -0.812,20.356 2.372,23.72 3.863,4.072 10.941,-2.134 11.502,-1.264 2.192,3.396 9.096,-0.533 11.248,-3.564 0.475,-0.668 0.783,-2.124 1.526,-1.862 4.981,1.769 9.229,-6.012 7.04,-9.785 -4.354,-7.516 -7.953,-17.954 -15.619,-21.258 0.222,-11.002 -5.142,-29.774 -6.224,-38.21 -3.302,-25.743 -7.212,-50.934 -10.064,-74.915 -0.655,-5.497 -0.442,-11.66 -0.903,-17.459 13.508,-7.054 24.255,-22.787 27.102,-42.249 1.562,-10.655 2.641,-16.479 -0.397,-25.33 2.749,-7.792 4.41,-15.802 8.402,-21.083 10.549,-13.956 26.924,-28.562 48.857,-29.885 19.979,-1.205 36.396,8.153 56.343,7.925 0.53,0.544 1.159,1.095 1.9,1.649 10.531,7.869 19.757,-11.111 19.757,-11.111 15.602,-15.331 33.949,-30.051 23.983,-39.162 z"
       id="path467"
       inkscape:connector-curvature="0"
       style="fill:#3c2417" /><g
       id="g469"><path
         d="m 340.493,839.191 c 0,0 -9.227,18.98 -19.757,11.111 -12.226,-9.14 5.575,-17.043 11.624,-24.631 7.288,-9.164 19.009,-37.624 32.117,-25.64 9.965,9.112 -8.382,23.832 -23.984,39.16 z"
         id="path471"
         inkscape:connector-curvature="0"
         style="fill:#fed09e" /><path
         d="m 154.921,920.361 c 4.753,2.006 9.255,16.934 9.255,16.934 3.52,0.637 7.215,0.531 10.847,-1.434 7.591,-4.105 10.906,-12.687 7.41,-19.157 -3.501,-6.477 -12.495,-8.397 -20.085,-4.295 -3.475,1.88 -6.054,4.695 -7.496,7.817 l 0.069,0.135 z"
         id="path473"
         inkscape:connector-curvature="0"
         style="fill:#fed09e" /><path
         d="m 101.68,953.564 c -4.719,-15.418 2.109,-25.821 2.109,-25.821 -7.96,-3.751 -16.965,-1.396 -20.104,5.264 -3.136,6.652 0.771,15.095 8.733,18.849 3.005,1.415 6.156,1.96 9.086,1.738"
         id="path475"
         inkscape:connector-curvature="0"
         style="fill:#fed09e" /><path
         d="m 129.08,723.55 c 12.281,-57.687 -14.1,-45.917 -14.635,-34.395 -0.537,11.524 11.134,16.9 -3.892,40.169 -15.032,23.272 4.693,17.222 4.693,17.222 6.034,-5.543 10.22,-6.016 13.834,-22.996 z"
         id="path477"
         inkscape:connector-curvature="0"
         style="fill:#fed09e" /><path
         d="m 96.897,1099.279 c 0,0 -8.782,-0.733 -7.317,16.83 1.465,17.564 3.498,20.072 7.317,22.686 4.635,3.172 10.245,-4.392 10.979,-3.658 2.858,2.857 8.78,-2.438 10.244,-5.856 0.324,-0.751 0.319,-2.241 1.1,-2.14 5.244,0.677 6.959,-7.803 4.023,-11.031 -7.449,-8.199 -17.563,-17.564 -26.346,-16.831 z"
         id="path479"
         inkscape:connector-curvature="0"
         style="fill:#fed09e" /><path
         d="m 188.351,1088.961 c 0,0 -8.899,3.237 -10.701,14.912 -2.689,17.417 -0.812,20.356 2.372,23.72 3.863,4.072 10.941,-2.134 11.502,-1.264 2.192,3.396 9.096,-0.533 11.248,-3.564 0.475,-0.668 0.783,-2.124 1.526,-1.862 4.981,1.769 9.229,-6.012 7.04,-9.785 -5.554,-9.588 -9.877,-23.938 -22.987,-22.157 z"
         id="path481"
         inkscape:connector-curvature="0"
         style="fill:#fed09e" /><g
         id="g483"><g
           id="g485"><path
             d="m 178.58,976.246 c -1.788,-8.147 -8.523,-14.32 -17.692,-17.461 0.628,-4.011 0.546,-8.262 -0.395,-12.555 -3.649,-16.639 -18.603,-27.493 -33.407,-24.246 -14.803,3.247 -23.847,19.363 -20.198,36.001 0.939,4.291 2.646,8.191 4.895,11.57 -7.014,6.688 -10.55,15.109 -8.763,23.258 3.246,14.803 22.795,23.095 43.657,18.521 20.866,-4.574 35.149,-20.286 31.903,-35.088 z m -54.798,-22.301 c -2.281,1.026 -5.322,-0.788 -6.786,-4.049 -1.468,-3.262 -0.812,-6.736 1.471,-7.764 2.278,-1.025 5.316,0.788 6.784,4.048 1.467,3.263 0.81,6.744 -1.469,7.765 z m 10.353,-16.296 c 2.394,-0.417 4.849,2.166 5.477,5.774 0.634,3.608 -0.799,6.88 -3.191,7.295 -2.394,0.416 -4.848,-2.17 -5.474,-5.777 -0.633,-3.609 0.797,-6.878 3.188,-7.292 z m 5.099,36.334 c -4.37,0.955 -8.496,-0.922 -9.213,-4.201 -0.719,-3.276 2.241,-6.705 6.612,-7.666 4.368,-0.956 8.491,0.924 9.21,4.2 0.718,3.273 -2.241,6.706 -6.609,7.667 z m 20.642,22.07 c -4.428,3.597 -9.732,4.4 -11.848,1.797 -2.114,-2.605 -0.239,-7.628 4.188,-11.227 4.429,-3.597 9.729,-4.396 11.844,-1.793 2.116,2.603 0.242,7.628 -4.184,11.223 z"
             id="path487"
             inkscape:connector-curvature="0"
             style="fill:#fed09e" /></g></g></g></g></svg>
