<?xml version="1.0" encoding="UTF-8" standalone="no"?>
<!-- Generator: Adobe Illustrator 14.0.0, SVG Export Plug-In . SVG Version: 6.00 Build 43363)  -->

<svg
   xmlns:dc="http://purl.org/dc/elements/1.1/"
   xmlns:cc="http://creativecommons.org/ns#"
   xmlns:rdf="http://www.w3.org/1999/02/22-rdf-syntax-ns#"
   xmlns:svg="http://www.w3.org/2000/svg"
   xmlns="http://www.w3.org/2000/svg"
   xmlns:sodipodi="http://sodipodi.sourceforge.net/DTD/sodipodi-0.dtd"
   xmlns:inkscape="http://www.inkscape.org/namespaces/inkscape"
   version="1.1"
   id="Layer_1"
   x="0px"
   y="0px"
   width="240.14296"
   height="195.42487"
   viewBox="0 0 240.14296 195.42487"
   enable-background="new 0 0 1440 1440"
   xml:space="preserve"
   inkscape:version="0.91 r13725"
   sodipodi:docname="rinoceronte.svg"><metadata
     id="metadata771"><rdf:RDF><cc:Work
         rdf:about=""><dc:format>image/svg+xml</dc:format><dc:type
           rdf:resource="http://purl.org/dc/dcmitype/StillImage" /><dc:title></dc:title></cc:Work></rdf:RDF></metadata><defs
     id="defs769" /><sodipodi:namedview
     pagecolor="#ffffff"
     bordercolor="#666666"
     borderopacity="1"
     objecttolerance="10"
     gridtolerance="10"
     guidetolerance="10"
     inkscape:pageopacity="0"
     inkscape:pageshadow="2"
     inkscape:window-width="1920"
     inkscape:window-height="1018"
     id="namedview767"
     showgrid="false"
     fit-margin-top="0"
     fit-margin-left="0"
     fit-margin-right="0"
     fit-margin-bottom="0"
     inkscape:zoom="0.64641035"
     inkscape:cx="-14.558512"
     inkscape:cy="178.4775"
     inkscape:window-x="-8"
     inkscape:window-y="-8"
     inkscape:window-maximized="1"
     inkscape:current-layer="Layer_1" /><g
     id="g501"
     transform="translate(-712.4853,-664.21011)"><path
       d="m 951.607,692.042 c 0,0 -0.042,-0.474 -0.336,-0.474 -0.222,0 -0.334,0.418 -0.334,0.418 -3.259,9.357 -8.548,15.487 -14.303,19.507 -0.103,-0.177 -0.204,-0.352 -0.303,-0.516 -3.72,-6.134 -8.384,-16.32 -14.896,-24.488 5.171,-1.049 10.938,-5.444 12.594,-6.687 2.384,-1.789 0.596,-9.737 -10.135,-14.904 -7.503,-3.612 -8.689,7.829 -8.725,15.041 -5.196,-4.359 -11.363,-6.978 -18.778,-5.972 0,0 -10.254,-1.027 -19.75,8.914 -0.037,-6.627 -1.347,-15.117 -7.99,-14.009 -10.731,1.789 -15.102,15.5 -10.731,17.089 2.837,1.032 8.35,4.068 12.742,5.099 -1.565,2.767 -3.025,5.979 -4.318,9.706 -15.567,-12.797 -33.483,-12.776 -46.756,-7.861 -18.743,6.941 -33.418,0.719 -33.418,0.719 -39.748,-30.564 -110.317,29.826 -50.668,83.727 1.409,1.271 2.835,2.469 4.267,3.629 6.611,11.152 13.81,25.636 13.015,34.76 -1.437,16.529 -7.515,34.041 0,37.371 6.06,2.685 34.857,1.796 33.779,-7.547 -0.062,-0.532 -0.159,-1.067 -0.273,-1.605 0.081,0.044 0.152,0.101 0.236,0.142 13.296,6.467 27.188,-1.75 16.817,-17.444 -4.624,-6.997 -4.579,-15.967 -2.984,-24.005 5.379,0.119 10.658,-0.136 15.778,-0.668 3.538,12.485 6.972,28.228 4.217,35.114 -4.906,12.266 -14.912,30.52 30.554,18.732 2.008,-0.521 2.601,-2.729 2.331,-5.834 8.013,3.407 22.494,1.653 26.464,-4.064 5.575,-8.028 -6.69,-7.137 -8.028,-22.524 -0.972,-11.168 4.986,-32.312 8.329,-43.073 7.606,3.6 18.274,5.412 33.243,3.195 34.41,-5.098 35.662,-32.354 30.771,-52.548 11.493,-14.268 8.468,-34.378 7.589,-38.94 z M 780.512,800.405 c -0.574,9.509 -1.46,19.912 -0.791,28.287 -2.646,-5.504 -5.304,-11.884 -6.453,-19.779 -0.496,-3.396 -0.737,-6.988 -0.812,-10.566 2.685,0.807 5.371,1.493 8.056,2.058 z m 68.654,35.116 c -1.176,-3.046 -2.453,-6.045 -3.611,-8.684 -3.557,-8.093 -1.306,-20.848 1.437,-31.431 0.313,-0.099 0.626,-0.198 0.937,-0.298 4.86,26.293 2.879,34.474 1.237,40.413 z"
       id="path503"
       inkscape:connector-curvature="0"
       style="fill:#b3b3b3" /><g
       id="g505"><path
         d="m 917.747,683.401 c 0,0 -1.504,-17.648 5.883,-14.091 7.387,3.557 8.619,9.028 6.978,10.26 -1.642,1.232 -9.169,6.978 -12.861,3.831 z"
         id="path507"
         inkscape:connector-curvature="0"
         style="fill:#010101" /><path
         d="m 874.443,687.565 c 0,0 2.188,-16.007 -5.197,-14.775 -7.39,1.231 -10.399,10.67 -7.39,11.765 3.009,1.095 10.4,5.471 12.587,3.01 z"
         id="path509"
         inkscape:connector-curvature="0"
         style="fill:#010101" /><path
         d="m 908.393,719.102 c 0.016,28.737 7.653,25.979 7.653,25.979 42.83,-5.747 36.858,-46.295 35.562,-53.023 0,0 -0.042,-0.474 -0.336,-0.474 -0.222,0 -0.334,0.418 -0.334,0.418 -10.043,28.827 -39.308,27.146 -42.297,26.896 0,0 -0.106,0.028 -0.132,0.048 -0.055,0.041 -0.116,0.156 -0.116,0.156 z"
         id="path511"
         inkscape:connector-curvature="0"
         style="fill:#010101" /><path
         d="m 911.418,703.737 c 0.088,2.143 1.339,3.834 2.791,3.772 1.449,-0.064 2.555,-1.849 2.467,-3.992 -0.092,-2.144 -1.34,-3.832 -2.793,-3.771 -1.451,0.061 -2.555,1.85 -2.465,3.991 z"
         id="path513"
         inkscape:connector-curvature="0"
         style="fill:#010101" /><path
         d="m 899.589,704 c 0.631,2.102 2.329,3.455 3.789,3.019 1.46,-0.441 2.132,-2.503 1.499,-4.606 -0.634,-2.109 -2.331,-3.458 -3.789,-3.021 -1.46,0.44 -2.133,2.5 -1.499,4.608 z"
         id="path515"
         inkscape:connector-curvature="0"
         style="fill:#010101" /><path
         d="m 928.628,751.648 c -1.347,4.768 0.291,9.35 3.659,10.22 3.375,0.872 7.196,-2.281 8.553,-7.05 1.349,-4.771 -0.297,-9.343 -3.666,-10.223 -3.37,-0.868 -7.195,2.293 -8.546,7.053 z"
         id="path517"
         inkscape:connector-curvature="0"
         style="fill:#010101" /><path
         d="m 894.937,758.814 c 2.565,5.272 7.353,8.228 10.672,6.593 3.317,-1.625 3.924,-7.222 1.351,-12.492 -2.567,-5.27 -7.343,-8.225 -10.662,-6.596 -3.318,1.639 -3.937,7.226 -1.361,12.495 z"
         id="path519"
         inkscape:connector-curvature="0"
         style="fill:#010101" /><path
         d="m 832.361,856.355 c 0,0 -1.165,-8.765 3.375,-8.881 4.542,-0.118 4.424,8.744 4.424,8.744 0,0 -3.738,1.984 -7.799,0.137 z"
         id="path521"
         inkscape:connector-curvature="0"
         style="fill:#010101" /><path
         d="m 842.291,855.291 c 0,0 -1.711,-7.197 1.651,-7.845 0,0 4.546,-0.427 4.497,6.911 0,0 -1.843,2.349 -6.148,0.934 z"
         id="path523"
         inkscape:connector-curvature="0"
         style="fill:#010101" /><path
         d="m 828.881,857.423 c 0,0 0.738,-8.029 -2.684,-8.189 0,0 -4.417,0.028 -3.592,6.941 0,0 1.661,2.074 6.276,1.248 z"
         id="path525"
         inkscape:connector-curvature="0"
         style="fill:#010101" /><path
         d="m 868.503,849.657 c 0,0 -3.183,-6.837 0.482,-8.089 3.667,-1.255 6.197,6.321 6.197,6.321 0,0 -2.903,2.236 -6.679,1.768 z"
         id="path527"
         inkscape:connector-curvature="0"
         style="fill:#010101" /><path
         d="m 875.987,846.369 c 0,0 -3.929,-4.939 -1.566,-6.657 0,0 3.354,-1.977 5.977,3.707 -10e-4,0 -0.572,2.481 -4.411,2.95 z"
         id="path529"
         inkscape:connector-curvature="0"
         style="fill:#010101" /><path
         d="m 866.162,850.243 c 0,0 0.632,-6.849 -2.286,-6.983 0,0 -3.768,0.023 -3.064,5.919 0,0 1.415,1.77 5.35,1.064 z"
         id="path531"
         inkscape:connector-curvature="0"
         style="fill:#010101" /><path
         d="m 795.808,844.04 c 0,0 -1,-7.533 2.9,-7.634 3.904,-0.101 3.802,7.517 3.802,7.517 0,0 -3.212,1.705 -6.702,0.117 z"
         id="path533"
         inkscape:connector-curvature="0"
         style="fill:#010101" /><path
         d="m 793.863,844.122 c 0,0 0.595,-6.465 -2.16,-6.594 0,0 -3.559,0.021 -2.895,5.59 10e-4,0 1.338,1.671 5.055,1.004 z"
         id="path535"
         inkscape:connector-curvature="0"
         style="fill:#010101" /><path
         d="m 766.945,851.959 c 0,0 -1.165,-8.766 3.374,-8.882 4.545,-0.118 4.424,8.744 4.424,8.744 0,0 -3.737,1.985 -7.798,0.138 z"
         id="path537"
         inkscape:connector-curvature="0"
         style="fill:#010101" /><path
         d="m 776.81,850.348 c 0,0 -1.71,-7.199 1.653,-7.846 0,0 4.544,-0.427 4.496,6.911 0,0 -1.844,2.349 -6.149,0.935 z"
         id="path539"
         inkscape:connector-curvature="0"
         style="fill:#010101" /><path
         d="m 761.201,852.277 c 0,0 0.739,-8.03 -2.682,-8.19 0,0 -4.418,0.027 -3.594,6.94 0.001,0 1.661,2.077 6.276,1.25 z"
         id="path541"
         inkscape:connector-curvature="0"
         style="fill:#010101" /><path
         d="m 804.552,834.796 c -2.68,0.516 -1.317,6.25 -1.317,6.25 0.99,0.325 1.813,0.397 2.487,0.341 0.894,-1.528 1.335,-3.38 1.181,-5.523 -1.039,-1.182 -2.351,-1.068 -2.351,-1.068 z"
         id="path543"
         inkscape:connector-curvature="0"
         style="fill:#010101" /><path
         d="m 907.056,780.156 c 0,0 -23.882,3.58 -24.765,-20.793 0,0 -0.237,-0.861 0.363,-1.154 0.747,-0.364 0.976,0.113 0.976,0.113 0.287,23.629 23.399,20.809 23.399,20.809 0,0 0.659,-0.122 0.729,0.307 0.068,0.426 -0.052,0.769 -0.702,0.718 z"
         id="path545"
         inkscape:connector-curvature="0"
         style="fill:#010101" /></g></g></svg>
