<svg xmlns="http://www.w3.org/2000/svg" width="195.3" height="275.32" xmlns:xlink="http://www.w3.org/1999/xlink" viewBox="0 0 195.3 275.32001" version="1">
  <defs>
    <linearGradient id="c" x1="407" x2="407" y1="103.25" y2="387.5" gradientUnits="userSpaceOnUse">
      <stop stop-color="#fff" offset="0"/>
      <stop stop-color="#fff" stop-opacity="0" offset="1"/>
    </linearGradient>
    <linearGradient id="a">
      <stop stop-color="red" offset="0"/>
      <stop stop-color="#790000" offset=".8"/>
      <stop stop-color="#8e0000" offset=".9"/>
      <stop stop-color="red" offset="1"/>
    </linearGradient>
    <linearGradient id="b" x1="407" x2="407" y1="103.25" y2="450.29" xlink:href="#a" gradientUnits="userSpaceOnUse"/>
  </defs>
  <g>
    <g fill="none" stroke="#000" transform="translate(-276.37 -312.7)">
      <rect width="194.3" height="274.32" x="276.87" y="313.2" ry="8.09" rx="8.09" opacity=".61"/>
      <rect width="138.42" height="222.51" x="304.81" y="339.1" stroke-width=".5" ry="0" rx="0" opacity=".61"/>
    </g>
    <text x="225.03" y="324.86" fill="red" style="line-height:125%" font-size="24" font-family="Arial" transform="translate(-218.195 -299.86)">
      <tspan x="225.03" y="324.86" style="line-height:125%">A</tspan>
    </text>
    <text x="389.48" y="566.93" fill="red" style="line-height:125%" font-size="24" font-family="Arial" transform="translate(-218.195 -299.86)">
      <tspan x="389.48" y="566.93" style="line-height:125%">A</tspan>
    </text>
    <g fill="red">
      <path d="M14.84 51.98s-1.55-2.7-2.7-4.27C11 46.2 9.9 45.5 8.54 44c-1.4-1.53-2.4-2.47-2.4-5.25 0-2.32 2-4.13 4.33-4.13 2.32 0 4.22 1.83 4.37 4.13.14-2.3 2.04-4.13 4.36-4.13 2.32 0 4.33 1.8 4.33 4.13 0 2.78-1 3.72-2.4 5.25-1.37 1.5-2.45 2.17-3.6 3.73-1.15 1.58-2.7 4.28-2.7 4.28z"/>
    </g>
    <g fill="red">
      <path d="M179.3 240.52s-1.55-2.7-2.7-4.27c-1.15-1.56-2.23-2.22-3.6-3.73-1.4-1.53-2.4-2.47-2.4-5.25 0-2.32 2-4.13 4.33-4.13 2.32 0 4.22 1.83 4.37 4.13.14-2.3 2.04-4.13 4.36-4.13 2.32 0 4.33 1.8 4.33 4.13 0 2.78-1 3.72-2.4 5.25-1.4 1.5-2.5 2.17-3.6 3.73-1.2 1.57-2.7 4.27-2.7 4.27z"/>
    </g>
    <g>
      <g fill="red">
        <path d="M95.16 186.74c-.02-.07-.02-.12-.02-.15-.04-.2-.05-.3-.05-.4 0-.2 0-.3.1-.5.3-1.1.9-1.9 1.9-2.3.6-.3 1.3-.4 2.3-.4h1l.1-.3c.2-.4.4-.5.8-.5 0-.2.1-.4.3-.5.1-.2.3-.2.4-.2s.2 0 .4.1l.2.1c0-.1 0-.1.1-.1.2-.1.3-.2.5-.2s.3 0 .4.1c.1.1.2.2.3.5l.2-.1c-.1-.2 0-.5.1-.7.2-.3.4-.4.7-.4l-.1-.3c0-.2.1-.4.2-.5.2-.2.3-.2.5-.2s.4 0 .5.2c.1.1.2.3.2.4 0 .1 0 .2-.1.3l.3.1-.1-.7-.1-.7c0-.4 0-.8.1-1.2.1-.4.3-.8.6-1.3l-.8-.4c-.3-.1-.5-.2-.7-.2-.1-.1-.2-.1-.2-.2s.3-.1.8-.1 1 0 1.3.2c.1-.2.3-.4.5-.5.2-.2.4-.3.6-.5 0-.2 0-.7.1-1.5l.2-1.6.2-.1c.2-.1.3-.1.4-.1.1 0 .1.1.2.3v2.3c.6-.5 1.1-1.1 1.5-1.8.5-.8.7-1.5.7-2.1 0-.3-.2-.7-.4-1.2-.3-.5-.5-.8-.6-.9 0 0 .1-.1.2-.1l.2.1h.2c.5.5.8.9.9 1.1.1.2.2.6.2 1 0 .8-.2 1.5-.5 2.2-.2.5-.6 1.1-1.1 1.6l-1.1 1.1-.7.6-.2 1c.3.3.5.7.7 1.2.3.6.4 1.2.4 1.8.5-.3.9-.7 1-1 .1-.1.1-.3.1-.5v-.6.1c.5.3 1 .8 1.3 1.5.3.7.5 1.3.5 1.8 0 .7-.2 1.3-.7 1.9-.4.6-.9.8-1.4.8v.3l.3-.1.3-.1c.4 0 .5.1.6.2.1.1.1.2.1.3 0 0 0 .1-.1.3-.2.1-.4.2-.6.2-.2 0-.4-.1-.5-.2-.1 0-.1.1 0 .2.3 0 .4.2.4.4s-.2.4-.4.6c.6.1 1.1.4 1.4.7.4.4.6 1 .6 1.8 0 .5-.2.9-.6 1.4-.4.4-.9.8-1.5 1v-.5c.1 0 .2-.1.2-.2 0-.2-.1-.3-.3-.5-.2-.2-.5-.3-.8-.3h-.2c-.1 0-.3 0-.5-.1s-.4-.1-.6-.1c-.7.8-1.5 1.2-2.3 1.2-.7 0-1.2-.2-1.6-.5-.3-.3-.5-.8-.6-1.3 0 0-.2.1-.5.3-.1 0-.2.1-.3.2 0 .2-.4.6-1 1-.7.4-1.3.7-1.9.7-.9 0-1.6-.2-2.1-.6-.6-.5-1-1.4-1.4-2.6.2.3.4.5.5.5.2.2.4.3.6.3.2 0 .5-.3.8-.8.4-.5.6-.7.7-.8l-.1-.1c-.1-.1-.2-.1-.2-.2 0 .2-.2.3-.48.3-.1 0-.2 0-.2-.1-.3 0-.4-.2-.4-.6 0-.2.1-.4.4-.6-.1-.2-.2-.3-.2-.5s.1-.4.3-.6c-.3-.2-.5-.3-.76-.3-.3 0-.4-.1-.6-.1-.5 0-1 .1-1.7.4l-1.4.7zm6.14.3c0 .8.24 1.5.72 2.14.5.63 1.06.94 1.7.94.5 0 1.02-.34 1.58-1.03 0 .6.07 1.1.2 1.4.28.5.84.8 1.7.8.42 0 .9-.3 1.48-.8.56-.5.84-1 .84-1.4 0-.3-.1-.5-.27-.7-.18-.2-.4-.3-.66-.3s-.5 0-.6.1v-.2c-.1-.1-.1-.3-.2-.5h.8c.5 0 .9-.1 1.1-.3.3-.3.5-.8.5-1.5s-.2-1.2-.7-1.5c-.3-.1-.4-.3-.4-.5s0-.3.1-.4c0-.1.2-.2.6-.5.4-.3.6-.5.7-.6.4-.4.6-.8.6-1.1l.1-.2h.1l-.2.8c-.2.3-.4.6-.8.8-.4.2-.6.4-.7.4l-.3.2c-.1.1-.2.2-.2.3 0 .1 0 .2.1.3.1.1.2.2.4.2.1 0 .2 0 .3-.1.7 0 1.3-.3 1.8-.9s.7-1.2.7-1.9c0-.4-.1-.8-.4-1.3-.3-.5-.5-.8-.8-1.1-.2.4-1 1.2-2.4 2.4-.6.5-.9 1-.9 1.4 0 .1 0 .2.1.3l.2.3-.2.1-.3-.4c-.1-.1-.2-.3-.2-.5v-.2c-.3-.1-.5-.4-.8-1-.3-.5-.5-1.1-.5-1.7 0-.5 0-.9.1-1.2 0-.4.2-.7.4-1.1.1 0 .1-.1 0-.1l-.2-.1-.3.5c-.1.4-.3.8-.3 1.1 0 .3-.1.6-.1 1 0 .5.1 1 .4 1.5.2.5.4.9.7 1-.1 0-.2.1-.2.1-.2.2-.3.5-.3.9l-.3.1c0-.4-.2-.8-.8-1.1-.5-.3-1-.4-1.4-.4-.5 0-1 .2-1.3.5-.3.3-.5.6-.5 1 0 .2.1.3.2.4.1.1.1.2.1.3 0 .1 0 .1-.1.3-.1-.2-.2-.3-.5-.3-.4 0-.7.2-1.1.6-.4.4-.6 1-.6 1.8zm8.3 1.44c.16.18.24.45.24.8 0 .12 0 .25-.05.4l-.1.4c.9.16 1.4.26 1.5.3.5.15.9.42 1 .77.2-.27.4-.56.5-.84.2-.2.3-.5.3-.8 0-.8-.3-1.4-.8-1.7-.3-.2-.8-.4-1.7-.6l-.2.3c-.1.2-.2.3-.3.3.3.2.5.4.6.5l.7.9-.3.1-.5-.5c-.1-.1-.3-.1-.5-.2h-.1c-.1 0-.2-.1-.3-.1-.2 0-.4.1-.5.3zm-1.13-11.34c.06.03.1.04.15.04.1.05.15.1.17.15l2.4-2.2c1.1-1.22 1.7-2.4 1.7-3.57 0-.54-.1-1-.4-1.4-.3-.4-.5-.54-.6-.44l.4.64c.2.4.2.76.2 1.1 0 1.13-.6 2.25-1.6 3.37l-2.7 2.3zm3.3 8.4c.04.16.18.24.44.24s.4-.1.4-.27c.1 0 0-.1 0-.1-.1-.1-.2-.1-.3-.1-.1 0-.2.1-.3.1 0 .1-.1.2-.1.3zm-1.03 1.27c.1.2.23.2.37.2.2 0 .3 0 .5-.2.1 0 .2-.1.2-.2v-.2c0-.1-.1-.1-.1-.1 0-.1-.2-.2-.3-.2-.1 0-.1 0-.2.1h-.1v.5c0 .2 0 .3-.1.3zm-.22-1.7l.14.3c.04.1.06.2.08.4.05.1.13.1.24.1.3 0 .46-.1.46-.3 0-.1-.07-.3-.22-.5h-.43c-.2 0-.3.1-.3.1zm-3.66-8c.52.3.96.5 1.3.8.5.3.88.7 1.18 1.1.3.4.52.8.67 1.2.2.4.3.8.3 1.3l.1-.1.2-.1-.1-.5c0-.3-.1-.7-.3-1.1-.2-.4-.5-.8-.8-1.2-.3-.3-.7-.6-1.1-.8-.4-.2-.8-.3-1.3-.3zm1.8 4.1c.1-.1.25 0 .43.2.1.2.2.4.2.6l.3-.3c.1 0 .1-.1.2-.1v-.3c0-.2-.1-.5-.2-.8l-.2-.5-.4-.4-.6 2zm.73-5.3l.4-.3v-1.4c0-.5 0-.8-.1-.9l-.2.1c-.1.3-.2.6-.2 1v1.7zm-.4 1.7l.2.2.1-.4-.4.2zm-.5 3.9c-.3.1-.4.3-.4.6 0 .4.1.6.3.7l.2-.2h.1v-.1c.1-.3.1-.4 0-.5-.1-.1-.2-.2-.3-.2h-.2zm-.8-.4c-.1.2 0 .4.1.7.2-.2.5-.7.7-1.3.2-.7.3-1.2.3-1.4l-.2-.2-.4 1.1-.6 1.3zm-4.5 6.2c.5 0 .9-.2 1.4-.5.4-.3.6-.7.6-1.2 0-.4-.1-.7-.3-1.1-.3-.3-.5-.6-.9-.7.5 0 .9.2 1.2.7.2.5.4 1 .4 1.7.1 0 .3 0 .5.1.3-.4.6-.6.7-.7.4-.2.8-.4 1.4-.4v.2c-.6.1-1.1.3-1.3.5s-.4.5-.4.9c0 .3.1.5.4.6l.6.3c-.2 0-.3.1-.5.1s-.4-.1-.8-.2c-.1.2-.2.3-.2.5v.9l.4 1-.2.1-.5-1c-.2-.4-.3-.8-.3-1.1-.2 0-.3 0-.5-.1l-.3-.2c-.1.1-.3.1-.5.1h-.4c-.4 0-.7 0-.9.1v-.3zm4.3-6.7l.3-.8c.2-.6.4-1 .5-1.2-.1-.1-.2-.2-.3-.2-.1.2-.3.4-.4.8-.1.4-.2.9-.2 1.5zm-1 2.5c.1 0 .2.1.4.4l.1.2c0-.1 0-.2.1-.3 0 0 0-.1.1-.1l-.4-.5c-.1.3-.2.5-.5.5zm-.8-1.2c-.1.1-.1.2-.1.3s0 .2.1.3c0 .2 0 .3.2.4.1.1.3.1.4.1.1 0 .2 0 .3-.1v-.3c0-.2-.1-.4-.3-.5-.2-.1-.3-.2-.5-.2s-.3 0-.3.1zm-.4 5.2c0 .2.1.3.3.3.1 0 .2 0 .3-.1.1 0 .2-.1.2-.3 0 0 0-.1-.1-.2 0 0-.1 0-.1-.1l-.3-.1c-.2 0-.3-.1-.3-.1-.2.2-.2.3-.2.4 0 .1 0 .2.1.3zm-.1-5.6s.1 0 .1.1c.1 0 .1.1.1.3.1-.2.3-.3.6-.3v-.2c0-.1-.1-.2-.2-.3h-.2c-.1 0-.2 0-.3.1-.2.1-.3.3-.3.6zm-.7 1h.5c.1 0 .3.1.4.1 0-.2 0-.4-.1-.5s-.3-.2-.4-.2c-.1 0-.2.1-.3.2-.1.1-.1.3-.1.5zm-1.5 1l.2-.3c.2-.2.4-.3.5-.4-.2-.3-.4-.4-.7-.4-.3 0-.5.2-.5.5 0 .2.1.4.3.7zm-4.5 6.7c.3.8.7 1.3 1.3 1.5.3.2.7.3 1.3.3 1 0 1.9-.4 2.7-1.2-.4 0-.6 0-.9-.1-.3-.1-.5-.3-.8-.4-.3.3-.6.5-.8.5h-.6c.2-.1.4-.3.6-.5.1-.2.2-.4.2-.5 0-.1-.1-.3-.4-.6s-.4-.5-.6-.5c-.2-.1-.5.2-.9.8-.4.6-.7.9-1 .9-.1 0-.2 0-.4-.1zm4-5.9c.1 0 .3.1.4.2-.1-.1-.1-.2-.1-.3v-.1l-.1.1c-.1 0-.2.1-.3.1zm-.6-.9c-.1.1-.1.2-.1.3s0 .2.1.3c.1.1.1.2.3.2.2 0 .3 0 .4-.1l.2-.3c-.1-.3-.2-.4-.5-.4-.2 0-.3.1-.4.2zm-.2-1c-.1.1-.1.2-.1.3 0 .1 0 .2.2.3 0 .1.1.1.3.1h.3l.1-.1v-.4c0-.1-.1-.2-.1-.3-.1 0-.2-.1-.4-.1-.1 0-.2.1-.3.2zm-1.1.8v.2c0 .1.1.1.3.2.2.1.3.1.4.1 0 0 .1 0 .2-.1v-.2c0-.3-.1-.4-.4-.4-.3 0-.5.1-.5.3zm-5.3 3.3c.5-.3 1-.5 1.4-.6.4-.1.9-.2 1.4-.2.3 0 .5 0 .8.1.5.1 1.1.3 1.7.7l.3-.9c0-.3-.3-.5-.8-.6l-1.5-.3h.4c.3 0 .6.1.9.1l.9.3s.1 0 .2-.1.1-.2.1-.3-.1-.2-.1-.4c-.3-.2-.5-.3-.8-.4s-.5-.1-.8-.1H99c-.9 0-1.63.2-2.2.5-.8.5-1.3 1.2-1.5 2.3zm4.7 1.3c-.1.4 0 .6.4.6.1 0 .2 0 .3-.1l-.1-.3v-.4h-.3c-.2 0-.3.1-.4.4zm-.8-.8c0 .1 0 .2.2.3l.3.1.5-.2h.3v-.3l-.4-.2c-.2-.1-.4-.2-.5-.2-.1 0-.2.1-.3.1-.1.1-.1.2-.1.4zm-.3.9c0 .2.1.3.3.4.2 0 .3-.1.4-.3 0-.3-.1-.4-.3-.4-.3 0-.4.1-.4.4zm-15.9-20c-.1-.2-.2-.3-.3-.4-.1-.1-.2-.1-.4-.1h-.7s-.1.1 0 .3c.1.2.1.3.1.5 0 .1-.1.3-.3.4-1-1-1.9-2.2-2.9-3.7l-2.2-3.8c-.7-1.2-1.4-2.1-2.1-2.6-.9-.7-1.6-1.2-2.1-1.4-.3-.1-.5-.2-.7-.1-.1-.1-.2-.2-.2-.4l-.2-.4c-.1-.3-.3-.5-.5-.9-.2-.3-.6-.6-1-1-.4-.3-.9-.4-1.3-.2-.2.1-.4.3-.6.4-.2.2-.3.4-.4.6-.3 0-.5-.1-.7-.2-.9-.7-1.5-1.4-2.1-2.1s-.9-1.4-1.2-2.2c-.4-.9-.5-1.6-.2-2 .1-.2.2-.3.4-.3h.5c.1-.1.2-.1.2-.2l.1-.6-.7-.5-.6-.1c-.2-.1-.5-.1-.7 0-.2.1-.4.3-.6.5-.3.4-.5.8-.6 1.3-.1.6-.1 1.1.1 1.6 0 .1.1.2.2.4-.2.3-.3.6-.3.8 0 .3 0 .6.2.8 0 .2.1.4.3.7 0 .2 0 .3-.1.3l-.5.2-.2.2c-.2.1-.3.3-.3.5-.1.2-.1.4 0 .6.1.3.3.5.5.6-.5.4-.7.9-.6 1.5 0 .9 0 1.5-.1 1.8-.1.5-.3.8-.4 1l-.5.9c-.3.1-.6.3-.9.8-.3.6-.5 1.2-.5 1.8l.4.6c.2-.4.4-.7.7-.9.3-.1.5-.2.7-.4l.5-1c.1-.2.2-.4.3-.5l.7-.1.7-.2c.3-.1.7-.3 1.1-.5.7-.4 1.1-.7 1.1-.7.3-.1.5 0 .6.1.2.2.3.3.3.4 0 0 .1.2.1.4l.3.5c.2.2.4.4.7.6.4.4.8.6 1.2.7.2.1.5 0 .7-.1.2 0 .3-.1.4-.2 0 0 .1.2.1.4s.1.5.1.6l.1.3c.1.1.1.2.2.3.2.2.4.3.6.3h.5l.6-.3c.1-.1.2-.1.3 0l.8 1.3c.2.3.5.4.8.4l.1.4c.1.4.3.7.6 1l.2.2.4.5.6.6c-.3-.6-.4-1.2-.3-1.8.1-.2.1-.7.3-1.4.3.6.6 1.2 1 1.8.3.7.7 1.2 1.1 1.5l.5.4c.1.1.2.1.3.1.1 0 .1-.1.1-.2.6.8 1.4 1.4 2.3 1.6.7.2 1.3.2 1.9 0l.3-.2c.3-.4.4-.8.2-1.2zm-23.9-6.5c.2-.3.5-.6.9-.7l.4-.1c-.3.8-.5 1.3-.6 1.4-.1.3-.3.4-.6.5-.1.1-.3.1-.5.2 0-.4.1-.8.3-1.2zm3.6-1.5l-.6.2-.4.1c-.3.1-.5.1-.7.2.2-.1.6-.7 1.2-1.7.2-.3.5-.6.8-.7l-.3-.2c-.3.1-.6.3-.9.8-.7.9-1.1 1.4-1.4 1.5l-.5.1c.2-.4.5-1 .7-1.6.2-.7.7-1.2 1.5-1.5h-.4c-.1 0-.2.1-.4.1-.1 0-.2.1-.3.2-.1.1-.3.2-.4.3-.1-.5-.1-.9 0-1.1.1-.2.2-.5.3-.6l.5-.5c.2-.2.4-.3.6-.4.3-.1.6 0 1 .2.1 0 .4.2.9.5l.7.3c.2.1.3.1.3.2-.3.3-.7.7-1 .9-.4.3-.6.6-.7 1l.3-.2c.1-.2.3-.3.4-.3.1-.1.2-.1.3-.1-.2.5-.5.9-.8 1.3l-1 1-.4.3zm-1.2-5c-.2-.1-.3-.2-.4-.5-.1-.1 0-.3.1-.6.1-.2.3-.3.4-.2.2-.1.3 0 .5.1.1.1.2.3.4.5l-.4.2c-.1.1-.2.2-.3.5 0 0-.1-.1-.3-.1zm3.8 3.6c-.1.1-.2.1-.3.2h-.6c-.1 0-.3.1-.4.3.1-.2.3-.5.7-1 .1-.1.2-.2.2-.4.1.1.2.1.3.3s.2.2.2.2l-.2.3zm1.3-2.9c-.4.2-1.1.1-1.9-.3-.7-.3-1.3-.6-1.7-1-.2-.1-.4-.3-.6-.7l-.6-1.2c-.1-.3-.2-.6-.2-.8s0-.4.1-.5c0-.1.2 0 .4.1l.3.2c-.3-.3-.5-.7-.7-1.2-.2-.4-.3-.9-.3-1.4 0-.5.1-.9.4-1.3.1-.2.3-.4.5-.4.2-.1.6 0 .9.2l.3.3c0 .1 0 .2-.1.3-.1.1-.3.2-.4.2l-.2.1h-.2l-.2.3-.4.6c-.1.1-.1.3 0 .6.1.4.2.7.4 1.2.3.9.8 1.7 1.4 2.5.7 1 1.6 1.8 2.6 2.4-.1.1-.2.1-.2.2zm2.8 5.1c-.2.1-.2.1-.2 0-.1 0 0-.1 0-.3-.1 0-.1-.2 0-.3l.2-.2v-.1h-.3l-.3.5c.1.2.2.4 0 .6-.1.2-.1.3-.1.4-.1 0-.3 0-.7.1-.4 0-.8-.1-1.2-.4-.3-.2-.5-.4-.7-.7-.2-.2-.4-.5-.5-.8-.1-.2-.1-.5-.1-.7 0-.2.2-.3.4-.4l.2-.1c-.5-.3-.8-.6-1-.9-.1-.2 0-.4.1-.6 0-.1.1-.2.2-.3.1-.1.2-.2.4-.3.3-.1.6-.1.9 0s.7.3.9.7l-.3-.7-.2-.4v-.3c.1-.1.2-.3.5-.7l.2-.1.2-.1c.2 0 .3-.1.4-.1.1 0 .2.1.3.1h.2c.1.1.2.1.2.2.1.2.1.3 0 .6.1.1.2.1.3.1.1 0 .3.1.5.3l.3.4c.2.6.1 1.2-.3 1.8.1.2.3.4.4.7 0 .3.1.5.1.8-.1.2-.2.4-.2.5-.2.2-.3.3-.4.5-.1.2-.2.3-.4.3l-.3.2zm.3-2.4c0-.1-.2-.3-.4-.5l-.5-.6c-.1-.1-.1-.2-.1-.4v-.9c0-.1-.1-.1-.1-.1 0 .1-.1.1-.1.2-.1.1-.1.3-.2.4v.7c0 .1-.1.1-.2.2-.2.1-.5.1-1.1-.1l-.2.1.2.2c.2 0 .4.1.5.2l.3.4c0 .2.1.5.1.9v.7c0 .2.1.2.2.1l.3-.4c.1-.2.2-.4.2-.7 0-.3.1-.5.3-.7l.7.6c.1 0 .1-.1.1-.2zm.8 4.8c-.3.1-.5.1-.8-.2-.1-.1-.3-.3-.4-.7-.1-.2-.1-.5-.1-.7 0-.2.1-.3.3-.4.3 0 .5 0 .5.1.1 0 .4.3.6.6l.1-.4-.4-.5c-.1-.1-.1-.2-.2-.2l.5-.7c.3.3.5.6.6.9.2.7 0 1.3-.6 1.9-.1.1-.2.2-.4.3zm-1.6-5.5c0 .2 0 .3-.1.4-.2.2-.4.2-.5.1-.2-.1-.3-.3-.1-.5 0 0 .1-.1.2-.1h.3l.1.1zm5.3 8.1c-.1-.1-.2-.3-.3-.6-.1-.1-.1-.3-.2-.7l-.3-1.1-.5 1.2c-.3-.3-.5-.6-.6-.7-.1-.1-.2-.2-.2-.4-.1-.2-.2-.4-.2-.7-.1-.3-.1-.6 0-.9-.1-.2 0-.4.2-.7.2-.3.4-.5.6-.5.2 0 .3 0 .4.1.2-.1.3 0 .4.3 0 .2.1.3.1.6v-.9c.1 0 .2 0 .2.2l.1.3.2.4.2.4v.3c.1.7.2 1.3.1 1.8-.1.6-.2 1.4-.5 2.5l-.4-.5zm-2.8-5.8l-.2-.1c-.1-.1-.1-.3-.1-.6-.1-.3-.1-.7-.3-1.1.1 0 .4.1.7.4l.5.5.2.9c0 .2-.2.5-.5.8-.2-.2-.3-.5-.6-.7zm.6-1.5c-.4-.4-.7-.7-1-.8v-.2c.4-.3.9-.2 1.5.4.4.4.7.9 1 1.5.1.3.1.4 0 .5-.2-.1-.3-.1-.5 0l-.1.1c-.3-.7-.6-1.2-1-1.6zm5.9 9.2c-.3-.1-.4-.1-.6-.3-.1-.1-.3-.3-.4-.5-.4-.6-.7-1-.9-1.4l-.6-1.2c-.1-.3-.2-.5-.3-.8-.1-.3-.1-.6-.2-.8l.7.4.8.9c.1 0 .1.1.2.2s.1.2.2.5l.2.3.2-.3c-.1-.3-.3-.7-.6-1.1-.3-.5-.7-1-1.2-1.6-.3-.8-.5-1.3-.8-1.7-.2-.4-.4-.6-.7-.6.1-.3.1-.5.1-.6l-.1-.3c-.1-.3-.3-.5-.5-.8.2-.1.4.1.7.4l.5.5c.6.7 1.2 1.5 1.7 2.4l1 1.7c.4.7.8 1.3 1.2 2 1 1.6 2.1 2.8 3.2 3.5.3-.1.5-.3.5-.6.1-.3.1-.5.2-.5s.2 0 .3.1l.2.3v.2l-.2.6c0 .1-.1.1-.1.1 0 .1-.1.1-.2.2l-.5.2c-.2.1-.6 0-1.2-.3-.8-.3-1.3-.7-1.5-1.1l-.6-.3-.6-.6v.8z"/>
        <path d="M99.22 186.74l.03-.15.05-.4c0-.2-.03-.3-.1-.5-.34-1.1-.98-1.9-1.9-2.3-.6-.3-1.38-.4-2.36-.4h-1.02l-.07-.3c-.17-.4-.46-.5-.85-.5-.08-.2-.2-.4-.3-.5-.14-.2-.3-.2-.5-.2-.13 0-.27 0-.4.1l-.2.1-.1-.1c-.2-.1-.37-.2-.5-.2-.2 0-.36 0-.48.1-.1.1-.23.2-.34.5l-.2-.1c.06-.2.02-.5-.14-.7-.15-.3-.38-.4-.67-.4l.05-.3c0-.2-.08-.4-.24-.5-.15-.2-.32-.2-.5-.2s-.33 0-.47.2c-.1.1-.1.3-.1.4 0 .1 0 .2.1.3l-.3.1.1-.7.1-.7c0-.4 0-.8-.1-1.2-.1-.4-.3-.8-.6-1.3l.8-.4c.2-.1.4-.2.6-.2.2-.1.2-.1.2-.2s-.3-.1-.8-.1-1 0-1.3.2c-.1-.2-.3-.4-.5-.5l-.6-.5c.1-.2 0-.7-.1-1.5l-.1-1.6-.2-.1c-.1-.1-.3-.1-.4-.1-.1 0-.2.1-.2.3l-.1.6v1.7c-.6-.5-1.1-1.1-1.5-1.8-.5-.8-.7-1.5-.7-2.1 0-.3.2-.7.4-1.2s.4-.8.6-.9c0 0-.1-.1-.2-.1l-.2.1h-.1c-.5.5-.8.9-.9 1.1-.1.2-.2.6-.2 1 0 .8.2 1.5.5 2.2.3.5.6 1.1 1.1 1.6l1.2 1.1.7.7.3 1c-.3.3-.6.6-.8 1.1-.3.6-.4 1.2-.4 1.8-.5-.4-.8-.7-1-1.1 0-.1-.1-.3-.1-.4v-.6.1c-.5.4-1 .9-1.3 1.6-.3.7-.5 1.2-.5 1.7 0 .7.3 1.3.7 1.9.5.6 1 .9 1.4.9v.3c0-.1-.2-.1-.3-.1l-.3-.1c-.3 0-.5.1-.5.2-.1.1-.1.3-.1.3s0 .1.1.3c.2.1.4.2.6.2.2 0 .4-.1.5-.2.1 0 .2.1.1.2-.2 0-.3.2-.3.4s.1.4.3.6c-.6.1-1.1.4-1.4.7-.4.4-.6 1-.6 1.8 0 .5.2.9.5 1.4.4.4.9.8 1.6 1l-.1-.5c-.1-.1-.2-.1-.2-.2 0-.2.1-.3.3-.5.2-.2.5-.3.8-.3h.2c.1 0 .3 0 .5-.1s.4-.1.6-.1c.7.8 1.5 1.2 2.3 1.2.7 0 1.2-.2 1.5-.5.3-.3.5-.8.6-1.3 0 0 .2.1.4.3l.3.3c0 .3.4.6 1.1 1 .6.5 1.2.7 1.8.7.9 0 1.6-.2 2.1-.6.5-.5 1-1.4 1.4-2.6-.2.3-.4.5-.5.5-.2.2-.4.3-.5.3-.2 0-.5-.2-.8-.7-.4-.5-.6-.8-.7-.8l.1-.1c.1-.1.2-.2.3-.2.1.2.2.3.5.3.1 0 .1 0 .2-.1.2-.1.3-.2.3-.6 0-.2-.1-.4-.3-.6.2-.2.2-.3.2-.5s-.1-.4-.3-.5c.3-.2.5-.3.8-.3.2-.1.4-.1.6-.1.4 0 1 .1 1.6.4l1.4.7zm-6.13.3c0 .8-.3 1.5-.8 2.14-.5.63-1.1.94-1.7.94-.5 0-1.1-.34-1.6-1.03 0 .6-.1 1.1-.2 1.4-.3.5-.9.8-1.7.8-.5 0-1-.3-1.5-.8-.6-.5-.9-1-.9-1.4 0-.3.1-.5.2-.7.1-.2.4-.3.6-.3.2 0 .4 0 .5.1v-.2c0-.1.1-.3.1-.5h-.8c-.6 0-1-.1-1.2-.3-.4-.3-.6-.8-.6-1.5s.2-1.2.7-1.5c.2-.1.3-.3.3-.5s-.1-.3-.1-.4l-.7-.5-.8-.6c-.5-.4-.7-.8-.7-1.1l-.2-.2h-.1l.1.8c.2.3.4.6.7.8.4.2.6.4.7.4l.3.2c.1.1.1.2.1.3 0 .1-.1.2-.2.3-.1.1-.3.2-.5.2-.1 0-.2 0-.3-.1-.7 0-1.3-.3-1.8-.9s-.7-1.2-.7-1.9c0-.4.1-.8.3-1.3.2-.5.5-.8.8-1.1.1.4.9 1.2 2.4 2.4.6.5.9 1 .9 1.4 0 .1-.1.2-.2.3l-.3.3.2.1h-.1c.2-.2.3-.3.3-.4.1-.1.2-.3.2-.5l-.1-.2c.3-.1.6-.4.8-1 .3-.5.5-1.1.5-1.7 0-.5-.1-.9-.1-1.2-.1-.4-.3-.7-.5-1.1-.1 0 0-.1 0-.1l.2-.1.3.5c.2.4.3.8.4 1.1.1.3.1.6.1 1 0 .5-.1 1-.4 1.5-.2.5-.5.9-.7 1 .1 0 .2.1.2.1.1.2.2.5.2.9l.3.1c-.1-.4.2-.8.8-1.1.5-.3.9-.4 1.3-.4.5 0 1 .2 1.3.5.3.3.4.6.4 1 0 .2-.1.3-.2.4-.1.1-.1.2-.1.3 0 .1 0 .1.1.3.1-.2.2-.3.5-.3.4 0 .7.2 1.1.6.4.4.6 1 .6 1.8zm-8.3 1.44c-.2.18-.3.45-.3.8v.4l.1.4c-1 .16-1.5.26-1.6.3-.6.15-.9.42-1 .77l-.6-.84c-.2-.2-.3-.5-.3-.8 0-.8.2-1.4.7-1.7.2-.2.8-.4 1.7-.6l.1.3c.1.2.2.3.2.3-.3.2-.5.4-.6.5l-.8.9.3.1c.2-.2.3-.4.4-.5.1-.1.2-.1.4-.2h.1c.1 0 .2-.1.3-.1.2 0 .3.1.4.3zm1.1-11.34l-.2.04c-.1.05-.2.1-.2.15l-2.5-2.2c-1.2-1.22-1.7-2.4-1.7-3.57 0-.54.1-1 .3-1.4.2-.4.4-.54.5-.44-.2.2-.3.4-.4.64-.2.4-.3.76-.3 1.1 0 1.13.5 2.25 1.6 3.37 1.3 1.13 2.1 1.9 2.6 2.3zm-3.4 8.4c0 .16-.2.24-.4.24-.3 0-.4-.1-.4-.27v-.1c.1-.1.2-.1.3-.1.1 0 .2.1.2.1.1.1.1.2.1.3zm1 1.27c-.1.2-.3.2-.4.2-.2 0-.3 0-.5-.2-.1 0-.1-.1-.1-.2v-.2c0-.1.1-.1.2-.1.1-.1.2-.2.3-.2 0 0 .1 0 .2.1v.5c0 .2 0 .3.1.3zm.2-1.7c-.1.1-.2.2-.2.3l-.1.4c-.1.1-.1.1-.3.1-.3 0-.5-.1-.5-.3 0-.1 0-.3.2-.5h.4c.1 0 .2.1.3.1zm3.6-8c-.6.3-1 .5-1.3.8-.5.3-.9.7-1.2 1.1-.3.4-.6.8-.7 1.2-.2.4-.3.8-.3 1.3l-.1-.1c-.1 0-.2-.1-.3-.1l.1-.5c0-.3.1-.7.3-1.1s.5-.8.8-1.2c.4-.3.7-.6 1.1-.8.4-.2.9-.3 1.3-.3zm-1.9 4.1c-.1-.1-.2 0-.4.2s-.3.4-.3.6l-.3-.3c-.1 0-.2-.1-.3-.1v-.3c0-.2 0-.5.1-.8l.2-.5.3-.4.6 2zm-.7-5.3l-.5-.3v-2.3c.1.1.1.1.2.1.1.3.1.6.1 1v1.7zm.3 1.7l-.2.2-.1-.4.3.2zm.4 3.9c.2.1.4.3.4.6 0 .4-.1.6-.4.7-.1 0-.2-.1-.2-.2h-.1l-.1-.1c-.2-.3-.2-.4-.1-.5 0-.1.1-.2.2-.2h.1zm.8-.4c0 .2 0 .4-.2.7-.3-.2-.5-.7-.7-1.3l-.4-1.4.2-.2c.1.4.2.8.3 1.1l.6 1.3zm4.5 6.2c-.5 0-1-.2-1.4-.5-.5-.3-.7-.7-.7-1.2 0-.4.1-.7.3-1.1.2-.3.5-.6.9-.7-.5 0-.9.2-1.2.7-.3.5-.4 1-.4 1.7-.2 0-.3 0-.5.1-.4-.4-.6-.6-.8-.7-.4-.2-.8-.4-1.4-.4l-.1.2c.6.1 1.1.3 1.4.5s.4.5.4.9c0 .3-.1.5-.4.6l-.7.3c.2 0 .3.1.5.1.1 0 .4-.1.7-.2.1.2.1.3.1.5v.5l-.1.4-.4 1 .2.1.5-1c.2-.4.3-.8.3-1.1.1 0 .3 0 .5-.1l.2-.2c.1.1.2.1.5.1h.5c.4 0 .7 0 .9.1v-.2c0-.1 0-.1-.1-.1zm-4.4-6.7l-.4-.8c-.3-.6-.4-1-.5-1.2 0-.1.1-.2.2-.2.1.2.3.4.4.8.1.4.2.9.2 1.5zm1 2.5c-.1 0-.3.1-.5.4l-.2.2c0-.1-.1-.2-.1-.3l-.1-.1.3-.5c0 .3.2.5.5.5zm.7-1.2c0 .1.1.2.1.3s-.1.2-.1.3c0 .2-.1.3-.2.4-.2.1-.3.1-.5.1-.1 0-.2 0-.3-.1l-.1-.1v-.2c0-.2 0-.4.2-.5.1-.1.3-.2.5-.2.1 0 .2 0 .2.1zm.4 5.2c-.1.2-.2.3-.3.3-.1 0-.2 0-.3-.1-.2 0-.2-.1-.2-.3v-.2l.1-.1.2-.1c.1 0 .2-.1.3-.1.1.2.2.3.2.4 0 .1 0 .2-.1.3zm.1-5.6c-.1 0-.1 0-.2.1-.1 0-.1.1-.1.3-.1-.2-.3-.3-.6-.3v-.3c0-.1 0-.2.2-.3h.2c.1 0 .2.1.2.1.1.1.2.3.2.6zm.7 1H89c-.17 0-.3.1-.43.1-.03-.2.02-.4.13-.5.1-.1.23-.2.4-.2.1 0 .2.1.3.2.05.1.1.3.1.5zm1.5 1l-.3-.3c-.3-.2-.5-.3-.6-.4.1-.3.3-.4.6-.4s.4.2.4.5c0 .2-.1.4-.3.7zm4.6 6.7c-.3.8-.7 1.3-1.3 1.5-.3.2-.8.3-1.3.3-1.1 0-2-.4-2.7-1.2.3 0 .6 0 .9-.1.3-.1.5-.3.7-.4.3.3.5.5.8.5h.5c-.2-.1-.4-.3-.6-.5-.1-.2-.2-.4-.2-.5 0-.1.1-.3.3-.6.2-.3.4-.5.5-.5.2-.1.5.2.9.8.4.6.7.9 1 .9.1 0 .2 0 .3-.1zm-4-5.9c-.2 0-.3.1-.5.2 0-.1.1-.2 0-.3v-.2l.1.1c.1 0 .2.1.3.1zm.5-.9c.1.1.1.2.1.3s0 .2-.1.3c-.1.1-.2.2-.3.2-.2 0-.3 0-.4-.1l-.2-.3c0-.3.2-.4.4-.4.1 0 .3.1.3.2zm.2-1c.1.1.1.2.1.3 0 .1-.1.2-.2.3-.1.1-.2.1-.3.1h-.3l-.1-.1v-.4c0-.1 0-.2.1-.3 0 0 .1-.1.3-.1.1 0 .2.1.3.2zm1.1.8v.2c0 .1-.1.1-.3.2s-.3.1-.4.1c-.1 0-.1 0-.2-.1-.1 0-.1-.1-.1-.2 0-.3.1-.4.4-.4.4 0 .5.1.6.3zm5.3 3.3c-.5-.3-1-.5-1.4-.6-.4-.1-.9-.2-1.4-.2-.3 0-.5 0-.8.1-.5.1-1.1.3-1.8.7l-.3-.9c0-.3.2-.5.7-.6l1.5-.3h-.5c-.3 0-.6.1-1 .1l-.9.3c-.1 0-.1 0-.2-.1s-.1-.2-.1-.3 0-.2.1-.4c.2-.2.5-.3.7-.4.2 0 .5-.1.8-.1h.9c.9 0 1.6.2 2.2.5.8.5 1.3 1.2 1.5 2.3zm-4.6 1.2c.1.4-.1.6-.4.6-.1 0-.2 0-.3-.1v-.7h.2c.2 0 .4.1.4.4zm.7-.8c0 .1-.1.2-.3.3-.2.1-.3.1-.3.1l-.5-.2h-.3v-.3l.4-.2s.4-.2.5-.2c.1 0 .2 0 .3.1.1 0 .1.2.1.4zm.2.9c0 .2-.1.3-.3.4-.3 0-.4-.1-.4-.3-.1-.3.1-.4.3-.4.2 0 .4.1.4.4zm38.3-41.6l.1-.1c.1-.1.2-.1.3-.1.2 0 .3 0 .5.1 0-.2.1-.4.3-.6s.4-.3.6-.4c0-.1.2-.4.8-1 .5-.6 1-1 1.4-1.2.1-.3.2-.5.3-.7.1-.3.3-.5.5-.7l.6-.4.3-.3 1.5-2.6c-.2-.3-.2-.5 0-.7.1-.2.4-.4.7-.5l.3-.6c.2-.5.4-.9.7-1.1-.2 0-.3 0-.3-.1 0 0 0-.1.2-.3.2-.3.3-.6.4-.8.2-.5.4-.9.7-1.4.3-.6.7-1.3 1-1.9 0-.2 0-.4.2-.7.5-1.1.9-1.9 1.1-2.5.1-.3.2-.7.2-1.1l.2-1.2c.1-.4.1-.9.2-1.7 0-.6.1-1.1.3-1.4.2-.4.4-.8.6-1 .2-.2.4-.4.7-.5.5-.2.9-.1 1.3.1.3.1.4.3.5.6.1.3.1.5.1.7 0 .1-.1.3-.3.4-.1.1-.3.2-.4.3-.4.1-.6.1-.6-.2h.3c.2-.1.4-.2.5-.4.1-.2.1-.4 0-.8-.1-.2-.2-.3-.5-.4s-.6-.1-.8 0c-.5.1-.9.8-1.2 1.8-.3 1.1-.4 2.5-.5 4.4 0 1.6-.1 2.6-.3 3-.2.4-.5.7-.9.9l.3.7.3.6c.9-1.1 1.3-2.4 1.4-3.9l-.2-3.5c0-1.2.4-2.2 1.1-2.9-.2.4-.3.8-.4 1.1-.2.5-.2.8-.2.9 0 .1 0 .1.1.1.2-.1.5-.1.7.1.2.1.4.3.5.6.1.4.1.7-.1.9l.3-.1c.3-.1.7-.2 1-.2.3 0 .6 0 1 .1l-.2.4c-.1.1-.3.5-.6 1.4-.2.4-.4.9-.7 1.2l.4-.2.5-.2c.3-.1.6-.1.8-.1-.1.3-.3.5-.3.7l-.3 1.1c-.1.3-.4.7-.9 1.2.5.2 1 .6 1.5 1.1.5.5.9.9 1 1.3 0 .1.1.2.1.3v.7c0 .1 0 .2-.1.2 0 .1-.1.2-.2.2s-.2 0-.2-.2c-.1-.4-.3-.6-.4-.7-.2-.1-.4-.1-.7 0-.2.1-.3.1-.5.3-.1.1-.3.4-.6.7.2 0 .4 0 .6.2.2.17.3.38.4.6.1.1.1.2.1.37v.4c.1.1.3.3.3.44l.2.4.2.9-.2.4c-.1 0-.2-.1-.4-.2-.3-.2-.5-.3-.8-.3-.2 0-.5 0-.7.1-.2.1-.3.1-.4.1v.1l-.3.1c-.2.1-.3.1-.4.1.1.3.1.7 0 1.25 0 .5-.2.8-.5.8.1.1.1.2 0 .4 0 .1-.1.3-.1.5-.2.2-.3.4-.5.6-.2.17-.4.28-.7.3l-.2.1c0 .2-.1.4-.3.7l-.2.4c.1 0 .12.1.2.3.1.3 0 .9-.4 1.7l-.7 1.5c-.1-.5-.4-.9-.8-1.2-.3-.2-.5-.4-.5-.6l-.2-.2c0 .3-.2.7-.68 1.2-.2.24-.3.45-.36.6-.1-.3-.3-.7-.5-1.1-.25-.4-.4-.7-.4-.8-.14-.4-.1-.7.2-1l-.7.4c-.3.2-.5.4-.74.6-.2.1-.4.3-.7.3-.4.2-.8.2-1.2 0-.02 0-.1 0-.2-.1l-.1.4c-.1.3-.3.4-.5.4.2.5.2.8.1 1.1 0 .2-.1.4-.2.5-.1.1-.2.2-.3.2-.1 0-.2.1-.38.1h-.2c.1-.2.1-.4.1-.6-.1-.2-.38-.4-.7-.6-.4-.1-.7-.1-.9 0-.28 0-.4.2-.48.4s0 .4 0 .6h-.2c-.2-.1-.4-.2-.5-.3-.1.2-.3.3-.4.4h-.4c-.2-.2-.3-.3-.4-.5-.1-.1 0-.25 0-.35l.1-.2zm14.4-16.2c1-.4 1.8-1.2 2.4-2.4l.8-2.2c-.2 0-.4.1-.6.1-.2 0-.4.1-.6.1l-.7.3-.5.2-.5.6c-.2.3-.3.6-.3 1.2.1-.2.3-.4.6-.6.3-.2.5-.4.8-.5h.4c-.9.7-1.4 1.3-1.6 1.7-.2.5-.3 1.1-.3 1.8zm-.1.6c.3-.1.7-.1 1.3-.2.5 0 .9 0 1.2.1.5-.4.8-.8.9-1.3l.1-1.1c-.1 0-.2 0-.3.1-.1.1-.2.2-.5.4l-.5.5c-.2.1-.5.4-1 .9 0 0 .1.1.3.1.2 0 .3.1.3.1h-.5c-.4 0-.7.1-.9.1-.3.1-.5.2-.6.3zm-1.2 4.5l.4.4c.4.1.7.1.9.1.2 0 .5 0 .8-.1.5-.2 1.2-.6 2-1.4.4-.4.7-.6.9-.7.4-.1.8 0 1.3.3-.2-.8-.6-1.3-1.2-1.5-.3 0-.7 0-1.1.2-.1 0-.3.1-.6.2l-.2-.1 1.5-.5c-.3-.4-.9-.6-1.7-.7-.6 0-1.2 0-1.6.2-.3.1-.5.3-.7.5-.1.1-.3.5-.6 1.2l.2.8v.6l.5-.4c.1-.1.3-.1.4-.2.1 0 .2 0 .2.1-.4.4-.7.6-.9.8-.2.3-.3.5-.4.8zm1.9-9.3h.3c.1 0 .2-.1.3-.3.1-.1.2-.3.2-.4v-.4c-.1-.2-.2-.3-.3-.3h-.3c-.1.1-.2.1-.3.2-.1.1-.1.3-.2.5v.5c.1.2.2.3.3.3zm3.6 11.8v-.6c-.1-.4-.3-.6-.4-.7-.1 0-.2 0-.4.1l-.3.1-.1-.1c0-.1-.1-.2 0-.2.2 0 .4-.1.5-.3 0-.2.1-.4 0-.6-.1-.2-.2-.4-.4-.4s-.4.1-.7.2c-.3.1-.5.2-.5.2-.1.2-.1.3-.1.5 0 .1.1.2.1.3.1.1.4.2.6.2 0 .2-.1.3-.2.4h-.4c-.3.1-.6 0-.9-.2l-.6-.3c-.2 0-.3.1-.3.2-.1.1-.1.3 0 .4 0 0 .2.1.5.4.3.3.5.6.6.9.1.1.3 0 .5 0 .3-.1.5-.2.6-.2.3-.1.6-.1.9-.1.3 0 .6.1 1 .3zm-3.7-11.5c-.1 0-.2-.1-.3-.2v-.1l.1.9.4-.6zm.8 9.3s-.2.1-.3.2l-.1.1c.1.1.3.2.5.3.1 0 .2.1.4.1l-.2-.2c-.2-.2-.3-.3-.2-.4zm-2.8-7.7v.7l-.2.1c0-.1-.1-.2-.1-.3l.3-.5zm-.9 2.1v.4c.1.2.1.3.2.3.1.1.2.2.3.1.1 0 .2-.1.3-.3.1-.2.1-.4.1-.6l-.1-.4c0-.2-.1-.2-.2-.2-.2 0-.4.3-.6.8zm-4.9 11c.2.6.5 1 .8 1.2l.8.2h.4c.2-.1.3-.2.3-.3.1-.1.1-.2.1-.3l-.1-.5c.1-.1.1-.2.2-.2.1-.1.3 0 .6.1v.5l-.2.2s-.1.3 0 .5c.1.4.5.6 1.1.6h.9c.5-.2.9-.4 1.2-.6.3-.2.4-.5.3-.8 0-.1-.1-.1-.1-.1-.2-.1-.4-.2-.4-.3 0-.1 0-.3.1-.4.2-.1.4-.1.5.2.1.3.2.4.4.3.1 0 .3 0 .4-.1.2 0 .3-.2.5-.3.1-.1.2-.4.3-.7 0-.2-.1-.3-.3-.3-.2 0-.3-.1-.3-.1v-.2c.1-.1.2-.1.4 0s.3.2.3.1c.1 0 .2-.2.3-.5.1-.5 0-.9-.1-1.2-.1-.5-.4-.9-.6-1.2-.3-.3-.7-.5-1.3-.5h-.5c-.1 0-.2.1-.3.2l.2.4v.3c-.1.1-.2.2-.3.2-.2.1-.4 0-.5-.1l-.2-.2c-.1-.2 0-.3.1-.5v-.2c-.1-.4-.4-.7-.8-.9-.5-.3-.9-.4-1.3-.2-.3.1-.7.3-1 .7-.4.5-.6.9-.4 1.2.3.1.5.2.5.3v.3l-.1.1c-.2.2-.3.3-.4.3h-.4c-.2 0-.3 0-.5.1-.4.4-.7.8-.8.9-.2.4-.2 1 0 1.6zm3-6.2c.1.1.3.1.5 0s.4-.2.5-.4c0-.2.1-.3.1-.4 0-.1.1-.3.2-.3s.2.1.2.2c.1.9.2 1.4.3 1.5h.7c.2-.1.3-.3.4-.8v-.9c0-.3 0-.5-.1-.7 0-.2-.3-.6-.6-1.3-.3-.4-.4-.8-.5-1.1-.4.6-.7 1.1-.9 1.7-.4.8-.6 1.6-.7 2.3zm-1.2 5.6c-.1-.2-.1-.3.1-.5.2-.1.4-.3.8-.4l.7-.2c.1-.2.1-.3.2-.4l.2-.2c0-.1-.1-.4-.2-.8s0-.8.2-1c.2-.1.3-.1.3 0s0 .3-.2.5l.2.6c.1.3.2.5.4.5.1-.1.3-.1.5 0s.4.3.5.6h.2l.2-.1c.2 0 .3-.1.4-.2l.4-.2c.2 0 .2.1.3.2l-.6.4-.7.4c0 .4-.3.7-.7.8-.2.1-.4.1-.6 0 0 .1-.1.2-.1.4 0 .3 0 .5.1.8l.3.6c-.1.1-.1.2-.2.2s-.2-.1-.3-.2l-.3-.6-.2-.6-.1-.6c-.1 0-.1-.1-.2-.2l-.2-.3c-.1 0-.3 0-.5.1-.3.1-.5.2-.5.4l-.4.1zm2.3-1.5c.3 0 .5.1.6.4.1.1.1.3.1.7.2 0 .3-.1.4-.3.1-.2.1-.4 0-.5-.1-.2-.1-.3-.2-.3-.2-.3-.4-.3-.6-.3l-.2.2zm-.1 4.7v.5c.1.2.3.4.5.7l.9.9c.1-.2.2-.4.3-.7l.3-.7v-1c0-.1-.1-.1-.2-.2l-.6.2c.1.1.1.3.1.5v.2l-.3.1-.1-.4c-.1 0-.1-.2-.3-.4l-.8.1zm.1-3.8c.1 0 .1 0 .2-.1s.1-.2.1-.3c0-.1-.1-.1-.3-.1-.2.1-.2.3-.1.4zm-1.2 5.9c.3-.2.5-.5.6-1 .1-.6.1-1 0-1.3l-.2-.1c-.1-.1-.2-.1-.2 0 .1.2.1.4 0 .6l-.1.4h-.1l-.2-.9s-.1 0-.2.1l-.2.2c-.2.3-.2.6-.1.9l.3.6.3.5zm-1.6-8.4c-.2-.1-.3-.1-.4 0-.3.1-.4.3-.3.6 0 .1 0 .1.2 0 0 0 .2-.2.3-.4l.2-.2zm-3.7 7.8l.1.1h.3c.2-.1.3-.3.3-.6l-.1-.3.3-.1c.2.2.4.4.6.4.2.1.3.1.5 0l.3-.1c.3-.1.6-.2.8-.4.3-.1.4-.3.5-.6l.4-.3c.2-.1.5-.3.7-.3l-.5-.2c-.3 0-.6-.1-.8-.2l-.6-.3c-.2.1-.4.2-.7.4l-.9.6c.1-.1.3-.4.6-.7.4-.3.5-.7.5-1l-.2-.8c0-.2-.1-.4 0-.6l-.2.4s-.2.5-.3.6c-.6.3-1 .7-1.3 1.2s-.3 1-.2 1.4c.1.2.2.4.4.6v.2c-.2.1-.4.2-.4.3-.1.1-.1.2-.1.3l.1.2zm-1.1-.8c.2.1.3.1.5.1.1 0 .2-.1.3-.3.1-.2.1-.3 0-.6l-.1-.1c-.1-.1-.2-.1-.4 0l-.4.3c-.1.1-.2.3-.1.5 0 .1 0 .2.1.2zm.8 2.6c.4 0 .5-.2.6-.6 0-.3-.1-.6-.2-.8l-.2-.1c-.1-.1-.2-.3-.3-.4v-.2h-.4c0 .1 0 .2-.2.4-.2.3-.3.4-.5.5-.2 0-.3 0-.5-.1l-.4-.3c-.3.1-.6.3-.7.5-.1.2-.1.4 0 .7l.1.3.1.3c-.1-.5.1-.8.6-1h.8c.3.1.6.2.7.3.2.2.3.4.4.8zm-1.7-1.8h.3c.2 0 .3-.1.3-.2.1-.1.1-.2.1-.3l-.3-.3c-.1-.1-.2-.1-.3-.1-.1 0-.2.1-.3.2s-.1.2-.1.3c0 .2.1.3.2.3zm-1.8 1.7c.1 0 .1-.1.2-.2s.1-.2 0-.3c-.1-.1-.3-.2-.5-.2-.2.1-.2.2-.2.5.1.3.2.4.5.3zm-21.4 21.1c.1-.2.2-.3.3-.4.1-.1.2-.1.3-.1h.7c.1.1.1.2 0 .3 0 .2-.1.3 0 .5 0 .2.1.3.3.5 1-.9 1.9-2.1 2.9-3.6l2.2-3.7c.8-1.2 1.5-2.1 2.1-2.6.9-.7 1.6-1.2 2.1-1.4.3-.2.5-.2.7-.1 0-.1.1-.2.1-.4l.2-.4c.1-.3.2-.6.5-.9.2-.3.5-.6 1-1 .4-.3.8-.4 1.3-.2.2.1.4.3.6.4.2.2.3.4.4.6.3-.1.5-.1.7-.2.8-.7 1.5-1.3 2-2.1s1-1.4 1.3-2.2c.4-.9.4-1.6.1-2-.1-.2-.2-.3-.4-.3h-.6c-.1 0-.2-.1-.2-.2s-.1-.3-.1-.5l.6-.6.6-.1c.3-.1.5-.1.7 0 .2.1.5.3.7.5.2.4.4.8.5 1.3 0 .5 0 1.1-.2 1.5l-.3.5c.2.3.3.6.3.8 0 .3-.1.6-.2.8l-.3.7c-.1.2-.1.3 0 .3l.4.2c.1 0 .2.1.3.2.2.1.2.3.3.5v.6c-.1.3-.3.4-.5.6.5.4.7.9.6 1.5 0 .9 0 1.5.1 1.9.1.5.3.8.4 1l.5.9c.3 0 .6.3.8.8.3.6.4 1.1.4 1.8l-.4.6c-.2-.5-.4-.8-.7-.9-.3-.1-.6-.3-.7-.4l-.5-1c-.1-.2-.2-.4-.3-.5l-.7-.1-.7-.2c-.3-.1-.7-.3-1.1-.6l-1.2-.7c-.2-.1-.5 0-.6.1l-.3.4-.1.4-.4.5-.7.7c-.5.4-.9.6-1.3.68-.3.1-.5 0-.8-.1-.2 0-.3-.1-.4-.2-.1 0-.1.2-.1.4s-.1.46-.1.6l-.1.3c-.1.1-.1.2-.2.27l-.6.3c-.2 0-.4 0-.5-.1l-.6-.3c-.1-.1-.2-.1-.3 0l-.8 1.3c-.3.3-.5.4-.9.4l-.1.3c-.2.4-.4.7-.7 1l-.2.2-.4.5-.6.6c.3-.7.4-1.3.3-1.8l-.3-1.4-1 1.8c-.4.7-.7 1.1-1.1 1.5l-.5.3c-.2.1-.3.1-.4.1l-.1-.2c-.6.86-1.3 1.4-2.3 1.6-.7.2-1.3.2-1.9-.03-.17-.1-.3-.1-.3-.2-.3-.37-.4-.8-.2-1.2zm23.8-6.5c-.2-.3-.5-.6-1-.7-.1 0-.3-.1-.5-.1.3.8.5 1.3.6 1.5.2.3.4.4.7.5.1.1.3.1.5.2 0-.4 0-.8-.3-1.2zm-3.6-1.5l.5.2.4.1c.2.1.4.2.6.2-.2-.1-.6-.7-1.3-1.7-.2-.3-.5-.5-.9-.7l.3-.2c.3.1.6.4.9.8.7.9 1.1 1.5 1.4 1.6.1.1.3.1.5.1-.2-.4-.5-.9-.7-1.6-.3-.7-.8-1.2-1.6-1.5h.4c.1 0 .2 0 .3.1l.4.1c.1.1.2.2.4.3.1-.5.1-.9 0-1.2 0-.3-.1-.5-.3-.6l-.6-.5c-.2-.2-.4-.4-.6-.4-.2-.1-.5-.1-.9.1l-1 .5-.7.3c-.2.1-.3.1-.3.2.3.3.6.7 1 .9.4.3.6.6.6 1l-.3-.2c-.2-.2-.4-.3-.5-.3-.1-.1-.2-.1-.3 0 .2.4.5.8.8 1.2l1 1 .3.3zm1.2-5c.2-.1.3-.2.3-.5 0-.1-.1-.3-.2-.5s-.3-.3-.4-.2c-.2 0-.3 0-.5.2l-.5.5c.2 0 .3.1.5.2s.3.2.4.4c0 0 .1-.1.3-.1zm-3.8 3.6c0 .1.1.2.2.2l.3.1c.1 0 .2 0 .3.1.1 0 .2.2.4.3-.1-.2-.3-.5-.7-1-.2-.1-.3-.3-.3-.4-.1 0-.2.1-.3.3s-.2.2-.2.2c.1.2.1.3.2.4zm-1.4-2.8c.4.2 1 .1 1.9-.3.7-.3 1.2-.7 1.7-1 .1-.1.3-.4.5-.8.2-.3.4-.7.6-1.2.1-.3.2-.5.2-.8s0-.4-.1-.5c0 0-.2 0-.4.1l-.3.2c.3-.3.5-.6.7-1.1.2-.5.3-.9.2-1.4 0-.5-.1-.9-.4-1.2-.1-.2-.3-.4-.5-.5-.3-.1-.6 0-1 .2l-.3.3c-.1.2 0 .3.1.3.1.1.2.2.4.2 0 .1.1.1.2.1l.1.1.2.3c.1.1.2.2.3.5.1.1 0 .2 0 .6-.1.3-.2.7-.4 1.1-.3.9-.8 1.7-1.4 2.5-.8 1-1.7 1.8-2.7 2.4.1.1.1.1.2.1zm-2.9 5.1c.2.1.2.1.2 0 .1 0 0-.1 0-.3.1-.1.1-.2 0-.4l-.2-.2v-.1h.4l.3.5c-.1.2-.2.4 0 .6.1.2.1.4.1.4s.3.1.7.2c.4 0 .8-.1 1.1-.4.3-.2.5-.4.7-.7.2-.2.4-.5.5-.8.1-.2.1-.4.1-.6 0-.2-.2-.4-.4-.5l-.3-.1c.5-.3.8-.6 1-.9.1-.2.1-.4-.1-.7l-.2-.3c-.1-.1-.2-.2-.4-.3-.2-.1-.5-.1-.9 0s-.7.3-.9.7l.3-.6.2-.3v-.4c-.1-.1-.2-.3-.5-.7l-.2-.1-.2-.1c-.2-.1-.3-.1-.4-.1-.1 0-.2 0-.3.1h-.2c-.1 0-.2.1-.2.2-.1.2-.1.4 0 .6-.1.1-.2.1-.3.1-.1-.1-.3.1-.5.3-.2.1-.2.3-.3.4-.3.5-.2 1.1.3 1.7-.2.2-.3.4-.4.7-.1.3-.1.5-.1.8l.2.5c.1.2.2.4.3.5.1.2.2.3.4.3.1.1.2.2.3.2zm-.3-2.4c0-.1.1-.2.4-.5l.4-.5c.1-.1.1-.2.1-.4v-.9c0-.1 0-.1.1-.1l.1.2.1.4c.1.1.1.3.1.4v.3c.1.1.1.2.2.2.2.1.6 0 1.1-.1l.2.1c0 .1-.1.1-.2.2-.2.1-.4.1-.5.2-.1.1-.2.3-.3.4-.1.2-.1.5-.1 1v.8c-.1.1-.1.2-.3.1l-.3-.4c-.1-.2-.2-.4-.2-.7 0-.3-.2-.5-.3-.7l-.7.6c-.1-.1-.2-.2-.1-.3zm-.8 4.8c.3.1.5.1.8-.2.1-.1.3-.3.4-.7.1-.2.1-.5.1-.7 0-.2-.1-.3-.4-.4-.3 0-.5 0-.5.1-.2.1-.4.3-.7.7l-.1-.4.4-.4c.1-.1.1-.2.2-.2l-.5-.6c-.4.3-.6.6-.7.8-.3.7-.1 1.3.5 1.9l.3.3zm1.9-5.4c0 .2 0 .3.1.4.1.2.3.2.5.1s.2-.3 0-.5c-.1-.1-.2-.1-.3-.1-.1 0-.2 0-.3.1l-.1.1zm-5.3 8.1c.1-.1.2-.3.3-.6.1-.1.1-.3.2-.7l.3-1.1.4 1.1c.3-.3.5-.6.6-.7l.2-.4c0-.2.1-.4.1-.7v-1c0-.2 0-.5-.3-.7-.2-.3-.4-.5-.6-.6-.1-.1-.3 0-.4 0-.1-.1-.3 0-.4.3 0 .2-.1.3-.1.6l-.1-.1c0-.2 0-.5-.1-.8-.1 0-.2.1-.3.2l-.1.3-.1.4-.2.4-.1.2-.1.1c-.2.7-.2 1.3-.2 1.8 0 .6.1 1.4.4 2.5.1-.2.2-.3.4-.6zm2.8-5.8l.1-.2s.1-.3.1-.6.1-.7.2-1.1c-.2 0-.5.1-.8.4l-.5.5-.2.9c0 .3.2.5.5.8.2-.2.3-.5.6-.7zm-.7-1.5c.4-.4.7-.6 1-.8.1-.1 0-.1 0-.2-.4-.3-.9-.2-1.5.4-.4.4-.7.9-1 1.5-.1.3-.1.4-.1.5.2-.1.4-.1.5 0l.2.1c.3-.7.6-1.2 1-1.6zm-5.9 9.2c.2 0 .4-.1.5-.2.2-.1.3-.2.4-.5.4-.5.7-1 .9-1.3l.6-1.2c.1-.2.2-.5.3-.7.1-.3.1-.5.1-.8l-.7.5-.7.9c-.1.1-.1.2-.2.3-.1.1-.1.3-.2.5l-.2.4-.2-.3c.1-.3.4-.7.7-1.1.3-.5.7-1 1.2-1.6.3-.8.6-1.3.8-1.7.3-.4.5-.6.7-.6v-.6l.2-.3c.2-.2.4-.5.5-.8-.2 0-.4.1-.7.5l-.5.5c-.6.7-1.2 1.5-1.7 2.4l-1 1.7c-.4.7-.8 1.3-1.2 2-1.1 1.6-2.1 2.8-3.2 3.5-.3-.1-.5-.3-.5-.7l-.1-.5c-.1-.1-.1 0-.2.1-.1 0-.2.1-.3.3l-.1.1.1.6v.1c.1.1.2.1.3.1l.5.2c.2 0 .6-.1 1.2-.3.7-.3 1.2-.7 1.5-1.2l.4-.4.6-.6v.8zM62.3 146l-.1-.1-.3-.17c-.2-.08-.4-.05-.58.05 0-.2-.1-.42-.2-.62-.2-.2-.4-.35-.6-.4.1-.1-.2-.46-.7-1.05-.6-.6-1-1-1.4-1.2-.1-.3-.2-.5-.4-.7-.2-.3-.37-.5-.6-.7l-.6-.4c-.2-.1-.3-.2-.33-.3l-1.5-2.5c.2-.2.1-.5 0-.7-.1-.2-.4-.3-.7-.4l-.3-.6c-.3-.5-.5-.8-.8-1 .2.1.3 0 .3 0l-.2-.3c-.2-.3-.3-.5-.4-.8l-.7-1.4-1.2-2c0-.2-.1-.4-.2-.7-.6-1.1-1-1.9-1.2-2.5-.1-.3-.2-.7-.3-1.1l-.2-1.2c-.1-.3-.2-.9-.2-1.7-.1-.6-.2-1-.3-1.4-.2-.4-.4-.7-.6-.9-.2-.2-.4-.3-.7-.4-.5-.1-.9-.1-1.3.1-.3.1-.5.4-.5.6-.1.3-.2.5-.1.7 0 .2.1.3.2.4.1.2.2.3.3.3.4.2.6.1.6-.1-.1.1-.2.1-.3 0-.2-.1-.4-.2-.5-.4s-.2-.4-.1-.8c0-.2.2-.3.5-.4s.5-.1.8 0c.5.2.9.8 1.2 1.9.3 1.1.4 2.5.5 4.4 0 1.6.1 2.6.2 3 .1.5.4.7.8.9l-.3.7-.4.6c-.9-1.1-1.4-2.4-1.4-3.9l.1-3.6c0-1.2-.4-2.2-1.1-2.9l.4 1.1c.1.5.2.8.1.9-.1.1-.1.1-.2.1-.3-.1-.6-.1-.8 0-.2.2-.4.4-.5.6-.1.4 0 .7.2.9l-.3-.1c-.4-.1-.7-.2-1-.2-.3 0-.6 0-1 .1l.2.3c.1.1.3.6.6 1.4.1.5.3.9.6 1.3l-.3-.2-.5-.2c-.3-.1-.6-.1-.9 0 .2.2.3.5.3.7l.3 1c.1.3.4.7.9 1.2-.5.2-1 .6-1.5 1-.5.5-.9.9-1 1.3 0 .1-.1.2-.1.3v.8c0 .1.1.2.2.2.1.1.1 0 .2-.2.2-.3.3-.6.4-.7.2-.1.4-.1.7 0 .2.1.3.2.5.3.1.1.3.4.6.8-.2-.1-.4 0-.6.1-.2.1-.4.3-.4.6l-.1.3v.4c-.2.1-.3.3-.4.5l-.2.4-.2.8.2.4.4-.2c.3-.2.5-.3.8-.3.2 0 .5 0 .7.1.2.1.3.1.4.2v.1l.3.1c.2.1.3.1.4.1-.1.3-.1.7-.1 1.3s.2.8.5.9v.5c.1.1.1.3.2.5.1.3.3.5.5.6l.6.3h.4c0 .2.1.4.3.7l.3.4c-.1.1-.1.2-.2.3-.1.4 0 .9.4 1.7.2.5.4 1 .7 1.5.1-.5.3-.9.8-1.2.2-.2.4-.4.5-.6l.1-.1c0 .2.2.6.7 1.2.2.2.3.4.3.6.1-.3.2-.7.5-1.1.2-.4.4-.7.4-.8.1-.4.1-.7-.2-1l.7.4.7.6c.2.1.5.3.7.3.5.1.9.1 1.2 0 .1 0 .2-.1.3-.1l.1.4c.1.2.3.4.5.4-.2.4-.2.7-.1 1 0 .2.1.4.2.5.1.1.2.2.4.2l.3.1h.2c-.2-.2-.2-.4-.1-.6.1-.2.3-.4.7-.6.3-.1.6-.1.9 0 .2 0 .3.2.4.4s0 .4 0 .6h.2c.2-.1.3-.2.5-.3.1.2.3.3.4.4h.4c.2-.2.4-.3.4-.5v-.4l-.1-.1zm-14.5-16.1c-1-.46-1.8-1.27-2.4-2.43-.44-1.24-.72-2-.82-2.24.2 0 .4.02.6.05.25.03.44.06.6.1.2.08.4.17.63.3l.5.24c.3.27.4.46.5.58.2.24.3.62.3 1.15-.1-.17-.3-.38-.6-.62s-.5-.4-.8-.5c-.1-.03-.3-.06-.4-.05.9.67 1.4 1.23 1.7 1.68.2.44.3 1.04.4 1.78zm.14.52c-.33-.1-.77-.15-1.3-.2-.56-.02-.95 0-1.18.1-.56-.4-.87-.83-.95-1.33l-.1-1.2h.3c.1 0 .3.1.5.3.3.2.5.3.6.4.2.1.5.4 1 .9l-.3.1c-.2 0-.3.1-.3.1h.5c.4 0 .7.1.9.1.3.1.5.2.6.3zm1.18 4.44l-.4.33c-.38 0-.7.1-.93 0-.3 0-.6-.1-.9-.2-.5-.2-1.2-.7-2-1.5-.4-.4-.7-.7-.9-.7-.4-.1-.8 0-1.3.3.3-.8.7-1.4 1.2-1.6.3-.1.6 0 1 .1.1 0 .3.1.6.2l.2-.2-1.5-.6c.3-.4.9-.7 1.7-.7.6-.1 1.1 0 1.6.1.2.1.5.2.6.4l.6 1.2-.2.8v.6l-.5-.4c-.2-.1-.3-.2-.4-.2-.2-.1-.3 0-.2.1.4.3.7.6.8.8.2.2.3.5.4.7zm-1.93-9.3c-.1.02-.2 0-.3 0-.1-.03-.2-.13-.3-.28l-.2-.4v-.4c0-.23.1-.36.3-.37h.3l.2.2s.1.3.1.5c0 .3 0 .4-.1.5-.1.2-.2.3-.4.3zm-3.6 11.76v-.28c0-.12 0-.23.1-.3.1-.4.2-.63.4-.72.1-.05.2-.04.4.02l.2.07.1-.1c.1-.1.1-.2.1-.2-.2 0-.4-.1-.5-.2-.1-.1-.1-.3-.1-.5s.2-.4.4-.4.4.1.7.2c.3.1.5.2.5.3.1.2.1.3 0 .5-.1.1-.1.2-.2.3-.2.1-.4.2-.7.2 0 .2 0 .3.1.4h.4c.2.1.6 0 .9-.2l.6-.3c.2 0 .3 0 .4.2s0 .3 0 .4c-.1 0-.3.1-.5.4-.3.4-.5.7-.6 1-.2 0-.4 0-.6-.1l-.6-.2c-.3-.1-.6-.2-.9-.1-.3 0-.6.1-1 .3zm3.7-11.47c.1 0 .2-.08.3-.2v-.13l-.1.85-.4-.53zm-.8 9.33l.3.13.1.1c-.1.2-.3.3-.5.4l-.3.1.2-.2c.1-.2.2-.3.2-.4zm2.8-7.7v.7c0 .03.1.07.2.1l.1-.3c-.1-.08-.2-.24-.3-.5zm.9 2.12c0 .1 0 .23-.1.35-.1.15-.1.23-.2.24-.1.1-.2.1-.3.1-.1-.1-.3-.2-.3-.4-.1-.2-.2-.4-.2-.6l.1-.4c0-.2.1-.3.2-.3.2 0 .4.3.6.8zm4.9 10.96c-.2.6-.5 1.02-.8 1.23l-.8.2h-.4c-.2-.1-.3-.2-.3-.3-.1-.1-.1-.2-.1-.3l.1-.5-.2-.2c-.2-.1-.4 0-.6.2-.1.2-.1.4 0 .5 0 0 0 .1.1.2s.1.3-.1.5c-.1.4-.5.6-1.1.6H50c-.5-.2-.86-.4-1.14-.6-.3-.2-.38-.5-.28-.8 0-.1.1-.1.14-.1.25-.1.4-.2.4-.3.03-.1 0-.3-.1-.5-.24-.2-.4-.1-.5.1-.1.3-.2.3-.4.2-.1 0-.3 0-.4-.1-.2-.1-.4-.2-.56-.4-.14-.2-.26-.4-.36-.7-.05-.2.03-.3.22-.3.2 0 .3-.1.34-.1v-.3c-.1-.1-.23-.1-.4 0-.14.1-.25.1-.3.1-.1 0-.2-.2-.3-.6-.05-.5-.02-.9.1-1.2.15-.5.37-.9.66-1.2.3-.3.73-.4 1.3-.5.2 0 .37 0 .5.1.07 0 .17.1.3.2l-.2.4c0 .1 0 .2.05.3.1.1.2.2.3.2.2.1.37.1.45 0 .1-.1.14-.2.16-.3.04-.2 0-.4-.2-.5 0-.1 0-.2.04-.3.1-.4.4-.7.8-.9.42-.3.85-.4 1.3-.2.3.1.6.3.93.7.4.5.5.9.4 1.2-.3.1-.5.2-.54.3v.3c.2.2.3.3.4.3h.9c.4.4.7.8.8.9.2.4.2 1 0 1.6zm-3-6.2c-.1.13-.3.16-.5.08-.2-.05-.4-.2-.5-.4l-.1-.36c0-.15-.1-.27-.2-.35-.1.06-.2.1-.2.2-.1.94-.2 1.44-.3 1.5l-.4.03c-.2.04-.4.04-.4 0-.2-.05-.4-.3-.4-.73-.1-.3-.1-.6-.1-.88l.1-.7.6-1.27c.2-.43.4-.8.5-1.07.3.6.6 1.1.9 1.7.3.8.6 1.6.6 2.3zm1.2 5.66c.1-.16.1-.3-.1-.46-.2-.14-.5-.27-.8-.37l-.7-.3c0-.2-.1-.3-.2-.4l-.2-.2c0-.1 0-.4.1-.8.1-.5 0-.8-.2-1-.2-.1-.3-.1-.4 0-.1.1 0 .2.1.4l-.2.6c-.1.3-.2.5-.4.4-.1-.2-.3-.2-.6-.1-.2.1-.4.3-.5.6H49l-.13-.1c-.14-.1-.3-.1-.4-.2l-.36-.2c-.1 0-.2 0-.2.2l.7.4c.2.1.5.2.7.4.1.3.3.6.8.7h.6l.1.3c0 .2 0 .5-.1.7s-.2.4-.4.5l.2.2s.2 0 .3-.1c.1-.1.2-.3.3-.6.1-.2.1-.4.1-.6l.1-.6c.1 0 .2-.1.3-.2l.2-.2c.2-.1.3 0 .5 0 .3.1.5.2.5.3l.4.2zm-2.3-1.48c-.3 0-.5.14-.6.46-.1.13-.1.36-.1.7-.2-.03-.3-.13-.4-.3-.1-.2-.1-.34 0-.44 0-.16.1-.27.2-.32.1-.22.3-.3.6-.22l.2.12zm.1 4.78c0 .16 0 .32-.1.48-.1.22-.2.46-.5.73-.2.3-.6.6-.9.95-.1-.17-.3-.4-.4-.65l-.3-.73-.1-.18c-.1-.35-.1-.6 0-.8 0-.06.1-.14.1-.2l.6.2c-.1.1-.2.27-.2.54-.1.04 0 .1 0 .22l.3.1v-.37l.3-.3.7.1zm-.1-3.77c-.1.07-.2.06-.3-.04s-.2-.2-.1-.3c0-.1.1-.1.3-.1.2.1.2.3 0 .5zm1.2 5.96c-.3-.1-.5-.5-.7-1s-.1-.9 0-1.3l.2-.1h.2c-.1.2-.1.4-.1.7l.1.4h.2l.1-.9s.1 0 .2.1l.2.2c.2.3.2.6.1.9-.1.2-.2.4-.3.7l-.3.5zm1.6-8.4h.3c.3.1.4.3.3.6-.1.1-.1.1-.3.1l-.4-.4-.1-.2zm3.6 7.9h-.1c-.2.1-.2.1-.3 0-.2 0-.3-.2-.4-.5v-.3l-.4-.1c-.3.2-.5.4-.7.4-.2.1-.3.1-.5 0l-.3-.1c-.3-.1-.6-.2-.9-.4-.2-.1-.4-.3-.5-.6l-.4-.3c-.2-.1-.4-.2-.7-.3l.5-.2c.4 0 .6 0 .8-.1l.7-.3c.1 0 .4.2.7.3l.9.6c-.1-.1-.3-.3-.6-.7-.4-.3-.5-.6-.5-.9 0-.2.1-.5.2-.7 0-.3.1-.5 0-.6.1 0 .1.2.2.5l.3.5c.6.3 1.1.7 1.3 1.2s.4.9.2 1.4c0 .2-.1.4-.3.5v.2c.3.2.4.3.5.4v.3l-.1.2zm1-.8c-.1.1-.3.2-.5.1-.1 0-.3-.1-.4-.3-.1-.1-.1-.3 0-.5l.1-.1c.1 0 .3-.1.4 0 .1.1.3.1.4.3.1.1.1.3 0 .5 0 .1-.1.2-.1.2zm-.8 2.6c-.4 0-.5-.2-.6-.5 0-.3 0-.6.2-.8l.1-.1c.2-.1.3-.3.3-.4l.1-.2h.5c-.1.1 0 .2.1.4.1.3.3.4.4.5.1.1.2.1.4 0l.4-.3c.4.1.6.3.7.5.1.2.1.4 0 .6l-.2.3c-.1.1-.1.2-.1.2 0-.5-.2-.8-.7-1h-.8c-.3.1-.6.2-.8.4-.2.1-.3.4-.4.7zm1.6-1.7H59c-.15 0-.25-.1-.3-.2-.1-.1-.1-.2-.06-.2l.3-.2c.1-.1.2-.1.25-.1l.2.2s.1.2.1.4c-.1.1-.1.2-.3.3zm1.8 1.8c-.1 0-.2-.1-.2-.2-.1-.1-.1-.2 0-.2.1-.2.2-.2.4-.2.2.1.3.2.2.4-.1.3-.2.4-.5.3z"/>
      </g>
      <g>
        <g fill="red">
          <path fill="url(#b)" d="M407 450.3s-30.8-53.97-53.8-85.23c-23.02-31.27-44.53-44.35-71.98-74.57-27.7-30.5-47.66-49.2-47.66-104.78 0-46.32 39.94-82.47 86.32-82.47 46.37 0 84.26 36.6 87.12 82.47 2.86-45.86 40.75-82.47 87.12-82.47 46.38 0 86.32 36.15 86.32 82.47 0 55.57-19.95 74.3-47.66 104.78-27.45 30.22-48.96 43.3-71.97 74.57-23 31.26-53.8 85.22-53.8 85.22z" transform="matrix(.3134 0 0 .31326 -29.738 50.833)"/>
        </g>
        <g fill="#fff" fill-opacity=".67">
          <path fill="url(#c)" fill-opacity="1" d="M398.46 245.06c-29.4-8.94-73.05-1.95-110.78 3-37.74 4.98-54.12-27.08-54.12-62.34 0-46.32 39.94-82.47 86.32-82.47 46.37 0 87.12 38.06 87.12 91.6 0-53.25 40.75-91.6 87.12-91.6 46.38 0 86.32 36.15 86.32 82.47 0 29.78-6.7 52.22-18.2 68.8-29.1 39.72-55.22 30.8-77.27 23.57-39.28-12.9-53.15-22.9-86.5-33.1z" transform="matrix(.30978 0 0 .30964 -28.266 51.625)"/>
        </g>
      </g>
      <g fill="red">
        <path d="M43.55 226.33c0-1.8.13-3.27.4-4.38 0-.1.13-.47.36-1.06.2-.5.3-.9.3-1.1l-.2-.6-.2-.6c-.3-.9-.4-1.8-.4-2.8 0-1.6.5-2.8 1.4-3.7 1-1 2.2-1.4 3.7-1.4.8 0 1.7.2 2.7.6 1 .4 1.4.6 1.4.6-.1 0 .4-.2 1.5-.6 1.3-.5 2.4-.7 3.4-.7s1.9.1 2.7.4l.7.3c.4.1.6.2.7.2l1.1-.4c.7-.3 1.3-.4 1.9-.4.9 0 1.6.4 2.1 1.3.4.7.6 1.5.6 2.5 0 .2-.1.5-.1 1-.1.4-.2.8-.2 1 0 .2.1.4.1.8.1.3.2.6.2.8 0 .7-.2 1.5-.5 2.4-.2.5-.6 1.1-1 1.8-.3.6-.5.9-.5 1 0 .1.1.3.2.7.2.3.3.6.3.6l.9.6c.4.3.6.7.6 1.2 0 1.1-.3 1.7-.8 1.7l-.7-.2c-.4-.1-.7-.2-.9-.2-.5 0-1.1.1-1.8.3s-1.3.5-1.7.7c.1 0 .5-.1 1.2-.2.4-.1.8-.1 1.1-.1 1 0 1.8.2 2.5.6.8.5 1.2 1.2 1.2 2.1 0 1.6-.8 2.4-2.5 2.4-.6 0-1.5-.1-2.6-.4s-2.1-.4-2.7-.4c-.7 0-1.8.1-3.3.3-1.5.2-2.6.3-3.3.3-.2 0-.6-.1-1.1-.1-.5-.1-.8-.1-1.1-.1-.3 0-.8 0-1.5.1s-1.2.1-1.6.1c-2.6 0-3.9-.9-3.9-2.8 0-.2.1-.7.4-1.4 0-.2 0-.4-.1-.7-.1-.4-.1-.6-.1-.7-.1-.7-.1-1.5-.1-2.5zm.64-10.48c0 1.2.2 2.27.6 3.24.1-.1.2-.2.2-.3l-.2-.6c-.2-.3-.2-.5-.2-.6-.1-.4-.2-.8-.2-1.2 0-1.1.2-2 .7-2.6.5-.8 1.3-1.1 2.3-1.1 1.7 0 3.2.9 4.3 2.6 1 1.5 1.6 3.2 1.6 5.1 0 1.8-.4 3.4-1.1 5-.7 1.3-1.7 2.7-3 4.2 0 .2.1.3.3.3.8 0 1.8-1.2 3.1-3.7 1-2.1 1.7-3.7 1.9-4.9.2-.8.2-1.4.2-2 0-2.1-.5-4-1.4-5.5-1.1-1.8-2.7-2.7-4.7-2.7h-.4l-.2-.1h-.2c-1.2 0-2.1.4-2.9 1.3-.7.9-1.1 1.9-1.1 3.1zm0 10.1c0 2.05.1 3.3.5 3.74.5 0 .7-.3.7-.9 0-.2-.1-.5-.2-.8l-.3-.8c-.2-.9-.2-1.9-.2-2.9 0-3.8 1.6-7 4.8-9.6-.1-.1-.2-.2-.3-.2-.2 0-.8.5-1.7 1.6-.8.9-1.4 1.6-1.6 2-1.3 1.9-2 4.5-2 7.7zm.1 5.84c.2.2.7.4 1.2.4.7 0 1.2-.2 1.6-.5-.1-.2-.3-.3-.4-.4-.8.3-1.4.4-1.8.4.1 0-.2-.1-.7-.1zm.1-.8c0 .3.1.4.4.4.2 0 .3-.1.3-.4s-.2-.4-.4-.4c-.3 0-.4.1-.4.3zm.2-14.5c0 .2 0 .5.1 1s.2.8.3.9l.7-1.1-.2-.6c-.2-.4-.2-.6-.2-.7-.1-.4-.1-.7-.1-1 0-.2.1-.5.2-1.1-.3.2-.6.6-.8 1.1-.2.5-.3.9-.3 1.3zm.2 16.5c.4.4 1.4.7 2.9.7.1 0 .7-.1 1.6-.3-.3-.2-.5-.3-.6-.3.1 0-.1 0-.6.1h-1.2c-.9 0-1.7-.1-2.3-.4zm.3-10v1.7c0 2.3.6 4.3 1.8 6 1.3 1.8 3.1 2.8 5.3 2.8h2c-2.6-.4-4.6-1.6-6.1-3.6-1.4-1.9-2.1-4.2-2.1-6.8 0-1.1.2-2.2.6-3.5.4-1.2.9-2.3 1.5-3.2v-.3c-.8.6-1.5 1.6-2.2 3-.7 1.5-1.1 2.7-1.1 3.7zm0 9.5c.4.1.7.2 1 .2.6 0 1.2-.1 1.6-.3-.1 0-.1-.1-.2-.2s-.2-.1-.2-.1c-.2 0-.6 0-1 .2-.5.1-.8.2-1.1.2-.1 0-.2 0-.3-.1zm.2-2.3c.2.4.3.7.4.7l.4-.3c-.2-.3-.3-.6-.6-.9-.2.1-.3.2-.4.4zm.3-15c0 .8.1 1.4.5 1.6.3-.5.5-.8.5-.8 0-.2-.1-.4-.2-.6-.1-.3-.2-.5-.2-.6 0-.3.1-.6.2-.9.1-.3.3-.5.5-.6h-.2c-.9-.1-1.3.5-1.3 1.7zm0-1.7c.5-.2.8-.4.9-.4h.5c1.5 0 2.9.8 4.2 2.4 1.2 1.5 1.8 3.1 1.8 4.7 0 .2 0 .4-.1.6v-.6c0-1.9-.5-3.6-1.6-5-1.1-1.7-2.6-2.5-4.4-2.5-.2 0-.4.1-.8.2s-.6.3-.7.4zm.8 9.5c0 2.9.8 5.3 2.3 7.2 1.7 2 4 3 6.8 3h.2l.1-.1c-2.7 0-5-1-6.7-2.9-1.7-1.9-2.5-4.2-2.5-7 0-2 .4-3.9 1.2-5.8-1 1.7-1.6 3.6-1.6 5.5zm.4-8.3c0 .4.1.7.4.7.1 0 .3-.2.6-.5l.6-.7v-.2c-.3-.2-.5-.3-.6-.3h-.3c-.3 0-.5.1-.7.3-.2.2-.3.4-.3.6zm.2 8.4c0 .5 0 1.2.2 2 .1 1 .4 1.6.7 1.6.2 0 .4-.1.5-.3.1-.2.2-.4.2-.6 0-.1-.2-.6-.5-1.5s-.5-1.6-.5-2c0-1.2.2-2.3.6-3.5 0-.1.1-.4.4-.9l.4-.8c0-.1-.2-.3-.5-.4-.6.7-1 1.6-1.3 2.9-.3 1-.4 2.1-.4 3.2zm0 9.8h.4l.8-.1c-.2-.2-.3-.3-.4-.3-.1 0-.2 0-.5.1l-.5.1zm.9-15.4h.1v-.2l-.1.2zm.1-.3l.1-.3H48l-.16.2zm.1 10.1c-.1.4.1.6.4.6.5 0 1.1-.9 1.6-2.8.4-1.6.7-2.8.7-3.6 0-.6-.1-1.3-.3-2.1-.3-1-.6-1.5-1-1.5-.3 0-.5.1-.5.5 0 .1.2.5.7 1.2.5.6.7 1.1.7 1.7 0 .6-.2 1.1-.6 1.4-.2.1-.5.2-1 .4-.4.1-.6.2-.6.5 0 .1.1.4.4.8.2.4.4.8.4 1.1 0 .3-.2.5-.4.8-.3.3-.6.4-.9.5v.1zm.1-5.9c0 .5.2.7.5.7h.2c.1 0 .2-.1.2-.3s-.1-.4-.3-.7c-.2-.2-.4-.4-.6-.5 0 .1 0 .2-.1.4l-.1.3zm.1 1c.1.1.3.2.5.2.6 0 .9-.3.9-.8 0-.3-.2-.7-.5-1.1l-.9-.9-.1.4.5.8c.3.4.4.6.4.7 0 .2-.2.4-.4.4l-.7.1zm.2-6.5c0 .2.2.5.7.9.6.5 1 1 1.3 1.5.4.8.7 1.9.7 3.1 0 2.7-.9 5.2-2.8 7.3l.3.3c.9-.7 1.7-1.9 2.5-3.6.7-1.7 1.1-3.1 1.1-4.3V220c0-.9-.3-1.8-.9-2.77-.7-1.1-1.4-1.66-2.2-1.66-.6 0-.9.2-.9.57zm.1 3.2v.4c0 .2.3.6 1.1 1.3-.3-.4-.7-1-1.1-1.7zm.5-4.3c.2 0 .4 0 .7.2l.7.3c-.3-.3-.6-.6-1-.9l-.5.3zm.5 15.2c2.2-1.2 4.1-2.8 5.8-4.8.8-.8 1.1-1.4 1.1-1.6 0-.3-.2-.7-.7-1-1.4 3.1-3.5 5.6-6.2 7.4zm.3.4l.3.2c.3 0 1-.5 2.3-1.3 1.2-.8 2-1.4 2.3-1.7 1.7-1.6 3.2-3.5 4.5-5.8 1.4-2.6 2.2-4.9 2.2-6.8 0-1.2-.5-2-1.3-2.7-.8-.6-1.7-.9-2.9-.9-.6 0-1.5.3-2.8.8.2.1.3.2.3.2l.9-.3c.5-.2 1-.3 1.5-.3.8 0 1.5.2 2.2.8.6.5 1 1.1 1 1.9v1.4c0 .1-.1.2-.2.3l-.3-.4c-.2-.2-.3-.3-.5-.3-.4 0-.6.2-.7.5.2.4.4.9.4 1.7 0 1.2-.4 2.4-1 3.7-.3.5-1 1.6-2.1 3.2-.7.9-1.7 1.9-3.1 3-.7.5-1.9 1.4-3.5 2.5zm.7.4c2.7-1.1 5.2-3 7.6-5.8 2.6-3 4-5.8 4-8.4 0-1.1-.2-1.9-.4-2.2v1.1c0 .7-.1 1.3-.3 1.9-.8 2.7-2.1 5.3-4.2 7.8-2.1 2.6-4.4 4.4-6.9 5.5zm.4.3c.1 0 .2.1.3.1.3 0 1-.3 2.1-1 .9-.5 1.6-1 2.1-1.4 2.4-1.8 4.7-4 6.7-6.6 2.5-3.2 3.7-6 3.7-8.4 0-.5-.2-1-.4-1.5-.3-.6-.7-1-1.1-1.1.5.4.7.9.7 1.6 0 .5-.7 2.1-2.2 4.8-1.1 2.1-2 3.8-2.8 5.1-.9 1.5-2.3 3.1-4.2 4.7-1.7 1.4-3.5 2.7-5.2 3.6zm.5-3.3c1.4-1.5 2.6-3.2 3.4-5.1.9-2 1.3-4 1.3-6 0-.8-.2-1.6-.4-2.4-.4-1.1-.9-1.6-1.5-1.6-.1 0-.3 0-.4.1-.2.1-.2.2-.2.3-.1.2.2.8.6 1.9.4 1.1.6 1.8.6 2v1.6c-.4 3.3-1.5 6.4-3.6 9.1zm.1 3.6c.2.1.3.2.4.2.8 0 2.1-.5 3.7-1.5 2.3-1.3 4.4-3 6.4-5.2 2.5-2.7 3.8-5 3.8-7l-.1-.4c-1.2 2.9-3.2 5.7-5.9 8.3-2.8 2.8-5.6 4.6-8.5 5.5zm.6-8.6h.1l.1-.3h-.1l-.1.3zm.1-.7h.1l.2-1.3-.2 1.3zm0-10l.6.7 1.6-.8s2-.8 2.7-.8h.7c1.2 0 2.3.5 3.1 1.5.8.9 1.3 2 1.4 3.2v-.3c0-1.5-.6-2.7-1.7-3.6-1.1-.9-2.3-1.4-3.8-1.4-.7 0-1.5.1-2.5.4-1.2.3-1.9.7-2.3 1.1zm0 19.6c.1.1.2.1.4.1.7 0 2.5-.8 5.6-2.4 3-1.6 5-2.3 5.9-2.3.1 0 .4 0 .7.1.3.1.5.1.6.1.2 0 .4-.3.4-.8 0-.3-.2-.7-.4-1-.3-.3-.6-.5-.9-.5-.1 0-1.9 1-5.4 3.1-3.6 2.1-6 3.2-7 3.4zm1.1-18.1c.5.9.9 2.2 1.3 3.9v-.8c0-.4-.2-.9-.5-1.8s-.6-1.3-.8-1.4zm.1 18.4c.2.1.5.1.7.1 1.1 0 2.7-.4 4.9-1.2 2.1-.8 3.8-1.2 5-1.2.4 0 1 .1 1.5.3-.2-.3-.6-.5-1.1-.7-.5-.2-1-.3-1.3-.3-1.1 0-2.8.4-4.9 1.1l-4.9 1.8zm1.5-14v.2-.2zm.4 14.7c.7.1 1.1.1 1.3.1 1 0 2.3-.4 4-1.1 1.7-.8 2.9-1.1 3.6-1.1.5 0 1 .1 1.4.4.4.2.6.6.6 1.1 0 .1 0 .2-.1.3l.2-.7c0-.5-.3-.8-.9-1.1-.5-.2-1-.3-1.5-.3-.7 0-1.5.1-2.4.4l-2.2.7c-1.2.4-2.6.8-4.2 1.1zm.6-19.5c.5 1.1.9 2.4.9 3.9 0-.2.5-.9 1.2-2.1l1-1.7c0-.4-.5-.5-1.4-.5H57l-1.16.5zm.4 8.1c0 1.1.3 1.7 1 1.9.7-1 1.1-1.6 1.1-1.8 0 .1-.1-.2-.3-.6-.2-.4-.3-.9-.3-1.3 0-.9.2-2 .6-3l1.4-2.8c-.3.2-.9.9-1.5 2-1.4 2.1-2 4.1-2 5.8zm1.8-2c0 1 .2 1.6.5 1.8v-.3c0-.1 0-.3-.1-.6l-.1-.6c0-.2.1-.6.2-1.2.1-.5.2-.8.2-1 0 0 0-.1-.1-.2s-.1-.2-.1-.2c0-.3.3-.6.8-1s.8-.8.8-1-.1-.5-.4-.7c-1.3 1.9-1.9 3.7-1.9 5.4zm.7.3v.4l.1.4c.1-.1.2-.4.3-.9.1-.5.1-.8.1-1 0-.2 0-.3-.1-.5-.2.9-.3 1.5-.3 1.9zm.3 13.2c.4 0 1.6.3 3.8.8.6.2 1 .2 1.2.2.1 0 .4 0 .7-.1.3-.1.5-.2.6-.3-.5.1-.8.2-.8.2-.5 0-1.1-.2-1.9-.6-.9-.4-1.4-.7-1.8-.7l-1.9.7zm.2-4.1l4.9-3.1c.3-.2.5-.3.5-.4 0-.2-.1-.3-.2-.5-.2-.1-.4-.2-.5-.2-.1 0-.8.7-2.2 2l-2.5 2.4zm.8-12.9l.4.3v-.9c-.1.1-.3.3-.5.6zm1.3 16.2l1.5.8c.6.3 1.2.5 1.6.5.3 0 .6-.1.9-.3.3-.2.4-.4.4-.7 0-.1-.1-.1-.1-.2-.2.6-.6.8-1.2.8-.3 0-.8-.2-1.3-.5s-1-.6-1.3-.6c-.2 0-.4.1-.7.2zm.1-19.6l.7 1c.1 0 .4 0 .7-.1.3-.1.5-.1.8-.1.5 0 1 .1 1.3.5v-.5c0-.3-.2-.6-.6-1-.4-.3-.7-.5-1.1-.5-.3 0-.7.1-1.2.2s-.8.3-.9.5zm.9 1.3l.2.6c.4-.1.8-.2.9-.2.2 0 .5.1.7.2.3.2.4.3.5.3l.1-.4c0-.2-.2-.4-.4-.6-.3-.1-.6-.2-.8-.2-.3 0-.8.1-1.4.4zm.5 1.4l.1 1.1v1.1l.6-1c.3-.4.4-.7.4-1 0-.1-.1-.2-.2-.3-.1-.1-.2-.2-.4-.2-.1 0-.2.1-.4.2s-.3.2-.3.3zm.2 16.4l.8.5c.2.2.5.3.7.3.3 0 .5-.1.5-.3 0-.4-.4-.6-1.2-.6-.3 0-.6.1-.9.2zm88.2-5.1c0-1.8-.2-3.2-.4-4.4l-.4-1c-.2-.5-.3-.8-.3-1.1 0 0 0-.2.2-.6l.2-.6c.3-.8.4-1.8.4-2.7 0-1.6-.5-2.8-1.4-3.7-1-.9-2.2-1.4-3.7-1.4-.8 0-1.7.2-2.7.6-1 .4-1.5.6-1.4.6.1 0-.4-.2-1.5-.6-1.3-.5-2.4-.7-3.4-.7s-1.9.1-2.7.4l-.7.3c-.4.1-.6.2-.7.2l-1.1-.4c-.7-.3-1.3-.4-1.9-.4-.9 0-1.6.4-2.1 1.3-.4.7-.6 1.5-.6 2.5 0 .2 0 .6.1 1 0 .5.1.8.1 1.1 0 .2-.1.5-.1.8-.1.4-.1.6-.1.8 0 .8.1 1.6.5 2.4.2.5.5 1.1 1 1.8.3.5.5.8.5.9 0 .1-.1.3-.3.7l-.3.7-.9.7c-.4.3-.6.7-.6 1.2 0 1.1.3 1.7.8 1.7 0 0 .3-.1.7-.2.4-.1.7-.1.9-.1.5 0 1.1.1 1.8.3s1.3.5 1.7.8c-.1 0-.5-.1-1.2-.2-.4-.1-.8-.1-1.1-.1-1 0-1.8.2-2.4.6-.8.5-1.2 1.2-1.2 2.1 0 1.5.9 2.3 2.6 2.3.6 0 1.5-.2 2.6-.4s2.1-.4 2.7-.4c.7 0 1.8.1 3.3.3 1.4.2 2.5.3 3.2.3.2 0 .6 0 1.1-.1.5-.1.8-.1 1-.1.4 0 .9 0 1.6.1.7.1 1.3.1 1.6.1 2.6 0 4-.9 4-2.8 0-.2-.2-.7-.4-1.3 0-.1 0-.3.1-.6.1-.4.1-.6.1-.7.1-.6.2-1.5.2-2.5zm-.7-10.5c0 1.2-.2 2.3-.6 3.3-.1-.1-.2-.2-.2-.3l.2-.5s.2-.5.2-.6c.1-.4.2-.8.2-1.2 0-1.1-.2-1.9-.7-2.6-.5-.7-1.3-1.1-2.3-1.1-1.7 0-3.2.9-4.3 2.6-1 1.5-1.5 3.2-1.5 5.1 0 1.8.4 3.4 1.1 5 .7 1.3 1.7 2.7 3 4.2 0 .2-.1.3-.3.3-.8 0-1.8-1.3-3.1-3.7-1-2.1-1.7-3.7-1.9-4.9-.2-.8-.2-1.4-.2-2 0-2.1.5-3.9 1.4-5.5 1.1-1.8 2.7-2.7 4.7-2.7h.4l.2-.1h.2c1.1 0 2.1.4 2.9 1.3.7.9 1.1 1.9 1.1 3.1zm0 10.1c0 2.1-.2 3.3-.5 3.8-.5 0-.8-.3-.8-.9 0-.2.1-.4.2-.8l.3-.8c.2-.9.2-1.8.2-2.9 0-3.7-1.6-6.9-4.8-9.6.1-.1.2-.1.3-.1.2 0 .8.5 1.8 1.6.8.9 1.4 1.6 1.7 2 1.3 1.9 1.9 4.5 1.9 7.7zm-.1 5.9c-.3.3-.7.4-1.3.4-.7 0-1.2-.1-1.6-.4.1-.1.3-.2.4-.4.8.3 1.4.4 1.8.4-.1 0 .2-.1.7-.1zm-.1-.8c0 .3-.1.4-.4.4-.2 0-.3-.1-.3-.4 0-.2.2-.4.4-.4s.4.1.4.4zm-.2-14.4c0 .2 0 .5-.1 1s-.2.8-.3.9c-.5-.8-.8-1.1-.8-1.2 0-.1.1-.2.2-.6.2-.4.2-.6.3-.7.1-.4.1-.7.1-1 0-.1 0-.5-.2-1 .3.2.6.6.8 1.2.2.5.3.9.3 1.4zm-.2 16.5c-.4.4-1.4.7-2.9.7-.2 0-.7-.1-1.6-.3.2-.2.4-.3.5-.3-.1 0 .1 0 .6.1h1.3c.8 0 1.6-.2 2.2-.4zm-.3-10v1.7c0 2.3-.6 4.3-1.7 6-1.3 1.8-3.1 2.8-5.3 2.8h-2c2.6-.4 4.6-1.6 6.1-3.6 1.3-1.9 2-4.2 2-6.8 0-1-.2-2.2-.6-3.4-.4-1.2-.9-2.3-1.5-3.2v-.3c.8.6 1.5 1.6 2.2 3.1.7 1.4 1 2.7 1 3.7zm0 9.6c-.3.1-.7.2-1 .2-.7 0-1.2-.1-1.6-.3l.2-.2c.1-.1.1-.2.2-.2.2 0 .5.1 1 .2.4.1.8.2 1 .2h.3zm-.2-2.3c-.2.4-.3.7-.4.7l-.4-.3c.1-.3.3-.6.6-.9.1.1.2.2.3.4zm-.3-15c0 .8-.1 1.4-.5 1.6-.3-.5-.5-.7-.5-.8 0-.2 0-.4.1-.6.1-.3.2-.5.2-.6 0-.3 0-.6-.2-.9-.1-.3-.3-.5-.5-.6h.2c.9-.1 1.3.5 1.3 1.7zm0-1.7c-.5-.2-.8-.4-.9-.4h-.4c-1.5 0-3 .8-4.2 2.4-1.2 1.5-1.8 3.1-1.8 4.7 0 .2 0 .4.1.6v-.6c0-1.9.5-3.5 1.5-5 1.1-1.7 2.6-2.5 4.4-2.5.2 0 .5.1.9.2s.7.3.7.4zm-.8 9.5c0 2.9-.7 5.3-2.3 7.2-1.6 2-3.9 3-6.8 3h-.4c2.7 0 5-1 6.7-2.9 1.7-1.9 2.5-4.2 2.5-7 0-2-.4-3.9-1.2-5.8 1.1 1.8 1.6 3.6 1.6 5.5zm-.4-8.3c0 .4-.1.7-.4.7-.1 0-.3-.2-.6-.5-.3-.4-.6-.6-.6-.6v-.3c.3-.2.5-.3.6-.3h.3c.3 0 .5.1.7.3.2.2.3.4.3.6zm-.2 8.4c0 .5 0 1.2-.2 2-.2 1-.4 1.6-.7 1.6-.2 0-.4-.1-.5-.3-.1-.2-.2-.4-.2-.6 0-.1.2-.6.5-1.5s.5-1.6.5-1.9c0-1.2-.2-2.3-.6-3.5 0-.1-.1-.4-.4-.8l-.4-.8c0-.1.2-.3.5-.4.6.7 1 1.7 1.3 2.9.3 1.1.4 2.2.4 3.2zm0 9.8h-.4l-.8-.1c.1-.2.3-.3.4-.3l.4.1.5.1zm-.9-15.4h.1l-.1-.2.1-.1.1.2zm-.1-.3l-.1-.3h.1l.1.3zm-.1 10.2c.1.4-.1.7-.4.7-.5 0-1.1-.9-1.6-2.8-.5-1.6-.7-2.7-.7-3.6 0-.6.1-1.3.3-2 .3-1 .6-1.5 1-1.5.3 0 .5.2.5.5 0 .2-.2.6-.7 1.2-.5.6-.7 1.2-.7 1.7 0 .6.2 1.1.5 1.4.2.1.5.2 1 .4.4.1.6.3.6.5 0 .1-.1.4-.4.8-.3.4-.4.8-.4 1.2 0 .2.1.5.4.8.2.3.5.5.8.6v.1zm-.1-5.9c0 .5-.2.7-.6.7-.2 0-.2-.1-.2-.3s.1-.4.3-.7c.2-.3.4-.4.5-.5v.6zm-.1 1c-.1.1-.3.2-.6.2-.6 0-.9-.3-.9-.8 0-.3.2-.7.5-1.1l.8-.9.1.4-.6.8c-.2.4-.4.6-.4.7 0 .2.1.4.4.4.2.1.5.1.7.1zm-.2-6.5c0 .2-.3.5-.8.9-.6.5-1 1-1.3 1.5-.4.8-.7 1.9-.7 3.1 0 2.7 1 5.2 2.8 7.3l-.3.3c-1-.7-1.8-1.9-2.6-3.6-.7-1.7-1.1-3.1-1.1-4.3V220c0-.9.3-1.8.9-2.78.6-1.1 1.3-1.6 2.1-1.6.6 0 .9.2.9.54zm-.2 3.2v.4c0 .2-.4.7-1.1 1.4l1.1-1.8zm-.5-4.3c-.2 0-.4.1-.7.2l-.7.3c.3-.3.6-.5 1-.8l.4.4zm-.5 15.2c-2.2-1.2-4.2-2.8-5.9-4.8-.7-.9-1.1-1.4-1.1-1.7 0-.3.3-.7.7-1 1.4 3.1 3.5 5.6 6.2 7.4zm-.3.4c-.2.1-.3.2-.4.2-.3 0-1.1-.4-2.4-1.3-1.2-.8-1.9-1.4-2.3-1.7-1.7-1.6-3.2-3.5-4.5-5.7-1.5-2.6-2.2-4.8-2.2-6.8 0-1.1.4-2 1.3-2.6.7-.6 1.7-.9 2.8-.9.5 0 1.4.2 2.8.8-.2.1-.4.1-.4.1s-.4-.1-.9-.3c-.5-.2-1.1-.3-1.6-.3-.8 0-1.6.3-2.2.8-.7.5-1 1.1-1 1.9v1.4c0 .1 0 .2.2.3l.3-.4c.1-.2.3-.3.4-.3.3 0 .5.2.6.5-.3.4-.4 1-.4 1.7 0 1.2.3 2.5 1 3.7.3.6 1 1.7 2.1 3.2.7 1 1.7 2 3.1 3 .7.6 1.9 1.4 3.6 2.6zm-.7.4c-2.7-1.1-5.2-3-7.7-5.7-2.7-3-4-5.9-4-8.5 0-1.1.1-1.9.4-2.2v1.1c0 .6.1 1.3.2 1.9.8 2.7 2.1 5.3 4.2 7.8s4.4 4.4 6.9 5.5zm-.4.3c-.1.1-.2.1-.3.1-.3 0-1-.3-2.1-1-.9-.5-1.6-.9-2.2-1.3-2.5-1.8-4.7-4-6.8-6.6-2.5-3.3-3.8-6.1-3.8-8.4 0-.5.1-1.1.4-1.6.3-.5.6-.9 1-1-.5.4-.7.9-.7 1.6 0 .5.7 2.1 2.2 4.8 1.1 2.1 2 3.8 2.8 5.1.9 1.5 2.3 3.1 4.2 4.7 1.7 1.5 3.4 2.7 5.2 3.7zm-.5-3.3c-1.4-1.5-2.6-3.1-3.4-5.1-.9-2-1.3-4-1.3-6 0-.8.1-1.6.4-2.4.4-1.1.8-1.6 1.4-1.6.1 0 .2 0 .4.1.1.1.2.2.2.3 0 .1-.2.8-.7 1.9s-.7 1.8-.7 2v1.6c.3 3.3 1.5 6.3 3.6 9zm-.2 3.6c-.2.1-.3.2-.4.2-.9 0-2.1-.5-3.8-1.5-2.3-1.3-4.4-3.1-6.4-5.2-2.5-2.7-3.8-5-3.8-7l.1-.4c1.2 2.9 3.1 5.7 5.8 8.3 2.8 2.8 5.6 4.6 8.5 5.5zm-.7-8.6h-.1l-.1-.4h.1l.1.4zm-.1-.7h-.1l-.2-1.3h.1l.3 1.3zm0-10c-.3.4-.5.7-.6.7.1 0-.5-.3-1.6-.8-1.1-.6-2-.8-2.8-.8h-.7c-1.2 0-2.2.5-3.1 1.4-.8.9-1.2 2-1.4 3.3v-.3c0-1.5.6-2.7 1.7-3.6 1-1 2.3-1.4 3.7-1.4.7 0 1.5.1 2.5.4 1.2.3 1.9.6 2.2 1zm0 19.5c-.1.1-.2.2-.3.2-.7 0-2.6-.8-5.6-2.3-3-1.6-5-2.3-5.9-2.3-.2 0-.4 0-.7.1-.3.1-.6.1-.7.1-.3 0-.4-.3-.4-.8 0-.4.1-.7.3-1 .2-.4.5-.5.8-.5.1 0 1.9 1 5.4 3.1 3.7 2 6 3.2 7 3.4zm-1-18.1c-.5.9-.9 2.2-1.3 3.9v-.8c0-.3.1-.9.4-1.8s.5-1.3.8-1.4zm-.1 18.4c-.3.1-.5.1-.7.1-1.1 0-2.7-.4-4.9-1.2-2.1-.8-3.8-1.2-5-1.2-.4 0-.9.1-1.5.4.2-.3.6-.5 1.1-.7.5-.3.9-.4 1.3-.4 1.1 0 2.7.4 4.9 1.1l4.9 1.8zM140 218v.2-.3h.03zm-.4 14.7c-.7.1-1.18.1-1.3.1-1 0-2.38-.36-4.1-1.1-1.7-.75-3-1.1-3.7-1.1-.5 0-1 .1-1.4.4-.4.25-.6.6-.6 1.1v.3l-.17-.7c0-.5.3-.84.9-1.1.4-.15.9-.24 1.5-.24.63 0 1.4.15 2.3.4l2.23.76c1.2.4 2.6.8 4.2 1.2zm-.7-19.5c-.56 1.1-.9 2.4-.9 3.9-.1-.2-.5-.9-1.2-2.1l-1.1-1.7c0-.4.4-.6 1.3-.6h.7l1.1.4zm-.4 8c0 1-.36 1.7-1.07 1.8-.7-1-1-1.6-1-1.8l.3-.7c.2-.5.3-.9.3-1.4 0-.9-.24-1.94-.67-3-.2-.4-.6-1.4-1.4-2.8.3.27.9.9 1.5 2 1.3 2.2 2 4.1 2 5.9zm-1.8-2.1c0 .9-.2 1.5-.6 1.8v-.1c0-.2.06-.4.1-.7.05-.3.1-.5.1-.7 0-.3-.07-.7-.2-1.2-.2-.5-.3-.9-.3-1.1 0-.1.1-.2.1-.3.1-.2.1-.2.1-.3 0-.3-.2-.6-.8-1.1-.5-.4-.8-.8-.8-1.03s.1-.5.4-.7c1.3 1.8 2 3.6 2 5.4zm-.7.3c0 .1 0 .2-.04.3v.3l-.2-1c-.1-.44-.1-.8-.1-1 0-.2 0-.4.1-.53.2.9.37 1.5.37 1.8zm-.3 13.1c-.4 0-1.7.2-3.8.7-.7.1-1.1.2-1.2.2-.2 0-.4 0-.7-.1-.4-.1-.6-.2-.7-.3l.8.1c.5 0 1.1-.2 1.8-.6.8-.44 1.4-.7 1.7-.8l1.9.7zm-.2-4.1c-1.14-.7-2.8-1.8-4.96-3.2-.4-.2-.5-.4-.5-.43 0-.2 0-.4.2-.6.1-.2.3-.3.5-.3 0 0 .8.7 2.2 2l2.5 2.4zm-.8-13l-.5.3v-.9c.14 0 .3.2.5.6zm-1.3 16.4c-.5.3-1 .6-1.54.85-.65.38-1.2.5-1.7.5-.3 0-.6-.1-.9-.3-.3-.2-.5-.42-.5-.7v-.4c.1.5.5.8 1.2.8.3 0 .8-.2 1.3-.6s.9-.53 1.2-.53c.2 0 .4.1.7.2zm-.1-19.53l-.7.92c-.17 0-.4 0-.77-.1-.3-.1-.55-.2-.76-.2-.5 0-1 .1-1.4.5v-.5c0-.3.2-.7.54-1 .4-.4.7-.5 1-.5.3 0 .7.1 1.1.2.5.1.9.3 1 .5zm-.9 1.3l-.27.6c-.45-.2-.76-.3-.94-.3-.3 0-.5.1-.7.2-.3.2-.5.3-.6.32-.1-.3-.1-.4-.1-.5 0-.3.1-.5.4-.6.2-.2.5-.3.8-.3.3 0 .7.1 1.3.4zm-.57 1.4c0 .1 0 .43-.07 1.04-.05.4-.05.8 0 1.1l-.6-.9c-.3-.4-.44-.8-.44-1.1 0-.1.03-.2.15-.4.14-.1.26-.2.4-.2.1 0 .2.1.4.2s.2.2.2.3zm-.2 16.33l-.77.5c-.3.2-.53.3-.76.3-.35 0-.53-.1-.53-.3 0-.3.4-.5 1.2-.5.3 0 .6.1.9.2z"/>
        <path d="M165.97 203.03c0 .5-.1 1.33-.27 2.45-.18 1.12-.26 1.92-.26 2.4l.28 20.4c.04 1.38-.1 4.2-.38 8.45-.03.48.03 1.2.2 2.16.22 1 .33 1.7.33 2.2 0 2.1-.66 3.2-1.97 3.2-.3 0-.72-.1-1.3-.3l-1.2-.3c.48 1.4.72 2.3.72 2.7 0 1-.92 1.5-2.78 1.5-.7 0-1.74-.1-3.1-.2-1.36-.2-2.4-.2-3.1-.2h-12c-1.2 0-3.02-.1-5.44-.2-2.42-.2-4.22-.2-5.4-.2l-10.7.4c0-.5.2-1 .62-1.5s.88-.8 1.4-1c1.08-.4 3.14-.9 6.18-1.7 3.33-.9 5.28-1.3 5.86-1.3.83 0 1.66.1 2.5.3.32-1.1 1.16-1.8 2.54-2.1.06-.4.34-.8.8-1.2.4-.4.78-.7 1.17-1 .54-.6 1.07-1.3 1.58-2.1.58-1 1.14-1.7 1.68-2.1.64-.5 1.4-.8 2.3-.8 1.1 0 2.4.2 3.94.5.4-.8.9-1.4 1.54-1.7l-.3-2c-.1-.9-.2-1.5-.2-2 0-1.2.5-2.3 1.4-3.2.3-.2 1.2-.9 2.9-2 .6-.4 1.2-1 1.8-1.6.6-.7 1.1-1.2 1.5-1.5.2-1.3.7-1.9 1.3-1.9.5 0 .9-.1 1-.3-.2-.6-.3-1.3-.3-1.9 0-1.1.2-2.2.7-3.5l1.2-3.4c.4-1.9.7-3.3.7-4.2.1-.5.4-1.1 1-1.8.6-.8 1.1-1.2 1.5-1.2.2 0 .4 0 .5.1v.9zm-7.5 41.33c-2.9 1.38-6.4 2.06-10.47 2.06-1.8 0-4.3-.5-7.5-1.5-3.2-1.02-5.43-1.52-6.65-1.52-.73 0-1.77.24-3.12.72-1.85.64-2.9.98-3.12 1l-3.5.68c-1.6.32-2.7.66-3.1 1h1.2c.1 0 .2-.02.3-.1.1-.05.2-.08.3-.08h2.7c.2 0 .5-.04.9-.1.4-.06.7-.1.9-.1h7.5c.4 0 1 .03 1.8.1.8.06 1.4.1 1.8.1.2 0 .5.03.8.1.4.06.7.1.9.1h3.9c.2 0 .4.03.8.1.4.1.6.13.8.13 4.2-.16 6.5-.27 7-.34 2.3-.2 4.5-.8 6.6-1.7l-.2-.6zm-16.03-.6c-2.66-1.26-4-1.9-4.04-1.9-.64 0-.96.23-.96.68 0 .77 1.5 1.53 4.52 2.3 2.3.6 4.2.96 5.66 1.06-.8-.16-2.53-.88-5.18-2.14zm15.16-.22c-1.66.68-3.42 1-5.28 1-4.96 0-8.24-2.02-9.84-6.08-1.76 1.72-2.64 2.57-2.64 2.54 0 1.22 1.57 2.34 4.7 3.36 2.64.9 4.75 1.34 6.35 1.34 1.1 0 2.3-.16 3.7-.48 1.5-.35 2.7-.8 3.4-1.34-.1-.22-.3-.34-.5-.34zm-10.85-9.2c-1.02 0-1.9.33-2.63 1.02-.74.7-1.1 1.56-1.1 2.62 0 1.47.97 2.9 2.92 4.27-1.3-1.28-1.97-2.83-1.97-4.66 0-.9.3-1.6.9-2.1.58-.6 1.3-.8 2.12-.8.3 0 .8 0 1.4.2.6.1 1.1.1 1.4.1-.9-.6-2-.8-3.1-.8zm.44.95c-.8 0-1.4.1-1.9.5-.7.4-1 .9-1 1.7 0 0 .1.3.3.7 1.8-.3 2.7-.5 2.8-.5h1.2c.5 0 .8-.2.8-.7 0-.6 0-1.1.2-1.5-1-.4-1.9-.6-2.7-.6zm2.2 4.8c-.2-.9-1-1.4-2.2-1.4-.3 0-.9.1-1.8.4 0 1 .6 1.9 1.7 2.8 1.1.8 2.1 1.3 3.2 1.3-.4-.5-.7-1.6-1-3.3zm7.3-7.6h-1.1c-1.7 0-3 .5-4 1.6s-1.5 2.5-1.5 4.1c0 .7.2 1.6.6 3 .4 1.5.9 2.3 1.3 2.3h.4c0-.6-.1-.9-.2-1-.2-1.3-.3-2-.3-2.3 0-1.9.8-3.4 2.4-4.7 1.4-1.2 3.1-1.7 5.1-1.7.1 0 .4 0 .8.1.3.1.6.1.7.1l.1-.6c-2.5-.7-4-1.1-4.5-1.1zm1.7-6.1c-1.1-1-2.1-1.4-3.1-1.4-1.1 0-1.9.4-2.4 1.1-.6.8-.9 1.7-.9 2.8 0 1.3.2 2.3.7 2.9-.4-1.5-.6-2.5-.6-3.1 0-.8.3-1.6.9-2.2.6-.7 1.3-1 2.1-1 1.6 0 3.3 1.2 5.2 3.7-.3-1-1-2-2.1-2.9zm1.4 8.1c-.6-.2-1.1-.3-1.4-.3-1.4 0-2.8.6-4.1 1.9-1.4 1.2-2 2.5-2 3.9 0 1.6.3 2.7.9 3.4h1c-.5-1.8-.7-2.9-.7-3.2 0-1.3.4-2.4 1.2-3.4.8-1 1.8-1.4 3.1-1.4.4 0 1.4.2 2.8.6.2 0 .4-.2.4-.3v-.9c-.3-.1-.7-.2-1.3-.4zm-4.6-8.4c-.7 0-1.3.2-1.8.7-.5.5-.7 1-.7 1.7 0 .3.1.9.3 1.8.2.9.5 1.4.6 1.4l2-.4c0-.3 0-.8-.1-1.3-.1-.6-.1-1.1-.1-1.4 0-.5.2-1.3.6-2.5-.3-.2-.6-.3-1-.3zm3.4 15.4c-1.5-1.9-2.8-3.1-3.7-3.5-.4.5-.6 1-.6 1.3 0 .2.8.9 2.4 2.3 1.6 1.4 2.5 2.4 2.5 3 0 .5-.5.8-1.3 1.1l-1.9.6c1.1.3 1.9.4 2.6.4.7 0 1.2 0 1.4-.1.5-.1.8-.4.8-.9 0-.9-.8-2.4-2.4-4.3zm-2.8.2c-.5-.4-.9-.6-1.1-.7v.6c0 .2.1.4.4.7.2.3.4.5.5.5-.1 0 .2-.1.8-.4-.1-.2-.3-.5-.8-.9zm5.9-15.8c-1.1-3-2.1-4.5-3.1-4.5-.2 0-.6.4-1.4 1.1-.9.8-1.5 1.2-1.6 1.3 4.3 1.9 6.4 5.4 6.4 10.6 0 .5-.2 1.3-.6 2.3-.4 1-.6 1.8-.6 2.3 0 .2 0 .4.2.5.4-.4.8-1.2 1.1-2.3l.6-2.6V232c0-1.3-.5-3.2-1.4-5.8zm2.4 12l-.4 1.8c-.2.8-.5 1.3-1 1.3-1.2 0-2.9-1.6-5.3-4.9-.5.1-1 .2-1.7.6 2.9 4.1 5.5 6.2 7.7 6.2.3 0 .6-.4.8-1.1.1-.6.2-1 .2-1.5 0-1.1-.2-2-.5-2.5zM157 227c-.3.44-.5 1.1-.5 2.06 0 1.23.3 2 1 2.2l2.74.7c.02-1.26-1.1-2.9-3.37-4.98zm2.3 9.5c-.1 0-.2 0-.3.05.4.9.8 1.4 1.2 1.55l.4-.66c-.4-.65-.8-.97-1.3-.97zm2.8-13.7c-.6-2.3-1.2-3.44-1.9-3.44-.2 0-.4.1-.5.22l3.36 7.6-.93-4.4zm.6-13.6c-.95 3.53-1.4 5.6-1.4 6.2 0 .7.4 2.74 1.2 6.1.84 3.7 1.3 6.7 1.3 9.1 0 3.06-.66 6.2-1.9 9.4.8-.8 1.4-2 1.8-3.6.2-.9.4-2.26.6-4.1.1-1.52.2-2.24.2-2.12l-.1-12.6c0-.26-.08-.66-.1-1.2-.1-.57-.1-.98-.1-1.24.02-6.13.2-10.15.5-12.04-.38.53-1 2.6-1.9 6.13zm2.5 38.1c-.2.1-.45.13-.8.13-1.1 0-1.75-.3-1.97-.9l-.4-2.3 2.6.3h.13c.25.88.4 1.47.4 1.8v.94zm-1.76-1.9l-.3.1.14.7c.06.27.35.4.86.45.16-.1.24-.2.24-.4 0-.3-.3-.6-.95-.88zm2.3-173.4c0-.55-.1-1.36-.3-2.5-.2-1.1-.25-1.9-.25-2.4l.3-20.4c0-1.34-.1-4.2-.4-8.4 0-.5 0-1.2.2-2.2.2-1.1.3-1.8.3-2.2 0-2.2-.7-3.3-2-3.3-.3 0-.7.1-1.3.23-.6.2-1 .3-1.2.3.5-1.35.7-2.3.7-2.7 0-1-1-1.5-2.8-1.5-.7 0-1.8.1-3.1.2-1.4.13-2.4.2-3.1.2-1.4 0-3.4-.03-6-.1-2.7-.03-4.7-.06-6-.06-1.2 0-3 .04-5.5.2-2.5.13-4.3.2-5.4.2l-10.7-.4c0 .5.2.96.6 1.43.4.42.8.73 1.4.9 1 .35 3.1.93 6.1 1.73 3.3.86 5.2 1.3 5.8 1.3.9 0 1.7-.1 2.5-.34.3 1.1 1.2 1.8 2.6 2 0 .4.3.8.8 1.2l1.1 1c.5.5 1.1 1.2 1.6 2.1.6 1 1.1 1.7 1.7 2.1.6.5 1.4.7 2.3.7 1.1 0 2.4-.2 3.9-.6.4.8.9 1.3 1.5 1.7 0 .1-.2.8-.4 1.9-.2.8-.3 1.4-.3 1.9 0 1.2.5 2.2 1.4 3.1.2.2 1.2.9 2.9 1.9.5.4 1.1.9 1.7 1.6.6.7 1.1 1.2 1.5 1.5.2 1.3.6 1.9 1.3 1.9.5 0 .8.1 1 .3-.3.6-.4 1.3-.4 1.9 0 1 .2 2.2.7 3.5l1.2 3.4c.4 1.8.6 3.2.6 4.2.1.5.4 1.1.9 1.7.5.8 1 1.2 1.4 1.2.2 0 .4-.1.5-.2V72zm-7.5-41.36c-2.9-1.4-6.4-2.1-10.5-2.1-1.8 0-4.3.5-7.5 1.5s-5.42 1.5-6.64 1.5c-.7 0-1.76-.2-3.1-.7-1.85-.64-2.9-1-3.1-1l-3.5-.68c-1.6-.34-2.7-.68-3.16-1h1.2c.08 0 .16 0 .28.1.1.03.2.06.3.06h2.6c.2 0 .5.04.9.1.4.1.7.1.9.1h7.4c.4 0 1 0 1.8-.1.8-.06 1.4-.1 1.8-.1.2 0 .48 0 .8-.08.38-.08.66-.1.85-.1h3.9c.14 0 .4-.05.8-.1.3-.1.6-.1.72-.1 4.1.12 6.5.23 7 .3 2.2.22 4.4.8 6.5 1.77l-.2.6zm-16.04.6l-4.03 1.9c-.64 0-.96-.26-.96-.7 0-.8 1.5-1.58 4.5-2.3 2.3-.65 4.2-1 5.6-1.1-.8.16-2.5.9-5.2 2.14zm15.17.2c-1.66-.7-3.4-1-5.28-1-5 0-8.3 2-9.9 6.1-1.7-1.76-2.6-2.6-2.6-2.57 0-1.2 1.6-2.34 4.7-3.36 2.7-.9 4.8-1.3 6.4-1.3 1.1 0 2.4.2 3.7.5 1.6.4 2.7.8 3.5 1.4-.1.3-.2.4-.5.4zM146.77 41c-1 0-1.9-.34-2.6-1.03-.8-.7-1.1-1.56-1.1-2.62 0-1.47.92-2.9 2.9-4.27-1.3 1.28-2 2.83-2 4.66 0 .83.3 1.5.9 2.04.57.52 1.3.8 2.1.8.3 0 .8-.07 1.4-.18.6-.1 1.1-.17 1.4-.17-.9.5-2 .77-3.1.77zm.42-.96c-.8 0-1.4-.18-1.9-.53-.7-.4-1-.9-1-1.6 0 0 .1-.3.3-.7 1.8.3 2.7.5 2.8.5h1.2c.6 0 .8.2.8.6 0 .6.1 1.1.2 1.5-1 .4-1.8.7-2.6.7zm2.2-4.85c-.2.9-1 1.3-2.2 1.3-.3 0-.9-.2-1.8-.5 0-1.1.6-2 1.7-2.8 1.1-.9 2.1-1.3 3.2-1.4-.4.4-.7 1.5-1 3.2zm7.3 7.5h-1.1c-1.7 0-3-.6-4-1.7s-1.5-2.5-1.5-4.2c0-.7.2-1.7.6-3 .4-1.6.9-2.4 1.3-2.4h.4c0 .5-.1.9-.2 1-.2 1.2-.3 2-.3 2.2 0 1.8.8 3.4 2.4 4.7 1.4 1.1 3.1 1.7 5.1 1.7.1 0 .4-.1.8-.2s.6-.1.7-.1l.1.5c-2.5.7-4 1.1-4.5 1.1zm1.7 6c-1.1.9-2.1 1.4-3.1 1.4-1.1 0-1.9-.4-2.4-1.2-.6-.8-.9-1.7-.9-2.8 0-1.4.2-2.3.7-2.9-.4 1.4-.6 2.5-.6 3 0 .8.3 1.5.9 2.2.6.6 1.3.9 2.1.9 1.6 0 3.3-1.3 5.2-3.7-.3 1-1 1.9-2.1 2.9zm1.4-8.2c-.6.2-1.1.3-1.4.3-1.4 0-2.8-.6-4.1-1.9-1.4-1.3-2-2.6-2-4 0-1.6.3-2.8.9-3.5h1c-.5 1.7-.7 2.8-.7 3.2 0 1.3.4 2.4 1.2 3.3.8.9 1.8 1.4 3.1 1.4.4 0 1.4-.2 2.8-.6.2 0 .4.1.4.3v1c-.3 0-.7.1-1.3.3zm-4.6 8.3c-.7 0-1.3-.3-1.8-.8s-.7-1.1-.7-1.8c0-.4.1-1 .3-1.8.2-1 .5-1.4.6-1.4l2 .3c0 .3 0 .7-.1 1.3-.1.6-.1 1-.1 1.3 0 .4.2 1.2.6 2.4-.3.1-.7.2-1 .2zm3.4-15.4c-1.5 1.8-2.8 3-3.7 3.4-.4-.6-.6-1.1-.6-1.4 0-.2.8-1 2.4-2.3 1.6-1.4 2.5-2.4 2.5-3.1 0-.5-.5-.9-1.3-1.1l-1.9-.6c1.1-.3 1.9-.5 2.6-.5h1.4c.5.1.8.4.8.9 0 .9-.8 2.3-2.4 4.3zm-2.8-.3c-.5.3-.9.5-1.1.6V33c0-.17.1-.4.4-.73.2-.3.4-.48.5-.48-.1 0 .2.1.8.3-.1.2-.3.5-.8.8zm5.9 15.8c-1.1 2.9-2.1 4.4-3.1 4.4-.2 0-.6-.4-1.4-1.1l-1.6-1.4c4.3-1.9 6.4-5.5 6.4-10.6 0-.5-.2-1.3-.6-2.3-.4-1.1-.5-1.8-.5-2.3 0-.2 0-.4.2-.5.4.4.8 1.1 1.1 2.3l.6 2.6v3c0 1.3-.5 3.2-1.4 5.8zm2.4-12.1l-.4-1.9c-.2-.9-.5-1.3-.9-1.3-1.1 0-2.9 1.6-5.3 4.8-.4-.1-1-.2-1.7-.6 2.9-4.2 5.5-6.2 7.8-6.2.3 0 .6.3.8 1.1.2.5.2 1 .2 1.5 0 1.1-.1 1.9-.4 2.4zM157 47.7c-.3-.5-.4-1.2-.4-2.1 0-1.3.38-2 1.1-2.2l2.8-.7c0 1.2-1.1 2.8-3.4 4.9zm2.4-9.5c-.1 0-.2 0-.2-.1.38-.9.78-1.4 1.2-1.6l.37.6c-.4.6-.84.93-1.3.93zm2.8 13.7c-.6 2.3-1.2 3.4-1.8 3.4-.2 0-.4-.1-.54-.3 1.6-3.7 2.7-6.2 3.36-7.6l-.94 4.4zm.7 13.6c-.92-3.6-1.4-5.6-1.4-6.2 0-.8.4-2.8 1.2-6.1.87-3.7 1.3-6.8 1.3-9.1 0-3.1-.64-6.2-1.92-9.4.8.8 1.4 2 1.8 3.6.2.9.4 2.2.6 4 .1 1.6.2 2.3.2 2.2l-.1 12.6c0 .2-.07.7-.15 1.2-.1.53-.1.94-.1 1.2.07 6.1.23 10.12.5 12-.33-.54-.96-2.6-1.9-6.14zm2.54-38.1c-.2-.1-.47-.2-.8-.2-1.1 0-1.77.3-2 .8l-.37 2.3 2.6-.3h.14c.3-.9.4-1.48.4-1.8v-.96zm-1.8 1.9l-.3-.2.15-.7c.1-.27.4-.4.9-.45.1.04.2.2.2.4 0 .3-.3.54-.9.83zm-134.3 43c0-.6.04-1.4.22-2.5s.2-1.9.2-2.4L29.5 47c0-1.4.1-4.2.4-8.46.04-.5-.02-1.2-.2-2.17-.2-1.06-.33-1.8-.33-2.2 0-2.18.64-3.27 1.95-3.27.3 0 .7.1 1.3.25.56.2.96.3 1.2.3-.48-1.3-.7-2.3-.7-2.7-.03-1 .9-1.5 2.75-1.5.7 0 1.8.1 3.1.2 1.4.2 2.4.2 3.1.2 1.4 0 3.4 0 6-.1H54c1.2 0 3 .1 5.4.3 2.44.15 4.24.2 5.4.2l10.7-.4c0 .5-.2.98-.6 1.45-.43.47-.9.78-1.4.94-1.1.35-3.15.93-6.2 1.73-3.32.87-5.27 1.3-5.85 1.3-.85 0-1.68-.1-2.5-.33-.3 1.14-1.18 1.8-2.56 2.08-.1.4-.4.8-.8 1.2-.4.33-.8.7-1.2 1-.6.53-1.1 1.23-1.6 2.1-.6 1-1.2 1.7-1.7 2.06-.7.5-1.4.76-2.3.76-1.1 0-2.4-.2-4-.54-.4.8-.9 1.4-1.6 1.75L44 45c.15.82.23 1.47.23 1.95 0 1.22-.47 2.26-1.4 3.12-.25.23-1.2.88-2.88 1.97-.54.4-1.12.92-1.72 1.6-.6.7-1.1 1.2-1.5 1.47-.22 1.3-.66 1.9-1.34 1.9-.6 0-.9.1-1 .3.2.7.3 1.3.3 2 0 1-.2 2.2-.7 3.5l-1.2 3.4c-.4 1.9-.6 3.3-.7 4.2-.1.5-.4 1.1-1 1.8-.6.8-1.1 1.2-1.5 1.2-.2 0-.4 0-.5-.1v-.8zm7.44-41.4c3-1.4 6.4-2.1 10.5-2.1 1.8 0 4.3.5 7.5 1.5 3.27 1 5.5 1.5 6.7 1.5.7 0 1.76-.2 3.1-.7 1.87-.64 2.9-1 3.14-1l3.5-.68c1.6-.37 2.7-.7 3.1-1h-1.2c-.05 0-.14 0-.25.1l-.2.03H70c-.2 0-.5.1-.9.1-.4.1-.68.1-.88.1h-7.44c-.38 0-.97 0-1.77-.1-.8 0-1.3-.1-1.7-.1h-.8c-.3 0-.6-.1-.8-.1h-3.9c-.1 0-.4 0-.7-.1-.3 0-.6-.1-.7-.1-4.1.2-6.5.3-7 .4-2.2.2-4.4.8-6.6 1.8l.3.56zm16.1.6c2.66 1.23 4 1.9 4.04 1.9.6 0 .9-.26.9-.7 0-.8-1.5-1.6-4.55-2.3-2.3-.7-4.2-1-5.68-1.1.8.1 2.5.8 5.2 2.1zm-15.16.2c1.6-.7 3.4-1 5.22-1 5 0 8.27 2 9.87 6.1 1.8-1.76 2.7-2.6 2.7-2.57 0-1.2-1.6-2.34-4.7-3.36-2.6-.9-4.7-1.35-6.3-1.35-1.1 0-2.3.16-3.7.5-1.5.34-2.6.8-3.4 1.33.1.2.2.3.5.3zM48.5 41c1.03 0 1.9-.34 2.65-1.03.7-.7 1.1-1.56 1.1-2.62 0-1.47-1-2.9-3-4.27 1.3 1.28 1.9 2.83 1.9 4.66 0 .83-.3 1.5-.9 2.04-.6.52-1.3.8-2.1.8-.3 0-.8-.07-1.5-.18-.65-.1-1.1-.17-1.45-.17.94.5 2 .77 3.14.77zm-.43-.96c.8 0 1.4-.18 1.9-.53.7-.4 1-.9 1-1.6 0 0-.1-.3-.3-.7-1.8.3-2.7.5-2.8.5h-1.23c-.53 0-.8.2-.8.6 0 .6-.07 1.1-.2 1.5 1 .4 1.88.7 2.64.7zm-2.2-4.85c.2.9 1 1.3 2.2 1.3.3 0 .9-.2 1.8-.5 0-1.1-.6-2-1.7-2.8-1.1-.9-2.2-1.3-3.2-1.4.4.4.7 1.5 1 3.2zm-7.3 7.5h1.1c1.7 0 3-.6 4-1.7s1.5-2.5 1.5-4.2c0-.7-.2-1.7-.6-3-.4-1.6-.9-2.4-1.3-2.4h-.4c0 .5.1.9.2 1 .2 1.2.4 2 .4 2.2 0 1.8-.8 3.4-2.4 4.7-1.5 1.1-3.2 1.7-5.1 1.7-.2 0-.5-.1-.88-.2-.4-.1-.7-.1-.8-.1l-.1.5c2.5.7 4 1.1 4.5 1.1zm-1.7 6c1.1.9 2.1 1.4 3.1 1.4s1.8-.4 2.4-1.2c.6-.8.9-1.7.9-2.8 0-1.4-.2-2.3-.7-2.9.4 1.4.6 2.5.6 3 0 .8-.3 1.5-.9 2.2-.6.6-1.34.9-2.14.9-1.56 0-3.3-1.3-5.2-3.7.34 1 1 1.9 2.08 2.9zm-1.4-8.1c.6.2 1.1.3 1.4.3 1.4 0 2.77-.7 4.12-1.9s2-2.6 2-4c0-1.6-.3-2.8-1-3.5h-1c.5 1.7.7 2.8.7 3.2 0 1.3-.4 2.4-1.2 3.3-.8.9-1.8 1.4-3.1 1.4-.5 0-1.4-.2-2.8-.7-.3 0-.4.1-.4.3v1c.3 0 .7.2 1.3.4zm4.6 8.3c.7 0 1.3-.3 1.8-.8s.7-1.1.7-1.8c0-.4-.1-1-.3-1.8-.2-1-.46-1.4-.65-1.4l-1.97.3c0 .3 0 .7.1 1.3.04.6.1 1 .1 1.3 0 .4-.2 1.2-.66 2.4.3.1.6.2.9.2zm-3.4-15.4c1.5 1.8 2.7 3 3.7 3.4.4-.6.57-1.1.57-1.4 0-.2-.82-1-2.47-2.3-1.65-1.4-2.5-2.4-2.5-3.1 0-.5.47-.8 1.3-1.1.6-.2 1.26-.4 1.9-.6-1.1-.3-1.95-.5-2.6-.5h-1.43c-.5.1-.8.5-.8 1 0 .9.8 2.3 2.4 4.3zm2.8-.3c.5.3.9.5 1.1.6v-.7c0-.2-.1-.4-.4-.8-.2-.3-.4-.5-.53-.5.07 0-.22.1-.86.3.04.2.3.5.75.8zm-6 15.8c1.1 2.9 2.1 4.4 3.07 4.4.13 0 .6-.4 1.4-1.1.9-.8 1.43-1.3 1.6-1.4-4.3-1.9-6.42-5.4-6.42-10.6 0-.5.2-1.3.54-2.3.32-1 .5-1.8.5-2.3 0-.2-.06-.3-.2-.5-.47.4-.86 1.2-1.18 2.3l-.65 2.6v3c0 1.3.48 3.2 1.4 5.8zM31 36.9l.42-1.83c.2-.86.5-1.3.97-1.3 1.1 0 2.9 1.62 5.2 4.86.4-.04 1-.2 1.7-.53-2.9-4.16-5.5-6.24-7.8-6.24-.3 0-.6.4-.8 1.1-.2.5-.2 1-.2 1.5 0 1.1.1 2 .4 2.5zm7.1 10.94c.3-.5.47-1.2.47-2.1 0-1.28-.35-2-1.06-2.2l-2.7-.7c0 1.2 1.1 2.85 3.4 4.93zm-2.36-9.5c.1 0 .18 0 .24-.1-.35-.9-.75-1.4-1.2-1.6l-.34.67c.42.7.85 1 1.3 1zm-2.78 13.7c.57 2.3 1.18 3.4 1.82 3.4.22 0 .42-.1.58-.28-1.6-3.66-2.72-6.2-3.36-7.6l.9 4.37zm-.65 13.6c1-3.6 1.4-5.7 1.4-6.2 0-.8-.4-2.8-1.2-6.1-.8-3.7-1.2-6.8-1.2-9.1 0-3.1.7-6.3 1.9-9.5-.8.8-1.4 2-1.8 3.6-.2.9-.4 2.27-.5 4.1-.2 1.57-.2 2.3-.2 2.16l.1 12.63c0 .25 0 .66.1 1.22.1.54.1.95.1 1.2 0 6.14-.2 10.16-.5 12.05.3-.57 1-2.6 1.9-6.17zm-2.5-38.1c.2-.1.5-.2.8-.2 1.1 0 1.8.3 2 .84l.4 2.3-2.6-.3h-.1c-.2-.84-.4-1.43-.4-1.75v-.96zm1.8 1.9l.3-.2-.1-.68c0-.26-.3-.4-.8-.44-.1.06-.2.2-.2.4 0 .3.3.6.9.86zM29.4 203c0 .5.04 1.33.22 2.45s.26 1.92.26 2.4l-.3 20.4c0 1.38.1 4.2.4 8.45.03.48-.03 1.2-.2 2.16-.22 1.03-.34 1.77-.34 2.2 0 2.16.66 3.25 1.97 3.25.3 0 .7 0 1.3-.2l1.2-.3c-.5 1.4-.7 2.3-.7 2.8 0 1 .9 1.5 2.8 1.5.7 0 1.8-.1 3.1-.2s2.4-.2 3.1-.2c1.4 0 3.4.1 6.1.1 2.6.1 4.6.1 5.9.1 1.2 0 3 0 5.4-.2 2.4-.1 4.2-.2 5.4-.2l10.7.4c0-.5-.2-.9-.6-1.4-.4-.4-.9-.7-1.4-.9-1.1-.3-3.1-.9-6.2-1.7-3.3-.9-5.3-1.3-5.8-1.3-.8 0-1.6.1-2.5.3-.3-1.1-1.1-1.8-2.5-2 0-.4-.3-.8-.8-1.2-.4-.3-.7-.7-1.1-1-.5-.5-1.1-1.2-1.6-2.1-.6-1-1.1-1.7-1.7-2-.6-.5-1.4-.8-2.3-.8-1.1 0-2.4.2-3.9.5-.4-.8-.9-1.4-1.5-1.7l.4-1.9c.2-.8.3-1.5.3-2 0-1.2-.4-2.2-1.4-3.1-.2-.2-1.2-.9-2.8-1.9-.5-.4-1.1-.9-1.7-1.6-.6-.7-1.1-1.2-1.5-1.4-.2-1.2-.6-1.8-1.3-1.8-.5 0-.9-.1-1-.3.2-.6.3-1.3.3-1.9 0-1.1-.2-2.2-.7-3.6l-1.2-3.4c-.4-1.9-.6-3.2-.7-4.2-.1-.5-.4-1.1-.9-1.8-.5-.8-1-1.2-1.4-1.2-.2 0-.4.1-.5.2v.8zm7.44 41.33c2.94 1.38 6.4 2.06 10.5 2.06 1.8 0 4.3-.5 7.5-1.5 3.22-1 5.43-1.5 6.65-1.5.7 0 1.7.2 3.1.7 1.8.6 2.9 1 3.1 1l3.5.7c1.6.3 2.7.6 3.1 1h-1.2c-.1 0-.2-.1-.3-.1-.1-.1-.2-.1-.2-.1H70c-.2 0-.5-.1-.9-.1-.4-.1-.68-.1-.88-.1h-7.44c-.38 0-.97 0-1.77.1-.8 0-1.3.1-1.7.1-.2 0-.4 0-.8.1-.3 0-.6.1-.8.1h-3.9c-.1 0-.4 0-.7.1s-.6.1-.7.1c-4.1-.2-6.5-.3-7-.4-2.2-.2-4.4-.8-6.6-1.8l.3-.6zm16.05-.6l4-1.9c.6 0 .9.23.9.68 0 .8-1.5 1.6-4.6 2.3-2.3.6-4.2 1-5.7 1.1.8-.1 2.5-.9 5.2-2.1zm-15.2-.22c1.6.7 3.4 1 5.3 1 4.9 0 8.2-2 9.8-6l2.6 2.6c0 1.2-1.6 2.4-4.7 3.4-2.7.9-4.8 1.4-6.4 1.4-1.1 0-2.4-.1-3.8-.5-1.6-.3-2.7-.8-3.5-1.3.1-.2.2-.3.5-.3zm10.8-9.2c1 0 1.9.4 2.6 1.1.7.7 1.1 1.6 1.1 2.6 0 1.5-1 2.9-3 4.3 1.3-1.3 1.9-2.8 1.9-4.6 0-.8-.3-1.5-.9-2-.6-.5-1.3-.8-2.1-.8-.3 0-.8.1-1.5.2s-1.1.2-1.5.2c.9-.5 1.9-.8 3.1-.8zm-.5 1c.8 0 1.4.2 1.9.5.7.4 1 1 1 1.7 0 .1-.1.3-.3.8-1.8-.2-2.8-.4-2.9-.4-.2 0-.4.1-.6.1-.3.1-.5.1-.7.1-.6 0-.8-.2-.8-.6 0-.6-.1-1.1-.2-1.4 1-.4 1.8-.6 2.6-.6zm-2.2 4.9c.2-.9 1-1.3 2.2-1.3.3 0 .9.2 1.8.4 0 1.1-.6 2-1.7 2.8-1.1.9-2.2 1.4-3.2 1.4.3-.5.6-1.5 1-3.2zm-7.3-7.5h1.1c1.7 0 3 .6 4 1.7s1.5 2.5 1.5 4.2c0 .7-.2 1.7-.6 3-.4 1.6-.9 2.4-1.3 2.4h-.4c-.1-.5 0-.9.2-1 .2-1.2.3-2 .3-2.2 0-1.8-.8-3.4-2.4-4.7-1.5-1.1-3.2-1.7-5.1-1.7-.2 0-.5.1-.9.2s-.7.1-.8.1l-.1-.5c2.5-.7 4-1.1 4.5-1.1zm-1.7-6c1.1-.9 2.1-1.4 3.1-1.4s1.8.4 2.4 1.2c.6.8.8 1.7.8 2.8 0 1.4-.3 2.3-.8 2.9.4-1.5.6-2.5.6-3 0-.8-.3-1.5-.9-2.2-.7-.6-1.4-.9-2.2-.9-1.6 0-3.3 1.3-5.2 3.7.3-1 1-1.9 2-2.9zm-1.4 8.2c.6-.2 1-.3 1.3-.3 1.4 0 2.8.7 4.1 1.9 1.3 1.3 2 2.6 2 4 0 1.6-.3 2.8-1 3.5h-1c.4-1.7.7-2.8.7-3.2 0-1.3-.4-2.4-1.2-3.3-.8-.9-1.9-1.4-3.2-1.4-.5 0-1.4.2-2.8.6-.3 0-.4-.1-.4-.3v-.9c.3 0 .7-.1 1.3-.3zm4.6-8.3c.6 0 1.2.3 1.7.8s.7 1.1.7 1.8c0 .4-.1 1-.4 1.8-.3.9-.5 1.4-.7 1.4l-2-.3c0-.3 0-.7.1-1.3 0-.6.1-1 .1-1.3 0-.4-.2-1.3-.7-2.4.3-.1.6-.2.9-.2zM36.6 242c1.5-1.9 2.7-3.07 3.65-3.5.4.6.6 1.04.6 1.36 0 .13-.8.9-2.48 2.3-1.68 1.35-2.5 2.4-2.5 3 0 .44.44.8 1.3 1.1.6.2 1.23.4 1.9.57-1.1.3-1.98.45-2.6.45H35c-.54-.13-.8-.45-.8-.96 0-.9.8-2.33 2.4-4.3zm2.8.25c.48-.34.84-.55 1.1-.6v.6c0 .17-.14.4-.4.74-.25.3-.44.4-.57.4.07 0-.2-.1-.86-.4.03-.2.3-.5.74-.8zm-5.96-15.8c1.05-2.95 2.06-4.44 3-4.44.14 0 .6.4 1.4 1.1.9.8 1.44 1.3 1.6 1.4-4.25 1.9-6.4 5.5-6.4 10.6 0 .5.2 1.3.53 2.3.36 1 .54 1.8.54 2.3 0 .2 0 .4-.2.6-.4-.4-.8-1.1-1.1-2.3-.2-.9-.4-1.7-.7-2.6v-3c0-1.3.5-3.2 1.4-5.8zM31 238.5l.43 1.8c.2.87.5 1.3.92 1.3 1.12 0 2.9-1.6 5.25-4.85.44.03 1 .2 1.7.53-2.9 4.17-5.5 6.25-7.8 6.25-.3 0-.6-.4-.8-1.1-.12-.54-.2-1-.2-1.5 0-1.1.18-1.95.5-2.46zm7.1-10.96c.3.4.5 1.1.5 2 0 1.27-.35 2-1.06 2.2l-2.73.7c0-1.2 1.1-2.85 3.4-4.93zM35.8 237h.2c-.38.9-.78 1.4-1.2 1.6l-.37-.7c.42-.62.85-.94 1.3-.94zM33 223.2c.56-2.3 1.17-3.5 1.8-3.5.2 0 .4.1.58.24L32 227.6c.3-1.46.62-2.9.94-4.4zm-.66-13.67c1 3.57 1.4 5.63 1.4 6.2 0 .75-.4 2.78-1.2 6.1-.8 3.7-1.22 6.76-1.22 9.13 0 3.07.64 6.2 1.92 9.4-.84-.8-1.44-2-1.8-3.6-.22-.9-.4-2.25-.57-4.08-.14-1.57-.2-2.3-.2-2.17l.1-12.6c0-.2.03-.6.1-1.2.1-.5.1-.9.08-1.2-.04-6.1-.2-10.1-.46-12 .3.6.9 2.6 1.9 6.2zm-2.5 38.13c.2.1.5.14.8.14 1.1 0 1.8-.28 2-.86l.4-2.3-2.6.3h-.13c-.2.84-.4 1.43-.4 1.75v.9zm1.8-1.9l.3.13-.14.7c-.06.2-.35.4-.86.4-.17-.1-.25-.2-.25-.4 0-.3.3-.6.9-.9z"/>
        <path d="M43.55 48.98c0 1.8.13 3.27.4 4.37 0 .12.13.47.36 1.07.2.46.3.8.3 1.03 0 .04-.1.23-.2.6l-.2.6c-.3.87-.4 1.8-.4 2.78 0 1.53.5 2.77 1.4 3.72 1 .95 2.2 1.42 3.7 1.42.8 0 1.7-.2 2.7-.62 1-.4 1.4-.62 1.4-.62-.1 0 .4.2 1.5.57 1.3.45 2.4.67 3.4.67s1.9-.15 2.7-.44l.7-.3c.4-.15.6-.22.7-.22.1 0 .4.2 1.1.4.7.3 1.3.4 1.9.4.9 0 1.6-.4 2.1-1.3.4-.7.6-1.5.6-2.5 0-.2-.1-.6-.1-1-.1-.4-.2-.8-.2-1 0-.2.1-.5.1-.8.1-.4.2-.6.2-.8 0-.7-.2-1.5-.5-2.4-.2-.5-.6-1.1-1-1.8-.3-.5-.5-.9-.5-.9 0-.1.1-.3.2-.7.2-.4.3-.6.3-.7l.9-.6c.4-.3.6-.7.6-1.2 0-1.1-.3-1.7-.8-1.7l-.7.2c-.4.1-.7.2-.9.2-.5 0-1.1-.1-1.8-.3-.7-.2-1.3-.4-1.7-.7.1 0 .5.1 1.2.2.4.1.8.1 1.1.1 1 0 1.8-.2 2.5-.6.8-.5 1.2-1.2 1.2-2.1 0-1.6-.8-2.3-2.5-2.3-.6 0-1.5.1-2.6.3s-2.1.4-2.7.4c-.7 0-1.8-.1-3.3-.3-1.5-.2-2.6-.3-3.3-.3-.2 0-.6 0-1.1.1-.5.1-.8.1-1.1.1-.3 0-.8 0-1.5-.1s-1.2-.1-1.6-.1c-2.6 0-3.9.9-3.9 2.8 0 .2.1.7.4 1.4 0 .2 0 .4-.1.7-.1.4-.1.6-.1.6-.1.7-.1 1.5-.1 2.6zm.64 10.48c0-1.2.2-2.27.6-3.24.1.1.2.2.2.27l-.2.5c-.2.3-.2.5-.2.6-.1.3-.2.7-.2 1.2 0 1 .2 1.9.7 2.5.5.7 1.3 1.1 2.3 1.1 1.7 0 3.2-.9 4.3-2.7 1-1.6 1.6-3.3 1.6-5.1 0-1.8-.4-3.5-1.1-5-.7-1.4-1.7-2.8-3-4.3 0-.2.1-.3.3-.3.8 0 1.8 1.2 3.1 3.7 1 2.1 1.7 3.7 1.9 4.8.2.7.2 1.4.2 1.9 0 2.1-.5 3.9-1.4 5.4-1.1 1.8-2.7 2.7-4.7 2.7-.1 0-.1 0-.2-.1H48c-1.2 0-2.1-.5-2.9-1.3-.78-.9-1.1-2-1.1-3.2zm0-10.1c0-2.05.1-3.3.5-3.74.5-.07.7.22.7.87 0 .1-.1.4-.2.7l-.2.8c-.2.8-.2 1.8-.2 2.9 0 3.7 1.6 6.9 4.8 9.6-.1.1-.2.1-.3.1-.2 0-.8-.6-1.7-1.7-.8-1-1.4-1.7-1.6-2.1-1.3-1.9-2-4.5-2-7.7zm.1-5.84c.2-.3.7-.44 1.2-.44.7 0 1.2.14 1.6.44-.1.12-.3.23-.4.35-.8-.32-1.4-.47-1.8-.47.1 0-.2.04-.7.12zm.1.8c0-.3.1-.45.4-.45.2 0 .3.12.3.37 0 .28-.2.42-.4.42-.3 0-.4-.12-.4-.35zm.2 14.42c0-.23 0-.56.1-1 .1-.48.2-.78.3-.88l.7 1.1c0 .05-.1.23-.2.56-.2.33-.2.56-.2.7-.1.33-.1.66-.1.95 0 .15.1.5.2 1.06-.3-.2-.6-.57-.8-1.13-.2-.48-.3-.93-.3-1.36zm.2-16.5c.4-.47 1.4-.7 2.9-.7.1 0 .7.1 1.6.3-.3.15-.5.22-.6.22.1 0-.1-.04-.6-.12-.3-.05-.7-.07-1.2-.07-.9 0-1.7.12-2.3.37zm.3 9.95v-1.8c0-2.3.6-4.3 1.8-6 1.3-1.9 3.1-2.8 5.3-2.8h2c-2.6.4-4.6 1.6-6.1 3.6-1.4 1.9-2.1 4.1-2.1 6.8 0 1 .2 2.2.6 3.4.4 1.2.9 2.2 1.5 3.1v.2c-.8-.6-1.5-1.7-2.2-3.1-.7-1.5-1.1-2.7-1.1-3.7zm0-9.6c.4-.2.7-.2 1-.2.6 0 1.2.1 1.6.3-.1 0-.1 0-.2.1s-.2.1-.2.1c-.2 0-.6-.1-1-.2-.5-.2-.8-.2-1.1-.2H45zm.2 2.3c.2-.5.3-.7.4-.7l.4.2c-.2.3-.3.6-.6.9-.2-.1-.3-.3-.4-.5zm.3 15c0-.9.1-1.5.5-1.7.3.4.5.7.5.7 0 .1-.1.3-.2.6-.1.2-.2.4-.2.5 0 .2.1.5.2.8.1.3.3.5.5.5-.9 0-1.3-.6-1.3-1.8zm0 1.7c.5.2.8.3.9.3h.5c1.5 0 2.9-.9 4.2-2.4 1.2-1.6 1.8-3.1 1.8-4.8 0-.3 0-.5-.1-.7v.6c0 1.8-.5 3.5-1.6 5-1.1 1.6-2.6 2.5-4.4 2.5-.2 0-.4-.1-.8-.2-.4-.2-.6-.3-.7-.5zm.8-9.5c0-3 .8-5.4 2.3-7.2 1.7-2.1 4-3.1 6.8-3.1h.4c-2.8 0-5 .9-6.7 2.9-1.7 1.9-2.6 4.2-2.6 7 0 2 .4 3.9 1.2 5.7-1.1-1.8-1.6-3.6-1.6-5.5zm.4 8.3c0-.5.1-.7.4-.7.1 0 .3.1.6.4l.6.6v.3c-.3.2-.5.2-.6.2h-.3c-.3 0-.5-.1-.7-.3-.2-.2-.3-.4-.3-.7zM47 52c0-.6.03-1.3.15-2 .2-1.1.42-1.6.7-1.6.23 0 .4.1.57.2.2.1.24.3.24.6 0 .1-.15.6-.45 1.5s-.4 1.5-.4 1.9c0 1.1.2 2.3.6 3.4 0 .1.2.38.4.86l.4.77c0 .1-.2.24-.5.4-.5-.7-1-1.7-1.3-2.94-.3-1.1-.4-2.2-.4-3.3zm.02-9.8l.45-.1c.2 0 .5 0 .87.1-.17.1-.3.2-.4.2l-.45-.1-.5-.2zm.9 15.4h.1l.02.1H48l-.05-.2zm.1.2h.1l.1.2h-.06l-.14-.3zm.12-10.2c-.05-.5.1-.7.4-.7.52 0 1.1.9 1.6 2.7.48 1.57.7 2.76.7 3.57 0 .6-.1 1.27-.3 2.02-.24 1-.6 1.5-1 1.5-.3 0-.44-.2-.44-.5 0-.2.25-.6.75-1.2s.75-1.2.75-1.7c0-.7-.2-1.1-.5-1.4-.17-.1-.5-.3-1-.4-.37-.1-.55-.3-.55-.5 0-.1.13-.4.4-.9s.4-.9.4-1.2c0-.3-.14-.6-.42-.8-.3-.3-.58-.5-.86-.6v-.2zm.13 5.9c0-.5.2-.8.54-.8h.2c.2 0 .3.1.3.3 0 .1-.1.4-.3.6l-.5.5v-.7zm.12-1.1c.1-.2.3-.2.6-.2.6 0 .9.2.9.8 0 .3-.2.6-.5 1l-.8.9-.1-.4.6-.8c.3-.4.4-.67.4-.78 0-.27-.1-.4-.4-.47-.2-.05-.5-.08-.7-.1zm.2 6.5c0-.2.2-.5.7-.9.6-.5 1-1 1.3-1.6.4-.82.7-1.87.7-3.14 0-2.76-1-5.2-2.8-7.35l.3-.3c.9.7 1.7 1.9 2.5 3.6.7 1.6 1.1 3 1.1 4.2V55c0 .86-.3 1.8-.9 2.76-.7 1.1-1.4 1.64-2.2 1.64-.6 0-.9-.2-.9-.54zm.1-3.3v-.4c0-.2.3-.66 1.1-1.34-.3.37-.6.94-1.1 1.72zm.5 4.3c.2 0 .4-.08.7-.2l.7-.3c-.3.27-.6.55-1 .83l-.4-.34zm.7-15.1c2.2 1.2 4.1 2.8 5.9 4.74.7.84 1.1 1.4 1.1 1.7 0 .3-.3.62-.7 1-1.5-3.13-3.6-5.6-6.3-7.44zm.3-.47l.3-.2c.2 0 1 .43 2.3 1.28 1.2.8 2 1.4 2.3 1.7 1.7 1.6 3.2 3.5 4.5 5.7 1.4 2.6 2.2 4.9 2.2 6.9 0 1.2-.4 2-1.3 2.7-.8.6-1.7.9-2.9.9-.6 0-1.5-.3-2.8-.8.2-.1.3-.1.3-.1.1 0 .4.1.9.3.5.2 1.1.3 1.6.3.8 0 1.5-.2 2.2-.8.6-.5.9-1.1.9-1.9v-1.4c0-.1-.1-.2-.2-.3l-.3.4c-.2.2-.3.3-.5.3-.4 0-.6-.1-.6-.5.2-.4.4-1 .4-1.7 0-1.2-.4-2.4-1-3.7-.3-.6-1-1.6-2.1-3.2-.7-.9-1.7-1.9-3.1-3-.7-.5-1.9-1.4-3.6-2.5zm.7-.4c2.6 1.1 5.2 3 7.6 5.73 2.6 3 4 5.8 4 8.43 0 1-.2 1.8-.4 2.2v-1.1c0-.7-.1-1.3-.3-2-.7-2.7-2.1-5.3-4.2-7.8-2.1-2.6-4.4-4.4-6.9-5.5zm.4-.32c.1 0 .2-.1.3-.1.3 0 1 .3 2.1 1 .9.6 1.6 1 2.1 1.4 2.4 1.8 4.7 4.1 6.7 6.7 2.5 3.3 3.7 6.1 3.7 8.4 0 .5-.1 1.1-.4 1.6-.3.6-.6 1-1.1 1.1.5-.4.7-.9.7-1.6 0-.5-.8-2.1-2.2-4.8-1.1-2.1-2.1-3.8-2.9-5.1-1-1.6-2.3-3.1-4.2-4.7-1.7-1.5-3.4-2.7-5.2-3.7zm.5 3.3c1.4 1.5 2.5 3.2 3.4 5.1.9 2 1.3 4 1.3 6 0 .7-.2 1.5-.4 2.4-.4 1-.9 1.6-1.4 1.6-.1 0-.2-.1-.4-.2-.1-.1-.2-.2-.2-.3 0-.2.2-.8.7-1.9s.6-1.9.6-2.1V56c-.3-3.3-1.5-6.32-3.6-9.04zm.1-3.6c.2-.1.3-.2.4-.2.8 0 2.1.5 3.7 1.5 2.3 1.3 4.4 3.1 6.4 5.2 2.5 2.7 3.8 5 3.8 7l-.1.4c-1.2-2.9-3.2-5.7-5.9-8.4-2.8-2.8-5.7-4.7-8.5-5.5zm.6 8.6v.4h-.1l-.1-.3zm.1.7h.1l.2 1.3-.3-1.2zm0 10c.3-.4.5-.7.6-.7-.1 0 .4.3 1.5.8 1.1.6 2 .8 2.7.8h.6c1.2 0 2.3-.5 3.1-1.4.8-.9 1.3-2 1.4-3.2v.3c0 1.4-.6 2.7-1.7 3.6-1.1.9-2.3 1.4-3.8 1.4-.7 0-1.5-.1-2.5-.4-1.2-.3-1.9-.7-2.2-1.1zm0-19.5c.1-.1.2-.1.3-.1.7 0 2.5.7 5.6 2.3 3 1.5 5 2.3 5.9 2.3.1 0 .4-.1.7-.2.3-.1.5-.1.6-.1.2 0 .3.3.3.8 0 .3-.2.7-.4 1-.3.3-.6.5-.9.5-.1 0-1.9-1-5.4-3.1-3.6-2.1-6-3.2-7-3.4zm1.1 18.2c.5-.9.9-2.2 1.2-3.9v.8c0 .4-.2.9-.5 1.8s-.6 1.3-.8 1.4zm.3-18.6c.2 0 .5-.1.7-.1 1.1 0 2.7.4 4.9 1.2 2.2.8 3.8 1.2 5 1.2.5 0 1-.1 1.5-.3-.2.3-.6.5-1.1.7-.5.2-1 .3-1.3.3-1.2 0-2.8-.4-4.9-1.2l-4.9-1.8zm1.1 14.5V57v.27H55zm.4-14.7c.7 0 1.1-.1 1.3-.1 1 0 2.3.4 4 1.1 1.7.7 2.9 1.1 3.6 1.1.5 0 .9-.1 1.3-.4.4-.3.6-.6.6-1.1 0-.1 0-.2-.1-.3l.2.7c0 .5-.3.8-.9 1.1-.5.2-1 .3-1.5.3-.7 0-1.5-.1-2.4-.4l-2.2-.7c-1.2-.4-2.6-.8-4.2-1.1zm.6 19.5c.5-1.1.9-2.4.9-3.8.1.3.5 1 1.2 2.1l1 1.7c0 .4-.5.6-1.4.6h-.7l-1.2-.4zm.4-8c0-1.1.3-1.7 1-1.8.7 1 1.1 1.6 1.1 1.8l-.3.7c-.2.5-.3 1-.3 1.4 0 1 .2 2 .6 3 .2.5.6 1.4 1.4 2.8-.4-.2-.9-.8-1.6-1.9-1.3-2.1-2-4.1-2-5.8zm1.8 2c0-.9.2-1.5.5-1.7v.3c0 .2-.1.4-.1.7-.1.3-.1.5-.1.7 0 .3 0 .7.2 1.2.2.6.2.9.2 1.1 0 .1 0 .2-.1.3-.1.2-.1.2-.1.3 0 .2.3.6.8 1 .5.5.8.8.8 1.1 0 .3-.2.5-.4.7-1.3-1.9-1.9-3.7-1.9-5.4zm.7-.3v-.6c.1.2.1.5.2 1 .1.4.1.8.1 1 0 .2 0 .3-.1.5-.3-.9-.4-1.5-.4-1.9zm.3-13.1c.4 0 1.6-.3 3.8-.8.6-.1 1-.2 1.2-.2.1 0 .4 0 .7.1.3.1.5.2.6.3-.5-.1-.8-.1-.8-.1-.5 0-1.1.2-1.9.6-.9.4-1.5.7-1.8.7l-1.9-.7zm.2 4.1l4.9 3.1c.3.3.5.4.5.5 0 .2-.1.4-.2.6-.2.2-.3.3-.5.3-.1 0-.8-.7-2.2-2l-2.5-2.4zm.8 12.9c.2-.1.3-.2.4-.2v.9c-.2 0-.3-.2-.5-.6zm1.2-16.1l1.6-.8c.6-.3 1.2-.5 1.6-.5.3 0 .6.1.9.4.3.2.4.5.4.7 0 .1-.1.2-.1.3-.2-.6-.6-.9-1.2-.9-.4 0-.8.2-1.4.6-.6.4-1 .6-1.3.6-.2 0-.4-.1-.7-.2zm.1 19.6l.7-.9c.1 0 .4.1.7.2.3.1.5.2.7.2.5 0 1-.1 1.4-.5v.5c0 .3-.2.6-.5 1s-.7.5-1 .5c-.3 0-.7-.1-1.1-.2-.6-.2-.9-.4-1-.6zm.9-1.3l.2-.6c.5.2.8.3 1 .3.3 0 .5-.1.7-.2.3-.2.5-.3.6-.3.1.3.2.4.2.5 0 .3-.1.5-.4.6-.3.2-.5.3-.8.3-.3 0-.7-.1-1.3-.4zm.5-1.3v-1.1c.1-.4.1-.8 0-1 .2.3.4.7.6 1 .3.4.4.8.4 1 0 .2-.1.3-.2.4s-.2.2-.4.2c-.1 0-.2 0-.4-.1s-.2-.2-.2-.2zm.2-16.4l.7-.5c.3-.2.5-.2.8-.2.3 0 .5.1.5.4 0 .4-.4.5-1.2.5-.3 0-.6 0-.9-.1zm88.6 5.1c0 1.8-.2 3.3-.4 4.4 0 .1-.2.5-.4 1.1-.2.5-.3.8-.3 1.1 0 .1.1.3.3.6l.3.6c.3.9.4 1.8.4 2.8 0 1.6-.5 2.8-1.4 3.8-1 1-2.2 1.4-3.7 1.4-.8 0-1.7-.2-2.7-.6-1-.4-1.4-.6-1.4-.6.1 0-.4.2-1.5.6-1.3.5-2.4.7-3.4.7s-1.9-.1-2.7-.4l-.7-.3c-.4-.1-.6-.2-.7-.2-.1 0-.4.1-1.1.4-.7.2-1.3.4-1.9.4-.9 0-1.6-.5-2.1-1.4-.4-.7-.6-1.6-.6-2.6 0-.2 0-.6.1-1 0-.4.1-.8.1-1 0-.2-.1-.4-.1-.8s-.1-.6-.1-.8c0-.7.1-1.5.5-2.4.2-.5.5-1.1 1-1.8.3-.6.5-.9.5-1 0-.1-.1-.3-.3-.7l-.4-.7-.9-.6c-.4-.3-.6-.7-.6-1.2 0-1.2.2-1.7.7-1.7l.7.2c.4.1.7.2.9.2.5 0 1.1-.1 1.8-.3.7-.2 1.3-.5 1.7-.8-.1 0-.5.1-1.2.2-.5.1-.8.1-1.2.1-1 0-1.8-.2-2.4-.6-.7-.5-1.1-1.2-1.1-2.1 0-1.6.8-2.3 2.5-2.3.6 0 1.5.1 2.6.3 1.2.2 2.1.3 2.7.3.7 0 1.8-.1 3.3-.3 1.4-.2 2.5-.3 3.2-.3h1.1c.5.1.8.1 1.1.1.4 0 .9 0 1.6-.1.7-.1 1.2-.2 1.6-.2 2.6 0 3.9 1 3.9 2.8 0 .3-.1.7-.4 1.4 0 .1.1.4.1.6.1.4.2.6.2.6.1.7.1 1.5.1 2.6zm-.7 10.5c0-1.2-.2-2.3-.7-3.2-.2.1-.2.2-.2.3l.2.5.2.6c0 .4.1.8.1 1.3 0 1.1-.3 2-.7 2.6-.6.8-1.4 1.1-2.4 1.1-1.8 0-3.2-.9-4.4-2.6-1.1-1.5-1.6-3.2-1.6-5.1 0-1.8.4-3.4 1.1-5 .6-1.3 1.6-2.7 3-4.2-.1-.2-.1-.3-.3-.3-.8 0-1.8 1.2-3.1 3.7-1.1 2.1-1.7 3.7-2 4.9-.2.8-.3 1.5-.3 2 0 2.1.4 4 1.4 5.5 1.1 1.8 2.7 2.7 4.7 2.7h.4s.1 0 .1.1h.2c1.1 0 2.1-.4 2.8-1.3.8-.9 1.1-2 1.1-3.2zm0-10.1c0-2-.2-3.3-.6-3.7-.5 0-.8.3-.8.9 0 .2 0 .4.1.8.1.5.2.7.2.8.1.9.2 1.8.2 2.9 0 3.8-1.6 7-4.8 9.6.1.1.1.2.2.2.2 0 .8-.5 1.7-1.6.8-.9 1.3-1.6 1.6-2.1 1.3-1.9 1.9-4.5 1.9-7.6zm-.2-5.8c-.3-.3-.7-.4-1.3-.4-.8 0-1.3.2-1.6.5.1.1.2.2.4.3.8-.3 1.4-.4 1.8-.4-.1 0 .1.1.6.2zm-.2.8c0-.3-.2-.4-.4-.4s-.4.1-.4.4.1.4.4.4.4-.1.4-.3zm-.3 14.4c0-.2-.1-.5-.2-1-.1-.4-.3-.7-.4-.8l-.8 1.1c0 .1 0 .2.2.6.1.4.2.6.2.7 0 .4.1.7.1 1 0 .2-.1.5-.3 1.1.3-.2.6-.5.7-1.1.2-.5.3-.9.3-1.4zm-.2-16.5c-.5-.4-1.5-.7-3-.7-.2 0-.7.1-1.6.3.2.2.4.3.5.3-.1 0 .1 0 .6-.1.2 0 .6-.1 1.2-.1.8 0 1.6.1 2.2.4zm-.4 10v-1.8c0-2.3-.6-4.3-1.8-6-1.4-1.8-3.1-2.8-5.3-2.8h-2c2.5.4 4.6 1.6 6 3.6 1.3 1.9 2 4.2 2 6.9 0 1.1-.3 2.2-.7 3.5-.4 1.2-.9 2.2-1.6 3.2v.3c.8-.6 1.5-1.6 2.2-3.1.7-1.4 1-2.6 1-3.6zm0-9.6c-.4-.1-.7-.2-1-.2-.7 0-1.3.1-1.7.3l.2.2c0 .1.1.2.2.2.2 0 .5-.1 1-.2.4-.1.8-.2 1-.2h.2zm-.2 2.3c-.2-.5-.4-.7-.5-.7l-.5.2c.1.3.3.6.5.9l.3-.4zm-.3 15c0-.9-.2-1.4-.5-1.7-.4.5-.6.7-.6.8 0 .2 0 .4.2.6.1.3.1.5.1.6 0 .3-.1.6-.2.9-.2.3-.3.5-.6.6l.2.1c.8.1 1.2-.5 1.2-1.7zm0 1.7c-.5.2-.8.3-.9.3h-.5c-1.5 0-2.9-.8-4.2-2.4-1.2-1.5-1.8-3.1-1.8-4.7v-.6l-.1.3v.3c0 1.9.5 3.5 1.5 5 1.1 1.7 2.6 2.5 4.4 2.5.2 0 .5-.1.9-.2s.6-.3.7-.4zm-.8-9.5c0-2.9-.8-5.3-2.4-7.2-1.7-2-4-3-6.8-3h-.4c2.7 0 4.9 1 6.7 2.9 1.7 1.9 2.5 4.2 2.5 7 0 2-.4 3.9-1.2 5.8 1-1.7 1.5-3.6 1.5-5.5zm-.4 8.3c0-.5-.2-.7-.4-.7s-.4.2-.7.5c-.4.4-.6.6-.7.6v.3c.3.2.5.3.6.3h.2c.2 0 .4-.1.6-.3.2-.2.3-.4.3-.7zm-.3-8.4c0-.6-.1-1.2-.2-2-.2-1.1-.4-1.6-.7-1.6-.2 0-.4.1-.5.3-.2.2-.2.4-.2.6 0 .1.1.6.4 1.6.3.9.4 1.6.4 2 0 1.1-.2 2.3-.6 3.4l-.5.8-.4.8c0 .1.2.3.5.4.5-.7 1-1.7 1.3-2.9.3-1.1.4-2.2.4-3.3zm-.1-9.8l-.5-.1c-.2 0-.5.1-.8.2.2.2.3.3.4.3 0 0 .2 0 .4-.1l.4-.1zm-.9 15.4v.2h.1v-.2zm-.1.2l-.2.3h.1l.1-.3zm-.1-10.1c0-.4-.1-.6-.4-.6-.6 0-1.1.9-1.6 2.8-.5 1.6-.7 2.8-.7 3.6 0 .6.1 1.3.2 2 .2 1 .6 1.5 1 1.5.3 0 .4-.1.4-.5 0-.1-.3-.5-.8-1.1-.5-.6-.7-1.2-.7-1.7 0-.6.2-1.1.5-1.4.1-.1.5-.3 1-.4.3-.1.5-.2.5-.5 0-.1-.1-.4-.4-.8-.3-.4-.4-.8-.4-1.1 0-.3.1-.6.4-.8.3-.3.6-.5.8-.6V48zm-.2 5.9c0-.5-.2-.7-.6-.7h-.1c-.2 0-.2.1-.2.3 0 .1.1.3.3.6.2.2.3.4.5.5v-.7zm-.2-1c-.1-.2-.3-.2-.6-.2-.6 0-.9.3-.9.8 0 .3.2.7.5 1.1l.9.9.1-.4-.6-.8c-.2-.4-.4-.6-.4-.7 0-.3.2-.4.4-.5.2 0 .5-.1.7-.1zm-.3 6.5c0-.2-.2-.5-.7-.9-.6-.5-1-1-1.3-1.5-.5-.8-.7-1.9-.7-3.1 0-2.7.9-5.2 2.7-7.3l-.3-.2c-.9.6-1.8 1.8-2.5 3.5-.7 1.6-1.1 3-1.1 4.2v1.6c0 .9.3 1.8.9 2.8.7 1.1 1.4 1.7 2.2 1.7.6 0 .9-.2.9-.5zm-.1-3.2v-.4c0-.2-.3-.6-1.1-1.3l1.1 1.8zm-.5 4.3c-.2 0-.4 0-.7-.2l-.7-.3c.3.3.6.6 1 .9l.5-.4zm-.4-15.3c-2.2 1.2-4.1 2.8-5.8 4.8-.7.9-1.1 1.4-1.1 1.7 0 .3.3.7.8 1 1.5-3.1 3.5-5.6 6.3-7.4zm-.3-.4l-.3-.2c-.3 0-1.1.4-2.4 1.3-1.2.8-2 1.4-2.3 1.7-1.7 1.6-3.2 3.5-4.5 5.7-1.5 2.6-2.2 4.9-2.2 6.9 0 1.1.4 2 1.3 2.6.8.6 1.7.9 2.9.9.5 0 1.4-.3 2.8-.8-.2-.1-.4-.1-.4-.1s-.4.1-.9.3c-.6.2-1.1.3-1.6.3-.8 0-1.6-.2-2.2-.7-.7-.5-1-1.1-1-1.9V59c0-.1.1-.23.2-.33l.4.4c.2.2.3.3.5.3.4 0 .6-.14.7-.5-.2-.4-.4-.96-.4-1.7 0-1.2.4-2.4 1-3.65.3-.6 1-1.67 2.1-3.2.7-.97 1.7-1.97 3-3.05.7-.53 1.9-1.4 3.6-2.53zm-.7-.4c-2.7 1.1-5.2 3-7.6 5.7-2.7 3-4 5.8-4 8.5 0 1.1.1 1.9.4 2.2v-1.1c0-.6 0-1.3.2-1.9.7-2.7 2.1-5.3 4.1-7.8 2.1-2.6 4.3-4.4 6.8-5.5zm-.4-.3c-.1 0-.2-.1-.3-.1-.3 0-1 .3-2.1 1-.9.6-1.6 1-2.1 1.4-2.5 1.8-4.7 4.1-6.8 6.7-2.5 3.3-3.8 6.1-3.8 8.4 0 .5.1 1.1.4 1.6.3.6.7 1 1.1 1.1-.5-.4-.7-.9-.7-1.6 0-.5.8-2.1 2.2-4.8 1.1-2 2.1-3.7 2.9-5 .9-1.5 2.3-3.1 4.2-4.7 1.7-1.5 3.4-2.7 5.2-3.7zm-.5 3.3c-1.4 1.5-2.6 3.2-3.4 5.1-.8 2-1.3 4-1.3 6 0 .8.2 1.6.4 2.4.4 1.1.9 1.6 1.5 1.6.1 0 .2 0 .4-.1s.2-.2.2-.3c0-.1-.2-.8-.6-1.9-.4-1.1-.6-1.8-.6-2v-2c.3-3.3 1.5-6.3 3.6-9zm-.1-3.6l-.4-.2c-.9 0-2.2.5-3.8 1.5-2.3 1.4-4.4 3.1-6.5 5.2-2.5 2.7-3.8 5-3.8 7 0 0 0 .2.1.4 1.2-2.9 3.1-5.7 5.8-8.3 2.8-2.8 5.6-4.7 8.5-5.5zm-.7 8.6h-.1l-.1.3h.1l.1-.4zm-.1.7h-.1l-.2 1.2h.1l.3-1.3zm0 10c-.3-.5-.5-.7-.6-.7.1 0-.5.3-1.6.8s-2 .8-2.7.8h-.6c-1.2 0-2.2-.5-3.1-1.5-.8-.9-1.2-2-1.3-3.2 0 0 0 .1-.1.2l-.1.1c0 1.5.5 2.7 1.6 3.6 1 1 2.3 1.4 3.7 1.4.6 0 1.5-.1 2.5-.4 1.1-.3 1.9-.6 2.2-1zm0-19.6c-.1-.1-.2-.1-.3-.1-.7 0-2.6.8-5.6 2.4-3.1 1.5-5 2.3-6 2.3-.1 0-.4 0-.7-.1-.3-.1-.5-.1-.7-.1-.2 0-.3.2-.3.7 0 .3.1.6.4 1 .2.3.5.5.8.5.1 0 1.9-1 5.4-3.1 3.6-2.1 6-3.2 7-3.4zM141 61.6c-.5-.9-.9-2.2-1.3-3.9v.8c0 .3.2.9.5 1.8.3.8.53 1.3.8 1.4zm-.1-18.4c-.3-.1-.5-.1-.8-.1-1.1 0-2.7.4-4.9 1.2-2.17.8-3.8 1.2-5 1.2-.47 0-1-.1-1.57-.4.2.3.6.5 1.1.7.5.2.94.3 1.3.3 1.1 0 2.74-.4 4.9-1.2l4.9-1.8zm-1 14.5V57h-.1v.28h.1zm-.5-14.7l-1.3-.1c-1 0-2.38.4-4.1 1.1-1.7.8-2.9 1.1-3.6 1.1-.5 0-1-.1-1.4-.4-.4-.2-.6-.6-.6-1.1V43l-.2.7c0 .5.3.8.83 1.1.4.2.9.3 1.43.3.7 0 1.4-.1 2.3-.4l2.2-.7c1.2-.4 2.6-.8 4.2-1.1zm-.7 19.5c-.57-1.1-.9-2.4-.9-3.8-.1.2-.5.9-1.2 2.1l-1.1 1.7c0 .4.5.6 1.4.6h.7l1.1-.4zm-.4-8c0-1.1-.3-1.7-1.06-1.8-.7 1-1.08 1.6-1.08 1.8l.3.7c.2.5.3.9.3 1.4 0 1-.2 2-.7 3-.2.5-.6 1.4-1.3 2.8.4-.2.9-.9 1.6-1.9 1.3-2.1 2-4.1 2-5.8zm-1.6 1.8c0-.9-.2-1.5-.6-1.7v.3c0 .2 0 .4.1.7l.02.66c0 .3-.1.7-.3 1.2-.2.6-.3.9-.3 1.1 0 .1 0 .2.1.3s.1.2.1.3c0 .3-.3.6-.8 1-.6.5-.8.8-.8 1.1 0 .3.1.5.4.7 1.2-1.9 1.9-3.7 1.9-5.4zm-.7-.3s0-.2-.06-.3l-.07-.3c-.1.18-.2.5-.3 1 0 .5-.1.8-.1 1.1 0 .2.1.36.2.5.2-.9.32-1.5.32-1.82zm-.3-13.1c-.4 0-1.7-.2-3.8-.7-.7-.2-1.1-.2-1.2-.2-.2 0-.4 0-.7.1l-.67.28c.47-.1.74-.1.8-.1.5 0 1.1.2 1.86.6.8.4 1.4.7 1.8.8l1.9-.6zm-.2 4.1c-1.16.7-2.8 1.7-4.98 3.2-.3.3-.5.4-.5.5 0 .1.1.3.3.5.1.2.3.2.5.2 0 0 .7-.7 2.2-2l2.5-2.4zm-.8 13l-.5-.2v.9c.1-.1.3-.3.5-.7zm-1.3-16.2c-.5-.3-1-.5-1.5-.8-.64-.3-1.2-.5-1.66-.5-.2 0-.5.1-.8.4-.3.2-.4.5-.4.8 0 .1 0 .2.1.3.2-.6.6-.9 1.2-.9.4 0 .8.2 1.4.6.6.4 1 .6 1.3.6.2 0 .4-.1.7-.2zm0 19.5l-.7-.9c-.2 0-.4.1-.8.2-.3.1-.54.17-.75.17-.5 0-1-.13-1.4-.5v.5c0 .3.2.67.6 1 .4.36.7.5 1.1.5.3 0 .7-.1 1.2-.22.5-.2.9-.37 1-.57zm-.9-1.3l-.3-.6c-.44.2-.75.3-.93.3-.27 0-.5 0-.7-.2-.3-.2-.47-.3-.55-.3-.1.3-.1.4-.1.5 0 .3.14.5.4.6.3.2.55.3.8.3.33 0 .8-.1 1.35-.4zm-.6-1.4l-.06-1.1c-.05-.4-.05-.8 0-1l-.6 1c-.27.4-.4.77-.4 1.06 0 .1.1.23.2.35.1.1.25.2.4.2.03 0 .14 0 .3-.1l.2-.2zm0-16.6l-.77-.5c-.27-.2-.53-.2-.76-.2-.37 0-.55.1-.55.3 0 .4.4.6 1.2.6.22 0 .52 0 .87-.1z"/>
      </g>
    </g>
  </g>
</svg>
