<svg xmlns="http://www.w3.org/2000/svg" version="1" viewBox="0 0 140 190"><path fill-opacity=".5" d="M21 5h103c8.86 0 16 7.14 16 16v153c0 8.86-7.14 16-16 16H21c-8.86 0-16-7.14-16-16V21c0-8.86 7.14-16 16-16z"/><path fill="#e7e7e7" d="M17 1h103c8.86 0 16 7.14 16 16v153c0 8.86-7.14 16-16 16H17c-8.86 0-16-7.14-16-16V17C1 8.14 8.14 1 17 1z"/><path fill="#c7891f" d="M19 3h103c8.86 0 16 7.14 16 16v153c0 8.86-7.14 16-16 16H19c-8.86 0-16-7.14-16-16V19c0-8.86 7.14-16 16-16z"/><path fill="#fff" d="M18 2h103c8.86 0 16 7.14 16 16v153c0 8.86-7.14 16-16 16H18c-8.86 0-16-7.14-16-16V18C2 9.14 9.14 2 18 2z"/><path fill="red" fill-rule="evenodd" d="M13.55 48.84c-.8 0-1.68.2-2.66.65-10.7 8.1 3.7 21.4 9.7 32.7h.1c6.7-12.4 19.4-26.1 9.7-32.8-7.7-3.5-9.7 8-9.8 8.4-.1-.4-1.6-9.2-7.2-9.1zM125.3 140c.8 0 1.7-.2 2.67-.65 10.65-8.2-3.7-21.42-9.76-32.78l-.1-.05c-6.6 12.4-19.3 26.06-9.6 32.83 7.7 3.46 9.8-8.06 9.8-8.47.1.36 1.7 9.15 7.2 9.12z"/><g style="font-size:40px;line-height:1.25;font-family:Arial;-inkscape-font-specification:Arial;letter-spacing:0;word-spacing:0;fill:red;fill-opacity:1"><path d="M23.93 12.74h5.76v18.13q0 3.55-.62 5.47-.84 2.5-3.05 4.02-2.2 1.5-5.82 1.5-4.24 0-6.52-2.36-2.29-2.38-2.3-6.97l5.44-.63q.1 2.47.72 3.48.94 1.54 2.85 1.54 1.94 0 2.74-1.09.8-1.11.8-4.59z" aria-label="J" style="font-weight:700;-inkscape-font-specification:'Arial Bold';fill:red;fill-opacity:1" transform="translate(-.05 -.19)"/></g><g style="font-size:40px;line-height:1.25;font-family:Arial;-inkscape-font-specification:Arial;letter-spacing:0;word-spacing:0;fill:red;fill-opacity:1"><path d="M23.93 12.74h5.76v18.13q0 3.55-.62 5.47-.84 2.5-3.05 4.02-2.2 1.5-5.82 1.5-4.24 0-6.52-2.36-2.29-2.38-2.3-6.97l5.44-.63q.1 2.47.72 3.48.94 1.54 2.85 1.54 1.94 0 2.74-1.09.8-1.11.8-4.59z" aria-label="J" style="font-weight:700;-inkscape-font-specification:'Arial Bold';fill:red;fill-opacity:1" transform="rotate(180 69.46 94.44)"/></g><g style="font-size:40px;line-height:1.25;font-family:Arial;-inkscape-font-specification:Arial;letter-spacing:0;word-spacing:0;fill:red;fill-opacity:1;stroke-width:.529475"><path d="M23.93 12.74h5.76v18.13q0 3.55-.62 5.47-.84 2.5-3.05 4.02-2.2 1.5-5.82 1.5-4.24 0-6.52-2.36-2.29-2.38-2.3-6.97l5.44-.63q.1 2.47.72 3.48.94 1.54 2.85 1.54 1.94 0 2.74-1.09.8-1.11.8-4.59z" aria-label="J" style="font-weight:700;-inkscape-font-specification:'Arial Bold';fill:red;fill-opacity:1;stroke-width:.529475" transform="translate(11.75 21.85) scale(1.88867)"/></g><g style="font-size:40px;line-height:1.25;font-family:Arial;-inkscape-font-specification:Arial;letter-spacing:0;word-spacing:0;fill:red;fill-opacity:1;stroke-width:.529475"><path d="M23.93 12.74h5.76v18.13q0 3.55-.62 5.47-.84 2.5-3.05 4.02-2.2 1.5-5.82 1.5-4.24 0-6.52-2.36-2.29-2.38-2.3-6.97l5.44-.63q.1 2.47.72 3.48.94 1.54 2.85 1.54 1.94 0 2.74-1.09.8-1.11.8-4.59z" aria-label="J" style="font-weight:700;-inkscape-font-specification:'Arial Bold';fill:red;fill-opacity:1;stroke-width:.529475" transform="rotate(180 63.86 83.42) scale(1.88867)"/></g></svg>