<svg xmlns="http://www.w3.org/2000/svg" version="1" viewBox="0 0 140 190"><path fill-opacity=".5" d="M21 5h103c8.86 0 16 7.14 16 16v153c0 8.86-7.14 16-16 16H21c-8.86 0-16-7.14-16-16V21c0-8.86 7.14-16 16-16z"/><path fill="#e7e7e7" d="M17 1h103c8.86 0 16 7.14 16 16v153c0 8.86-7.14 16-16 16H17c-8.86 0-16-7.14-16-16V17C1 8.14 8.14 1 17 1z"/><path fill="#c7891f" d="M19 3h103c8.86 0 16 7.14 16 16v153c0 8.86-7.14 16-16 16H19c-8.86 0-16-7.14-16-16V19c0-8.86 7.14-16 16-16z"/><path fill="#fff" d="M18 2h103c8.86 0 16 7.14 16 16v153c0 8.86-7.14 16-16 16H18c-8.86 0-16-7.14-16-16V18C2 9.14 9.14 2 18 2z"/><path fill="red" fill-rule="evenodd" d="M13.55 48.84c-.8 0-1.68.2-2.66.65-10.7 8.1 3.7 21.4 9.7 32.7h.1c6.7-12.4 19.4-26.1 9.7-32.8-7.7-3.5-9.7 8-9.8 8.4-.1-.4-1.6-9.2-7.2-9.1zM125.3 140c.8 0 1.7-.2 2.67-.65 10.65-8.2-3.7-21.42-9.76-32.78l-.1-.05c-6.6 12.4-19.3 26.06-9.6 32.83 7.7 3.46 9.8-8.06 9.8-8.47.1.36 1.7 9.15 7.2 9.12z"/><g style="font-size:40px;line-height:1.25;font-family:Arial;-inkscape-font-specification:Arial;letter-spacing:0;word-spacing:0;fill:red;fill-opacity:1"><path d="M7.62 41.38V12.74h5.78v12.72l11.68-12.72h7.78L22.07 23.9l11.37 17.48h-7.48L18.1 27.94l-4.69 4.78v8.66z" aria-label="K" style="font-weight:700;-inkscape-font-specification:'Arial Bold';fill:red;fill-opacity:1" transform="translate(-.05 -.07)"/></g><g style="font-size:40px;line-height:1.25;font-family:Arial;-inkscape-font-specification:Arial;letter-spacing:0;word-spacing:0;fill:red;fill-opacity:1;stroke-width:.636285"><path d="M7.62 41.38V12.74h5.78v12.72l11.68-12.72h7.78L22.07 23.9l11.37 17.48h-7.48L18.1 27.94l-4.69 4.78v8.66z" aria-label="K" style="font-weight:700;-inkscape-font-specification:'Arial Bold';fill:red;fill-opacity:1;stroke-width:.636285" transform="translate(27.95 26.1) scale(1.57162)"/></g><g style="font-size:40px;line-height:1.25;font-family:Arial;-inkscape-font-specification:Arial;letter-spacing:0;word-spacing:0;fill:red;fill-opacity:1;stroke-width:.636285"><path d="M7.62 41.38V12.74h5.78v12.72l11.68-12.72h7.78L22.07 23.9l11.37 17.48h-7.48L18.1 27.94l-4.69 4.78v8.66z" aria-label="K" style="font-weight:700;-inkscape-font-specification:'Arial Bold';fill:red;fill-opacity:1;stroke-width:.636285" transform="rotate(180 55.42 81.3) scale(1.57162)"/></g><g style="font-size:40px;line-height:1.25;font-family:Arial;-inkscape-font-specification:Arial;letter-spacing:0;word-spacing:0;fill:red;fill-opacity:1"><path d="M7.62 41.38V12.74h5.78v12.72l11.68-12.72h7.78L22.07 23.9l11.37 17.48h-7.48L18.1 27.94l-4.69 4.78v8.66z" aria-label="K" style="font-weight:700;-inkscape-font-specification:'Arial Bold';fill:red;fill-opacity:1" transform="rotate(180 69.46 94.38)"/></g></svg>