<svg xmlns="http://www.w3.org/2000/svg" viewBox="0 0 140 190" version="1">
  <path fill-opacity=".5" d="M21 5h103c8.86 0 16 7.14 16 16v153c0 8.86-7.14 16-16 16H21c-8.86 0-16-7.14-16-16V21c0-8.86 7.14-16 16-16z"/>
  <path fill="#e7e7e7" d="M17 1h103c8.86 0 16 7.14 16 16v153c0 8.86-7.14 16-16 16H17c-8.86 0-16-7.14-16-16V17C1 8.14 8.14 1 17 1z"/>
  <path fill="#c7891f" d="M19 3h103c8.86 0 16 7.14 16 16v153c0 8.86-7.14 16-16 16H19c-8.86 0-16-7.14-16-16V19c0-8.86 7.14-16 16-16z"/>
  <path fill="#fff" d="M18 2h103c8.86 0 16 7.14 16 16v153c0 8.86-7.14 16-16 16H18c-8.86 0-16-7.14-16-16V18C2 9.14 9.14 2 18 2z"/>
  <path fill="red" d="M18.8 36.3h10.9V42h-18v-5.7l9.04-9.65c.8-.9 1.4-1.75 1.8-2.6.4-.84.58-1.72.58-2.63 0-1.4-.4-2.54-1.18-3.4-.78-.85-1.8-1.28-3.1-1.28-1 0-2.1.26-3.28.78-1.18.5-2.45 1.28-3.8 2.3v-6.6c1.44-.57 2.86-1 4.27-1.3 1.4-.3 2.78-.46 4.13-.46 2.97 0 5.28.8 6.9 2.37 1.66 1.58 2.5 3.78 2.5 6.6 0 1.64-.36 3.17-1.06 4.6-.7 1.4-2.16 3.28-4.4 5.65l-5.3 5.63"/>
  <path fill="red" fill-rule="evenodd" d="M13.55 48.84c-.8 0-1.68.2-2.66.65-10.67 8.16 3.7 21.4 9.74 32.74l.17.06c6.67-12.4 19.35-26.06 9.66-32.82-7.67-3.48-9.72 8.05-9.8 8.46-.06-.36-1.62-9.15-7.13-9.12z"/>
  <path fill="red" d="M120.07 152.7h-10.92V147h18.03v5.7l-9.06 9.65c-.8.9-1.4 1.75-1.8 2.6-.38.84-.57 1.72-.57 2.63 0 1.4.4 2.54 1.18 3.4.77.85 1.8 1.28 3.1 1.28 1 0 2.1-.26 3.27-.78 1.2-.5 2.46-1.28 3.8-2.3v6.6c-1.43.57-2.85 1-4.26 1.3-1.4.3-2.8.46-4.14.46-2.97 0-5.27-.8-6.9-2.37-1.66-1.58-2.48-3.78-2.48-6.6 0-1.64.35-3.17 1.04-4.6.7-1.4 2.17-3.28 4.4-5.66l5.3-5.6"/>
  <path fill="red" fill-rule="evenodd" d="M125.3 140c.8 0 1.7-.2 2.67-.65 10.64-8.2-3.7-21.42-9.76-32.77l-.15-.06c-6.66 12.4-19.33 26.06-9.65 32.83 7.66 3.46 9.72-8.06 9.8-8.47.05.36 1.62 9.15 7.12 9.1zM64.76 50.22c-.46 0-.98.12-1.54.38-6.2 4.84 2.15 12.65 5.67 19.36l.1.04c3.84-7.34 11.2-15.4 5.6-19.4-4.48-2.05-5.67 4.76-5.7 5-.05-.2-.96-5.4-4.16-5.38zM73.23 136c.47 0 .98-.12 1.55-.38 6.18-4.84-2.15-12.65-5.67-19.36l-.1-.04c-3.84 7.34-11.2 15.4-5.6 19.4 4.48 2.05 5.67-4.76 5.7-5 .05.2.96 5.4 4.15 5.38z"/>
</svg>
