<svg xmlns="http://www.w3.org/2000/svg" viewBox="0 0 140 190" version="1">
  <path fill-opacity=".5" d="M21 5h103c8.86 0 16 7.14 16 16v153c0 8.86-7.14 16-16 16H21c-8.86 0-16-7.14-16-16V21c0-8.86 7.14-16 16-16z"/>
  <path fill="#e7e7e7" d="M17 1h103c8.86 0 16 7.14 16 16v153c0 8.86-7.14 16-16 16H17c-8.86 0-16-7.14-16-16V17C1 8.14 8.14 1 17 1z"/>
  <path fill="#c7891f" d="M19 3h103c8.86 0 16 7.14 16 16v153c0 8.86-7.14 16-16 16H19c-8.86 0-16-7.14-16-16V19c0-8.86 7.14-16 16-16z"/>
  <path fill="#fff" d="M18 2h103c8.86 0 16 7.14 16 16v153c0 8.86-7.14 16-16 16H18c-8.86 0-16-7.14-16-16V18C2 9.14 9.14 2 18 2z"/>
  <path fill="red" d="M24.85 25.82c1.67.52 2.94 1.44 3.8 2.73.88 1.3 1.3 2.93 1.3 4.93 0 2.97-.93 5.24-2.8 6.8-1.9 1.53-4.64 2.3-8.25 2.3-1.27 0-2.55-.13-3.84-.38-1.27-.24-2.53-.6-3.8-1.1v-5.97c1.2.72 2.4 1.27 3.57 1.64 1.18.37 2.35.55 3.5.55 1.68 0 2.98-.36 3.88-1.07.9-.7 1.4-1.73 1.4-3.05 0-1.37-.4-2.4-1.4-3.1-.9-.7-2.3-1.06-4.1-1.06h-2.5v-5h2.7c1.6 0 2.8-.3 3.6-.9.8-.6 1.2-1.54 1.2-2.78 0-1.15-.4-2.05-1.1-2.67-.7-.7-1.8-1-3.2-1-1 0-2 .1-3.1.4s-2.1.7-3.1 1.2v-5.6c1.27-.5 2.5-.8 3.76-1 1.2-.2 2.43-.3 3.63-.3 3.2 0 5.6.6 7.2 1.9 1.6 1.2 2.4 3.1 2.4 5.7 0 1.72-.38 3.2-1.14 4.3-.8 1.1-1.9 1.9-3.4 2.33"/>
  <path fill="red" fill-rule="evenodd" d="M13.55 48.84c-.8 0-1.68.2-2.66.65-10.7 8.1 3.7 21.4 9.7 32.7h.1c6.7-12.4 19.4-26.1 9.7-32.8-7.7-3.5-9.7 8-9.8 8.4-.1-.4-1.6-9.2-7.2-9.1z"/>
  <path fill="red" d="M114.02 163.18c-1.67-.52-2.94-1.44-3.8-2.74-.88-1.28-1.32-2.92-1.32-4.92 0-2.97.94-5.24 2.83-6.8 1.88-1.53 4.62-2.3 8.24-2.3 1.27 0 2.55.13 3.83.38 1.28.24 2.54.6 3.8 1.1v5.97c-1.2-.72-2.4-1.27-3.56-1.64-1.2-.37-2.35-.55-3.5-.55-1.7 0-2.98.36-3.88 1.07-.9.7-1.36 1.73-1.36 3.05 0 1.37.46 2.4 1.4 3.1.9.7 2.27 1.06 4.08 1.06h2.56v5h-2.7c-1.6 0-2.8.3-3.58.9-.8.6-1.18 1.54-1.18 2.78 0 1.15.38 2.05 1.14 2.68.77.62 1.85.94 3.24.94 1.03 0 2.08-.14 3.13-.42s2.1-.7 3.1-1.25v5.6c-1.3.4-2.5.7-3.8.9-1.3.2-2.5.3-3.7.3-3.2 0-5.7-.7-7.3-2s-2.4-3.2-2.4-5.78c0-1.77.4-3.2 1.1-4.33.8-1.1 1.9-1.9 3.4-2.35"/>
  <path fill="red" fill-rule="evenodd" d="M125.3 140c.8 0 1.7-.2 2.67-.65 10.64-8.2-3.7-21.42-9.76-32.77l-.1-.06c-6.6 12.4-19.3 26.06-9.6 32.83 7.7 3.46 9.8-8.06 9.8-8.47.1.36 1.7 9.15 7.2 9.1zM65.77 45.22c-.47 0-.98.12-1.55.38-6.18 4.84 2.15 12.66 5.67 19.36l.1.04c3.8-7.33 11.2-15.4 5.6-19.4-4.5-2.04-5.7 4.76-5.7 5-.1-.2-1-5.4-4.2-5.38zM66.13 87c-.47 0-.98.12-1.55.38-6.18 4.84 2.15 12.66 5.67 19.36l.1.04c3.87-7.33 11.23-15.4 5.6-19.4-4.45-2.04-5.64 4.76-5.68 5-.04-.2-.95-5.4-4.14-5.38zm7.1 55.78c.47 0 .98-.12 1.55-.38 6.18-4.84-2.15-12.65-5.67-19.36L69 123c-3.86 7.34-11.22 15.4-5.6 19.4 4.46 2.05 5.65-4.76 5.7-5 .03.2.94 5.4 4.13 5.38z"/>
</svg>
