<svg xmlns="http://www.w3.org/2000/svg" viewBox="0 0 140 190" version="1">
  <path fill-opacity=".5" d="M21 5h103c8.86 0 16 7.14 16 16v153c0 8.86-7.14 16-16 16H21c-8.86 0-16-7.14-16-16V21c0-8.86 7.14-16 16-16z"/>
  <path fill="#e7e7e7" d="M17 1h103c8.86 0 16 7.14 16 16v153c0 8.86-7.14 16-16 16H17c-8.86 0-16-7.14-16-16V17C1 8.14 8.14 1 17 1z"/>
  <path fill="#c7891f" d="M19 3h103c8.86 0 16 7.14 16 16v153c0 8.86-7.14 16-16 16H19c-8.86 0-16-7.14-16-16V19c0-8.86 7.14-16 16-16z"/>
  <path fill="#fff" d="M18 2h103c8.86 0 16 7.14 16 16v153c0 8.86-7.14 16-16 16H18c-8.86 0-16-7.14-16-16V18C2 9.14 9.14 2 18 2z"/>
  <path fill="red" d="M11.68 42.37v-23.6l-5.24-.06.25-3.6 4.9-3.1h5.5v30.4m13.4-15.2c0-3.7-.3-6.4-.8-7.9S28.3 17 27 17s-2.13.8-2.66 2.3c-.53 1.56-.8 4.2-.8 7.9 0 3.8.27 6.5.8 8 .53 1.6 1.42 2.38 2.66 2.38s2.1-.77 2.65-2.33c.53-1.53.8-4.2.8-8m5.77.07c0 4.98-.8 8.8-2.4 11.5-1.6 2.7-3.9 4.05-6.8 4.05-2.98 0-5.26-1.34-6.86-4.03-1.6-2.7-2.4-6.55-2.4-11.5 0-5 .8-8.84 2.4-11.54 1.6-2.7 3.87-4.06 6.83-4.06s5.2 1.34 6.8 4.04c1.6 2.7 2.4 6.52 2.4 11.5m90.9 119.24v23.6l5.23.05-.24 3.63-5 3.1h-5.5v-30.4m-13.4 15.2c0 3.72.27 6.36.8 7.9.52 1.52 1.4 2.3 2.64 2.3s2.14-.78 2.67-2.3c.54-1.54.8-4.18.8-7.9 0-3.8-.26-6.5-.8-8.05s-1.4-2.3-2.65-2.3c-1.2 0-2.1.77-2.63 2.32s-.8 4.24-.8 8.03m-5.77-.07c0-4.94.8-8.8 2.4-11.5 1.6-2.7 3.9-4.02 6.8-4.02 2.98 0 5.26 1.38 6.86 4.07 1.6 2.72 2.4 6.56 2.4 11.53 0 5-.8 8.82-2.4 11.5-1.6 2.72-3.87 4.07-6.82 4.07-2.94 0-5.2-1.32-6.8-4.03-1.6-2.7-2.4-6.53-2.4-11.5"/>
  <path fill="red" fill-rule="evenodd" d="M20.4 48.66c-4.12 8.25-7.12 12.5-13.33 17.05 5.87 4.5 10 9.2 13.46 16.7 3.07-7.1 6.85-12.4 13.4-16.8-6.6-3.35-10.4-8.65-13.52-16.82zm28.73-12.44c-2.4 4.84-4.16 7.34-7.77 10 3.42 2.65 5.83 5.37 7.84 9.78 1.8-4.18 4-7.3 7.8-9.9-3.83-1.97-6.05-5.08-7.87-9.88zm41 0c-2.4 4.84-4.16 7.34-7.77 10 3.42 2.65 5.83 5.37 7.84 9.78 1.8-4.18 4-7.3 7.8-9.9-3.83-1.97-6.05-5.08-7.87-9.88zm-21.36 14c-2.4 4.84-4.16 7.34-7.77 10 3.42 2.65 5.83 5.37 7.84 9.78 1.8-4.18 4-7.3 7.8-9.9-3.83-1.97-6.05-5.08-7.87-9.88zm-20 21c-2.4 4.84-4.16 7.34-7.77 10 3.42 2.65 5.83 5.38 7.84 9.78 1.8-4.18 4-7.3 7.8-9.9-3.83-1.97-6.05-5.08-7.87-9.88zm39.36-1c-2.4 4.84-4.16 7.34-7.77 10 3.42 2.65 5.83 5.38 7.84 9.78 1.8-4.18 4-7.3 7.8-9.9-3.83-1.97-6.05-5.08-7.87-9.88zM89.77 100c-2.4 4.85-4.16 7.34-7.77 10 3.42 2.65 5.83 5.38 7.84 9.78 1.8-4.18 4-7.3 7.8-9.9-3.83-1.97-6.05-5.08-7.87-9.88zm-41.64 0c-2.4 4.85-4.16 7.34-7.77 10 3.42 2.65 5.83 5.38 7.84 9.78 1.8-4.18 4-7.3 7.8-9.9-3.83-1.97-6.05-5.08-7.87-9.88zm1 30c-2.4 4.85-4.16 7.34-7.77 10 3.42 2.65 5.83 5.38 7.84 9.78 1.8-4.18 4-7.3 7.8-9.9-3.83-1.97-6.05-5.08-7.87-9.88zm19-13c-2.4 4.85-4.16 7.34-7.77 10 3.42 2.65 5.83 5.38 7.84 9.78 1.8-4.18 4-7.3 7.8-9.9-3.83-1.97-6.05-5.08-7.87-9.88zm22 13.22c-2.4 4.85-4.16 7.34-7.77 10 3.42 2.65 5.83 5.38 7.84 9.78 1.8-4.18 4-7.3 7.8-9.9-3.83-1.97-6.05-5.08-7.87-9.88zm28.2-23.92c-4.12 8.25-7.12 12.5-13.33 17.04 5.87 4.5 10 9.13 13.46 16.62 3.08-7.12 6.85-12.43 13.4-16.84-6.6-3.35-10.4-8.65-13.52-16.82z"/>
</svg>
