<svg xmlns="http://www.w3.org/2000/svg" version="1" viewBox="0 0 140 190"><path fill-opacity=".5" d="M21 5h103c8.86 0 16 7.14 16 16v153c0 8.86-7.14 16-16 16H21c-8.86 0-16-7.14-16-16V21c0-8.86 7.14-16 16-16z"/><path fill="#e7e7e7" d="M17 1h103c8.86 0 16 7.14 16 16v153c0 8.86-7.14 16-16 16H17c-8.86 0-16-7.14-16-16V17C1 8.14 8.14 1 17 1z"/><path fill="#c7891f" d="M19 3h103c8.86 0 16 7.14 16 16v153c0 8.86-7.14 16-16 16H19c-8.86 0-16-7.14-16-16V19c0-8.86 7.14-16 16-16z"/><path fill="#fff" d="M18 2h103c8.86 0 16 7.14 16 16v153c0 8.86-7.14 16-16 16H18c-8.86 0-16-7.14-16-16V18C2 9.14 9.14 2 18 2z"/><path fill="red" fill-rule="evenodd" d="M20.4 48.66c-4.12 8.25-7.12 12.5-13.33 17.05 5.87 4.5 10 9.2 13.46 16.7 3.07-7.1 6.85-12.4 13.4-16.8-6.6-3.35-10.4-8.65-13.52-16.82zm97.93 57.64c-4.12 8.25-7.12 12.5-13.33 17.04 5.87 4.5 10 9.13 13.46 16.62 3.08-7.12 6.85-12.43 13.4-16.84-6.6-3.35-10.4-8.65-13.52-16.82z"/><g style="font-size:40px;line-height:1.25;font-family:Arial;-inkscape-font-specification:Arial;letter-spacing:0;word-spacing:0;fill:red;fill-opacity:1"><path d="M23.93 12.74h5.76v18.13q0 3.55-.62 5.47-.84 2.5-3.05 4.02-2.2 1.5-5.82 1.5-4.24 0-6.52-2.36-2.29-2.38-2.3-6.97l5.44-.63q.1 2.47.72 3.48.94 1.54 2.85 1.54 1.94 0 2.74-1.09.8-1.11.8-4.59z" aria-label="J" style="font-weight:700;-inkscape-font-specification:'Arial Bold';fill:red;fill-opacity:1" transform="translate(-.02 -.22)"/></g><g style="font-size:40px;line-height:1.25;font-family:Arial;-inkscape-font-specification:Arial;letter-spacing:0;word-spacing:0;fill:red;fill-opacity:1"><path d="M23.93 12.74h5.76v18.13q0 3.55-.62 5.47-.84 2.5-3.05 4.02-2.2 1.5-5.82 1.5-4.24 0-6.52-2.36-2.29-2.38-2.3-6.97l5.44-.63q.1 2.47.72 3.48.94 1.54 2.85 1.54 1.94 0 2.74-1.09.8-1.11.8-4.59z" aria-label="J" style="font-weight:700;-inkscape-font-specification:'Arial Bold';fill:red;fill-opacity:1" transform="rotate(180 69.48 94.42)"/></g><g style="font-size:40px;line-height:1.25;font-family:Arial;-inkscape-font-specification:Arial;letter-spacing:0;word-spacing:0;fill:red;fill-opacity:1;stroke-width:.529475"><path d="M23.93 12.74h5.76v18.13q0 3.55-.62 5.47-.84 2.5-3.05 4.02-2.2 1.5-5.82 1.5-4.24 0-6.52-2.36-2.29-2.38-2.3-6.97l5.44-.63q.1 2.47.72 3.48.94 1.54 2.85 1.54 1.94 0 2.74-1.09.8-1.11.8-4.59z" aria-label="J" style="font-weight:700;-inkscape-font-specification:'Arial Bold';fill:red;fill-opacity:1;stroke-width:.529475" transform="translate(11.78 21.82) scale(1.88867)"/></g><g style="font-size:40px;line-height:1.25;font-family:Arial;-inkscape-font-specification:Arial;letter-spacing:0;word-spacing:0;fill:red;fill-opacity:1;stroke-width:.529475"><path d="M23.93 12.74h5.76v18.13q0 3.55-.62 5.47-.84 2.5-3.05 4.02-2.2 1.5-5.82 1.5-4.24 0-6.52-2.36-2.29-2.38-2.3-6.97l5.44-.63q.1 2.47.72 3.48.94 1.54 2.85 1.54 1.94 0 2.74-1.09.8-1.11.8-4.59z" aria-label="J" style="font-weight:700;-inkscape-font-specification:'Arial Bold';fill:red;fill-opacity:1;stroke-width:.529475" transform="rotate(180 63.88 83.4) scale(1.88867)"/></g></svg>