<svg xmlns="http://www.w3.org/2000/svg" viewBox="0 0 140 190" version="1">
  <path fill-opacity=".5" d="M21 5h103c8.86 0 16 7.14 16 16v153c0 8.86-7.14 16-16 16H21c-8.86 0-16-7.14-16-16V21c0-8.86 7.14-16 16-16z"/>
  <path fill="#e7e7e7" d="M17 1h103c8.86 0 16 7.14 16 16v153c0 8.86-7.14 16-16 16H17c-8.86 0-16-7.14-16-16V17C1 8.14 8.14 1 17 1z"/>
  <path fill="#c7891f" d="M19 3h103c8.86 0 16 7.14 16 16v153c0 8.86-7.14 16-16 16H19c-8.86 0-16-7.14-16-16V19c0-8.86 7.14-16 16-16z"/>
  <path fill="#fff" d="M18 2h103c8.86 0 16 7.14 16 16v153c0 8.86-7.14 16-16 16H18c-8.86 0-16-7.14-16-16V18C2 9.14 9.14 2 18 2z"/>
  <path fill="red" d="M12.16 41.58v-5.55c1.02.58 2 1 2.93 1.3.9.3 1.8.43 2.7.43 1.9 0 3.4-.64 4.4-1.9 1-1.3 1.7-3.2 1.8-5.72-.8.67-1.6 1.17-2.4 1.5-.9.34-1.8.5-2.8.5-2.5 0-4.6-.88-6.2-2.66-1.57-1.8-2.35-4.15-2.35-7.07 0-3.2.86-5.8 2.6-7.7 1.73-1.9 4.06-2.9 6.97-2.9 3.22 0 5.73 1.3 7.5 4 1.8 2.7 2.7 6.4 2.7 11.2 0 5-1 8.9-3.1 11.7-2.06 2.8-4.9 4.3-8.5 4.3-1.17 0-2.28-.1-3.34-.3-1.1-.2-2.13-.5-3.15-.9m7.9-14.5c1.1 0 1.95-.4 2.5-1.3.58-.9.86-2.2.86-3.9 0-1.72-.3-3.03-.88-3.9s-1.33-1.4-2.45-1.4-1.9.46-2.5 1.35-.83 2.2-.83 3.9c0 1.8.3 3.1.8 4 .58.9 1.4 1.3 2.54 1.3m106.5 120.5v5.55c-1-.6-2-1-2.9-1.3-1-.3-1.9-.5-2.8-.5-1.9 0-3.4.7-4.5 2s-1.7 3.2-1.9 5.7c.74-.66 1.54-1.16 2.4-1.5.85-.3 1.8-.5 2.8-.5 2.5 0 4.55.9 6.1 2.7 1.57 1.8 2.34 4.13 2.34 7.05 0 3.2-.88 5.8-2.6 7.74-1.75 1.92-4.08 2.9-7 2.9-3.2 0-5.7-1.3-7.5-3.97s-2.6-6.4-2.6-11.2c0-4.96 1.03-8.86 3.1-11.7s4.9-4.25 8.52-4.25c1.2 0 2.3.1 3.35.3 1.04.2 2.1.5 3.1.9m-7.9 14.4c-1.1 0-1.97.46-2.53 1.3-.6.9-.87 2.2-.87 4 0 1.73.26 3.05.83 3.93.56.9 1.4 1.3 2.52 1.3s1.97-.43 2.53-1.32c.5-.9.8-2.2.8-3.9s-.3-3.1-.85-3.97c-.6-.85-1.4-1.3-2.58-1.3"/>
  <path fill="red" fill-rule="evenodd" d="M20.4 48.66c-4.12 8.25-7.12 12.5-13.33 17.05 5.87 4.5 10 9.2 13.46 16.7 3.07-7.1 6.85-12.4 13.4-16.8-6.6-3.3-10.4-8.6-13.52-16.8zm28.73-12.44c-2.4 4.84-4.16 7.34-7.77 10 3.42 2.65 5.83 5.37 7.84 9.78 1.8-4.18 4-7.3 7.8-9.9-3.83-1.97-6.05-5.08-7.87-9.88zm41 0c-2.4 4.84-4.16 7.34-7.77 10 3.42 2.65 5.83 5.37 7.84 9.78 1.8-4.18 4-7.3 7.8-9.9-3.83-1.97-6.05-5.08-7.87-9.88zm-41.36 35c-2.4 4.84-4.16 7.34-7.77 10 3.42 2.65 5.83 5.38 7.84 9.78 1.8-4.18 4-7.3 7.8-9.9-3.83-1.97-6.05-5.08-7.87-9.88zm39.36-1c-2.4 4.84-4.16 7.34-7.77 10 3.42 2.65 5.83 5.38 7.84 9.78 1.8-4.18 4-7.3 7.8-9.9-3.83-1.97-6.05-5.08-7.87-9.88zM89.77 100c-2.4 4.85-4.16 7.34-7.77 10 3.42 2.65 5.83 5.38 7.84 9.78 1.8-4.18 4-7.3 7.8-9.9-3.83-1.97-6.05-5.08-7.87-9.88zm-41.64 0c-2.4 4.85-4.16 7.34-7.77 10 3.42 2.65 5.83 5.38 7.84 9.78 1.8-4.18 4-7.3 7.8-9.9-3.83-1.97-6.05-5.08-7.87-9.88zm1 30c-2.4 4.85-4.16 7.34-7.77 10 3.42 2.65 5.83 5.38 7.84 9.78 1.8-4.18 4-7.3 7.8-9.9-3.83-1.97-6.05-5.08-7.87-9.88zm20-44.78c-2.4 4.84-4.16 7.34-7.77 10 3.42 2.65 5.83 5.38 7.84 9.78 1.8-4.18 4-7.3 7.8-9.9-3.83-1.97-6.05-5.08-7.87-9.88zm21 45c-2.4 4.85-4.16 7.34-7.77 10 3.42 2.65 5.83 5.38 7.84 9.78 1.8-4.18 4-7.3 7.8-9.9-3.83-1.97-6.05-5.08-7.87-9.88zm28.2-23.88c-4.12 8.25-7.12 12.5-13.33 17.04 5.87 4.5 10 9.12 13.46 16.62 3.08-7.12 6.85-12.43 13.4-16.84-6.6-3.35-10.4-8.66-13.52-16.82z"/>
</svg>
