<svg xmlns="http://www.w3.org/2000/svg" viewBox="0 0 140 190" version="1">
  <path fill-opacity=".5" d="M21 5h103c8.86 0 16 7.14 16 16v153c0 8.86-7.14 16-16 16H21c-8.86 0-16-7.14-16-16V21c0-8.86 7.14-16 16-16z"/>
  <path fill="#e7e7e7" d="M17 1h103c8.86 0 16 7.14 16 16v153c0 8.86-7.14 16-16 16H17c-8.86 0-16-7.14-16-16V17C1 8.14 8.14 1 17 1z"/>
  <path fill="#c7891f" d="M19 3h103c8.86 0 16 7.14 16 16v153c0 8.86-7.14 16-16 16H19c-8.86 0-16-7.14-16-16V19c0-8.86 7.14-16 16-16z"/>
  <path fill="#fff" d="M18 2h103c8.86 0 16 7.14 16 16v153c0 8.86-7.14 16-16 16H18c-8.86 0-16-7.14-16-16V18C2 9.14 9.14 2 18 2z"/>
  <path fill-rule="evenodd" d="M21.1 48.67C16.15 56.5 1.04 69.8 10.62 73.93c5.8 1.9 8.57-2 9.74-4.55h.24l-3.85 12.95 8.94-.04s-3.9-12.5-3.9-13h.1c.9 2.1 4.5 6.4 8.5 4.8 11.5-4.7-5.5-17.8-9.3-25.5z"/>
  <path d="M25.08 36.77h-10l-1.58 5.47H7.07l9.2-30h7.6l9.2 30h-6.43l-1.56-5.47m-8.4-5.56h6.8l-3.4-11.9-3.4 12"/>
  <path fill-rule="evenodd" d="M117.6 140c4.93-7.82 20.04-21.14 10.46-25.26-5.8-1.9-8.57 1.98-9.74 4.55h-.24l3.86-13H113s3.85 12.4 3.86 12.9h-.1c-.94-2.1-4.53-6.5-8.48-4.8-11.54 4.6 5.46 17.8 9.32 25.5z"/>
  <path d="M113.6 152.1h10l1.6-5.47h6.42l-9.2 30h-7.6l-9.2-30h6.43l1.56 5.47m8.5 5.56h-6.8l3.4 11.94 3.4-11.94"/>
  <path fill-rule="evenodd" d="M69.78 59.06C59.2 75.88 26.76 104.5 47.3 113.34c12.5 4.07 18.44-4.26 20.95-9.78h.5l-8.28 27.82 19.2-.07s-8.28-26.7-8.3-27.7h.2c2.02 4.5 9.73 13.9 18.2 10.3 24.8-9.9-11.7-38.2-20-54.7zm-10.15 15.4h5.96l7.5 14.26V74.47h5.1v20.78h-6L64.7 81v14.25h-5.1V74.47zm6.56 23.66h.5v4.57h-.6v-4.6zm1.9 0h.6v.7H68v-.7zm-23.1.13c.7 0 1.2.18 1.7.6.4.4.6.96.6 1.65 0 .7-.2 1.24-.7 1.66-.4.4-1 .62-1.7.62s-1.3-.2-1.7-.62c-.5-.4-.7-.97-.7-1.66 0-.7.2-1.25.6-1.66.4-.4 1-.6 1.7-.6zm18.5 0c.3 0 .5.02.8.1.2.06.5.17.7.3v.63c-.3-.18-.5-.3-.8-.4-.3-.1-.5-.16-.8-.16-.6 0-1 .16-1.3.47-.3.3-.5.7-.5 1.3 0 .5.1 1 .4 1.3.3.3.7.4 1.3.4.3 0 .5-.1.8-.1.2-.1.5-.2.7-.4v.6l-.8.3s-.58.1-.88.1c-.74 0-1.35-.2-1.8-.6-.43-.4-.65-1-.65-1.7s.2-1.3.67-1.7c.4-.4 1-.6 1.8-.6zm17.8.22h.7v.94h1.2v.5H82v1.8c0 .3.05.5.14.5.08.1.27.2.53.2h.6v.5h-.6c-.5 0-.83 0-1-.2-.2-.1-.3-.4-.3-.8V100h-.43v-.43h.44v-.9zm-36.3.25c-.5 0-.9.15-1.2.47-.3.3-.5.7-.5 1.3s.1 1 .4 1.3c.3.3.7.4 1.2.4s.9-.2 1.2-.5c.3-.3.4-.8.4-1.3s-.2-1-.5-1.3c-.3-.4-.7-.5-1.2-.5zm5.1.62c.4 0 .8.16 1.1.47.3.4.4.8.4 1.3s-.2 1-.5 1.3c-.3.4-.6.5-1.1.5-.3 0-.5 0-.7-.1-.2-.1-.4-.2-.5-.4v1.7h-.6v-4.6h.6v.5c.1-.2.3-.3.5-.4.2-.1.4-.1.7-.1zm4.1 0c.5 0 .9.12 1.2.4.3.3.4.68.4 1.17v.3H53c.03.4.15.7.38.9.23.2.56.3.97.3h.7c.2 0 .4-.1.63-.2v.6c-.2.1-.43.2-.66.2s-.46.1-.7.1c-.6 0-1.1-.1-1.44-.4-.36-.3-.54-.7-.54-1.2s.15-1 .5-1.3c.3-.3.76-.5 1.32-.5zm4.4 0c.4 0 .7.1 1 .35.2.2.3.5.3 1v1.9h-.7v-2c0-.3 0-.6-.2-.7-.1-.2-.3-.2-.6-.2s-.6.1-.8.2c-.2.2-.3.4-.3.7v1.8H57v-3.3h.6v.5c.16-.2.35-.3.55-.4.2-.1.42-.2.68-.2zm13 0c.4 0 .8.16 1.1.47.3.4.4.8.4 1.3s-.2 1-.5 1.3c-.3.4-.6.5-1.1.5-.3 0-.5 0-.7-.1-.2-.1-.4-.2-.5-.4v1.7H70v-4.6h.6v.5c.13-.2.3-.3.5-.4.2-.1.45-.1.7-.1zm3.9 0c.5 0 .9.1 1.2.35.3.2.4.6.4 1.1v1.9h-.6v-.5c-.2.2-.4.3-.6.4-.2.1-.4.1-.7.1-.4 0-.7-.1-1-.3-.3-.2-.4-.5-.4-.8 0-.4.12-.7.4-.9.3-.2.7-.3 1.3-.3h.9v-.1c0-.3-.1-.4-.3-.6-.2-.2-.45-.2-.78-.2h-.6l-.6.2v-.5l.63-.2h.6zm4.7 0h.1l.1.03v.54H80c-.34 0-.6.2-.8.3-.2.2-.3.5-.3.9v1.7h-.6v-3.3h.7v.5c.1-.2.3-.3.5-.4.2-.1.42-.1.72-.1zm7.3 0c.5 0 .9.14 1.2.44.3.3.4.74.4 1.28s-.1.95-.43 1.25c-.3.4-.7.5-1.25.5s-1-.1-1.3-.4c-.3-.3-.45-.7-.45-1.2s.16-.9.46-1.3c.3-.3.76-.4 1.3-.4zm4.6 0h.1l.2.03v.54H92c-.34 0-.6.2-.8.3-.2.2-.3.5-.3.9v1.7h-.6v-3.3h.7v.5c.1-.2.3-.3.5-.4.2-.1.43-.1.73-.1zm2.1 0c.3 0 .5.03.7.13.2.1.3.24.5.44v-.5h.6v2.9c0 .6-.2 1-.4 1.3-.3.3-.8.4-1.4.4h-.6c-.2 0-.4 0-.56-.1v-.5c.2.1.37.2.55.2.2.1.4.1.54.1.4 0 .7-.1.9-.3.2-.1.34-.4.34-.8v-.2c-.1.2-.3.4-.5.5-.2.1-.48.1-.7.1-.5 0-.9-.1-1.1-.4s-.4-.7-.4-1.2.1-.9.4-1.2c.3-.3.6-.4 1.1-.4zM68 99.4h.64v3.3H68v-3.3zm-18 .4c-.3 0-.6.1-.77.4-.2.27-.3.6-.3.98 0 .4.1.7.3.94.2.23.45.3.77.3.35 0 .6-.07.77-.3.2-.22.3-.53.3-.93s-.1-.7-.3-1c-.18-.2-.4-.4-.75-.4zm4.3 0c-.3 0-.6.1-.8.3-.2.2-.3.4-.34.7h2.22c0-.3-.1-.5-.3-.7-.2-.1-.47-.2-.78-.2zm17.36 0c-.33 0-.6.1-.78.4-.2.27-.3.6-.3.98 0 .4.1.7.3.94.14.23.4.3.74.3s.56-.07.75-.3c.2-.22.3-.53.3-.93s-.1-.7-.3-1c-.2-.2-.44-.4-.76-.4zm16.12 0c-.37 0-.6.1-.8.4-.2.27-.3.6-.3.98 0 .4.1.68.3.9.2.23.43.35.8.35s.6-.1.74-.33c.2-.23.28-.5.28-.9s-.07-.7-.27-.95c-.2-.2-.45-.33-.78-.33zm6.84 0c-.33 0-.6.1-.78.3-.2.3-.3.6-.3.9s.1.7.3.9c.17.3.44.4.77.4s.6-.1.8-.3c.2-.2.3-.5.3-.9s-.1-.7-.3-.9c-.2-.2-.4-.3-.7-.3zm-18.6 1.3c-.5 0-.84.1-1.03.2-.2.1-.3.27-.3.5 0 .2 0 .36.2.48.1.1.3.15.6.15s.6-.1.8-.3c.2-.2.3-.5.3-.83v-.13H76zm8.16.9h.7v.8h-.7v-.8z"/>
</svg>
