<svg xmlns="http://www.w3.org/2000/svg" viewBox="0 0 140 190" version="1">
  <path fill-opacity=".5" d="M21 5h103c8.86 0 16 7.14 16 16v153c0 8.86-7.14 16-16 16H21c-8.86 0-16-7.14-16-16V21c0-8.86 7.14-16 16-16z"/>
  <path fill="#e7e7e7" d="M17 1h103c8.86 0 16 7.14 16 16v153c0 8.86-7.14 16-16 16H17c-8.86 0-16-7.14-16-16V17C1 8.14 8.14 1 17 1z"/>
  <path fill="#c7891f" d="M19 3h103c8.86 0 16 7.14 16 16v153c0 8.86-7.14 16-16 16H19c-8.86 0-16-7.14-16-16V19c0-8.86 7.14-16 16-16z"/>
  <path fill="#fff" d="M18 2h103c8.86 0 16 7.14 16 16v153c0 8.86-7.14 16-16 16H18c-8.86 0-16-7.14-16-16V18C2 9.14 9.14 2 18 2z"/>
  <path fill-rule="evenodd" stroke="#000" stroke-width=".76" d="M260.18 149.6c-4.84 19.24-19.68 52-10.28 62.12 5.7 4.66 8.42-4.88 9.57-11.2h.23l-3.8 31.85 8.8-.1s-3.8-30.6-3.8-31.77h.1c.92 5.16 4.45 15.83 8.33 11.77 11.34-11.4-5.36-43.83-9.15-62.67z" stroke-linejoin="round" transform="matrix(1 0 0 .4 -239.5 -11.1)"/>
  <path d="M11.68 42.37v-23.6l-5.24-.06.25-3.6 4.9-3.1h5.5v30.4m13.4-15.2c0-3.7-.3-6.4-.8-7.9S28.3 17 27 17s-2.13.8-2.66 2.3c-.53 1.56-.8 4.2-.8 7.9 0 3.8.27 6.5.8 8 .53 1.6 1.42 2.38 2.66 2.38s2.1-.77 2.65-2.33c.53-1.53.8-4.2.8-8m5.77.07c0 4.98-.8 8.8-2.4 11.5-1.6 2.7-3.9 4.05-6.8 4.05-2.98 0-5.26-1.34-6.86-4.03-1.6-2.7-2.4-6.55-2.4-11.5 0-5 .8-8.84 2.4-11.54 1.6-2.7 3.87-4.06 6.83-4.06s5.2 1.34 6.8 4.04c1.6 2.7 2.4 6.52 2.4 11.5"/>
  <path fill-rule="evenodd" stroke="#000" stroke-width=".76" d="M260.18 149.6c-4.84 19.24-19.68 52-10.28 62.12 5.7 4.66 8.42-4.88 9.57-11.2h.23l-3.8 31.85 8.8-.1s-3.8-30.6-3.8-31.77h.1c.92 5.16 4.45 15.83 8.33 11.77 11.34-11.4-5.36-43.83-9.15-62.67z" stroke-linejoin="round" transform="matrix(-1 0 0 -.4 378.4 199.7)"/>
  <path d="M127.2 146.47v23.6l5.24.05-.25 3.63-5 3.1h-5.5v-30.38m-13.4 15.23c0 3.73.2 6.37.8 7.9.5 1.53 1.4 2.3 2.6 2.3s2.1-.77 2.6-2.3c.5-1.53.8-4.17.8-7.9 0-3.8-.3-6.5-.8-8.04s-1.5-2.33-2.7-2.33c-1.3 0-2.1.78-2.7 2.33s-.8 4.23-.8 8.02m-5.8-.07c0-4.9.8-8.8 2.4-11.5 1.6-2.7 3.8-4 6.8-4 2.9 0 5.2 1.4 6.8 4.1 1.6 2.8 2.4 6.6 2.4 11.6s-.8 8.8-2.4 11.5c-1.6 2.7-3.9 4.1-6.8 4.1s-5.2-1.3-6.8-4c-1.6-2.7-2.4-6.5-2.4-11.5"/>
  <path fill-rule="evenodd" stroke-width=".76" d="M48.9 36.23c-2.86 4.6-11.66 12.42-6.08 14.84 3.38 1.1 5-1.17 5.67-2.67h.1L46.4 56l5.2-.02s-2.23-7.3-2.24-7.6h.05c.6 1.24 2.7 3.8 5 2.82 6.8-2.72-3.2-10.47-5.4-14.97zm20 14.1c-2.87 4.6-11.67 12.43-6.1 14.84 3.4 1.12 5-1.16 5.68-2.67h.13l-2.2 7.6 5.2-.02s-2.2-7.3-2.2-7.6h.1c.6 1.25 2.7 3.8 5 2.82 6.7-2.72-3.2-10.47-5.4-14.97zm21.15-14.2c-2.87 4.6-11.67 12.44-6.1 14.86 3.4 1.1 5-1.2 5.68-2.7h.14l-2.25 7.6h5.2s-2.23-7.3-2.24-7.6h.05c.56 1.2 2.65 3.8 4.95 2.8 6.73-2.8-3.18-10.5-5.43-15zM48.4 71.4c-2.9 4.6-11.7 12.43-6.1 14.85 3.38 1.1 5-1.17 5.67-2.68h.14l-2.2 7.6h5.2s-2.2-7.32-2.2-7.6h.1c.6 1.23 2.7 3.78 5 2.8 6.8-2.72-3.2-10.46-5.4-14.97zm39.95-1.17c-2.87 4.6-11.67 12.42-6.1 14.84 3.4 1.1 5-1.16 5.68-2.67h.14L85.82 90l5.2-.02s-2.24-7.3-2.24-7.6h.05c.55 1.24 2.65 3.8 4.95 2.82 6.72-2.72-3.18-10.47-5.43-14.97zM48.2 119.38c2.88-4.6 11.68-12.42 6.1-14.84-3.38-1.1-5 1.17-5.67 2.68h-.14l2.2-7.6h-5.2s2.2 7.32 2.2 7.6h-.1c-.6-1.23-2.7-3.78-5-2.8-6.8 2.7 3.2 10.46 5.4 14.96zm41.68.08c2.87-4.6 11.67-12.42 6.1-14.84-3.4-1.1-5 1.17-5.68 2.68h-.14l2.25-7.6h-5.2s2.3 7.32 2.3 7.6c-.5-1.23-2.6-3.78-4.9-2.8-6.7 2.7 3.2 10.46 5.5 14.96zM68.72 137c2.87-4.58 11.67-12.4 6.1-14.83-3.4-1.1-5 1.17-5.68 2.68H69l2.25-7.6h-5.2s2.23 7.32 2.24 7.6h-.1c-.6-1.23-2.7-3.78-5-2.8-6.8 2.7 3.1 10.46 5.4 14.96zm21.8 13.02c2.87-4.6 11.67-12.42 6.1-14.84-3.4-1.1-5 1.17-5.68 2.68h-.14l2.25-7.6h-5.2s2.23 7.32 2.24 7.6H90c-.56-1.23-2.65-3.78-4.95-2.8-6.74 2.7 3.17 10.46 5.42 14.96zm-41.12 0c2.86-4.6 11.66-12.42 6.08-14.84-3.38-1.1-5 1.17-5.67 2.68h-.1l2.3-7.6h-5.2s2.3 7.32 2.3 7.6H49c-.56-1.23-2.65-3.78-4.95-2.8-6.73 2.7 3.18 10.46 5.43 14.96z" stroke-linejoin="round"/>
</svg>
