<svg xmlns="http://www.w3.org/2000/svg" version="1" viewBox="0 0 140 190"><path fill-opacity=".5" d="M21 5h103c8.86 0 16 7.14 16 16v153c0 8.86-7.14 16-16 16H21c-8.86 0-16-7.14-16-16V21c0-8.86 7.14-16 16-16z"/><path fill="#e7e7e7" d="M17 1h103c8.86 0 16 7.14 16 16v153c0 8.86-7.14 16-16 16H17c-8.86 0-16-7.14-16-16V17C1 8.14 8.14 1 17 1z"/><path fill="#c7891f" d="M19 3h103c8.86 0 16 7.14 16 16v153c0 8.86-7.14 16-16 16H19c-8.86 0-16-7.14-16-16V19c0-8.86 7.14-16 16-16z"/><path fill="#fff" d="M18 2h103c8.86 0 16 7.14 16 16v153c0 8.86-7.14 16-16 16H18c-8.86 0-16-7.14-16-16V18C2 9.14 9.14 2 18 2z"/><path fill-rule="evenodd" stroke="#000" stroke-linejoin="round" stroke-width=".76" d="M260.18 149.6c-4.84 19.24-19.68 52-10.28 62.12 5.7 4.66 8.42-4.88 9.57-11.2h.23l-3.8 31.85 8.8-.1s-3.8-30.6-3.8-31.77h.1c.92 5.16 4.45 15.83 8.33 11.77 11.34-11.4-5.36-43.83-9.15-62.67z" transform="matrix(1 0 0 .4 -239.5 -11.1)"/><path fill-rule="evenodd" stroke="#000" stroke-linejoin="round" stroke-width=".76" d="M260.18 149.6c-4.84 19.24-19.68 52-10.28 62.12 5.7 4.66 8.42-4.88 9.57-11.2h.23l-3.8 31.85 8.8-.1s-3.8-30.6-3.8-31.77h.1c.92 5.16 4.45 15.83 8.33 11.77 11.34-11.4-5.36-43.83-9.15-62.67z" transform="matrix(-1 0 0 -.4 378.4 199.7)"/><g style="font-size:40px;line-height:1.25;font-family:Arial;-inkscape-font-specification:Arial;letter-spacing:0;word-spacing:0"><path d="M23.93 12.74h5.76v18.13q0 3.55-.62 5.47-.84 2.5-3.05 4.02-2.2 1.5-5.82 1.5-4.24 0-6.52-2.36-2.29-2.38-2.3-6.97l5.44-.63q.1 2.47.72 3.48.94 1.54 2.85 1.54 1.94 0 2.74-1.09.8-1.11.8-4.59z" aria-label="J" style="font-weight:700;-inkscape-font-specification:'Arial Bold'"/></g><g style="font-size:40px;line-height:1.25;font-family:Arial;-inkscape-font-specification:Arial;letter-spacing:0;word-spacing:0"><path d="M23.93 12.74h5.76v18.13q0 3.55-.62 5.47-.84 2.5-3.05 4.02-2.2 1.5-5.82 1.5-4.24 0-6.52-2.36-2.29-2.38-2.3-6.97l5.44-.63q.1 2.47.72 3.48.94 1.54 2.85 1.54 1.94 0 2.74-1.09.8-1.11.8-4.59z" aria-label="J" style="font-weight:700;-inkscape-font-specification:'Arial Bold'" transform="rotate(180 69.45 94.53)"/></g><g style="font-size:40px;line-height:1.25;font-family:Arial;-inkscape-font-specification:Arial;letter-spacing:0;word-spacing:0;stroke-width:.529475"><path d="M23.93 12.74h5.76v18.13q0 3.55-.62 5.47-.84 2.5-3.05 4.02-2.2 1.5-5.82 1.5-4.24 0-6.52-2.36-2.29-2.38-2.3-6.97l5.44-.63q.1 2.47.72 3.48.94 1.54 2.85 1.54 1.94 0 2.74-1.09.8-1.11.8-4.59z" aria-label="J" style="font-weight:700;-inkscape-font-specification:'Arial Bold';stroke-width:.529475" transform="translate(11.78 22.04) scale(1.88867)"/></g><g style="font-size:40px;line-height:1.25;font-family:Arial;-inkscape-font-specification:Arial;letter-spacing:0;word-spacing:0;stroke-width:.529475"><path d="M23.93 12.74h5.76v18.13q0 3.55-.62 5.47-.84 2.5-3.05 4.02-2.2 1.5-5.82 1.5-4.24 0-6.52-2.36-2.29-2.38-2.3-6.97l5.44-.63q.1 2.47.72 3.48.94 1.54 2.85 1.54 1.94 0 2.74-1.09.8-1.11.8-4.59z" aria-label="J" style="font-weight:700;-inkscape-font-specification:'Arial Bold';stroke-width:.529475" transform="rotate(180 63.88 83.51) scale(1.88867)"/></g><g style="font-size:40px;line-height:1.25;font-family:Arial;-inkscape-font-specification:Arial;letter-spacing:0;word-spacing:0"><path d="M23.93 12.74h5.76v18.13q0 3.55-.62 5.47-.84 2.5-3.05 4.02-2.2 1.5-5.82 1.5-4.24 0-6.52-2.36-2.29-2.38-2.3-6.97l5.44-.63q.1 2.47.72 3.48.94 1.54 2.85 1.54 1.94 0 2.74-1.09.8-1.11.8-4.59z" aria-label="J" style="font-weight:700;-inkscape-font-specification:'Arial Bold'" transform="rotate(180 90.68 123.49)"/></g></svg>