<svg xmlns="http://www.w3.org/2000/svg" viewBox="0 0 140 190" version="1">
  <path fill-opacity=".5" d="M21 5h103c8.86 0 16 7.14 16 16v153c0 8.86-7.14 16-16 16H21c-8.86 0-16-7.14-16-16V21c0-8.86 7.14-16 16-16z"/>
  <path fill="#e7e7e7" d="M17 1h103c8.86 0 16 7.14 16 16v153c0 8.86-7.14 16-16 16H17c-8.86 0-16-7.14-16-16V17C1 8.14 8.14 1 17 1z"/>
  <path fill="#c7891f" d="M19 3h103c8.86 0 16 7.14 16 16v153c0 8.86-7.14 16-16 16H19c-8.86 0-16-7.14-16-16V19c0-8.86 7.14-16 16-16z"/>
  <path fill="#fff" d="M18 2h103c8.86 0 16 7.14 16 16v153c0 8.86-7.14 16-16 16H18c-8.86 0-16-7.14-16-16V18C2 9.14 9.14 2 18 2z"/>
  <path fill-rule="evenodd" stroke-width=".76" d="M68.9 50.33c-2.87 4.6-11.67 12.43-6.1 14.84 3.4 1.12 5-1.16 5.68-2.67h.13l-2.2 7.6 5.2-.02s-2.2-7.3-2.2-7.6h.1c.6 1.25 2.7 3.8 5 2.82 6.7-2.72-3.2-10.47-5.42-14.97zM68.72 137c2.87-4.58 11.67-12.4 6.1-14.83-3.4-1.1-5 1.17-5.68 2.68H69l2.25-7.6h-5.2s2.23 7.32 2.24 7.6h-.1c-.6-1.23-2.7-3.78-5-2.8-6.8 2.7 3.1 10.46 5.4 14.96z" stroke-linejoin="round"/>
  <path fill-rule="evenodd" d="M20.64 48.66C15.7 56.5.6 69.8 10.18 73.93c5.8 1.9 8.57-2 9.74-4.55h.24L16.3 82.32l8.94-.04s-3.85-12.44-3.86-12.9h.1c.94 2.08 4.53 6.42 8.48 4.77 11.54-4.64-5.46-17.82-9.32-25.5z"/>
  <path d="M18.8 36.3h10.9V42h-18v-5.7l9.04-9.65c.8-.9 1.4-1.75 1.8-2.6.4-.84.58-1.72.58-2.63 0-1.4-.4-2.54-1.18-3.4-.78-.85-1.8-1.28-3.1-1.28-1 0-2.1.26-3.28.78-1.18.5-2.45 1.28-3.8 2.3v-6.6c1.44-.57 2.86-1 4.27-1.3 1.4-.3 2.78-.46 4.13-.46 2.97 0 5.28.8 6.9 2.37 1.66 1.58 2.5 3.78 2.5 6.6 0 1.64-.36 3.17-1.06 4.6-.7 1.4-2.16 3.28-4.4 5.65l-5.3 5.63"/>
  <path fill-rule="evenodd" d="M118.52 140c4.93-7.82 20.04-21.15 10.46-25.26-5.8-1.9-8.57 1.98-9.74 4.54H119l3.86-12.94-8.94.04s3.85 12.44 3.86 12.92h-.1c-.94-2.1-4.53-6.44-8.48-4.78-11.54 4.63 5.46 17.82 9.32 25.48z"/>
  <path d="M120.12 152.44H109.2v-5.68h18.03v5.68l-9.05 9.67c-.8.9-1.4 1.8-1.8 2.6-.4.9-.58 1.8-.58 2.7 0 1.4.4 2.6 1.18 3.4.78.9 1.8 1.3 3.1 1.3 1 0 2.1-.3 3.28-.8 1.18-.5 2.45-1.2 3.8-2.3v6.6c-1.44.6-2.86 1-4.27 1.3-1.4.3-2.8.5-4.2.5-3 0-5.3-.8-6.9-2.3-1.7-1.6-2.5-3.8-2.5-6.6 0-1.63.3-3.15 1-4.6.7-1.4 2.1-3.3 4.4-5.64l5.3-5.62"/>
</svg>
