<svg xmlns="http://www.w3.org/2000/svg" viewBox="0 0 140 190" version="1">
  <path fill-opacity=".5" d="M21 5h103c8.86 0 16 7.14 16 16v153c0 8.86-7.14 16-16 16H21c-8.86 0-16-7.14-16-16V21c0-8.86 7.14-16 16-16z"/>
  <path fill="#e7e7e7" d="M17 1h103c8.86 0 16 7.14 16 16v153c0 8.86-7.14 16-16 16H17c-8.86 0-16-7.14-16-16V17C1 8.14 8.14 1 17 1z"/>
  <path fill="#c7891f" d="M19 3h103c8.86 0 16 7.14 16 16v153c0 8.86-7.14 16-16 16H19c-8.86 0-16-7.14-16-16V19c0-8.86 7.14-16 16-16z"/>
  <path fill="#fff" d="M18 2h103c8.86 0 16 7.14 16 16v153c0 8.86-7.14 16-16 16H18c-8.86 0-16-7.14-16-16V18C2 9.14 9.14 2 18 2z"/>
  <path fill-rule="evenodd" stroke-width=".76" d="M69.9 45c-2.86 4.6-11.66 12.43-6.1 14.84 3.4 1.12 5-1.16 5.7-2.67h.13l-2.25 7.6 5.2-.02s-2.24-7.3-2.24-7.6h.05c.5 1.25 2.6 3.8 4.9 2.83C82 57.25 72.1 49.5 69.9 45zm-.8 97.77c2.86-4.6 11.66-12.42 6.08-14.84-3.38-1.1-5 1.17-5.67 2.68h-.1l2.3-7.6-5.2.1s2.3 7.3 2.3 7.6c-.54-1.2-2.63-3.8-4.93-2.8-6.73 2.8 3.18 10.5 5.43 15zm1.17-56.55c-2.87 4.6-11.67 12.43-6.1 14.85 3.4 1.1 5-1.17 5.68-2.68H70l-2.26 7.6 5.2-.1s-2.24-7.3-2.24-7.6h.05c.55 1.2 2.65 3.8 4.95 2.8 6.72-2.8-3.18-10.5-5.43-15z" stroke-linejoin="round"/>
  <path fill-rule="evenodd" d="M20.64 48.67C15.7 56.5.6 69.8 10.18 73.93c5.8 1.9 8.57-2 9.74-4.55h.24L16.3 82.33l8.94-.04s-3.84-12.5-3.86-13h.1c.94 2.1 4.53 6.4 8.48 4.7 11.54-4.6-5.46-17.8-9.32-25.5z"/>
  <path d="M24.6 26.06c1.68.53 2.95 1.44 3.8 2.74.9 1.28 1.32 2.92 1.32 4.92 0 2.97-.94 5.24-2.82 6.8-1.88 1.53-4.63 2.3-8.24 2.3-1.27 0-2.55-.13-3.84-.38-1.27-.24-2.53-.6-3.8-1.1v-5.97c1.2.72 2.4 1.27 3.57 1.64 1.1.4 2.3.6 3.4.6 1.7 0 3-.3 3.9-1 .9-.7 1.3-1.7 1.3-3 0-1.33-.5-2.4-1.4-3.1-.9-.7-2.3-1.02-4.1-1.02h-2.5v-5h2.62c1.6 0 2.8-.3 3.6-.9.77-.6 1.17-1.54 1.17-2.8 0-1.13-.4-2.03-1.15-2.65-.78-.63-1.86-.95-3.26-.95-1 0-2.05.1-3.1.4-1.05.3-2.1.7-3.14 1.24V13c1.26-.44 2.5-.76 3.75-.97 1.24-.22 2.46-.32 3.66-.32 3.28 0 5.7.7 7.28 2 1.6 1.3 2.4 3.2 2.4 5.8 0 1.8-.35 3.2-1.1 4.3-.76 1.1-1.9 1.9-3.4 2.4"/>
  <path fill-rule="evenodd" d="M118.04 140c4.93-7.82 20.04-21.14 10.46-25.26-5.8-1.9-8.57 1.98-9.74 4.55h-.24l3.86-13h-8.94s3.85 12.4 3.86 12.9h-.1c-.94-2.1-4.53-6.5-8.48-4.8-11.54 4.6 5.46 17.8 9.32 25.5z"/>
  <path d="M114.07 162.93c-1.67-.52-2.94-1.43-3.8-2.73-.88-1.3-1.3-2.93-1.3-4.92 0-2.98.93-5.24 2.8-6.8 1.9-1.53 4.64-2.3 8.25-2.3 1.27 0 2.55.12 3.84.38 1.27.24 2.53.6 3.8 1.1v5.97c-1.2-.72-2.4-1.27-3.57-1.65-1.2-.36-2.4-.54-3.5-.54-1.7 0-3 .35-3.9 1.06s-1.4 1.73-1.4 3.06c0 1.37.4 2.4 1.4 3.1.9.7 2.3 1.06 4.1 1.06h2.5v4.98h-2.7c-1.6 0-2.8.3-3.6.9-.8.62-1.2 1.55-1.2 2.8 0 1.15.4 2.04 1.1 2.67s1.82.95 3.22.95c1.02 0 2.06-.15 3.1-.43s2.1-.7 3.15-1.3v5.7c-1.26.4-2.5.7-3.75.9-1.2.2-2.4.3-3.6.3-3.24 0-5.65-.7-7.24-2-1.6-1.27-2.4-3.2-2.4-5.77 0-1.76.4-3.2 1.16-4.33.77-1.1 1.9-1.9 3.4-2.32"/>
</svg>
