<svg xmlns="http://www.w3.org/2000/svg" viewBox="0 0 140 190" version="1">
  <path fill-opacity=".5" d="M21 5h103c8.86 0 16 7.14 16 16v153c0 8.86-7.14 16-16 16H21c-8.86 0-16-7.14-16-16V21c0-8.86 7.14-16 16-16z"/>
  <path fill="#e7e7e7" d="M17 1h103c8.86 0 16 7.14 16 16v153c0 8.86-7.14 16-16 16H17c-8.86 0-16-7.14-16-16V17C1 8.14 8.14 1 17 1z"/>
  <path fill="#c7891f" d="M19 3h103c8.86 0 16 7.14 16 16v153c0 8.86-7.14 16-16 16H19c-8.86 0-16-7.14-16-16V19c0-8.86 7.14-16 16-16z"/>
  <path fill="#fff" d="M18 2h103c8.86 0 16 7.14 16 16v153c0 8.86-7.14 16-16 16H18c-8.86 0-16-7.14-16-16V18C2 9.14 9.14 2 18 2z"/>
  <path fill-rule="evenodd" stroke-width=".76" d="M51.27 45c-2.87 4.6-11.67 12.43-6.1 14.84 3.4 1.12 5-1.16 5.68-2.67H51l-2.26 7.6 5.2-.02s-2.23-7.3-2.24-7.6h.05c.56 1.25 2.65 3.8 4.95 2.83 6.73-2.73-3.18-10.48-5.43-14.98zm1.83 96.77c2.86-4.6 11.66-12.42 6.08-14.84-3.38-1.1-5 1.17-5.67 2.68h-.1l2.3-7.6-5.2.1s2.3 7.3 2.3 7.6c-.5-1.2-2.6-3.8-4.9-2.8-6.7 2.8 3.2 10.5 5.5 15zM87.27 45c-2.87 4.6-11.67 12.43-6.1 14.84 3.4 1.12 5-1.16 5.68-2.67H87l-2.26 7.6 5.2-.02s-2.24-7.3-2.24-7.6h.05c.55 1.25 2.65 3.8 4.95 2.83 6.72-2.73-3.18-10.48-5.43-14.98zm.83 96.77c2.86-4.6 11.66-12.42 6.08-14.84-3.38-1.1-5 1.17-5.67 2.68h-.1l2.3-7.6-5.2.1s2.3 7.3 2.3 7.6c-.5-1.2-2.6-3.8-4.9-2.8-6.7 2.8 3.2 10.5 5.5 15z" stroke-linejoin="round"/>
  <path fill-rule="evenodd" d="M20.64 48.67C15.7 56.5.6 69.8 10.18 73.93c5.8 1.9 8.57-2 9.74-4.55h.24L16.3 82.33l8.94-.04s-3.84-12.5-3.86-13h.1c.94 2.1 4.53 6.4 8.48 4.7 11.54-4.6-5.46-17.8-9.32-25.5z"/>
  <path d="M12.36 12.24h15.9v5.68h-10.8v4.65c.5-.16.98-.28 1.47-.36.5-.1 1-.1 1.54-.1 3.02 0 5.38.9 7.06 2.8 1.68 1.8 2.53 4.4 2.53 7.7s-.92 5.8-2.76 7.6c-1.83 1.9-4.37 2.8-7.63 2.8-1.4 0-2.8-.1-4.18-.5-1.4-.3-2.8-.8-4.2-1.5v-6.1c1.3 1 2.6 1.7 3.8 2.1 1.2.5 2.3.8 3.4.8 1.5 0 2.7-.5 3.6-1.4.9-.9 1.3-2.1 1.3-3.7s-.5-2.8-1.4-3.7c-.87-.9-2.1-1.33-3.64-1.33-.9 0-1.9.1-2.9.4-1 .27-2.16.7-3.36 1.3v-17"/>
  <path fill-rule="evenodd" d="M118.04 140c4.93-7.82 20.04-21.14 10.46-25.26-5.8-1.9-8.57 1.98-9.74 4.55h-.24l3.86-13h-8.94s3.85 12.4 3.86 12.9h-.1c-.94-2.1-4.53-6.5-8.48-4.8-11.54 4.6 5.46 17.8 9.32 25.5z"/>
  <path d="M126.32 177h-15.9v-5.7h10.8v-4.63c-.5.16-.98.28-1.47.36-.5.1-1 .14-1.54.14-3 0-5.3-.9-7-2.75-1.7-1.82-2.5-4.37-2.5-7.63s.9-5.8 2.8-7.7c1.9-1.9 4.4-2.8 7.7-2.8 1.4 0 2.8.1 4.2.5 1.4.3 2.8.8 4.1 1.5v6.1c-1.3-1-2.6-1.7-3.8-2.1-1.2-.5-2.3-.8-3.4-.8-1.5 0-2.7.4-3.6 1.3-.9.9-1.32 2.1-1.32 3.7 0 1.53.46 2.8 1.36 3.7.87.9 2.1 1.32 3.64 1.32.9 0 1.9-.17 2.92-.46 1.05-.28 2.17-.73 3.37-1.33v17"/>
  <path fill-rule="evenodd" stroke-width=".76" d="M69.9 82c-2.86 4.6-11.66 12.43-6.1 14.84 3.4 1.12 5-1.16 5.7-2.67h.13l-2.25 7.6 5.2-.02s-2.24-7.3-2.24-7.6h.05c.5 1.25 2.6 3.8 4.9 2.83C82 94.25 72.1 86.5 69.9 82z" stroke-linejoin="round"/>
</svg>
