<svg xmlns="http://www.w3.org/2000/svg" viewBox="0 0 140 190" version="1">
  <path fill-opacity=".5" d="M21 5h103c8.86 0 16 7.14 16 16v153c0 8.86-7.14 16-16 16H21c-8.86 0-16-7.14-16-16V21c0-8.86 7.14-16 16-16z"/>
  <path fill="#e7e7e7" d="M17 1h103c8.86 0 16 7.14 16 16v153c0 8.86-7.14 16-16 16H17c-8.86 0-16-7.14-16-16V17C1 8.14 8.14 1 17 1z"/>
  <path fill="#c7891f" d="M19 3h103c8.86 0 16 7.14 16 16v153c0 8.86-7.14 16-16 16H19c-8.86 0-16-7.14-16-16V19c0-8.86 7.14-16 16-16z"/>
  <path fill="#fff" d="M18 2h103c8.86 0 16 7.14 16 16v153c0 8.86-7.14 16-16 16H18c-8.86 0-16-7.14-16-16V18C2 9.14 9.14 2 18 2z"/>
  <path fill-rule="evenodd" stroke-width=".76" d="M51.27 45c-2.87 4.6-11.67 12.43-6.1 14.84 3.4 1.12 5-1.16 5.68-2.67H51l-2.26 7.6 5.2-.02s-2.23-7.3-2.24-7.6h.05c.56 1.25 2.65 3.8 4.95 2.83 6.73-2.73-3.18-10.48-5.43-14.98zm1.83 96.77c2.86-4.6 11.66-12.42 6.08-14.84-3.38-1.1-5 1.17-5.67 2.68h-.1l2.3-7.6-5.2.1s2.3 7.3 2.3 7.6c-.55-1.2-2.64-3.8-4.94-2.8-6.73 2.8 3.18 10.5 5.43 15zM87.27 45c-2.87 4.6-11.67 12.43-6.1 14.84 3.4 1.12 5-1.16 5.68-2.67H87l-2.26 7.6 5.2-.02s-2.24-7.3-2.24-7.6h.05c.55 1.25 2.65 3.8 4.95 2.83 6.72-2.73-3.18-10.48-5.43-14.98zm.83 96.77c2.86-4.6 11.66-12.42 6.08-14.84-3.38-1.1-5 1.17-5.67 2.68h-.1l2.3-7.6-5.2.1s2.3 7.3 2.3 7.6c-.55-1.2-2.64-3.8-4.94-2.8-6.73 2.8 3.18 10.5 5.43 15z" stroke-linejoin="round"/>
  <path fill-rule="evenodd" d="M20.64 48.66C15.72 56.5.6 69.8 10.18 73.94c5.8 1.9 8.58-2 9.75-4.55h.23L16.3 82.3l8.94-.03S21.4 69.8 21.38 69.33h.1c.94 2.1 4.53 6.43 8.48 4.78 11.55-4.6-5.45-17.8-9.32-25.5z"/>
  <path d="M21.07 27.43c-1.12 0-1.96.44-2.53 1.32-.55.88-.83 2.2-.83 3.94 0 1.7.3 3 .9 3.9.6.8 1.4 1.3 2.6 1.3s2-.5 2.5-1.3c.6-.9.9-2.2.9-4 0-1.8-.3-3.1-.83-4-.56-.9-1.4-1.3-2.53-1.3M29 13v5.53c-1.05-.6-2.04-1.05-2.97-1.33-.96-.3-1.87-.42-2.75-.42-1.9 0-3.4.64-4.45 1.93-1.06 1.3-1.7 3.2-1.85 5.7.73-.6 1.52-1.1 2.37-1.4.85-.3 1.78-.5 2.8-.5 2.53 0 4.57.9 6.12 2.7 1.56 1.8 2.34 4.2 2.34 7.1 0 3.2-.8 5.8-2.6 7.7-1.7 2-4 2.9-7 2.9-3.2 0-5.7-1.3-7.5-3.9-1.7-2.6-2.6-6.33-2.6-11.2 0-4.93 1.1-8.82 3.1-11.64 2.1-2.86 4.9-4.3 8.5-4.3 1.2 0 2.3.1 3.3.3 1.1.2 2.1.55 3.2.98"/>
  <path fill-rule="evenodd" d="M118.04 140c4.92-7.82 20.03-21.15 10.46-25.26-5.8-1.9-8.58 1.98-9.75 4.55h-.23l3.86-13h-8.94s3.85 12.4 3.86 12.9h-.1c-.94-2.1-4.53-6.5-8.48-4.8-11.55 4.6 5.45 17.8 9.32 25.5z"/>
  <path d="M117.6 161.74c1.13 0 1.97-.45 2.54-1.33.55-.8.83-2.1.83-3.9 0-1.7-.28-3-.83-3.9-.57-.8-1.4-1.3-2.53-1.3-1.1 0-1.9.5-2.5 1.3-.5.9-.8 2.2-.8 4s.3 3.1.9 4c.6.9 1.4 1.35 2.5 1.35m-7.9 14.4v-5.53c1.1.6 2.1 1.04 3 1.3.9.3 1.9.46 2.7.46 1.9 0 3.4-.64 4.5-1.92 1.1-1.26 1.7-3.15 1.9-5.7-.7.7-1.5 1.18-2.35 1.5-.85.33-1.8.5-2.8.5-2.53 0-4.57-.9-6.12-2.7-1.54-1.8-2.32-4.14-2.32-7.05 0-3.2.85-5.8 2.6-7.7 1.73-1.93 4.06-2.9 7-2.9 3.2 0 5.7 1.3 7.5 3.94 1.74 2.62 2.6 6.4 2.6 11.2 0 4.95-1 8.84-3.06 11.67-2.07 2.83-4.9 4.25-8.5 4.25-1.14 0-2.25-.1-3.33-.32-1.1-.2-2.13-.5-3.2-.93"/>
  <path fill-rule="evenodd" stroke-width=".76" d="M51.27 81c-2.87 4.6-11.67 12.43-6.1 14.84 3.4 1.12 5-1.16 5.68-2.67H51l-2.26 7.6 5.2-.02s-2.23-7.3-2.24-7.6h.05c.56 1.25 2.65 3.8 4.95 2.83 6.73-2.73-3.18-10.48-5.43-14.98zm35.46 19.77c2.87-4.6 11.67-12.42 6.1-14.84-3.4-1.1-5 1.17-5.68 2.68H87l2.26-7.6-5.2.1s2.23 7.3 2.24 7.6h-.05c-.56-1.2-2.65-3.8-4.95-2.8-6.73 2.8 3.18 10.5 5.43 15z" stroke-linejoin="round"/>
</svg>
