<svg xmlns="http://www.w3.org/2000/svg" viewBox="0 0 140 190" version="1">
  <path fill-opacity=".5" d="M21 5h103c8.86 0 16 7.14 16 16v153c0 8.86-7.14 16-16 16H21c-8.86 0-16-7.14-16-16V21c0-8.86 7.14-16 16-16z"/>
  <path fill="#e7e7e7" d="M17 1h103c8.86 0 16 7.14 16 16v153c0 8.86-7.14 16-16 16H17c-8.86 0-16-7.14-16-16V17C1 8.14 8.14 1 17 1z"/>
  <path fill="#c7891f" d="M19 3h103c8.86 0 16 7.14 16 16v153c0 8.86-7.14 16-16 16H19c-8.86 0-16-7.14-16-16V19c0-8.86 7.14-16 16-16z"/>
  <path fill="#fff" d="M18 2h103c8.86 0 16 7.14 16 16v153c0 8.86-7.14 16-16 16H18c-8.86 0-16-7.14-16-16V18C2 9.14 9.14 2 18 2z"/>
  <path fill-rule="evenodd" stroke-width=".76" d="M51.27 45c-2.87 4.6-11.67 12.43-6.1 14.84 3.4 1.12 5-1.16 5.68-2.67H51l-2.26 7.6 5.2-.02s-2.23-7.3-2.24-7.6h.05c.56 1.25 2.65 3.8 4.95 2.83 6.73-2.73-3.18-10.48-5.43-14.98zm1.83 96.77c2.86-4.6 11.66-12.42 6.08-14.84-3.38-1.1-5 1.17-5.67 2.68h-.1l2.26-7.6-5.2.06s2.23 7.3 2.24 7.6h-.06c-.55-1.24-2.64-3.8-4.94-2.82-6.74 2.73 3.17 10.48 5.42 14.98zM87.27 45c-2.87 4.6-11.67 12.43-6.1 14.84 3.4 1.12 5-1.16 5.68-2.67H87l-2.26 7.6 5.2-.02s-2.24-7.3-2.24-7.6h.05c.55 1.25 2.65 3.8 4.95 2.83 6.72-2.73-3.18-10.48-5.43-14.98zm.83 96.77c2.86-4.6 11.66-12.42 6.08-14.84-3.38-1.1-5 1.17-5.67 2.68h-.1l2.26-7.6-5.2.06s2.23 7.3 2.24 7.6h-.06c-.55-1.24-2.64-3.8-4.94-2.82-6.74 2.73 3.17 10.48 5.42 14.98z" stroke-linejoin="round"/>
  <path fill-rule="evenodd" d="M20.64 48.66C15.72 56.5.6 69.8 10.18 73.94c5.8 1.9 8.58-2 9.75-4.55h.23L16.3 82.3l8.94-.03S21.4 69.8 21.38 69.33h.1c.94 2.1 4.53 6.43 8.48 4.78 11.55-4.6-5.45-17.8-9.32-25.5z"/>
  <path d="M11.28 12h18.7v4.36L20.3 42h-6.23l9.15-24.3H11.28V12"/>
  <path fill-rule="evenodd" d="M118.13 140c4.92-7.82 20.03-21.15 10.46-25.26-5.86-1.9-8.6 1.98-9.8 4.55h-.23l3.86-13-8.94.04s3.84 12.44 3.85 12.92h-.1c-.96-2.1-4.55-6.45-8.5-4.8-11.55 4.64 5.45 17.83 9.32 25.5z"/>
  <path d="M127.5 177h-18.7v-4.36l9.67-25.64h6.23l-9.15 24.3h11.95v5.7"/>
  <path fill-rule="evenodd" stroke-width=".76" d="M69.9 60c-2.86 4.6-11.66 12.43-6.1 14.84 3.4 1.12 5-1.16 5.7-2.67h.13l-2.25 7.6 5.2-.02s-2.24-7.3-2.24-7.6h.05c.5 1.25 2.6 3.8 4.9 2.83 6.75-2.73-3.15-10.48-5.4-14.98zm.2 66.77c2.86-4.6 11.66-12.42 6.08-14.84-3.38-1.1-5 1.17-5.67 2.68h-.1l2.26-7.6-5.2.06s2.23 7.3 2.24 7.6h-.06c-.55-1.24-2.64-3.8-4.94-2.82-6.74 2.73 3.17 10.48 5.42 14.98zM70.27 83c-2.87 4.6-11.67 12.43-6.1 14.84 3.4 1.12 5-1.16 5.68-2.67H70l-2.26 7.6 5.2-.02s-2.24-7.3-2.24-7.6h.05c.55 1.25 2.65 3.8 4.95 2.83 6.72-2.73-3.18-10.48-5.43-14.98z" stroke-linejoin="round"/>
</svg>
