<svg xmlns="http://www.w3.org/2000/svg" viewBox="0 0 140 190" version="1">
  <path fill-opacity=".5" d="M21 5h103c8.86 0 16 7.14 16 16v153c0 8.86-7.14 16-16 16H21c-8.86 0-16-7.14-16-16V21c0-8.86 7.14-16 16-16z"/>
  <path fill="#e7e7e7" d="M17 1h103c8.86 0 16 7.14 16 16v153c0 8.86-7.14 16-16 16H17c-8.86 0-16-7.14-16-16V17C1 8.14 8.14 1 17 1z"/>
  <path fill="#c7891f" d="M19 3h103c8.86 0 16 7.14 16 16v153c0 8.86-7.14 16-16 16H19c-8.86 0-16-7.14-16-16V19c0-8.86 7.14-16 16-16z"/>
  <path fill="#fff" d="M18 2h103c8.86 0 16 7.14 16 16v153c0 8.86-7.14 16-16 16H18c-8.86 0-16-7.14-16-16V18C2 9.14 9.14 2 18 2z"/>
  <path fill-rule="evenodd" stroke-width=".76" d="M48.9 36.23c-2.86 4.6-11.66 12.42-6.08 14.84 3.38 1.1 5-1.17 5.67-2.67h.1L46.4 56l5.2-.02s-2.23-7.3-2.24-7.6h.05c.6 1.24 2.7 3.8 5 2.82 6.8-2.72-3.2-10.47-5.4-14.97zm41.15-.1c-2.87 4.6-11.67 12.44-6.1 14.86 3.4 1.1 5-1.2 5.68-2.7h.14l-2.25 7.6h5.2s-2.23-7.3-2.24-7.6h.05c.56 1.2 2.65 3.8 4.95 2.8 6.73-2.8-3.18-10.5-5.43-15zM48.4 71.4c-2.9 4.6-11.7 12.43-6.1 14.85 3.38 1.1 5-1.17 5.67-2.68h.14l-2.2 7.6h5.2s-2.2-7.32-2.2-7.6h.1c.6 1.23 2.7 3.78 5 2.8 6.8-2.72-3.2-10.46-5.4-14.97zm39.95-1.17c-2.87 4.6-11.67 12.42-6.1 14.84 3.4 1.1 5-1.16 5.68-2.67h.14c0 .28-.13 5.83-.48 6.16-.8.72-1.8.66-1.8.66v.8l5.2-.04v-.77s-1 .1-1.8-.6c-.4-.3-.5-5.8-.5-6.1.5 1.3 2.6 3.8 4.9 2.8 6.7-2.7-3.2-10.4-5.5-14.9zM48.2 119.38c2.88-4.6 11.68-12.42 6.1-14.84-3.38-1.1-5 1.17-5.67 2.68h-.14l2.2-7.6h-5.2s2.2 7.32 2.2 7.6h-.1c-.6-1.23-2.7-3.78-5-2.8-6.8 2.7 3.2 10.46 5.4 14.96zm41.68.08c2.87-4.6 11.67-12.42 6.1-14.84-3.4-1.1-5 1.17-5.68 2.68h-.14l2.25-7.6h-5.2s2.3 7.32 2.3 7.6c-.5-1.23-2.6-3.78-4.9-2.8-6.7 2.7 3.2 10.46 5.5 14.96zm.64 30.56c2.87-4.6 11.67-12.42 6.1-14.84-3.4-1.1-5 1.17-5.68 2.68h-.14l2.25-7.6h-5.2s2.23 7.32 2.24 7.6H90c-.56-1.23-2.65-3.78-4.95-2.8-6.74 2.7 3.17 10.46 5.42 14.96zm-41.12 0c2.86-4.6 11.66-12.42 6.08-14.84-3.38-1.1-5 1.17-5.67 2.68h-.1l2.3-7.6h-5.2s2.3 7.32 2.3 7.6H49c-.56-1.23-2.65-3.78-4.95-2.8-6.73 2.7 3.18 10.46 5.43 14.96z" stroke-linejoin="round"/>
  <path fill-rule="evenodd" d="M20.64 48.66C15.72 56.5.6 69.8 10.18 73.94c5.8 1.9 8.58-2 9.75-4.55h.23L16.3 82.3l8.94-.03S21.4 69.8 21.38 69.33h.1c.94 2.1 4.53 6.43 8.48 4.78 11.55-4.6-5.45-17.8-9.32-25.5z"/>
  <path d="M20.6 28.82c-1.2 0-2.1.4-2.75 1.18s-.97 1.92-.97 3.4c0 1.47.32 2.6.97 3.4.64.77 1.56 1.16 2.75 1.16 1.2 0 2.1-.4 2.73-1.17.63-.8.95-2 .95-3.4 0-1.5-.32-2.7-.95-3.4-.63-.8-1.54-1.2-2.73-1.2m-4.67-2.6c-1.5-.6-2.64-1.4-3.4-2.6-.77-1.2-1.15-2.6-1.15-4.3 0-2.6.78-4.5 2.35-5.8 1.56-1.4 3.85-2 6.87-2 3 0 5.3.6 6.85 2C29 15 29.8 16.9 29.8 19.4c0 1.7-.4 3.1-1.17 4.3-.77 1.2-1.9 2-3.4 2.6 1.68.55 2.94 1.46 3.8 2.74.86 1.3 1.3 2.9 1.3 4.8 0 3-.83 5.2-2.47 6.8-1.62 1.5-4.04 2.3-7.26 2.3-3.22 0-5.66-.74-7.3-2.25-1.64-1.5-2.46-3.8-2.46-6.78 0-1.95.42-3.54 1.27-4.8.9-1.28 2.2-2.2 3.9-2.76m1.5-6c0 1.2.3 2.1.8 2.74.6.65 1.4.97 2.4.97s1.8-.3 2.3-.95.9-1.5.9-2.7-.2-2.1-.8-2.75c-.5-.7-1.3-1-2.3-1-1 0-1.8.3-2.3.95-.52.66-.8 1.57-.8 2.75"/>
  <path fill-rule="evenodd" d="M118 140c4.9-7.82 20.02-21.15 10.45-25.26-5.8-1.9-8.58 1.98-9.75 4.55h-.23l3.85-13h-8.93s3.8 12.4 3.8 12.9h-.1c-1-2.1-4.6-6.5-8.5-4.8-11.6 4.6 5.4 17.8 9.3 25.5z"/>
  <path d="M118.03 160.35c1.2 0 2.1-.4 2.75-1.2.65-.78.97-1.9.97-3.38s-.32-2.6-.97-3.4c-.64-.77-1.56-1.16-2.75-1.16s-2.1.4-2.73 1.2c-.63.8-.95 2-.95 3.4 0 1.5.32 2.6.95 3.4.63.8 1.54 1.2 2.73 1.2m4.66 2.6c1.5.6 2.6 1.4 3.4 2.6.7 1.2 1.1 2.6 1.1 4.3 0 2.58-.8 4.5-2.4 5.8s-3.9 2-6.9 2c-3 0-5.3-.62-6.9-2-1.6-1.3-2.4-3.2-2.4-5.8 0-1.7.4-3.1 1.14-4.2.76-1.15 1.9-2 3.4-2.55-1.7-.56-2.95-1.5-3.8-2.75-.87-1.28-1.3-2.87-1.3-4.8 0-3 .82-5.24 2.46-6.76 1.63-1.54 4.05-2.3 7.27-2.3s5.62.75 7.3 2.27c1.6 1.5 2.42 3.78 2.42 6.76 0 1.9-.4 3.5-1.28 4.8-.88 1.28-2.15 2.2-3.84 2.76m-1.5 6c0-1.2-.27-2.1-.8-2.74-.57-.66-1.35-1-2.37-1-1 0-1.74.3-2.3.96-.53.65-.8 1.57-.8 2.76s.26 2.1.8 2.75c.53.65 1.3.97 2.3.97 1 0 1.8-.3 2.36-.95.52-.6.8-1.52.8-2.7"/>
</svg>
