<svg xmlns="http://www.w3.org/2000/svg" viewBox="0 0 140 190" version="1">
  <path fill-opacity=".5" d="M21 5h103c8.86 0 16 7.14 16 16v153c0 8.86-7.14 16-16 16H21c-8.86 0-16-7.14-16-16V21c0-8.86 7.14-16 16-16z"/>
  <path fill="#e7e7e7" d="M17 1h103c8.86 0 16 7.14 16 16v153c0 8.86-7.14 16-16 16H17c-8.86 0-16-7.14-16-16V17C1 8.14 8.14 1 17 1z"/>
  <path fill="#c7891f" d="M19 3h103c8.86 0 16 7.14 16 16v153c0 8.86-7.14 16-16 16H19c-8.86 0-16-7.14-16-16V19c0-8.86 7.14-16 16-16z"/>
  <path fill="#fff" d="M18 2h103c8.86 0 16 7.14 16 16v153c0 8.86-7.14 16-16 16H18c-8.86 0-16-7.14-16-16V18C2 9.14 9.14 2 18 2z"/>
  <path d="M25.08 36.77h-10l-1.58 5.47H7.07l9.2-30h7.6l9.2 30h-6.43l-1.56-5.47m-8.4-5.56h6.8l-3.4-11.9-3.4 11.97M113.6 152.1h10l1.6-5.47h6.42l-9.2 30h-7.6l-9.2-30h6.43l1.56 5.47m8.48 5.56h-6.8l3.4 11.94 3.4-11.94"/>
  <path fill-rule="evenodd" d="M20.53 48.66c-2.67 0-4.83 3.27-4.83 7.3 0 3.42 4.4 9.18 4.22 11.92-1.4.78-5.77-6.44-8.02-6.44-2.67 0-4.83 3.27-4.83 7.3 0 4 2.16 7.27 4.83 7.27 2.3 0 6.28-7.2 8.02-6.5L17 82.3l7-.04S20.95 69.8 20.94 69.5H21v.02c1.7-.64 5.8 6.63 8.1 6.63 2.66 0 4.82-3.26 4.82-7.28 0-4.03-2.16-7.3-4.83-7.3-2.3 0-6.38 7.1-8.1 6.38 0-2.8 4.3-8.58 4.3-12 0-4.02-2.17-7.3-4.83-7.3zm96.9 91.3c2.65 0 4.82-3.26 4.82-7.28 0-3.43-4.4-9.2-4.22-11.93 1.4-.8 5.76 6.43 8.02 6.43 2.66 0 4.83-3.26 4.83-7.28s-2.17-7.3-4.83-7.3c-2.32 0-6.28 7.23-8.02 6.58l2.93-12.88-7.03.04s3.08 12.5 3.08 12.78c-1.7.63-5.8-6.65-8.1-6.65-2.64 0-4.8 3.27-4.8 7.3s2.16 7.28 4.83 7.28c2.25 0 6.3-7.1 8.1-6.37-.03 2.8-4.36 8.57-4.36 12 0 4.02 2.16 7.28 4.83 7.28zm-47.9-80.9c-5.73 0-10.37 7-10.37 15.65 0 7.4 9.43 19.8 9.06 25.7C65.2 102 55.84 86.5 51 86.5c-5.72 0-10.37 7.02-10.37 15.66 0 8.65 4.65 15.66 10.37 15.66 4.97 0 13.48-15.5 17.22-14.1l-6.3 27.66 15.1-.1s-6.6-26.8-6.62-27.44h.12v.03c3.67-1.38 12.47 14.25 17.4 14.25 5.72 0 10.37-7.02 10.37-15.66S93.6 86.8 87.9 86.8c-4.82 0-13.55 15.26-17.38 13.7.05-6.04 9.36-18.44 9.36-25.8 0-8.64-4.65-15.65-10.37-15.65z"/>
</svg>
