<svg xmlns="http://www.w3.org/2000/svg" viewBox="0 0 140 190" version="1">
  <path fill-opacity=".5" d="M21 5h103c8.86 0 16 7.14 16 16v153c0 8.86-7.14 16-16 16H21c-8.86 0-16-7.14-16-16V21c0-8.86 7.14-16 16-16z"/>
  <path fill="#e7e7e7" d="M17 1h103c8.86 0 16 7.14 16 16v153c0 8.86-7.14 16-16 16H17c-8.86 0-16-7.14-16-16V17C1 8.14 8.14 1 17 1z"/>
  <path fill="#c7891f" d="M19 3h103c8.86 0 16 7.14 16 16v153c0 8.86-7.14 16-16 16H19c-8.86 0-16-7.14-16-16V19c0-8.86 7.14-16 16-16z"/>
  <path fill="#fff" d="M18 2h103c8.86 0 16 7.14 16 16v153c0 8.86-7.14 16-16 16H18c-8.86 0-16-7.14-16-16V18C2 9.14 9.14 2 18 2z"/>
  <path fill-rule="evenodd" d="M20.53 48.67c-2.67 0-4.83 3.26-4.83 7.3 0 3.4 4.4 9.18 4.22 11.92-1.4.7-5.77-6.5-8.02-6.5-2.67 0-4.83 3.2-4.83 7.3 0 4 2.16 7.3 4.83 7.3 2.3 0 6.28-7.2 8.02-6.6L17 82.3l7-.03s-3.06-12.5-3.07-12.8H21c1.7-.68 5.8 6.6 8.1 6.6 2.66 0 4.82-3.27 4.82-7.3 0-4-2.16-7.28-4.83-7.28-2.3 0-6.4 7.1-8.1 6.3 0-2.8 4.3-8.6 4.3-12 0-4.1-2.2-7.3-4.9-7.3zm96.9 91.3c2.65 0 4.82-3.27 4.82-7.3 0-3.4-4.4-9.2-4.22-11.93 1.4-.78 5.76 6.44 8.02 6.44 2.66 0 4.83-3.26 4.83-7.28 0-4.03-2.17-7.3-4.83-7.3-2.32 0-6.28 7.22-8.02 6.57l2.93-12.87-7.03.04s3.08 12.48 3.08 12.78v-.02c-1.7.64-5.8-6.63-8.1-6.63-2.6 0-4.8 3.27-4.8 7.3s2.2 7.27 4.9 7.27c2.3 0 6.3-7.1 8.1-6.36 0 2.8-4.3 8.57-4.3 12 0 4.02 2.18 7.28 4.85 7.28zM68.83 50.2c-1.55 0-2.8 1.92-2.8 4.28 0 2 2.54 5.4 2.44 7-.82.47-3.35-3.77-4.67-3.77-1.53 0-2.8 2-2.8 4.3s1.27 4.3 2.8 4.3c1.37 0 3.68-4.2 4.7-3.8L66.77 70l4.1-.03s-1.8-7.33-1.8-7.5h.03c1-.37 3.4 3.9 4.74 3.9 1.55 0 2.8-1.9 2.8-4.28 0-2.4-1.25-4.3-2.8-4.3-1.3 0-3.68 4.1-4.72 3.7.03-1.7 2.55-5.1 2.55-7.1 0-2.4-1.26-4.3-2.8-4.3zM68.8 137c1.55 0 2.82-1.92 2.82-4.28 0-2-2.56-5.4-2.46-7 .82-.47 3.36 3.77 4.67 3.77 1.55 0 2.8-2 2.8-4.3s-1.25-4.3-2.8-4.3c-1.35 0-3.66 4.2-4.67 3.8l1.7-7.6h-4.1s1.8 7.3 1.8 7.5h-.03c-1 .4-3.38-3.9-4.72-3.9-1.5 0-2.8 1.9-2.8 4.3 0 2.3 1.3 4.3 2.8 4.3 1.4 0 3.7-4.2 4.8-3.8 0 1.6-2.5 5-2.5 7 0 2.36 1.3 4.3 2.8 4.3z"/>
  <path d="M18.8 36.3h10.9V42h-18v-5.7l9.04-9.65c.8-.9 1.4-1.75 1.8-2.6.4-.84.58-1.72.58-2.63 0-1.4-.4-2.54-1.18-3.4-.78-.85-1.8-1.28-3.1-1.28-1 0-2.1.26-3.28.78-1.18.5-2.45 1.28-3.8 2.3v-6.6c1.44-.57 2.86-1 4.27-1.3 1.4-.3 2.78-.46 4.13-.46 2.97 0 5.28.8 6.9 2.37 1.66 1.58 2.5 3.78 2.5 6.6 0 1.64-.36 3.17-1.06 4.6-.7 1.4-2.16 3.28-4.4 5.65l-5.3 5.63m101.32 116.2h-10.9v-5.6h18v5.7l-9.04 9.7c-.8.9-1.4 1.78-1.8 2.6-.4.87-.58 1.74-.58 2.65 0 1.4.4 2.55 1.18 3.4.78.87 1.8 1.3 3.1 1.3 1 0 2.1-.27 3.28-.8 1.18-.5 2.45-1.26 3.8-2.3v6.6c-1.44.6-2.86 1-4.27 1.3-1.4.33-2.8.48-4.2.48-3 0-5.3-.8-6.9-2.33-1.7-1.6-2.5-3.8-2.5-6.6 0-1.65.3-3.2 1-4.6.7-1.4 2.1-3.3 4.4-5.66l5.3-5.63"/>
</svg>
