<svg xmlns="http://www.w3.org/2000/svg" viewBox="0 0 140 190" version="1">
  <path fill-opacity=".5" d="M21 5h103c8.86 0 16 7.14 16 16v153c0 8.86-7.14 16-16 16H21c-8.86 0-16-7.14-16-16V21c0-8.86 7.14-16 16-16z"/>
  <path fill="#e7e7e7" d="M17 1h103c8.86 0 16 7.14 16 16v153c0 8.86-7.14 16-16 16H17c-8.86 0-16-7.14-16-16V17C1 8.14 8.14 1 17 1z"/>
  <path fill="#c7891f" d="M19 3h103c8.86 0 16 7.14 16 16v153c0 8.86-7.14 16-16 16H19c-8.86 0-16-7.14-16-16V19c0-8.86 7.14-16 16-16z"/>
  <path fill="#fff" d="M18 2h103c8.86 0 16 7.14 16 16v153c0 8.86-7.14 16-16 16H18c-8.86 0-16-7.14-16-16V18C2 9.14 9.14 2 18 2z"/>
  <path d="M12.36 12.23h15.9v5.7h-10.8v4.64c.5-.17.98-.3 1.47-.37.5-.1 1-.14 1.54-.14 3.02 0 5.38.9 7.06 2.75 1.7 1.9 2.53 4.4 2.53 7.7s-.92 5.8-2.76 7.6c-1.83 1.9-4.37 2.8-7.63 2.8-1.4 0-2.8-.1-4.18-.5-1.4-.3-2.8-.8-4.1-1.5v-6.1c1.3 1 2.6 1.7 3.8 2.1 1.2.5 2.3.7 3.4.7 1.5 0 2.7-.4 3.6-1.4.9-.9 1.3-2.1 1.3-3.7s-.5-2.8-1.4-3.7-2.1-1.3-3.7-1.3c-.98 0-1.9.1-3 .4-1.05.3-2.17.7-3.37 1.3v-17m114 164.8h-15.9v-5.7H121v-4.6c-.5.2-1 .3-1.47.4-.5.1-1 .2-1.55.2-3 0-5.3-.9-7-2.73-1.7-1.8-2.5-4.3-2.5-7.6 0-3.2.9-5.8 2.74-7.6 1.82-1.8 4.4-2.7 7.62-2.7 1.4 0 2.8.18 4.2.5 1.35.34 2.7.84 4.1 1.5v6.1c-1.37-1-2.65-1.7-3.86-2.2-1.2-.45-2.37-.7-3.44-.7-1.55 0-2.76.47-3.66 1.38-.9.9-1.32 2.17-1.32 3.7 0 1.6.42 2.85 1.32 3.76.9.9 2.1 1.38 3.62 1.38.95 0 1.9-.15 2.97-.44 1-.3 2.1-.76 3.3-1.36V177"/>
  <path fill-rule="evenodd" d="M21.46 48c-2.67 0-4.83 3.27-4.83 7.3 0 3.42 4.4 9.18 4.22 11.92-1.4.78-5.77-6.44-8.02-6.44-2.67 0-4.83 3.26-4.83 7.3s2.16 7.27 4.83 7.27c2.3 0 6.28-7.2 8.02-6.56l-2.93 12.8 7.02-.1s-3.07-12.4-3.08-12.7h.06c1.7-.7 5.8 6.6 8.1 6.6 2.67 0 4.83-3.3 4.83-7.3s-2.16-7.3-4.83-7.3c-2.24 0-6.3 7.1-8.1 6.3.03-2.8 4.37-8.6 4.37-12 0-4.1-2.2-7.3-4.9-7.3zm95.96 91.96c2.66 0 4.83-3.26 4.83-7.28 0-3.43-4.4-9.2-4.22-11.93 1.4-.8 5.76 6.43 8.02 6.43 2.66 0 4.83-3.26 4.83-7.28s-2.17-7.3-4.83-7.3c-2.32 0-6.28 7.23-8.02 6.58l2.93-12.88-7.03.04s3.08 12.5 3.08 12.78c-1.7.63-5.8-6.65-8.1-6.65-2.6 0-4.8 3.27-4.8 7.3s2.2 7.28 4.9 7.28c2.3 0 6.3-7.1 8.1-6.37 0 2.8-4.3 8.57-4.3 12 0 4.02 2.2 7.28 4.9 7.28zM51.2 45c-1.55 0-2.82 1.92-2.82 4.28 0 2 2.56 5.4 2.46 7-.82.47-3.36-3.77-4.67-3.77-1.55 0-2.8 2-2.8 4.3s1.25 4.3 2.8 4.3c1.35 0 3.66-4.2 4.67-3.8l-1.7 7.6h4.1s-1.8-7.3-1.8-7.5h.03c1-.3 3.38 3.9 4.72 3.9 1.5 0 2.8-1.9 2.8-4.2 0-2.3-1.3-4.3-2.8-4.3-1.4 0-3.7 4.2-4.8 3.8 0-1.7 2.6-5.1 2.6-7.1 0-2.3-1.3-4.3-2.8-4.3zm19 37c-1.55 0-2.82 1.92-2.82 4.28 0 2.02 2.56 5.4 2.46 7-.82.47-3.36-3.77-4.67-3.77-1.55 0-2.8 2-2.8 4.3s1.25 4.3 2.8 4.3c1.35 0 3.66-4.2 4.67-3.8l-1.7 7.6h4.1s-1.8-7.3-1.8-7.5h.03c1-.3 3.38 3.9 4.72 3.9 1.5 0 2.8-1.9 2.8-4.3 0-2.3-1.3-4.2-2.8-4.2-1.4 0-3.7 4.2-4.8 3.8 0-1.6 2.5-5 2.5-7 0-2.4-1.3-4.3-2.8-4.3zm17-37c-1.55 0-2.82 1.92-2.82 4.28 0 2 2.56 5.4 2.46 7-.82.47-3.36-3.77-4.67-3.77-1.55 0-2.8 2-2.8 4.3s1.25 4.3 2.8 4.3c1.35 0 3.66-4.2 4.67-3.8l-1.7 7.6h4.1s-1.8-7.3-1.8-7.5h.03c1-.3 3.38 3.9 4.72 3.9 1.5 0 2.8-1.9 2.8-4.2 0-2.3-1.3-4.3-2.8-4.3-1.4 0-3.7 4.2-4.8 3.8 0-1.7 2.6-5.1 2.6-7.1 0-2.3-1.3-4.3-2.8-4.3zm.96 96.78c1.55 0 2.82-1.92 2.82-4.28 0-2-2.56-5.4-2.46-7 .82-.47 3.35 3.77 4.67 3.77 1.5 0 2.8-1.92 2.8-4.28s-1.3-4.3-2.8-4.3c-1.4 0-3.7 4.2-4.7 3.8l1.7-7.6h-4.1s1.8 7.3 1.8 7.5h-.1c-1 .4-3.4-3.9-4.8-3.9-1.6 0-2.8 1.9-2.8 4.3 0 2.3 1.2 4.3 2.8 4.3 1.3 0 3.7-4.2 4.7-3.8-.1 1.6-2.6 5-2.6 7 0 2.3 1.2 4.3 2.8 4.3zm-35 0c1.55 0 2.82-1.92 2.82-4.28 0-2-2.56-5.4-2.46-7 .82-.47 3.35 3.77 4.67 3.77 1.5 0 2.8-1.92 2.8-4.28s-1.3-4.3-2.8-4.3c-1.4 0-3.7 4.2-4.7 3.8l1.7-7.6h-4.1s1.8 7.3 1.8 7.5h-.1c-1 .4-3.4-3.9-4.8-3.9-1.6 0-2.8 1.9-2.8 4.3 0 2.3 1.2 4.3 2.8 4.3 1.3 0 3.7-4.2 4.7-3.8-.1 1.6-2.6 5-2.6 7 0 2.3 1.2 4.3 2.8 4.3z"/>
</svg>
