<svg xmlns="http://www.w3.org/2000/svg" viewBox="0 0 140 190" version="1">
  <path fill-opacity=".5" d="M21 5h103c8.86 0 16 7.14 16 16v153c0 8.86-7.14 16-16 16H21c-8.86 0-16-7.14-16-16V21c0-8.86 7.14-16 16-16z"/>
  <path fill="#e7e7e7" d="M17 1h103c8.86 0 16 7.14 16 16v153c0 8.86-7.14 16-16 16H17c-8.86 0-16-7.14-16-16V17C1 8.14 8.14 1 17 1z"/>
  <path fill="#c7891f" d="M19 3h103c8.86 0 16 7.14 16 16v153c0 8.86-7.14 16-16 16H19c-8.86 0-16-7.14-16-16V19c0-8.86 7.14-16 16-16z"/>
  <path fill="#fff" d="M18 2h103c8.86 0 16 7.14 16 16v153c0 8.86-7.14 16-16 16H18c-8.86 0-16-7.14-16-16V18C2 9.14 9.14 2 18 2z"/>
  <path d="M21.07 27.43c-1.12 0-1.96.44-2.53 1.32-.55.88-.83 2.2-.83 3.94 0 1.7.3 3 .9 3.9.6.8 1.4 1.3 2.6 1.3s2-.5 2.5-1.3c.6-.9.9-2.2.9-4 0-1.8-.3-3.1-.8-4-.5-.9-1.4-1.3-2.5-1.3M29 13v5.53c-1.05-.6-2.04-1.05-2.97-1.33-.96-.3-1.87-.42-2.75-.42-1.9 0-3.4.64-4.45 1.93-1.06 1.3-1.7 3.2-1.85 5.7.73-.6 1.52-1.1 2.37-1.4.85-.3 1.78-.5 2.8-.5 2.53 0 4.57.9 6.12 2.7 1.56 1.8 2.34 4.2 2.34 7.1 0 3.2-.8 5.8-2.6 7.7-1.7 2-4 2.9-7 2.9-3.2 0-5.7-1.3-7.5-3.9-1.7-2.6-2.6-6.3-2.6-11.2 0-4.9 1.1-8.8 3.1-11.6 2.1-2.8 4.9-4.3 8.5-4.3 1.2 0 2.3.1 3.3.3 1.1.2 2.1.6 3.2 1M117.9 162c1.1 0 2-.43 2.5-1.32.6-.87.8-2.2.8-3.93 0-1.74-.3-3.06-.8-3.94-.6-.8-1.4-1.3-2.5-1.3s-1.95.5-2.5 1.3c-.56.9-.84 2.2-.84 4s.26 3.1.83 4c.5.9 1.4 1.3 2.5 1.3m-7.9 14.4V171c1 .6 2 1.05 3 1.33.9.3 1.8.45 2.7.45 1.9 0 3.4-.62 4.4-1.9 1.05-1.28 1.7-3.18 1.84-5.7-.74.66-1.53 1.15-2.4 1.47-.85.37-1.8.5-2.8.5-2.53 0-4.6-.9-6.1-2.7-1.56-1.75-2.34-4.1-2.34-7 0-3.2.9-5.8 2.6-7.7 1.77-1.95 4.1-2.9 7-2.9 3.25 0 5.75 1.3 7.5 3.93 1.78 2.7 2.66 6.4 2.66 11.2 0 5-1 8.9-3.1 11.7-2.05 2.88-4.9 4.3-8.5 4.3-1.1 0-2.23-.1-3.3-.33-1.05-.2-2.1-.5-3.2-.96"/>
  <path fill-rule="evenodd" d="M20.53 48.66c-2.67 0-4.83 3.27-4.83 7.3 0 3.42 4.4 9.18 4.22 11.92-1.4.78-5.77-6.44-8.02-6.44-2.67 0-4.83 3.27-4.83 7.3 0 4 2.16 7.27 4.83 7.27 2.3 0 6.28-7.2 8.02-6.5L17 82.3l7-.04S20.95 69.8 20.94 69.5H21v.02c1.7-.64 5.8 6.63 8.1 6.63 2.66 0 4.82-3.26 4.82-7.28 0-4.03-2.16-7.3-4.83-7.3-2.3 0-6.4 7.1-8.1 6.38 0-2.8 4.3-8.58 4.3-12 0-4.02-2.2-7.3-4.9-7.3zm97.3 91.3c2.66 0 4.82-3.26 4.82-7.28 0-3.43-4.4-9.2-4.22-11.93 1.4-.8 5.77 6.43 8.02 6.43 2.67 0 4.83-3.26 4.83-7.28s-2.16-7.3-4.83-7.3c-2.3 0-6.28 7.23-8.02 6.58l2.93-12.88-7.02.04s3.07 12.5 3.08 12.78h-.06c-1.7.63-5.8-6.65-8.1-6.65-2.67 0-4.83 3.27-4.83 7.3s2.16 7.28 4.83 7.28c2.24 0 6.3-7.1 8.1-6.37-.03 2.8-4.37 8.57-4.37 12 0 4.02 2.1 7.28 4.8 7.28zM51.2 45c-1.55 0-2.82 1.92-2.82 4.28 0 2 2.56 5.4 2.46 7-.82.47-3.36-3.77-4.67-3.77-1.55 0-2.8 2-2.8 4.3s1.25 4.3 2.8 4.3c1.35 0 3.66-4.2 4.67-3.8l-1.7 7.6h4.1s-1.8-7.3-1.8-7.5h.03c1-.3 3.38 3.9 4.72 3.9 1.5 0 2.8-1.9 2.8-4.2 0-2.3-1.3-4.3-2.8-4.3-1.4 0-3.7 4.2-4.8 3.8 0-1.7 2.6-5.1 2.6-7.1 0-2.32-1.3-4.3-2.8-4.3zm36 0c-1.55 0-2.82 1.92-2.82 4.28 0 2 2.56 5.4 2.46 7-.82.47-3.36-3.77-4.67-3.77-1.55 0-2.8 2-2.8 4.3s1.25 4.3 2.8 4.3c1.35 0 3.66-4.2 4.67-3.8l-1.7 7.6h4.1s-1.8-7.3-1.8-7.5h.03c1-.3 3.38 3.9 4.72 3.9 1.5 0 2.8-1.9 2.8-4.2 0-2.3-1.3-4.3-2.8-4.3-1.4 0-3.7 4.2-4.8 3.8 0-1.7 2.6-5.1 2.6-7.1 0-2.32-1.3-4.3-2.8-4.3zm-36 36c-1.55 0-2.82 1.92-2.82 4.28 0 2.02 2.56 5.4 2.46 7-.82.47-3.36-3.77-4.67-3.77-1.55 0-2.8 2-2.8 4.3s1.25 4.3 2.8 4.3c1.35 0 3.66-4.2 4.67-3.8l-1.7 7.6h4.1s-1.8-7.3-1.8-7.5h.03c1-.3 3.38 3.9 4.72 3.9 1.5 0 2.8-1.9 2.8-4.3 0-2.3-1.3-4.2-2.8-4.2-1.4 0-3.7 4.2-4.8 3.8 0-1.6 2.5-5 2.5-7 0-2.4-1.3-4.3-2.8-4.3zm35.6 20c1.55 0 2.82-1.92 2.82-4.28 0-2.02-2.56-5.4-2.46-7 .82-.47 3.36 3.77 4.67 3.77 1.55 0 2.8-2 2.8-4.3s-1.25-4.3-2.8-4.3c-1.35 0-3.66 4.2-4.67 3.8l1.7-7.6h-4.1s1.8 7.3 1.8 7.5h-.03c-1 .3-3.38-3.9-4.72-3.9-1.5 0-2.8 1.9-2.8 4.3 0 2.3 1.3 4.2 2.8 4.2 1.4 0 3.7-4.2 4.8-3.8 0 1.7-2.5 5.02-2.5 7.1 0 2.3 1.3 4.22 2.8 4.22zm1.36 41c1.55 0 2.82-1.92 2.82-4.28 0-2-2.56-5.4-2.46-7 .82-.47 3.35 3.77 4.67 3.77 1.5 0 2.8-2 2.8-4.3s-1.3-4.3-2.8-4.3c-1.4 0-3.7 4.2-4.7 3.8l1.7-7.6h-4.1s1.8 7.3 1.8 7.5h-.1c-1 .4-3.4-3.9-4.8-3.9-1.6 0-2.8 1.9-2.8 4.3 0 2.3 1.2 4.3 2.8 4.3 1.3 0 3.7-4.2 4.7-3.8-.1 1.6-2.6 5-2.6 7 0 2.3 1.2 4.3 2.8 4.3zm-35.36-.22c1.55 0 2.82-1.92 2.82-4.28 0-2-2.56-5.4-2.46-7 .82-.47 3.36 3.77 4.67 3.77 1.55 0 2.8-1.92 2.8-4.28s-1.25-4.3-2.8-4.3c-1.35 0-3.66 4.2-4.67 3.8l1.7-7.6h-4.1s1.8 7.3 1.8 7.5h-.03c-1 .4-3.38-3.9-4.72-3.9-1.5 0-2.8 1.9-2.8 4.3 0 2.3 1.3 4.3 2.8 4.3 1.4 0 3.7-4.2 4.8-3.8 0 1.6-2.5 5-2.5 7 0 2.3 1.3 4.3 2.8 4.3z"/>
</svg>
