<svg xmlns="http://www.w3.org/2000/svg" viewBox="0 0 140 190" version="1">
  <path fill-opacity=".5" d="M21 5h103c8.86 0 16 7.14 16 16v153c0 8.86-7.14 16-16 16H21c-8.86 0-16-7.14-16-16V21c0-8.86 7.14-16 16-16z"/>
  <path fill="#e7e7e7" d="M17 1h103c8.86 0 16 7.14 16 16v153c0 8.86-7.14 16-16 16H17c-8.86 0-16-7.14-16-16V17C1 8.14 8.14 1 17 1z"/>
  <path fill="#c7891f" d="M19 3h103c8.86 0 16 7.14 16 16v153c0 8.86-7.14 16-16 16H19c-8.86 0-16-7.14-16-16V19c0-8.86 7.14-16 16-16z"/>
  <path fill="#fff" d="M18 2h103c8.86 0 16 7.14 16 16v153c0 8.86-7.14 16-16 16H18c-8.86 0-16-7.14-16-16V18C2 9.14 9.14 2 18 2z"/>
  <path d="M11.28 12h18.7v4.36L20.3 42h-6.23l9.15-24.3H11.28V12M127.5 177h-18.7v-4.36l9.67-25.64h6.23l-9.15 24.3h11.95v5.7"/>
  <path fill-rule="evenodd" d="M20.53 48.66c-2.67 0-4.83 3.27-4.83 7.3 0 3.42 4.4 9.18 4.22 11.92-1.4.78-5.77-6.44-8.02-6.44-2.67 0-4.83 3.27-4.83 7.3 0 4 2.16 7.27 4.83 7.27 2.3 0 6.28-7.2 8.02-6.5L17 82.3l7-.04S20.95 69.8 20.94 69.5H21v.02c1.7-.64 5.8 6.63 8.1 6.63 2.66 0 4.82-3.26 4.82-7.28 0-4.03-2.16-7.3-4.83-7.3-2.3 0-6.4 7.1-8.1 6.38 0-2.8 4.3-8.58 4.3-12 0-4.02-2.2-7.3-4.9-7.3zM51.2 45c-1.55 0-2.82 1.92-2.82 4.28 0 2 2.56 5.4 2.46 7-.82.47-3.36-3.77-4.67-3.77-1.55 0-2.8 2-2.8 4.3s1.25 4.3 2.8 4.3c1.35 0 3.66-4.2 4.67-3.8l-1.7 7.6h4.1s-1.8-7.3-1.8-7.5h.03c1-.3 3.38 3.9 4.72 3.9 1.5 0 2.8-1.9 2.8-4.2 0-2.33-1.3-4.3-2.8-4.3-1.4 0-3.7 4.2-4.8 3.78 0-1.7 2.6-5.1 2.6-7.1 0-2.36-1.3-4.3-2.8-4.3zm18.64 15.22c-1.55 0-2.82 1.92-2.82 4.28 0 2.02 2.56 5.4 2.46 7-.82.47-3.35-3.77-4.67-3.77-1.5 0-2.8 1.92-2.8 4.28s1.3 4.3 2.8 4.3c1.4 0 3.7-4.2 4.7-3.8L67.8 80l4.1-.02s-1.8-7.34-1.8-7.5h.03c1-.38 3.4 3.9 4.75 3.9 1.55 0 2.8-1.92 2.8-4.3 0-2.35-1.25-4.27-2.8-4.27-1.3 0-3.68 4.2-4.72 3.8.03-1.6 2.55-5 2.55-7 0-2.3-1.2-4.2-2.8-4.2zM87.2 45c-1.55 0-2.82 1.92-2.82 4.28 0 2 2.56 5.4 2.46 7-.82.47-3.36-3.77-4.67-3.77-1.55 0-2.8 2-2.8 4.3s1.25 4.3 2.8 4.3c1.35 0 3.66-4.2 4.67-3.8l-1.7 7.6h4.1s-1.8-7.3-1.8-7.5h.03c1-.3 3.38 3.9 4.72 3.9 1.5 0 2.8-1.9 2.8-4.2 0-2.33-1.3-4.3-2.8-4.3-1.4 0-3.7 4.2-4.8 3.78 0-1.7 2.6-5.1 2.6-7.1 0-2.36-1.3-4.3-2.8-4.3zm-17 38c-1.55 0-2.82 1.92-2.82 4.28 0 2.02 2.56 5.4 2.46 7-.82.47-3.36-3.77-4.67-3.77-1.55 0-2.8 2-2.8 4.3s1.25 4.3 2.8 4.3c1.35 0 3.66-4.2 4.67-3.8l-1.7 7.6h4.1s-1.8-7.3-1.8-7.5h.03c1-.3 3.38 3.9 4.72 3.9 1.5 0 2.8-1.9 2.8-4.3 0-2.3-1.3-4.2-2.8-4.2-1.4 0-3.7 4.2-4.8 3.78 0-1.64 2.5-5.03 2.5-7.04 0-2.4-1.3-4.3-2.8-4.3zm-.04 43.78c1.55 0 2.82-1.92 2.82-4.28 0-2-2.56-5.4-2.46-7 .82-.47 3.35 3.77 4.67 3.77 1.5 0 2.8-1.92 2.8-4.28s-1.3-4.3-2.8-4.3c-1.4 0-3.7 4.2-4.7 3.8l1.7-7.6h-4.1s1.8 7.3 1.8 7.5h-.1c-1 .4-3.4-3.9-4.8-3.9-1.6 0-2.8 1.9-2.8 4.3 0 2.3 1.2 4.3 2.8 4.3 1.3 0 3.7-4.2 4.7-3.8-.1 1.6-2.6 5-2.6 7 0 2.32 1.24 4.3 2.8 4.3zm18 15c1.55 0 2.82-1.92 2.82-4.28 0-2-2.56-5.4-2.46-7 .82-.47 3.35 3.77 4.67 3.77 1.5 0 2.8-1.92 2.8-4.28s-1.3-4.3-2.8-4.3c-1.4 0-3.7 4.2-4.7 3.8l1.7-7.6h-4.1s1.8 7.3 1.8 7.5h-.1c-1 .4-3.4-3.9-4.8-3.9-1.6 0-2.8 1.9-2.8 4.3 0 2.3 1.2 4.3 2.8 4.3 1.3 0 3.7-4.2 4.7-3.8-.1 1.6-2.6 5-2.6 7 0 2.32 1.24 4.3 2.8 4.3zm-35.36 0c1.55 0 2.82-1.92 2.82-4.28 0-2-2.56-5.4-2.46-7 .82-.47 3.36 3.77 4.67 3.77 1.55 0 2.8-1.92 2.8-4.28s-1.25-4.3-2.8-4.3c-1.35 0-3.66 4.2-4.67 3.8l1.7-7.6h-4.1s1.8 7.3 1.8 7.5h-.03c-1 .4-3.38-3.9-4.72-3.9-1.5 0-2.8 1.9-2.8 4.3 0 2.3 1.3 4.3 2.8 4.3 1.4 0 3.7-4.2 4.8-3.8 0 1.6-2.5 5-2.5 7 0 2.32 1.3 4.3 2.8 4.3zm64.74-1.82c2.67 0 4.83-3.26 4.83-7.28 0-3.43-4.4-9.2-4.22-11.93 1.4-.8 5.77 6.43 8.02 6.43 2.67 0 4.83-3.26 4.83-7.28s-2.16-7.3-4.83-7.3c-2.3 0-6.28 7.23-8.02 6.58l2.93-12.88-7.02.04s3.07 12.5 3.08 12.78h-.06c-1.7.63-5.8-6.65-8.1-6.65-2.67 0-4.83 3.27-4.83 7.3s2.16 7.28 4.83 7.28c2.24 0 6.3-7.1 8.1-6.37-.03 2.8-4.37 8.57-4.37 12 0 4.02 2.2 7.28 4.9 7.28z"/>
</svg>
