<?xml version="1.0" encoding="UTF-8" standalone="no"?>
<!-- Generator: Adobe Illustrator 14.0.0, SVG Export Plug-In . SVG Version: 6.00 Build 43363)  -->

<svg
   xmlns:dc="http://purl.org/dc/elements/1.1/"
   xmlns:cc="http://creativecommons.org/ns#"
   xmlns:rdf="http://www.w3.org/1999/02/22-rdf-syntax-ns#"
   xmlns:svg="http://www.w3.org/2000/svg"
   xmlns="http://www.w3.org/2000/svg"
   xmlns:sodipodi="http://sodipodi.sourceforge.net/DTD/sodipodi-0.dtd"
   xmlns:inkscape="http://www.inkscape.org/namespaces/inkscape"
   version="1.1"
   id="Layer_1"
   x="0px"
   y="0px"
   width="198.3885"
   height="279.3613"
   viewBox="0 0 198.3885 279.3613"
   enable-background="new 0 0 1440 1440"
   xml:space="preserve"
   inkscape:version="0.91 r13725"
   sodipodi:docname="leopardo.svg"><metadata
     id="metadata771"><rdf:RDF><cc:Work
         rdf:about=""><dc:format>image/svg+xml</dc:format><dc:type
           rdf:resource="http://purl.org/dc/dcmitype/StillImage" /><dc:title></dc:title></cc:Work></rdf:RDF></metadata><defs
     id="defs769" /><sodipodi:namedview
     pagecolor="#ffffff"
     bordercolor="#666666"
     borderopacity="1"
     objecttolerance="10"
     gridtolerance="10"
     guidetolerance="10"
     inkscape:pageopacity="0"
     inkscape:pageshadow="2"
     inkscape:window-width="1920"
     inkscape:window-height="1018"
     id="namedview767"
     showgrid="false"
     fit-margin-top="0"
     fit-margin-left="0"
     fit-margin-right="0"
     fit-margin-bottom="0"
     inkscape:zoom="0.64641035"
     inkscape:cx="-22.078712"
     inkscape:cy="-70.203187"
     inkscape:window-x="-8"
     inkscape:window-y="-8"
     inkscape:window-maximized="1"
     inkscape:current-layer="Layer_1" /><g
     id="g353"
     transform="translate(-720.0055,-331.593)"><path
       d="m 909.463,576.279 c 11.104,-101.958 -20.455,-132.56 -33.003,-140.56 9.086,-5.199 15.031,-13.171 15.479,-22 0.211,-4.142 -0.804,-8.149 -2.817,-11.852 0.326,-2.017 0.546,-4.079 0.653,-6.179 0.434,-8.549 -1.062,-16.665 -4.036,-23.763 5.28,-4.099 11.603,-25.085 6.979,-26.507 -13.36,-4.113 -23.323,3.148 -25.601,5.023 -4.527,-2.481 -9.54,-3.977 -14.858,-4.248 -3.71,-0.188 -7.332,0.233 -10.796,1.187 -2.572,-4.791 -13.572,-23.656 -21.508,-12.099 -3.385,4.928 -6.161,23.203 0.18,27.205 -5.859,7.838 -9.642,17.958 -10.209,29.15 -0.065,1.286 -0.085,2.562 -0.065,3.828 -3.43,4.033 -5.499,8.721 -5.757,13.794 -0.567,11.216 4.134,20.599 17.152,26.489 -7.741,3.195 -17.54,10.357 -23.449,26.42 -0.015,-0.002 -0.03,-0.004 -0.045,-0.006 0,0 -0.017,0.097 -0.052,0.274 -1.33,3.665 -2.457,7.788 -3.315,12.428 -3.978,12.157 -11.864,29.603 -25.661,36.27 -2.447,1.184 -4.768,2.697 -6.948,4.503 -4.67,-0.085 -8.272,5.165 -8.272,5.165 0,0 -88.476,102.377 22.107,88.937 0,0 14.006,-1.275 23.459,-8.189 4.388,3.067 12.385,2.951 21.523,2.951 13.86,0 25.098,0.273 25.098,-10.712 0,-2.478 -0.574,-4.846 -1.618,-7.033 6.643,0.973 15.675,1.516 24.927,-0.298 -0.528,1.608 -0.812,3.295 -0.812,5.035 0,10.988 11.237,10.712 25.099,10.712 13.86,0 25.097,0.276 25.097,-10.712 -0.002,-6.105 -3.473,-11.563 -8.931,-15.213 z m -174.992,-2.651 c 1.563,-4.217 3.644,-8.735 5.986,-13.284 -0.567,3.699 -0.973,7.509 -1.203,11.396 -1.688,0.495 -3.29,1.131 -4.783,1.888 z m 20.358,27.457 c 10.412,-0.205 18.063,-1.562 18.206,-10.429 7.178,0.668 14.921,1.059 22.636,0.863 -0.102,0.717 -0.161,1.442 -0.165,2.179 -7.653,7.781 -25.726,9.422 -40.677,7.387 z"
       id="path355"
       inkscape:connector-curvature="0"
       style="fill:#dcb644" /><g
       id="g357"><path
         d="M 813.662,585.218"
         id="path359"
         inkscape:connector-curvature="0"
         style="fill:#3c2417" /><path
         d="m 884.742,369.703 c 3.322,-3.639 6.787,-15.754 3.898,-16.642 -6.765,-2.08 -12.193,0.152 -15.056,1.867 4.567,3.909 8.376,8.953 11.158,14.775 z"
         id="path361"
         inkscape:connector-curvature="0"
         style="fill:#3c2417" /><path
         d="m 821.841,360.337 c 3.937,-4.665 8.657,-8.376 13.88,-10.831 -2.466,-5.182 -9.268,-17.587 -14.292,-8.811 -2.298,4.013 -3.765,16.419 0.412,19.642 z"
         id="path363"
         inkscape:connector-curvature="0"
         style="fill:#3c2417" /><path
         d="m 854.532,369.234 c 0.144,3.417 2.14,6.117 4.458,6.019 2.311,-0.103 4.074,-2.951 3.934,-6.37 -0.148,-3.42 -2.138,-6.113 -4.457,-6.017 -2.316,0.095 -4.075,2.952 -3.935,6.368 z"
         id="path365"
         inkscape:connector-curvature="0"
         style="fill:#3c2417" /><path
         d="m 835.656,369.653 c 1.009,3.353 3.719,5.512 6.049,4.817 2.331,-0.702 3.401,-3.994 2.392,-7.35 -1.011,-3.366 -3.719,-5.519 -6.046,-4.821 -2.33,0.702 -3.405,3.99 -2.395,7.354 z"
         id="path367"
         inkscape:connector-curvature="0"
         style="fill:#3c2417" /><path
         d="m 799.183,583.749 c -0.199,-2.934 -1.271,-6.277 -3.403,-10.057 0,0 -1.86,-2.785 1.262,-4.775 3.121,-1.991 5.459,1.108 5.459,1.108 3.002,5.277 4.515,9.862 4.913,13.845 l -1.806,-0.386 -0.827,-2.355 -0.065,2.293 -1.209,0.126 -0.893,-2.802 0,2.738 -1.336,0.255 -0.828,-3.63 -0.191,3.757 -1.076,-0.117"
         id="path369"
         inkscape:connector-curvature="0"
         style="fill:#3c2417" /><ellipse
         cx="815.784"
         cy="458.42499"
         rx="6.448"
         ry="6.8790002"
         id="ellipse371"
         style="fill:#3c2417" /><ellipse
         cx="758.18298"
         cy="557.00403"
         rx="6.448"
         ry="6.8790002"
         id="ellipse373"
         style="fill:#3c2417" /><ellipse
         cx="788.41101"
         cy="515.49902"
         rx="6.448"
         ry="6.8769999"
         id="ellipse375"
         style="fill:#3c2417" /><path
         d="m 858.783,395.679 c 0,0 0.7,-9.17 -0.954,-13.946 0,0 1.082,15.029 -0.191,15.284"
         id="path377"
         inkscape:connector-curvature="0"
         style="fill:#3c2417" /><ellipse
         cx="784.65503"
         cy="547.05701"
         rx="6.3049998"
         ry="7.2600002"
         id="ellipse379"
         style="fill:#3c2417" /><ellipse
         cx="890.49902"
         cy="475.22101"
         rx="4.967"
         ry="5.1589999"
         id="ellipse381"
         style="fill:#3c2417" /><ellipse
         cx="901.40997"
         cy="560.677"
         rx="4.7540002"
         ry="5.9770002"
         id="ellipse383"
         style="fill:#3c2417" /><ellipse
         cx="887.59399"
         cy="571.125"
         rx="3.8210001"
         ry="2.7950001"
         id="ellipse385"
         style="fill:#3c2417" /><ellipse
         cx="824.203"
         cy="545.146"
         rx="3.2490001"
         ry="5.7319999"
         id="ellipse387"
         style="fill:#3c2417" /><ellipse
         cx="805.67102"
         cy="507.31799"
         rx="3.0580001"
         ry="3.8210001"
         id="ellipse389"
         style="fill:#3c2417" /><ellipse
         cx="807.58197"
         cy="531.58197"
         rx="4.1199999"
         ry="4.178"
         id="ellipse391"
         style="fill:#3c2417" /><ellipse
         cx="813.88599"
         cy="481.90799"
         rx="4.0120001"
         ry="4.777"
         id="ellipse393"
         style="fill:#3c2417" /><ellipse
         cx="807.96399"
         cy="555.27197"
         rx="3.0569999"
         ry="4.013"
         id="ellipse395"
         style="fill:#3c2417" /><ellipse
         cx="781.59802"
         cy="567.11798"
         rx="4.4829998"
         ry="4.776"
         id="ellipse397"
         style="fill:#3c2417" /><g
         id="g399"><path
           d="m 738.029,544.957 c 0,2.413 2.006,4.403 4.609,4.725 0.813,-3.167 1.758,-6.215 2.828,-9.124 -0.643,-0.243 -1.348,-0.377 -2.089,-0.377 -2.952,0 -5.348,2.138 -5.348,4.776 z"
           id="path401"
           inkscape:connector-curvature="0"
           style="fill:#3c2417" /><path
           d="m 728.926,563.396 c 1.475,0 2.67,-1.878 2.67,-4.195 0,-1.822 -0.741,-3.367 -1.771,-3.947 -1.101,2.057 -2.152,4.144 -3.13,6.244 0.476,1.143 1.297,1.898 2.231,1.898 z"
           id="path403"
           inkscape:connector-curvature="0"
           style="fill:#3c2417" /><path
           d="m 731.533,587.586 c -0.169,-3.321 0.684,-7.428 2.215,-11.955 -0.206,-0.02 -0.415,-0.031 -0.628,-0.031 -3.369,0 -6.102,2.731 -6.102,6.101 10e-4,2.82 1.917,5.186 4.515,5.885 z"
           id="path405"
           inkscape:connector-curvature="0"
           style="fill:#3c2417" /><path
           d="m 777.768,602.273 c 0,-0.403 -0.048,-0.791 -0.139,-1.159 -2.053,0.306 -4.173,0.519 -6.326,0.641 -0.019,0.17 -0.031,0.342 -0.031,0.518 0,2.216 1.455,4.013 3.248,4.013 1.793,0 3.248,-1.797 3.248,-4.013 z"
           id="path407"
           inkscape:connector-curvature="0"
           style="fill:#3c2417" /><path
           d="m 762.866,608.196 c -2.298,0 -4.275,1.129 -5.189,2.757 3.133,-0.008 6.496,-0.148 10.104,-0.428 -1.002,-1.394 -2.824,-2.329 -4.915,-2.329 z"
           id="path409"
           inkscape:connector-curvature="0"
           style="fill:#3c2417" /><path
           d="m 732.549,599.626 c -1.884,0 -3.485,1.861 -4.105,4.471 2.251,1.649 5.013,3.043 8.344,4.136 0.094,-0.557 0.146,-1.139 0.146,-1.742 0,-3.792 -1.963,-6.865 -4.385,-6.865 z"
           id="path411"
           inkscape:connector-curvature="0"
           style="fill:#3c2417" /></g><path
         d="m 789,602.442 c 2.787,0 5.049,-1.759 5.049,-3.931 0,-0.99 -0.475,-1.893 -1.25,-2.583 -2.386,1.611 -5.321,2.864 -8.6,3.796 0.656,1.578 2.557,2.718 4.801,2.718 z"
         id="path413"
         inkscape:connector-curvature="0"
         style="fill:#3c2417" /><path
         d="m 803.686,592.653 c -2.001,0 -3.624,1.588 -3.624,3.546 0,1.291 0.709,2.419 1.764,3.039 1.705,-1.663 3.136,-3.582 4.138,-5.793 -0.624,-0.495 -1.415,-0.792 -2.278,-0.792 z"
         id="path415"
         inkscape:connector-curvature="0"
         style="fill:#3c2417" /><ellipse
         cx="877.396"
         cy="374.177"
         rx="2.8659999"
         ry="3.438"
         id="ellipse417"
         style="fill:#3c2417" /><ellipse
         cx="876.53601"
         cy="394.80899"
         rx="4.2979999"
         ry="5.7309999"
         id="ellipse419"
         style="fill:#3c2417" /><circle
         cx="817.18597"
         cy="397.96201"
         r="4.2989998"
         id="circle421"
         style="fill:#3c2417" /><path
         d="m 806.295,415.698 c -0.65,0 -1.271,0.1 -1.839,0.276 0.422,2.521 1.195,4.913 2.355,7.153 2.448,-0.197 4.355,-1.781 4.355,-3.705 10e-4,-2.056 -2.18,-3.724 -4.871,-3.724 z"
         id="path423"
         inkscape:connector-curvature="0"
         style="fill:#3c2417" /><path
         d="m 814.065,382.201 c 3.323,0 6.018,-3.08 6.018,-6.878 0,-2.979 -1.661,-5.509 -3.98,-6.464 -2.053,3.864 -3.658,8.101 -4.729,12.609 0.81,0.465 1.723,0.733 2.691,0.733 z"
         id="path425"
         inkscape:connector-curvature="0"
         style="fill:#3c2417" /><path
         d="m 800.453,484.03 c 0,-3.797 -2.887,-6.877 -6.447,-6.877 -0.135,0 -0.264,0.013 -0.395,0.022 -1.227,3.502 -2.762,7.33 -4.64,11.147 1.182,1.575 2.996,2.586 5.034,2.586 3.561,10e-4 6.448,-3.078 6.448,-6.878 z"
         id="path427"
         inkscape:connector-curvature="0"
         style="fill:#3c2417" /><path
         d="m 880.11,438.34 c -1.072,0.684 -1.756,1.712 -1.756,2.863 0,2.057 2.181,3.725 4.872,3.725 1.14,0 2.186,-0.302 3.015,-0.802 -2.173,-2.388 -4.253,-4.286 -6.131,-5.786 z"
         id="path429"
         inkscape:connector-curvature="0"
         style="fill:#3c2417" /><path
         d="m 905.401,505.981 c 1.729,0 3.271,-1.121 4.288,-2.875 -0.591,-4.302 -1.293,-8.345 -2.086,-12.146 -0.676,-0.415 -1.419,-0.646 -2.202,-0.646 -3.061,0 -5.54,3.507 -5.54,7.833 0,4.327 2.48,7.834 5.54,7.834 z"
         id="path431"
         inkscape:connector-curvature="0"
         style="fill:#3c2417" /><path
         d="m 909.223,532.537 c 0.937,0 1.807,-0.317 2.532,-0.858 -0.046,-3.019 -0.141,-5.946 -0.276,-8.786 -0.666,-0.426 -1.436,-0.671 -2.256,-0.671 -2.533,0 -4.587,2.31 -4.587,5.158 0,2.848 2.053,5.157 4.587,5.157 z"
         id="path433"
         inkscape:connector-curvature="0"
         style="fill:#3c2417" /><path
         d="m 751.623,527.657 c 1.002,2.411 3.261,4.094 5.893,4.094 3.561,0 6.448,-3.079 6.448,-6.878 0,-3.256 -2.124,-5.978 -4.975,-6.689 -2.706,2.702 -5.168,5.886 -7.366,9.473 z"
         id="path435"
         inkscape:connector-curvature="0"
         style="fill:#3c2417" /><path
         d="m 909.92,585.134 c 5.74,6.885 4.54,13.423 5.39,12.055 1.297,-6.88 -3.831,-12.168 -5.39,-12.055 z"
         id="path437"
         inkscape:connector-curvature="0"
         style="fill:#3c2417" /><path
         d="m 883.213,600.592 c 1.158,1.115 -2.99,-7.141 2.243,-13.02 -1.536,0.28 -7.026,6.527 -2.243,13.02 z"
         id="path439"
         inkscape:connector-curvature="0"
         style="fill:#3c2417" /><path
         d="m 899.562,587.744 c 0,0 3.131,5.821 1.544,13.119 0,0 2.216,1.295 1.74,-5.936 -0.497,-7.51 -4.172,-9.431 -3.284,-7.183 z"
         id="path441"
         inkscape:connector-curvature="0"
         style="fill:#3c2417" /><path
         d="m 836.588,588.275 c 5.165,7.327 3.44,13.747 4.396,12.451 1.701,-6.752 -2.835,-12.435 -4.396,-12.451 z"
         id="path443"
         inkscape:connector-curvature="0"
         style="fill:#3c2417" /><path
         d="m 811.633,601.985 c 1.188,1.199 -3.337,-7.314 3.77,-12.821 -1.744,0.164 -8.481,5.987 -3.77,12.821 z"
         id="path445"
         inkscape:connector-curvature="0"
         style="fill:#3c2417" /><path
         d="m 826.397,589.691 c 0,0 2.649,6.054 0.479,13.201 0,0 1.888,1.295 1.998,-5.951 0.113,-7.525 -3.181,-9.563 -2.477,-7.25 z"
         id="path447"
         inkscape:connector-curvature="0"
         style="fill:#3c2417" /><path
         d="m 764.773,585.005 c 5.74,6.886 4.54,13.424 5.389,12.055 1.151,-6.867 -3.83,-12.166 -5.389,-12.055 z"
         id="path449"
         inkscape:connector-curvature="0"
         style="fill:#3c2417" /><path
         d="m 746.078,599.672 c 1.159,1.115 -3.603,-7.064 2.245,-13.02 -1.537,0.28 -7.027,6.527 -2.245,13.02 z"
         id="path451"
         inkscape:connector-curvature="0"
         style="fill:#3c2417" /><path
         d="m 756.745,586.895 c 0,0 3.131,5.821 1.542,13.12 0,0 1.88,1.237 1.403,-5.995 -0.496,-7.509 -3.835,-9.374 -2.945,-7.125 z"
         id="path453"
         inkscape:connector-curvature="0"
         style="fill:#3c2417" /><path
         d="m 871.927,420.604 c -0.174,1.618 -1.677,3.884 -4.88,4.657 -3.352,0.809 -15.284,1.098 -18.362,-5.523 0,0 -1.393,-9.004 -0.809,-13.118 1.753,-0.507 7.988,-3.233 10.084,-7.843 2.332,-5.132 0.467,-5.364 -11.429,-6.764 -11.896,-1.4 -2.1,12.361 -2.1,12.361 0,0 1.699,1.7 2.633,2.196 -0.12,1.472 -0.297,5.762 0.753,13.167 0,0 -1.925,7.144 -7.948,7.195 -15.109,0.126 -14.824,-8.465 -14.998,-9.504 -0.172,-1.041 -1.034,-0.024 -1.034,-0.024 0,0 -2.244,10.815 16.319,10.675 6.353,-0.048 8.182,-6.263 8.182,-6.263 0,0 3.455,4.121 9.109,4.734 17.971,1.95 15.57,-6.687 15.57,-6.687 0,0 -0.917,-0.877 -1.09,0.741 z"
         id="path455"
         inkscape:connector-curvature="0"
         style="fill:#3c2417" /><path
         d="m 840.697,394.724 c 0,0 0.382,-7.26 2.484,-12.482 0,0 -2.356,10.891 -1.338,11.781"
         id="path457"
         inkscape:connector-curvature="0"
         style="fill:#3c2417" /></g></g></svg>
