<?xml version="1.0" encoding="UTF-8" standalone="no"?>
<!-- Generator: Adobe Illustrator 14.0.0, SVG Export Plug-In . SVG Version: 6.00 Build 43363)  -->

<svg
   xmlns:dc="http://purl.org/dc/elements/1.1/"
   xmlns:cc="http://creativecommons.org/ns#"
   xmlns:rdf="http://www.w3.org/1999/02/22-rdf-syntax-ns#"
   xmlns:svg="http://www.w3.org/2000/svg"
   xmlns="http://www.w3.org/2000/svg"
   xmlns:sodipodi="http://sodipodi.sourceforge.net/DTD/sodipodi-0.dtd"
   xmlns:inkscape="http://www.inkscape.org/namespaces/inkscape"
   version="1.1"
   id="Layer_1"
   x="0px"
   y="0px"
   width="145.18878"
   height="256.78271"
   viewBox="0 0 145.18878 256.78271"
   enable-background="new 0 0 1440 1440"
   xml:space="preserve"
   inkscape:version="0.91 r13725"
   sodipodi:docname="medusa.svg"><metadata
     id="metadata771"><rdf:RDF><cc:Work
         rdf:about=""><dc:format>image/svg+xml</dc:format><dc:type
           rdf:resource="http://purl.org/dc/dcmitype/StillImage" /><dc:title></dc:title></cc:Work></rdf:RDF></metadata><defs
     id="defs769" /><sodipodi:namedview
     pagecolor="#ffffff"
     bordercolor="#666666"
     borderopacity="1"
     objecttolerance="10"
     gridtolerance="10"
     guidetolerance="10"
     inkscape:pageopacity="0"
     inkscape:pageshadow="2"
     inkscape:window-width="1920"
     inkscape:window-height="1018"
     id="namedview767"
     showgrid="false"
     fit-margin-top="0"
     fit-margin-left="0"
     fit-margin-right="0"
     fit-margin-bottom="0"
     inkscape:zoom="0.64641035"
     inkscape:cx="142.60727"
     inkscape:cy="-66.711636"
     inkscape:window-x="-8"
     inkscape:window-y="-8"
     inkscape:window-maximized="1"
     inkscape:current-layer="Layer_1" /><g
     id="g343"
     transform="translate(-555.31951,-357.66314)"><path
       d="m 696.96,581.735 c -18.511,-15.425 -13.462,-28.887 -9.255,-40.669 4.208,-11.779 10.097,-41.508 -12.338,-55.253 -13.27,-8.127 -12.671,-21.335 -9.791,-30.891 3.302,3.657 9.635,7.731 21.204,6.531 19.268,-2.002 15.043,-30.626 6.722,-42.937 -0.313,-0.568 -0.657,-1.145 -1.033,-1.729 -3.211,-24.224 -17.319,-55.742 -64.335,-58.963 0,0 -54.229,-6.176 -66.463,58.247 -0.079,0.418 -0.114,0.795 -0.152,1.178 -4.54,9.934 -15.45,39.189 10.381,45.037 0,0 3.365,0.578 7.307,0.095 -7.829,10.793 -15.124,28.643 -12.106,56.53 4.767,44.037 -1.144,56.723 -3.54,60.379 0,0 -3.123,3.479 -0.313,5.205 3.683,2.264 6.706,-3.023 6.706,-3.023 2.365,-3.864 7.896,-17.222 3.196,-60.662 -4.27,-39.434 12.08,-58.823 21.408,-66.514 2.494,2.867 6.617,6.155 12.728,6.829 -1.991,8.344 -2.52,21.855 3.072,42.981 10.659,40.262 -4.207,55.966 -4.207,55.966 0,0 -18.79,26.573 0.841,50.325 0,0 1.432,1.971 3.825,0.998 2.93,-1.191 1.017,-4.18 1.017,-4.18 -15.605,-22.88 1.554,-47.144 1.554,-47.144 0,0 14.866,-15.704 4.207,-55.965 -5.638,-21.303 -5.053,-34.869 -3.021,-43.193 3.401,-0.362 10.519,-1.833 12.706,-7.75 4.612,6.349 16.293,23.738 8.649,49.669 0,0 -14.306,33.625 7.573,53.479 17.655,16.021 14.485,41.431 9.066,54.174 0,0 -1.126,2.321 1.541,3.649 2.667,1.329 4.092,-2.02 4.092,-2.02 6.35,-10.626 12.565,-40.176 -7.127,-58.045 -21.878,-19.854 -7.572,-53.48 -7.572,-53.48 5.188,-17.602 1.471,-31.271 -2.898,-40.223 2.007,0.553 4.285,0.953 6.948,1.086 0,0 4.984,-0.268 9.174,-2.449 -1.534,9.592 -0.371,21.977 12.327,29.754 22.438,13.745 16.548,43.475 12.341,55.255 -4.208,11.781 -9.255,25.242 9.255,40.667 0,0 4.385,4.576 7.123,2.72 3.925,-2.667 -0.812,-5.664 -0.812,-5.664 z M 591.494,450.125 c 0.004,-0.106 0.016,-0.205 0.018,-0.314 0,0 0.044,0.091 0.11,0.224 -0.041,0.032 -0.084,0.06 -0.128,0.09 z m 36.446,-0.314 c 0,0 0.012,0.045 0.03,0.107 l -0.046,0.014 c 0.002,-0.042 0.014,-0.079 0.016,-0.121 z"
       id="path345"
       inkscape:connector-curvature="0"
       style="fill:#562b79" /><g
       id="g347"><path
         d="m 693.501,418.516 c 8.938,16.238 -7.922,25.472 -7.922,25.472 -19.805,5.056 -25.734,-8.367 -26.955,-12 0.666,2.685 1.544,10.696 -11.074,12.42 -15.208,2.076 -20.412,-10.395 -20.412,-10.395 0,9.561 -13.61,12.472 -13.61,12.472 -19.213,0.415 -20.016,-13.719 -20.016,-13.719 -6.403,12.057 -18.012,11.223 -18.012,11.223 -22.014,-0.416 -14.026,-26.956 -13.199,-28.382 0.358,-0.617 0.757,-1.205 1.179,-1.778 -0.219,0.061 -0.338,0.096 -0.338,0.096 0,0 -22.465,41.292 8.757,48.36 0,0 19.214,3.324 19.613,-12.475 0,0 6.004,13.307 21.214,11.226 0,0 14.813,0 15.212,-11.226 0,0 2.802,10.808 19.611,11.643 0,0 15.609,-0.834 14.812,-11.643 0,0 4.403,13.722 24.417,11.643 19.27,-2.002 15.044,-30.626 6.723,-42.937 z"
         id="path349"
         inkscape:connector-curvature="0"
         style="fill:#912a8e" /><path
         d="m 628.133,357.823 c 0,0 -54.229,-6.176 -66.463,58.247 -3.44,18.122 33.751,2.159 33.751,2.159 0,0 14.018,21.034 31.673,1.617 0,0 17.136,19.958 31.157,0.541 0,0 5.205,6.036 16.229,6.722 16.239,1.014 18.038,-9.959 18.038,-9.959 -3.117,-24.27 -17.134,-56.089 -64.385,-59.327 z m -15.578,44.14 c -3.707,0.178 -6.939,-4.109 -7.221,-9.591 -0.264,-5.475 2.515,-10.068 6.23,-10.262 3.71,-0.184 6.941,4.111 7.216,9.591 0.278,5.475 -2.514,10.077 -6.225,10.262 z m 38.735,-10.6 c -0.739,5.571 -4.482,9.673 -8.344,9.162 -3.865,-0.522 -6.4,-5.458 -5.65,-11.029 0.744,-5.582 4.482,-9.679 8.342,-9.167 3.866,0.525 6.4,5.454 5.652,11.034 z"
         id="path351"
         inkscape:connector-curvature="0"
         style="fill:#912a8e" /></g></g></svg>
