<?xml version="1.0" encoding="UTF-8" standalone="no"?>
<!-- Generator: Adobe Illustrator 14.0.0, SVG Export Plug-In . SVG Version: 6.00 Build 43363)  -->

<svg
   xmlns:dc="http://purl.org/dc/elements/1.1/"
   xmlns:cc="http://creativecommons.org/ns#"
   xmlns:rdf="http://www.w3.org/1999/02/22-rdf-syntax-ns#"
   xmlns:svg="http://www.w3.org/2000/svg"
   xmlns="http://www.w3.org/2000/svg"
   xmlns:sodipodi="http://sodipodi.sourceforge.net/DTD/sodipodi-0.dtd"
   xmlns:inkscape="http://www.inkscape.org/namespaces/inkscape"
   version="1.1"
   id="Layer_1"
   x="0px"
   y="0px"
   width="291.43381"
   height="225.47394"
   viewBox="0 0 291.43381 225.47394"
   enable-background="new 0 0 1440 1440"
   xml:space="preserve"
   inkscape:version="0.91 r13725"
   sodipodi:docname="totuga.svg"><metadata
     id="metadata771"><rdf:RDF><cc:Work
         rdf:about=""><dc:format>image/svg+xml</dc:format><dc:type
           rdf:resource="http://purl.org/dc/dcmitype/StillImage" /><dc:title></dc:title></cc:Work></rdf:RDF></metadata><defs
     id="defs769" /><sodipodi:namedview
     pagecolor="#ffffff"
     bordercolor="#666666"
     borderopacity="1"
     objecttolerance="10"
     gridtolerance="10"
     guidetolerance="10"
     inkscape:pageopacity="0"
     inkscape:pageshadow="2"
     inkscape:window-width="1920"
     inkscape:window-height="1018"
     id="namedview767"
     showgrid="false"
     fit-margin-top="0"
     fit-margin-left="0"
     fit-margin-right="0"
     fit-margin-bottom="0"
     inkscape:zoom="0.64641035"
     inkscape:cx="439.70389"
     inkscape:cy="473.01147"
     inkscape:window-x="-8"
     inkscape:window-y="-8"
     inkscape:window-maximized="1"
     inkscape:current-layer="Layer_1" /><g
     id="g703"
     transform="translate(-258.22289,-928.695)"><path
       d="m 420.056,1146.576 c -39.282,20.087 -43.392,-6.035 -43.392,-6.035 -7.926,-24.793 -11.352,-42.594 -12.323,-55.355 0.002,0.01 0.002,0.02 0.003,0.028 -12.874,1.16 -21.183,-0.14 -27.019,-2.429 -8.39,7.165 -16.845,16.504 -16.845,16.504 9.049,28.369 4.891,29.348 4.891,29.348 -15.407,13.939 -42.799,0.733 -42.799,0.733 0,0 -2.935,-30.815 1.223,-38.642 2.834,-5.334 17.371,-19.076 26.341,-27.286 -0.227,-1.279 0.064,-2.417 0.314,-3.091 -44.651,-16.926 -54.443,-65.365 -51.84,-98.665 -0.021,-0.419 -0.041,-0.837 -0.041,-1.259 0,-17.526 18.405,-31.732 41.108,-31.732 22.703,0 41.107,14.206 41.107,31.732 0,15.254 -13.944,27.986 -32.527,31.035 2.479,6.282 7.957,13.543 19.845,18.288 -0.534,-0.86 -2.386,-4.166 -1.921,-8.036 0.54,-4.506 13.341,-4.326 13.341,-4.326 22.177,-49.402 68.333,-53.549 68.333,-53.549 0,0 96.454,-16.229 110.751,77.936 7.492,4.869 18.664,10.137 29.251,7.468 0,0 2.092,-0.556 1.765,1.024 -0.299,1.443 -3.309,14.641 -29.265,14.305 0.002,0.079 0.004,0.156 0.004,0.234 0,0 4.327,3.846 4.809,6.731 0,0 2.146,4.646 -1.557,10.593 10.577,13.618 17.748,27.529 20.11,32.105 3.846,7.452 1.682,30.771 1.682,30.771 -16.106,12.98 -39.425,3.846 -42.549,1.922 -3.127,-1.922 6.25,-18.991 1.922,-30.289 -1.826,-4.77 -9.824,-10.698 -18.457,-15.956 -5.952,1.306 -12.778,2.479 -20.621,3.47 0.626,28.898 -1.683,28.895 -1.683,28.895 0,0 -3.886,1.57 -25,0.963 -15.797,-0.455 -12.956,-15.93 -10.617,-27.291 -13.347,0.045 -24.361,-1.068 -33.457,-3.031 -2.489,14.428 10.383,30.152 20.28,42.793 5.629,7.191 7.142,12.586 7.532,15.309 10e-4,0 0.469,3.345 -2.699,4.785 z"
       id="path705"
       inkscape:connector-curvature="0"
       style="fill:#8a9438" /><g
       id="g707"><path
         d="m 525.159,1051.537 c -0.479,-2.885 -4.807,-6.732 -4.807,-6.732 -1.083,-119.717 -112.507,-100.967 -112.507,-100.967 0,0 -46.156,4.147 -68.332,53.549 0,0 -12.802,-0.181 -13.343,4.327 -0.54,4.508 2.066,8.26 2.066,8.26 0,0 17.176,5.93 20.577,18.33 1.718,6.265 1.281,18.4 7.338,29.996 -8.294,3.714 -23.005,7.087 -45.428,1.409 0,0 -3.845,6.732 6.732,9.617 10.553,2.879 10.58,19.157 46.877,15.887 -0.5,-6.545 -0.354,-11.763 0.162,-15.918 12.727,11.951 37.412,20.517 86.621,16.378 86.485,-7.273 74.044,-34.136 74.044,-34.136 z"
         id="path709"
         inkscape:connector-curvature="0"
         style="fill:#603913" /><path
         d="m 307.228,939.998 c 0.906,3.434 3.628,5.789 6.073,5.248 2.438,-0.542 3.685,-3.763 2.778,-7.2 -0.911,-3.435 -3.626,-5.786 -6.072,-5.247 -2.443,0.537 -3.686,3.764 -2.779,7.199 z"
         id="path711"
         inkscape:connector-curvature="0"
         style="fill:#603913" /><path
         d="m 292.976,943.738 c 1.135,3.795 4.195,6.232 6.83,5.443 2.638,-0.798 3.852,-4.525 2.715,-8.321 -1.138,-3.81 -4.197,-6.241 -6.829,-5.448 -2.636,0.797 -3.855,4.522 -2.716,8.326 z"
         id="path713"
         inkscape:connector-curvature="0"
         style="fill:#603913" /><path
         d="m 394.26,1151.094 c 0,0 -1.38,-9.759 4.003,-9.89 5.391,-0.13 5.248,9.737 5.248,9.737 0,0 -4.434,2.209 -9.251,0.153 z"
         id="path715"
         inkscape:connector-curvature="0"
         style="fill:#603913" /><path
         d="m 405.742,1148.582 c 0,0 -2.094,-8.264 2.018,-9.008 0,0 5.561,-0.488 5.5,7.938 0,0 -2.254,2.695 -7.518,1.07 z"
         id="path717"
         inkscape:connector-curvature="0"
         style="fill:#603913" /><path
         d="m 391.567,1150.058 c 0,0 1.063,-9.242 -3.245,-9.37 0,0 -5.566,0.105 -4.641,8.039 0.001,0 2.057,2.357 7.886,1.331 z"
         id="path719"
         inkscape:connector-curvature="0"
         style="fill:#603913" /><path
         d="m 290.319,1129.992 c 0,0 0.108,-9.208 4.805,-8.65 4.702,0.558 3.255,9.674 3.255,9.674 0,0 -4.149,1.486 -8.06,-1.024 z"
         id="path721"
         inkscape:connector-curvature="0"
         style="fill:#603913" /><path
         d="m 300.369,1132.176 c 0,0 -1.229,-9.118 2.846,-9.399 0,0 5.272,-0.097 4.588,7.802 0,-10e-4 -1.892,2.407 -7.434,1.597 z"
         id="path723"
         inkscape:connector-curvature="0"
         style="fill:#603913" /><path
         d="m 333.527,975.044 c 0,0 -17.731,14.876 -30.652,-3.339 0,0 -0.625,-0.539 -0.281,-1.067 0.429,-0.659 0.854,-0.411 0.854,-0.411 12.063,17.948 29.545,4.046 29.545,4.046 0,0 0.478,-0.429 0.749,-0.136 0.268,0.293 0.342,0.616 -0.215,0.907 z"
         id="path725"
         inkscape:connector-curvature="0"
         style="fill:#603913" /><path
         d="m 333.308,949.963 c 0.306,1.282 1.281,2.135 2.177,1.9 0.896,-0.236 1.376,-1.466 1.071,-2.748 -0.306,-1.284 -1.281,-2.133 -2.178,-1.9 -0.897,0.236 -1.375,1.467 -1.07,2.748 z"
         id="path727"
         inkscape:connector-curvature="0"
         style="fill:#603913" /><path
         d="m 328.702,952.73 c 1.032,1.17 2.47,1.588 3.205,0.933 0.734,-0.652 0.493,-2.13 -0.542,-3.299 -1.032,-1.169 -2.467,-1.588 -3.202,-0.935 -0.734,0.657 -0.496,2.134 0.539,3.301 z"
         id="path729"
         inkscape:connector-curvature="0"
         style="fill:#603913" /><path
         d="m 440.826,1112.258 c 0,0 -0.879,-9.167 3.85,-9.115 4.734,0.051 4.272,9.27 4.272,9.27 0,0 -3.965,1.921 -8.122,-0.155 z"
         id="path731"
         inkscape:connector-curvature="0"
         style="fill:#603913" /><path
         d="m 458.132,1112.442 c 0,0 -0.574,-9.157 -4.448,-8.739 0,0 -4.963,0.803 -2.827,8.436 -0.001,0 2.228,2.043 7.275,0.303 z"
         id="path733"
         inkscape:connector-curvature="0"
         style="fill:#603913" /><path
         d="m 438.82,1112.026 c 0,0 1.364,-9.073 -2.512,-9.479 0,0 -5.021,-0.258 -4.537,7.653 0,0 1.749,2.466 7.049,1.826 z"
         id="path735"
         inkscape:connector-curvature="0"
         style="fill:#603913" /><path
         d="m 517.213,1129.439 c 0,0 -0.963,-9.159 3.767,-9.15 4.733,0.01 4.355,9.231 4.355,9.231 0,0 -3.948,1.959 -8.122,-0.081 z"
         id="path737"
         inkscape:connector-curvature="0"
         style="fill:#603913" /><path
         d="m 528.558,1128.508 c 0,0 -1.893,-8.996 2.079,-9.595 0,0 5.158,-0.508 5.084,7.417 0,0 -1.671,2.551 -7.163,2.178 z"
         id="path739"
         inkscape:connector-curvature="0"
         style="fill:#603913" /><path
         d="m 513.334,1127.659 c 0,0 0.966,-9.126 -2.925,-9.36 0,0 -5.028,-0.037 -4.197,7.845 0,0 1.856,2.385 7.122,1.515 z"
         id="path741"
         inkscape:connector-curvature="0"
         style="fill:#603913" /><path
         d="m 287.952,1128.539 c 0,0 0.841,-9.137 -3.052,-9.318 0,0 -1.616,0.013 -2.846,1.457 0.195,3.436 0.415,6.179 0.535,7.572 1.136,0.438 2.866,0.737 5.363,0.289 z"
         id="path743"
         inkscape:connector-curvature="0"
         style="fill:#603913" /></g></g></svg>
