<svg xmlns="http://www.w3.org/2000/svg" width="48" viewBox="0 0 48 48" height="48">
  <title>
    Official PHP Logo
  </title>
  <defs>
    <clipPath id="a">
      <path d="M11.52 162C11.52 81.677 135.307 16.56 288 16.56S564.48 81.678 564.48 162 440.693 307.44 288 307.44 11.52 242.32 11.52 162"/>
    </clipPath>
    <radialGradient spreadMethod="pad" r="1" id="b" gradientUnits="userSpaceOnUse" gradientTransform="matrix(363.05789,0,0,-363.05789,177.52002,256.30713)" fy="0" fx="0" cy="0" cx="0">
      <stop offset="0" stop-color="#aeb2d5"/>
      <stop offset=".3" stop-color="#aeb2d5"/>
      <stop offset=".75" stop-color="#484c89"/>
      <stop offset="1" stop-color="#484c89"/>
    </radialGradient>
    <clipPath id="c">
      <path d="M0 324h576V0H0v324z"/>
    </clipPath>
    <clipPath id="d">
      <path d="M0 324h576V0H0v324z"/>
    </clipPath>
  </defs>
  <g clip-path="url(#a)" transform="matrix(0.07680924,-0.07680924,-0.07680924,-0.07680924,14.321989,58.564171)">
    <path d="M11.52 162C11.52 81.677 135.307 16.56 288 16.56S564.48 81.678 564.48 162 440.693 307.44 288 307.44 11.52 242.32 11.52 162" fill="url(#b)"/>
  </g>
  <g clip-path="url(#c)" transform="matrix(0.07680924,-0.07680924,-0.07680924,-0.07680924,14.321989,58.564171)">
    <path d="M288 27.36c146.73 0 265.68 60.28 265.68 134.64 0 74.36-118.95 134.64-265.68 134.64-146.73 0-265.68-60.28-265.68-134.64C22.32 87.64 141.27 27.36 288 27.36" fill="#777bb3"/>
  </g>
  <g clip-path="url(#d)" transform="matrix(0.07680924,-0.07680924,-0.07680924,-0.07680924,14.321989,58.564171)">
    <path d="M161.734 145.307c12.065 0 21.072 2.225 26.77 6.61 5.64 4.342 9.533 11.863 11.574 22.354 1.903 9.81 1.178 16.66-2.154 20.35-3.407 3.78-10.773 5.69-21.893 5.69h-19.28l-10.69-55h15.68zM98.67 77.557c-.894 0-1.744.4-2.313 1.092-.57.69-.8 1.6-.63 2.48l28.328 145.75c.274 1.41 1.51 2.42 2.945 2.42h61.054c19.188 0 33.47-5.21 42.447-15.49 9.03-10.33 11.82-24.78 8.29-42.92-1.43-7.4-3.9-14.27-7.34-20.41-3.44-6.16-7.98-11.85-13.51-16.93-6.61-6.2-14.1-10.69-22.23-13.33-8-2.61-18.28-3.93-30.55-3.93h-24.72l-7.06-36.32c-.27-1.41-1.5-2.43-2.94-2.43H98.68z"/>
    <path d="M159.224 197.307h16.808c13.42 0 18.083-2.945 19.667-4.7 2.62-2.914 3.12-9.058 1.43-17.767-1.9-9.75-5.42-16.663-10.46-20.545-5.16-3.974-13.56-5.988-24.94-5.988H149.7l9.524 49zm28.83 35H127c-2.872 0-5.34-2.036-5.89-4.855L92.784 81.702c-.342-1.76.12-3.58 1.26-4.962 1.14-1.383 2.837-2.183 4.63-2.183h31.75c2.872 0 5.34 2.036 5.89 4.855l6.587 33.895h22.25c12.58 0 23.18 1.372 31.48 4.077 8.54 2.775 16.4 7.48 23.36 13.984 5.75 5.292 10.49 11.232 14.08 17.657 3.59 6.427 6.17 13.594 7.67 21.302 3.72 19.104.7 34.402-8.97 45.466-9.57 10.958-24.61 16.514-44.7 16.514m-45.63-90h19.318c12.8 0 22.334 2.41 28.6 7.234 6.265 4.83 10.49 12.88 12.69 24.16 2.1 10.83 1.14 18.48-2.874 22.93-4.02 4.45-12.06 6.68-24.12 6.68h-21.76l-11.856-61m45.63 84c18.368 0 31.767-4.82 40.19-14.46 8.42-9.64 10.956-23.1 7.596-40.37-1.38-7.11-3.72-13.62-7.01-19.52-3.296-5.9-7.6-11.29-12.92-16.18-6.34-5.93-13.384-10.16-21.134-12.68-7.75-2.52-17.62-3.78-29.62-3.78h-27.2l-7.53-38.75H98.68L127 226.31h61.055" fill="#fff"/>
    <path d="M311.583 116.307c-.896 0-1.745.4-2.314 1.092-.58.69-.81 1.6-.64 2.48l12.53 64.48c1.19 6.13.9 10.53-.83 12.39-1.06 1.13-4.23 3.04-13.61 3.04h-22.7l-15.76-81.07c-.276-1.41-1.51-2.43-2.947-2.43h-31.5c-.893 0-1.74.4-2.31 1.09-.57.69-.8 1.6-.63 2.48l28.33 145.75c.272 1.41 1.51 2.423 2.943 2.423h31.5c.897 0 1.746-.4 2.316-1.09.57-.693.8-1.6.63-2.48l-6.836-35.18h24.42c18.606 0 31.22-3.28 38.57-10.03 7.49-6.884 9.827-17.89 6.947-32.72l-13.18-67.824c-.274-1.41-1.508-2.428-2.945-2.428h-32z"/>
    <path d="M293.66 271.057h-31.5c-2.872 0-5.34-2.036-5.89-4.855l-28.327-145.75c-.342-1.76.12-3.58 1.26-4.962 1.14-1.383 2.838-2.183 4.63-2.183h31.5c2.872 0 5.342 2.036 5.89 4.855l15.283 78.645h20.23c9.362 0 11.327-2 11.406-2.086.568-.61 1.315-3.44.082-9.78l-12.53-64.49c-.343-1.75.12-3.57 1.26-4.96 1.14-1.38 2.837-2.18 4.63-2.18h32c2.87 0 5.34 2.04 5.89 4.86L362.652 186c3.093 15.92.447 27.864-7.86 35.5-7.93 7.28-21.21 10.82-40.6 10.82h-20.784l6.143 31.605c.35 1.76-.12 3.58-1.26 4.96-1.14 1.384-2.83 2.185-4.63 2.185m0-6l-7.53-38.75h28.07c17.66 0 29.84-3.084 36.54-9.24 6.71-6.16 8.71-16.14 6.03-29.94l-13.18-67.823h-32l12.54 64.49c1.43 7.335.9 12.34-1.57 15.007-2.474 2.668-7.743 4.004-15.802 4.004h-25.18l-16.225-83.5h-31.5l28.328 145.75h31.5" fill="#fff"/>
    <path d="M409.55 145.307c12.065 0 21.072 2.225 26.77 6.61 5.64 4.34 9.533 11.862 11.575 22.354 1.903 9.81 1.178 16.66-2.155 20.35-3.407 3.78-10.773 5.69-21.893 5.69h-19.28l-10.69-55h15.673zm-63.062-67.75c-.895 0-1.745.4-2.314 1.092-.57.69-.802 1.6-.63 2.48l28.327 145.75c.28 1.41 1.51 2.42 2.95 2.42h61.06c19.19 0 33.47-5.21 42.45-15.49 9.03-10.33 11.81-24.77 8.28-42.92-1.43-7.4-3.9-14.27-7.34-20.41-3.44-6.16-7.98-11.85-13.51-16.93-6.61-6.2-14.1-10.69-22.23-13.33-8-2.61-18.28-3.93-30.55-3.93h-24.73l-7.05-36.32c-.272-1.41-1.51-2.43-2.943-2.43H346.5z"/>
    <path d="M407.04 197.307h16.807c13.42 0 18.083-2.945 19.667-4.7 2.63-2.914 3.125-9.058 1.435-17.766-1.9-9.75-5.42-16.66-10.46-20.54-5.16-3.97-13.56-5.99-24.94-5.99h-12.04l9.52 49zm28.83 35h-61.054c-2.872 0-5.34-2.036-5.89-4.855L340.6 81.702c-.343-1.76.12-3.58 1.258-4.962 1.14-1.383 2.838-2.183 4.63-2.183h31.75c2.872 0 5.342 2.036 5.89 4.855l6.587 33.895h22.25c12.58 0 23.173 1.372 31.478 4.077 8.54 2.775 16.4 7.48 23.356 13.986 5.75 5.29 10.48 11.23 14.07 17.655 3.59 6.427 6.17 13.594 7.67 21.302 3.71 19.105.69 34.403-8.97 45.467-9.57 10.957-24.61 16.513-44.71 16.513m-45.64-90h19.31c12.8 0 22.332 2.41 28.6 7.234 6.264 4.83 10.49 12.88 12.69 24.16 2.1 10.83 1.14 18.48-2.876 22.93-4.02 4.45-12.06 6.68-24.12 6.68h-21.75l-11.857-61m45.63 84c18.367 0 31.766-4.82 40.19-14.46 8.42-9.64 10.955-23.1 7.595-40.37-1.384-7.11-3.723-13.62-7.016-19.52-3.298-5.9-7.603-11.29-12.923-16.18-6.34-5.93-13.38-10.16-21.13-12.68-7.75-2.52-17.62-3.78-29.62-3.78h-27.2l-7.53-38.75h-31.75l28.32 145.75h61.055" fill="#fff"/>
  </g>
</svg>
