<?xml version="1.0" encoding="UTF-8" ?>
<svg xmlns="http://www.w3.org/2000/svg" width="48" height="48">
  <defs>
    <clipPath id="a">
      <path d="M11.52 162C11.52 81.68 135.31 16.56 288 16.56S564.48 81.68 564.48 162 440.69 307.44 288 307.44 11.52 242.32 11.52 162"/>
    </clipPath>
    <clipPath id="c">
      <path d="M0 324h576V0H0v324z"/>
    </clipPath>
    <clipPath id="d">
      <path d="M0 324h576V0H0v324z"/>
    </clipPath>
    <radialGradient id="b" cx="0" cy="0" r="1" fx="0" fy="0" gradientTransform="matrix(363.05789 0 0 -363.05789 177.52 256.3)" gradientUnits="userSpaceOnUse" spreadMethod="pad">
      <stop offset="0" stop-color="#aeb2d5"/>
      <stop offset=".3" stop-color="#aeb2d5"/>
      <stop offset=".75" stop-color="#484c89"/>
      <stop offset="1" stop-color="#484c89"/>
    </radialGradient>
  </defs>
  <g clip-path="url(#a)" transform="scale(.1086 -.1086) rotate(45 716.76 -110.43)">
    <path fill="url(#b)" d="M11.52 162C11.52 81.68 135.31 16.56 288 16.56S564.48 81.68 564.48 162 440.69 307.44 288 307.44 11.52 242.32 11.52 162"/>
  </g>
  <g clip-path="url(#c)" transform="scale(.1086 -.1086) rotate(45 716.76 -110.43)">
    <path fill="#777bb3" d="M288 27.36c146.73 0 265.68 60.28 265.68 134.64 0 74.36-118.95 134.64-265.68 134.64-146.73 0-265.68-60.28-265.68-134.64C22.32 87.64 141.27 27.36 288 27.36"/>
  </g>
  <g clip-path="url(#d)" transform="scale(.1086 -.1086) rotate(45 716.76 -110.43)">
    <path d="M161.73 145.3c12.07 0 21.08 2.23 26.77 6.62 5.64 4.34 9.54 11.86 11.58 22.35 1.9 9.81 1.18 16.66-2.16 20.35-3.4 3.78-10.77 5.7-21.89 5.7h-19.28l-10.69-55h15.68zM98.67 77.57a3 3 0 0 0-2.94 3.57l28.32 145.75a3 3 0 0 0 2.95 2.42h61.05c19.2 0 33.47-5.21 42.45-15.5 9.03-10.32 11.82-24.77 8.3-42.91a68.07 68.07 0 0 0-7.35-20.41 68.2 68.2 0 0 0-13.5-16.93 59.1 59.1 0 0 0-22.24-13.33c-8-2.61-18.28-3.93-30.55-3.93h-24.72l-7.06-36.32a2.99 2.99 0 0 0-2.94-2.43H98.68z"/>
    <path fill="#fff" d="M159.22 197.3h16.81c13.42 0 18.08-2.94 19.67-4.7 2.62-2.9 3.12-9.05 1.43-17.76-1.9-9.75-5.42-16.66-10.46-20.55-5.16-3.97-13.56-5.98-24.94-5.98H149.7l9.52 49zm28.83 35H127a6 6 0 0 1-5.89-4.85L92.78 81.7a6 6 0 0 1 5.9-7.14h31.74a6 6 0 0 1 5.9 4.85l6.58 33.9h22.25c12.58 0 23.18 1.37 31.48 4.07A62.34 62.34 0 0 1 220 131.37a71.41 71.41 0 0 1 14.08 17.65 71.61 71.61 0 0 1 7.67 21.3c3.72 19.11.7 34.4-8.97 45.47-9.57 10.96-24.6 16.52-44.7 16.52m-45.63-90h19.32c12.8 0 22.33 2.4 28.6 7.23 6.26 4.83 10.49 12.88 12.69 24.16 2.1 10.83 1.14 18.48-2.88 22.93-4.02 4.45-12.06 6.68-24.12 6.68H154.3l-11.85-61m45.63 84c18.37 0 31.77-4.82 40.19-14.46 8.42-9.64 10.95-23.1 7.6-40.37a65.38 65.38 0 0 0-7.02-19.52 65 65 0 0 0-12.92-16.18 56.15 56.15 0 0 0-21.13-12.68c-7.75-2.52-17.62-3.78-29.62-3.78h-27.2l-7.53-38.75H98.68L127 226.31h61.05"/>
    <path d="M311.58 116.3a3 3 0 0 0-2.95 3.58l12.53 64.48c1.19 6.13.9 10.53-.83 12.39-1.06 1.13-4.23 3.04-13.61 3.04h-22.7l-15.76-81.07a3 3 0 0 0-2.95-2.43h-31.5a3 3 0 0 0-2.94 3.57L259.2 265.6a3 3 0 0 0 2.95 2.42h31.5a3 3 0 0 0 2.94-3.57l-6.84-35.18h24.42c18.61 0 31.22-3.28 38.57-10.03 7.5-6.88 9.83-17.89 6.95-32.72l-13.18-67.82a3 3 0 0 0-2.94-2.43h-32z"/>
    <path fill="#fff" d="M293.66 271.06h-31.5a6 6 0 0 1-5.89-4.86l-28.33-145.75a6 6 0 0 1 5.9-7.14h31.5a6 6 0 0 1 5.88 4.85l15.29 78.65h20.23c9.36 0 11.32-2 11.4-2.09.57-.6 1.32-3.44.08-9.78l-12.53-64.49a6 6 0 0 1 5.9-7.14h32a6 6 0 0 1 5.88 4.86L362.65 186c3.1 15.92.45 27.86-7.86 35.5-7.93 7.28-21.2 10.82-40.6 10.82h-20.78l6.14 31.6a5.99 5.99 0 0 1-5.89 7.14m0-5.99-7.53-38.75h28.07c17.66 0 29.84-3.08 36.54-9.24 6.71-6.16 8.71-16.14 6.03-29.94l-13.18-67.82h-32l12.54 64.49c1.43 7.33.9 12.34-1.57 15-2.47 2.67-7.74 4-15.8 4h-25.18l-16.23-83.5h-31.5l28.33 145.76h31.5"/>
    <path d="M409.55 145.3c12.06 0 21.07 2.23 26.77 6.62 5.64 4.34 9.53 11.86 11.57 22.35 1.9 9.81 1.18 16.66-2.15 20.35-3.4 3.78-10.77 5.7-21.9 5.7h-19.27l-10.7-55h15.68zm-63.06-67.74a3 3 0 0 0-2.95 3.57l28.33 145.75a3 3 0 0 0 2.95 2.42h61.06c19.2 0 33.47-5.21 42.45-15.5 9.03-10.32 11.81-24.76 8.28-42.91a68.07 68.07 0 0 0-7.34-20.41 68.2 68.2 0 0 0-13.5-16.93 59.1 59.1 0 0 0-22.24-13.33c-8-2.61-18.28-3.93-30.55-3.93h-24.73l-7.05-36.32a3 3 0 0 0-2.94-2.43H346.5z"/>
    <path fill="#fff" d="M407.04 197.3h16.8c13.43 0 18.09-2.94 19.67-4.7 2.63-2.9 3.13-9.05 1.44-17.76-1.9-9.75-5.42-16.66-10.46-20.54-5.16-3.97-13.56-5.99-24.94-5.99H397.5l9.52 49zm28.83 35h-61.05a6 6 0 0 1-5.9-4.85L340.6 81.7a6 6 0 0 1 5.89-7.14h31.75a6 6 0 0 1 5.89 4.85l6.58 33.9h22.25c12.58 0 23.18 1.37 31.48 4.07a62.27 62.27 0 0 1 23.36 13.99 71.32 71.32 0 0 1 14.07 17.65 71.61 71.61 0 0 1 7.67 21.3c3.7 19.11.69 34.41-8.97 45.47-9.57 10.96-24.61 16.52-44.71 16.52m-45.64-90h19.3c12.8 0 22.34 2.4 28.6 7.23 6.27 4.83 10.5 12.88 12.7 24.16 2.1 10.83 1.14 18.48-2.88 22.93-4.02 4.45-12.06 6.68-24.12 6.68h-21.75l-11.85-61m45.63 84c18.36 0 31.76-4.82 40.19-14.46 8.42-9.64 10.95-23.1 7.6-40.37a65.41 65.41 0 0 0-7.02-19.52 65.06 65.06 0 0 0-12.93-16.18 56.14 56.14 0 0 0-21.13-12.68c-7.75-2.52-17.62-3.78-29.62-3.78h-27.2l-7.53-38.75h-31.75l28.32 145.75h61.06"/>
  </g>
</svg>
