<?xml version="1.0" encoding="UTF-8" standalone="no"?>
<svg xmlns="http://www.w3.org/2000/svg" width="540" height="280">
  <g clip-path="url(#c)" transform="matrix(1 0 0 -1 -20 304)">
    <path d="M0 0c147 0 266 60 266 135 0 74-119 134-266 134s-266-60-266-134C-266 60-147 0 0 0" style="fill:#777bb3;fill-opacity:1;fill-rule:nonzero;stroke:none" transform="translate(288 27)"/>
  </g>
  <g clip-path="url(#d)" transform="matrix(1 0 0 -1 -4 300)">
    <path d="M0 0c12 0 21 2 27 7 5 4 9 11 11 22 2 10 2 17-2 20-3 4-11 6-22 6H-5L-16 0H0Zm-63-68a3 3 0 0 0-3 4l28 146 3 2h61c20 0 34-5 43-15 9-11 12-25 8-43a69 69 0 0 0-21-38c-6-6-14-10-22-13s-18-4-31-4h-24l-7-36-3-3h-32z" style="fill:#000;fill-opacity:1;fill-rule:nonzero;stroke:none" transform="translate(162 145)"/>
    <path d="M0 0h17c13 0 18-3 19-5 3-3 4-9 2-17-2-10-6-17-11-21s-13-6-24-6h-13L0 0Zm29 35h-61c-3 0-6-2-6-5l-28-146a6 6 0 0 1 5-7h32c3 0 6 2 6 5l7 34H6c13 0 23 1 31 4 9 3 17 8 24 14a71 71 0 0 1 22 39c3 19 0 34-9 45-10 11-25 17-45 17m-46-90H3c12 0 22 2 28 7s11 13 13 24 1 19-3 23c-4 5-12 7-24 7H-5l-12-61m46 84c18 0 32-5 40-14 8-10 11-24 8-41a65 65 0 0 0-20-36c-7-5-14-10-21-12-8-3-18-4-30-4h-27l-8-39h-32l29 146h61" style="fill:#fff;fill-opacity:1;fill-rule:nonzero;stroke:none" transform="translate(159 197)"/>
    <path d="M0 0a3 3 0 0 0-3 4l13 64c1 6 0 11-1 12-1 2-4 4-14 4h-23L-43 2l-3-2h-32a3 3 0 0 0-3 4l29 145c0 2 1 3 3 3h31a3 3 0 0 0 3-4l-7-35H3c18 0 31-3 38-10 8-7 10-18 7-33L35 2l-3-2H0Z" style="fill:#000;fill-opacity:1;fill-rule:nonzero;stroke:none" transform="translate(312 116)"/>
    <path d="M0 0h-31c-3 0-6-2-6-5l-29-146a6 6 0 0 1 6-7h32c3 0 5 2 6 5l15 79h20c9 0 11-2 11-2 1-1 2-4 1-10l-13-65a6 6 0 0 1 6-7h32c3 0 5 2 6 5l13 68c3 16 0 28-8 35-8 8-21 11-40 11H0L6-7a6 6 0 0 1-6 7m0-6-8-39h29c17 0 29-3 36-9s9-16 6-30l-13-68H18l12 65c2 7 1 12-1 15-3 2-8 4-16 4h-25l-16-84h-32L-31-6H0" style="fill:#fff;fill-opacity:1;fill-rule:nonzero;stroke:none" transform="translate(294 271)"/>
    <path d="M0 0c12 0 21 2 27 7 5 4 9 11 11 22 2 10 2 17-2 20-3 4-11 6-22 6H-5L-16 0H0Zm-63-68a3 3 0 0 0-3 4l28 146 3 2h61c20 0 34-5 43-15 9-11 12-25 8-43a69 69 0 0 0-21-38c-6-6-14-10-22-13s-18-4-31-4h-24l-7-36-3-3h-32z" style="fill:#000;fill-opacity:1;fill-rule:nonzero;stroke:none" transform="translate(410 145)"/>
    <path d="M0 0h17c13 0 18-3 19-5 3-3 4-9 2-17-2-10-6-17-11-21s-13-6-24-6h-13L0 0Zm29 35h-61c-3 0-6-2-6-5l-28-146a6 6 0 0 1 5-7h32c3 0 6 2 6 5l7 34H6c13 0 23 1 31 4 9 3 17 8 24 14a71 71 0 0 1 22 39c3 19 0 34-9 45-10 11-25 17-45 17m-46-90H3c12 0 22 2 28 7s11 13 13 24 1 19-3 23c-4 5-12 7-24 7H-5l-12-61m46 84c18 0 32-5 40-14 8-10 11-24 8-41a65 65 0 0 0-20-36c-7-5-14-10-21-12-8-3-18-4-30-4h-27l-8-39h-32l29 146h61" style="fill:#fff;fill-opacity:1;fill-rule:nonzero;stroke:none" transform="translate(407 197)"/>
  </g>
</svg>
