<svg xmlns="http://www.w3.org/2000/svg" viewBox="0 0 140 190" version="1">
  <path fill-opacity=".5" d="M21 5h103c8.86 0 16 7.14 16 16v153c0 8.86-7.14 16-16 16H21c-8.86 0-16-7.14-16-16V21c0-8.86 7.14-16 16-16z"/>
  <path fill="#e7e7e7" d="M17 1h103c8.86 0 16 7.14 16 16v153c0 8.86-7.14 16-16 16H17c-8.86 0-16-7.14-16-16V17C1 8.14 8.14 1 17 1z"/>
  <path fill="#c7891f" d="M19 3h103c8.86 0 16 7.14 16 16v153c0 8.86-7.14 16-16 16H19c-8.86 0-16-7.14-16-16V19c0-8.86 7.14-16 16-16z"/>
  <path fill="#fff" d="M18 2h103c8.86 0 16 7.14 16 16v153c0 8.86-7.14 16-16 16H18c-8.86 0-16-7.14-16-16V18C2 9.14 9.14 2 18 2z"/>
  <path fill="red" d="M21.52 18.37l-7 12.56h7V18.37M20.46 12h7.1v18.93h3.55v5.6h-3.5V42h-6v-5.47h-11V29.9L20.5 12"/>
  <path fill="red" fill-rule="evenodd" d="M13.55 48.84c-.8 0-1.68.2-2.66.65-10.7 8.1 3.7 21.4 9.7 32.7l.14.03C27.4 69.83 40.1 56.17 30.4 49.4c-7.66-3.47-9.7 8.06-9.8 8.47-.05-.36-1.6-9.15-7.12-9.1z"/>
  <path fill="red" d="M117.34 170.63l7-12.56h-7v12.56m1.06 6.37h-7.1v-18.93h-3.55v-5.6h3.54V147h6v5.47h11v6.63l-9.9 17.9"/>
  <path fill="red" fill-rule="evenodd" d="M125.3 140c.8 0 1.7-.2 2.67-.65 10.64-8.2-3.7-21.42-9.76-32.77l-.1-.06c-6.65 12.4-19.32 26.06-9.64 32.83 7.67 3.46 9.73-8.06 9.8-8.47.06.36 1.63 9.15 7.13 9.1zM47.13 45.22c-.47 0-.98.12-1.55.38-6.18 4.84 2.15 12.66 5.67 19.36l.1.04c3.87-7.33 11.23-15.4 5.6-19.4-4.45-2.04-5.64 4.76-5.68 5-.04-.2-.95-5.4-4.14-5.38zm36 0c-.47 0-.98.12-1.55.38-6.18 4.84 2.15 12.66 5.67 19.36l.1.04c3.87-7.33 11.23-15.4 5.6-19.4-4.45-2.04-5.64 4.76-5.68 5-.04-.2-.95-5.4-4.14-5.38zM57.23 142c.47 0 .98-.12 1.55-.38 6.18-4.84-2.15-12.65-5.67-19.36l-.1-.04c-3.8 7.34-11.2 15.4-5.6 19.4 4.5 2.05 5.7-4.76 5.7-5 .1.2 1 5.4 4.2 5.38zm35-.22c.47 0 1-.12 1.55-.38 6.2-4.84-2.15-12.65-5.67-19.36L88 122c-3.86 7.34-11.22 15.4-5.6 19.4 4.46 2.05 5.65-4.76 5.7-5 .03.2.94 5.4 4.14 5.38z"/>
</svg>
