<svg xmlns="http://www.w3.org/2000/svg" viewBox="0 0 140 190" version="1">
  <path fill-opacity=".5" d="M21 5h103c8.86 0 16 7.14 16 16v153c0 8.86-7.14 16-16 16H21c-8.86 0-16-7.14-16-16V21c0-8.86 7.14-16 16-16z"/>
  <path fill="#e7e7e7" d="M17 1h103c8.86 0 16 7.14 16 16v153c0 8.86-7.14 16-16 16H17c-8.86 0-16-7.14-16-16V17C1 8.14 8.14 1 17 1z"/>
  <path fill="#c7891f" d="M19 3h103c8.86 0 16 7.14 16 16v153c0 8.86-7.14 16-16 16H19c-8.86 0-16-7.14-16-16V19c0-8.86 7.14-16 16-16z"/>
  <path fill="#fff" d="M18 2h103c8.86 0 16 7.14 16 16v153c0 8.86-7.14 16-16 16H18c-8.86 0-16-7.14-16-16V18C2 9.14 9.14 2 18 2z"/>
  <path fill="red" d="M21.3 27.2c-1.1 0-1.95.43-2.52 1.32-.55.87-.83 2.18-.83 3.93 0 1.76.28 3.08.83 3.96.57.9 1.4 1.4 2.53 1.4 1.2 0 2-.4 2.6-1.3.6-.9.9-2.2.9-3.9s-.3-3-.8-3.9c-.5-.8-1.4-1.3-2.5-1.3m8-14.4v5.6c-1-.6-2-1-3-1.3-.9-.3-1.8-.4-2.7-.4-1.9 0-3.4.7-4.4 2-1.1 1.3-1.7 3.2-1.9 5.7.8-.7 1.6-1.12 2.4-1.5.9-.3 1.8-.5 2.8-.5 2.6 0 4.6.9 6.1 2.7 1.5 1.8 2.3 4.17 2.3 7.08 0 3.2-.8 5.8-2.6 7.73-1.7 1.9-4 2.9-7 2.9-3.2 0-5.7-1.3-7.5-3.97-1.8-2.7-2.7-6.45-2.7-11.3 0-5 1.1-8.9 3.1-11.7 2.1-2.9 4.9-4.3 8.5-4.3 1.2 0 2.3.1 3.4.3 1.1.2 2.2.57 3.2 1"/>
  <path fill="red" fill-rule="evenodd" d="M13.55 48.84c-.8 0-1.68.2-2.66.65-10.7 8.1 3.7 21.4 9.7 32.7h.1c6.7-12.4 19.4-26.1 9.7-32.8-7.7-3.5-9.7 8-9.8 8.4-.1-.4-1.6-9.2-7.2-9.1z"/>
  <path fill="red" d="M117.56 161.8c1.12 0 1.96-.43 2.52-1.32.56-.87.83-2.18.83-3.93 0-1.76-.2-3.08-.8-3.96-.5-.9-1.4-1.4-2.5-1.4s-1.9.4-2.5 1.3c-.5.9-.8 2.2-.8 3.9s.3 3 .9 3.9c.6.9 1.4 1.3 2.6 1.3m-7.9 14.4v-5.6c1.1.6 2.1 1 3 1.3.9.3 1.8.4 2.7.4 1.9 0 3.4-.7 4.5-2s1.7-3.2 1.9-5.7c-.7.6-1.5 1.1-2.4 1.4-.8.32-1.8.5-2.8.5-2.5 0-4.6-.9-6.1-2.7-1.5-1.8-2.3-4.15-2.3-7.06 0-3.2.9-5.8 2.6-7.74 1.8-1.9 4.1-2.84 7-2.84 3.2 0 5.7 1.3 7.5 3.9 1.8 2.66 2.7 6.4 2.7 11.2 0 5-1 8.9-3.1 11.7-2 2.84-4.9 4.26-8.5 4.26-1.1 0-2.2-.1-3.3-.3-1.02-.2-2.1-.5-3.2-1"/>
  <path fill="red" fill-rule="evenodd" d="M125.3 140c.82 0 1.7-.2 2.67-.65 10.65-8.2-3.7-21.42-9.76-32.77l-.1-.06c-6.6 12.4-19.3 26.06-9.6 32.83 7.7 3.46 9.7-8.06 9.8-8.47.1.36 1.6 9.15 7.1 9.1zM47.13 45c-.47 0-.98.12-1.55.38-6.18 4.84 2.15 12.66 5.67 19.36l.1.04c3.87-7.33 11.23-15.4 5.6-19.4-4.45-2.04-5.64 4.76-5.68 5-.04-.2-.95-5.4-4.14-5.38zm36 .22c-.47 0-.98.12-1.55.38-6.18 4.84 2.15 12.66 5.67 19.36l.1.04c3.87-7.33 11.23-15.4 5.6-19.4-4.45-2.04-5.64 4.76-5.68 5-.04-.2-.95-5.4-4.14-5.38zm-36 36c-.47 0-.98.12-1.55.38-6.18 4.84 2.15 12.66 5.67 19.36l.1.04c3.87-7.33 11.23-15.4 5.6-19.4-4.45-2.04-5.64 4.76-5.68 5-.04-.2-.95-5.4-4.14-5.38zM90.88 101c.46 0 .98-.12 1.54-.38 6.2-4.84-2.15-12.65-5.67-19.36l-.1-.04c-3.87 7.34-11.23 15.4-5.6 19.4 4.45 2.05 5.64-4.76 5.68-5 .04.2.95 5.4 4.15 5.38zm-33.65 40.78c.47 0 .98-.12 1.55-.38 6.18-4.84-2.15-12.65-5.67-19.36L53 122c-3.86 7.34-11.22 15.4-5.6 19.4 4.46 2.05 5.65-4.76 5.7-5 .03.2.94 5.4 4.13 5.38zm35 0c.47 0 1-.12 1.55-.38 6.2-4.84-2.15-12.65-5.67-19.36L88 122c-3.86 7.34-11.22 15.4-5.6 19.4 4.46 2.05 5.65-4.76 5.7-5 .03.2.94 5.4 4.14 5.38z"/>
</svg>
