<svg xmlns="http://www.w3.org/2000/svg" viewBox="0 0 140 190" version="1">
  <path fill-opacity=".5" d="M21 5h103c8.86 0 16 7.14 16 16v153c0 8.86-7.14 16-16 16H21c-8.86 0-16-7.14-16-16V21c0-8.86 7.14-16 16-16z"/>
  <path fill="#e7e7e7" d="M17 1h103c8.86 0 16 7.14 16 16v153c0 8.86-7.14 16-16 16H17c-8.86 0-16-7.14-16-16V17C1 8.14 8.14 1 17 1z"/>
  <path fill="#c7891f" d="M19 3h103c8.86 0 16 7.14 16 16v153c0 8.86-7.14 16-16 16H19c-8.86 0-16-7.14-16-16V19c0-8.86 7.14-16 16-16z"/>
  <path fill="#fff" d="M18 2h103c8.86 0 16 7.14 16 16v153c0 8.86-7.14 16-16 16H18c-8.86 0-16-7.14-16-16V18C2 9.14 9.14 2 18 2z"/>
  <path fill="red" d="M20.84 28.57c-1.2 0-2.1.4-2.75 1.2-.7.78-1 1.9-1 3.4 0 1.46.3 2.6.9 3.38.6.78 1.5 1.17 2.7 1.17 1.2 0 2.1-.4 2.7-1.17.6-.8.9-1.92.9-3.4s-.4-2.6-1-3.4c-.7-.78-1.6-1.18-2.8-1.18M16 26.02c-1.5-.55-2.64-1.4-3.4-2.53-.76-1.2-1.15-2.6-1.15-4.3 0-2.6.76-4.5 2.33-5.8s3.82-2 6.84-2c3 0 5.3.6 6.85 2 1.6 1.3 2.4 3.2 2.4 5.8 0 1.7-.4 3.1-1.2 4.2-.77 1.1-1.9 1.9-3.4 2.5 1.7.5 2.94 1.4 3.8 2.7.86 1.2 1.3 2.8 1.3 4.8 0 3-.83 5.2-2.47 6.8-1.63 1.5-4.05 2.2-7.27 2.2-3.2 0-5.7-.8-7.3-2.3-1.67-1.6-2.5-3.8-2.5-6.8 0-1.9.42-3.5 1.27-4.8.9-1.26 2.18-2.2 3.87-2.74m1.5-6c0 1.2.27 2.1.8 2.75.57.64 1.36.96 2.37.96 1 0 1.8-.3 2.3-.95s.85-1.56.85-2.76c0-1.17-.3-2.1-.9-2.7-.6-.65-1.3-.97-2.3-.97-1.1 0-1.8.3-2.4.96-.6.68-.8 1.6-.8 2.76"/>
  <path fill="red" fill-rule="evenodd" d="M13.55 48.84c-.8 0-1.68.2-2.66.65-10.7 8.1 3.7 21.4 9.7 32.7h.1c6.7-12.4 19.4-26.1 9.7-32.8-7.7-3.5-9.7 8-9.8 8.4-.1-.4-1.6-9.2-7.2-9.1z"/>
  <path fill="red" d="M118.02 160.42c1.2 0 2.12-.4 2.76-1.18s.96-1.92.96-3.4c0-1.47-.32-2.6-.96-3.4-.64-.77-1.56-1.16-2.76-1.16-1.18 0-2.1.4-2.72 1.17-.63.8-.95 1.92-.95 3.4s.32 2.6.95 3.4c.63.78 1.54 1.17 2.72 1.17m4.67 2.56c1.5.55 2.6 1.4 3.4 2.53.7 1.2 1.1 2.6 1.1 4.3 0 2.6-.8 4.5-2.4 5.8-1.6 1.3-3.9 2-6.9 2-3 0-5.3-.6-6.9-2s-2.4-3.2-2.4-5.8c0-1.7.4-3.1 1.1-4.2.7-1.1 1.9-1.9 3.4-2.5-1.7-.5-3-1.4-3.8-2.7-.9-1.2-1.3-2.8-1.3-4.8 0-3 .8-5.2 2.4-6.7 1.63-1.5 4.05-2.2 7.26-2.2 3.23 0 5.67.8 7.3 2.3 1.66 1.56 2.5 3.8 2.5 6.78 0 1.93-.44 3.5-1.3 4.78-.85 1.3-2.1 2.2-3.8 2.78m-1.5 6c0-1.2-.28-2.1-.8-2.72-.57-.64-1.36-1-2.38-1-1 0-1.8.3-2.3 1-.6.6-.86 1.55-.86 2.74 0 1.2.3 2.1.8 2.77.6.64 1.35.96 2.35.96 1.02 0 1.8-.3 2.36-.97.56-.66.8-1.57.8-2.75"/>
  <path fill="red" fill-rule="evenodd" d="M125.3 140c.8 0 1.7-.2 2.67-.65 10.64-8.2-3.7-21.42-9.76-32.77l-.1-.06c-6.6 12.4-19.3 26.06-9.6 32.83 7.7 3.46 9.8-8.06 9.8-8.47.1.36 1.7 9.15 7.2 9.1zM44.13 40.22c-.47 0-.98.12-1.55.38-6.18 4.84 2.15 12.66 5.67 19.36l.1.04c3.87-7.33 11.23-15.4 5.6-19.4-4.45-2.04-5.64 4.76-5.68 5-.04-.2-.95-5.4-4.14-5.38zm39-.22c-.47 0-.98.12-1.55.38-6.18 4.84 2.15 12.66 5.67 19.36l.1.04c3.87-7.33 11.23-15.4 5.6-19.4-4.45-2.04-5.64 4.76-5.68 5-.04-.2-.95-5.4-4.14-5.38zM44.77 71.22c-.47 0-.98.12-1.55.38-6.18 4.84 2.15 12.66 5.67 19.36l.1.04c3.8-7.33 11.2-15.4 5.6-19.4-4.5-2.04-5.7 4.76-5.7 5-.1-.2-1-5.4-4.2-5.38zm39.36-1c-.47 0-.98.12-1.55.38-6.18 4.84 2.15 12.66 5.67 19.36l.1.04c3.87-7.33 11.23-15.4 5.6-19.4-4.45-2.04-5.64 4.76-5.68 5-.04-.2-.95-5.4-4.14-5.38zm-30.9 49.56c.47 0 .98-.12 1.55-.38 6.18-4.84-2.15-12.65-5.67-19.36L49 100c-3.86 7.34-11.22 15.4-5.6 19.4 4.46 2.05 5.65-4.76 5.7-5 .03.2.94 5.4 4.13 5.38zm.64 27c.47 0 .98-.12 1.55-.38 6.18-4.84-2.15-12.65-5.67-19.36l-.1-.04c-3.87 7.34-11.23 15.4-5.6 19.4 4.45 2.05 5.64-4.76 5.68-5 .04.2.95 5.4 4.14 5.38zm37.37 0c.46 0 .98-.12 1.54-.38 6.2-4.84-2.15-12.65-5.67-19.36L87 127c-3.86 7.34-11.22 15.4-5.6 19.4 4.46 2.05 5.65-4.76 5.7-5 .03.2.94 5.4 4.14 5.38zM92.88 119c.46 0 .98-.12 1.54-.38 6.2-4.84-2.15-12.65-5.67-19.36l-.1-.04c-3.87 7.34-11.23 15.4-5.6 19.4 4.45 2.05 5.64-4.76 5.68-5 .04.2.95 5.4 4.15 5.38z"/>
</svg>
