<svg xmlns="http://www.w3.org/2000/svg" width="195.3" height="275.32" viewBox="0 0 195.3 275.32001" version="1">
  <g>
    <g fill="none" stroke="#000" transform="translate(-276.37 -312.7)">
      <rect width="194.3" height="274.32" x="276.87" y="313.2" ry="8.09" rx="8.09" opacity=".61"/>
      <rect width="138.42" height="222.51" x="304.81" y="339.1" stroke-width=".5" ry="0" rx="0" opacity=".61"/>
    </g>
    <text x="226.39" y="324.86" fill="red" style="line-height:125%" font-size="24" font-family="Arial" transform="translate(-218.195 -299.86)">
      <tspan x="226.39" y="324.86" style="line-height:125%">8</tspan>
    </text>
    <text x="390.84" y="566.93" fill="red" style="line-height:125%" font-size="24" font-family="Arial" transform="translate(-218.195 -299.86)">
      <tspan x="390.84" y="566.93" style="line-height:125%">8</tspan>
    </text>
    <g fill="red">
      <path d="M56.65 65.2s-2.72-4.76-4.76-7.52c-2.06-2.76-3.96-3.9-6.38-6.58-2.45-2.7-4.2-4.35-4.2-9.25 0-4.1 3.5-7.28 7.6-7.28s7.45 3.23 7.7 7.28c.26-4.05 3.6-7.28 7.7-7.28s7.63 3.2 7.63 7.28c0 4.9-1.77 6.56-4.2 9.25-2.44 2.67-4.34 3.82-6.37 6.58-2.04 2.76-4.76 7.53-4.76 7.53z"/>
    </g>
    <g fill="red">
      <path d="M14.84 51.98s-1.55-2.7-2.7-4.27C11 46.18 9.9 45.5 8.54 44c-1.4-1.53-2.4-2.47-2.4-5.25 0-2.32 2-4.13 4.33-4.13 2.32 0 4.22 1.83 4.37 4.13.14-2.3 2.04-4.13 4.36-4.13 2.32 0 4.33 1.8 4.33 4.13 0 2.78-1 3.72-2.4 5.25-1.37 1.5-2.45 2.17-3.6 3.73-1.15 1.58-2.7 4.28-2.7 4.28z"/>
    </g>
    <g fill="red">
      <path d="M179.3 240.52s-1.55-2.7-2.7-4.27c-1.15-1.56-2.23-2.22-3.6-3.73-1.4-1.53-2.4-2.47-2.4-5.25 0-2.32 2-4.13 4.33-4.13 2.32 0 4.22 1.83 4.37 4.13.14-2.3 2.04-4.13 4.36-4.13 2.32 0 4.33 1.8 4.33 4.13 0 2.78-1 3.72-2.4 5.25-1.4 1.5-2.48 2.17-3.6 3.73-1.18 1.57-2.7 4.27-2.7 4.27z"/>
    </g>
    <g fill="red">
      <path d="M138.65 65.2s-2.72-4.76-4.76-7.52c-2.06-2.76-3.96-3.9-6.38-6.58-2.45-2.7-4.2-4.35-4.2-9.25 0-4.1 3.5-7.28 7.6-7.28s7.45 3.23 7.7 7.28c.26-4.05 3.6-7.28 7.7-7.28s7.63 3.2 7.63 7.28c0 4.9-1.77 6.56-4.2 9.25-2.44 2.67-4.34 3.82-6.37 6.58-2.04 2.76-4.76 7.53-4.76 7.53z"/>
    </g>
    <g fill="red">
      <path d="M138.65 240.56s-2.72-4.77-4.76-7.53c-2.06-2.76-3.96-3.9-6.38-6.58-2.45-2.7-4.2-4.35-4.2-9.25 0-4.1 3.5-7.28 7.6-7.28s7.45 3.23 7.7 7.28c.26-4.05 3.6-7.28 7.7-7.28s7.63 3.2 7.63 7.28c0 4.9-1.77 6.56-4.2 9.25-2.44 2.67-4.34 3.82-6.37 6.58-2.04 2.76-4.76 7.53-4.76 7.53z"/>
    </g>
    <g fill="red">
      <path d="M56.65 240.56s-2.72-4.77-4.76-7.53c-2.06-2.76-3.96-3.9-6.38-6.58-2.45-2.7-4.2-4.35-4.2-9.25 0-4.1 3.5-7.28 7.6-7.28s7.45 3.23 7.7 7.28c.26-4.05 3.6-7.28 7.7-7.28s7.63 3.2 7.63 7.28c0 4.9-1.77 6.56-4.2 9.25-2.44 2.67-4.34 3.82-6.37 6.58-2.04 2.76-4.76 7.53-4.76 7.53z"/>
    </g>
    <g fill="red">
      <g>
        <path d="M138.65 182.1s-2.72-4.76-4.76-7.52c-2.06-2.76-3.96-3.9-6.38-6.58-2.45-2.7-4.2-4.35-4.2-9.25 0-4.1 3.5-7.28 7.6-7.28s7.45 3.23 7.7 7.28c.26-4.05 3.6-7.28 7.7-7.28s7.63 3.2 7.63 7.28c0 4.9-1.77 6.56-4.2 9.25-2.44 2.67-4.34 3.82-6.37 6.58-2.04 2.76-4.76 7.53-4.76 7.53z"/>
      </g>
      <g>
        <path d="M56.65 123.66s-2.72-4.77-4.76-7.53c-2.06-2.76-3.96-3.9-6.38-6.58-2.45-2.7-4.2-4.35-4.2-9.25 0-4.1 3.5-7.28 7.6-7.28s7.45 3.23 7.7 7.28c.26-4.05 3.6-7.28 7.7-7.28s7.63 3.2 7.63 7.28c0 4.9-1.77 6.56-4.2 9.25-2.44 2.67-4.34 3.82-6.37 6.58-2.04 2.76-4.76 7.53-4.76 7.53z"/>
      </g>
      <g>
        <path d="M138.65 123.66s-2.72-4.77-4.76-7.53c-2.06-2.76-3.96-3.9-6.38-6.58-2.45-2.7-4.2-4.35-4.2-9.25 0-4.1 3.5-7.28 7.6-7.28s7.45 3.23 7.7 7.28c.26-4.05 3.6-7.28 7.7-7.28s7.63 3.2 7.63 7.28c0 4.9-1.77 6.56-4.2 9.25-2.44 2.67-4.34 3.82-6.37 6.58-2.04 2.76-4.76 7.53-4.76 7.53z"/>
      </g>
      <g>
        <path d="M56.65 182.1s-2.72-4.76-4.76-7.52c-2.06-2.76-3.96-3.9-6.38-6.58-2.45-2.7-4.2-4.35-4.2-9.25 0-4.1 3.5-7.28 7.6-7.28s7.45 3.23 7.7 7.28c.26-4.05 3.6-7.28 7.7-7.28s7.63 3.2 7.63 7.28c0 4.9-1.77 6.56-4.2 9.25-2.44 2.67-4.34 3.82-6.37 6.58-2.04 2.76-4.76 7.53-4.76 7.53z"/>
      </g>
    </g>
  </g>
</svg>
