<svg xmlns="http://www.w3.org/2000/svg" viewBox="0 0 140 190" version="1">
  <path fill-opacity=".5" d="M21 5h103c8.86 0 16 7.14 16 16v153c0 8.86-7.14 16-16 16H21c-8.86 0-16-7.14-16-16V21c0-8.86 7.14-16 16-16z"/>
  <path fill="#e7e7e7" d="M17 1h103c8.86 0 16 7.14 16 16v153c0 8.86-7.14 16-16 16H17c-8.86 0-16-7.14-16-16V17C1 8.14 8.14 1 17 1z"/>
  <path fill="#c7891f" d="M19 3h103c8.86 0 16 7.14 16 16v153c0 8.86-7.14 16-16 16H19c-8.86 0-16-7.14-16-16V19c0-8.86 7.14-16 16-16z"/>
  <path fill="#fff" d="M18 2h103c8.86 0 16 7.14 16 16v153c0 8.86-7.14 16-16 16H18c-8.86 0-16-7.14-16-16V18C2 9.14 9.14 2 18 2z"/>
  <path fill="red" d="M25.08 36.77h-10l-1.58 5.47H7.07l9.2-30h7.6l9.2 30h-6.43l-1.56-5.47m-8.4-5.56h6.8l-3.4-11.9-3.4 11.94M113.6 152.1h10l1.6-5.47h6.42l-9.2 30h-7.6l-9.2-30h6.43l1.56 5.47m8.45 5.56h-6.8l3.4 11.94 3.4-11.94"/>
  <path fill="red" fill-rule="evenodd" d="M20.4 48.66c-4.12 8.25-7.12 12.5-13.33 17.05 5.87 4.5 10 9.16 13.46 16.65 3.08-7.12 6.85-12.42 13.4-16.84-6.6-3.35-10.4-8.65-13.52-16.82zm97.94 57.68c-4.13 8.25-7.13 12.5-13.34 17.04 5.87 4.5 10 9.12 13.46 16.62 3.08-7.12 6.85-12.43 13.4-16.84-6.6-3.35-10.4-8.66-13.52-16.82zm-49.06-47.3C60.42 76.78 53.96 85.9 40.63 95.68c12.6 9.64 21.5 19.6 28.9 35.7 6.62-15.3 14.7-26.7 28.76-36.18C84.12 88 75.93 76.6 69.24 59.03z"/>
</svg>
