<svg xmlns="http://www.w3.org/2000/svg" viewBox="0 0 140 190" version="1">
  <path fill-opacity=".5" d="M21 5h103c8.86 0 16 7.14 16 16v153c0 8.86-7.14 16-16 16H21c-8.86 0-16-7.14-16-16V21c0-8.86 7.14-16 16-16z"/>
  <path fill="#e7e7e7" d="M17 1h103c8.86 0 16 7.14 16 16v153c0 8.86-7.14 16-16 16H17c-8.86 0-16-7.14-16-16V17C1 8.14 8.14 1 17 1z"/>
  <path fill="#c7891f" d="M19 3h103c8.86 0 16 7.14 16 16v153c0 8.86-7.14 16-16 16H19c-8.86 0-16-7.14-16-16V19c0-8.86 7.14-16 16-16z"/>
  <path fill="#fff" d="M18 2h103c8.86 0 16 7.14 16 16v153c0 8.86-7.14 16-16 16H18c-8.86 0-16-7.14-16-16V18C2 9.14 9.14 2 18 2z"/>
  <path fill="red" d="M20.6 28.8c-1.2 0-2.1.4-2.75 1.2-.65.8-.97 1.9-.97 3.4s.32 2.6.97 3.4c.64.77 1.56 1.15 2.75 1.15 1.2 0 2.1-.38 2.73-1.16.63-.8.95-1.98.95-3.4 0-1.5-.32-2.67-.95-3.4-.63-.8-1.54-1.2-2.73-1.2m-4.66-2.58c-1.5-.55-2.65-1.4-3.4-2.53-.77-1.14-1.16-2.56-1.16-4.27 0-2.53.8-4.45 2.35-5.78 1.55-1.32 3.86-2 6.87-2 3 0 5.3.68 6.85 2 1.56 1.3 2.34 3.24 2.34 5.78 0 1.7-.4 3.13-1.2 4.27-.78 1.15-1.9 2-3.4 2.55 1.7.56 2.94 1.47 3.8 2.75.85 1.27 1.3 2.86 1.3 4.8 0 2.95-.8 5.2-2.48 6.74-1.63 1.5-4.05 2.26-7.26 2.26-3.2 0-5.66-.73-7.3-2.24-1.65-1.53-2.47-3.8-2.47-6.76 0-1.93.43-3.52 1.27-4.8.88-1.27 2.16-2.18 3.84-2.74m1.5-6c0 1.18.27 2.1.8 2.75.57.68 1.36 1 2.37 1 1 0 1.77-.32 2.3-.95.56-.64.83-1.56.83-2.74 0-1.2-.25-2.12-.8-2.74-.52-.64-1.3-.97-2.3-.97-1 0-1.8.32-2.34.96-.55.65-.82 1.55-.82 2.74M118 160.34c1.2 0 2.13-.4 2.78-1.2.6-.78.94-1.9.94-3.38 0-1.47-.33-2.6-.96-3.4-.66-.77-1.58-1.16-2.78-1.16-1.18 0-2.1.4-2.7 1.2-.65.8-.96 1.92-.96 3.4 0 1.47.3 2.6.95 3.4.62.77 1.53 1.17 2.7 1.17m4.7 2.55c1.5.56 2.62 1.4 3.4 2.54.75 1.14 1.13 2.56 1.13 4.26 0 2.53-.78 4.45-2.33 5.78-1.56 1.34-3.85 2-6.88 2-3 0-5.3-.66-6.86-2-1.6-1.3-2.37-3.23-2.37-5.8 0-1.7.4-3.1 1.15-4.24.76-1.14 1.9-1.98 3.4-2.53-1.7-.56-2.95-1.48-3.8-2.75-.87-1.26-1.3-2.85-1.3-4.78 0-2.98.82-5.23 2.46-6.76 1.63-1.5 4.04-2.25 7.25-2.25 3.24 0 5.68.73 7.3 2.24 1.66 1.54 2.5 3.8 2.5 6.77 0 1.93-.44 3.5-1.3 4.78-.86 1.26-2.13 2.2-3.8 2.74m-1.5 6c0-1.18-.3-2.1-.8-2.74-.58-.64-1.37-.96-2.4-.96-1 0-1.75.3-2.3.97-.53.65-.8 1.57-.8 2.76s.27 2.1.8 2.74c.55.66 1.3.98 2.3.98 1.03 0 1.8-.3 2.38-.96.53-.63.8-1.54.8-2.72"/>
  <path fill="red" fill-rule="evenodd" d="M20.4 48.66c-4.12 8.25-7.12 12.5-13.33 17.05 5.87 4.5 10 9.17 13.46 16.66 3.08-7.12 6.85-12.42 13.4-16.84-6.6-3.35-10.4-8.65-13.52-16.82zm28.73-12.44c-2.4 4.84-4.16 7.34-7.77 10 3.42 2.65 5.83 5.37 7.84 9.78 1.8-4.18 4-7.3 7.8-9.9-3.83-1.97-6.05-5.08-7.87-9.88zm41 0c-2.4 4.84-4.16 7.34-7.77 10 3.42 2.65 5.83 5.37 7.84 9.78 1.8-4.18 4-7.3 7.8-9.9-3.83-1.97-6.05-5.08-7.87-9.88zm-41.36 35c-2.4 4.84-4.16 7.34-7.77 10 3.42 2.65 5.83 5.38 7.84 9.78 1.8-4.18 4-7.3 7.8-9.9-3.83-1.97-6.05-5.08-7.87-9.88zm39.36-1c-2.4 4.84-4.16 7.34-7.77 10 3.42 2.65 5.83 5.38 7.84 9.78 1.8-4.18 4-7.3 7.8-9.9-3.83-1.97-6.05-5.08-7.87-9.88zM89.77 100c-2.4 4.85-4.16 7.34-7.77 10 3.42 2.65 5.83 5.38 7.84 9.78 1.8-4.18 4-7.3 7.8-9.9-3.83-1.97-6.05-5.08-7.87-9.88zm-41.64 0c-2.4 4.85-4.16 7.34-7.77 10 3.42 2.65 5.83 5.38 7.84 9.78 1.8-4.18 4-7.3 7.8-9.9-3.83-1.97-6.05-5.08-7.87-9.88zm1 30c-2.4 4.85-4.16 7.34-7.77 10 3.42 2.65 5.83 5.38 7.84 9.78 1.8-4.18 4-7.3 7.8-9.9-3.83-1.97-6.05-5.08-7.87-9.88zm41 .22c-2.4 4.85-4.16 7.34-7.77 10 3.42 2.65 5.83 5.38 7.84 9.78 1.8-4.18 4-7.3 7.8-9.9-3.83-1.97-6.05-5.08-7.87-9.88zm28.2-23.88c-4.12 8.25-7.12 12.5-13.33 17.04 5.87 4.5 10 9.12 13.46 16.62 3.08-7.12 6.85-12.43 13.4-16.84-6.6-3.35-10.4-8.66-13.52-16.82z"/>
</svg>
