<svg xmlns="http://www.w3.org/2000/svg" viewBox="0 0 140 190" version="1">
  <path fill-opacity=".5" d="M21 5h103c8.86 0 16 7.14 16 16v153c0 8.86-7.14 16-16 16H21c-8.86 0-16-7.14-16-16V21c0-8.86 7.14-16 16-16z"/>
  <path fill="#e7e7e7" d="M17 1h103c8.86 0 16 7.14 16 16v153c0 8.86-7.14 16-16 16H17c-8.86 0-16-7.14-16-16V17C1 8.14 8.14 1 17 1z"/>
  <path fill="#c7891f" d="M19 3h103c8.86 0 16 7.14 16 16v153c0 8.86-7.14 16-16 16H19c-8.86 0-16-7.14-16-16V19c0-8.86 7.14-16 16-16z"/>
  <path fill="#fff" d="M18 2h103c8.86 0 16 7.14 16 16v153c0 8.86-7.14 16-16 16H18c-8.86 0-16-7.14-16-16V18C2 9.14 9.14 2 18 2z"/>
  <path fill-rule="evenodd" d="M87.2 45c-1.55 0-2.82 1.92-2.82 4.28 0 2 2.56 5.4 2.46 7-.82.47-3.36-3.77-4.67-3.77-1.55 0-2.8 2-2.8 4.3s1.25 4.3 2.8 4.3c1.35 0 3.66-4.2 4.67-3.8l-1.7 7.6 4.1-.02s-1.8-7.32-1.8-7.5h.03c1-.36 3.38 3.9 4.72 3.9 1.5 0 2.8-1.9 2.8-4.27 0-2.37-1.3-4.3-2.8-4.3-1.4 0-3.7 4.17-4.8 3.74.02-1.7 2.6-5.1 2.6-7.1 0-2.36-1.3-4.3-2.8-4.3zm-34.04 97c1.55 0 2.82-1.92 2.82-4.28 0-2-2.56-5.4-2.46-7 .82-.47 3.35 3.77 4.67 3.77 1.5 0 2.8-2 2.8-4.3s-1.3-4.3-2.8-4.3c-1.4 0-3.7 4.2-4.7 3.8l1.7-7.6h-4.1s1.8 7.35 1.8 7.5h-.1c-1 .4-3.4-3.9-4.75-3.9-1.55 0-2.8 1.93-2.8 4.3 0 2.36 1.25 4.3 2.8 4.3 1.3 0 3.7-4.18 4.72-3.75-.04 1.65-2.56 5.04-2.56 7.05 0 2.37 1.27 4.3 2.8 4.3zM20.53 48.66c-2.67 0-4.83 3.27-4.83 7.3 0 3.42 4.4 9.18 4.22 11.92-1.4.78-5.77-6.44-8.02-6.44-2.67 0-4.83 3.27-4.83 7.3 0 4 2.16 7.27 4.83 7.27 2.3 0 6.28-7.2 8.02-6.5L17 82.3l7-.04S20.95 69.8 20.94 69.5H21v.02c1.7-.64 5.8 6.63 8.1 6.63 2.66 0 4.82-3.26 4.82-7.28 0-4.03-2.16-7.3-4.83-7.3-2.3 0-6.4 7.1-8.1 6.38 0-2.8 4.3-8.58 4.3-12 0-4.02-2.2-7.3-4.88-7.3z"/>
  <path d="M21.3 18.6l-7.04 12.57h7.02V18.6m-1.08-6.36h7.1v18.93h3.55v5.6H27.3v5.47h-6v-5.47h-11v-6.63l9.92-17.9"/>
  <path fill-rule="evenodd" d="M117.42 139.96c2.66 0 4.83-3.26 4.83-7.28 0-3.43-4.4-9.2-4.22-11.93 1.4-.8 5.76 6.43 8.02 6.43 2.66 0 4.83-3.26 4.83-7.28s-2.17-7.3-4.83-7.3c-2.32 0-6.28 7.23-8.02 6.58l2.93-12.88-7.03.04s3.08 12.5 3.08 12.78c-1.7.63-5.8-6.65-8.1-6.65-2.6 0-4.8 3.27-4.8 7.3s2.2 7.28 4.88 7.28c2.25 0 6.3-7.1 8.1-6.37-.03 2.8-4.36 8.57-4.36 12 0 4.02 2.16 7.28 4.83 7.28z"/>
  <path d="M117.4 170.53l7-12.56h-7v12.56m1.06 6.37h-7.1v-18.93h-3.55v-5.6h3.6v-5.47h6.1v5.47h11V159l-9.92 17.9"/>
  <path fill-rule="evenodd" d="M51.2 45c-1.55 0-2.82 1.92-2.82 4.28 0 2 2.56 5.4 2.46 7-.82.47-3.36-3.77-4.67-3.77-1.55 0-2.8 2-2.8 4.3s1.25 4.3 2.8 4.3c1.35 0 3.66-4.2 4.67-3.8l-1.7 7.6 4.1-.02s-1.8-7.32-1.8-7.5h.03c1-.36 3.38 3.9 4.72 3.9 1.5 0 2.8-1.9 2.8-4.27 0-2.37-1.3-4.3-2.8-4.3-1.4 0-3.7 4.17-4.8 3.74.02-1.7 2.6-5.1 2.6-7.1 0-2.36-1.3-4.3-2.8-4.3zm36.6 96.78c1.55 0 2.82-1.92 2.82-4.28 0-2-2.56-5.4-2.46-7 .82-.47 3.36 3.77 4.67 3.77 1.55 0 2.8-1.92 2.8-4.28s-1.25-4.3-2.8-4.3c-1.35 0-3.66 4.2-4.67 3.8l1.7-7.6h-4.1s1.8 7.34 1.8 7.5h-.03c-1 .4-3.38-3.9-4.72-3.9-1.5 0-2.8 1.92-2.8 4.3 0 2.35 1.3 4.3 2.8 4.3 1.4 0 3.7-4.2 4.8-3.77 0 1.65-2.5 5.04-2.5 7.05 0 2.37 1.26 4.3 2.8 4.3z"/>
</svg>
