<svg xmlns="http://www.w3.org/2000/svg" viewBox="0 0 140 190" version="1">
  <path fill-opacity=".5" d="M21 5h103c8.86 0 16 7.14 16 16v153c0 8.86-7.14 16-16 16H21c-8.86 0-16-7.14-16-16V21c0-8.86 7.14-16 16-16z"/>
  <path fill="#e7e7e7" d="M17 1h103c8.86 0 16 7.14 16 16v153c0 8.86-7.14 16-16 16H17c-8.86 0-16-7.14-16-16V17C1 8.14 8.14 1 17 1z"/>
  <path fill="#c7891f" d="M19 3h103c8.86 0 16 7.14 16 16v153c0 8.86-7.14 16-16 16H19c-8.86 0-16-7.14-16-16V19c0-8.86 7.14-16 16-16z"/>
  <path fill="#fff" d="M18 2h103c8.86 0 16 7.14 16 16v153c0 8.86-7.14 16-16 16H18c-8.86 0-16-7.14-16-16V18C2 9.14 9.14 2 18 2z"/>
  <path d="M20.6 28.8c-1.2 0-2.1.4-2.75 1.2-.65.8-.97 1.9-.97 3.4s.32 2.6.97 3.4c.64.77 1.56 1.15 2.75 1.15 1.2 0 2.1-.38 2.73-1.16.63-.8.95-2 .95-3.4 0-1.5-.32-2.7-.95-3.4-.63-.8-1.54-1.2-2.73-1.2m-4.66-2.6c-1.5-.6-2.65-1.4-3.4-2.6-.77-1.2-1.16-2.6-1.16-4.3 0-2.6.8-4.5 2.35-5.8s3.86-2 6.87-2c3 0 5.3.6 6.85 2 1.56 1.3 2.34 3.2 2.34 5.7 0 1.7-.4 3.14-1.2 4.3-.8 1.13-1.9 2-3.4 2.53 1.7.56 2.9 1.47 3.8 2.75.8 1.25 1.3 2.84 1.3 4.8 0 2.93-.8 5.2-2.5 6.72-1.7 1.5-4.1 2.24-7.3 2.24s-5.7-.75-7.3-2.26c-1.7-1.5-2.5-3.8-2.5-6.73 0-1.93.4-3.5 1.2-4.8.9-1.27 2.1-2.2 3.8-2.74m1.5-6c0 1.2.24 2.1.8 2.78.54.66 1.33 1 2.34 1 1 0 1.8-.34 2.3-.97.6-.6.85-1.53.85-2.7 0-1.2-.26-2.1-.8-2.74-.53-.64-1.3-.97-2.3-.97-1 0-1.8.3-2.35.94-.53.63-.8 1.53-.8 2.72M118 160.32c1.2 0 2.13-.4 2.78-1.2.6-.8.94-1.9.94-3.4 0-1.45-.33-2.6-.96-3.4-.66-.75-1.58-1.14-2.78-1.14-1.18 0-2.1.4-2.7 1.2-.65.8-.96 1.9-.96 3.4 0 1.4.3 2.6.95 3.4.62.7 1.53 1.1 2.7 1.1m4.7 2.56c1.5.56 2.62 1.4 3.4 2.54.75 1.15 1.13 2.57 1.13 4.27 0 2.55-.78 4.47-2.33 5.8-1.56 1.34-3.85 2-6.88 2-3 0-5.3-.66-6.9-2-1.6-1.3-2.4-3.23-2.4-5.8 0-1.7.4-3.1 1.1-4.24.7-1.1 1.9-1.9 3.4-2.5-1.7-.5-3-1.4-3.8-2.7-.9-1.2-1.3-2.8-1.3-4.8 0-3 .8-5.2 2.4-6.7 1.6-1.5 4-2.2 7.2-2.2 3.25 0 5.7.73 7.3 2.24 1.67 1.58 2.5 3.8 2.5 6.8 0 1.94-.43 3.5-1.3 4.8-.85 1.25-2.12 2.2-3.8 2.73m-1.5 6c0-1.15-.3-2.1-.8-2.7-.57-.66-1.36-1-2.4-1-1 0-1.74.3-2.3 1-.52.65-.8 1.57-.8 2.76s.28 2.1.8 2.7c.56.66 1.3.98 2.3.98 1.04 0 1.8-.3 2.4-.94.5-.6.8-1.5.8-2.7"/>
  <path fill-rule="evenodd" d="M20.53 48.66c-2.67 0-4.83 3.27-4.83 7.3 0 3.42 4.4 9.18 4.22 11.92-1.4.78-5.77-6.44-8.02-6.44-2.67 0-4.83 3.27-4.83 7.3 0 4 2.16 7.27 4.83 7.27 2.3 0 6.28-7.2 8.02-6.5L17 82.3l7-.04S20.95 69.8 20.94 69.5H21v.02c1.7-.64 5.8 6.63 8.1 6.63 2.66 0 4.82-3.26 4.82-7.28 0-4.03-2.16-7.3-4.83-7.3-2.3 0-6.4 7.1-8.1 6.38 0-2.8 4.3-8.58 4.3-12 0-4.02-2.2-7.3-4.9-7.3zm96.9 91.3c2.65 0 4.82-3.26 4.82-7.28 0-3.43-4.4-9.2-4.22-11.93 1.4-.8 5.76 6.43 8.02 6.43 2.66 0 4.83-3.26 4.83-7.28s-2.17-7.3-4.83-7.3c-2.32 0-6.28 7.23-8.02 6.58l2.93-12.88-7.03.04s3.08 12.5 3.08 12.78c-1.7.63-5.8-6.65-8.1-6.65-2.6 0-4.8 3.27-4.8 7.3s2.2 7.28 4.9 7.28c2.3 0 6.3-7.1 8.1-6.37 0 2.8-4.3 8.57-4.3 12 0 4.02 2.2 7.28 4.9 7.28zM49.2 36c-1.55 0-2.82 1.92-2.82 4.28 0 2 2.56 5.4 2.46 7-.82.47-3.36-3.77-4.67-3.77-1.55 0-2.8 2-2.8 4.3s1.25 4.3 2.8 4.3c1.35 0 3.66-4.2 4.67-3.8l-1.7 7.6h4.1s-1.8-7.3-1.8-7.5h.03c1-.3 3.38 3.9 4.72 3.9 1.5 0 2.8-1.9 2.8-4.2 0-2.3-1.3-4.3-2.8-4.3-1.4 0-3.7 4.2-4.8 3.8 0-1.7 2.6-5.1 2.6-7.1 0-2.36-1.3-4.3-2.8-4.3zm41 .22c-1.55 0-2.82 1.92-2.82 4.28 0 2 2.56 5.4 2.46 7-.82.47-3.36-3.77-4.67-3.77-1.55 0-2.8 1.92-2.8 4.28s1.25 4.3 2.8 4.3c1.35 0 3.66-4.2 4.67-3.8l-1.7 7.5h4.1s-1.8-7.3-1.8-7.5h.03c1-.3 3.38 3.9 4.72 3.9 1.5 0 2.8-1.9 2.8-4.3s-1.3-4.3-2.8-4.3c-1.4 0-3.7 4.2-4.8 3.7 0-1.6 2.5-5 2.5-7 0-2.3-1.3-4.3-2.8-4.3zm-41.36 35c-1.55 0-2.82 1.92-2.82 4.28 0 2.02 2.56 5.4 2.46 7-.82.47-3.35-3.77-4.67-3.77-1.5 0-2.8 1.92-2.8 4.28s1.3 4.3 2.8 4.3c1.4 0 3.7-4.2 4.7-3.8L46.8 91l4.1-.02s-1.8-7.34-1.8-7.5h.03c1-.38 3.4 3.9 4.75 3.9 1.55 0 2.8-1.92 2.8-4.3 0-2.35-1.25-4.27-2.8-4.27-1.3 0-3.68 4.2-4.72 3.8.03-1.6 2.55-5 2.55-7 0-2.3-1.2-4.2-2.8-4.2zM88.2 70c-1.55 0-2.82 1.92-2.82 4.28 0 2.02 2.56 5.4 2.46 7-.82.47-3.36-3.77-4.67-3.77-1.55 0-2.8 2-2.8 4.3s1.25 4.3 2.8 4.3c1.35 0 3.66-4.2 4.67-3.8l-1.7 7.6h4.1s-1.8-7.3-1.8-7.5h.03c1-.3 3.38 3.9 4.72 3.9 1.5 0 2.8-1.9 2.8-4.3 0-2.3-1.3-4.2-2.8-4.2-1.4 0-3.7 4.2-4.8 3.8 0-1.64 2.5-5.03 2.5-7.04 0-2.4-1.3-4.3-2.8-4.3zm-40.04 49c1.55 0 2.82-1.92 2.82-4.28 0-2-2.56-5.4-2.46-7 .82-.47 3.35 3.77 4.67 3.77 1.5 0 2.8-2 2.8-4.3s-1.3-4.3-2.8-4.3c-1.4 0-3.7 4.2-4.7 3.8l1.7-7.6h-4.1s1.8 7.3 1.8 7.5h-.1c-1 .3-3.4-3.9-4.8-3.9-1.6 0-2.8 1.9-2.8 4.2 0 2.3 1.2 4.3 2.8 4.3 1.3 0 3.7-4.2 4.7-3.8-.1 1.65-2.6 5.04-2.6 7.05 0 2.37 1.22 4.3 2.8 4.3zm41.64.78c1.55 0 2.82-1.92 2.82-4.28 0-2-2.56-5.4-2.46-7 .82-.47 3.36 3.77 4.67 3.77 1.55 0 2.8-1.92 2.8-4.28s-1.25-4.3-2.8-4.3c-1.35 0-3.66 4.2-4.67 3.8l1.7-7.6h-4.1s1.8 7.3 1.8 7.5h-.03c-1 .4-3.38-3.9-4.72-3.9-1.5 0-2.8 1.9-2.8 4.3 0 2.3 1.3 4.3 2.8 4.3 1.4 0 3.7-4.2 4.8-3.8 0 1.6-2.5 5-2.5 7 0 2.3 1.3 4.3 2.8 4.3zm.36 30c1.55 0 2.82-1.92 2.82-4.28 0-2-2.56-5.4-2.46-7 .82-.47 3.35 3.77 4.67 3.77 1.5 0 2.8-1.92 2.8-4.28s-1.3-4.3-2.8-4.3c-1.4 0-3.7 4.2-4.7 3.8l1.7-7.6h-4.1s1.8 7.3 1.8 7.5h-.1c-1 .4-3.4-3.9-4.8-3.9-1.6 0-2.8 1.9-2.8 4.3 0 2.3 1.2 4.3 2.8 4.3 1.3 0 3.7-4.2 4.7-3.8-.1 1.6-2.6 5-2.6 7 0 2.3 1.22 4.3 2.8 4.3zm-41 0c1.55 0 2.82-1.92 2.82-4.28 0-2-2.56-5.4-2.46-7 .82-.47 3.35 3.77 4.67 3.77 1.5 0 2.8-1.92 2.8-4.28s-1.3-4.3-2.8-4.3c-1.4 0-3.7 4.2-4.7 3.8l1.7-7.6h-4.1s1.8 7.3 1.8 7.5h-.1c-1 .4-3.4-3.9-4.8-3.9-1.6 0-2.8 1.9-2.8 4.3 0 2.3 1.2 4.3 2.8 4.3 1.3 0 3.7-4.2 4.7-3.8-.1 1.6-2.6 5-2.6 7 0 2.3 1.22 4.3 2.8 4.3z"/>
</svg>
