<svg xmlns="http://www.w3.org/2000/svg" viewBox="0 0 140 190" version="1">
  <path fill-opacity=".5" d="M21 5h103c8.86 0 16 7.14 16 16v153c0 8.86-7.14 16-16 16H21c-8.86 0-16-7.14-16-16V21c0-8.86 7.14-16 16-16z"/>
  <path fill="#e7e7e7" d="M17 1h103c8.86 0 16 7.14 16 16v153c0 8.86-7.14 16-16 16H17c-8.86 0-16-7.14-16-16V17C1 8.14 8.14 1 17 1z"/>
  <path fill="#c7891f" d="M19 3h103c8.86 0 16 7.14 16 16v153c0 8.86-7.14 16-16 16H19c-8.86 0-16-7.14-16-16V19c0-8.86 7.14-16 16-16z"/>
  <path fill="#fff" d="M18 2h103c8.86 0 16 7.14 16 16v153c0 8.86-7.14 16-16 16H18c-8.86 0-16-7.14-16-16V18C2 9.14 9.14 2 18 2z"/>
  <path fill="red" d="M25.45 36.53h-10L13.87 42H7.44l9.2-30h7.6l9.2 30H27l-1.55-5.47m-8.4-5.56h6.8l-3.4-11.94-3.4 11.94"/>
  <path fill="red" fill-rule="evenodd" d="M14.13 48.84c-.8 0-1.7.2-2.66.65-10.65 8.16 3.7 21.4 9.76 32.74l.18.06c6.68-12.4 19.36-26.06 9.67-32.82-7.67-3.48-9.72 8.05-9.8 8.46-.05-.36-1.62-9.15-7.12-9.12z"/>
  <path fill="red" d="M113.57 152.47h10l1.58-5.47h6.43l-9.2 30h-7.6l-9.2-30H112l1.57 5.47m8.4 5.56h-6.8l3.4 11.94 3.4-11.94"/>
  <path fill="red" fill-rule="evenodd" d="M124.9 140c.8 0 1.68-.2 2.65-.65 10.65-8.2-3.7-21.42-9.76-32.77l-.2-.06c-6.67 12.4-19.34 26.06-9.65 32.83 7.67 3.46 9.72-8.06 9.8-8.47.05.36 1.62 9.15 7.12 9.1zM54.5 59.06c-1.7 0-3.6.43-5.7 1.4-22.78 17.7 7.94 46.26 20.92 70.8l.38.1c14.26-26.8 41.4-56.3 20.66-70.9-16.43-7.5-20.82 17.4-20.97 18.3-.17-.8-3.5-19.78-15.3-19.7z"/>
</svg>
