<svg xmlns="http://www.w3.org/2000/svg" viewBox="0 0 140 190" version="1">
  <path fill-opacity=".5" d="M21 5h103c8.86 0 16 7.14 16 16v153c0 8.86-7.14 16-16 16H21c-8.86 0-16-7.14-16-16V21c0-8.86 7.14-16 16-16z"/>
  <path fill="#e7e7e7" d="M17 1h103c8.86 0 16 7.14 16 16v153c0 8.86-7.14 16-16 16H17c-8.86 0-16-7.14-16-16V17C1 8.14 8.14 1 17 1z"/>
  <path fill="#c7891f" d="M19 3h103c8.86 0 16 7.14 16 16v153c0 8.86-7.14 16-16 16H19c-8.86 0-16-7.14-16-16V19c0-8.86 7.14-16 16-16z"/>
  <path fill="#fff" d="M18 2h103c8.86 0 16 7.14 16 16v153c0 8.86-7.14 16-16 16H18c-8.86 0-16-7.14-16-16V18C2 9.14 9.14 2 18 2z"/>
  <path fill="red" d="M11.68 42.37v-23.6l-5.24-.06.25-3.6 4.9-3.1h5.5v30.4m13.4-15.2c0-3.7-.3-6.4-.8-7.9S28.3 17 27 17s-2.13.8-2.66 2.3c-.53 1.56-.8 4.2-.8 7.9 0 3.8.27 6.5.8 8 .53 1.6 1.42 2.38 2.66 2.38s2.1-.77 2.65-2.33c.53-1.53.8-4.2.8-8m5.77.07c0 4.98-.8 8.8-2.4 11.5-1.6 2.7-3.9 4.05-6.8 4.05-2.98 0-5.26-1.34-6.86-4.03-1.6-2.7-2.4-6.55-2.4-11.5 0-5 .8-8.84 2.4-11.54 1.6-2.7 3.87-4.06 6.83-4.06s5.2 1.34 6.8 4.04c1.6 2.7 2.4 6.52 2.4 11.5"/>
  <path fill="red" fill-rule="evenodd" d="M13.55 48.84c-.8 0-1.68.2-2.66.65-10.7 8.1 3.7 21.4 9.7 32.7h.1c6.7-12.4 19.4-26.1 9.7-32.8-7.7-3.5-9.7 8-9.8 8.4-.1-.4-1.6-9.2-7.2-9.1z"/>
  <path fill="red" d="M127.2 146.63v23.6l5.23.06-.26 3.6-4.95 3.1h-5.5v-30.4m-13.43 15.2c0 3.7.2 6.4.8 7.9.5 1.5 1.4 2.3 2.6 2.3s2.1-.8 2.6-2.3c.5-1.6.8-4.2.8-7.9 0-3.8-.3-6.5-.8-8-.6-1.6-1.4-2.4-2.7-2.4-1.3 0-2.1.8-2.7 2.3-.6 1.5-.8 4.2-.8 8m-5.8-.1c0-5 .8-8.8 2.4-11.57 1.6-2.7 3.8-4.04 6.8-4.04 2.9 0 5.2 1.33 6.8 4.02 1.6 2.7 2.4 6.5 2.4 11.5s-.8 8.8-2.4 11.5-3.9 4.06-6.8 4.06-5.2-1.36-6.8-4.06-2.4-6.5-2.4-11.5"/>
  <path fill="red" fill-rule="evenodd" d="M125.3 140c.8 0 1.7-.2 2.67-.65 10.65-8.2-3.7-21.42-9.76-32.78l-.1-.05c-6.6 12.4-19.3 26.06-9.6 32.83 7.7 3.46 9.8-8.06 9.8-8.47.1.36 1.7 9.15 7.2 9.12zM65.13 51c-.47 0-.98.12-1.55.38-6.18 4.84 2.15 12.66 5.67 19.36l.1.04c3.87-7.33 11.23-15.4 5.6-19.4-4.45-2.04-5.64 4.76-5.68 5-.04-.2-.95-5.4-4.14-5.38zm7.74 85c.47 0 .98-.12 1.55-.38 6.18-4.84-2.15-12.65-5.67-19.36l-.1-.04c-3.87 7.34-11.23 15.4-5.6 19.4 4.45 2.05 5.64-4.76 5.68-5 .04.2.95 5.4 4.14 5.38zM44.13 40.22c-.47 0-.98.12-1.55.38-6.18 4.84 2.15 12.66 5.67 19.36l.1.04c3.87-7.33 11.23-15.4 5.6-19.4-4.45-2.04-5.64 4.76-5.68 5-.04-.2-.95-5.4-4.14-5.38zm39-.22c-.47 0-.98.12-1.55.38-6.18 4.84 2.15 12.66 5.67 19.36l.1.04c3.87-7.33 11.23-15.4 5.6-19.4-4.45-2.04-5.64 4.76-5.68 5-.04-.2-.95-5.4-4.14-5.38zM44.77 71.22c-.47 0-.98.12-1.55.38-6.18 4.84 2.15 12.66 5.67 19.36l.1.04c3.8-7.33 11.2-15.4 5.6-19.4-4.5-2.04-5.7 4.76-5.7 5-.1-.2-1-5.4-4.2-5.38zm39.36-1c-.47 0-.98.12-1.55.38-6.18 4.84 2.15 12.66 5.67 19.36l.1.04c3.87-7.33 11.23-15.4 5.6-19.4-4.45-2.04-5.64 4.76-5.68 5-.04-.2-.95-5.4-4.14-5.38zm-30.9 49.56c.47 0 .98-.12 1.55-.38 6.18-4.84-2.15-12.65-5.67-19.36L49 100c-3.86 7.34-11.22 15.4-5.6 19.4 4.46 2.05 5.65-4.76 5.7-5 .03.2.94 5.4 4.13 5.38zm.64 27c.47 0 .98-.12 1.55-.38 6.18-4.84-2.15-12.65-5.67-19.36l-.1-.04c-3.87 7.34-11.23 15.4-5.6 19.4 4.45 2.05 5.64-4.76 5.68-5 .04.2.95 5.4 4.14 5.38zm37.37 0c.46 0 .98-.12 1.54-.38 6.2-4.84-2.15-12.65-5.67-19.36L87 127c-3.86 7.34-11.22 15.4-5.6 19.4 4.46 2.05 5.65-4.76 5.7-5 .03.2.94 5.4 4.14 5.38zM92.88 119c.46 0 .98-.12 1.54-.38 6.2-4.84-2.15-12.65-5.67-19.36l-.1-.04c-3.87 7.34-11.23 15.4-5.6 19.4 4.45 2.05 5.64-4.76 5.68-5 .04.2.95 5.4 4.15 5.38z"/>
</svg>
