<svg xmlns="http://www.w3.org/2000/svg" viewBox="0 0 140 190" version="1">
  <path fill-opacity=".5" d="M21 5h103c8.86 0 16 7.14 16 16v153c0 8.86-7.14 16-16 16H21c-8.86 0-16-7.14-16-16V21c0-8.86 7.14-16 16-16z"/>
  <path fill="#e7e7e7" d="M17 1h103c8.86 0 16 7.14 16 16v153c0 8.86-7.14 16-16 16H17c-8.86 0-16-7.14-16-16V17C1 8.14 8.14 1 17 1z"/>
  <path fill="#c7891f" d="M19 3h103c8.86 0 16 7.14 16 16v153c0 8.86-7.14 16-16 16H19c-8.86 0-16-7.14-16-16V19c0-8.86 7.14-16 16-16z"/>
  <path fill="#fff" d="M18 2h103c8.86 0 16 7.14 16 16v153c0 8.86-7.14 16-16 16H18c-8.86 0-16-7.14-16-16V18C2 9.14 9.14 2 18 2z"/>
  <path fill="red" d="M11.28 12h18.68v4.36L20.3 42h-6.23l9.15-24.3H11.28V12"/>
  <path fill="red" fill-rule="evenodd" d="M13.55 48.84c-.8 0-1.68.2-2.66.65-10.7 8.1 3.7 21.4 9.7 32.7l.14.03C27.4 69.83 40.1 56.17 30.4 49.4c-7.66-3.47-9.7 8.06-9.8 8.47-.05-.36-1.6-9.15-7.12-9.1z"/>
  <path fill="red" d="M127.6 177h-18.7v-4.36l9.67-25.64h6.23l-9.15 24.32h11.94V177"/>
  <path fill="red" fill-rule="evenodd" d="M125.3 140c.82 0 1.7-.2 2.67-.65 10.65-8.2-3.7-21.42-9.76-32.77l-.1-.06c-6.65 12.4-19.32 26.06-9.63 32.83 7.67 3.46 9.7-8.06 9.8-8.47.05.36 1.62 9.15 7.12 9.1zM47.13 45.22c-.47 0-.98.12-1.55.38-6.18 4.84 2.15 12.66 5.67 19.36l.1.04c3.87-7.33 11.23-15.4 5.6-19.4-4.45-2.04-5.64 4.76-5.68 5-.04-.2-.95-5.4-4.14-5.38zm36 0c-.47 0-.98.12-1.55.38-6.18 4.84 2.15 12.66 5.67 19.36l.1.04c3.87-7.33 11.23-15.4 5.6-19.4-4.45-2.04-5.64 4.76-5.68 5-.04-.2-.95-5.4-4.14-5.38zM65.77 60c-.47 0-.98.12-1.55.38-6.18 4.84 2.15 12.66 5.67 19.36l.1.04c3.8-7.33 11.2-15.4 5.6-19.4-4.5-2.04-5.7 4.76-5.7 5-.1-.2-1-5.4-4.2-5.38zm0 23.22c-.47 0-.98.12-1.55.38-6.18 4.84 2.15 12.66 5.67 19.36l.1.04c3.8-7.33 11.2-15.4 5.6-19.4-4.5-2.04-5.7 4.76-5.7 5-.1-.2-1-5.4-4.2-5.38zm26.47 58.56c.46 0 .98-.12 1.54-.38 6.2-4.84-2.15-12.65-5.67-19.36L88 122c-3.86 7.34-11.22 15.4-5.6 19.4 4.46 2.05 5.65-4.76 5.7-5 .03.2.94 5.4 4.14 5.38zm-18-14.78c.46 0 .97-.12 1.54-.38 6.18-4.84-2.15-12.65-5.67-19.36l-.1-.04c-3.8 7.34-11.2 15.4-5.6 19.4 4.5 2.05 5.7-4.76 5.7-5 .1.2 1 5.4 4.2 5.38zm-17 14.78c.46 0 .97-.12 1.54-.38 6.18-4.84-2.15-12.65-5.67-19.36L53 122c-3.86 7.34-11.22 15.4-5.6 19.4 4.46 2.05 5.65-4.76 5.7-5 .03.2.94 5.4 4.13 5.38z"/>
</svg>
