<svg xmlns="http://www.w3.org/2000/svg" viewBox="0 0 140 190" version="1">
  <path fill-opacity=".5" d="M21 5h103c8.86 0 16 7.14 16 16v153c0 8.86-7.14 16-16 16H21c-8.86 0-16-7.14-16-16V21c0-8.86 7.14-16 16-16z"/>
  <path fill="#e7e7e7" d="M17 1h103c8.86 0 16 7.14 16 16v153c0 8.86-7.14 16-16 16H17c-8.86 0-16-7.14-16-16V17C1 8.14 8.14 1 17 1z"/>
  <path fill="#c7891f" d="M19 3h103c8.86 0 16 7.14 16 16v153c0 8.86-7.14 16-16 16H19c-8.86 0-16-7.14-16-16V19c0-8.86 7.14-16 16-16z"/>
  <path fill="#fff" d="M18 2h103c8.86 0 16 7.14 16 16v153c0 8.86-7.14 16-16 16H18c-8.86 0-16-7.14-16-16V18C2 9.14 9.14 2 18 2z"/>
  <path fill="red" d="M21.07 27.43c-1.12 0-1.96.44-2.53 1.32-.55.88-.83 2.2-.83 3.94 0 1.7.3 3 .9 3.9.6.8 1.4 1.3 2.6 1.3s2-.5 2.5-1.3c.6-.9.9-2.2.9-4 0-1.8-.3-3.1-.8-4-.5-.9-1.4-1.3-2.5-1.3M29 13v5.53c-1.05-.6-2.04-1.05-2.97-1.33-.96-.3-1.87-.42-2.75-.42-1.9 0-3.4.64-4.45 1.93-1.06 1.3-1.7 3.2-1.85 5.7.73-.6 1.52-1.1 2.37-1.4.85-.3 1.78-.5 2.8-.5 2.53 0 4.57.9 6.12 2.7 1.56 1.8 2.34 4.2 2.34 7.1 0 3.2-.8 5.8-2.6 7.7-1.7 2-4 2.9-7 2.9-3.2 0-5.7-1.3-7.5-3.9-1.7-2.6-2.6-6.3-2.6-11.2 0-4.9 1.1-8.8 3.1-11.6 2.1-2.8 4.9-4.3 8.5-4.3 1.2 0 2.3.1 3.3.3 1.1.2 2.1.6 3.2 1M117.7 162c1.2 0 2-.43 2.6-1.3.6-.86.9-2.17.9-3.93 0-1.76-.3-3.1-.82-3.97-.6-.87-1.4-1.3-2.55-1.3-1.1 0-2 .43-2.5 1.3-.6.9-.9 2.2-.9 3.96s.3 3.08.87 3.95c.53.9 1.37 1.38 2.5 1.38m-7.9 14.4v-5.57c1.05.6 2.04 1.03 2.97 1.3.9.3 1.84.43 2.7.43 1.9 0 3.4-.64 4.45-1.92 1.06-1.3 1.7-3.2 1.85-5.7-.7.65-1.5 1.14-2.36 1.46-.9.35-1.8.5-2.8.5-2.53 0-4.6-.9-6.12-2.7-1.53-1.8-2.3-4.12-2.3-7.03 0-3.2.85-5.8 2.6-7.74 1.73-1.95 4.06-2.9 7-2.9 3.2 0 5.7 1.3 7.5 3.9 1.74 2.7 2.6 6.4 2.6 11.2 0 5-1 8.9-3.06 11.7-2.1 2.87-4.9 4.3-8.5 4.3-1.2 0-2.3-.1-3.37-.34-1.04-.2-2.1-.53-3.2-.96"/>
  <path fill="red" fill-rule="evenodd" d="M20.4 48.66c-4.12 8.25-7.12 12.5-13.33 17.05 5.87 4.5 10 9.2 13.46 16.7 3.07-7.1 6.85-12.4 13.4-16.8-6.6-3.3-10.4-8.6-13.52-16.8zM51.13 45c-2.4 4.84-4.16 7.34-7.77 10 3.42 2.65 5.83 5.37 7.84 9.78 1.8-4.18 4-7.3 7.8-9.9-3.83-1.97-6.05-5.08-7.87-9.88zm36 0c-2.4 4.84-4.16 7.34-7.77 10 3.42 2.65 5.83 5.37 7.84 9.78 1.8-4.18 4-7.3 7.8-9.9-3.83-1.97-6.05-5.08-7.87-9.88zm-36 36c-2.4 4.84-4.16 7.34-7.77 10 3.42 2.65 5.83 5.38 7.84 9.78 1.8-4.18 4-7.3 7.8-9.9-3.83-1.97-6.05-5.08-7.87-9.88zm35.64 0c-2.4 4.84-4.16 7.34-7.77 10 3.42 2.65 5.83 5.38 7.84 9.78 1.8-4.18 4-7.3 7.8-9.9C90.8 88.9 88.6 85.8 86.77 81zm-33.64 41.22c-2.4 4.85-4.16 7.34-7.77 10 3.42 2.65 5.83 5.38 7.84 9.78 1.8-4.18 4-7.3 7.8-9.9-3.83-1.97-6.05-5.08-7.87-9.88zm35 0c-2.4 4.85-4.16 7.34-7.77 10 3.42 2.65 5.83 5.38 7.84 9.78 1.8-4.18 4-7.3 7.8-9.9-3.83-1.97-6.05-5.08-7.87-9.88zm30.2-15.88c-4.12 8.25-7.12 12.5-13.33 17.04 5.87 4.5 10 9.12 13.46 16.62 3.08-7.12 6.85-12.43 13.4-16.84-6.6-3.35-10.4-8.66-13.52-16.82z"/>
</svg>
