<?xml version="1.0" encoding="UTF-8" standalone="no"?>
<!-- Generator: Adobe Illustrator 14.0.0, SVG Export Plug-In . SVG Version: 6.00 Build 43363)  -->

<svg
   xmlns:dc="http://purl.org/dc/elements/1.1/"
   xmlns:cc="http://creativecommons.org/ns#"
   xmlns:rdf="http://www.w3.org/1999/02/22-rdf-syntax-ns#"
   xmlns:svg="http://www.w3.org/2000/svg"
   xmlns="http://www.w3.org/2000/svg"
   xmlns:sodipodi="http://sodipodi.sourceforge.net/DTD/sodipodi-0.dtd"
   xmlns:inkscape="http://www.inkscape.org/namespaces/inkscape"
   version="1.1"
   id="Layer_1"
   x="0px"
   y="0px"
   width="101.72795"
   height="225.47601"
   viewBox="0 0 101.72795 225.47601"
   enable-background="new 0 0 1440 1440"
   xml:space="preserve"
   inkscape:version="0.91 r13725"
   sodipodi:docname="caballito-mar.svg"><metadata
     id="metadata771"><rdf:RDF><cc:Work
         rdf:about=""><dc:format>image/svg+xml</dc:format><dc:type
           rdf:resource="http://purl.org/dc/dcmitype/StillImage" /><dc:title></dc:title></cc:Work></rdf:RDF></metadata><defs
     id="defs769" /><sodipodi:namedview
     pagecolor="#ffffff"
     bordercolor="#666666"
     borderopacity="1"
     objecttolerance="10"
     gridtolerance="10"
     guidetolerance="10"
     inkscape:pageopacity="0"
     inkscape:pageshadow="2"
     inkscape:window-width="1920"
     inkscape:window-height="1018"
     id="namedview767"
     showgrid="false"
     inkscape:zoom="0.57013889"
     inkscape:cx="112.72395"
     inkscape:cy="432.73845"
     inkscape:window-x="-8"
     inkscape:window-y="-8"
     inkscape:window-maximized="1"
     inkscape:current-layer="Layer_1"
     fit-margin-top="0"
     fit-margin-left="0"
     fit-margin-right="0"
     fit-margin-bottom="0" /><g
     id="g569"
     transform="translate(-607.27605,-927.26243)"><path
       d="m 707.055,1054.148 c -5.823,-3.333 -0.404,-16.524 -0.404,-16.524 -5.128,-1.741 -0.853,-15.38 -0.853,-15.38 -3.689,-10.15 2.625,-25.635 2.625,-25.635 0,0 -22.735,19.173 -28.091,24.686 -0.023,-10.59 1.21,-22.563 4.837,-35.029 4.545,-15.617 1.845,-27.745 -4.296,-35.67 3.826,-3.695 7.588,-4.111 8.872,-4.844 1.126,-0.645 -0.393,-1.112 -0.393,-1.112 -8.831,-1.825 -8.816,-7.622 -8.365,-9.077 0.197,-0.635 -0.675,-0.529 -0.675,-0.529 -7.475,0.34 -9.92,-1.349 -12.178,-5.517 0,0 -0.805,-1.319 -1.446,-0.782 -6.521,5.464 -14.756,-4.941 -13.415,-0.194 1.52,5.385 1.207,10.535 1.09,11.868 -4.764,0.914 -9.157,2.398 -12.081,4.51 -6.67,4.817 -9.474,7.852 -15.079,27.67 -2.03,4.873 -7.698,5.84 -12.081,6.008 -5.906,0.225 -7.085,1.516 -7.085,1.516 0,0 -4.861,13.714 9.989,17.61 0,0 4.91,-6.569 12.231,-10.319 1.517,-0.777 2.879,-0.929 3.922,-1.504 4.781,6.414 13.749,9.277 26.987,4.269 0,0 -3.97,2.008 -18.305,15.001 -15.991,14.496 -35.108,56.411 15.904,80.417 0,0 19.805,5.702 9.002,39.009 -10.802,33.307 -40.883,16.553 -34.506,4.201 4.428,-8.586 6.692,2.524 10.128,-1.396 0.66,-0.808 0.376,-1.542 0.255,-2.11 0,0 -3.979,-11.537 -15.486,-3.695 -11.015,7.506 -2.699,33.906 20.705,30.906 23.405,-3.001 50.109,-37.509 37.807,-90.919 0,0 -0.194,-0.515 -0.51,-1.483 l 21.553,8.805 c -4.802,-2.982 -0.658,-14.757 -0.658,-14.757 z m 0.656,14.753 c 0.375,0.231 0.804,0.413 1.293,0.528 l -1.293,-0.528 z"
       id="path571"
       inkscape:connector-curvature="0"
       style="fill:#b19bca" /><g
       id="g573"><path
         d="m 644.101,960.421 c 0.103,2.492 1.57,4.46 3.27,4.389 1.697,-0.074 2.991,-2.151 2.888,-4.646 -0.108,-2.492 -1.569,-4.456 -3.27,-4.385 -1.7,0.071 -2.992,2.151 -2.888,4.642 z"
         id="path575"
         inkscape:connector-curvature="0"
         style="fill:#7d52a1" /><path
         d="m 661.398,959.678 c 0.887,-1.541 5.858,-0.926 7.9,-5.548 0,0 0.533,2.157 1.776,2.878 0,0 0.443,5.238 1.064,5.443 0,0 -1.332,3.082 -1.332,3.803 0,0 -2.307,2.156 -2.042,3.082 0,0 -3.461,-5.445 -7.544,-5.652 0,0 -0.601,-2.655 0.178,-4.006 z"
         id="path577"
         inkscape:connector-curvature="0"
         style="fill:#7d52a1" /><path
         d="m 663.811,1029.696 c 0,0 -6.72,-7.253 -15.179,-1.926 0,0 1.621,10.538 -10.661,14.278 0,0 5.214,3.74 5.91,5.326 0,0 8.923,2.491 9.502,3.625 0,0 7.415,-0.68 9.617,0 0,0 5.1,-3.74 7.533,-3.74 0,10e-4 -8.691,-6.57 -6.722,-17.563 z"
         id="path579"
         inkscape:connector-curvature="0"
         style="fill:#7d52a1" /></g></g></svg>
