<?xml version="1.0" encoding="UTF-8" standalone="no"?>
<!-- Generator: Adobe Illustrator 14.0.0, SVG Export Plug-In . SVG Version: 6.00 Build 43363)  -->

<svg
   xmlns:dc="http://purl.org/dc/elements/1.1/"
   xmlns:cc="http://creativecommons.org/ns#"
   xmlns:rdf="http://www.w3.org/1999/02/22-rdf-syntax-ns#"
   xmlns:svg="http://www.w3.org/2000/svg"
   xmlns="http://www.w3.org/2000/svg"
   xmlns:sodipodi="http://sodipodi.sourceforge.net/DTD/sodipodi-0.dtd"
   xmlns:inkscape="http://www.inkscape.org/namespaces/inkscape"
   version="1.1"
   id="Layer_1"
   x="0px"
   y="0px"
   width="222.38954"
   height="257.42404"
   viewBox="0 0 222.38954 257.42404"
   enable-background="new 0 0 1440 1440"
   xml:space="preserve"
   inkscape:version="0.91 r13725"
   sodipodi:docname="cebra.svg"><metadata
     id="metadata771"><rdf:RDF><cc:Work
         rdf:about=""><dc:format>image/svg+xml</dc:format><dc:type
           rdf:resource="http://purl.org/dc/dcmitype/StillImage" /><dc:title></dc:title></cc:Work></rdf:RDF></metadata><defs
     id="defs769" /><sodipodi:namedview
     pagecolor="#ffffff"
     bordercolor="#666666"
     borderopacity="1"
     objecttolerance="10"
     gridtolerance="10"
     guidetolerance="10"
     inkscape:pageopacity="0"
     inkscape:pageshadow="2"
     inkscape:window-width="1920"
     inkscape:window-height="1018"
     id="namedview767"
     showgrid="false"
     fit-margin-top="0"
     fit-margin-left="0"
     fit-margin-right="0"
     fit-margin-bottom="0"
     inkscape:zoom="0.64641035"
     inkscape:cx="-448.98524"
     inkscape:cy="-377.62148"
     inkscape:window-x="-8"
     inkscape:window-y="-8"
     inkscape:window-maximized="1"
     inkscape:current-layer="Layer_1" /><g
     id="g563"
     transform="translate(-1146.912,-46.111954)"><path
       d="m 1368.58,253.094 -13.311,-4.09 c -14.084,-21.021 -19.041,-43.395 -22.166,-66.037 0.043,-0.775 0.068,-1.554 0.068,-2.339 0,-23.11 -14.042,-37.935 -34.024,-34.807 l -4.235,-0.216 0,0 -1.172,-0.06 -21.254,-1.084 -7.195,-0.368 c 0,0 0,0 0,0.001 l -6.682,-0.342 -10.474,-0.534 c 0,0 0,0 0,0 l -21.488,-1.097 -1.484,-6.722 0.761,-0.292 -0.521,-7.286 -3.771,-2.293 3.404,0.305 -1.1,-9.075 -2.758,-0.718 2.865,-0.937 -1.592,-6.477 -3.744,-1.93 3.615,0.108 -0.865,-5.797 -3.695,-1.201 4.014,-0.652 -0.865,-5.795 -4.51,-3.156 3.879,0.638 -0.418,-5.829 -6.516,-2.829 6.809,0.611 -0.891,-6.16 -6.438,-1.737 6.282,-0.45 0.058,-5.496 -6.679,1.209 5.625,-3.331 -1.23,-3.562 c 4.291,-5.031 2.82,-11.644 2.82,-11.644 -5.659,-1.241 -10.197,0.711 -13.652,3.686 l -1.988,-1.523 -4.938,7.052 -0.124,-0.035 4.046,-7.517 -7.467,-5.024 -4.828,8.36 -0.171,-0.024 3.459,-8.763 -9.752,-1.149 1.637,10.144 -0.293,0 -2.053,-9.875 -13.004,-0.293 1.947,7.737 c -0.258,-0.324 -0.525,-0.638 -0.8,-0.948 l -2.125,-6.496 -5.317,1.64 c -1.861,-0.46 -3.911,-0.479 -6.162,0.12 0,0 -2.727,14.851 10.51,18.914 -1.031,0.588 -2.055,1.217 -3.066,1.895 -3.963,2.649 -7.361,5.72 -10.113,8.995 l -0.01,-0.002 c -0.259,0.309 -0.512,0.619 -0.761,0.931 -0.014,0.018 -0.026,0.036 -0.04,0.053 -0.275,0.348 -0.541,0.697 -0.802,1.047 -0.072,0.1 -0.145,0.199 -0.217,0.298 -0.211,0.292 -0.419,0.584 -0.62,0.878 -0.062,0.088 -0.124,0.177 -0.183,0.265 -0.254,0.376 -0.5,0.752 -0.738,1.13 -0.028,0.047 -0.055,0.092 -0.084,0.139 -0.205,0.331 -0.402,0.662 -0.595,0.995 -0.062,0.108 -0.122,0.215 -0.184,0.322 -0.167,0.297 -0.329,0.594 -0.486,0.892 -0.047,0.09 -0.096,0.178 -0.142,0.268 -0.195,0.379 -0.383,0.759 -0.561,1.138 -0.033,0.068 -0.063,0.137 -0.094,0.204 -0.145,0.314 -0.283,0.629 -0.416,0.943 -0.048,0.113 -0.094,0.227 -0.141,0.34 -0.122,0.299 -0.238,0.598 -0.349,0.896 -0.032,0.087 -0.067,0.174 -0.099,0.26 -0.136,0.378 -0.264,0.756 -0.382,1.132 -0.026,0.083 -0.05,0.165 -0.074,0.248 -0.091,0.299 -0.177,0.598 -0.257,0.897 -0.029,0.115 -0.061,0.23 -0.089,0.345 -0.075,0.299 -0.145,0.598 -0.208,0.896 -0.018,0.081 -0.037,0.161 -0.053,0.242 -0.076,0.37 -0.142,0.739 -0.199,1.106 -0.014,0.092 -0.024,0.185 -0.037,0.277 -0.041,0.282 -0.076,0.565 -0.105,0.845 -0.012,0.115 -0.022,0.229 -0.031,0.343 -0.027,0.299 -0.047,0.597 -0.061,0.894 0,0.068 -0.01,0.137 -0.011,0.206 -0.013,0.358 -0.015,0.714 -0.01,1.068 0,0.096 0.01,0.19 0.011,0.285 0.01,0.268 0.023,0.533 0.044,0.798 0.01,0.109 0.017,0.216 0.027,0.325 0.028,0.299 0.063,0.598 0.106,0.892 0.01,0.051 0.013,0.103 0.021,0.153 0.052,0.341 0.117,0.678 0.191,1.013 0.02,0.094 0.043,0.187 0.065,0.28 0.06,0.25 0.124,0.5 0.194,0.746 0.029,0.099 0.058,0.199 0.088,0.297 0.093,0.301 0.192,0.599 0.304,0.893 0.01,0.026 0.017,0.054 0.028,0.081 0.121,0.318 0.256,0.631 0.398,0.941 0.041,0.089 0.084,0.176 0.127,0.264 0.111,0.231 0.229,0.46 0.354,0.686 0.048,0.088 0.096,0.176 0.146,0.264 0.171,0.298 0.35,0.595 0.542,0.883 0.305,0.454 0.637,0.881 0.982,1.295 0.063,0.075 0.124,0.152 0.188,0.227 0.339,0.389 0.696,0.76 1.071,1.113 0.075,0.07 0.152,0.137 0.228,0.206 0.394,0.356 0.8,0.698 1.229,1.014 0.02,0.014 0.039,0.026 0.058,0.04 0.421,0.306 0.86,0.59 1.313,0.86 0.086,0.051 0.17,0.104 0.258,0.155 0.453,0.26 0.922,0.5 1.404,0.724 0.104,0.047 0.208,0.093 0.313,0.139 0.497,0.22 1.005,0.427 1.53,0.608 0.048,0.017 0.098,0.031 0.146,0.047 0.498,0.168 1.012,0.318 1.533,0.453 0.108,0.028 0.216,0.059 0.325,0.085 0.538,0.131 1.089,0.242 1.647,0.337 0.133,0.023 0.268,0.043 0.402,0.064 0.57,0.087 1.148,0.163 1.736,0.215 0.085,0.007 0.171,0.01 0.255,0.017 0.544,0.043 1.095,0.068 1.653,0.081 0.131,0.002 0.26,0.008 0.393,0.01 0.594,0.005 1.195,-0.009 1.803,-0.039 0.162,-0.007 0.324,-0.018 0.487,-0.028 0.614,-0.039 1.232,-0.089 1.858,-0.163 0.118,-0.014 0.238,-0.032 0.357,-0.047 0.563,-0.072 1.131,-0.158 1.701,-0.258 0.148,-0.025 0.295,-0.048 0.444,-0.075 0.624,-0.117 1.253,-0.253 1.885,-0.404 0.185,-0.043 0.366,-0.088 0.551,-0.135 0.634,-0.16 1.271,-0.333 1.909,-0.525 0.145,-0.044 0.291,-0.094 0.437,-0.14 0.566,-0.177 1.135,-0.369 1.703,-0.573 0.107,-0.039 0.215,-0.069 0.323,-0.109 l 0.027,-0.016 c 2.396,-0.883 4.803,-1.997 7.168,-3.346 1.44,12.585 2.656,24.949 1.129,46.297 -1.973,14.551 -1.375,16.479 -1.643,25.554 0,8.899 0.135,17.149 2.604,24.021 -0.033,5.333 0,15.521 -0.143,27.352 -0.01,0.827 -0.02,1.663 -0.031,2.505 -0.028,2.14 -0.064,4.324 -0.105,6.535 -0.016,0.894 -0.034,1.791 -0.054,2.691 l 0,0 c -0.036,1.711 -0.078,3.433 -0.124,5.159 -0.023,0.898 -0.049,1.795 -0.076,2.694 l 0,0 c -0.035,1.212 -0.074,2.425 -0.117,3.635 l 0,0 c -0.033,0.99 -0.071,1.978 -0.109,2.96 l 0,0 c -0.072,1.864 -0.15,3.715 -0.239,5.542 l 0,0 c -0.038,0.802 -0.077,1.6 -0.118,2.39 -0.073,1.374 -0.149,2.732 -0.231,4.066 -0.056,0.909 -0.114,1.803 -0.175,2.689 -0.121,1.758 -0.25,3.472 -0.391,5.128 -0.094,1.099 -0.191,2.172 -0.294,3.219 l 0,0 c -0.56,5.717 -1.267,10.619 -2.156,14.17 l -0.024,-0.022 c -0.404,1.616 -0.848,2.955 -1.332,3.962 l 0.033,0.003 c 0,0.007 -0.01,0.014 -0.01,0.021 l 11.732,1.272 c 0,0 0.098,-6.028 0.293,-15.106 0.01,-0.403 0.018,-0.809 0.027,-1.223 0,-0.139 0.01,-0.276 0.01,-0.417 0.014,-0.625 0.027,-1.264 0.042,-1.912 0.039,-1.771 0.082,-3.63 0.129,-5.559 0.02,-0.804 0.038,-1.614 0.059,-2.442 l 0,0 c 0.039,-1.581 0.08,-3.201 0.123,-4.854 0.011,-0.421 0.021,-0.841 0.033,-1.267 0.049,-1.899 0.102,-3.836 0.156,-5.797 0.027,-0.975 0.057,-1.954 0.085,-2.938 l 0,0 c 0.035,-1.205 0.071,-2.416 0.108,-3.631 l 0,0 c 0.026,-0.877 0.055,-1.756 0.082,-2.635 l 0,0 c 0.055,-1.737 0.111,-3.477 0.17,-5.212 l 0,0 c 0.026,-0.809 0.055,-1.614 0.083,-2.418 l 0,0 c 0.077,-2.212 0.158,-4.408 0.242,-6.57 l 0,0 c 0.022,-0.58 0.046,-1.156 0.067,-1.729 l 0,0 c 0.326,-8.136 0.697,-15.725 1.115,-21.787 1.721,1.556 3.633,2.9 5.741,4.001 1.104,20.836 2.751,61.676 -0.161,78.725 -0.029,0.164 -0.058,0.326 -0.086,0.488 -0.023,0.127 -0.047,0.254 -0.07,0.379 -0.029,0.148 -0.057,0.296 -0.086,0.439 -0.025,0.13 -0.053,0.256 -0.079,0.383 -0.028,0.134 -0.058,0.27 -0.087,0.4 -0.027,0.125 -0.057,0.247 -0.085,0.369 -0.029,0.126 -0.059,0.251 -0.089,0.371 -0.031,0.123 -0.063,0.239 -0.093,0.358 -0.03,0.112 -0.06,0.228 -0.089,0.336 -0.034,0.119 -0.068,0.231 -0.103,0.345 -0.03,0.101 -0.06,0.206 -0.09,0.303 -0.038,0.122 -0.077,0.235 -0.117,0.351 -0.028,0.082 -0.055,0.167 -0.083,0.246 -0.068,0.191 -0.138,0.374 -0.209,0.548 l 14.861,0 c 0,0 -10e-4,-0.025 0,-0.063 -0.011,-0.208 -0.05,-0.971 -0.112,-2.207 -0.01,-0.154 -0.018,-0.316 -0.025,-0.483 0,-0.083 -0.01,-0.168 -0.013,-0.257 -0.147,-2.869 -0.389,-7.618 -0.688,-13.527 -0.045,-0.913 -0.092,-1.84 -0.142,-2.806 l 0,0 c -0.093,-1.855 -0.192,-3.805 -0.293,-5.826 l 0,0 c -0.048,-0.943 -0.097,-1.901 -0.146,-2.875 l 0,0 c -0.064,-1.285 -0.131,-2.595 -0.197,-3.924 l 0,0 c -0.018,-0.363 -0.037,-0.732 -0.055,-1.098 -0.111,-2.224 -0.225,-4.498 -0.34,-6.804 l 0,0 c -0.053,-1.03 -0.104,-2.066 -0.155,-3.108 l 0,0 c -0.188,-3.765 -0.378,-7.586 -0.563,-11.378 l 0,0 c -0.028,-0.558 -0.055,-1.111 -0.082,-1.665 -0.441,-8.961 -0.864,-17.68 -1.208,-25 1.889,0.299 3.878,0.458 5.978,0.458 l 70.263,0 c -0.086,3.616 -0.194,7.509 -0.335,11.558 l 0,0 c -0.028,0.847 -0.061,1.698 -0.092,2.558 l 0,0 c -0.078,2.122 -0.167,4.279 -0.264,6.454 -0.039,0.874 -0.081,1.75 -0.122,2.629 -0.085,1.745 -0.175,3.5 -0.272,5.251 l 0,0 c -0.048,0.842 -0.096,1.684 -0.145,2.523 -0.076,1.291 -0.156,2.577 -0.242,3.858 -0.061,0.92 -0.124,1.839 -0.189,2.753 l 0,0 c -0.137,1.95 -0.287,3.88 -0.445,5.778 l 0,0 c -0.062,0.728 -0.123,1.45 -0.188,2.169 -0.127,1.422 -0.26,2.821 -0.4,4.194 l 0,0 c -0.088,0.859 -0.177,1.709 -0.27,2.546 l 0,0 c -0.254,2.285 -0.527,4.48 -0.822,6.561 l 0,0 c -0.086,0.615 -0.175,1.22 -0.266,1.813 0,0.019 -0.01,0.036 -0.01,0.055 -0.089,0.582 -0.179,1.154 -0.271,1.715 -0.529,3.204 -1.12,6.045 -1.778,8.404 -0.035,0.125 -0.07,0.248 -0.107,0.371 -0.039,0.138 -0.078,0.278 -0.119,0.412 -0.037,0.123 -0.074,0.243 -0.113,0.363 -0.039,0.128 -0.078,0.257 -0.119,0.382 -0.039,0.123 -0.08,0.243 -0.121,0.362 -0.037,0.115 -0.076,0.231 -0.115,0.342 -0.043,0.123 -0.086,0.24 -0.13,0.358 -0.038,0.104 -0.077,0.21 -0.113,0.311 -0.047,0.119 -0.094,0.234 -0.14,0.351 -0.036,0.09 -0.073,0.186 -0.109,0.275 -0.051,0.119 -0.102,0.231 -0.152,0.346 -0.034,0.078 -0.068,0.16 -0.104,0.235 -0.058,0.126 -0.115,0.244 -0.175,0.363 -0.028,0.059 -0.056,0.12 -0.085,0.176 -0.089,0.171 -0.178,0.337 -0.268,0.495 l 13.967,1.272 c 0,0 0,-0.145 0.01,-0.408 10e-4,-0.064 0,-0.143 0,-0.22 0.01,-0.234 0.012,-0.531 0.021,-0.886 0.018,-0.857 0.045,-2.05 0.078,-3.551 l 0,0 c 0.299,-13.212 1.217,-49.343 2.75,-72.775 3.283,-0.558 6.438,-1.491 9.414,-2.765 -0.468,22.177 1.078,61.083 -1.765,77.753 l 0,0 c -0.259,1.512 -0.553,2.837 -0.888,3.956 -0.191,0.642 -0.397,1.216 -0.619,1.713 l 17.705,-0.179 c 0,0 -0.01,-0.122 -0.021,-0.346 0,-0.046 0,-0.098 -0.01,-0.155 -0.043,-0.828 -0.139,-2.666 -0.278,-5.303 -10e-4,-0.027 0,-0.053 0,-0.08 l 0,0 c -0.094,-1.77 -0.205,-3.889 -0.331,-6.293 -0.016,-0.312 -0.033,-0.615 -0.049,-0.937 l 0,0 c -0.109,-2.08 -0.229,-4.355 -0.354,-6.784 l 0,0 c -0.013,-0.222 -0.024,-0.457 -0.036,-0.682 -0.122,-2.312 -0.248,-4.763 -0.381,-7.309 -0.021,-0.363 -0.038,-0.722 -0.059,-1.089 l 0,0 c -0.104,-1.974 -0.207,-4.002 -0.317,-6.071 -0.042,-0.83 -0.087,-1.661 -0.13,-2.502 l 0,0 c -0.061,-1.189 -0.124,-2.39 -0.186,-3.599 l 0,0 c -0.051,-0.938 -0.1,-1.88 -0.148,-2.826 l 0,0 c -0.242,-4.677 -0.49,-9.443 -0.734,-14.148 l 0,0 c -0.051,-1.014 -0.104,-2.025 -0.155,-3.034 l 0,0 c -0.214,-4.13 -0.422,-8.182 -0.619,-12.055 l 0,0 c -0.061,-1.155 -0.117,-2.293 -0.175,-3.414 l 0,0 c -0.061,-1.172 -0.119,-2.322 -0.176,-3.448 l 0,0 c -0.021,-0.439 -0.045,-0.868 -0.066,-1.299 -0.143,-2.774 -0.273,-5.392 -0.394,-7.793 5.111,-4.131 9.226,-9.44 11.94,-15.515 3.77,18.188 9.68,36.117 20.539,53.167 0.088,0.149 0.176,0.29 0.264,0.421 l -0.248,0.128 1.867,9.839 2.662,-0.193 -0.037,-3.627 1.922,7.269 6.438,-1.641 -4.731,-5.555 5.072,4.694 2.381,-1.582 1.273,-1.465 -5.045,-5.103 5.359,1.618 1.326,-2.538 z"
       id="path565"
       inkscape:connector-curvature="0"
       style="fill:#ffffff;stroke:#010101" /><path
       d="m 1281.548,298.438 13.968,1.272 c 0,0 0.037,-1.86 0.11,-5.065 l -12.063,-1.503 c -0.611,2.216 -1.28,4.014 -2.015,5.296 z m -77.593,-0.949 -0.01,0.041 c -0.381,2.287 -0.844,4.156 -1.396,5.508 l 14.86,0 c 0,0 -0.103,-2.001 -0.277,-5.439 l -13.179,-0.11 z m -18.867,-2.257 c -0.406,1.616 -0.849,2.955 -1.333,3.962 l 11.732,1.272 c 0,0 0.022,-1.468 0.071,-4.05 l -10.447,-1.16 -0.023,-0.024 z m 120.937,1.626 c -0.406,2.381 -0.903,4.31 -1.507,5.669 l 17.705,-0.179 c 0,0 -0.116,-2.169 -0.31,-5.883 l -15.888,0.393 z M 1178.809,71.698 c 0.361,-1.74 -0.354,-3.361 -1.603,-3.621 -1.248,-0.259 -2.553,0.94 -2.915,2.678 -0.361,1.741 0.355,3.36 1.604,3.622 1.246,0.259 2.55,-0.942 2.914,-2.679 z m 4.663,3.406 c 1.019,0.499 2.488,-0.409 3.279,-2.026 0.793,-1.618 0.606,-3.331 -0.413,-3.833 -1.019,-0.498 -2.486,0.409 -3.279,2.027 -0.791,1.618 -0.607,3.333 0.413,3.832 z m 185.108,177.99 -13.643,-4.192 -4.838,2.483 1.866,9.839 2.663,-0.193 -0.039,-3.628 1.923,7.269 6.438,-1.64 -4.731,-5.555 5.072,4.694 2.381,-1.582 1.274,-1.465 -5.045,-5.103 5.359,1.618 1.32,-2.545 z M 1184.604,105.12 c 0.072,-0.049 0.145,-0.101 0.217,-0.151 0.054,-0.038 0.107,-0.077 0.162,-0.116 0.068,-0.051 0.137,-0.103 0.205,-0.155 0.057,-0.043 0.112,-0.087 0.169,-0.131 0.065,-0.053 0.132,-0.105 0.196,-0.16 0.059,-0.048 0.116,-0.098 0.174,-0.148 0.063,-0.054 0.125,-0.108 0.188,-0.163 0.061,-0.056 0.121,-0.113 0.182,-0.17 0.058,-0.053 0.115,-0.107 0.172,-0.162 0.083,-0.081 0.165,-0.164 0.246,-0.248 0.07,-0.071 0.139,-0.145 0.208,-0.219 0.073,-0.081 0.148,-0.161 0.222,-0.244 0.049,-0.056 0.097,-0.113 0.146,-0.17 0.063,-0.075 0.126,-0.15 0.188,-0.227 0.05,-0.061 0.099,-0.125 0.146,-0.186 0.061,-0.076 0.121,-0.155 0.18,-0.233 0.049,-0.065 0.096,-0.13 0.144,-0.196 0.06,-0.083 0.118,-0.167 0.177,-0.252 0.045,-0.065 0.09,-0.131 0.134,-0.197 0.062,-0.093 0.122,-0.188 0.183,-0.283 0.039,-0.063 0.079,-0.125 0.118,-0.19 0.07,-0.114 0.139,-0.234 0.206,-0.352 0.028,-0.048 0.057,-0.095 0.084,-0.144 0.094,-0.168 0.186,-0.34 0.275,-0.516 0.025,-0.051 0.051,-0.104 0.076,-0.156 0.064,-0.128 0.127,-0.257 0.189,-0.39 0.033,-0.071 0.065,-0.144 0.098,-0.216 0.053,-0.118 0.105,-0.236 0.157,-0.357 0.034,-0.08 0.066,-0.16 0.1,-0.24 0.048,-0.12 0.097,-0.24 0.144,-0.364 0.031,-0.082 0.063,-0.166 0.095,-0.25 0.048,-0.127 0.093,-0.256 0.138,-0.387 0.029,-0.083 0.059,-0.166 0.086,-0.25 0.049,-0.145 0.096,-0.293 0.141,-0.443 0.023,-0.073 0.047,-0.144 0.068,-0.218 0.066,-0.226 0.131,-0.454 0.193,-0.688 0,0 0.291,-0.534 -0.082,-0.812 -0.465,-0.345 -1.171,0.062 -1.171,0.062 -0.054,0.228 -0.11,0.45 -0.17,0.668 -0.019,0.071 -0.04,0.141 -0.059,0.211 -0.04,0.146 -0.082,0.29 -0.125,0.432 -0.024,0.08 -0.049,0.159 -0.074,0.238 -0.041,0.128 -0.082,0.255 -0.124,0.38 -0.027,0.081 -0.054,0.16 -0.082,0.238 -0.043,0.123 -0.087,0.243 -0.132,0.362 -0.028,0.074 -0.056,0.149 -0.084,0.222 -0.049,0.124 -0.099,0.245 -0.148,0.366 -0.026,0.063 -0.053,0.128 -0.079,0.191 -0.067,0.156 -0.137,0.308 -0.207,0.457 -0.01,0.023 -0.021,0.048 -0.032,0.072 -0.081,0.17 -0.163,0.336 -0.247,0.499 -0.031,0.058 -0.062,0.113 -0.092,0.169 -0.056,0.105 -0.111,0.209 -0.17,0.31 -0.036,0.065 -0.074,0.128 -0.111,0.191 -0.053,0.09 -0.105,0.18 -0.16,0.266 -0.039,0.065 -0.08,0.128 -0.12,0.191 -0.054,0.083 -0.107,0.165 -0.162,0.245 -0.042,0.062 -0.083,0.124 -0.126,0.184 -0.056,0.08 -0.112,0.158 -0.17,0.235 -0.041,0.057 -0.082,0.115 -0.125,0.17 -0.064,0.084 -0.13,0.166 -0.195,0.248 -0.047,0.058 -0.092,0.115 -0.139,0.171 -0.088,0.104 -0.175,0.206 -0.264,0.305 -0.049,0.056 -0.1,0.108 -0.15,0.161 -0.055,0.059 -0.109,0.119 -0.165,0.176 -0.055,0.056 -0.11,0.111 -0.165,0.166 -0.053,0.051 -0.104,0.103 -0.156,0.152 -0.059,0.055 -0.117,0.109 -0.176,0.162 -0.05,0.046 -0.1,0.09 -0.15,0.135 -0.062,0.053 -0.123,0.107 -0.186,0.158 -0.047,0.039 -0.094,0.078 -0.143,0.116 -0.065,0.053 -0.132,0.107 -0.198,0.158 -0.037,0.029 -0.074,0.055 -0.111,0.083 -0.264,0.198 -0.532,0.379 -0.804,0.546 -0.027,0.017 -0.055,0.035 -0.083,0.052 -0.083,0.05 -0.169,0.098 -0.253,0.146 -0.031,0.019 -0.063,0.037 -0.096,0.054 -0.084,0.047 -0.17,0.092 -0.256,0.137 -0.029,0.015 -0.059,0.03 -0.089,0.045 -0.089,0.045 -0.179,0.089 -0.269,0.131 -0.021,0.01 -0.043,0.02 -0.064,0.03 -0.547,0.253 -1.103,0.457 -1.659,0.616 -10e-4,0 -10e-4,0 -10e-4,0 -0.113,0.033 -0.227,0.063 -0.34,0.092 -10e-4,0.001 0,0.001 0,0.001 -4.276,-16.576 -19.494,-24.758 -23.707,-26.738 -0.01,-0.002 -0.01,-0.005 -0.016,-0.007 -0.066,-0.032 -0.129,-0.06 -0.189,-0.088 -0.013,-0.006 -0.024,-0.012 -0.037,-0.017 -0.054,-0.025 -0.104,-0.049 -0.154,-0.071 -0.018,-0.008 -0.034,-0.016 -0.051,-0.023 -0.045,-0.02 -0.086,-0.038 -0.125,-0.056 -0.018,-0.008 -0.035,-0.016 -0.051,-0.023 -0.036,-0.016 -0.07,-0.031 -0.103,-0.045 -0.017,-0.008 -0.032,-0.014 -0.048,-0.021 -0.029,-0.013 -0.059,-0.025 -0.084,-0.036 -0.012,-0.005 -0.023,-0.01 -0.034,-0.015 -0.024,-0.01 -0.047,-0.021 -0.067,-0.029 -0.01,-0.005 -0.019,-0.008 -0.029,-0.012 -0.016,-0.007 -0.031,-0.014 -0.043,-0.019 -0.01,-0.001 -0.01,-0.002 -0.013,-0.004 -0.028,-0.012 -0.047,-0.02 -0.047,-0.02 -7.964,9.475 -10.484,20.659 -5.378,28.299 5.385,8.055 17.648,9.783 30.127,5.192 l 1.027,-0.6 c -0.035,-0.383 -0.075,-0.762 -0.121,-1.138 -0.01,-0.059 -0.016,-0.117 -0.023,-0.176 -0.041,-0.323 -0.086,-0.645 -0.135,-0.963 0,-0.029 -0.01,-0.059 -0.015,-0.089 -0.056,-0.349 -0.114,-0.694 -0.179,-1.037 0,-0.002 0,-0.005 0,-0.007 -0.068,-0.365 -0.143,-0.726 -0.222,-1.082 0,-0.001 0,-0.001 -10e-4,-0.002 0.482,-0.12 0.966,-0.269 1.445,-0.446 0.025,-0.009 0.051,-0.019 0.075,-0.027 0.097,-0.037 0.194,-0.075 0.29,-0.114 0.035,-0.015 0.072,-0.029 0.107,-0.043 0.092,-0.039 0.184,-0.078 0.274,-0.118 0.04,-0.018 0.079,-0.036 0.118,-0.054 0.09,-0.041 0.18,-0.083 0.27,-0.126 0.039,-0.019 0.078,-0.039 0.116,-0.058 0.091,-0.045 0.181,-0.09 0.271,-0.139 0.029,-0.015 0.059,-0.031 0.087,-0.046 0.298,-0.161 0.593,-0.336 0.884,-0.527 0.048,-0.027 0.095,-0.059 0.144,-0.091 z m 21.675,-49.633 -2.219,-1.7 -4.938,7.052 -0.122,-0.037 4.047,-7.516 -7.468,-5.023 -4.828,8.36 -0.171,-0.024 3.459,-8.763 -9.752,-1.149 1.637,10.144 -0.293,0 -2.053,-9.875 -13.004,-0.293 3.585,14.242 -4.563,-13.948 -10.462,3.226 10.979,16.388 c 4.287,-2.885 7.811,-3.687 7.811,-3.687 8.145,-2.483 16.096,-1.966 21.881,1.135 1.428,-2.664 3.581,-5.957 6.474,-8.532 z m 59.012,88.606 c 8.099,19.547 7.551,58.513 7.551,58.513 9.992,-9.993 6.522,-44.414 4.717,-57.886 l -12.268,-0.627 z m -17.154,-0.875 c 9.858,22.674 3.587,58.605 3.587,58.605 12.891,-18.494 11.323,-44.618 9.399,-57.942 l -12.986,-0.663 z m -18.182,-0.927 c 7.752,27.941 4.197,39.151 2.734,42.191 9.676,-17.214 8.052,-32.585 5.421,-41.775 l -8.155,-0.416 z m 2.734,42.191 c -0.171,0.304 -0.341,0.61 -0.52,0.916 10e-4,-0.001 0.216,-0.279 0.52,-0.916 z m 73.787,5.609 c 11.407,-16.635 12.412,-31.814 11.448,-41.174 -4.008,-2.309 -8.672,-3.541 -13.826,-3.5 10.761,14.356 2.378,44.674 2.378,44.674 z m -25.449,-45.194 c 9.969,17.481 10.586,53.798 10.586,53.798 10.02,-10.021 5.499,-41.099 3.299,-53.09 l -13.885,-0.708 z m -92.31,113.152 c 2.899,-0.325 4.615,-2.39 4.615,-2.39 -2.13,0 -3.555,-0.262 -4.506,-0.571 -0.034,0.991 -0.071,1.978 -0.109,2.961 z m -1.449,23.036 c 4.227,0.148 6.053,-1.386 6.053,-1.386 -3.158,-0.739 -4.852,-1.387 -5.758,-1.843 -0.094,1.101 -0.192,2.179 -0.295,3.229 z m 2.068,-49.342 c -0.011,0.911 -0.022,1.832 -0.034,2.761 2.522,0.533 4.681,-0.094 4.681,-0.094 -2.84,-0.23 -4.092,-1.588 -4.647,-2.667 z m -1.209,38.299 c -0.057,0.921 -0.115,1.829 -0.178,2.729 3.733,-0.199 5.514,-2.903 5.514,-2.903 -2.479,0.7 -4.208,0.529 -5.336,0.174 z m 0.23,-4.037 c 3.949,0.049 4.844,-2.133 4.844,-2.133 -2.33,0.542 -3.797,0.247 -4.725,-0.28 -0.038,0.809 -0.078,1.615 -0.119,2.413 z m 0.842,-25.189 c -0.017,0.925 -0.036,1.853 -0.057,2.785 2.883,0.147 5.363,-0.196 5.363,-0.196 -2.107,-0.312 -4.066,-1.602 -5.306,-2.589 z m -0.178,7.902 c -0.024,0.912 -0.05,1.824 -0.077,2.736 3.063,-0.153 4.258,-1.791 4.258,-1.791 -1.757,0.125 -3.177,-0.383 -4.181,-0.945 z m 21.519,20.239 c 0,0 0.964,2.32 5.253,2.112 -0.044,-0.875 -0.088,-1.759 -0.133,-2.651 -0.883,0.675 -2.426,1.165 -5.12,0.539 z m -0.131,-8.213 c 0,0 1.862,2.247 4.989,2.424 -0.053,-1.03 -0.104,-2.067 -0.156,-3.109 -0.937,0.357 -2.444,0.685 -4.833,0.685 z m 0.131,-5.997 c 0,0 1.263,1.737 4.528,1.803 -0.047,-0.955 -0.096,-1.91 -0.143,-2.865 -1.011,0.605 -2.507,1.196 -4.385,1.062 z m 4.139,-6.066 c -0.046,-0.929 -0.091,-1.857 -0.137,-2.781 -1.239,0.988 -3.2,2.278 -5.306,2.591 0,-0.001 2.527,0.347 5.443,0.19 z m -0.557,-11.374 c -0.664,0.968 -1.935,1.991 -4.365,2.188 0,0 2.043,0.595 4.478,0.136 -0.038,-0.778 -0.077,-1.556 -0.113,-2.324 z m -3.843,37.646 c 0,0 1.887,2.871 5.855,2.915 -0.047,-0.944 -0.096,-1.902 -0.145,-2.875 -1.1,0.437 -2.937,0.743 -5.71,-0.04 z m 6.368,13.066 c -0.069,-1.375 -0.142,-2.818 -0.219,-4.325 -0.8,0.971 -2.427,2.211 -5.759,2.991 10e-4,0 1.661,1.544 5.978,1.334 z m 97.694,-43.687 c 0,0 2.274,0.578 4.849,-0.105 -0.051,-1.014 -0.104,-2.025 -0.156,-3.034 -0.429,1.125 -1.58,2.783 -4.693,3.139 z m 7.373,48.328 c -0.057,-1.071 -0.116,-2.215 -0.181,-3.423 -0.939,0.781 -2.412,1.606 -4.732,2.23 0,0 1.412,1.237 4.913,1.193 z m -5.689,-12.908 c 0,0 1.716,2.431 5.154,2.7 -0.045,-0.848 -0.092,-1.714 -0.137,-2.598 -1.116,0.326 -2.747,0.46 -5.017,-0.102 z m 0.063,-6.001 c 0,0 0.944,2.081 4.74,1.973 -0.041,-0.773 -0.082,-1.559 -0.124,-2.351 -0.916,0.521 -2.349,0.827 -4.616,0.378 z m 4.325,-5.965 c -0.052,-0.987 -0.104,-1.983 -0.155,-2.987 -0.94,0.35 -2.378,0.675 -4.569,0.746 -10e-4,0 1.795,2.025 4.724,2.241 z m -0.343,-6.585 c -0.049,-0.938 -0.098,-1.88 -0.146,-2.827 -0.992,0.628 -2.45,1.247 -4.302,1.175 -10e-4,0 1.283,1.644 4.448,1.652 z m -0.408,-7.862 c -0.051,-0.971 -0.102,-1.942 -0.152,-2.916 -1.189,1.041 -3.197,2.514 -5.397,2.916 -10e-4,0 2.598,0.269 5.549,0 z m -1.598,-31.063 c -0.038,-0.729 -0.074,-1.445 -0.11,-2.152 l -0.22,-2.055 c 0,0 -0.537,3.54 -6.182,2.421 0,0.001 1.225,2.705 6.512,1.786 z m -5.9,14.313 c 0,0 1.877,1.644 6.67,1.075 -0.105,-2.044 -0.209,-4.062 -0.312,-6.046 l 0.01,0.326 c 0,0 -0.291,3.01 -6.367,4.645 z m -0.676,-10.096 c 0,0 2.304,3.273 6.926,2.646 -0.061,-1.156 -0.117,-2.294 -0.175,-3.415 -0.663,0.551 -2.684,1.773 -6.751,0.769 z m -24.154,41.541 c 5.117,0.307 6.381,-1.604 6.381,-1.604 -2.91,0.235 -4.866,-0.088 -6.191,-0.592 -0.063,0.736 -0.127,1.469 -0.19,2.196 z m 1.211,-17.111 c -0.047,0.858 -0.098,1.717 -0.147,2.574 4.083,0.095 5.732,-1.307 5.732,-1.307 -2.308,-0.075 -4.191,-0.647 -5.585,-1.267 z m -1.88,23.824 c 4.858,-0.006 7.249,-2.276 7.249,-2.276 -3.109,0.358 -5.384,0.121 -6.979,-0.27 -0.086,0.859 -0.177,1.708 -0.27,2.546 z m -1.37,10.161 c 5.521,0.496 7.717,-0.723 7.717,-0.723 -3.643,-0.9 -5.837,-1.953 -7.168,-2.877 -0.176,1.243 -0.358,2.446 -0.549,3.6 z m 2.674,-24.849 c 3.857,-0.129 6.174,-1.844 6.174,-1.844 -2.723,-0.223 -4.637,-0.59 -5.98,-0.964 -0.061,0.939 -0.127,1.875 -0.194,2.808 z m 1.326,-26.028 c -0.029,0.847 -0.061,1.698 -0.092,2.558 3.504,0.767 6.488,0.405 6.488,0.405 -3.763,-0.523 -5.548,-1.857 -6.396,-2.963 z m -0.479,11.641 c 3.982,0.446 7.361,0.399 7.361,0.399 -2.854,-0.531 -5.486,-1.928 -7.239,-3.041 -0.039,0.878 -0.08,1.759 -0.122,2.642 z m -62.892,-110.564 -0.521,-7.286 -3.771,-2.292 3.404,0.306 -1.099,-9.076 -2.759,-0.718 2.864,-0.937 -1.59,-6.478 -3.746,-1.929 3.615,0.108 -0.865,-5.798 -3.693,-1.201 4.012,-0.652 -0.865,-5.795 -4.51,-3.156 3.879,0.638 -0.417,-5.829 -6.516,-2.83 6.809,0.612 -0.892,-6.161 -6.438,-1.736 6.282,-0.45 0.058,-5.496 -6.678,1.208 5.625,-3.331 -1.231,-3.562 c -2.137,2.505 -5.694,4.621 -11.588,5.329 0.224,0.284 0.449,0.564 0.65,0.865 0.453,0.679 0.847,1.386 1.181,2.116 1.002,2.193 1.474,4.605 1.463,7.136 0.01,0.026 0.01,0.055 0.014,0.082 0.01,0.051 0.017,0.105 0.024,0.156 0.027,0.168 0.055,0.34 0.084,0.521 0,0.016 0.01,0.034 0.01,0.051 0.013,0.074 0.023,0.147 0.037,0.224 0.045,0.271 0.092,0.557 0.141,0.854 0.016,0.093 0.031,0.188 0.047,0.284 0.053,0.311 0.105,0.632 0.162,0.968 0.017,0.094 0.033,0.192 0.05,0.288 0.05,0.29 0.101,0.589 0.153,0.896 0.018,0.098 0.033,0.195 0.051,0.294 0.063,0.36 0.129,0.735 0.195,1.117 0.024,0.139 0.049,0.276 0.074,0.418 0.068,0.384 0.139,0.779 0.211,1.184 0.023,0.126 0.047,0.254 0.07,0.38 0.066,0.369 0.136,0.747 0.207,1.131 0.02,0.107 0.038,0.212 0.059,0.32 0.051,0.27 0.103,0.551 0.155,0.829 -0.022,-0.116 -0.045,-0.238 -0.066,-0.353 -1.435,4.974 -4.45,12.023 -10.458,15.147 0,0 0.01,0 0.022,0 0.11,-0.005 0.61,-0.026 1.368,-0.093 0.71,-0.063 1.646,-0.165 2.709,-0.331 0.036,-0.006 0.074,-0.011 0.11,-0.018 2.671,-0.426 6.092,-1.252 8.639,-2.849 0.055,0.251 0.108,0.5 0.164,0.753 0.035,0.159 0.069,0.318 0.104,0.478 0.129,0.583 0.26,1.172 0.395,1.764 0.037,0.168 0.074,0.336 0.112,0.504 0.032,0.139 0.065,0.279 0.097,0.418 -1.894,4.21 -5.262,9.117 -11.111,11.436 0,0 7.436,0.447 13.522,-1.54 0,-0.01 0,-0.021 -0.01,-0.031 0.044,0.169 0.087,0.339 0.132,0.508 0.035,0.135 0.07,0.27 0.106,0.407 0.172,0.653 0.348,1.308 0.524,1.964 0.044,0.163 0.088,0.324 0.133,0.486 0.18,0.662 0.363,1.322 0.549,1.985 0.034,0.123 0.069,0.247 0.104,0.37 0.175,0.619 0.351,1.236 0.53,1.856 0.031,0.108 0.063,0.216 0.094,0.326 0.084,0.285 0.17,0.569 0.254,0.854 0,-0.013 -0.01,-0.026 -0.012,-0.039 -2.428,2.393 -6.619,5.564 -12.645,6.813 0,0 0.01,0.001 0.027,0.005 0.033,0.006 0.102,0.019 0.199,0.035 0.147,0.025 0.363,0.061 0.639,0.104 1.375,0.21 4.219,0.581 7.287,0.601 2.251,0.014 4.623,-0.161 6.625,-0.728 0.145,0.438 0.289,0.877 0.437,1.313 0.048,0.14 0.095,0.28 0.143,0.42 0.224,0.653 0.449,1.304 0.679,1.95 0.041,0.12 0.084,0.238 0.127,0.356 0.229,0.645 0.461,1.287 0.697,1.923 0,0.01 0.01,0.021 0.012,0.03 -1.928,1.685 -5.455,3.82 -11.874,5.65 0,0 7.465,1.748 14.1,-0.023 0,-0.006 -0.01,-0.013 -0.01,-0.019 0.126,0.299 0.25,0.604 0.378,0.9 l 1.48,0.077 -1.484,-6.723 0.763,-0.288 z"
       id="path567"
       inkscape:connector-curvature="0"
       style="fill:#020202" /></g></svg>
