<?xml version="1.0" encoding="UTF-8" standalone="no"?>
<!-- Generator: Adobe Illustrator 14.0.0, SVG Export Plug-In . SVG Version: 6.00 Build 43363)  -->

<svg
   xmlns:dc="http://purl.org/dc/elements/1.1/"
   xmlns:cc="http://creativecommons.org/ns#"
   xmlns:rdf="http://www.w3.org/1999/02/22-rdf-syntax-ns#"
   xmlns:svg="http://www.w3.org/2000/svg"
   xmlns="http://www.w3.org/2000/svg"
   xmlns:sodipodi="http://sodipodi.sourceforge.net/DTD/sodipodi-0.dtd"
   xmlns:inkscape="http://www.inkscape.org/namespaces/inkscape"
   version="1.1"
   id="Layer_1"
   x="0px"
   y="0px"
   width="275.40433"
   height="231.21481"
   viewBox="0 0 275.40433 231.21481"
   enable-background="new 0 0 1440 1440"
   xml:space="preserve"
   inkscape:version="0.91 r13725"
   sodipodi:docname="oso-blanco.svg"><metadata
     id="metadata771"><rdf:RDF><cc:Work
         rdf:about=""><dc:format>image/svg+xml</dc:format><dc:type
           rdf:resource="http://purl.org/dc/dcmitype/StillImage" /><dc:title></dc:title></cc:Work></rdf:RDF></metadata><defs
     id="defs769" /><sodipodi:namedview
     pagecolor="#ffffff"
     bordercolor="#666666"
     borderopacity="1"
     objecttolerance="10"
     gridtolerance="10"
     guidetolerance="10"
     inkscape:pageopacity="0"
     inkscape:pageshadow="2"
     inkscape:window-width="1920"
     inkscape:window-height="1018"
     id="namedview767"
     showgrid="false"
     fit-margin-top="0"
     fit-margin-left="0"
     fit-margin-right="0"
     fit-margin-bottom="0"
     inkscape:zoom="0.64641035"
     inkscape:cx="293.10441"
     inkscape:cy="193.33895"
     inkscape:window-x="-8"
     inkscape:window-y="-8"
     inkscape:window-maximized="1"
     inkscape:current-layer="Layer_1" /><g
     id="g495"
     transform="translate(-404.82237,-643.2816)"><path
       d="m 679.412,846.473 c -5.605,-19.188 -13.209,-46.553 -10.806,-61.111 2.399,-14.557 6.901,-149.301 -119.953,-122.701 0,0 -29.519,13.449 -57.717,12.511 -0.183,-1.725 -0.545,-3.409 -1.055,-5.047 3.903,-5.434 7.261,-19.84 1.551,-22.597 -5.535,-2.671 -12.271,3.164 -14.783,5.646 -7.196,-4.866 -16.535,-7.808 -26.747,-7.808 -8.478,0 -16.49,1.608 -23.04,5.008 -4.321,-3.785 -14.232,-10.885 -20.657,-3.079 -3.348,4.069 3.896,21.366 5.03,24.005 -0.669,3.696 -0.791,7.807 -0.24,12.371 0,0 -2.513,18.916 19.035,37.349 0,0 2.301,0.193 2.632,7.323 0.2,4.294 0.66,30.231 12.691,55.166 13.168,27.295 13.646,56.742 11.971,56.981 -1.676,0.24 -20.829,5.028 -17.478,16.52 3.352,11.492 44.292,16.28 49.082,-1.437 4.785,-17.706 -5.114,-63.982 -5.126,-64.039 0.024,-0.189 0.05,-0.379 0.074,-0.569 0,0 5.304,9.978 20.32,26.198 15.015,16.219 9.779,34.595 9.779,34.595 0,0 -19.89,4.464 -18.803,13.407 1.088,8.949 35.782,17.361 48.615,-8.279 12.833,-25.643 -12.921,-74.623 -12.921,-74.623 0,0 12.485,1.805 27.202,0.11 0,0 6.723,12.271 10.875,21.958 3.938,9.187 10.361,34.127 5.367,36.298 -8.275,3.606 -31.27,9.684 -29.284,23.948 1.511,10.859 40.261,7.646 54.808,3.095 14.551,-4.549 1.862,-40.906 7.56,-59.983 5.697,-19.076 12.396,-13.338 12.396,-13.338 0,0 9.792,18.728 19.672,32.037 9.882,13.309 2.728,15.441 -1.125,16.722 -3.857,1.277 -25.213,8.331 -19.6,20.281 2.614,5.576 66.016,1.359 60.675,-16.918 z"
       id="path497"
       inkscape:connector-curvature="0"
       style="fill:#ffffff;stroke:#000000" /><path
       d="m 442.655,672 c 1.641,-0.593 2.374,-3.425 1.635,-6.33 -0.739,-2.91 -2.67,-4.783 -4.308,-4.197 -1.642,0.594 -2.375,3.423 -1.637,6.333 0.737,2.902 2.669,4.777 4.31,4.194 z m 45.857,-20.374 c -3.449,-1.666 -7.653,2.007 -9.185,3.528 3.569,2.881 6.46,6.286 8.485,10.056 2.298,-3.616 4.105,-11.939 0.7,-13.584 z m -32.826,19.636 c 1.626,-0.051 2.815,-2.368 2.652,-5.189 -0.17,-2.821 -1.623,-5.072 -3.256,-5.027 -1.631,0.044 -2.818,2.369 -2.652,5.189 0.165,2.816 1.624,5.07 3.256,5.027 z m -44.618,-20.876 c -2.025,2.207 2.893,12.195 2.893,12.195 0.107,-0.038 0.205,-0.085 0.311,-0.127 2.19,-4.072 5.282,-7.374 9.032,-9.947 -1.79,-1.536 -8.225,-6.494 -12.236,-2.121 z m 58.498,49.027 c -0.402,-0.173 -0.665,0.165 -0.724,1.024 -0.101,1.445 -2.38,6.93 -8.061,7.198 -2.389,0.113 -8.089,1.073 -10.457,-3.609 -0.009,-0.02 -0.013,-0.037 -0.024,-0.057 -0.104,-0.21 -0.193,-0.443 -0.285,-0.677 l -0.571,-5.03 c 0.063,-0.031 0.109,-0.056 0.109,-0.056 1.816,-0.777 7.822,-4.253 9.387,-8.975 0.217,-0.656 0.376,-1.228 0.468,-1.729 l 0.016,0.02 c 0,0 1.042,-6.161 -0.627,-10.368 0,0 0.231,4.407 0.111,8.016 -1.311,-1.194 -5,-1.131 -12.659,-0.978 -2.934,0.059 -4.512,0.774 -5.226,1.828 -0.478,-2.705 0.544,-8.91 0.544,-8.91 -2.119,4.599 -1.034,10.75 -1.034,10.75 l 0.014,-0.007 c 0.154,3.632 5.101,8.654 5.101,8.654 0,0 1.516,1.547 2.568,1.957 0.019,0.006 0.039,0 0.057,0.004 0.018,1.614 0.132,3.719 0.564,4.922 -0.282,1.307 -2.013,6.048 -4.03,6.451 -11.431,2.282 -12.265,-6.113 -12.769,-6.905 -0.624,-0.98 -1.027,0.091 -1.027,0.091 0,0 -0.318,9.563 13.442,8.251 3.557,-0.34 5.07,-6.427 5.07,-6.427 0,0 1.083,3.181 5.395,3.996 13.323,2.518 15.211,-7.919 15.162,-8.798 -0.041,-0.432 -0.514,-0.636 -0.514,-0.636 z"
       id="path499"
       inkscape:connector-curvature="0"
       style="fill:#3c2417" /></g></svg>
