<?xml version="1.0" encoding="UTF-8" standalone="no"?>
<!-- Generator: Adobe Illustrator 14.0.0, SVG Export Plug-In . SVG Version: 6.00 Build 43363)  -->

<svg
   xmlns:dc="http://purl.org/dc/elements/1.1/"
   xmlns:cc="http://creativecommons.org/ns#"
   xmlns:rdf="http://www.w3.org/1999/02/22-rdf-syntax-ns#"
   xmlns:svg="http://www.w3.org/2000/svg"
   xmlns="http://www.w3.org/2000/svg"
   xmlns:sodipodi="http://sodipodi.sourceforge.net/DTD/sodipodi-0.dtd"
   xmlns:inkscape="http://www.inkscape.org/namespaces/inkscape"
   version="1.1"
   id="Layer_1"
   x="0px"
   y="0px"
   width="234.14027"
   height="196.43704"
   viewBox="0 0 234.14027 196.43704"
   enable-background="new 0 0 1440 1440"
   xml:space="preserve"
   inkscape:version="0.91 r13725"
   sodipodi:docname="oso.svg"><metadata
     id="metadata771"><rdf:RDF><cc:Work
         rdf:about=""><dc:format>image/svg+xml</dc:format><dc:type
           rdf:resource="http://purl.org/dc/dcmitype/StillImage" /><dc:title></dc:title></cc:Work></rdf:RDF></metadata><defs
     id="defs769" /><sodipodi:namedview
     pagecolor="#ffffff"
     bordercolor="#666666"
     borderopacity="1"
     objecttolerance="10"
     gridtolerance="10"
     guidetolerance="10"
     inkscape:pageopacity="0"
     inkscape:pageshadow="2"
     inkscape:window-width="1920"
     inkscape:window-height="1018"
     id="namedview767"
     showgrid="false"
     fit-margin-top="0"
     fit-margin-left="0"
     fit-margin-right="0"
     fit-margin-bottom="0"
     inkscape:zoom="0.64641035"
     inkscape:cx="383.47568"
     inkscape:cy="-421.72019"
     inkscape:window-x="-8"
     inkscape:window-y="-8"
     inkscape:window-maximized="1"
     inkscape:current-layer="Layer_1" /><g
     id="g211"
     transform="translate(-314.45111,-63.000249)"><path
       d="m 548.319,235.951 c -4.783,-16.372 -11.271,-39.723 -9.222,-52.145 2.048,-12.421 5.889,-127.395 -102.353,-104.698 0,0 -25.188,11.477 -49.248,10.676 -0.156,-1.472 -0.464,-2.909 -0.9,-4.307 3.33,-4.636 6.196,-16.929 1.325,-19.281 -4.722,-2.28 -10.471,2.699 -12.614,4.818 -6.141,-4.152 -14.11,-6.662 -22.823,-6.662 -7.234,0 -14.071,1.372 -19.659,4.273 -3.687,-3.229 -12.144,-9.288 -17.626,-2.627 -2.857,3.472 3.324,18.231 4.292,20.482 -0.572,3.154 -0.675,6.661 -0.205,10.556 0,0 -2.145,16.141 16.242,31.87 0,0 1.964,0.165 2.246,6.249 0.17,3.664 0.563,25.794 10.829,47.071 11.236,23.29 11.645,48.417 10.215,48.621 -1.431,0.205 -17.773,4.291 -14.914,14.096 2.86,9.807 37.793,13.892 41.879,-1.226 4.083,-15.108 -4.363,-54.595 -4.373,-54.643 0.021,-0.162 0.042,-0.323 0.063,-0.486 0,0 4.527,8.513 17.339,22.355 12.811,13.838 8.344,29.518 8.344,29.518 0,0 -16.973,3.81 -16.044,11.441 0.928,7.635 30.532,14.814 41.482,-7.065 10.95,-21.88 -11.026,-63.673 -11.026,-63.673 0,0 10.653,1.54 23.211,0.094 0,0 5.737,10.469 9.279,18.735 3.361,7.839 8.841,29.12 4.58,30.973 -7.061,3.076 -26.682,8.262 -24.988,20.435 1.29,9.266 34.354,6.523 46.767,2.64 12.415,-3.88 1.588,-34.903 6.45,-51.182 4.86,-16.278 10.576,-11.381 10.576,-11.381 0,0 8.355,15.979 16.786,27.337 8.433,11.355 2.327,13.175 -0.961,14.267 -3.291,1.09 -21.513,7.109 -16.723,17.307 2.232,4.755 56.331,1.157 51.774,-14.438 z"
       id="path213"
       inkscape:connector-curvature="0"
       style="fill:#926645" /><path
       d="m 346.3,87.079 c 1.4,-0.506 2.025,-2.922 1.395,-5.401 -0.63,-2.483 -2.277,-4.082 -3.676,-3.581 -1.401,0.507 -2.027,2.921 -1.396,5.403 0.629,2.476 2.277,4.076 3.677,3.579 z m 39.129,-17.385 c -2.943,-1.422 -6.53,1.713 -7.836,3.01 3.045,2.458 5.512,5.364 7.239,8.58 1.961,-3.084 3.502,-10.187 0.597,-11.59 z m -28.011,16.755 c 1.389,-0.043 2.403,-2.021 2.265,-4.427 -0.145,-2.408 -1.386,-4.328 -2.779,-4.29 -1.393,0.038 -2.404,2.022 -2.263,4.428 0.142,2.403 1.385,4.325 2.777,4.289 z M 319.349,68.636 c -1.728,1.883 2.467,10.405 2.467,10.405 0.092,-0.033 0.175,-0.073 0.266,-0.108 1.869,-3.475 4.507,-6.292 7.708,-8.487 -1.528,-1.311 -7.02,-5.542 -10.441,-1.81 z m 49.914,41.833 c -0.343,-0.147 -0.567,0.142 -0.618,0.875 -0.086,1.233 -2.031,5.913 -6.877,6.142 -2.038,0.097 -6.903,0.916 -8.923,-3.08 -0.007,-0.017 -0.011,-0.031 -0.02,-0.048 -0.089,-0.18 -0.166,-0.378 -0.244,-0.577 l -0.487,-4.292 c 0.054,-0.026 0.093,-0.048 0.093,-0.048 1.55,-0.662 6.675,-3.629 8.011,-7.658 0.184,-0.559 0.32,-1.047 0.399,-1.476 l 0.014,0.018 c 0,0 0.889,-5.257 -0.536,-8.847 0,0 0.198,3.76 0.096,6.84 -1.12,-1.019 -4.267,-0.965 -10.802,-0.834 -2.504,0.05 -3.85,0.661 -4.459,1.56 -0.408,-2.308 0.464,-7.602 0.464,-7.602 -1.809,3.924 -0.883,9.173 -0.883,9.173 l 0.012,-0.007 c 0.131,3.099 4.352,7.385 4.352,7.385 0,0 1.294,1.32 2.192,1.669 0.016,0.004 0.032,0 0.048,0.003 0.015,1.377 0.112,3.174 0.481,4.2 -0.241,1.115 -1.717,5.161 -3.438,5.503 -9.754,1.948 -10.465,-5.215 -10.895,-5.891 -0.533,-0.837 -0.876,0.077 -0.876,0.077 0,0 -0.271,8.16 11.47,7.041 3.034,-0.29 4.326,-5.484 4.326,-5.484 0,0 0.924,2.713 4.604,3.409 11.368,2.149 12.979,-6.757 12.937,-7.507 -0.038,-0.37 -0.441,-0.544 -0.441,-0.544 z"
       id="path215"
       inkscape:connector-curvature="0"
       style="fill:#3c2415" /></g></svg>
