<?xml version="1.0" encoding="UTF-8" standalone="no"?>
<!-- Generator: Adobe Illustrator 14.0.0, SVG Export Plug-In . SVG Version: 6.00 Build 43363)  -->

<svg
   xmlns:dc="http://purl.org/dc/elements/1.1/"
   xmlns:cc="http://creativecommons.org/ns#"
   xmlns:rdf="http://www.w3.org/1999/02/22-rdf-syntax-ns#"
   xmlns:svg="http://www.w3.org/2000/svg"
   xmlns="http://www.w3.org/2000/svg"
   xmlns:sodipodi="http://sodipodi.sourceforge.net/DTD/sodipodi-0.dtd"
   xmlns:inkscape="http://www.inkscape.org/namespaces/inkscape"
   version="1.1"
   id="Layer_1"
   x="0px"
   y="0px"
   width="213.90601"
   height="179.99596"
   viewBox="0 0 213.90601 179.99596"
   enable-background="new 0 0 1440 1440"
   xml:space="preserve"
   inkscape:version="0.91 r13725"
   sodipodi:docname="pajaro.svg"><metadata
     id="metadata771"><rdf:RDF><cc:Work
         rdf:about=""><dc:format>image/svg+xml</dc:format><dc:type
           rdf:resource="http://purl.org/dc/dcmitype/StillImage" /><dc:title></dc:title></cc:Work></rdf:RDF></metadata><defs
     id="defs769" /><sodipodi:namedview
     pagecolor="#ffffff"
     bordercolor="#666666"
     borderopacity="1"
     objecttolerance="10"
     gridtolerance="10"
     guidetolerance="10"
     inkscape:pageopacity="0"
     inkscape:pageshadow="2"
     inkscape:window-width="1920"
     inkscape:window-height="1018"
     id="namedview767"
     showgrid="false"
     fit-margin-top="0"
     fit-margin-left="0"
     fit-margin-right="0"
     fit-margin-bottom="0"
     inkscape:zoom="0.64641035"
     inkscape:cx="634.87979"
     inkscape:cy="-429.15756"
     inkscape:window-x="-8"
     inkscape:window-y="-8"
     inkscape:window-maximized="1"
     inkscape:current-layer="Layer_1" /><g
     id="g199"
     transform="translate(-63.047,-72.003966)"><path
       d="m 254.781,121.489 22.172,-15.132 -31.62,-9.257 c -26.408,-46.405 -80.3,-22.205 -98.313,21.93 -21.731,53.197 -83.973,72.603 -83.973,72.603 44.299,52.687 84.252,62.202 110.9,60.102 26.662,-2.113 98.62,-23.073 83.641,-116.615 -0.779,-4.864 -1.725,-9.391 -2.807,-13.631 z"
       id="path201"
       inkscape:connector-curvature="0"
       style="fill:#2ba9e1" /><g
       id="g203"><path
         d="m 245.333,97.101 c 3.774,6.633 6.981,14.722 9.448,24.389 l 22.172,-15.132 -31.62,-9.257 z"
         id="path205"
         inkscape:connector-curvature="0"
         style="fill:#2b3277" /><path
         d="m 210.086,155.84 c 0,0 -73.965,-15.251 -82.445,25.904 -8.479,41.15 59.81,65.033 82.445,-25.904 z"
         id="path207"
         inkscape:connector-curvature="0"
         style="fill:#2b3277" /><path
         d="m 224.32,95.957 c 0.492,4.413 -1.78,8.301 -5.09,8.686 -3.322,0.372 -6.42,-2.91 -6.912,-7.316 -0.505,-4.413 1.769,-8.301 5.091,-8.686 3.323,-0.36 6.406,2.904 6.911,7.316 z"
         id="path209"
         inkscape:connector-curvature="0"
         style="fill:#2b3277" /></g></g></svg>
